<svg width="59" height="23" viewBox="0 0 59 23" fill="none" xmlns="http://www.w3.org/2000/svg">
<g opacity="0.8" clip-path="url(#clip0_214_164)">
<mask id="mask0_214_164" style="mask-type:luminance" maskUnits="userSpaceOnUse" x="0" y="0" width="59" height="23">
<path d="M0.269287 0.751266H58.0431V22.9948H0.269287V0.751266Z" fill="white"/>
</mask>
<g mask="url(#mask0_214_164)">
<path d="M23.379 6.31216H25.6895V15.8452H28.0008V3.9288H25.6899C24.4187 3.9288 23.379 5.00144 23.379 6.31216ZM30.3116 15.8452H32.6225V11.0785C32.6225 9.76774 31.5828 8.69552 30.312 8.69552L30.3116 15.8452ZM34.9338 8.69552V15.8452H37.2443V11.0785H39.5556V13.4618C39.5556 14.7725 40.5957 15.8452 41.8665 15.8452V11.0785C41.8665 9.76774 40.8268 8.69552 39.5556 8.69552H34.9338ZM55.7322 8.69552H53.4213V6.31216C53.4213 5.00144 52.3816 3.9288 51.1105 3.9288V13.4618H46.4887V11.0789H48.7996V8.69552H46.4887C45.2175 8.69552 44.1774 9.76774 44.1774 11.0785V13.4618C44.1774 14.7725 45.2175 15.8452 46.4887 15.8452H53.4213V11.0785H55.7322V13.4618C55.7322 14.7725 56.7724 15.8452 58.0431 15.8452V11.0785C58.0431 9.76774 57.0034 8.69552 55.7322 8.69552ZM30.3116 6.31216H32.6225C32.6225 5.00144 31.5828 3.9288 30.312 3.9288L30.3116 6.31216Z" fill="#BAC0CB"/>
<path fill-rule="evenodd" clip-rule="evenodd" d="M26.9818 18.2285V19.7691H26.77L25.9385 18.7014V19.7687H25.6899V18.2281H25.9017L26.7332 19.3003V18.2285H26.9818ZM31.6828 19.7691H30.7861V18.2285H31.6612V18.4814H31.052V18.8645H31.5964V19.1174H31.052V19.5158H31.6828V19.7691ZM35.4871 18.4814H35.9775V19.7687H36.2434V18.4814H36.7334V18.2285H35.4871V18.4814ZM42.3894 18.2285H42.6444L42.2123 19.7691H41.9636L41.5987 18.6553L41.2401 19.7687H40.9895L40.5378 18.2281H40.836L41.1406 19.3267L41.4775 18.2285H41.7414L42.0868 19.3284L42.3894 18.2285ZM46.669 18.4571C46.5223 18.6096 46.4487 18.7982 46.4487 19.0227C46.4487 19.2591 46.5231 19.4503 46.6714 19.5973C46.8197 19.744 47.0075 19.8173 47.235 19.8173C47.4612 19.8173 47.6491 19.7423 47.799 19.5928C47.9489 19.4433 48.0237 19.253 48.0237 19.0227C48.0237 18.7879 47.9489 18.5968 47.799 18.4485C47.6507 18.3019 47.4628 18.2285 47.235 18.2285C47.0075 18.2285 46.8189 18.3047 46.669 18.4571ZM46.8744 19.4103C46.7777 19.3073 46.7297 19.1784 46.7297 19.0231C46.7297 18.8645 46.7773 18.7348 46.872 18.6334C46.919 18.5836 46.9756 18.5444 47.038 18.5182C47.1005 18.4921 47.1676 18.4795 47.235 18.4814C47.3777 18.4814 47.498 18.5321 47.5959 18.6334C47.6939 18.7364 47.7431 18.8658 47.7431 19.0227C47.7431 19.1784 47.6967 19.3073 47.6047 19.4099C47.514 19.5129 47.3909 19.5644 47.235 19.5644C47.0911 19.5644 46.9708 19.5129 46.8744 19.4103ZM52.0938 19.1965V19.7732H51.828V18.2326C51.9027 18.2326 51.9843 18.2322 52.0722 18.2306C52.1598 18.2294 52.2321 18.2285 52.2881 18.2285C52.6538 18.2285 52.8369 18.3867 52.8369 18.7039C52.8369 18.8213 52.8073 18.9181 52.7482 18.9943C52.6956 19.063 52.6252 19.1148 52.5451 19.1438L53.0184 19.7732H52.6966L52.2797 19.1965H52.0938ZM52.2753 18.4814C52.2681 18.4814 52.2565 18.4823 52.2405 18.4835C52.2249 18.4835 52.2025 18.4843 52.1738 18.486H52.0938V18.9436H52.2665C52.3407 18.9471 52.4138 18.9246 52.474 18.8798C52.5004 18.8599 52.5217 18.8337 52.5359 18.8034C52.5502 18.7731 52.5571 18.7396 52.5559 18.7059C52.5559 18.5564 52.4624 18.4814 52.2753 18.4814ZM56.8227 19.7687H57.0881V18.9745L57.7061 19.7687H58.0431L57.382 18.9457L58.0043 18.2285H57.6846L57.0881 18.9589V18.2289H56.8227V19.7695V19.7687Z" fill="#AEB9C1"/>
<path d="M5.63338 12.8872L6.17223 8.69882L1.48849 5.34498L5.76849 6.83942L6.77983 5.24118L10.4694 2.87759L18.6085 7.50014L19.0298 14.5555L15.407 19.7514L12.5425 20.2033L14.0255 17.4051V14.7116L12.947 12.6092L11.8517 11.8619L10.1664 13.6517V15.5457L8.85208 16.8144L7.18397 17.0229L6.44245 17.4574L5.22925 17.0579L4.72358 15.1808L5.63378 13.8601V12.8872H5.63338Z" fill="#E3F2FD"/>
<path d="M9.91338 5.69263C10.3011 5.22345 10.1492 4.52814 10.1492 4.52814L9.02037 6.24872C9.00318 6.24872 9.4245 6.26602 9.91338 5.69263ZM6.12186 15.0942L6.25657 14.3989C6.25657 14.3989 5.70094 15.4069 5.65017 15.5457C5.5994 15.7022 5.68375 15.9803 5.9028 15.963C6.12186 15.9457 6.39168 15.6153 6.39168 15.3723C6.39168 15.0592 6.12186 15.0942 6.12186 15.0942Z" fill="#BAC0CB"/>
<path d="M16.1309 4.04167C16.1309 4.04167 16.9736 4.07668 17.8498 4.1809C15.8787 2.58224 14.0083 2.11307 12.4917 2.11307C10.4019 2.11307 8.98639 2.9991 8.90205 3.05142L9.55962 1.97384C9.55962 1.97384 6.93093 1.7131 6.00394 4.58046C5.76809 3.97247 5.54904 3.08602 5.54904 3.08602C5.54904 3.08602 4.18393 4.31971 4.82431 6.37024C3.25734 5.77955 1.016 4.96272 0.932055 4.94542C0.813732 4.92812 0.780154 4.98002 0.780154 4.98002C0.780154 4.98002 0.746576 5.03233 0.84771 5.11925C1.03279 5.27577 4.57168 7.96931 5.34677 8.49038C5.17808 9.11609 5.17808 9.41143 5.34677 9.70678C5.58261 10.1063 5.5994 10.3152 5.56583 10.6105C5.53225 10.9059 5.22885 13.4606 5.16129 13.7732C5.09413 14.0863 4.3862 15.1985 4.42017 15.5284C4.45375 15.8588 4.89187 17.2663 5.27961 17.4228C5.56583 17.527 6.27336 17.7528 6.74546 17.7528C6.91375 17.7528 7.06525 17.7182 7.1332 17.6486C7.41941 17.3878 7.50376 17.3355 7.70603 17.3355H7.75639C7.84034 17.3355 7.94187 17.3532 8.0598 17.3532C8.32922 17.3532 8.68339 17.3009 8.93602 17.0579C9.30658 16.6756 9.94736 16.1541 10.1492 15.9107C10.4019 15.5807 10.537 15.1289 10.469 14.677C10.4191 14.2597 10.6381 13.8952 10.8907 13.5302C11.2105 13.0956 11.8006 12.3138 11.8006 12.3138C12.9634 13.2171 13.6877 14.5901 13.6877 16.1195C13.6877 18.8299 11.396 21.0197 8.56547 21.0197C8.12695 21.0197 7.70603 20.9678 7.2847 20.8632C8.58225 21.3327 9.67754 21.4893 10.5706 21.4893C12.4745 21.4893 13.4858 20.7767 13.4858 20.7767C13.4858 20.7767 13.1317 21.2458 12.5589 21.7846H12.5756C15.7268 21.3327 17.2606 18.6565 17.2606 18.6565C17.2606 18.6565 17.1423 19.5257 16.9908 20.1164C21.1864 16.8663 20.4789 12.8003 20.4617 12.6611C20.4957 12.7134 20.917 13.2344 21.136 13.5125C21.81 6.35335 16.1309 4.04167 16.1309 4.04167ZM9.67754 15.4765C9.60998 15.563 9.32337 15.8238 9.1215 16.0149C8.91923 16.2064 8.70018 16.3976 8.53149 16.571C8.46433 16.641 8.32922 16.6756 8.12695 16.6756H7.62128C7.87432 16.3279 8.61583 15.5284 8.86847 15.3546C9.17187 15.1462 9.32337 14.9377 9.13829 14.5728C8.95281 14.2078 8.46433 14.2947 8.46433 14.2947C8.46433 14.2947 8.75055 14.1732 9.00318 14.1732C8.68339 14.0863 8.27885 14.1732 8.09337 14.3643C7.89111 14.5555 7.92508 15.2331 7.84074 15.6676C7.75679 16.1195 7.46978 16.3452 7.03167 16.7621C6.79582 16.9882 6.62753 17.0579 6.49242 17.0579C6.20077 17.0052 5.91345 16.9296 5.63298 16.8317C5.46509 16.606 5.21206 15.8588 5.1445 15.5457C5.19527 15.3723 5.39714 15.0073 5.49827 14.7985C5.70054 14.3989 5.81846 14.1732 5.85244 13.9644C5.91959 13.669 6.13865 11.8442 6.223 11.0797C6.44205 11.375 6.74545 11.8619 6.6779 12.1746C7.16678 11.462 6.81261 10.7671 6.64432 10.489C6.49242 10.211 6.29055 9.65487 6.45884 9.06377C6.62753 8.47308 7.23434 6.83942 7.23434 6.83942C7.23434 6.83942 7.4362 7.20437 7.72282 7.13517C8.00903 7.06515 10.3175 3.48558 10.3175 3.48558C10.3175 3.48558 10.9411 4.8931 10.2839 5.91837C9.60998 6.94404 8.95281 7.13517 8.95281 7.13517C8.95281 7.13517 9.87981 7.30859 10.7388 6.66559C11.093 7.51743 11.43 8.40388 11.4464 8.52539C11.396 8.64691 10.7221 10.3152 10.6549 10.4194C10.6209 10.454 10.3851 10.5236 10.2168 10.5586C9.93017 10.6451 9.76148 10.6974 9.69433 10.7498C9.5764 10.854 9.03716 12.383 8.78452 13.1306C8.48072 13.2171 8.17772 13.391 7.95866 13.7386C8.07659 13.6517 8.44714 13.5994 8.71697 13.5648C8.95281 13.5475 9.67754 13.9471 9.86262 14.6943V14.7293C9.8966 15.0073 9.81225 15.2677 9.67754 15.4765ZM8.09337 15.6849C8.24527 15.4588 8.22809 15.0765 8.24527 14.955C8.26206 14.8335 8.29564 14.6074 8.43035 14.5728C8.56507 14.5377 8.88526 14.5901 8.88526 14.8335C8.88526 15.0592 8.64941 15.1116 8.48112 15.2677C8.3632 15.3896 8.12695 15.6499 8.09337 15.6849ZM14.817 12.3657C14.9853 11.4793 15.0021 10.7147 14.9517 10.089C15.6089 10.9928 16.0134 12.0877 16.1309 13.2171C16.1481 13.3564 16.2828 13.4952 16.4175 13.6344C16.5359 13.7386 16.6706 13.8774 16.6706 13.9644C16.6706 14.3639 16.6366 14.7635 16.5694 15.1635C16.5526 15.2158 16.4007 15.3027 16.2828 15.3723C16.1145 15.4588 15.963 15.5457 15.9291 15.6849C15.5562 17.0199 14.7764 18.1958 13.7049 19.0388C15.2719 17.3532 16.0302 14.5728 14.817 12.3657ZM13.7553 19.1953C14.8506 18.3262 15.6932 17.1098 16.0638 15.7368C16.0806 15.6849 16.2325 15.598 16.3336 15.5284C16.5019 15.4419 16.6706 15.3373 16.7041 15.1985C16.7717 14.7989 16.8053 14.3816 16.8053 13.9644C16.8053 13.8078 16.6534 13.6513 16.5019 13.4952C16.4179 13.391 16.2828 13.2695 16.2828 13.1821C16.1452 11.919 15.6665 10.7211 14.9009 9.72449C14.5639 7.63895 13.216 6.99594 13.182 6.97864C13.216 7.03096 14.0923 8.33385 13.4858 9.8633C12.8623 11.4101 11.2613 11.1666 11.1266 11.1839C10.9919 11.1839 10.4694 11.8792 9.81225 13.1652C9.7283 13.1302 9.37414 13.0433 8.9696 13.1129C9.273 12.2438 9.72791 11.0101 9.81225 10.9059C9.84583 10.8713 10.0985 10.8017 10.2672 10.7493C10.5873 10.6628 10.7388 10.6105 10.7896 10.5409C10.8232 10.489 10.9919 10.0894 11.1602 9.67217C11.3121 9.67217 11.6998 9.63757 11.733 9.61986C11.767 9.58526 12.0872 8.73383 12.0872 8.62961C12.0872 8.5427 11.43 6.85713 11.177 6.21412C11.2953 6.0749 11.4128 5.90107 11.5311 5.70994C14.9853 6.0922 17.6815 9.11609 17.6815 12.7826C17.6815 15.598 16.0806 18.0481 13.7553 19.1953Z" fill="#B9C4CD"/>
<path d="M9.273 9.811C9.59279 9.42874 9.4249 8.71653 8.83489 8.5946C8.98679 8.22964 9.20545 7.50014 9.20545 7.50014C9.20545 7.50014 7.48657 10.2806 7.33507 10.3325C7.18317 10.3848 7.03167 9.7764 7.03167 9.7764C6.71188 11.0451 7.57131 11.2189 7.67205 10.819C8.14374 10.6974 8.95281 10.1764 9.273 9.811Z" fill="#C1CDD7"/>
<path d="M7.80716 10.489L8.68339 8.94226C8.68339 8.94226 9.18866 9.203 8.93602 9.62028C8.61623 10.1063 7.80716 10.489 7.80716 10.489Z" fill="#E3F2FD"/>
<path d="M18.6421 17.6486C18.389 17.9962 18.1024 18.3612 17.7659 18.7088C19.9396 14.3989 17.867 10.454 17.7826 10.2975C17.9345 10.454 18.086 10.6278 18.2208 10.7844C19.8889 12.6957 20.0911 15.5634 18.6421 17.6486ZM20.664 12.105C19.9057 10.0025 18.8272 8.21234 16.4515 6.59639C14.1598 5.03233 11.6994 5.15385 11.5647 5.17115H11.5307C11.6151 5.13655 11.6994 5.11925 11.7838 5.10195C12.3062 4.92812 12.9802 4.78889 13.6541 4.70239C15.4402 4.44164 17.2434 5.06693 18.4734 6.40526L18.507 6.43986C19.9061 7.96931 20.6304 9.88061 20.664 12.105ZM15.9123 3.50288C13.4015 3.01682 11.7838 3.25985 10.6209 3.71172C10.5873 3.5725 10.469 3.29445 10.3683 3.06872C10.0145 3.50329 9.64356 4.02437 9.40771 4.35473C8.76733 4.8066 8.49791 5.24076 8.49791 5.24076C8.86847 3.93745 9.94696 2.9645 11.2613 2.72106C11.6319 2.65145 12.0368 2.61685 12.4745 2.61685C13.6374 2.63415 14.7998 2.9299 15.9123 3.50329V3.50288ZM6.62753 6.83942C4.65562 6.77021 5.31279 4.40663 5.34677 4.26781C5.34677 4.28511 5.48148 6.12721 6.62753 6.83983V6.83942ZM8.56507 2.58224C7.04846 3.52059 7.35186 5.76225 7.35186 5.76225C5.90281 3.48558 8.44714 2.63415 8.56507 2.58224Z" fill="#E3F2FD"/>
<path d="M6.07109 7.46553C6.17223 7.55203 6.27336 7.70856 6.15544 7.93429C6.08828 8.05622 5.98715 8.03851 5.83565 7.96931C5.63298 7.86509 4.41977 7.13517 3.32449 6.38754C4.57167 6.83983 5.83525 7.3263 6.03752 7.43052L6.07149 7.46512L6.07109 7.46553Z" fill="#E3F2FD"/>
</g>
</g>
<defs>
<clipPath id="clip0_214_164">
<rect width="57.9621" height="22.2436" fill="white" transform="translate(0.269287 0.751266)"/>
</clipPath>
</defs>
</svg>
