<svg width="62" height="15" viewBox="0 0 62 15" fill="none" xmlns="http://www.w3.org/2000/svg">
<g opacity="0.8" clip-path="url(#clip0_214_186)">
<mask id="mask0_214_186" style="mask-type:luminance" maskUnits="userSpaceOnUse" x="0" y="0" width="62" height="15">
<path d="M61.8216 0.829254H0.471985V14.9168H61.8216V0.829254Z" fill="white"/>
</mask>
<g mask="url(#mask0_214_186)">
<path d="M19.1387 6.76077L23.5841 2.46058L21.8977 0.829254L18.2954 4.31375L14.6932 0.829254L13.0067 2.46058L17.4522 6.76077C17.6851 6.98603 17.9903 7.09862 18.2954 7.09862C18.6006 7.09862 18.9058 6.98606 19.1387 6.76077ZM25.5742 11.3546L21.9719 7.87009L25.5742 4.38553L23.8877 2.75419L19.4422 7.05442C18.9765 7.50491 18.9765 8.23524 19.4422 8.68573L23.8877 12.9859L25.5742 11.3546ZM18.2893 11.4324L21.8915 14.9168L23.578 13.2855L19.1325 8.98534C18.6667 8.53489 17.9117 8.53489 17.446 8.98534L13.0006 13.2855L14.687 14.9168L18.2893 11.4324ZM17.1425 8.69172C17.3661 8.4754 17.4918 8.18199 17.4918 7.87604C17.4918 7.57013 17.3661 7.27672 17.1425 7.06041L12.697 2.76021L11.0106 4.39155L14.6129 7.87601L11.0106 11.3606L12.697 12.9919L17.1425 8.69172ZM10.9505 14.351H7.212L6.94289 12.7065H4.50554L4.21048 14.351H0.471985L3.69001 1.39512H8.11392L10.9505 14.351ZM6.51805 9.92899L6.2838 8.41863C6.27739 8.41313 6.26635 8.33748 6.24894 8.19168C6.23757 8.06926 6.17679 7.58232 6.06692 6.73224C6.05519 6.63697 6.04097 6.50698 6.02355 6.34191C6.00614 6.17683 5.98301 5.96813 5.95423 5.71638L5.84082 4.49182C5.82981 4.60941 5.81381 4.74078 5.79354 4.88623C5.77327 5.03172 5.75158 5.19091 5.72849 5.36458C5.68794 5.71124 5.65916 5.95196 5.64175 6.08607C5.62398 6.21984 5.61294 6.30133 5.60725 6.32954L5.35556 7.89799L4.99117 9.92899H6.51805ZM33.2943 14.351V11.2383H30.1891V9.25761H32.9732V6.32965H30.1891V4.4417H33.2943V1.39525H26.5717V14.3509L33.2943 14.351ZM40.4087 11.2383H37.6937V1.39525H34.0765V14.3509H40.4087V11.2383ZM51.516 14.3511H47.778L47.5086 12.7066H45.0713L44.7762 14.3511H41.0375L44.2557 1.39512H48.6797L51.516 14.3511ZM47.084 9.92903L46.8494 8.41866C46.8433 8.41317 46.832 8.33752 46.8147 8.19171C46.8034 8.06929 46.7423 7.58235 46.6326 6.73227C46.6206 6.63701 46.6069 6.50701 46.5891 6.34194C46.5718 6.17687 46.5486 5.96816 46.5204 5.71642L46.4067 4.49185C46.3955 4.60945 46.3795 4.74082 46.3593 4.88627C46.339 5.03176 46.3173 5.19095 46.2941 5.36461C46.2536 5.71127 46.2246 5.952 46.2072 6.08611C46.1899 6.21987 46.1786 6.30137 46.1732 6.32958L45.9213 7.89802L45.5567 9.92903H47.084ZM61.8214 14.3511H57.9096L56.1231 9.7361C56.1058 9.6577 56.0746 9.55419 56.0312 9.42557C55.9881 9.29695 55.9345 9.14326 55.8712 8.96406L55.8969 9.82003V14.3511H52.2972V1.39512H56.0011C57.632 1.39512 58.8519 1.70599 59.6621 2.32705C60.6909 3.12143 61.2056 4.25143 61.2056 5.71638C61.2056 7.28313 60.5146 8.36569 59.1324 8.96403L61.8214 14.3511ZM57.6146 5.75836C57.6146 4.79104 57.0911 4.30718 56.0446 4.30718H55.9143V7.3946H56.1572C56.5735 7.3946 56.9206 7.24122 57.1983 6.93309C57.4759 6.62602 57.6146 6.23431 57.6146 5.75836Z" fill="#BAC0CB"/>
</g>
</g>
<defs>
<clipPath id="clip0_214_186">
<rect width="61.54" height="14.0876" fill="white" transform="translate(0.465332 0.829254)"/>
</clipPath>
</defs>
</svg>
