<svg width="70" height="24" viewBox="0 0 70 24" fill="none" xmlns="http://www.w3.org/2000/svg">
<path d="M35.8889 13.7949H37.3394C37.1062 14.7811 36.6141 15.565 35.8759 16.1466C35.1377 16.7282 34.1793 17.0064 33.0267 17.0064C31.4467 17.0064 30.2034 16.5006 29.3227 15.4765C28.442 14.4524 28.0017 13.1248 28.0017 11.5064C28.0017 9.88799 28.455 8.54776 29.3486 7.53626C30.2422 6.51212 31.4855 6.00638 33.0526 6.00638C34.1534 6.00638 35.06 6.2719 35.7982 6.81557C36.5364 7.34661 37.0026 8.0673 37.2358 8.99029H35.7852C35.3579 7.81442 34.4513 7.23281 33.0526 7.23281C31.8481 7.23281 30.9416 7.65005 30.3199 8.47189C29.6983 9.29373 29.3875 10.3179 29.3875 11.519C29.3875 12.7455 29.6983 13.757 30.307 14.5914C30.9286 15.4006 31.8352 15.8179 33.0396 15.8179C33.7908 15.8179 34.4124 15.6409 34.9046 15.2995C35.3708 14.9075 35.7075 14.4144 35.8889 13.7949ZM39.2302 9.30638H40.5253V13.8075C40.5253 15.1857 41.1728 15.8811 42.4809 15.8811C43.1414 15.8811 43.6853 15.6409 44.1127 15.1478C44.5531 14.6673 44.7732 14.073 44.7732 13.3776V9.30638H46.0683V16.8167H44.8121V16.0075H44.4753C44.2552 16.311 43.9314 16.5512 43.5299 16.7409C43.1284 16.9179 42.6622 17.0064 42.1571 17.0064C41.2247 17.0064 40.4994 16.7535 39.9943 16.2351C39.4892 15.7041 39.2302 14.9834 39.2302 14.073V9.30638ZM52.9453 9.30638V10.4949H52.3107C51.5336 10.4949 50.9379 10.7225 50.4976 11.165C50.0702 11.6075 49.8629 12.2397 49.8629 13.0616V16.8167H48.5679V9.30638H49.8241V10.2041H50.1608C50.653 9.60983 51.3912 9.30638 52.3884 9.30638H52.9453ZM56.8694 16.8167L54.3181 9.30638H55.665L57.8149 15.6156H58.4365L60.5087 9.30638H61.8685L59.2913 16.8167H56.8694ZM70.0017 12.619V13.0489H64.1479C64.1738 13.9466 64.381 14.6547 64.8084 15.1604C65.2228 15.6535 65.8315 15.9064 66.6086 15.9064C67.6705 15.9064 68.3181 15.5144 68.5642 14.7432H69.8722C69.7427 15.4133 69.393 15.9696 68.8232 16.3868C68.2663 16.8041 67.5281 17.0064 66.6086 17.0064C65.443 17.0064 64.5234 16.6397 63.8629 15.8937C63.2024 15.1478 62.8657 14.1868 62.8657 12.9857C62.8657 11.8098 63.2024 10.8742 63.8629 10.1662C64.5234 9.4581 65.43 9.10408 66.5827 9.10408C67.6705 9.10408 68.5124 9.44546 69.0951 10.1156C69.6779 10.7983 69.9758 11.6202 70.0017 12.619ZM66.5438 10.2167C65.8833 10.2167 65.3523 10.3811 64.9638 10.7225C64.5623 11.0512 64.3292 11.4684 64.2256 11.9868H68.6678C68.6289 11.4811 68.4217 11.0639 68.0461 10.7225C67.6576 10.3937 67.1654 10.2167 66.5438 10.2167Z" fill="#BAC0CB"/>
<path d="M12.1299 11.9719C12.0122 9.83599 11.1492 7.66303 10.3123 5.88516C10.1162 5.46538 10.0508 4.14433 11.7637 4.42829C13.8821 5.13203 19.3871 7.14449 19.6878 9.66314C19.8055 10.6755 19.0471 11.3916 17.0988 11.6385C15.1504 11.8731 13.0321 11.9349 12.1299 11.9719ZM12.1299 11.9719C12.2476 14.1078 12.1299 15.9227 11.5414 17.9969L12.1299 11.9719ZM11.5414 17.9846C10.9792 20.7748 9.22698 22.2687 7.854 22.6391C0.819085 24.5281 0.531412 14.5152 1.28982 9.18163C1.74748 5.93455 3.39507 2.76154 5.40878 1.57629C6.24565 1.08244 8.06322 0.440429 10.9269 1.27998C14.4182 2.31707 17.9618 4.0826 18.8902 4.60114C19.8186 5.11969 22.0154 6.71236 22.7215 7.66303C24.0814 9.50263 24.6306 10.4286 23.9768 12.7497C23.336 15.0832 20.8777 15.4289 20.0932 15.5523C16.6803 16.145 14.8366 16.9228 11.5414 17.9846Z" fill="#BAC0CB"/>
<path d="M12.1299 11.9719C12.0122 9.83599 11.1492 7.66303 10.3123 5.88516C10.1162 5.46538 10.0508 4.14433 11.7637 4.42829C13.8821 5.13203 19.3871 7.14449 19.6878 9.66314C19.8055 10.6755 19.0471 11.3916 17.0988 11.6385C15.1504 11.8731 13.0321 11.9349 12.1299 11.9719ZM12.1299 11.9719C12.2476 14.1078 12.1299 15.9227 11.5414 17.9969M11.5414 17.9846C10.9792 20.7748 9.22698 22.2687 7.854 22.6391C0.819085 24.5281 0.531412 14.5152 1.28982 9.18163C1.74748 5.93455 3.39507 2.76154 5.40878 1.57629C6.24565 1.08244 8.06322 0.440429 10.9269 1.27998C14.4182 2.31707 17.9618 4.0826 18.8902 4.60114C19.8186 5.11969 22.0154 6.71236 22.7215 7.66303C24.0814 9.50263 24.6306 10.4286 23.9768 12.7497C23.336 15.0832 20.8777 15.4289 20.0932 15.5523C16.6803 16.145 14.8366 16.9228 11.5414 17.9846Z" stroke="#E3F2FD"/>
<path d="M7.49914 15.126C7.52794 16.161 7.31196 17.0616 6.9808 17.68C6.63524 18.3252 6.27528 18.4596 6.1025 18.473C5.92972 18.473 5.56976 18.3655 5.181 17.7337C4.80664 17.1423 4.53307 16.2551 4.50428 15.2201C4.47548 14.1851 4.69146 13.2845 5.02262 12.6661C5.36818 12.0209 5.72814 11.8865 5.90092 11.873C6.0737 11.873 6.43366 11.9806 6.82242 12.6124C7.18238 13.2038 7.45595 14.091 7.49914 15.126Z" fill="#BAC0CB" stroke="#E3F2FD"/>
</svg>
