<svg width="54" height="15" viewBox="0 0 54 15" fill="none" xmlns="http://www.w3.org/2000/svg">
<g clip-path="url(#clip0_214_197)">
<mask id="mask0_214_197" style="mask-type:luminance" maskUnits="userSpaceOnUse" x="0" y="0" width="55" height="15">
<path d="M54.0002 0.873047H0.000518799V14.8728H54.0002V0.873047Z" fill="white"/>
</mask>
<g mask="url(#mask0_214_197)">
<path d="M20.8104 12.2629L23.7736 9.47845C23.7736 9.47845 23.7722 4.31794 23.7722 1.42867C23.7722 1.39322 23.7696 1.35775 23.7668 1.32202L23.7539 1.10634H20.7872V12.2568H16.0246V1.10714H13.0579L13.0499 1.28203C13.0499 1.30176 13.0477 1.31989 13.0465 1.33722C13.0442 1.37028 13.0422 1.40068 13.0422 1.43081V3.08379C13.0422 6.20758 13.0422 9.33146 13.0422 12.4554C13.0439 13.7767 14.2805 14.8549 15.7987 14.8603C16.596 14.8629 17.4001 14.864 18.1983 14.864C19.1516 14.864 20.0958 14.8627 21.0086 14.8611C21.7003 14.8693 22.3705 14.6368 22.889 14.2089C23.1632 13.993 23.3842 13.7241 23.5368 13.4209C23.6895 13.1176 23.7701 12.7871 23.7733 12.452L23.7805 12.2627L20.8104 12.2629Z" fill="#BAC0CB"/>
<path d="M7.74244 6.68517L10.7057 5.38891V1.10713H7.71762V6.6793" fill="#BAC0CB"/>
<path d="M51.0137 3.64954L51.0162 14.8544H53.9804L54 0.873322L51.0137 3.64954Z" fill="#BAC0CB"/>
<path d="M36.7667 9.08253C36.7667 6.66863 33.8001 6.67289 33.7778 6.66863L36.773 5.36757C36.773 5.36757 36.7702 4.75143 36.7702 4.44323C36.7702 4.13503 36.7702 3.82469 36.7673 3.51569C36.7667 3.35952 36.7485 3.20384 36.7128 3.05125C36.5624 2.47941 36.2065 1.97317 35.7046 1.6172C35.2027 1.26123 34.5853 1.07712 33.9555 1.09567C32.2881 1.09567 30.6206 1.09567 28.953 1.09567H26.0525V14.861H29.0357C30.686 14.861 32.3363 14.8603 33.9866 14.8589C34.176 14.8597 34.3651 14.8436 34.5512 14.8107C35.1603 14.7196 35.7161 14.4317 36.1216 13.9972C36.5271 13.5626 36.7567 13.009 36.7705 12.4325C36.7722 11.5752 36.7722 10.718 36.7705 9.86077L36.7667 9.08253ZM29.0363 3.70792H33.7795V6.66863H29.0348L29.0363 3.70792ZM33.7895 12.0326V12.2552H29.034V9.28648H33.7887C33.7887 10.0948 33.7887 11.3711 33.7887 12.0326" fill="#BAC0CB"/>
<path d="M48.9904 3.23015C48.8885 2.6307 48.5591 2.08557 48.0624 1.69457C47.5657 1.30357 46.9349 1.09285 46.2855 1.101C44.0035 1.09674 38.2128 1.101 38.2128 1.101L41.1991 3.90042H45.9022C45.219 4.9274 43.9253 6.8382 42.5624 8.85084C41.0274 11.117 39.4399 13.4632 38.7935 14.4454C38.773 14.4774 38.7548 14.5099 38.7322 14.5499L38.5497 14.8698H39.7241C40.3553 14.8698 41.0077 14.8698 41.6501 14.8733H41.6547C41.7465 14.8787 41.8382 14.8593 41.9186 14.8175C41.999 14.7756 42.0648 14.713 42.1082 14.6371C44.0526 11.6793 46.1207 8.53918 48.6161 4.75517C48.9248 4.30229 49.0566 3.76367 48.9892 3.23042" fill="#BAC0CB"/>
<path d="M10.7046 6.68943V14.8613H7.75785V9.30142H2.98892V14.8643H0.0151168L0 1.10713H2.98122V6.68277H7.74815L10.7046 6.68943Z" fill="#BAC0CB"/>
</g>
</g>
<defs>
<clipPath id="clip0_214_197">
<rect width="54" height="14" fill="white" transform="translate(0 0.873047)"/>
</clipPath>
</defs>
</svg>
