<svg width="53" height="18" viewBox="0 0 53 18" fill="none" xmlns="http://www.w3.org/2000/svg">
<g opacity="0.8" clip-path="url(#clip0_214_179)">
<path d="M13.9728 16.6816H11.8308V5.39111H13.9728V16.6816Z" fill="#BAC0CB"/>
<path d="M21.7127 5.16946C22.8952 5.16946 23.8611 5.61856 24.6096 6.51678C25.357 7.41496 25.7318 8.557 25.7318 9.94163V16.6805H23.5898V10.295C23.5898 9.42602 23.3313 8.70748 22.8144 8.14053C22.2974 7.57364 21.6588 7.29017 20.8974 7.29017C20.0402 7.29017 19.3402 7.57364 18.7964 8.14053C18.2525 8.70748 17.98 9.42602 17.98 10.295V16.6805H15.838V5.3911H17.98V8.30732C18.2654 7.33564 18.7382 6.56928 19.3984 6.00933C20.0574 5.44942 20.8296 5.16946 21.7138 5.16946H21.7127Z" fill="#BAC0CB"/>
<path d="M32.4098 5.16946C34.0823 5.16946 35.4425 5.81802 36.4892 7.114C37.536 8.41116 37.9646 9.97894 37.774 11.8208H29.1456C29.2953 12.7342 29.683 13.4749 30.3087 14.0418C30.9344 14.6088 31.6883 14.8923 32.5725 14.8923C33.252 14.8923 33.8605 14.7114 34.3979 14.351C34.9352 13.9905 35.3531 13.5006 35.6524 12.8812L37.4477 13.7432C36.9857 14.7009 36.3256 15.4661 35.4694 16.0412C34.6133 16.6163 33.6268 16.9033 32.511 16.9033C30.9474 16.9033 29.6346 16.3434 28.5738 15.2247C27.513 14.106 26.9821 12.7132 26.9821 11.0486C26.9821 9.38401 27.5023 7.98888 28.5426 6.86091C29.5829 5.73405 30.8709 5.17063 32.4087 5.17063L32.4098 5.16946ZM32.4098 7.18052C31.6204 7.18052 30.9377 7.44182 30.3593 7.96554C29.7811 8.48813 29.3966 9.16941 29.207 10.0093H35.6126C35.436 9.16941 35.058 8.48813 34.4808 7.96554C33.9024 7.44299 33.2122 7.18052 32.4098 7.18052Z" fill="#BAC0CB"/>
<path d="M43.6961 5.16946C44.9475 5.16946 45.9674 5.52291 46.7556 6.22979C47.544 6.93671 47.9394 7.95391 47.9394 9.27906V16.6816H45.7972V13.6768C45.1575 15.8277 43.8727 16.9033 41.9418 16.9033C41.0436 16.9033 40.2962 16.6128 39.6975 16.0307C39.0987 15.4486 38.8004 14.6869 38.8004 13.7444C38.8004 12.6397 39.1601 11.8104 39.8816 11.2586C40.6021 10.7068 41.5207 10.3639 42.6353 10.2309L44.6546 10.0093C45.416 9.93577 45.7972 9.56717 45.7972 8.90459C45.7972 8.35983 45.6034 7.92476 45.2157 7.60163C44.8279 7.27733 44.3218 7.11517 43.6961 7.11517C43.0704 7.11517 42.5158 7.29252 42.0743 7.64592C41.6327 7.99938 41.3506 8.51499 41.2278 9.1927L39.1062 8.63978C39.2968 7.57945 39.8062 6.73607 40.6366 6.10964C41.4658 5.48442 42.4856 5.17063 43.6961 5.17063V5.16946ZM42.6353 15.024C43.5195 15.024 44.2669 14.7032 44.8786 14.0628C45.4903 13.4224 45.7961 12.6747 45.7961 11.8197V11.2014C45.6335 11.4966 45.2383 11.6797 44.6126 11.7532L42.6342 12.018C42.1173 12.0926 41.7059 12.2571 41.4001 12.5149C41.0942 12.7727 40.9413 13.1227 40.9413 13.5648C40.9413 14.0069 41.0942 14.3603 41.4001 14.6251C41.7059 14.8899 42.1173 15.0229 42.6342 15.0229L42.6353 15.024Z" fill="#BAC0CB"/>
<path d="M10.3554 16.6816H0.4617V5.39111H2.72541V14.4945H10.3554V16.6816Z" fill="#BAC0CB"/>
<path d="M49.9587 5.16948C51.0736 5.16948 51.9776 4.19024 51.9776 2.98229C51.9776 1.77434 51.0736 0.795105 49.9587 0.795105C48.8434 0.795105 47.9394 1.77434 47.9394 2.98229C47.9394 4.19024 48.8434 5.16948 49.9587 5.16948Z" fill="#BAC0CB"/>
</g>
<defs>
<clipPath id="clip0_214_179">
<rect width="52.2375" height="16.312" fill="white" transform="translate(0.229614 0.717072)"/>
</clipPath>
</defs>
</svg>
