<svg width="95" height="23" viewBox="0 0 95 23" fill="none" xmlns="http://www.w3.org/2000/svg">
<path fill-rule="evenodd" clip-rule="evenodd" d="M4.89778 4.25764L6.45323 5.81568C8.07583 4.57855 10.1323 4.00697 12.1831 4.22336C14.2338 4.43962 16.1161 5.42668 17.4274 6.97321L15.8602 8.53496C16.6905 9.58795 17.1031 10.8962 17.022 12.2201C16.9411 13.5441 16.372 14.7956 15.419 15.7456C14.4661 16.6958 13.1928 17.2809 11.8321 17.3942C10.4716 17.5073 9.11423 17.1411 8.00868 16.3625L7.21158 17.1669C8.45822 18.088 9.99317 18.5647 11.5588 18.5173C13.1244 18.4697 14.6256 17.9009 15.8108 16.9061C16.9959 15.9114 17.7929 14.5512 18.0681 13.0536C18.3433 11.5559 18.0801 10.0119 17.3224 8.68035L18.1002 7.89673C18.951 9.26081 19.3432 10.8486 19.2223 12.4392C19.1014 14.0297 18.4734 15.5442 17.4254 16.7723L18.2265 17.5711C19.6225 15.977 20.3875 13.9518 20.3844 11.8591C20.3811 9.76643 19.6099 7.74354 18.209 6.15338C16.8082 4.56344 14.8695 3.51056 12.7413 3.1838C10.613 2.85713 8.43465 3.27801 6.59716 4.37104L5.81942 3.60239C7.45781 2.56679 9.37097 2.01632 11.3258 2.01799C13.6763 2.00421 15.9562 2.79815 17.7618 4.25957L18.561 3.4607C16.3812 1.67143 13.584 0.751262 10.7333 0.886003C7.88253 1.02062 5.19043 2.19997 3.19976 4.18633C1.20911 6.17266 0.0677599 8.81821 0.00616892 11.5895C-0.0554221 14.3608 0.967187 17.0517 2.86786 19.1195L3.66892 18.3208C2.77936 17.3278 2.10409 16.1713 1.68345 14.9201C1.26268 13.6689 1.10493 12.3483 1.21947 11.0366C1.33414 9.7252 1.71875 8.44937 2.35058 7.28488C2.9824 6.1204 3.84865 5.09102 4.89778 4.25764ZM71.3508 15.4742L74.4073 11.3886L71.5156 7.47054H73.2462L75.3553 10.313L77.4373 7.47054H79.0972L76.2138 11.3346L79.3091 15.4742H77.5432L75.3027 12.4281L73.0931 15.4742H71.3508ZM68.4171 15.5543C68.1502 15.5543 67.9226 15.4666 67.7342 15.2913C67.5459 15.1084 67.4517 14.8797 67.4517 14.6053C67.4517 14.3156 67.5459 14.0869 67.7342 13.9192C67.9226 13.7439 68.1502 13.6563 68.4171 13.6563C68.6839 13.6563 68.9115 13.7439 69.0999 13.9192C69.2882 14.0869 69.3824 14.3156 69.3824 14.6053C69.3824 14.8797 69.2882 15.1084 69.0999 15.2913C68.9115 15.4666 68.6839 15.5543 68.4171 15.5543ZM82.418 12.6731V15.4742H83.9485V12.6542L87.1742 7.47054H85.6673L83.2322 11.3641L80.817 7.47054H79.1805L82.418 12.6731ZM9.25936 10.3005H13.9902L11.6102 14.6912L9.25936 10.3005ZM7.37141 9.18826L11.3263 16.5663L15.2812 9.18826H7.37141ZM18.9842 5.41863L19.7852 4.6199H19.791C21.6944 6.68752 22.7193 9.37948 22.6587 12.1525C22.5982 14.9254 21.4566 17.5728 19.4646 19.5602C17.4727 21.5475 14.7785 22.727 11.9262 22.8604C9.07358 22.9937 6.27521 22.071 4.09594 20.2787L4.89699 19.4799C6.55526 20.8078 8.60604 21.5879 10.7517 21.7071C12.8974 21.8262 15.0264 21.2784 16.8299 20.1427L16.052 19.3742C14.2147 20.469 12.0354 20.8914 9.90612 20.5654C7.77671 20.2393 5.83715 19.1861 4.43587 17.5952C3.03446 16.0046 2.2634 13.9802 2.26142 11.8867C2.25933 9.79305 3.02631 7.76748 4.42452 6.17398L5.2315 6.97666C4.18246 8.20421 3.55384 9.71884 3.43288 11.3097C3.31193 12.9005 3.70481 14.4883 4.55672 15.8522L5.33443 15.0686C4.57486 13.7372 4.30972 12.1926 4.58349 10.694C4.85738 9.19535 5.65338 7.83355 6.83829 6.83737C8.0232 5.84108 9.52485 5.27082 11.0912 5.22228C12.6576 5.17372 14.1937 5.64988 15.4414 6.57065L14.6307 7.37884C13.6732 6.69543 12.5133 6.33233 11.3252 6.34408C10.2654 6.34289 9.22628 6.62927 8.325 7.1711C7.42397 7.71296 6.69646 8.48855 6.22509 9.41053C5.75361 10.3324 5.55673 11.3639 5.6567 12.3887C5.75668 13.4134 6.14943 14.3908 6.7909 15.2103L5.9859 16.0127L5.22568 16.7682C6.53774 18.3137 8.42004 19.2996 10.4706 19.5155C12.521 19.7315 14.577 19.1603 16.1998 17.9239L17.0008 18.7265L17.7592 19.4818C18.8074 18.6479 19.6726 17.6181 20.3036 16.4535C20.9346 15.2888 21.3186 14.0131 21.4328 12.7017C21.547 11.3904 21.3892 10.0702 20.9686 8.81917C20.5479 7.56813 19.8731 6.41181 18.9842 5.41863ZM28.6018 8.81664C27.9383 9.6898 27.6378 10.7737 27.7601 11.8524C27.8825 12.9311 28.4187 13.9254 29.262 14.6375C30.1052 15.3494 31.1938 15.7268 32.3106 15.6944C33.4274 15.662 34.4909 15.2224 35.2889 14.4628C36.0869 13.7032 36.561 12.6795 36.6171 11.5956C36.673 10.5118 36.3064 9.44718 35.5906 8.61392C34.8748 7.78066 33.8619 7.23991 32.7541 7.09929C31.646 6.95868 30.5242 7.22863 29.6119 7.8551L30.5593 8.80092C31.2135 8.41432 31.9911 8.27503 32.7441 8.4093C33.4971 8.54368 34.1733 8.94225 34.6432 9.5293C35.1132 10.1163 35.3445 10.8507 35.293 11.5927C35.2416 12.3346 34.9108 13.0323 34.3639 13.5528C33.8171 14.0733 33.0922 14.3802 32.3275 14.4152C31.5627 14.4502 30.8113 14.2108 30.2165 13.7426C29.6216 13.2744 29.225 12.61 29.102 11.8759C28.9789 11.142 29.138 10.3898 29.5491 9.76233L28.6018 8.81664ZM52.3041 7.18958C51.4895 7.18933 50.6908 7.40702 49.9953 7.81869C49.2998 8.23035 48.7345 8.82014 48.3612 9.52321C47.9882 10.2264 47.8217 11.0159 47.8799 11.8048C47.9381 12.5938 48.219 13.352 48.6918 13.9963L49.6433 13.0446C49.2499 12.4083 49.111 11.6538 49.2529 10.9244C49.3951 10.1952 49.8079 9.54204 50.4134 9.08926C51.0191 8.63648 51.7748 8.41567 52.5371 8.46878C53.2993 8.52189 54.0149 8.84531 54.5477 9.37744C55.0802 9.90958 55.393 10.6135 55.4262 11.3549C55.4595 12.0964 55.2111 12.824 54.7282 13.3992C54.245 13.9742 53.5611 14.3569 52.8064 14.4742C52.0521 14.5916 51.2792 14.4354 50.6354 14.0355L49.692 14.9773C50.2582 15.384 50.9159 15.6539 51.6109 15.7653C52.3055 15.8766 53.0177 15.8261 53.6885 15.6176C54.3593 15.4092 54.9694 15.049 55.4687 14.5668C55.968 14.0843 56.3422 13.4938 56.5601 12.8433C56.7782 12.193 56.8343 11.5016 56.7233 10.8263C56.6123 10.1508 56.3378 9.51063 55.9221 8.95846C55.5066 8.40632 54.9618 7.95798 54.3327 7.6505C53.7037 7.3429 53.0084 7.18503 52.3041 7.18958ZM45.6967 9.40129L44.5727 10.4926C44.671 10.7776 44.7232 11.0782 44.7232 11.3841C44.7232 12.1165 44.4287 12.8199 43.9026 13.3445C43.3765 13.8692 42.6605 14.1736 41.9065 14.1931H39.6977V11.6075L39.6983 11.6069V8.57545H41.9065C42.6087 8.59343 43.2782 8.85908 43.792 9.31964L44.8146 8.32635C44.4432 8.00365 44.0159 7.74663 43.5515 7.56837C43.0282 7.3677 42.4689 7.27035 41.9065 7.28235H38.365V10.3314V12.9V14.1931V15.4861H39.6977H41.9065C42.4689 15.498 43.0282 15.4007 43.5515 15.1999C44.0746 14.9992 44.551 14.699 44.9531 14.3169C45.3553 13.9348 45.6747 13.4786 45.8929 12.9749C46.111 12.4713 46.2232 11.9307 46.2232 11.3841C46.2232 10.8379 46.111 10.297 45.8929 9.7934C45.8347 9.65913 45.7689 9.52834 45.6967 9.40129ZM60.3528 11.9786C59.9716 11.8864 59.6226 11.7561 59.305 11.5877C58.9874 11.4194 58.7334 11.186 58.543 10.8872C58.3526 10.5885 58.257 10.1895 58.257 9.68969C58.257 9.16849 58.4001 8.71223 58.6859 8.32131C58.9714 7.93027 59.3766 7.62891 59.9003 7.4172C60.4243 7.20538 61.046 7.09954 61.7657 7.09954C62.316 7.09954 62.8744 7.16738 63.4407 7.30309C64.0067 7.43901 64.47 7.63178 64.8298 7.88148L64.1791 9.11957C63.798 8.85883 63.4012 8.67975 62.9882 8.58193C62.5755 8.48423 62.1628 8.43531 61.7498 8.43531C61.0831 8.43531 60.5857 8.5468 60.2574 8.76929C59.9294 8.99203 59.7653 9.27709 59.7653 9.62461C59.7653 9.91783 59.8632 10.1433 60.0591 10.3006C60.2549 10.4582 60.509 10.5804 60.8211 10.6672C61.1332 10.7543 61.4802 10.8276 61.8611 10.8872C62.2422 10.947 62.623 11.0231 63.0042 11.1152C63.3853 11.2076 63.7318 11.3351 64.0441 11.498C64.3562 11.661 64.6101 11.8891 64.8061 12.1823C65.0018 12.4754 65.0999 12.8664 65.0999 13.3552C65.0999 13.8688 64.9552 14.3137 64.6676 14.6902L63.5566 13.59C63.5681 13.5251 63.5757 13.4585 63.5757 13.3878C63.5757 13.1164 63.4804 12.9047 63.2899 12.7524C63.0995 12.6004 62.8479 12.4864 62.5358 12.4103C62.2235 12.3345 61.877 12.2664 61.4961 12.2066C61.115 12.1471 60.7339 12.0709 60.3528 11.9786ZM62.4693 14.4869C62.2179 14.5358 61.9204 14.5608 61.575 14.5608C61.0245 14.5608 60.4848 14.4738 59.9557 14.3C59.4264 14.1265 58.9818 13.9146 58.6222 13.6647L57.9871 14.9028C58.3468 15.1854 58.8417 15.4241 59.4714 15.6196C60.1012 15.8151 60.7655 15.9128 61.4638 15.9128C62.2154 15.9128 62.861 15.8069 63.401 15.5952C63.4277 15.5846 63.4536 15.5734 63.4795 15.5622C63.4915 15.557 63.5035 15.5518 63.5157 15.5466L62.4693 14.4869ZM87.9752 14.4795V15.4742H95.0035V14.2165H90.0015L94.8505 8.46528V7.47054H88.0576V8.72826H92.824L87.9752 14.4795Z" fill="#BAC0CB"/>
</svg>
