<svg width="89" height="24" viewBox="0 0 89 24" fill="none" xmlns="http://www.w3.org/2000/svg">
<g opacity="0.8">
<path d="M30.1808 7.03043C30.9124 7.01059 31.6371 7.18655 32.2884 7.54216C32.869 7.86994 33.3457 8.37316 33.6586 8.98857C33.9886 9.65438 34.1539 10.3987 34.139 11.1514C34.1352 11.5314 34.1009 11.9103 34.0365 12.284C33.9062 13.1458 33.5931 13.9645 33.1212 14.678C32.6656 15.3644 32.0613 15.9235 31.3595 16.3079C30.6343 16.7036 29.8296 16.9052 29.0149 16.8955C28.2771 16.9157 27.5461 16.7399 26.8881 16.3838C26.3069 16.0597 25.8298 15.5581 25.518 14.9434C25.1915 14.2794 25.0282 13.5382 25.0432 12.7889C25.0462 12.3999 25.0805 12.0118 25.1457 11.629C25.2761 10.767 25.5894 9.94793 26.0617 9.23421C26.5176 8.54713 27.1247 7.98957 27.8298 7.61037C28.5587 7.2198 29.3649 7.02095 30.1808 7.03043ZM30.0399 8.80438C29.2896 8.79328 28.5642 9.09155 28.0156 9.63676C27.4237 10.2305 27.0358 11.0185 26.9137 11.8746C26.8749 12.1273 26.8535 12.3827 26.8497 12.6388C26.8497 13.403 27.0547 14.0056 27.4647 14.4468C27.8747 14.888 28.4382 15.1087 29.1551 15.1087C29.6513 15.113 30.1404 14.9839 30.5773 14.7334C31.0203 14.4761 31.3983 14.1086 31.6791 13.6622C31.9868 13.1745 32.1881 12.6197 32.2684 12.0384C32.3136 11.7822 32.335 11.522 32.3325 11.2613C32.3325 10.4972 32.1275 9.89702 31.7176 9.4609C31.3076 9.02473 30.7483 8.80591 30.0399 8.80438ZM40.3023 9.14552C41.0881 9.14552 41.7137 9.40453 42.1793 9.92255C42.6448 10.4406 42.8775 11.1592 42.8775 12.0786C42.8763 12.3941 42.8506 12.709 42.8006 13.0201C42.6842 13.7573 42.4269 14.4612 42.0447 15.0882C41.7059 15.6466 41.2437 16.108 40.6987 16.4323C40.1816 16.7378 39.5997 16.8973 39.0083 16.8955C38.4891 16.921 37.977 16.7601 37.5541 16.4383C37.1855 16.1393 36.9361 15.7037 36.8552 15.2178L35.9974 20.4032H34.191L36.0366 9.24106H37.8424L37.5734 10.8103C37.8343 10.305 38.2196 9.88514 38.688 9.59584C39.1777 9.29239 39.7358 9.13669 40.3023 9.14552ZM38.7264 15.2042C39.2605 15.2127 39.7777 15.0054 40.1742 14.6242C40.6025 14.2016 40.8827 13.636 40.9685 13.0209C40.9927 12.8492 41.0056 12.6759 41.007 12.5023C41.0206 12.2761 40.9907 12.0492 40.9191 11.8357C40.8475 11.6221 40.7357 11.4264 40.5905 11.2606C40.4365 11.1099 40.2557 10.9937 40.0587 10.9189C39.8617 10.844 39.6527 10.812 39.4439 10.8247C38.9082 10.8202 38.3908 11.0323 37.9961 11.4182C37.5651 11.8386 37.2843 12.4054 37.2018 13.0216C37.177 13.1841 37.1641 13.3483 37.1634 13.5129C37.1515 13.74 37.1834 13.9673 37.2572 14.1807C37.331 14.3942 37.4452 14.5893 37.5925 14.7539C37.7434 14.9063 37.9216 15.0247 38.1164 15.1021C38.3112 15.1795 38.5187 15.2142 38.7264 15.2042ZM45.9267 14.1664C45.9076 14.2742 45.8989 14.384 45.9011 14.4939C45.8911 14.5881 45.9019 14.6837 45.9332 14.7726C45.9644 14.8615 46.0148 14.9414 46.0804 15.0055C46.2584 15.117 46.4642 15.167 46.67 15.1488H47.3747L47.0925 16.8007H46.1438C45.469 16.8007 44.9524 16.6554 44.5937 16.3648C44.2347 16.0742 44.0553 15.5966 44.0553 14.932C44.0575 14.6662 44.0831 14.4012 44.1322 14.1406L44.6706 10.8656H43.6845L43.9537 9.2418H44.9402L45.2476 7.37236H47.0668L46.7594 9.2418H48.3225L48.0537 10.8656H46.4777L45.9267 14.1664ZM49.9242 7.26165C49.9212 7.09383 49.9529 6.92731 50.0171 6.77401C50.081 6.62072 50.1765 6.48434 50.2959 6.3747C50.5538 6.13405 50.8881 6.0072 51.2311 6.01992C51.4795 6.0048 51.7243 6.09007 51.9163 6.25872C51.9979 6.33641 52.0626 6.43232 52.106 6.5396C52.149 6.64689 52.1694 6.76296 52.1655 6.87959C52.1694 7.04588 52.1386 7.21097 52.0752 7.36311C52.0122 7.51525 51.9184 7.6507 51.8003 7.75974C51.5433 7.99701 51.2111 8.12141 50.8716 8.10767C50.6198 8.12414 50.3714 8.04159 50.1734 7.87572C50.0914 7.79979 50.0267 7.70526 49.9833 7.59914C49.9403 7.49301 49.9199 7.37795 49.9242 7.26244V7.26165ZM51.5897 9.24027L50.3341 16.8007H48.5283L49.784 9.24106L51.5897 9.24027ZM62.275 9.13109C63.0092 9.13109 63.5798 9.34261 63.9853 9.76564C64.3908 10.1886 64.594 10.7959 64.594 11.5873C64.5953 11.8617 64.5736 12.1357 64.5297 12.4061L63.7994 16.8007H61.9928L62.6975 12.6252C62.7222 12.4719 62.7353 12.3167 62.7361 12.1612C62.7479 11.9775 62.7227 11.7933 62.6632 11.6206C62.6037 11.4478 62.5108 11.2903 62.3901 11.1583C62.1248 10.9129 61.7801 10.788 61.4292 10.8103C60.9625 10.7961 60.5075 10.9689 60.1545 11.2947C59.7806 11.6734 59.5392 12.1763 59.4689 12.7206L58.7898 16.8007H56.9836L57.6883 12.6252C57.713 12.4719 57.7256 12.3167 57.7265 12.1612C57.7382 11.9775 57.7135 11.7933 57.6536 11.6206C57.5941 11.4478 57.5012 11.2903 57.3809 11.1583C57.1156 10.9129 56.7704 10.788 56.4196 10.8103C55.9459 10.7984 55.4857 10.9789 55.1323 11.3152C54.751 11.7074 54.5088 12.2281 54.4467 12.7889V12.7206L53.7806 16.8007H51.9614L53.2166 9.24106H55.0233L54.7919 10.6602C55.0463 10.1888 55.4162 9.79977 55.8617 9.53443C56.3137 9.2651 56.8238 9.12633 57.3414 9.13188C57.8472 9.11065 58.3461 9.26353 58.7638 9.56777C59.1485 9.87395 59.4133 10.3212 59.5067 10.8232C59.8067 10.3123 60.2205 9.88814 60.7111 9.58825C61.1848 9.29003 61.7245 9.13243 62.275 9.13188V9.13109ZM66.7719 7.26165C66.7688 7.09383 66.8005 6.92731 66.8648 6.77401C66.9291 6.62072 67.0241 6.48434 67.1435 6.3747C67.4014 6.13405 67.7358 6.0072 68.0788 6.01992C68.3271 6.0048 68.572 6.09007 68.7644 6.25872C68.846 6.33641 68.9107 6.43232 68.9537 6.5396C68.9966 6.64689 69.017 6.76296 69.0131 6.87959C69.017 7.04588 68.9862 7.21097 68.9233 7.36311C68.8599 7.51525 68.7661 7.6507 68.648 7.75974C68.3909 7.99701 68.0592 8.12141 67.7193 8.10767C67.4679 8.12414 67.2191 8.04159 67.0211 7.87572C66.939 7.79979 66.8743 7.70526 66.8314 7.59914C66.7879 7.49301 66.768 7.37795 66.7719 7.26244V7.26165ZM68.4374 9.24027L67.1817 16.8007H65.3755L66.6308 9.24106L68.4374 9.24027ZM72.1922 9.14552C73.1487 9.14552 73.8769 9.37521 74.3766 9.83464C74.6263 10.0677 74.8277 10.3538 74.968 10.6745C75.1078 10.9952 75.1838 11.3436 75.1903 11.6972H73.4218C73.4253 11.5304 73.3936 11.3648 73.3294 11.2126C73.2651 11.0604 73.1696 10.9253 73.0506 10.8171C72.7597 10.5857 72.4006 10.472 72.0385 10.4964C71.7594 10.4826 71.4832 10.5638 71.2505 10.7284C71.155 10.7978 71.0772 10.8916 71.0247 11.0013C70.9722 11.111 70.9461 11.233 70.9492 11.3561C70.9483 11.4833 70.9822 11.6081 71.0469 11.7149C71.112 11.8216 71.2049 11.9057 71.3143 11.9565C71.6777 12.1389 72.0576 12.2806 72.4484 12.3795C72.8591 12.503 73.2629 12.6511 73.6585 12.823C73.968 12.9624 74.2438 13.1746 74.4656 13.4439C74.7014 13.7454 74.8225 14.13 74.8052 14.5219C74.8047 14.6962 74.7878 14.87 74.7539 15.0404C74.7014 15.3172 74.5959 15.5795 74.4439 15.8106C74.2915 16.0419 74.0961 16.237 73.8699 16.3838C73.3828 16.7249 72.7337 16.8955 71.9222 16.8955C70.9913 16.8955 70.2458 16.6706 69.6861 16.2208C69.4122 16.0036 69.1912 15.7201 69.0409 15.3939C68.8903 15.0676 68.8151 14.7079 68.8212 14.3445H70.5892C70.5719 14.5115 70.5962 14.6804 70.6604 14.8339C70.7247 14.9874 70.8259 15.1199 70.9544 15.2178C71.2839 15.4551 71.6782 15.5702 72.0754 15.5453C72.3551 15.5657 72.6325 15.4782 72.857 15.2989C72.9434 15.2228 73.0124 15.1267 73.0593 15.018C73.1058 14.9093 73.1288 14.7907 73.1257 14.6712C73.1283 14.5779 73.1114 14.4852 73.0775 14.3993C73.0432 14.3134 72.992 14.2362 72.9273 14.1732C72.7845 14.0344 72.6164 13.9277 72.4341 13.8593C72.2378 13.782 71.9556 13.6888 71.5883 13.5796C71.1884 13.4648 70.795 13.3256 70.4099 13.1626C70.1129 13.0324 69.8494 12.829 69.641 12.5691C69.4182 12.277 69.3045 11.9078 69.321 11.532C69.3214 11.3674 69.3344 11.2032 69.3592 11.0408C69.4074 10.7596 69.5103 10.4925 69.6618 10.2565C69.8129 10.0205 70.0092 9.82095 70.2375 9.67089C70.7286 9.32064 71.3799 9.14552 72.1914 9.14552H72.1922ZM85.952 9.13188C86.6866 9.13188 87.2567 9.34339 87.6627 9.76638C88.0682 10.1894 88.271 10.7966 88.271 11.5881C88.2723 11.8625 88.251 12.1365 88.2071 12.4068L87.476 16.8007H85.6698L86.3744 12.6252C86.3992 12.4719 86.4118 12.3167 86.4126 12.1612C86.4244 11.9775 86.3992 11.7933 86.3397 11.6206C86.2802 11.4478 86.1873 11.2903 86.0666 11.1583C85.8013 10.9129 85.4566 10.788 85.1058 10.8103C84.639 10.7961 84.184 10.9689 83.831 11.2947C83.4572 11.6734 83.2158 12.1763 83.1459 12.7206L82.4668 16.8007H80.6601L81.3648 12.6252C81.3896 12.4719 81.4026 12.3167 81.403 12.1612C81.4148 11.9775 81.39 11.7933 81.3305 11.6206C81.2706 11.4478 81.1777 11.2903 81.0574 11.1583C80.7921 10.9129 80.4469 10.788 80.0966 10.8103C79.6224 10.7984 79.1622 10.9789 78.8088 11.3152C78.4276 11.7074 78.1853 12.2281 78.1232 12.7889V12.7206L77.4572 16.8007H75.6379L76.8927 9.24106H78.6994L78.4679 10.6602C78.7224 10.1888 79.0919 9.79977 79.5378 9.53443C79.9893 9.2651 80.4995 9.12633 81.0175 9.13188C81.5233 9.11065 82.0217 9.26353 82.4394 9.56777C82.8246 9.87395 83.0894 10.3212 83.1828 10.8232C83.4828 10.3123 83.8961 9.88814 84.3872 9.58825C84.8609 9.28989 85.401 9.13229 85.9515 9.13188H85.952Z" fill="#BAC0CB"/>
<path d="M11.0709 23.4339C17.0658 23.4339 21.9255 18.2579 21.9255 11.8731C21.9255 5.48812 17.0658 0.31218 11.0709 0.31218C5.07607 0.31218 0.216309 5.48812 0.216309 11.8731C0.216309 18.2579 5.07607 23.4339 11.0709 23.4339Z" fill="#BAC0CB"/>
<path d="M7.90374 14.9389C7.33899 14.9646 6.78167 14.7941 6.31579 14.4532C6.1145 14.2895 5.95368 14.076 5.84731 13.8311C5.74089 13.5864 5.69209 13.3177 5.70507 13.0482C5.70754 12.8913 5.72118 12.7347 5.7458 12.5799C5.81639 12.163 5.91682 11.6628 6.04708 11.0795C6.41626 9.48938 7.36895 8.69436 8.90523 8.69436C9.29026 8.68761 9.6726 8.76438 10.0289 8.91989C10.3452 9.05192 10.6174 9.28143 10.8106 9.57905C11.0055 9.88569 11.1051 10.2498 11.0953 10.6199C11.0926 10.774 11.0789 10.9276 11.0546 11.0795C10.9731 11.5941 10.8754 12.0943 10.7615 12.5799C10.5717 13.372 10.2433 13.9646 9.77624 14.3579C9.30967 14.7452 8.68553 14.9389 7.90374 14.9389ZM8.0178 13.69C8.29984 13.6983 8.57503 13.5965 8.79151 13.4038C9.03079 13.1727 9.19357 12.8654 9.25561 12.5278C9.38053 11.9845 9.4754 11.5104 9.54031 11.1055C9.56215 10.9825 9.57305 10.8576 9.57287 10.7325C9.57287 10.2062 9.31501 9.94317 8.79933 9.94331C8.51502 9.93605 8.23767 10.0376 8.01762 10.2295C7.78277 10.463 7.62317 10.7696 7.56156 11.1055C7.46382 11.4928 7.36613 11.967 7.26848 12.5278C7.24638 12.6478 7.23548 12.7698 7.23592 12.8921C7.23592 13.424 7.49656 13.69 8.0178 13.69Z" fill="#E3F2FD"/>
<path d="M11.4703 14.8524C11.4444 14.8539 11.4186 14.8493 11.3946 14.8388C11.3706 14.8283 11.3492 14.8122 11.3319 14.7917C11.3048 14.7451 11.296 14.689 11.3075 14.6355L12.4312 8.99797C12.4412 8.93578 12.473 8.87996 12.5202 8.84181C12.5638 8.80347 12.6184 8.78206 12.675 8.78118H14.8411C15.3511 8.7545 15.8566 8.89365 16.2906 9.18013C16.4691 9.30461 16.614 9.47645 16.7111 9.67877C16.8082 9.88104 16.8542 10.1068 16.8444 10.3337C16.8436 10.4855 16.8272 10.6368 16.7955 10.7848C16.7057 11.3692 16.4119 11.8958 15.973 12.2593C15.5659 12.5773 15.0067 12.7363 14.2955 12.7363H13.1964L12.8218 14.6357C12.8118 14.6979 12.78 14.7538 12.7328 14.7919C12.6893 14.8302 12.6347 14.8516 12.5782 14.8525L11.4703 14.8524ZM14.353 11.5391C14.5664 11.5441 14.7753 11.474 14.9475 11.3397C15.1247 11.2012 15.2467 10.997 15.2895 10.7674C15.3047 10.6815 15.3128 10.5945 15.3139 10.5071C15.3185 10.4366 15.3086 10.3659 15.2846 10.2999C15.2607 10.2339 15.2234 10.1744 15.1755 10.1254C15.0396 10.0186 14.8713 9.96913 14.7032 9.98671H13.7261L13.4167 11.5391H14.353Z" fill="#E3F2FD"/>
</g>
</svg>
