<svg width="76" height="19" viewBox="0 0 76 19" fill="none" xmlns="http://www.w3.org/2000/svg">
<g clip-path="url(#clip0_214_58)">
<path d="M18.9587 12.3349L15.2347 17.9236L15.2043 17.8926C13.8698 19.7236 9.55601 18.9658 5.49153 16.0308C1.45745 13.1236 -0.871188 9.43078 0.277932 7.44212L0.247532 7.4112L3.97153 1.91841C5.24225 0.0225367 9.61985 0.780269 13.7147 3.71532C17.9039 6.49573 20.1687 10.4421 18.9587 12.3349Z" fill="#BAC0CB"/>
<path fill-rule="evenodd" clip-rule="evenodd" d="M18.3994 12.0194C17.2837 13.6617 13.3104 12.839 9.52255 10.1267C5.64655 7.4112 3.38175 3.96893 4.52783 2.32666C5.64351 0.684392 9.61679 1.50707 13.4046 4.21944C17.1925 6.93181 19.4573 10.3772 18.3994 12.0194ZM14.8638 9.55759C14.3045 10.3772 12.3498 9.96893 10.4254 8.64212C8.56495 7.34625 7.44623 5.6112 8.00559 4.79161C8.56495 3.97202 10.5197 4.38027 12.444 5.70707C14.3045 6.99986 15.4202 8.738 14.8638 9.55759Z" fill="#E3F2FD"/>
<path d="M28.7049 18.3968C27.5558 18.3968 26.3763 18.1772 25.1968 17.7349C24.0173 17.2926 23.0232 16.7236 22.2176 15.9998L24.1115 13.1267C24.7621 13.6957 25.5069 14.1689 26.3155 14.5153C27.1546 14.8617 27.9297 15.0194 28.6745 15.0194C29.2947 15.0194 29.8237 14.8926 30.2249 14.673C30.6597 14.4535 30.8755 14.1349 30.8755 13.7576C30.8755 13.6308 30.8451 13.504 30.7813 13.3803C30.7205 13.2844 30.6262 13.1607 30.5016 13.0957C30.377 12.9999 30.2219 12.938 30.0973 12.8421C29.9118 12.7462 29.7264 12.6844 29.5075 12.6225C29.2582 12.5607 29.0424 12.4957 28.8569 12.4339C28.6077 12.372 28.328 12.2761 28.0817 12.2143C24.5462 11.3267 22.8073 9.68439 22.8073 7.25346C22.8073 5.8648 23.3363 4.72665 24.4216 3.90707C25.5069 3.05346 26.9357 2.64521 28.7049 2.64521C29.8206 2.64521 30.8451 2.80294 31.7784 3.14933C32.7117 3.49573 33.4838 3.93799 34.0736 4.50707L32.3682 7.41119C31.903 6.99985 31.3437 6.65346 30.6931 6.39985C30.0426 6.14624 29.3585 6.02253 28.6745 6.02253C28.0848 6.02253 27.5893 6.11841 27.2153 6.33799C26.8445 6.55758 26.656 6.81119 26.656 7.15758C26.656 7.50397 26.8718 7.78851 27.3065 8.04212C27.7413 8.26171 28.3614 8.48439 29.1366 8.67305C29.4163 8.7349 29.6321 8.79985 29.851 8.86171C30.0699 8.92356 30.38 9.01944 30.7813 9.17717C31.1856 9.30397 31.5261 9.46171 31.8666 9.61944C32.1766 9.77717 32.5505 9.99676 32.891 10.2504C33.2315 10.504 33.5416 10.7885 33.7909 11.104C34.0401 11.4194 34.256 11.7998 34.411 12.2081C34.5661 12.6504 34.6603 13.1236 34.6603 13.5968C34.6603 14.5431 34.3806 15.3658 33.8547 16.0895C33.3257 16.8163 32.6144 17.3854 31.7146 17.7627C30.8147 18.1741 29.7902 18.3627 28.6745 18.3627L28.7049 18.3968ZM45.121 17.104C44.1603 17.9576 42.8865 18.3998 41.2723 18.3998C39.6885 18.3998 38.4177 17.9576 37.4237 17.104C36.463 16.2194 35.9645 15.0844 35.9645 13.6308V6.90397H39.4726V13.1236C39.4726 13.6617 39.6277 14.1009 39.9682 14.4504C40.3086 14.7658 40.7433 14.9545 41.2723 14.9545C41.8013 14.9545 42.2329 14.7968 42.5461 14.4504C42.8865 14.1349 43.0416 13.6926 43.0416 13.1236V6.90397H46.5498V13.6277C46.5498 15.0473 46.0542 16.2163 45.0906 17.1009H45.121V17.104ZM52.6298 18.3968C50.8605 18.3968 49.2797 17.8277 47.8205 16.7236L49.3709 14.4813C50.3953 15.27 51.4502 15.6504 52.5051 15.6504C52.9702 15.6504 53.3442 15.5885 53.6208 15.4617C53.9005 15.3349 54.0555 15.1462 54.0555 14.8926C54.0555 14.639 53.9005 14.4504 53.6208 14.3236C53.3411 14.1968 52.876 14.07 52.2558 13.9462C51.9153 13.8844 51.6661 13.8194 51.4806 13.7885C51.2313 13.7267 50.9517 13.6308 50.7054 13.5689C50.4258 13.473 50.1765 13.3803 49.8998 13.2535C49.7144 13.1267 49.4955 12.9998 49.2158 12.8112C49 12.6535 48.7811 12.4339 48.6261 12.2112C48.471 11.9576 48.3464 11.7071 48.2856 11.4225C48.1914 11.0761 48.1306 10.7267 48.1306 10.3803C48.1306 9.5916 48.3464 8.89573 48.7811 8.32665C49.2158 7.75758 49.7752 7.34933 50.4562 7.0648C51.1706 6.81119 51.9458 6.65346 52.8152 6.65346C54.4294 6.65346 55.9494 7.12665 57.284 8.10707L55.7336 10.3493C54.7395 9.71841 53.8093 9.40294 52.9398 9.40294C52.5355 9.40294 52.2254 9.4648 51.9792 9.56067C51.7299 9.65655 51.6083 9.84521 51.6083 10.0648C51.6083 10.2844 51.7633 10.4761 52.043 10.6029C52.3227 10.7297 52.7878 10.8566 53.408 10.9803C53.7181 11.0421 53.9674 11.1071 54.1832 11.138C54.399 11.1998 54.6483 11.2648 54.9584 11.3576C55.2685 11.4535 55.5177 11.5772 55.7336 11.673C55.9494 11.7999 56.1683 11.9267 56.4176 12.1153C56.6669 12.304 56.8523 12.4926 57.0074 12.7153C57.1624 12.938 57.287 13.2194 57.3782 13.5349C57.4694 13.8504 57.5333 14.1658 57.5333 14.5462C57.5333 15.7462 57.0681 16.6926 56.1683 17.3885C55.2381 18.0504 54.089 18.3968 52.6298 18.3968ZM65.7869 6.62253C67.0272 6.62253 68.0213 6.99985 68.7965 7.75758C69.5717 8.51531 69.9456 9.55758 69.9456 10.8194V18.1122H66.4374V12.0194C66.4374 11.4194 66.2824 10.9462 65.9419 10.5998C65.6014 10.2535 65.1667 10.0617 64.6074 10.0617C63.9872 10.0617 63.5221 10.2504 63.1482 10.5998C62.7773 10.9772 62.5888 11.4535 62.5888 12.0535V18.1153H59.0806V2.2648H62.5918V7.94624C63.4309 7.06171 64.4858 6.62253 65.7869 6.62253ZM73.8246 5.67305C73.2045 5.67305 72.709 5.45346 72.3046 5.07305C71.9003 4.66171 71.6845 4.12665 71.6845 3.52665C71.6845 2.89573 71.9003 2.3916 72.3046 1.98026C72.709 1.56892 73.2045 1.34933 73.8246 1.34933C74.4448 1.34933 74.9403 1.56892 75.3446 1.98026C75.749 2.3916 75.9648 2.92665 75.9648 3.52665C75.9648 4.12665 75.749 4.66171 75.3446 5.07305C74.9403 5.48439 74.4478 5.67305 73.8246 5.67305ZM72.0888 18.1122V6.87305H75.597V18.1122H72.0888Z" fill="#BAC0CB"/>
</g>
<defs>
<clipPath id="clip0_214_58">
<rect width="76" height="18" fill="white" transform="translate(-0.00177002 0.873047)"/>
</clipPath>
</defs>
</svg>
