<svg width="117" height="22" viewBox="0 0 117 22" fill="none" xmlns="http://www.w3.org/2000/svg">
<path d="M18.1128 16.4338C18.1007 16.4446 18.0885 16.4541 18.0759 16.4637C18.0637 16.4733 18.0503 16.4828 18.0377 16.4924C18.0129 16.5104 17.9882 16.5283 17.9634 16.5451L17.9548 16.5511C17.9344 16.5654 17.9131 16.5786 17.8918 16.5918C17.8601 16.6121 17.8297 16.6313 17.7972 16.6492C17.5805 16.7773 17.3534 16.8815 17.1207 16.9724C16.9014 17.0586 16.6791 17.1328 16.4555 17.1998C16.1338 17.2956 15.8082 17.3746 15.4808 17.444C15.1618 17.5122 14.8427 17.5697 14.5212 17.62C14.1998 17.6702 13.8773 17.7109 13.5547 17.7469C13.4491 17.7588 13.3435 17.7696 13.2367 17.7803C13.0243 17.8007 12.8119 17.8187 12.5995 17.8342C12.4927 17.8414 12.3871 17.8486 12.2803 17.8558C12.042 17.8701 11.8038 17.8809 11.5656 17.8893C11.5228 17.8905 11.479 17.8929 11.4352 17.8941C11.3958 17.8953 11.3554 17.8965 11.316 17.8977C11.4138 17.7696 11.5116 17.6415 11.6004 17.5063C11.6128 17.4895 11.6262 17.4727 11.6386 17.4548C11.8398 17.1663 12.0331 16.8718 12.2174 16.5714C12.2365 16.5714 12.2544 16.569 12.2735 16.5678C12.3904 16.5607 12.5073 16.5535 12.6253 16.5439C12.7141 16.5379 12.8029 16.5308 12.8917 16.5235C13.512 16.4721 14.1302 16.399 14.746 16.2961C14.9247 16.2662 15.1034 16.2339 15.281 16.1992C15.6957 16.1166 16.1082 16.0196 16.5137 15.8951C16.6027 15.8676 16.6913 15.8389 16.7803 15.8101C16.825 15.7958 16.8689 15.7802 16.9127 15.7647C16.9792 15.7767 17.0408 15.8066 17.1029 15.8317C17.1576 15.8532 17.2127 15.876 17.2679 15.8987C17.4229 15.9645 17.5757 16.0376 17.7242 16.1202C17.7828 16.1525 17.8401 16.1872 17.8962 16.2243C17.9713 16.2734 18.0446 16.3237 18.1128 16.3823C18.1332 16.399 18.1389 16.4063 18.131 16.4158C18.1276 16.4206 18.1219 16.4254 18.1119 16.4338H18.1128Z" fill="#333333" fill-opacity="0.1"/>
<path d="M12.3645 19.4776C12.3514 19.486 12.3371 19.486 12.3229 19.4812C12.3264 19.4788 12.33 19.4776 12.3324 19.4764C12.3383 19.4741 12.3431 19.4741 12.349 19.4741C12.3538 19.4741 12.3597 19.4753 12.3645 19.4776Z" fill="#BAC0CB"/>
<path d="M12.3118 19.4817C12.2954 19.4895 12.2778 19.4907 12.2601 19.4843C12.2766 19.4727 12.2942 19.474 12.3118 19.4817Z" fill="#BAC0CB"/>
<path d="M12.249 19.484C12.2325 19.4918 12.2148 19.4931 12.1982 19.4879C12.2148 19.4762 12.2325 19.4775 12.249 19.484Z" fill="#BAC0CB"/>
<path d="M12.1868 19.4875C12.1704 19.4965 12.1528 19.4965 12.1364 19.4901C12.1364 19.4901 12.1375 19.4901 12.1387 19.4901C12.1551 19.4811 12.1715 19.4811 12.188 19.4875H12.1868Z" fill="#BAC0CB"/>
<path d="M12.0899 19.4861C12.1005 19.4836 12.1122 19.4861 12.1239 19.49C12.1075 19.4989 12.0899 19.4989 12.0723 19.4925C12.0782 19.4887 12.0828 19.4874 12.0887 19.4861H12.0899Z" fill="#BAC0CB"/>
<path d="M12.0354 19.4884C12.0437 19.4884 12.0532 19.4897 12.0614 19.4936C12.0449 19.5014 12.0284 19.5027 12.0106 19.4962C12.0189 19.491 12.0272 19.4884 12.0354 19.4884Z" fill="#BAC0CB"/>
<path d="M11.9866 19.4921C11.9866 19.4921 11.9949 19.4947 11.9984 19.496C11.9819 19.5051 11.9653 19.5051 11.9476 19.4986C11.9595 19.4908 11.9725 19.4896 11.9843 19.4921H11.9866Z" fill="#BAC0CB"/>
<path d="M11.9335 19.4982C11.9142 19.5069 11.8949 19.5069 11.8745 19.5007C11.8938 19.4908 11.9131 19.492 11.9335 19.4982Z" fill="#BAC0CB"/>
<path d="M11.8636 19.5008C11.847 19.5099 11.8305 19.5086 11.8128 19.5034C11.8293 19.493 11.8459 19.4931 11.8636 19.5008Z" fill="#BAC0CB"/>
<path d="M16.0114 15.4798C16.0192 15.481 16.0283 15.481 16.0361 15.4822C16.0474 15.4822 16.0574 15.4859 16.0652 15.4967C16.0439 15.4942 16.0227 15.4895 16.0036 15.4787C16.0045 15.4787 16.0058 15.4787 16.0079 15.4787C16.0092 15.4787 16.0101 15.4787 16.0114 15.4787V15.4798Z" fill="#BAC0CB"/>
<path d="M7.00277 21.0362C7.00277 21.0362 7.00613 21.0429 7.00726 21.0463H6.67572C6.67572 21.0463 6.67912 21.0407 6.68138 21.0362C6.70844 21.0362 6.73436 21.0362 6.76146 21.0362C6.84149 21.0362 6.92157 21.0362 7.00164 21.0362H7.00277Z" fill="#333333"/>
<path d="M16.9127 15.7647C16.8689 15.7803 16.8237 15.7959 16.7799 15.8102C16.6913 15.8401 16.6027 15.8689 16.5137 15.8952C16.1082 16.0185 15.6957 16.1166 15.2809 16.1992C15.1033 16.2339 14.9246 16.2662 14.7459 16.2962C14.1312 16.3991 13.5131 16.4721 12.8916 16.5236C12.8028 16.5308 12.714 16.538 12.6252 16.5439C12.5084 16.5523 12.3915 16.5607 12.2735 16.5679C12.2544 16.5679 12.2364 16.5703 12.2173 16.5714C12.3443 16.3644 12.4679 16.1549 12.5882 15.9418C12.7612 15.6342 12.9253 15.3219 13.0827 15.0058C13.3816 15.0334 13.6805 15.0657 13.9795 15.1052C14.002 15.1076 14.0233 15.1124 14.0458 15.116C14.1795 15.1268 14.3121 15.1483 14.4436 15.1686C14.6133 15.195 14.783 15.2237 14.9527 15.2548C15.1809 15.2955 15.4091 15.341 15.6358 15.3937C15.7587 15.4224 15.8811 15.4511 16.0035 15.4798C16.0227 15.4906 16.0439 15.4954 16.0652 15.4978C16.327 15.5696 16.588 15.6438 16.8441 15.7348C16.8676 15.7432 16.8945 15.7456 16.9127 15.7671V15.7647Z" fill="#333333" fill-opacity="0.5"/>
<path d="M4.83833 20.327C4.83041 20.327 4.82362 20.3248 4.81793 20.3179C4.81793 20.3179 4.81907 20.3179 4.82021 20.3179C4.82021 20.3179 4.82249 20.3179 4.82362 20.3179C4.82362 20.3179 4.82586 20.3179 4.82699 20.3179H4.82927C4.82927 20.3179 4.83155 20.3191 4.83268 20.3202H4.83382C4.83382 20.3202 4.83606 20.3236 4.83719 20.3248L4.83833 20.327Z" fill="#333333"/>
<path d="M4.81819 20.3174C4.81027 20.3174 4.80234 20.3163 4.79779 20.3084C4.79779 20.3084 4.80234 20.3084 4.80348 20.3084C4.80348 20.3084 4.81368 20.3118 4.81705 20.3174H4.81819Z" fill="#333333"/>
<path d="M4.79677 20.3066C4.78775 20.3066 4.77982 20.3066 4.77533 20.2965C4.78435 20.2965 4.7911 20.2976 4.79564 20.3055L4.79677 20.3066Z" fill="#333333"/>
<path d="M4.77782 20.2977H4.77533V20.2952L4.77782 20.2977Z" fill="#333333"/>
<path d="M4.77782 20.2977L4.77533 20.2952H4.77782V20.2977Z" fill="#333333"/>
<path d="M4.77653 20.2946C4.76751 20.2946 4.75849 20.2969 4.75623 20.2856C4.76525 20.2834 4.77318 20.2856 4.77767 20.2946H4.77653Z" fill="#333333"/>
<path d="M4.69438 20.2402C4.70003 20.2438 4.70676 20.2474 4.71349 20.251C4.718 20.2534 4.7236 20.2558 4.72812 20.2581C4.73598 20.2629 4.74384 20.2676 4.74944 20.276C4.7517 20.2784 4.75283 20.282 4.75509 20.2856C4.72699 20.2832 4.70337 20.2712 4.68201 20.2522L4.69551 20.2402H4.69438Z" fill="#333333"/>
<path d="M6.59256 19.2907C6.57008 19.2942 6.54642 19.299 6.52389 19.3014C6.43499 19.3145 6.34605 19.3217 6.2571 19.3241C6.2267 19.3241 6.19743 19.3241 6.16703 19.3241C6.13663 19.3241 6.10736 19.3229 6.077 19.3217C6.06348 19.3217 6.05108 19.3193 6.03869 19.3181C6.02633 19.3169 6.01281 19.3145 6.00041 19.3134C5.98467 19.3122 5.97114 19.305 5.95879 19.2931C5.92387 19.2585 5.88899 19.2238 5.85632 19.188C6.10175 19.2262 6.34718 19.2597 6.59256 19.2907Z" fill="#333333" fill-opacity="0.1"/>
<path d="M10.445 14.8861C10.2685 14.8861 10.0921 14.8885 9.91676 14.8921C9.62347 15.3769 9.30652 15.8437 8.96151 16.2889C8.88848 16.3823 8.81541 16.4745 8.74012 16.5654C8.55021 16.7953 8.35353 17.0167 8.1456 17.2286C7.96467 17.4141 7.77701 17.5912 7.58033 17.7576C7.4275 17.8881 7.27015 18.0126 7.10607 18.1275C6.80375 18.3405 6.48796 18.5237 6.14743 18.6577C5.97437 18.7248 5.79792 18.7798 5.61699 18.8121C5.60688 18.8145 5.59676 18.8181 5.58777 18.8217C5.58777 18.8253 5.5889 18.8289 5.59003 18.8313C5.59003 18.8337 5.59003 18.8349 5.59224 18.8373C5.60574 18.8588 5.61812 18.8792 5.63158 18.8995C5.65854 18.9402 5.68668 18.9809 5.7159 19.0204C5.75971 19.079 5.8069 19.1353 5.85523 19.1904C6.10024 19.2287 6.3452 19.2622 6.59021 19.2933C6.65538 19.2826 6.7206 19.2694 6.78577 19.2526C6.93526 19.2143 7.08132 19.1652 7.22295 19.1066C7.29373 19.0767 7.36454 19.0456 7.43423 19.012C7.50391 18.9785 7.57247 18.9414 7.6399 18.9043C7.66912 18.8875 7.69834 18.8708 7.72756 18.854C7.93098 18.7343 8.12649 18.6015 8.31306 18.4578C8.50076 18.3142 8.68055 18.1586 8.85475 17.9958C8.8795 17.9719 8.9042 17.9491 8.92891 17.9252C8.94693 17.9072 8.9649 17.8893 8.98401 17.8713C9.09637 17.7624 9.2054 17.6499 9.31216 17.535C9.35376 17.4907 9.39418 17.4452 9.43577 17.3997C9.5695 17.2501 9.70102 17.0969 9.82802 16.9401C9.90443 16.8455 9.97859 16.751 10.0527 16.654C10.0617 16.6421 10.0707 16.6301 10.0798 16.6193C10.1303 16.5523 10.1797 16.4852 10.2292 16.417C10.3843 16.2027 10.5349 15.9837 10.6788 15.7611C10.7563 15.6402 10.8327 15.5193 10.908 15.396C10.9496 15.3266 10.9912 15.2572 11.0316 15.1877C11.0878 15.092 11.1429 14.9962 11.198 14.8993C10.9462 14.8933 10.6956 14.8897 10.4439 14.8897L10.445 14.8861Z" fill="#333333" fill-opacity="0.1"/>
<path d="M3.73477 19.8028C3.72681 19.8039 3.71999 19.8028 3.71655 19.7937C3.72566 19.7914 3.73248 19.7937 3.73477 19.8028Z" fill="#333333"/>
<path d="M8.95151 14.9256C8.82564 14.9317 8.69977 14.9388 8.5739 14.9472C8.43566 15.1555 8.29294 15.3601 8.14458 15.5601C7.99848 15.7564 7.84899 15.9491 7.69169 16.1358C7.60289 16.2423 7.51185 16.3465 7.42084 16.4506C7.35563 16.5236 7.28933 16.5966 7.2219 16.6672C6.95105 16.9485 6.66788 17.2154 6.3633 17.4548C6.31271 17.4943 6.26213 17.5338 6.20934 17.5722C6.03853 17.699 5.86095 17.8163 5.67777 17.9217C5.54517 17.9982 5.40805 18.0665 5.26868 18.1287C5.26868 18.1359 5.26867 18.1431 5.27093 18.1503C5.29004 18.2077 5.3114 18.264 5.33384 18.319C5.35634 18.3753 5.37996 18.4292 5.40466 18.4842C5.45411 18.5932 5.50917 18.6985 5.571 18.8014C5.57547 18.8098 5.58224 18.8146 5.58785 18.8206C5.59796 18.817 5.60695 18.8134 5.61707 18.811C5.79912 18.7787 5.97557 18.7236 6.14751 18.6566C6.48804 18.5237 6.80495 18.3394 7.10614 18.1263C7.27022 18.0102 7.42757 17.8869 7.5804 17.7565C7.77596 17.5901 7.96366 17.4129 8.14571 17.2274C8.3536 17.0156 8.55029 16.7941 8.7402 16.5643C8.81553 16.4733 8.88856 16.3812 8.96163 16.2878C9.30663 15.8437 9.62355 15.3757 9.91688 14.891C9.59545 14.8969 9.2729 14.9077 8.95151 14.9245V14.9256Z" fill="#333333" fill-opacity="0.5"/>
<path d="M15.2786 9.76802C15.2887 9.76802 15.3 9.76802 15.2932 9.75122C15.2977 9.75122 15.3033 9.75243 15.3078 9.75363C15.3044 9.75363 15.3022 9.75363 15.3011 9.756C15.2966 9.75962 15.2966 9.76681 15.2977 9.77405C15.291 9.77405 15.2853 9.77405 15.2786 9.77284C15.2752 9.77284 15.2708 9.77284 15.2674 9.77284C15.2595 9.77284 15.2516 9.77164 15.2438 9.77043C15.2258 9.76802 15.2078 9.76445 15.1898 9.75962C15.2202 9.75721 15.2494 9.76923 15.2786 9.77043V9.76802Z" fill="#333333" fill-opacity="0.5"/>
<path d="M6.10129 16.2629C6.11363 16.2653 6.12714 16.2677 6.13953 16.2701C5.89205 16.5241 5.63336 16.7625 5.35664 16.9805C5.25543 17.0596 5.1553 17.1399 5.04623 17.2069C5.02598 17.1135 5.01699 17.0188 5.00686 16.9254C4.97197 16.6235 4.95958 16.3216 4.9585 16.0185C5.02707 16.0365 5.09568 16.0533 5.16543 16.07C5.36676 16.1192 5.56926 16.1623 5.77281 16.203C5.88193 16.2246 5.99217 16.2449 6.10129 16.2641V16.2629Z" fill="#333333" fill-opacity="0.1"/>
<path d="M7.22971 15.0705C7.20049 15.074 7.17127 15.0776 7.14205 15.08C6.85097 15.4739 6.53966 15.8497 6.20365 16.2028C6.18229 16.2255 6.16092 16.247 6.13848 16.2698C6.14859 16.271 6.15871 16.2734 6.1677 16.2758C6.15758 16.2746 6.14746 16.2722 6.13735 16.271C5.89008 16.5248 5.63161 16.7629 5.35516 16.9808C5.254 17.0598 5.15396 17.14 5.04498 17.207C5.04498 17.2202 5.04611 17.2322 5.04833 17.2453C5.04833 17.2489 5.04833 17.2525 5.04833 17.2561C5.05059 17.2705 5.05397 17.2848 5.05623 17.2992C5.05844 17.3112 5.05957 17.3219 5.06183 17.3339C5.06743 17.3626 5.07195 17.3925 5.07755 17.4213C5.10903 17.5876 5.14611 17.7517 5.1933 17.9132C5.21466 17.9863 5.23151 18.0605 5.26525 18.1275C5.40462 18.0652 5.54169 17.997 5.67433 17.9204C5.85865 17.8151 6.03506 17.6978 6.20591 17.5709C6.25758 17.5326 6.30929 17.4943 6.35987 17.4536C6.66441 17.2142 6.94763 16.9485 7.21847 16.666C7.2859 16.5954 7.3522 16.5224 7.41741 16.4494C7.50955 16.3464 7.59947 16.2411 7.68826 16.1345C7.84556 15.9478 7.99505 15.7551 8.14115 15.5588C8.28947 15.3589 8.43223 15.1543 8.57043 14.946C8.12205 14.9747 7.67362 15.0154 7.22746 15.0681L7.22971 15.0705Z" fill="#BAC0CB"/>
<path d="M6.16825 16.2745C6.15799 16.2733 6.14772 16.271 6.13745 16.2699C6.14772 16.271 6.15798 16.2733 6.16711 16.2745H6.16825Z" fill="#333333" fill-opacity="0.1"/>
<path d="M6.13905 16.2683C6.12656 16.266 6.11402 16.2637 6.10034 16.2615L6.13905 16.2683Z" fill="#BAC0CB"/>
<path d="M6.94993 15.1089C7.01397 15.0945 7.07805 15.0873 7.1421 15.0801C6.85102 15.4739 6.53971 15.8498 6.20369 16.2028C6.18233 16.2256 6.16097 16.2471 6.13852 16.2699L6.10031 16.2627C5.99129 16.2436 5.88114 16.2232 5.77211 16.2017C5.56874 16.1621 5.36641 16.1179 5.16525 16.0688C5.0967 16.052 5.02814 16.0341 4.9585 16.0173C4.9585 15.9036 4.95958 15.7887 4.96297 15.6738C4.96523 15.6056 4.96748 15.5386 4.97083 15.4703C5.20459 15.4105 5.43949 15.359 5.67659 15.3111C6.08008 15.2297 6.48578 15.1639 6.89261 15.1101C6.89934 15.1101 6.90607 15.1077 6.91172 15.1077C6.91958 15.1077 6.92631 15.1053 6.93417 15.1065C6.93868 15.1065 6.94315 15.1065 6.94767 15.1089H6.94993Z" fill="#333333" fill-opacity="0.5"/>
<path d="M14.1458 9.60278C14.3822 9.63394 14.6175 9.66388 14.8539 9.69504C14.8528 9.69744 14.8505 9.69985 14.8482 9.70226C14.7019 9.68309 14.5544 9.66509 14.4081 9.64472C14.3653 9.63875 14.3225 9.63514 14.2797 9.63037C14.2369 9.62556 14.1942 9.62079 14.1525 9.61116C14.1503 9.6088 14.148 9.60519 14.1447 9.60278H14.1458Z" fill="#BAC0CB"/>
<path d="M19.7593 15.4212C19.7593 15.0765 19.7593 14.7318 19.7593 14.3858C19.738 14.2901 19.7111 14.1955 19.6607 14.1117C19.5795 13.9753 19.4831 13.8544 19.3628 13.7551C19.2369 13.6509 19.1075 13.5528 18.9682 13.4702C18.7771 13.3565 18.5783 13.2595 18.3794 13.1638C18.3434 13.147 18.3073 13.1386 18.2713 13.1231C17.8206 12.9351 17.3565 12.7939 16.8867 12.673C16.5858 12.5952 16.2832 12.5282 15.9788 12.4671C15.6371 12.3989 15.2944 12.3403 14.9505 12.29C14.7134 12.2553 14.4763 12.2241 14.238 12.1954C14.1323 12.1834 14.0267 12.1703 13.9199 12.1595C13.6199 12.1284 13.3209 12.0996 13.0209 12.0769C12.8433 12.0626 12.6668 12.0506 12.4893 12.041C12.3387 12.0326 12.1881 12.0242 12.0375 12.0171C11.8004 12.0051 11.5633 11.9967 11.3261 11.9907C11.3093 11.9907 11.2913 11.9907 11.2744 11.9895C10.9002 11.9812 10.5248 11.9788 10.1506 11.9812C10.145 11.9812 10.1382 11.9812 10.1326 11.9812C9.74713 11.9847 9.36166 11.9943 8.97619 12.0111C8.95257 12.0111 8.93012 12.0135 8.90763 12.0146C8.45135 12.035 7.99619 12.0661 7.54217 12.1068C6.87461 12.1667 6.20931 12.2481 5.54622 12.3594C5.5305 12.3618 5.51478 12.3642 5.49902 12.3678C5.47319 12.4635 5.4507 12.5605 5.41814 12.6538C5.39565 12.7496 5.37315 12.8454 5.35071 12.9411C5.29001 13.1949 5.23491 13.451 5.18658 13.7072L5.28775 13.6892C5.33156 13.6808 5.37654 13.6736 5.42035 13.6653C5.48556 13.6533 5.55186 13.6425 5.61704 13.6318C5.85414 13.5922 6.09242 13.5576 6.33066 13.5252C6.56894 13.4929 6.80718 13.4654 7.04654 13.439C7.20615 13.4223 7.36571 13.4067 7.52532 13.3924C7.76694 13.3708 8.00857 13.3529 8.25132 13.3361C8.47944 13.3218 8.70648 13.3086 8.9346 13.299C8.99304 13.2966 9.05148 13.293 9.10992 13.2906C9.19645 13.287 9.28411 13.2846 9.37178 13.2811C9.42796 13.2799 9.48414 13.2775 9.54037 13.2763C9.746 13.2715 9.95054 13.2679 10.1562 13.2655C10.2338 13.2655 10.3102 13.2655 10.3877 13.2643C10.5203 13.2643 10.653 13.2643 10.7844 13.2655C10.8328 13.2655 10.88 13.2655 10.9283 13.2667C10.98 13.2667 11.0317 13.2679 11.0834 13.2691C11.2239 13.2715 11.3632 13.2751 11.5037 13.2799C11.6442 13.2846 11.7835 13.2894 11.924 13.2954C11.9476 13.2954 11.9701 13.2978 11.9937 13.299C12.1443 13.3062 12.2937 13.3134 12.4444 13.3229C12.5601 13.3301 12.6747 13.3373 12.7905 13.3457C12.9636 13.3577 13.1366 13.3708 13.3097 13.3864C13.4693 13.4008 13.6277 13.4163 13.7873 13.4331C13.7929 13.4331 13.7986 13.4331 13.8042 13.4343C13.9188 13.4463 14.0323 13.4582 14.147 13.4702C14.3302 13.4893 14.5122 13.5133 14.6954 13.5384C14.8775 13.5635 15.0595 13.5922 15.2416 13.621C15.3169 13.6329 15.3933 13.6449 15.4686 13.6581C15.6944 13.6964 15.9215 13.7407 16.1464 13.7873C16.2788 13.8149 16.4104 13.8436 16.5428 13.8747C16.6744 13.9059 16.8059 13.937 16.9375 13.9717C17.1363 14.0243 17.3352 14.0794 17.531 14.1417C17.7928 14.2243 18.0512 14.3152 18.3052 14.423C18.3694 14.4493 18.4319 14.478 18.4949 14.5068C18.5904 14.551 18.6851 14.5989 18.7784 14.648C18.8006 14.66 18.8245 14.6719 18.847 14.6851C18.8648 14.6946 18.8826 14.7042 18.9009 14.7138C18.9243 14.7258 18.9482 14.7389 18.9716 14.7533C19.0007 14.7701 19.0298 14.788 19.058 14.8084C19.164 14.8862 19.2717 14.9592 19.3694 15.0478C19.3919 15.0681 19.4145 15.0897 19.4358 15.1112C19.4614 15.134 19.4853 15.1579 19.5087 15.183C19.5469 15.2237 19.583 15.268 19.6142 15.3147C19.6303 15.3374 19.6446 15.3602 19.6572 15.3853C19.6685 15.4056 19.6798 15.4272 19.6898 15.4487C19.6998 15.4703 19.7089 15.493 19.718 15.5158C19.7267 15.5385 19.7345 15.5612 19.7414 15.5852C19.7458 15.6019 19.7514 15.6187 19.7562 15.6355C19.7562 15.6355 19.7562 15.6355 19.7562 15.6379V15.6355C19.7684 15.5661 19.7606 15.4954 19.7619 15.4248L19.7593 15.4212Z" fill="#333333" fill-opacity="0.1"/>
<path d="M19.7627 14.2494C19.7627 13.9885 19.7627 13.7263 19.7627 13.4654C19.7627 13.3445 19.7614 13.2236 19.7605 13.1039C19.7414 13.0357 19.728 12.9662 19.6976 12.9004C19.6233 12.7377 19.5131 12.606 19.385 12.4899C19.2456 12.3618 19.0906 12.2553 18.9287 12.1607C18.6938 12.0231 18.4502 11.9057 18.1992 11.8064C17.9083 11.6915 17.6126 11.5898 17.3139 11.5036C17.0847 11.4378 16.8554 11.3767 16.624 11.3204C16.3609 11.257 16.0956 11.2008 15.8303 11.1517C15.5537 11.1002 15.2786 11.0511 14.9999 11.0104C14.8684 10.9913 14.7369 10.9721 14.6054 10.9553C14.311 10.9147 14.0154 10.88 13.7198 10.8524C13.6648 10.8476 13.6108 10.8381 13.5557 10.8345C13.3321 10.8165 13.1085 10.7986 12.8859 10.7818C12.8545 10.7794 12.8219 10.777 12.7904 10.7746C12.6409 10.7626 12.4926 10.7519 12.3431 10.7435C12.1487 10.7327 11.9554 10.7256 11.761 10.7183C11.7587 10.7183 11.7576 10.7183 11.7554 10.7183C11.5531 10.7112 11.3497 10.7028 11.1474 10.6992C10.9687 10.6956 10.79 10.6944 10.6113 10.6932C10.5326 10.6932 10.4539 10.6932 10.3753 10.6932C10.0617 10.6932 9.7493 10.698 9.43577 10.7076C9.43125 10.7076 9.42674 10.7076 9.42227 10.7076C9.05477 10.7196 8.68728 10.7351 8.32092 10.7602C8.03883 10.7794 7.75674 10.7962 7.47465 10.8213C7.36115 10.8321 7.24653 10.8464 7.13299 10.8584C6.73627 10.9003 6.34069 10.9494 5.9451 11.0092C5.94063 11.0092 5.93611 11.0104 5.93164 11.0116C5.77429 11.4461 5.63158 11.8878 5.50679 12.3366C5.50345 12.3474 5.50119 12.3594 5.4978 12.3702C5.51356 12.3678 5.52928 12.3642 5.54504 12.3618C6.20696 12.2505 6.87226 12.1691 7.54095 12.1093C7.9961 12.0685 8.45126 12.0386 8.90641 12.0171C8.9289 12.0171 8.95248 12.0147 8.97497 12.0135C9.36044 11.9967 9.74591 11.9871 10.1314 11.9836C10.137 11.9836 10.1438 11.9836 10.1494 11.9836C10.5247 11.98 10.899 11.9836 11.2732 11.9919C11.2901 11.9919 11.3069 11.9919 11.3249 11.9931C11.5621 11.9991 11.7992 12.0075 12.0363 12.0195C12.1869 12.0267 12.3375 12.035 12.4881 12.0434C12.6657 12.0542 12.8421 12.0662 13.0197 12.0793C13.3197 12.102 13.6198 12.1308 13.9187 12.1619C14.0244 12.1727 14.13 12.1846 14.2368 12.1978C14.475 12.2265 14.7122 12.2577 14.9493 12.2924C15.2932 12.3427 15.6358 12.4013 15.9775 12.4695C16.2823 12.5306 16.5845 12.5964 16.8858 12.6754C17.3556 12.7975 17.8197 12.9387 18.2704 13.1255C18.306 13.1398 18.3421 13.1494 18.3781 13.1662C18.577 13.2619 18.7758 13.3576 18.9669 13.4726C19.1062 13.5552 19.2343 13.6533 19.3615 13.7575C19.4818 13.8568 19.5782 13.9789 19.6594 14.1141C19.7097 14.1991 19.738 14.2925 19.7584 14.3882C19.7662 14.3428 19.7614 14.2973 19.7614 14.2518L19.7627 14.2494Z" fill="#333333" fill-opacity="0.5"/>
<path d="M12.8085 4.37204C12.9714 4.64377 13.0894 4.93704 13.1794 5.24466C13.2074 5.34038 13.2322 5.43615 13.2546 5.53192C13.2917 5.69229 13.3209 5.85507 13.3446 6.0191C13.3513 6.06696 13.358 6.11482 13.3637 6.16273C13.3749 6.25845 13.385 6.35543 13.3929 6.4524C13.3962 6.50026 13.4007 6.54932 13.403 6.59719C13.4198 6.86054 13.4266 7.12385 13.4198 7.38721C13.4131 7.6637 13.3974 7.93899 13.3715 8.21432C13.3456 8.48841 13.3097 8.76013 13.267 9.03061C13.2411 9.19344 13.213 9.35501 13.1827 9.51659C12.9377 9.49624 12.6927 9.47829 12.4477 9.46512C12.3297 9.45915 12.2117 9.45314 12.0937 9.44597C12.1735 9.08093 12.2409 8.71222 12.2937 8.34117C12.3522 7.92941 12.3927 7.51646 12.4084 7.1023C12.4207 6.74923 12.4196 6.39612 12.3927 6.043C12.3702 5.74857 12.3331 5.4577 12.2735 5.16923C12.2072 4.84484 12.1128 4.53006 11.978 4.22961C11.9251 4.10993 11.8622 3.99622 11.7993 3.88371C11.851 3.86572 11.9049 3.86456 11.9566 3.85855C11.9847 3.85499 12.0117 3.85259 12.0397 3.85139C12.0634 3.85018 12.087 3.84898 12.1106 3.84778C12.1488 3.84778 12.187 3.84778 12.2252 3.84778C12.2522 3.84778 12.2792 3.85018 12.3061 3.85139C12.3264 3.85139 12.3477 3.85379 12.3679 3.85499C12.3713 3.85499 12.3747 3.85499 12.378 3.85615C12.3848 3.85735 12.3904 3.85976 12.396 3.86216C12.4016 3.86457 12.4072 3.86813 12.4129 3.87173C12.4207 3.8765 12.4286 3.88371 12.4354 3.89088C12.4534 3.90882 12.4713 3.92681 12.4882 3.94475C12.523 3.98184 12.5567 4.01897 12.5893 4.05846C12.6702 4.15659 12.7433 4.26073 12.8096 4.37084L12.8085 4.37204Z" fill="#333333" fill-opacity="0.1"/>
<path d="M12.2713 5.17047C12.3308 5.45894 12.3679 5.74981 12.3904 6.04424C12.4174 6.39736 12.4196 6.75047 12.4061 7.10359C12.3915 7.5189 12.3499 7.93186 12.2915 8.34241C12.2387 8.71467 12.1713 9.08216 12.0915 9.44721C12.0015 9.44245 11.9128 9.43764 11.8229 9.43403C11.6183 9.42566 11.4138 9.4209 11.2092 9.41609C11.1328 9.41489 11.0564 9.41253 10.9811 9.41132C11.0553 9.11208 11.1216 8.81044 11.1778 8.50639C11.2205 8.27896 11.2576 8.05038 11.2902 7.82055C11.3115 7.66734 11.3306 7.51294 11.3464 7.35853C11.3632 7.19691 11.3767 7.03533 11.3868 6.87256C11.3969 6.699 11.4037 6.52545 11.407 6.35186C11.4104 6.11967 11.4037 5.88743 11.3879 5.65524C11.3778 5.50204 11.3632 5.35004 11.3452 5.19678C11.3205 4.98855 11.2845 4.78147 11.2385 4.578C11.2014 4.41397 11.1587 4.2524 11.1025 4.09439C11.1418 4.06807 11.1868 4.05489 11.2295 4.03815C11.3171 4.00342 11.4059 3.9735 11.4947 3.94719C11.5846 3.92083 11.6756 3.89928 11.7678 3.88254C11.7746 3.88134 11.7802 3.88014 11.7869 3.87894C11.7903 3.87894 11.7947 3.87894 11.7981 3.88014C11.8611 3.99385 11.924 4.10756 11.9768 4.22609C12.1117 4.52653 12.2061 4.84131 12.2724 5.16571L12.2713 5.17047Z" fill="#333333" fill-opacity="0.5"/>
<path d="M14.8431 4.63705C14.8431 4.63705 14.8405 4.63449 14.8405 4.63319C14.8405 4.63319 14.8405 4.63189 14.8405 4.63058L14.8444 4.63319V4.63705H14.8431Z" fill="#333333"/>
<path d="M19.7584 16.8743C19.7584 16.8576 19.7605 16.842 19.7605 16.8253C19.7605 16.5559 19.7605 16.2854 19.7605 16.0161C19.7605 15.9 19.7584 15.7827 19.7584 15.6666C19.7584 15.6594 19.7618 15.6523 19.7605 15.645C19.7605 15.645 19.7562 15.6367 19.7549 15.6331C19.7505 15.6163 19.7449 15.5996 19.7406 15.5828C19.7336 15.5589 19.7258 15.5361 19.7167 15.5134C19.7076 15.4906 19.6989 15.4679 19.6885 15.4464C19.6785 15.4248 19.6672 15.4033 19.6559 15.3829C19.6424 15.359 19.6281 15.3351 19.6133 15.3123C19.5821 15.2656 19.5469 15.2225 19.5078 15.1806C19.484 15.1555 19.4605 15.1316 19.4349 15.1088C19.4132 15.0861 19.3919 15.0658 19.3685 15.0454C19.2708 14.9568 19.1627 14.8838 19.0572 14.806C19.0289 14.7857 19.0007 14.7677 18.9708 14.7509C18.9469 14.7377 18.9243 14.7246 18.8995 14.7114C18.8817 14.7019 18.8639 14.6923 18.8457 14.6827C18.8231 14.6707 18.7997 14.6588 18.7771 14.6456C18.6838 14.5965 18.5895 14.5487 18.494 14.5044C18.4311 14.4756 18.3681 14.4481 18.3043 14.4206C18.0503 14.3129 17.7915 14.2207 17.5297 14.1393C17.333 14.0771 17.1355 14.022 16.9366 13.9693C16.805 13.9346 16.6743 13.9023 16.5419 13.8723C16.4104 13.8424 16.2779 13.8125 16.1451 13.785C15.9206 13.7371 15.6935 13.694 15.4678 13.6557C15.3922 13.6426 15.317 13.6306 15.2405 13.6186C15.0584 13.5899 14.8764 13.5612 14.6943 13.536C14.5123 13.5097 14.3291 13.487 14.1459 13.4678C14.0313 13.4558 13.9178 13.4439 13.8031 13.4319C13.7975 13.4319 13.7919 13.4319 13.7863 13.4307C13.6267 13.4139 13.4682 13.3984 13.3086 13.384C13.1356 13.3696 12.9625 13.3565 12.7894 13.3433C12.6737 13.3349 12.5591 13.3277 12.4433 13.3206C12.2927 13.3122 12.1432 13.3038 11.9926 13.2966C11.969 13.2966 11.9466 13.2942 11.9229 13.2931C11.7825 13.287 11.6431 13.2811 11.5026 13.2775C11.3621 13.2727 11.2228 13.2691 11.0823 13.2667C11.0306 13.2667 10.9789 13.2655 10.9272 13.2643C10.8789 13.2643 10.8317 13.2643 10.7834 13.2631C10.6508 13.2631 10.5181 13.2619 10.3867 13.2619C10.3091 13.2619 10.2316 13.2619 10.1552 13.2631C9.94948 13.2643 9.74494 13.2679 9.53931 13.2739C9.48308 13.2751 9.4269 13.2763 9.37072 13.2787C9.28305 13.2811 9.19652 13.2846 9.10886 13.2882C9.05042 13.2906 8.99197 13.2931 8.93353 13.2966C8.70541 13.3074 8.47838 13.3194 8.25026 13.3337C8.00863 13.3493 7.76588 13.3684 7.52426 13.39C7.36465 13.4044 7.20509 13.4199 7.04548 13.4367C6.80612 13.4618 6.56788 13.4905 6.3296 13.5228C6.09136 13.5552 5.85308 13.5899 5.61597 13.6294C5.54967 13.6402 5.4845 13.6521 5.41929 13.6629C5.37548 13.6701 5.3305 13.6784 5.28669 13.6868L5.18552 13.7048C5.23385 13.4475 5.28895 13.1925 5.34965 12.9387C5.37209 12.843 5.39458 12.7472 5.41707 12.6515C5.44964 12.5581 5.47213 12.4611 5.49796 12.3654C5.50135 12.3546 5.50361 12.3427 5.50695 12.3319C5.63169 11.8842 5.77445 11.4425 5.93176 11.0068C6.03179 10.7303 6.13856 10.4574 6.25093 10.1869C6.32626 10.005 6.40489 9.82544 6.48582 9.64588C6.75441 9.05581 7.05113 8.48243 7.38154 7.92585C7.68946 7.40519 8.02548 6.90604 8.39298 6.43084C8.40084 6.42127 8.40648 6.41049 8.41321 6.39972C8.52336 6.26446 8.63234 6.12804 8.74588 5.99634C9.11446 5.56188 9.51009 5.1609 9.94948 4.80779C10.0574 4.72159 10.1697 4.639 10.2799 4.5552C10.29 4.54804 10.3024 4.54683 10.3147 4.54563C10.3204 4.52889 10.335 4.52172 10.3473 4.51211C10.5744 4.3577 10.8092 4.22008 11.0576 4.10993C11.0666 4.10636 11.0745 4.10156 11.0846 4.098C11.0868 4.098 11.0902 4.09679 11.0936 4.09559C11.0969 4.09559 11.0992 4.09559 11.1025 4.09559C11.1419 4.06923 11.1868 4.0561 11.2295 4.03931C11.3172 4.00463 11.406 3.97471 11.4948 3.94835C11.5847 3.92204 11.6757 3.90049 11.7678 3.8837C11.7746 3.88255 11.7802 3.88134 11.787 3.88014C11.7903 3.88014 11.7949 3.88014 11.7982 3.88134C11.8499 3.86336 11.9038 3.8622 11.9555 3.85619C11.9836 3.85258 12.0106 3.85022 12.0387 3.84902C12.0623 3.84782 12.0859 3.84661 12.1095 3.84541C12.1477 3.84541 12.1859 3.84541 12.2241 3.84541C12.2511 3.84541 12.2781 3.84782 12.3051 3.84902C12.3253 3.84902 12.3467 3.85142 12.3668 3.85258C12.3702 3.85258 12.3736 3.85258 12.377 3.85378C12.3837 3.85499 12.3893 3.85739 12.395 3.85979C12.4006 3.8622 12.4062 3.86576 12.4118 3.86937C12.4197 3.87413 12.4275 3.88134 12.4343 3.88851C12.4523 3.90645 12.4703 3.9244 12.4871 3.94239C12.5219 3.97947 12.5557 4.01661 12.5883 4.0561C12.6692 4.15423 12.7422 4.25837 12.8085 4.36847C12.9715 4.6402 13.0895 4.93348 13.1794 5.24109C13.2075 5.33681 13.2322 5.43258 13.2547 5.52835C13.2918 5.68873 13.321 5.85155 13.3446 6.01553C13.3514 6.06339 13.3581 6.11125 13.3637 6.15916C13.3749 6.25488 13.3851 6.35186 13.3929 6.44883C13.3963 6.49669 13.4008 6.54576 13.403 6.59366C13.4199 6.85698 13.4267 7.12029 13.4199 7.38364C13.4131 7.66013 13.3974 7.93542 13.3716 8.21075C13.3457 8.48484 13.3098 8.75657 13.267 9.02704C13.2412 9.18987 13.2131 9.35144 13.1828 9.51302C13.2221 9.51662 13.2614 9.51903 13.3019 9.52259C13.5862 9.54775 13.8706 9.57766 14.1538 9.60638C14.1515 9.60402 14.1493 9.60042 14.1459 9.59801C14.3819 9.62914 14.6168 9.65905 14.8528 9.69018C14.8517 9.69258 14.8494 9.69498 14.8472 9.69734C14.8618 9.69975 14.8753 9.70215 14.8899 9.70336C14.9371 9.45558 14.9798 9.20661 15.0158 8.95643C15.0483 8.73261 15.0753 8.50759 15.0978 8.28137C15.1191 8.07068 15.1371 7.85884 15.1461 7.64695C15.1506 7.54522 15.1562 7.44228 15.1619 7.34054C15.1619 7.32736 15.1562 7.30942 15.1753 7.30346C15.1753 7.11312 15.1753 6.92283 15.1742 6.73249C15.1641 6.72888 15.1641 6.71931 15.163 6.70974C15.1607 6.67145 15.1562 6.63316 15.1551 6.59482C15.1484 6.31833 15.1237 6.04424 15.0888 5.77011C15.0506 5.46731 14.9933 5.16807 14.9146 4.87479C14.8955 4.80177 14.8787 4.7264 14.8483 4.65694L14.8416 4.63183C14.8416 4.63183 14.8393 4.62943 14.8393 4.62822C14.8393 4.62822 14.8393 4.62702 14.8393 4.62582C14.8371 4.61745 14.8359 4.60788 14.8337 4.59951C14.719 4.2488 14.5707 3.91603 14.3651 3.61322C14.1672 3.32235 13.929 3.07698 13.6357 2.89622C13.5256 2.82801 13.4064 2.78015 13.2929 2.71906C13.2828 2.7143 13.2693 2.7143 13.2581 2.71189C13.2479 2.69756 13.2322 2.69395 13.2187 2.68794C12.9524 2.56229 12.686 2.43661 12.4186 2.31092C12.3837 2.29538 12.3534 2.27022 12.3141 2.26541C12.3073 2.26305 12.3017 2.26065 12.2949 2.25824C12.25 2.24271 12.2028 2.23193 12.159 2.20918C12.1556 2.20798 12.1511 2.20677 12.1477 2.20437C12.1455 2.20437 12.1432 2.20317 12.1421 2.20201H12.141C12.141 2.20201 12.1331 2.20317 12.1297 2.1984C12.0443 2.17565 11.9578 2.15771 11.8713 2.14453C11.8083 2.13496 11.7454 2.12779 11.6824 2.12418C11.6611 2.12298 11.6398 2.12178 11.6195 2.12178C11.5566 2.12058 11.4937 2.12178 11.4307 2.12418C11.3476 2.12779 11.2644 2.13616 11.1824 2.14814C11.0374 2.16969 10.8947 2.20201 10.753 2.24391C10.7328 2.24987 10.7126 2.25584 10.6923 2.26305C10.426 2.34685 10.1709 2.46171 9.92591 2.59577C9.84384 2.64128 9.76291 2.68794 9.68315 2.73705C9.61008 2.7813 9.53818 2.82801 9.46623 2.87587C9.44266 2.89146 9.41904 2.9082 9.39542 2.92378C9.37185 2.94052 9.34823 2.95606 9.32578 2.97284C9.27858 3.00637 9.23247 3.03985 9.18753 3.07578C9.16504 3.09372 9.14259 3.11046 9.11897 3.12845C9.11897 3.12966 9.11897 3.13201 9.11897 3.13322C9.11897 3.13442 9.11784 3.13562 9.11672 3.13682C9.11559 3.13803 9.11224 3.13923 9.10886 3.13923V3.14279C9.10886 3.14279 9.10773 3.1464 9.1066 3.1476C9.1066 3.1476 9.10438 3.1476 9.10213 3.1476C9.10213 3.1476 9.101 3.1476 9.09987 3.1476C8.99984 3.22182 8.90206 3.3008 8.80654 3.38219C8.76386 3.41812 8.72226 3.45521 8.68067 3.4923C8.67394 3.49831 8.66721 3.50427 8.66156 3.51029C8.61888 3.54858 8.57616 3.58807 8.53456 3.62756C8.53456 3.62756 8.53456 3.62996 8.53456 3.63117C8.53456 3.63357 8.53348 3.63593 8.53122 3.63833C8.53122 3.63833 8.53122 3.63833 8.52896 3.63833C8.52783 3.63833 8.5267 3.63833 8.52445 3.63833C8.52336 3.64074 8.5211 3.64314 8.51997 3.64555C8.51772 3.64791 8.51546 3.65031 8.51325 3.65272C8.50986 3.65512 8.50534 3.65748 8.50087 3.65868C8.50087 3.66469 8.49974 3.66705 8.49748 3.66946C8.49414 3.67186 8.48737 3.66946 8.4829 3.67066C8.46713 3.6886 8.45029 3.70539 8.43457 3.72333C8.43457 3.72453 8.43231 3.72573 8.43118 3.72694C8.43118 3.72694 8.43118 3.72814 8.43118 3.7293C8.43118 3.7317 8.43005 3.7329 8.42892 3.73531C8.42892 3.73531 8.42558 3.73771 8.4222 3.73651C8.40761 3.74849 8.39298 3.76042 8.37839 3.7736C8.37726 3.7736 8.37613 3.776 8.375 3.7772C8.32216 3.82988 8.27049 3.88255 8.21878 3.93517C8.21539 3.93878 8.21205 3.94239 8.20866 3.94595C8.19295 3.96273 8.17605 3.97947 8.15921 3.99506C8.11761 4.03575 8.07493 4.07524 8.0356 4.11834C8.01424 4.14105 7.99287 4.165 7.97155 4.18775C7.8479 4.32061 7.72655 4.45467 7.60853 4.59354C7.45796 4.77065 7.31186 4.95022 7.17023 5.13454C7.14999 5.1609 7.1298 5.18721 7.10957 5.21353C7.10618 5.21713 7.1028 5.22194 7.10058 5.22671C7.09607 5.23272 7.09268 5.23989 7.08821 5.24585C7.08256 5.25422 7.07809 5.26384 7.07245 5.27101C7.06797 5.27697 7.06459 5.28298 7.06012 5.28895C7.05899 5.29015 7.05786 5.29256 7.0556 5.29376C7.04887 5.30093 7.04214 5.30809 7.03424 5.31411C7.03424 5.31531 7.03424 5.31646 7.03315 5.31767C7.03315 5.31887 7.03315 5.32007 7.03202 5.32127C7.03202 5.32127 7.03089 5.32248 7.02977 5.32368C7.02977 5.32368 7.02751 5.32488 7.02525 5.32608C7.02191 5.34403 7.0084 5.3524 6.99716 5.36437C6.99716 5.36437 6.99603 5.36558 6.9949 5.36678C6.99156 5.37034 6.9893 5.37395 6.98591 5.37755C6.98591 5.37991 6.9837 5.38111 6.9837 5.38352C6.9837 5.38592 6.98144 5.38828 6.98144 5.39069C6.98144 5.39069 6.98144 5.39309 6.98144 5.39429C6.98144 5.3979 6.98031 5.39906 6.97805 5.40146H6.97471L6.97245 5.40386C6.94657 5.43859 6.91961 5.47328 6.89378 5.50801C6.89265 5.51041 6.89152 5.51161 6.88926 5.51397C6.88926 5.51878 6.88926 5.52234 6.88926 5.52595C6.88926 5.52835 6.88818 5.53076 6.88592 5.53312V5.53552C6.88592 5.53552 6.88028 5.54033 6.87806 5.54153C6.8758 5.54389 6.87129 5.54509 6.86794 5.5463C6.86343 5.5511 6.86004 5.55587 6.85557 5.56068C6.85444 5.56188 6.85219 5.56424 6.85106 5.56544C6.84771 5.56905 6.84433 5.57381 6.84094 5.57742C6.77351 5.67319 6.70721 5.76896 6.63978 5.86468C6.63978 5.86709 6.63865 5.86949 6.63644 5.8719H6.63531C6.63531 5.8719 6.63192 5.87546 6.63079 5.87546C6.58473 5.94487 6.53753 6.01312 6.49146 6.08374C6.48243 6.09812 6.47344 6.11125 6.46446 6.12563C6.3959 6.23218 6.33298 6.34108 6.2633 6.44763C6.22961 6.5003 6.197 6.55413 6.16326 6.608C6.1307 6.66187 6.09696 6.71575 6.06101 6.76722C6.0037 6.85101 5.95425 6.94197 5.90366 7.03173C5.8823 7.07002 5.85986 7.10836 5.83849 7.14664C5.59574 7.57634 5.35972 8.01084 5.15856 8.46449C5.14732 8.4908 5.13386 8.51596 5.11922 8.53992C5.10576 8.56503 5.09113 8.58898 5.07989 8.61529C5.01133 8.76253 4.9439 8.90977 4.87986 9.05817C4.85515 9.11324 4.83153 9.16952 4.80791 9.22455C4.77648 9.29757 4.74613 9.37059 4.71578 9.44361C4.67757 9.53697 4.63936 9.62913 4.60116 9.7237C4.58539 9.76319 4.56968 9.80269 4.55396 9.84218C4.53373 9.89129 4.51462 9.94035 4.49552 9.99062C4.42809 10.1654 4.36287 10.3413 4.29996 10.5185C4.28199 10.57 4.26288 10.6226 4.24491 10.6741C4.20105 10.7997 4.15946 10.9266 4.11791 11.0523C4.10779 11.0822 4.09768 11.1122 4.08756 11.1433C4.0797 11.1672 4.07293 11.1912 4.06507 11.2139C4.04596 11.2738 4.02686 11.3348 4.01001 11.3947C3.98865 11.4689 3.96729 11.5419 3.94597 11.6161C3.93021 11.6687 3.91562 11.7214 3.89873 11.7741C3.86278 11.8914 3.8201 12.0087 3.8066 12.1332C3.8066 12.1392 3.79874 12.1452 3.79535 12.1511C3.77738 12.2026 3.76726 12.2553 3.75488 12.3091C3.74928 12.3343 3.74142 12.3594 3.73465 12.3846C3.72792 12.4097 3.72006 12.4348 3.71334 12.4599C3.68633 12.5689 3.65936 12.6778 3.63466 12.7867C3.61217 12.8849 3.58968 12.9842 3.56836 13.0836C3.54474 13.1949 3.52225 13.3062 3.50093 13.4187C3.48178 13.5169 3.46381 13.6138 3.44696 13.7132C3.43346 13.791 3.42 13.8688 3.40763 13.9466C3.39638 14.0148 3.38626 14.0842 3.37615 14.1524C3.36269 14.2398 3.35031 14.3272 3.33906 14.4146C3.32895 14.4936 3.31883 14.5714 3.30984 14.6504C3.28514 14.8658 3.26491 15.0825 3.24919 15.3003C3.24468 15.3626 3.24129 15.4248 3.23795 15.4871C3.23456 15.5493 3.23117 15.6116 3.22896 15.6738C3.22444 15.7983 3.22106 15.9227 3.21771 16.0472C3.21771 16.076 3.21771 16.1035 3.21771 16.1322C3.21771 16.1406 3.21771 16.149 3.21771 16.1586C3.21771 16.3177 3.22331 16.477 3.22783 16.6349C3.22783 16.6421 3.22783 16.6493 3.22783 16.6565C3.22783 16.6852 3.23009 16.7128 3.2323 16.7415C3.23795 16.8564 3.24693 16.9713 3.25818 17.085C3.26604 17.1628 3.2739 17.2406 3.28401 17.3184C3.28514 17.3292 3.2874 17.3412 3.28849 17.3519C3.30872 17.5087 3.33121 17.6655 3.36043 17.8223C3.41435 18.1132 3.4863 18.3993 3.58408 18.677C3.5852 18.6818 3.58746 18.6865 3.58968 18.6913C3.66275 18.8972 3.74816 19.0971 3.85266 19.2874C4.0246 19.601 4.23479 19.8775 4.50225 20.0989C4.53372 20.1253 4.56629 20.1504 4.60003 20.1756C4.63263 20.1995 4.66633 20.2199 4.70006 20.2414C4.70566 20.245 4.71239 20.2486 4.71917 20.2521C4.72364 20.2546 4.72928 20.257 4.73375 20.2594C4.74161 20.2641 4.74952 20.2689 4.75512 20.2773C4.75737 20.2797 4.7585 20.2833 4.76072 20.2869C4.76971 20.2845 4.77761 20.2869 4.78208 20.2964C4.79107 20.2964 4.79784 20.2989 4.80231 20.3072C4.80457 20.3072 4.80683 20.3072 4.80791 20.3072C4.80791 20.3072 4.81803 20.3108 4.82141 20.3168C4.82141 20.3168 4.82254 20.3168 4.82367 20.3168C4.82367 20.3168 4.82593 20.3168 4.82702 20.3168C4.82702 20.3168 4.82928 20.3168 4.8304 20.3168H4.83266C4.83266 20.3168 4.83492 20.318 4.83605 20.3192H4.83713C4.83713 20.3192 4.83939 20.3228 4.84052 20.324C4.85177 20.3371 4.86748 20.3407 4.88098 20.3467C5.17653 20.4868 5.47213 20.6256 5.76768 20.7645C5.91378 20.8339 6.05875 20.9057 6.21384 20.9512C6.36781 20.9967 6.52516 21.0266 6.68585 21.0338C6.71286 21.0338 6.73869 21.0338 6.76565 21.0338C6.84546 21.0338 6.92526 21.0338 7.00502 21.0338C7.08256 21.0314 7.15902 21.0206 7.23544 21.0086C7.54562 20.9596 7.84456 20.8614 8.13225 20.7297C8.65935 20.488 9.13582 20.1588 9.58312 19.777C9.6809 19.6932 9.77755 19.607 9.87194 19.5196C10.2035 19.5256 10.535 19.528 10.8665 19.5244C11.1824 19.5208 11.4993 19.5148 11.815 19.5017C11.8308 19.4921 11.8465 19.4921 11.8634 19.4993H11.878C11.8971 19.4897 11.9162 19.4909 11.9364 19.4969H11.951C11.9623 19.4897 11.9746 19.4885 11.9859 19.4909H11.9882C11.9882 19.4909 11.996 19.4933 11.9994 19.4945H12.014C12.0218 19.4897 12.0297 19.4873 12.0376 19.4873C12.0455 19.4873 12.0545 19.4885 12.0623 19.4921C12.0668 19.4921 12.0713 19.4921 12.0769 19.4921C12.0825 19.4885 12.087 19.4873 12.0927 19.4861C12.1028 19.4837 12.114 19.4861 12.1252 19.4897C12.1297 19.4897 12.1342 19.4897 12.1387 19.4897C12.1387 19.4897 12.1399 19.4897 12.141 19.4897C12.1567 19.4813 12.1725 19.4813 12.1882 19.4873C12.1927 19.4873 12.1972 19.4873 12.2017 19.4873C12.2174 19.4766 12.2343 19.4778 12.25 19.4837H12.2635C12.2792 19.4729 12.2961 19.4741 12.3129 19.4813C12.3174 19.4813 12.3219 19.4813 12.3264 19.4813C12.3298 19.4789 12.3332 19.4778 12.3354 19.4766C12.341 19.4741 12.3455 19.4741 12.3511 19.4741C12.3556 19.4741 12.3612 19.4753 12.3658 19.4778C12.4377 19.4741 12.5096 19.4717 12.5815 19.467C13.1333 19.4322 13.6851 19.3856 14.2347 19.3209C15.0697 19.2228 15.9002 19.0887 16.7195 18.89C17.2779 18.7548 17.8288 18.592 18.3616 18.3634C18.6469 18.2401 18.9243 18.1 19.1809 17.9157C19.3359 17.8044 19.4783 17.6799 19.5929 17.5207C19.665 17.4189 19.7236 17.31 19.7471 17.1831C19.7562 17.1736 19.7597 17.1604 19.7605 17.1485C19.7662 17.0575 19.7697 16.9665 19.7605 16.8755L19.7584 16.8743ZM8.9324 17.9217C8.9077 17.9456 8.88295 17.9684 8.85825 17.9923C8.68405 18.1551 8.50426 18.3107 8.31656 18.4543C8.12886 18.598 7.93443 18.7308 7.73102 18.8505C7.7018 18.8673 7.67258 18.884 7.64336 18.9008C7.57593 18.9391 7.50741 18.975 7.43773 19.0085C7.36804 19.042 7.29835 19.0744 7.22645 19.1031C7.08369 19.1617 6.93872 19.2108 6.78927 19.2491C6.72406 19.2659 6.65888 19.279 6.59371 19.2898C6.57122 19.2934 6.54765 19.2982 6.52516 19.3006C6.43637 19.3137 6.34757 19.3209 6.25883 19.3233C6.22848 19.3233 6.19926 19.3233 6.16891 19.3233C6.13856 19.3233 6.10934 19.3221 6.07899 19.3209C6.06553 19.3209 6.05315 19.3185 6.04078 19.3173C6.02841 19.3161 6.01495 19.3137 6.00257 19.3126C5.98686 19.3114 5.97335 19.3042 5.96098 19.2922C5.92616 19.2575 5.89134 19.2228 5.85873 19.1869C5.80927 19.133 5.7632 19.0756 5.71935 19.0169C5.69013 18.9774 5.66204 18.9367 5.63508 18.896C5.62157 18.8757 5.60811 18.8541 5.59574 18.8338C5.59461 18.8326 5.59461 18.8302 5.59348 18.8278C5.59348 18.8242 5.59235 18.8206 5.59127 18.8182C5.58562 18.8122 5.57889 18.8075 5.57438 18.8002C5.51372 18.6961 5.45863 18.5896 5.40804 18.4819C5.38334 18.4268 5.35972 18.3729 5.33727 18.3167C5.31478 18.2604 5.29342 18.2042 5.27432 18.1479C5.2721 18.1407 5.2721 18.1335 5.2721 18.1264C5.23836 18.0581 5.22039 17.9839 5.20016 17.9121C5.15296 17.7505 5.11588 17.5853 5.0844 17.4201C5.07876 17.3902 5.07316 17.3615 5.06868 17.3328C5.06643 17.3208 5.0653 17.31 5.06304 17.2981C5.06078 17.2837 5.05744 17.2693 5.05518 17.255C5.05518 17.2514 5.05518 17.2478 5.05518 17.2442C5.05405 17.2311 5.05292 17.2191 5.05179 17.2059C5.03156 17.1125 5.02257 17.018 5.01246 16.9246C4.97764 16.623 4.96526 16.3214 4.96413 16.0185C4.96413 15.9048 4.96526 15.7899 4.96865 15.675C4.97091 15.6068 4.97312 15.5397 4.97651 15.4715C5.21027 15.4117 5.44517 15.3602 5.68227 15.3123C6.08572 15.2309 6.49146 15.1651 6.89825 15.1112C6.90502 15.1112 6.91175 15.1088 6.9174 15.1088C6.92526 15.1088 6.93199 15.1064 6.93985 15.1076C6.94436 15.1076 6.94883 15.1076 6.95335 15.11C7.01739 15.0957 7.08148 15.0885 7.14552 15.0813C7.17474 15.0777 7.20396 15.0753 7.23318 15.0717C7.68048 15.019 8.12773 14.9784 8.57616 14.9496C8.70203 14.9413 8.8279 14.9341 8.95377 14.9281C9.27519 14.9113 9.59775 14.9006 9.91913 14.8946C10.0956 14.891 10.272 14.8886 10.4474 14.8886C10.6991 14.8886 10.9497 14.8922 11.2015 14.8982C11.1475 14.9951 11.0913 15.0909 11.0351 15.1866C10.9947 15.256 10.9531 15.3255 10.9115 15.3949C10.8362 15.5182 10.7598 15.6391 10.6822 15.76C10.5384 15.9826 10.3878 16.2016 10.2327 16.4159C10.1832 16.4841 10.1338 16.5512 10.0832 16.6182C10.0742 16.6302 10.0652 16.6421 10.0562 16.6529C9.98322 16.7498 9.90789 16.8456 9.83147 16.939C9.70452 17.0958 9.57413 17.249 9.43927 17.3986C9.39881 17.4441 9.35721 17.4896 9.31566 17.5339C9.2089 17.6488 9.09874 17.7601 8.9875 17.8702C8.96948 17.8882 8.95151 17.9061 8.9324 17.9241V17.9217ZM18.1323 16.4159C18.1323 16.4159 18.1232 16.4255 18.1132 16.4339C18.1006 16.4446 18.0885 16.4542 18.0759 16.4638C18.0637 16.4734 18.0503 16.4829 18.0377 16.4925C18.0129 16.5104 17.9882 16.5284 17.9634 16.5452L17.9548 16.5511C17.9344 16.5655 17.9131 16.5787 17.8918 16.5919C17.8601 16.6122 17.8297 16.6314 17.7971 16.6493C17.5805 16.7774 17.3534 16.8815 17.1207 16.9725C16.9014 17.0587 16.6791 17.1329 16.4555 17.1999C16.1338 17.2957 15.8082 17.3747 15.4812 17.4441C15.1619 17.5123 14.8427 17.5698 14.5213 17.6201C14.1998 17.6703 13.8773 17.711 13.5548 17.7469C13.4491 17.7589 13.3435 17.7697 13.2367 17.7804C13.0243 17.8008 12.8119 17.8188 12.5995 17.8343C12.4927 17.8415 12.3871 17.8487 12.2803 17.8559C12.0421 17.8702 11.8038 17.881 11.5656 17.8894C11.5229 17.8906 11.479 17.8929 11.4352 17.8941C11.3959 17.8953 11.3554 17.8965 11.3161 17.8978C11.4139 17.7697 11.5116 17.6416 11.6004 17.5063C11.6128 17.4896 11.6263 17.4728 11.6386 17.4549C11.8297 17.1807 12.0129 16.9019 12.1893 16.617C12.1994 16.6015 12.2478 16.5212 12.2623 16.4973C12.3736 16.3141 12.4826 16.1287 12.5883 15.9407C12.7613 15.6331 12.9254 15.3207 13.0827 15.0047C13.3817 15.0322 13.6806 15.0645 13.9796 15.104C14.002 15.1064 14.0234 15.1112 14.0459 15.1148C14.1796 15.1256 14.3122 15.1471 14.4437 15.1675C14.6134 15.1938 14.7831 15.2225 14.9528 15.2536C15.181 15.2943 15.4091 15.3398 15.6362 15.3925C15.7587 15.4212 15.8811 15.4499 16.0035 15.4787C16.0048 15.4787 16.0057 15.4787 16.0083 15.4787C16.0092 15.4787 16.0105 15.4787 16.0113 15.4787C16.0192 15.4799 16.0283 15.4799 16.0361 15.4811C16.0474 15.4811 16.0574 15.4847 16.0656 15.4954C16.3274 15.5673 16.5879 15.6415 16.8441 15.7324C16.868 15.7408 16.8949 15.7432 16.9127 15.7648C16.9791 15.7767 17.0408 15.8067 17.1029 15.8318C17.1576 15.8533 17.2127 15.8761 17.2679 15.8988C17.4229 15.9646 17.5757 16.0377 17.7242 16.1202C17.7828 16.1526 17.8401 16.1873 17.8961 16.2244C17.9713 16.2734 18.0446 16.3238 18.1132 16.3824C18.1332 16.3991 18.1389 16.4064 18.131 16.4159H18.1323Z" fill="#BAC0CB"/>
<path d="M19.764 11.8746C19.7571 11.7238 19.7032 11.5909 19.6212 11.47C19.5052 11.2977 19.3559 11.1636 19.1931 11.0451C18.9165 10.844 18.6143 10.6956 18.3051 10.5628C18.1332 10.4897 17.9578 10.4227 17.7824 10.3628C17.5141 10.2707 17.2418 10.1917 16.9679 10.1211C16.6249 10.0313 16.281 9.95349 15.9336 9.88644C15.7226 9.84575 15.5112 9.80625 15.2989 9.77273C15.2921 9.77273 15.2865 9.77273 15.2798 9.77157C15.2764 9.77157 15.2719 9.77157 15.2685 9.77157C15.2606 9.77157 15.2528 9.77037 15.2449 9.76917C15.227 9.76676 15.2089 9.76315 15.191 9.75839C15.128 9.74762 15.0651 9.73684 15.0022 9.72607C14.9651 9.72126 14.9291 9.71529 14.892 9.70933C14.8774 9.70692 14.8639 9.70452 14.8493 9.70332C14.7032 9.68417 14.556 9.66623 14.4099 9.64588C14.3672 9.63987 14.3245 9.63631 14.2818 9.6315C14.2391 9.62674 14.1964 9.62193 14.1548 9.61235C13.8705 9.58484 13.5873 9.55372 13.3029 9.52856C13.2636 9.52495 13.2231 9.52139 13.1838 9.51899C12.9388 9.49864 12.6938 9.4807 12.4488 9.46752C12.3308 9.46156 12.2128 9.45554 12.0948 9.44838C12.0049 9.44357 11.9161 9.4388 11.8262 9.4352C11.6217 9.42683 11.4171 9.42202 11.2126 9.41725C11.1362 9.41605 11.0597 9.41365 10.9845 9.41244C10.9845 9.41244 11.1249 8.8116 11.1811 8.50755C11.2238 8.28013 11.2609 8.0515 11.2935 7.82171C11.3149 7.66851 11.334 7.5141 11.3497 7.35965C11.3665 7.19807 11.38 7.0365 11.3902 6.87372C11.4003 6.70012 11.407 6.52657 11.4104 6.35302C11.4138 6.12083 11.407 5.8886 11.3913 5.65641C11.3812 5.5032 11.3665 5.35115 11.3486 5.19795C11.3239 4.98967 11.2879 4.78264 11.2418 4.57912C11.2047 4.41514 11.162 4.25356 11.1058 4.09555C11.1025 4.09555 11.1002 4.09555 11.0968 4.09555C11.0935 4.09555 11.0912 4.09555 11.0878 4.09795C11.0788 4.10156 11.0699 4.10632 11.0609 4.10993C10.8125 4.22124 10.5776 4.35891 10.3506 4.51211C10.3383 4.52048 10.3236 4.52765 10.318 4.54564C10.3719 4.91189 10.3978 5.27934 10.4012 5.6504C10.4057 6.18067 10.3686 6.70734 10.3012 7.2316C10.2495 7.62661 10.182 8.01922 10.0988 8.40702C10.0269 8.74455 9.9438 9.07852 9.85162 9.41008C9.62797 9.41244 9.40545 9.41966 9.1818 9.42803C8.88512 9.4388 8.58845 9.45314 8.29173 9.47348C8.02987 9.49147 7.76801 9.50942 7.50728 9.53337C7.16788 9.56449 6.82848 9.60038 6.49133 9.64468C6.41044 9.82304 6.33177 10.0038 6.25649 10.1857C6.14408 10.4562 6.03731 10.7303 5.93732 11.0056C5.94179 11.0056 5.9463 11.0044 5.95078 11.0032C6.34523 10.9434 6.74082 10.8943 7.13866 10.8524C7.2522 10.8404 7.36569 10.8261 7.48032 10.8153C7.76128 10.7902 8.0445 10.7734 8.32659 10.7542C8.69296 10.7291 9.06045 10.7136 9.42794 10.7016C9.43241 10.7016 9.43693 10.7016 9.4414 10.7016C9.75497 10.692 10.0674 10.6872 10.3809 10.6872C10.4596 10.6872 10.5383 10.6872 10.617 10.6872C10.7956 10.6872 10.9743 10.6896 11.153 10.6932C11.3553 10.6968 11.5587 10.7052 11.761 10.7123C11.7622 10.7123 11.7644 10.7123 11.7666 10.7123C11.9611 10.7196 12.1544 10.7267 12.3488 10.7375C12.4983 10.7447 12.6477 10.7566 12.7961 10.7686C12.8276 10.771 12.8601 10.7734 12.8916 10.7758C13.1153 10.7925 13.3389 10.8105 13.5614 10.8285C13.6165 10.8333 13.6704 10.8416 13.7255 10.8464C14.0211 10.874 14.3166 10.9099 14.6111 10.9493C14.7426 10.9673 14.874 10.9853 15.0055 11.0044C15.2831 11.0451 15.5598 11.0942 15.8359 11.1457C16.1012 11.1947 16.3665 11.251 16.6296 11.3144C16.8611 11.3707 17.0903 11.4317 17.3195 11.4976C17.6196 11.5838 17.9139 11.6855 18.2053 11.8004C18.4567 11.8997 18.6994 12.0171 18.9343 12.1547C19.0962 12.2493 19.2504 12.3558 19.3906 12.4838C19.5178 12.6012 19.629 12.7316 19.7032 12.8944C19.7323 12.959 19.7458 13.0297 19.7662 13.0979C19.7662 12.9626 19.7683 12.8274 19.7683 12.6921C19.7683 12.4911 19.7683 12.2899 19.7683 12.0889C19.7683 12.0159 19.7705 11.9428 19.7683 11.8698L19.764 11.8746Z" fill="#BAC0CB"/>
<path d="M12.297 2.26427C12.2517 2.24867 12.2042 2.23789 12.1601 2.21512C12.1601 2.20914 12.1601 2.20197 12.1612 2.19595C12.2155 2.21396 12.2676 2.23789 12.3163 2.27145C12.3094 2.26904 12.3038 2.26663 12.297 2.26427Z" fill="#333333"/>
<path d="M12.1378 2.20552C12.1378 2.20552 12.1413 2.20787 12.1436 2.20904H12.1425C12.1425 2.20904 12.1343 2.21016 12.1308 2.20552C12.1331 2.20552 12.1355 2.20552 12.1378 2.20552Z" fill="#333333"/>
<path d="M6.638 5.86945C6.638 5.86945 6.6368 5.87469 6.63441 5.87726H6.63321C6.63321 5.87726 6.62962 5.88119 6.62842 5.88119V5.87857C6.62842 5.87857 6.63081 5.87207 6.63321 5.87076C6.63321 5.87076 6.6356 5.87076 6.6368 5.86945H6.638Z" fill="#333333"/>
<path d="M6.88154 5.53947C6.88154 5.53947 6.877 5.54432 6.87471 5.54554C6.87242 5.54799 6.86788 5.54922 6.86444 5.55044C6.86444 5.54799 6.86444 5.54677 6.86444 5.54432C6.86444 5.54309 6.86444 5.54069 6.86444 5.53947C6.86444 5.53947 6.86674 5.53334 6.86903 5.53089C6.87127 5.52849 6.87356 5.52604 6.87585 5.52359C6.87815 5.52114 6.88154 5.51996 6.88497 5.51874C6.88497 5.52359 6.88497 5.52726 6.88497 5.53089C6.88497 5.53334 6.88383 5.53579 6.88154 5.53824V5.54069V5.53947Z" fill="#333333"/>
<path d="M6.97434 5.40482H6.97109L6.96893 5.40718C6.96893 5.40718 6.97434 5.3989 6.97754 5.3954C6.97754 5.3954 6.97754 5.39772 6.97754 5.3989C6.97754 5.40245 6.97646 5.40363 6.97434 5.406V5.40482Z" fill="#333333"/>
<path d="M7.02177 5.32826C7.02177 5.32826 7.02389 5.32234 7.02605 5.32116C7.02714 5.32116 7.02822 5.32116 7.0293 5.31998C7.0293 5.32116 7.0293 5.32234 7.02822 5.32352C7.02822 5.32471 7.02822 5.32589 7.02714 5.32707C7.02714 5.32707 7.02605 5.32826 7.02497 5.32944C7.02497 5.32944 7.02281 5.33058 7.02069 5.33176C7.02069 5.33176 7.02069 5.32944 7.02069 5.32826H7.02177Z" fill="#333333"/>
<path d="M11.2216 1.75908C11.2327 1.75422 11.2405 1.75908 11.2461 1.76884C11.236 1.7713 11.226 1.77375 11.2216 1.75908Z" fill="#333333" fill-opacity="0.5"/>
<path d="M8.4176 3.74113C8.4176 3.74113 8.42469 3.73523 8.42821 3.73166C8.42821 3.73166 8.42821 3.73285 8.42821 3.73404C8.42821 3.73637 8.42707 3.73756 8.42588 3.73994C8.42588 3.73994 8.42231 3.74232 8.41875 3.74113H8.4176Z" fill="#333333"/>
<path d="M8.48735 3.66721C8.48735 3.66721 8.49417 3.6647 8.49875 3.6635C8.49875 3.66971 8.4976 3.67221 8.49532 3.67472C8.49193 3.67717 8.48506 3.67472 8.48053 3.67592C8.48277 3.67221 8.48506 3.66971 8.48849 3.66721H8.48735Z" fill="#333333"/>
<path d="M8.53068 3.63589C8.53068 3.63589 8.5296 3.64058 8.52748 3.64295C8.52748 3.64295 8.52748 3.64295 8.52532 3.64295C8.52424 3.64295 8.52316 3.64295 8.521 3.64295C8.52424 3.63944 8.52748 3.63471 8.5296 3.63116C8.5296 3.63116 8.5296 3.63353 8.5296 3.63471L8.53068 3.63589Z" fill="#333333"/>
<path d="M9.11834 3.14197C9.11834 3.14197 9.11714 3.14459 9.11594 3.1459C9.11474 3.14721 9.1112 3.14847 9.1076 3.14847C9.1112 3.14459 9.11474 3.14066 9.11834 3.13678C9.11834 3.13804 9.11834 3.14066 9.11834 3.14197Z" fill="#333333"/>
<path d="M9.10829 3.14755V3.14995C9.10829 3.14995 9.10709 3.1535 9.1059 3.15469C9.1047 3.15589 9.10355 3.15469 9.10115 3.15469C9.10115 3.15469 9.09995 3.15469 9.09875 3.15469C9.10235 3.15234 9.10589 3.15115 9.10949 3.14875L9.10829 3.14755Z" fill="#333333"/>
<path d="M12.1577 2.19244C11.8655 2.05357 11.5722 1.91595 11.28 1.77588C11.2687 1.76991 11.2563 1.77588 11.2462 1.76751C11.2361 1.76991 11.226 1.77227 11.2215 1.75794C11.2092 1.7639 11.1979 1.75793 11.1867 1.75433C10.9304 1.67174 10.6686 1.64663 10.4023 1.66217C10.0494 1.68131 9.70996 1.77347 9.3818 1.90874C9.27842 1.95063 9.17725 1.99734 9.07726 2.0476C9.05251 2.06074 9.02781 2.07271 9.00306 2.08589C8.97384 2.10148 8.94575 2.11702 8.91653 2.13255C8.87832 2.15295 8.84011 2.17445 8.8019 2.1972C8.60187 2.31332 8.4097 2.44257 8.222 2.58144C8.18267 2.61016 8.14446 2.64008 8.10512 2.66879L8.08263 2.68678C7.9905 2.7586 7.90058 2.83162 7.81066 2.90699C7.58814 3.09493 7.37461 3.29604 7.16898 3.50548C6.59581 4.08842 6.08673 4.73116 5.62033 5.41344C5.60795 5.43138 5.59671 5.44937 5.58433 5.46731C5.58433 5.46731 5.58434 5.47212 5.58212 5.47328C5.58099 5.47448 5.57873 5.47568 5.57648 5.47568C5.53493 5.53913 5.49333 5.60257 5.45174 5.66602C5.38205 5.77132 5.31349 5.87786 5.24606 5.98561C5.18202 6.08735 5.11911 6.19148 5.05615 6.29442C5.0067 6.37701 4.95837 6.45961 4.91004 6.5422C4.86736 6.61637 4.82464 6.69059 4.78305 6.76481C4.72348 6.87015 4.66504 6.9767 4.60772 7.0832C4.5785 7.13707 4.55041 7.18974 4.52232 7.24362C4.51898 7.24958 4.51559 7.25555 4.51107 7.26156C4.51107 7.26873 4.50886 7.27474 4.5066 7.2795C4.50434 7.28311 4.50208 7.28787 4.49987 7.29148C4.47286 7.34175 4.44703 7.39322 4.4212 7.44348C4.32342 7.63502 4.22677 7.82772 4.13459 8.02162C4.09526 8.10421 4.05705 8.1856 4.01884 8.26819C3.81429 8.71467 3.62438 9.16712 3.45019 9.62673C3.35692 9.87094 3.26926 10.1163 3.18494 10.3641C3.14113 10.4957 3.09728 10.6274 3.0546 10.7591C2.97706 11.0033 2.90624 11.2498 2.83655 11.4964C2.80846 11.5981 2.78037 11.6999 2.75341 11.8016C2.75341 11.804 2.75228 11.8064 2.75115 11.8088C2.7096 11.9692 2.67026 12.1296 2.63314 12.2912C2.59945 12.436 2.56684 12.5821 2.53649 12.7281C2.51066 12.8525 2.48708 12.9782 2.46346 13.1039C2.45786 13.1338 2.45221 13.1638 2.44774 13.1937C2.44548 13.2057 2.44323 13.2176 2.44097 13.2296C2.44097 13.2344 2.43984 13.2392 2.43876 13.2428C2.43424 13.2667 2.42972 13.2906 2.42525 13.3146C2.39151 13.5109 2.36121 13.7072 2.33533 13.9047C2.3095 14.095 2.28701 14.2865 2.26903 14.478C2.26456 14.5211 2.26117 14.5642 2.25779 14.6061C2.25779 14.6097 2.25779 14.6121 2.25779 14.6157C2.25444 14.648 2.25331 14.6719 2.25106 14.6947C2.2432 14.8012 2.23534 14.9077 2.22969 15.0143C2.22409 15.1208 2.21958 15.2285 2.21623 15.3351C2.21623 15.3494 2.21623 15.3626 2.2151 15.377C2.20946 15.5828 2.20833 15.7887 2.21398 15.9934C2.21958 16.1873 2.22969 16.3812 2.24654 16.5739C2.26343 16.7666 2.28588 16.9593 2.31736 17.1509C2.33199 17.2442 2.34996 17.3376 2.36794 17.4297C2.43085 17.7421 2.51517 18.0486 2.63092 18.3442C2.63878 18.3646 2.64664 18.3849 2.65563 18.4065C2.66349 18.4268 2.67248 18.4472 2.68146 18.4675C2.7017 18.5154 2.72306 18.5632 2.74442 18.6099C2.7815 18.6877 2.81971 18.7644 2.8613 18.8386C2.9748 19.042 3.10853 19.2324 3.26701 19.4035C3.3086 19.449 3.35128 19.4921 3.39626 19.5328C3.47941 19.6106 3.5682 19.6812 3.66259 19.7447C3.68056 19.7566 3.7008 19.7638 3.7143 19.7818C3.71652 19.7842 3.71764 19.7878 3.71877 19.7901C3.72776 19.7878 3.73453 19.7901 3.73675 19.7997C3.77387 19.8093 3.80309 19.8356 3.83678 19.8512C4.01658 19.9362 4.19642 20.0212 4.37509 20.1062C4.47738 20.154 4.58076 20.2019 4.68305 20.2498L4.69651 20.2378C4.66282 20.2163 4.62908 20.1947 4.59652 20.172C4.56278 20.1469 4.53018 20.1217 4.49874 20.0954C4.23124 19.8739 4.0211 19.5974 3.84916 19.2839C3.74465 19.0935 3.6592 18.8936 3.58618 18.6877C3.58392 18.683 3.58279 18.6782 3.58057 18.6734C3.4828 18.3957 3.41085 18.1096 3.35693 17.8188C3.32771 17.6632 3.30521 17.5063 3.28498 17.3483C3.28385 17.3376 3.28159 17.3256 3.28051 17.3149C3.27039 17.237 3.26249 17.1592 3.25463 17.0814C3.24338 16.9665 3.2344 16.8528 3.2288 16.7379C3.22767 16.7092 3.22541 16.6816 3.22428 16.6529C3.22428 16.6457 3.22428 16.6385 3.22428 16.6314C3.21868 16.4722 3.21308 16.3142 3.21416 16.155C3.21416 16.1466 3.21416 16.137 3.21416 16.1287C3.21416 16.0999 3.21416 16.0724 3.21416 16.0437C3.21755 15.9192 3.22094 15.7947 3.22541 15.6702C3.22767 15.608 3.23105 15.5457 3.2344 15.4835C3.23778 15.4212 3.24117 15.359 3.24564 15.2967C3.2614 15.0801 3.28159 14.8634 3.30634 14.6468C3.31533 14.5678 3.32545 14.49 3.33556 14.411C3.34681 14.3236 3.35914 14.2362 3.37264 14.1489C3.38276 14.0794 3.394 14.0112 3.40412 13.943C3.41645 13.8652 3.42995 13.7874 3.44346 13.7096C3.4603 13.6114 3.47941 13.5133 3.49738 13.4151C3.51874 13.3038 3.54124 13.1913 3.56481 13.08C3.58617 12.9806 3.60867 12.8825 3.63111 12.7831C3.65586 12.6742 3.68282 12.5653 3.70979 12.4564C3.71652 12.4312 3.72329 12.4061 3.73115 12.3809C3.73788 12.3558 3.74573 12.3307 3.75138 12.3056C3.76375 12.2529 3.77387 12.199 3.79185 12.1476C3.79632 12.1415 3.80196 12.1368 3.80309 12.1296C3.81768 12.0051 3.85928 11.889 3.89523 11.7705C3.91094 11.7179 3.9267 11.6652 3.94242 11.6125C3.96378 11.5383 3.98514 11.4653 4.00651 11.3911C4.02448 11.33 4.04246 11.2702 4.06156 11.2103C4.06942 11.1864 4.07615 11.1624 4.08405 11.1397C4.09413 11.1098 4.10424 11.0787 4.11436 11.0487C4.15708 10.9231 4.19868 10.7962 4.24136 10.6705C4.25933 10.619 4.27735 10.5664 4.29646 10.5149C4.35937 10.3377 4.42454 10.1618 4.49197 9.98701C4.51107 9.93675 4.53018 9.88768 4.55041 9.83862C4.56617 9.79912 4.58189 9.75963 4.59761 9.7201C4.63582 9.62673 4.67407 9.53336 4.71227 9.44004C4.74258 9.36703 4.77293 9.29401 4.80441 9.22099C4.82803 9.16471 4.8516 9.10968 4.87635 9.05461C4.94152 8.90616 5.00782 8.75777 5.07638 8.61173C5.08876 8.58658 5.10222 8.56146 5.11572 8.53631C5.12922 8.5112 5.14268 8.48724 5.15506 8.46093C5.35621 8.00728 5.59224 7.57278 5.83499 7.14304C5.85631 7.10475 5.8788 7.06646 5.90016 7.02817C5.95074 6.93836 5.99907 6.8474 6.05751 6.76361C6.09346 6.71214 6.12602 6.65827 6.15976 6.60444C6.19237 6.55057 6.22493 6.49669 6.2598 6.44402C6.32835 6.33752 6.39239 6.22857 6.46095 6.12203C6.46994 6.10889 6.47893 6.09451 6.48792 6.08018C6.53398 6.01072 6.58118 5.94131 6.62729 5.8719V5.86949C6.62729 5.86949 6.6295 5.86353 6.63176 5.86232C6.63176 5.86232 6.63402 5.86232 6.63515 5.86112C6.70145 5.76535 6.76888 5.66958 6.83631 5.57386C6.83969 5.56905 6.84303 5.56544 6.84642 5.56188C6.84755 5.56068 6.84981 5.55827 6.85094 5.55707C6.85541 5.55231 6.8588 5.5475 6.86327 5.54273C6.86327 5.54033 6.86327 5.53913 6.86327 5.53672C6.86327 5.53552 6.86327 5.53316 6.86327 5.53196C6.86327 5.53196 6.86553 5.52595 6.86778 5.52359C6.87004 5.52119 6.87225 5.51878 6.87451 5.51638C6.87677 5.51397 6.88016 5.51281 6.8835 5.51161C6.88463 5.51041 6.88689 5.50801 6.88802 5.5056C6.91385 5.47092 6.94081 5.43619 6.96669 5.40146C6.97003 5.3979 6.97229 5.39309 6.97568 5.38953C6.97568 5.38713 6.97681 5.38472 6.97789 5.38232C6.97789 5.37991 6.98015 5.37876 6.98015 5.37635C6.98241 5.37274 6.98579 5.36914 6.98914 5.36558C6.98914 5.36558 6.99027 5.36437 6.9914 5.36317C7.00264 5.3524 7.01723 5.34282 7.01949 5.32488C7.01949 5.32488 7.01949 5.32248 7.01949 5.32128C7.01949 5.31767 7.02175 5.31531 7.024 5.31411C7.02513 5.31411 7.02622 5.31411 7.02735 5.3129C7.03525 5.30694 7.04198 5.29973 7.04871 5.29256C7.04984 5.29136 7.05097 5.28895 7.05323 5.28775C7.0577 5.28178 7.06221 5.27582 7.06555 5.26981C7.0712 5.26144 7.0768 5.25307 7.08132 5.2447C7.08579 5.23868 7.08918 5.23152 7.09369 5.2255C7.09703 5.22074 7.09929 5.21713 7.10268 5.21237C7.12287 5.18601 7.1431 5.1597 7.16333 5.13334C7.30497 4.94901 7.45107 4.76829 7.60164 4.59234C7.71965 4.45347 7.84101 4.31941 7.96466 4.18655C7.98598 4.1638 8.00734 4.13989 8.02871 4.11714C8.06917 4.07404 8.11072 4.03455 8.15232 3.99386C8.16916 3.97827 8.18492 3.96153 8.20177 3.94479C8.20516 3.94118 8.2085 3.93758 8.21189 3.93402C8.2636 3.88134 8.3164 3.82867 8.36811 3.776C8.36811 3.776 8.37036 3.7736 8.37145 3.77239C8.38495 3.75926 8.40067 3.74728 8.41531 3.73531C8.41869 3.7317 8.42204 3.72934 8.42542 3.72574C8.42542 3.72574 8.42768 3.72333 8.42881 3.72213C8.44452 3.70419 8.46137 3.68745 8.47713 3.66946C8.47935 3.6659 8.48161 3.66349 8.48499 3.66109C8.48834 3.65868 8.49172 3.65868 8.49623 3.65753C8.50071 3.65753 8.50522 3.65512 8.50857 3.65151C8.51083 3.64911 8.51308 3.64675 8.51534 3.64435C8.51756 3.64194 8.51868 3.63954 8.51981 3.63718C8.5232 3.63357 8.52654 3.62876 8.5288 3.6252C8.5704 3.58571 8.61312 3.54617 8.6558 3.50788C8.66253 3.50192 8.66817 3.4959 8.6749 3.48994C8.7165 3.45281 8.75809 3.41572 8.80077 3.37979C8.89629 3.2984 8.99407 3.21942 9.09411 3.14519C9.09745 3.14279 9.10084 3.14163 9.10423 3.13923C9.10423 3.13923 9.11096 3.13086 9.11434 3.12725C9.13679 3.10931 9.15928 3.09132 9.1829 3.07458C9.22897 3.03985 9.27503 3.00517 9.3211 2.97164C9.34472 2.9549 9.3683 2.93812 9.39079 2.92258C9.41441 2.90579 9.43798 2.89025 9.4616 2.87467C9.5335 2.82681 9.60545 2.78015 9.67848 2.73585C9.75828 2.68678 9.83921 2.63887 9.92123 2.59462C10.1674 2.45936 10.4214 2.34564 10.6877 2.26185C10.7079 2.25589 10.7282 2.24987 10.7484 2.24271C10.89 2.20081 11.0327 2.16849 11.1777 2.14694C11.2597 2.13496 11.3429 2.12659 11.4261 2.12298C11.489 2.11942 11.5519 2.11942 11.6149 2.12062C11.6362 2.12062 11.6564 2.12183 11.6778 2.12298C11.7407 2.12659 11.8037 2.13376 11.8666 2.14333C11.9531 2.15651 12.0397 2.17329 12.1251 2.1972C12.1273 2.1972 12.1296 2.1972 12.1318 2.1972C12.1341 2.1972 12.1352 2.19961 12.1374 2.20081C12.1397 2.20081 12.1408 2.20201 12.1431 2.20321C12.1464 2.20442 12.1509 2.20557 12.1543 2.20798C12.1543 2.20201 12.1543 2.1948 12.1554 2.18883C12.1543 2.18763 12.1532 2.18643 12.1509 2.18523L12.1577 2.19244Z" fill="#333333" fill-opacity="0.1"/>
<path d="M11.2216 1.75909C11.2171 1.73994 11.2002 1.73754 11.1867 1.73153C10.935 1.61185 10.6821 1.49337 10.4293 1.37485C10.3618 1.34373 10.2967 1.30664 10.227 1.28148C10.2191 1.28629 10.2113 1.28629 10.2023 1.28269C10.0292 1.22165 9.84936 1.19173 9.66731 1.17975C9.50097 1.16897 9.33463 1.17975 9.16943 1.2037C9.03348 1.22405 8.89971 1.25397 8.76711 1.29106C8.50977 1.36408 8.2625 1.46461 8.02426 1.5903C7.93209 1.63821 7.84334 1.69324 7.75342 1.74471C7.72307 1.76149 7.69159 1.77703 7.66237 1.79497C7.40277 1.95895 7.15216 2.13611 6.91393 2.33362C6.85436 2.38268 6.79253 2.43059 6.73747 2.48442C6.70152 2.51915 6.66666 2.55388 6.62732 2.58379C6.61946 2.58976 6.61273 2.59457 6.60374 2.60053C6.59697 2.60655 6.59024 2.61251 6.58464 2.61848C6.58238 2.62805 6.579 2.63526 6.57452 2.64003C6.57227 2.64243 6.56888 2.64363 6.56554 2.64484C6.56328 2.64484 6.56215 2.64484 6.55989 2.64484H6.55876C6.55876 2.64484 6.55542 2.64484 6.55316 2.64363C6.5509 2.64363 6.54977 2.64604 6.54865 2.64724C6.52841 2.66278 6.51608 2.69029 6.49811 2.70588C6.49472 2.70828 6.49246 2.71064 6.48908 2.71184C6.43967 2.7394 6.40932 2.78967 6.36546 2.8232C6.32278 2.85548 6.28792 2.89978 6.24858 2.93807C6.05528 3.1272 5.8721 3.32831 5.69117 3.53179C5.63612 3.59403 5.58554 3.66104 5.5327 3.72569C5.50235 3.76277 5.46753 3.7951 5.43718 3.83223C5.35516 3.93276 5.27535 4.0345 5.19442 4.13623C5.13485 4.21166 5.07754 4.28824 5.02362 4.36847C4.98089 4.43187 4.93035 4.48815 4.88537 4.55039C4.74713 4.73833 4.61678 4.93222 4.4864 5.12612C4.35719 5.31766 4.23917 5.51512 4.11669 5.71143C4.00654 5.88738 3.90537 6.06935 3.80087 6.24887C3.76266 6.31592 3.72784 6.38533 3.68963 6.45118C3.6222 6.56605 3.56037 6.68337 3.50193 6.80305C3.46485 6.84976 3.44349 6.90599 3.4154 6.95866C3.35696 7.06761 3.3019 7.17892 3.25132 7.29263C3.2356 7.32852 3.21198 7.36084 3.19513 7.39677C3.14794 7.49851 3.10074 7.60024 3.05242 7.70078C2.92989 7.95336 2.822 8.21431 2.71076 8.47281C2.58936 8.75291 2.48259 9.03897 2.37583 9.32628C2.30393 9.52018 2.23085 9.71528 2.17354 9.91515C2.16455 9.94747 2.14658 9.97739 2.13533 10.0097C2.08028 10.1821 2.02409 10.3545 1.97125 10.528C1.9218 10.6872 1.87573 10.8476 1.83192 11.0092C1.7892 11.1636 1.74874 11.3192 1.7094 11.4748C1.63298 11.7764 1.56329 12.0805 1.50377 12.3857C1.48801 12.4671 1.47342 12.5485 1.45766 12.6299C1.40712 12.9064 1.36214 13.1853 1.32506 13.4642C1.29024 13.7299 1.26214 13.9968 1.23965 14.2637C1.2374 14.2889 1.23627 14.3128 1.23401 14.3379C1.22281 14.484 1.21491 14.6312 1.2093 14.7784C1.20257 14.9472 1.20145 15.1148 1.20032 15.2836C1.20032 15.3637 1.20817 15.4439 1.20705 15.5241C1.20705 15.6474 1.21603 15.7695 1.22281 15.8916C1.22502 15.9371 1.22728 15.9814 1.2318 16.0269C1.2318 16.0352 1.23292 16.0424 1.23401 16.0508C1.24751 16.1681 1.2565 16.2866 1.27226 16.4039C1.28685 16.5176 1.30144 16.6313 1.32167 16.745C1.34976 16.9018 1.37677 17.0598 1.42284 17.213C1.43742 17.2609 1.44533 17.3112 1.45766 17.3603C1.48466 17.468 1.51723 17.5734 1.55318 17.6774C1.60489 17.8271 1.66333 17.9731 1.7285 18.1168C1.82741 18.337 1.94989 18.5428 2.09378 18.7332C2.22977 18.9139 2.38486 19.0731 2.56353 19.2072C2.57139 19.212 2.57816 19.218 2.58602 19.2228C2.59835 19.2323 2.61185 19.2407 2.62535 19.2491C2.63208 19.2538 2.63994 19.2586 2.6478 19.2635C2.67255 19.2802 2.69725 19.2969 2.72087 19.3149C2.7276 19.3221 2.73546 19.3269 2.74224 19.3329C2.74224 19.3341 2.74332 19.3353 2.74445 19.3364C2.74897 19.3424 2.75682 19.3436 2.76355 19.346C3.07039 19.4908 3.37832 19.6357 3.68624 19.7805C3.69862 19.7865 3.70986 19.7949 3.72558 19.7913C3.72445 19.7877 3.72219 19.7853 3.72106 19.7829C3.7076 19.765 3.68737 19.7578 3.66939 19.7458C3.575 19.6824 3.48621 19.6106 3.40302 19.5339C3.35808 19.4932 3.31536 19.4501 3.27381 19.4047C3.11533 19.2335 2.9816 19.0432 2.86811 18.8397C2.82651 18.7655 2.78717 18.6889 2.75122 18.6111C2.72873 18.5644 2.7085 18.5177 2.68714 18.4699C2.67815 18.4495 2.67029 18.4291 2.6613 18.4088C2.65345 18.3884 2.64446 18.3681 2.6366 18.3465C2.5208 18.0509 2.43653 17.7445 2.37361 17.4321C2.35451 17.3399 2.33762 17.2465 2.32303 17.1532C2.29155 16.9617 2.26911 16.769 2.25222 16.5762C2.23537 16.3836 2.22525 16.1897 2.21965 15.9958C2.21401 15.7899 2.21514 15.584 2.22074 15.3793C2.22074 15.3649 2.22074 15.3518 2.22187 15.3374C2.22525 15.2309 2.22977 15.1231 2.23537 15.0166C2.24097 14.9101 2.24887 14.8035 2.25673 14.697C2.25899 14.6743 2.2612 14.6503 2.26346 14.618C2.26346 14.6145 2.26346 14.6121 2.26346 14.6084C2.26685 14.5653 2.27132 14.5223 2.2747 14.4804C2.29381 14.2889 2.3163 14.0986 2.34101 13.907C2.36797 13.7095 2.39719 13.5132 2.43093 13.3169C2.4354 13.293 2.43991 13.269 2.44438 13.2451C2.44438 13.2403 2.44551 13.2355 2.44664 13.232C2.4489 13.22 2.45116 13.208 2.45337 13.196C2.45902 13.1661 2.46349 13.1362 2.46914 13.1063C2.49271 12.9806 2.51633 12.8561 2.54216 12.7304C2.57251 12.5844 2.60512 12.4384 2.63881 12.2935C2.67589 12.1319 2.71523 11.9715 2.75683 11.8112C2.75683 11.8088 2.75682 11.8064 2.75908 11.804C2.78604 11.7022 2.81301 11.6005 2.84223 11.4988C2.91192 11.251 2.98273 11.0056 3.06028 10.7614C3.10183 10.6297 3.14568 10.4981 3.19062 10.3664C3.27494 10.1187 3.3626 9.8733 3.45586 9.62908C3.63006 9.16947 3.81997 8.71702 4.02451 8.27054C4.06272 8.18795 4.10093 8.10536 4.14027 8.02397C4.23245 7.83007 4.32796 7.63733 4.42687 7.44584C4.45271 7.39437 4.47967 7.3441 4.5055 7.29383C4.50776 7.29023 4.51002 7.28546 4.51228 7.28186C4.51562 7.27589 4.51788 7.27108 4.51675 7.26391C4.52013 7.2579 4.52461 7.25194 4.52799 7.24593C4.55609 7.1921 4.58531 7.13943 4.6134 7.08555C4.67071 6.97901 4.72915 6.87251 4.78872 6.76717C4.83032 6.69295 4.873 6.61873 4.91572 6.54455C4.96404 6.46196 5.01237 6.37937 5.06182 6.29678C5.12365 6.19264 5.18769 6.0897 5.25174 5.98796C5.31917 5.88022 5.38772 5.77487 5.45741 5.66837C5.49901 5.60493 5.54056 5.54148 5.58215 5.47804C5.58215 5.47683 5.58215 5.47563 5.58215 5.47443C5.58215 5.47443 5.58215 5.47323 5.58328 5.47207C5.58441 5.47087 5.58667 5.46967 5.58888 5.46967C5.60125 5.45172 5.6125 5.43373 5.62487 5.41579C6.09128 4.73352 6.60036 4.09078 7.17352 3.50783C7.37915 3.29835 7.59269 3.09728 7.81521 2.90935C7.904 2.83393 7.99504 2.76095 8.08718 2.68914L8.10967 2.67115C8.14788 2.64123 8.18722 2.61251 8.22655 2.58379C8.41425 2.44493 8.60755 2.31567 8.80645 2.19956C8.84466 2.17801 8.88286 2.15646 8.92107 2.13491C8.95029 2.11937 8.97838 2.10379 9.00761 2.08825C9.03235 2.07507 9.05706 2.06309 9.08181 2.04996C9.1818 1.99965 9.28297 1.95299 9.38634 1.91109C9.71563 1.77583 10.0539 1.68366 10.4068 1.66452C10.6731 1.64894 10.935 1.67409 11.1912 1.75668C11.2025 1.76029 11.2137 1.76626 11.2261 1.76029L11.2216 1.75909ZM1.22728 15.6821C1.22728 15.6821 1.22728 15.6941 1.22728 15.7001C1.22728 15.6941 1.22728 15.6881 1.22728 15.6821Z" fill="#333333" fill-opacity="0.5"/>
<path d="M5.57667 5.4696C5.57667 5.4696 5.58017 5.46732 5.58245 5.46732C5.58245 5.4696 5.58245 5.47193 5.58016 5.47309C5.579 5.47426 5.57667 5.47542 5.57434 5.47542C5.57434 5.47426 5.57434 5.47309 5.57434 5.47193C5.57434 5.47193 5.57434 5.47076 5.57551 5.4696H5.57667Z" fill="#333333"/>
<path d="M6.55787 2.62581C6.55787 2.62581 6.56584 2.61848 6.57157 2.61848C6.57497 2.61848 6.57955 2.61849 6.58409 2.61971C6.58184 2.62949 6.5784 2.63682 6.57382 2.64173C6.57157 2.64419 6.56813 2.64537 6.5647 2.6466C6.56245 2.6466 6.5613 2.6466 6.55901 2.6466H6.55787C6.55787 2.6466 6.55443 2.6466 6.55219 2.64537C6.55333 2.63805 6.55558 2.63195 6.55901 2.62704L6.55787 2.62581Z" fill="#333333"/>
<path d="M10.1719 1.25633C9.94377 1.14738 9.71339 1.04203 9.48527 0.930726C9.22454 0.803834 8.9537 0.726052 8.66709 0.71167C8.59519 0.71167 8.52212 0.71167 8.45022 0.71167C8.42213 0.71167 8.39403 0.71167 8.36594 0.71167C8.22205 0.720086 8.07934 0.742792 7.93775 0.775117C7.5208 0.869685 7.13307 1.04324 6.76106 1.26109C6.38684 1.48014 6.03845 1.74225 5.70804 2.02956C5.66536 2.06665 5.62037 2.10018 5.58442 2.14328C5.58104 2.14443 5.57882 2.14684 5.57657 2.15044V2.15401H5.57205C5.56306 2.16242 5.55295 2.16959 5.54396 2.17796C5.17759 2.51193 4.83706 2.87462 4.51564 3.25645C4.13355 3.71125 3.78065 4.19126 3.45136 4.69037C2.96026 5.43369 2.52533 6.21414 2.13874 7.02326C1.87801 7.56907 1.63977 8.12566 1.42511 8.69543C1.20146 9.2891 0.998048 9.88999 0.832841 10.5052C0.814865 10.5735 0.792375 10.6405 0.773271 10.7087C0.638413 11.2162 0.521528 11.7273 0.43048 12.2456C0.352978 12.6849 0.29002 13.1254 0.249554 13.5706C0.219205 13.8938 0.198975 14.217 0.198975 14.5414C0.198975 14.6886 0.198972 14.8358 0.200101 14.9843C0.202359 15.0046 0.202361 15.025 0.20349 15.0453C0.20349 15.0764 0.203489 15.1076 0.20236 15.1387C0.203489 15.3182 0.218078 15.4965 0.233839 15.6749C0.260802 15.9658 0.302396 16.2554 0.361966 16.5403C0.437254 16.8982 0.540632 17.2453 0.688992 17.5781C0.847426 17.9336 1.0475 18.2567 1.31834 18.5273C1.47565 18.6853 1.64985 18.8181 1.8454 18.9151C2.0196 19.0025 2.19605 19.0838 2.37137 19.1664C2.49164 19.2227 2.61074 19.2838 2.73435 19.3352C2.72762 19.3292 2.71976 19.3232 2.71303 19.3172C2.68941 19.2981 2.66471 19.2814 2.63996 19.2646C2.6321 19.2598 2.62537 19.255 2.61751 19.2502C2.60401 19.2419 2.59163 19.2334 2.57818 19.2239C2.57027 19.2191 2.56354 19.2131 2.55568 19.2083C2.37697 19.0743 2.22188 18.9151 2.08589 18.7343C1.94205 18.544 1.81957 18.3381 1.72066 18.1179C1.65662 17.9743 1.59705 17.8282 1.54534 17.6786C1.53188 17.6655 1.51837 17.6511 1.506 17.6379C1.5195 17.6523 1.53188 17.6655 1.54534 17.6786C1.50939 17.5745 1.47678 17.4692 1.44982 17.3614C1.43744 17.3123 1.42958 17.2621 1.41499 17.2142C1.36893 17.061 1.34305 16.903 1.31383 16.7462C1.2936 16.6337 1.27901 16.5188 1.26438 16.4051C1.24866 16.2877 1.23967 16.1693 1.22617 16.0519C1.22617 16.0436 1.22504 16.0364 1.22395 16.028C1.22395 16.1788 1.22395 16.3296 1.22395 16.4793C1.22395 16.3284 1.22395 16.1776 1.22395 16.028C1.21944 15.9837 1.21831 15.9382 1.21492 15.8928C1.20932 15.7706 1.1992 15.6486 1.1992 15.5253C1.1992 15.4451 1.19135 15.3649 1.19248 15.2847C1.1936 15.1159 1.19473 14.9483 1.20146 14.7796C1.20706 14.6324 1.21492 14.4863 1.22617 14.3391C1.22843 14.314 1.22955 14.29 1.23181 14.2649C1.25426 13.9979 1.28235 13.731 1.31722 13.4653C1.35317 13.1852 1.39923 12.9075 1.44982 12.631C1.46445 12.5496 1.48017 12.4682 1.49588 12.3869C1.55545 12.0804 1.62514 11.7776 1.70155 11.476C1.74089 11.3203 1.78136 11.1647 1.82404 11.0103C1.86789 10.8488 1.91509 10.6884 1.96341 10.5292C2.01625 10.3556 2.07244 10.1833 2.12749 10.0109C2.13761 9.97855 2.15558 9.94862 2.1657 9.9163C2.22414 9.71644 2.29609 9.52133 2.36799 9.32744C2.47475 9.04133 2.58152 8.75406 2.70292 8.47397C2.81415 8.21542 2.92205 7.95451 3.04453 7.70193C3.09286 7.6014 3.14118 7.49966 3.18729 7.39793C3.20414 7.36199 3.22771 7.33087 3.24347 7.29379C3.29406 7.18007 3.34911 7.06876 3.40756 6.95981C3.43565 6.90714 3.45701 6.85091 3.49409 6.80421C3.55253 6.68453 3.61436 6.56721 3.68179 6.45234C3.72108 6.38649 3.75481 6.31587 3.79302 6.25002C3.89753 6.07051 3.9987 5.88854 4.10881 5.71258C4.23133 5.51628 4.34934 5.31877 4.47856 5.12728C4.60894 4.93338 4.74041 4.73948 4.87753 4.55155C4.92247 4.4905 4.97305 4.43423 5.01577 4.36962C5.0697 4.28939 5.12588 4.21161 5.18658 4.13739C5.26751 4.03565 5.34727 3.93392 5.42933 3.83338C5.45968 3.79625 5.49338 3.76393 5.52485 3.72684C5.57769 3.66219 5.62823 3.59518 5.68333 3.53294C5.86426 3.32942 6.04744 3.12836 6.24074 2.93922C6.28008 2.90093 6.3149 2.85783 6.35762 2.8243C6.40147 2.79082 6.43178 2.74056 6.48123 2.713C6.48462 2.71064 6.48801 2.70944 6.49022 2.70703C6.50933 2.69145 6.52057 2.66393 6.5408 2.64839C6.54193 2.64719 6.54419 2.64599 6.54532 2.64479C6.54645 2.63762 6.54866 2.63161 6.55205 2.62684C6.55543 2.62204 6.55991 2.61963 6.56555 2.61963C6.5689 2.61963 6.57341 2.61963 6.57788 2.62083C6.58466 2.61487 6.59139 2.60886 6.59699 2.60289C6.60597 2.59693 6.61275 2.59091 6.62061 2.58615C6.65995 2.55619 6.69476 2.5215 6.73071 2.48677C6.78694 2.4329 6.8476 2.38504 6.90717 2.33597C7.14545 2.13847 7.39719 1.96131 7.65566 1.79733C7.68488 1.77818 7.71636 1.7638 7.74671 1.74706C7.83658 1.69559 7.92538 1.64052 8.01755 1.59265C8.25579 1.46697 8.50301 1.36643 8.7604 1.29341C8.893 1.25633 9.02673 1.22636 9.16271 1.20601C9.32792 1.18211 9.49426 1.17253 9.66059 1.18211C9.84152 1.19408 10.0213 1.224 10.1955 1.28504C10.2045 1.28745 10.2124 1.2886 10.2203 1.28384C10.2056 1.2671 10.1832 1.2671 10.1652 1.25748L10.1719 1.25633Z" fill="#BAC0CB"/>
<path d="M6.56503 2.55517C6.56503 2.55517 6.56128 2.55265 6.56 2.55142C6.56128 2.55142 6.5638 2.55394 6.56503 2.55517Z" fill="#BAC0CB"/>
<path d="M6.53302 2.53477C6.53988 2.53821 6.54556 2.5416 6.55124 2.54503C6.54556 2.5416 6.53874 2.53821 6.53302 2.53477Z" fill="#BAC0CB"/>
<path d="M8.6681 0.712014H8.45044C8.42225 0.712014 8.39406 0.712014 8.36588 0.712014C8.36474 0.708368 8.36248 0.704675 8.36139 0.699799C8.46512 0.699799 8.56885 0.699799 8.6715 0.699799C8.6715 0.703444 8.66923 0.707137 8.6681 0.712014Z" fill="#333333" fill-opacity="0.5"/>
<path d="M5.5735 2.15553H5.57098V2.1505H5.57602V2.1543H5.5735V2.15553Z" fill="#333333"/>
<path opacity="0.48" d="M18.1241 16.4243C18.1537 16.4003 18.1537 16.3979 18.1241 16.3728C18.056 16.3141 17.9826 16.2627 17.9075 16.2148C17.657 16.0532 17.3895 15.9299 17.1138 15.8222C17.0513 15.7983 16.9905 15.7683 16.9241 15.7552C16.9063 15.7336 16.8789 15.7312 16.8554 15.7228C16.5993 15.6319 16.3383 15.5576 16.0765 15.4858C16.0552 15.4835 16.034 15.4787 16.0149 15.4679C15.8924 15.4392 15.77 15.4105 15.6475 15.3829C15.4205 15.3303 15.1933 15.2848 14.9641 15.2441C14.7944 15.2142 14.6247 15.1854 14.455 15.1591C14.3224 15.1387 14.1898 15.1172 14.056 15.1064C14.0336 15.1028 14.0122 15.098 13.9897 15.0956C13.5222 15.0346 13.0536 14.9879 12.5827 14.9544C12.2759 14.9317 11.9679 14.9149 11.6611 14.9017C11.2588 14.885 10.8576 14.8778 10.4553 14.8778C9.95626 14.8778 9.45842 14.891 8.96054 14.9161C8.38516 14.946 7.81199 14.9927 7.23996 15.0609C7.14669 15.0717 7.05226 15.0789 6.95899 15.0992C6.93989 15.0944 6.92191 15.0992 6.90281 15.1016C6.49485 15.1555 6.08915 15.2213 5.68566 15.3027C5.44742 15.3506 5.21032 15.4032 4.97429 15.4631L4.96978 15.4715C4.96978 15.4715 4.90912 16.4051 5.04398 17.3172C5.27662 17.3759 5.51038 17.4285 5.7441 17.4752C5.95316 17.5171 6.16331 17.5566 6.37458 17.5889C6.67018 17.6344 6.96685 17.6799 7.26466 17.7134C7.55348 17.7457 7.84234 17.7792 8.13229 17.8008C8.30423 17.814 8.47504 17.8295 8.64698 17.8403C8.90097 17.8558 9.15497 17.869 9.40897 17.8786C9.64048 17.8869 9.87311 17.8941 10.1046 17.8977C10.4755 17.9025 10.8463 17.9013 11.2183 17.8929C11.5757 17.8846 11.9331 17.8702 12.2894 17.8486C12.7153 17.8235 13.139 17.7876 13.5638 17.7409C14.21 17.6691 14.8528 17.5746 15.4899 17.4381C16.0461 17.3196 16.5971 17.1748 17.1307 16.9653C17.3634 16.8743 17.5905 16.7714 17.8072 16.6421C17.9175 16.5775 18.023 16.5068 18.1233 16.4243H18.1241Z" fill="url(#paint0_linear_214_70)"/>
<path d="M26.2564 8.02274L29.066 15.6654L31.8565 8.02274H33.5837L29.8063 18.1527H28.2115L24.4155 8.02274H26.2573H26.2564Z" fill="#BAC0CB"/>
<path d="M37.2091 16.192C37.741 16.5559 38.3858 16.7785 39.0692 16.7785C40.9865 16.7785 42.4866 15.1411 42.4866 13.0787H44.1196C44.1196 16.0304 41.8801 18.3561 39.0323 18.3561C36.1844 18.3561 34.0387 16.0508 34.0387 13.1398C34.0387 10.2288 36.2787 7.82166 39.1265 7.82166C40.5315 7.82166 42.1258 8.38781 43.17 9.86368L37.2091 16.192ZM36.1844 15.0597L40.9301 9.9846C40.3795 9.60037 39.7534 9.39805 39.0705 9.39805C37.1722 9.39805 35.6717 11.0355 35.6717 13.0775C35.6717 13.8053 35.8618 14.4923 36.1844 15.0585V15.0597Z" fill="#BAC0CB"/>
<path d="M45.9423 3.39296H47.7273V18.1527H45.9423V3.39296Z" fill="#BAC0CB"/>
<path d="M49.7388 13.0776C49.7388 10.0852 51.9032 7.82056 54.7693 7.82056C57.6349 7.82056 59.8184 10.0852 59.8184 13.0776C59.8184 16.07 57.654 18.355 54.7693 18.355C51.8841 18.355 49.7388 16.0904 49.7388 13.0776ZM54.7693 16.6565C56.6671 16.6565 58.0912 15.1196 58.0912 13.0776C58.0912 11.0356 56.6671 9.49869 54.7693 9.49869C52.871 9.49869 51.466 11.0559 51.466 13.0776C51.466 15.0993 52.8901 16.6565 54.7693 16.6565Z" fill="#BAC0CB"/>
<path d="M66.349 18.1527C63.2745 18.1527 61.2234 16.131 61.2234 13.0776C61.2234 10.0241 63.2732 8.02281 66.349 8.02281H67.9438V3.39296H69.7287V18.1527H66.349ZM66.349 16.4542H67.9438V9.70094H66.349C64.3365 9.70094 63.0079 11.0559 63.0079 13.0776C63.0079 15.0992 64.3365 16.4542 66.349 16.4542Z" fill="#BAC0CB"/>
<path d="M72.3481 8.02287H74.1331V10.9542L77.0751 7.82056L78.1957 9.01392L74.1331 13.3206V18.1527H72.3481V8.02287Z" fill="#BAC0CB"/>
<path d="M78.309 13.0776C78.309 10.0852 80.4734 7.82056 83.3391 7.82056C86.2051 7.82056 88.3886 10.0852 88.3886 13.0776C88.3886 16.07 86.2242 18.355 83.3391 18.355C80.4543 18.355 78.309 16.0904 78.309 13.0776ZM83.3391 16.6565C85.2373 16.6565 86.6614 15.1196 86.6614 13.0776C86.6614 11.0356 85.2373 9.49869 83.3391 9.49869C81.4412 9.49869 80.0362 11.0559 80.0362 13.0776C80.0362 15.0993 81.4603 16.6565 83.3391 16.6565Z" fill="#BAC0CB"/>
<path d="M90.4015 8.02287H92.1478V9.23538C93.6852 8.00252 94.3495 7.82056 95.2227 7.82056C96.3624 7.82056 97.3489 8.44776 97.8235 9.45799C99.5697 8.02287 100.272 7.82056 101.184 7.82056C102.817 7.82056 104.107 9.0738 104.107 10.9745V18.1527H102.322V11.1769C102.322 10.2468 101.696 9.55973 100.898 9.55973C100.29 9.55973 99.835 9.701 98.1461 11.1972V18.1527H96.3611V11.1769C96.3611 10.2468 95.7355 9.55973 94.9374 9.55973C94.3304 9.55973 93.8741 9.701 92.1851 11.1972V18.1527H90.4002V8.02287H90.4015Z" fill="#BAC0CB"/>
<path d="M109.196 16.192C109.727 16.5559 110.372 16.7785 111.055 16.7785C112.973 16.7785 114.473 15.1411 114.473 13.0787H116.106C116.106 16.0304 113.866 18.3561 111.018 18.3561C108.171 18.3561 106.025 16.0508 106.025 13.1398C106.025 10.2288 108.265 7.82166 111.113 7.82166C112.518 7.82166 114.112 8.38781 115.156 9.86368L109.196 16.192ZM108.171 15.0597L112.917 9.9846C112.366 9.60037 111.74 9.39805 111.057 9.39805C109.158 9.39805 107.658 11.0355 107.658 13.0775C107.658 13.8053 107.848 14.4923 108.171 15.0585V15.0597Z" fill="#BAC0CB"/>
<defs>
<linearGradient id="paint0_linear_214_70" x1="11.5765" y1="15.2281" x2="11.4836" y2="17.4875" gradientUnits="userSpaceOnUse">
<stop offset="0.16" stop-color="#191919"/>
<stop offset="0.97" stop-color="#191919" stop-opacity="0"/>
</linearGradient>
</defs>
</svg>
