<svg width="14" height="18" viewBox="0 0 14 18" fill="none" xmlns="http://www.w3.org/2000/svg">
<path fill-rule="evenodd" clip-rule="evenodd" d="M9.93302 8.30893H3.59976V6.23985C3.59976 5.369 3.95496 4.57674 4.52951 4.00382C5.10409 3.42924 5.89473 3.0724 6.76558 3.0724C7.63643 3.0724 8.42869 3.42927 9.00161 4.00382C9.57615 4.57674 9.93302 5.36903 9.93302 6.23985V8.30893ZM12.6323 8.74436C12.4653 8.57904 12.2607 8.45134 12.0316 8.37932V6.23985C12.0316 4.79116 11.439 3.47343 10.4847 2.5191C9.53033 1.56478 8.21423 0.973831 6.76558 0.973831C5.31689 0.973831 4.00078 1.56478 3.04646 2.5191C2.09214 3.47343 1.49956 4.79116 1.49956 6.23985V8.37278C1.26385 8.4448 1.05268 8.57409 0.882447 8.74436C0.614 9.01447 0.447021 9.38442 0.447021 9.79361V16.4559C0.447021 16.8651 0.614 17.2351 0.882447 17.5052C1.15252 17.7736 1.5225 17.9406 1.9317 17.9406H11.5831C11.9923 17.9406 12.3622 17.7736 12.6323 17.5052C12.9008 17.2351 13.0677 16.8651 13.0677 16.4559V9.79361C13.0678 9.38438 12.9008 9.01447 12.6323 8.74436ZM5.72937 11.5124C5.99291 11.2505 6.35631 11.0868 6.75738 11.0868C7.15844 11.0868 7.52181 11.2505 7.78538 11.5124C8.04894 11.776 8.21097 12.1394 8.21097 12.5404C8.21097 12.853 8.11276 13.1411 7.94578 13.3785C7.80663 13.575 7.62003 13.7354 7.40231 13.8434V14.5179C7.40231 14.6946 7.33029 14.8567 7.21242 14.9729C7.09618 15.0891 6.93578 15.1628 6.75734 15.1628C6.58054 15.1628 6.4185 15.0891 6.30226 14.9729C6.18605 14.8567 6.11237 14.6946 6.11237 14.5179V13.8434C5.89629 13.7354 5.70968 13.575 5.57053 13.3785C5.40192 13.1412 5.30371 12.8531 5.30371 12.5404C5.30378 12.1393 5.46747 11.7759 5.72937 11.5124Z" fill="#0F172A"/>
</svg>
