<svg width="13" height="18" viewBox="0 0 13 18" fill="none" xmlns="http://www.w3.org/2000/svg">
<path d="M6.72982 10.5982C6.86694 10.5982 6.97811 10.4838 6.97811 10.3427C6.97811 10.2016 6.86694 10.0873 6.72982 10.0873C6.5927 10.0873 6.48154 10.2016 6.48154 10.3427C6.48154 10.4838 6.5927 10.5982 6.72982 10.5982Z" fill="#0F172A"/>
<path d="M6.72982 11.6077C6.86694 11.6077 6.97811 11.4933 6.97811 11.3522C6.97811 11.2111 6.86694 11.0968 6.72982 11.0968C6.5927 11.0968 6.48154 11.2111 6.48154 11.3522C6.48154 11.4933 6.5927 11.6077 6.72982 11.6077Z" fill="#0F172A"/>
<path d="M8.47178 8.79162L9.54436 7.78413L10.0588 7.30388C10.9884 6.44148 11.4492 5.27255 11.4671 3.72554V2.42582H12.2457C12.2788 2.42663 12.3117 2.42063 12.3425 2.40816C12.3734 2.39569 12.4014 2.377 12.4251 2.3532C12.4488 2.3294 12.4676 2.30096 12.4805 2.26956C12.4933 2.23816 12.4999 2.20443 12.4999 2.17037V1.06478C12.4999 0.99703 12.4738 0.932056 12.4272 0.884149C12.3807 0.836243 12.3175 0.80933 12.2517 0.80933H1.21195C1.1461 0.80933 1.08295 0.836243 1.03638 0.884149C0.989822 0.932056 0.963664 0.99703 0.963664 1.06478V2.17037C0.963664 2.23812 0.989822 2.30309 1.03638 2.351C1.08295 2.3989 1.1461 2.42582 1.21195 2.42582H1.99057V3.72146C2.00844 5.26437 2.47125 6.43331 3.40082 7.29366L3.9967 7.85361L4.98984 8.78549C5.09311 8.86541 5.1786 8.9671 5.2406 9.08376C5.3026 9.20041 5.33968 9.32934 5.34936 9.46192C5.33664 9.5987 5.2959 9.73116 5.22982 9.85057C5.16375 9.96998 5.07383 10.0736 4.966 10.1547L3.39685 11.6302C2.46727 12.4905 2.00646 13.6595 1.98659 15.2065V16.3345H1.21195C1.17884 16.3345 1.14606 16.3413 1.11554 16.3546C1.08502 16.3678 1.05738 16.3871 1.03424 16.4115C1.01111 16.4359 0.992946 16.4648 0.980825 16.4965C0.968704 16.5282 0.962869 16.5621 0.963664 16.5961V17.7017C0.963664 17.7695 0.989822 17.8344 1.03638 17.8823C1.08295 17.9302 1.1461 17.9572 1.21195 17.9572H12.2457C12.2793 17.958 12.3127 17.9518 12.3439 17.939C12.3752 17.9261 12.4035 17.9069 12.4273 17.8824C12.4511 17.858 12.4698 17.8288 12.4822 17.7967C12.4947 17.7645 12.5008 17.7302 12.4999 17.6956V16.5961C12.4999 16.5284 12.4738 16.4634 12.4272 16.4155C12.3807 16.3676 12.3175 16.3407 12.2517 16.3407H11.4671V15.2024C11.4492 13.6595 10.9884 12.4905 10.0588 11.6302L8.48767 10.1527C8.38083 10.0723 8.29177 9.96958 8.22637 9.85121C8.16097 9.73285 8.12073 9.60156 8.10829 9.46601C8.11921 9.33358 8.15725 9.20503 8.2199 9.0888C8.28254 8.97257 8.36838 8.87129 8.47178 8.79162ZM7.61172 9.46805C7.62253 9.67517 7.67655 9.87746 7.77012 10.0612C7.86369 10.2449 7.99461 10.4057 8.15397 10.5328L9.71916 12.0082C10.5534 12.7807 10.9487 13.7984 10.9645 15.2065V16.3345H2.48714V15.2085C2.50501 13.7984 2.90028 12.7807 3.73452 12.0082L5.30367 10.5348C5.46417 10.4067 5.59602 10.2446 5.69027 10.0595C5.78451 9.87441 5.83895 9.67059 5.8499 9.46192C5.83986 9.25961 5.78745 9.06192 5.69626 8.88239C5.60507 8.70286 5.47725 8.54572 5.32155 8.42173L4.32841 7.48985L3.73253 6.9299C2.90028 6.15742 2.50501 5.13971 2.48714 3.73167V2.42582H10.9705V3.72146C10.9546 5.13154 10.5594 6.14925 9.72511 6.92173C9.55231 7.08113 9.38149 7.24257 9.20868 7.40606L8.13014 8.42173C7.97668 8.54846 7.85112 8.70726 7.76175 8.88763C7.67239 9.068 7.62125 9.26583 7.61172 9.46805Z" fill="#0F172A"/>
<path d="M9.99921 5.76506C10.0259 5.71747 10.0369 5.66224 10.0304 5.60768C10.024 5.55313 10.0005 5.50221 9.96346 5.4626C9.92713 5.42207 9.87877 5.39507 9.82593 5.38582C9.7731 5.37658 9.71878 5.38561 9.67147 5.41151C8.69224 5.92446 8.32478 6.11656 6.80528 5.61587C5.83133 5.28939 4.77244 5.36261 3.84971 5.82023C3.81604 5.83662 3.78639 5.8606 3.76295 5.89038C3.73951 5.92016 3.72288 5.95498 3.71429 5.99227C3.70571 6.02956 3.70539 6.06836 3.71336 6.10579C3.72133 6.14322 3.73738 6.17833 3.76032 6.20852C3.85567 6.325 6.01673 8.45647 6.03659 8.45647C6.19679 8.64582 6.2942 8.88275 6.31467 9.1329C6.32762 9.23698 6.37897 9.33195 6.4581 9.39814C6.53723 9.46433 6.63806 9.49668 6.73973 9.48849C6.78751 9.49327 6.83573 9.48827 6.88161 9.47377C6.92749 9.45928 6.97013 9.43558 7.00707 9.40404C7.044 9.3725 7.0745 9.33374 7.0968 9.29001C7.1191 9.24628 7.13276 9.19844 7.13699 9.14925C7.17522 8.82284 7.33117 8.52309 7.57397 8.30933C7.60774 8.27868 7.74677 8.14176 7.93547 7.95579C8.40026 7.49803 9.17491 6.72963 9.38744 6.53754C9.63028 6.31544 9.83684 6.05462 9.99921 5.76506Z" fill="#0F172A"/>
<path d="M3.30946 15.5171C3.30865 15.5515 3.31461 15.5857 3.32698 15.6177C3.33934 15.6497 3.35786 15.6787 3.38142 15.7032C3.40498 15.7276 3.4331 15.7469 3.46408 15.7598C3.49506 15.7728 3.52827 15.7792 3.56172 15.7787H9.89991C9.96576 15.7787 10.0289 15.7517 10.0755 15.7038C10.122 15.6559 10.1482 15.591 10.1482 15.5232C10.1267 14.6048 9.75698 13.7315 9.11807 13.0898C8.47916 12.4481 7.62169 12.0889 6.72883 12.0889C5.83596 12.0889 4.9785 12.4481 4.33958 13.0898C3.70067 13.7315 3.33097 14.6048 3.30946 15.5232V15.5171Z" fill="#0F172A"/>
</svg>
