<svg width="306" height="157" viewBox="0 0 306 157" fill="none" xmlns="http://www.w3.org/2000/svg">
<path d="M0.275787 46.7816C0.266739 46.7869 0.258144 46.7919 0.250004 46.7967L0.250656 82.2295L0.251263 106.675L0.251575 114.735L0.251724 116.997L0.251785 117.489C0.251812 117.692 0.251831 117.797 0.251816 117.796C0.284626 119.388 1.07618 120.931 2.52635 122.359C3.97716 123.788 6.07379 125.088 8.67607 126.185C13.8797 128.381 21.0603 129.75 29 129.75C36.9305 129.75 44.1031 128.389 49.3049 126.203C51.9063 125.11 54.0036 123.815 55.4571 122.391C56.91 120.967 57.7063 119.429 57.7462 117.839C57.7462 117.84 57.7462 117.776 57.7462 117.651C57.7463 117.516 57.7463 117.311 57.7463 117.039L57.7466 114.776L57.7472 106.71L57.7485 82.2515L57.75 46.7955C57.7417 46.7906 57.7329 46.7854 57.7236 46.7799C57.6271 46.7232 57.4819 46.6403 57.2904 46.535C56.9075 46.3245 56.3412 46.0252 55.6109 45.667C54.1503 44.9504 52.0351 43.9982 49.4206 43.0472C44.1902 41.1447 36.9701 39.25 29 39.25C21.03 39.25 13.8099 41.1467 8.5794 43.0502C5.96492 44.0016 3.84968 44.9541 2.38903 45.6703C1.65874 46.0284 1.09238 46.3274 0.709393 46.5374C0.517841 46.6425 0.372532 46.7251 0.275787 46.7816Z" fill="url(#paint0_linear_693_2634)" stroke="#0F172A" stroke-width="0.5"/>
<path d="M0.349018 47.6258C0.349018 49.1587 1.12111 50.6389 2.55989 52.0061C3.99914 53.3738 6.09245 54.6146 8.69568 55.6609C13.9011 57.7531 21.106 59.0516 29.0745 59.0516C37.043 59.0516 44.2479 57.7531 49.4533 55.6609C52.0566 54.6146 54.1499 53.3738 55.5891 52.0061C57.0279 50.6389 57.8 49.1587 57.8 47.6258C57.8 46.093 57.0279 44.6127 55.5891 43.2455C54.1499 41.8779 52.0566 40.637 49.4533 39.5907C44.2479 37.4985 37.043 36.2 29.0745 36.2C21.106 36.2 13.9011 37.4985 8.69568 39.5907C6.09245 40.637 3.99914 41.8779 2.55989 43.2455C1.12111 44.6127 0.349018 46.093 0.349018 47.6258Z" fill="url(#paint1_linear_693_2634)" stroke="#0F172A" stroke-width="0.4"/>
<path d="M5.65268 46.6835C5.65268 47.7117 6.29079 48.7078 7.48376 49.6288C8.67537 50.5487 10.4059 51.3815 12.5533 52.0827C16.8469 53.4847 22.7849 54.3535 29.3482 54.3535C35.9116 54.3535 41.8495 53.4847 46.1432 52.0827C48.2906 51.3815 50.0211 50.5487 51.2127 49.6288C52.4057 48.7078 53.0438 47.7117 53.0438 46.6835C53.0438 45.6554 52.4057 44.6593 51.2127 43.7383C50.0211 42.8184 48.2906 41.9856 46.1432 41.2844C41.8495 39.8824 35.9116 39.0136 29.3482 39.0136C22.7849 39.0136 16.8469 39.8824 12.5533 41.2844C10.4059 41.9856 8.67537 42.8184 7.48376 43.7383C6.29079 44.6593 5.65268 45.6554 5.65268 46.6835Z" fill="#0F172A" stroke="#0F172A" stroke-width="0.2"/>
<path d="M5.65268 47.655C5.65268 48.6831 6.29079 49.6793 7.48376 50.6003C8.67537 51.5202 10.4059 52.3529 12.5533 53.0541C16.8469 54.4561 22.7849 55.325 29.3482 55.325C35.9116 55.325 41.8495 54.4561 46.1432 53.0541C48.2906 52.3529 50.0211 51.5202 51.2127 50.6003C52.4057 49.6793 53.0438 48.6831 53.0438 47.655C53.0438 46.6268 52.4057 45.6307 51.2127 44.7097C50.0211 43.7898 48.2906 42.957 46.1432 42.2558C41.8495 40.8538 35.9116 39.985 29.3482 39.985C22.7849 39.985 16.8469 40.8538 12.5533 42.2558C10.4059 42.957 8.67537 43.7898 7.48376 44.7097C6.29079 45.6307 5.65268 46.6268 5.65268 47.655Z" fill="#FFDF77" stroke="#0F172A" stroke-width="0.2"/>
<path d="M0.200001 47.6258C0.200001 49.1585 0.973984 50.6387 2.41655 52.006C3.85955 53.3737 5.95831 54.6146 8.56833 55.6609C13.7872 57.7531 21.0108 59.0516 29 59.0516C36.9892 59.0516 44.2128 57.7531 49.4317 55.6609C52.0417 54.6146 54.1405 53.3737 55.5835 52.006C57.026 50.6387 57.8 49.1585 57.8 47.6258C57.8 46.0932 57.026 44.613 55.5835 43.2457C54.1405 41.878 52.0417 40.6371 49.4317 39.5908C44.2128 37.4985 36.9892 36.2 29 36.2C21.0108 36.2 13.7872 37.4985 8.56833 39.5908C5.95831 40.6371 3.85955 41.878 2.41655 43.2457C0.973984 44.613 0.200001 46.0932 0.200001 47.6258Z" fill="url(#paint2_linear_693_2634)" stroke="#0F172A" stroke-width="0.4"/>
<path d="M5.51758 46.6835C5.51758 47.7116 6.15728 48.7077 7.35338 49.6287C8.54808 50.5487 10.2831 51.3815 12.4361 52.0827C16.7408 53.4847 22.6941 54.3535 29.2744 54.3535C35.8547 54.3535 41.808 53.4847 46.1128 52.0827C48.2657 51.3815 50.0008 50.5487 51.1955 49.6287C52.3916 48.7077 53.0313 47.7116 53.0313 46.6835C53.0313 45.6555 52.3916 44.6594 51.1955 43.7384C50.0008 42.8184 48.2657 41.9856 46.1128 41.2844C41.808 39.8824 35.8547 39.0136 29.2744 39.0136C22.6941 39.0136 16.7408 39.8824 12.4361 41.2844C10.2831 41.9856 8.54808 42.8184 7.35338 43.7384C6.15728 44.6594 5.51758 45.6555 5.51758 46.6835Z" fill="#0F172A" stroke="#0F172A" stroke-width="0.2"/>
<path d="M5.51758 47.655C5.51758 48.683 6.15728 49.6791 7.35338 50.6002C8.54808 51.5201 10.2831 52.3529 12.4361 53.0541C16.7408 54.4561 22.6941 55.325 29.2744 55.325C35.8547 55.325 41.808 54.4561 46.1128 53.0541C48.2657 52.3529 50.0008 51.5201 51.1955 50.6002C52.3916 49.6791 53.0313 48.683 53.0313 47.655C53.0313 46.627 52.3916 45.6308 51.1955 44.7098C50.0008 43.7898 48.2657 42.9571 46.1128 42.2559C41.808 40.8538 35.8547 39.985 29.2744 39.985C22.6941 39.985 16.7408 40.8538 12.4361 42.2559C10.2831 42.9571 8.54808 43.7898 7.35338 44.7098C6.15728 45.6308 5.51758 46.627 5.51758 47.655Z" fill="#FFDF77" stroke="#0F172A" stroke-width="0.2"/>
<g filter="url(#filter0_d_693_2634)">
<mask id="path-8-inside-1_693_2634" fill="white">
<path fill-rule="evenodd" clip-rule="evenodd" d="M27.285 41.6909C26.8984 41.6909 26.585 42.0043 26.585 42.3909V45.6692L18.7421 45.6692C18.3555 45.6692 18.0421 45.9826 18.0421 46.3692L18.0421 47.7079C18.0421 48.0945 18.3555 48.4079 18.7421 48.4079H26.585V51.0328C26.585 51.4194 26.8984 51.7328 27.285 51.7328H32.2918C32.6784 51.7328 32.9918 51.4194 32.9918 51.0328V48.4079H40.8336C41.2202 48.4079 41.5336 48.0945 41.5336 47.7079V46.3692C41.5336 45.9826 41.2202 45.6692 40.8336 45.6692L32.9918 45.6692V42.3909C32.9918 42.0043 32.6784 41.6909 32.2918 41.6909H27.285Z"/>
</mask>
<path fill-rule="evenodd" clip-rule="evenodd" d="M27.285 41.6909C26.8984 41.6909 26.585 42.0043 26.585 42.3909V45.6692L18.7421 45.6692C18.3555 45.6692 18.0421 45.9826 18.0421 46.3692L18.0421 47.7079C18.0421 48.0945 18.3555 48.4079 18.7421 48.4079H26.585V51.0328C26.585 51.4194 26.8984 51.7328 27.285 51.7328H32.2918C32.6784 51.7328 32.9918 51.4194 32.9918 51.0328V48.4079H40.8336C41.2202 48.4079 41.5336 48.0945 41.5336 47.7079V46.3692C41.5336 45.9826 41.2202 45.6692 40.8336 45.6692L32.9918 45.6692V42.3909C32.9918 42.0043 32.6784 41.6909 32.2918 41.6909H27.285Z" fill="url(#paint3_linear_693_2634)"/>
<path d="M26.585 45.6692V46.0692H26.985V45.6692H26.585ZM18.7421 45.6692L18.7421 45.2692H18.7421V45.6692ZM18.0421 46.3692H18.4421H18.0421ZM18.0421 47.7079H17.6421H18.0421ZM26.585 48.4079H26.985V48.0079H26.585V48.4079ZM32.9918 48.4079V48.0079H32.5918V48.4079H32.9918ZM40.8336 45.6692V46.0692V45.6692ZM32.9918 45.6692H32.5918V46.0692H32.9918V45.6692ZM26.985 42.3909C26.985 42.2252 27.1193 42.0909 27.285 42.0909V41.2909C26.6775 41.2909 26.185 41.7834 26.185 42.3909H26.985ZM26.985 45.6692V42.3909H26.185V45.6692H26.985ZM18.7421 46.0692H26.585V45.2692L18.7421 45.2692L18.7421 46.0692ZM18.4421 46.3692C18.4421 46.2035 18.5764 46.0692 18.7421 46.0692V45.2692C18.1345 45.2692 17.6421 45.7617 17.6421 46.3692H18.4421ZM18.4421 47.7079L18.4421 46.3692H17.6421L17.6421 47.7079H18.4421ZM18.7421 48.0079C18.5764 48.0079 18.4421 47.8736 18.4421 47.7079H17.6421C17.6421 48.3154 18.1345 48.8079 18.7421 48.8079V48.0079ZM26.585 48.0079H18.7421V48.8079H26.585V48.0079ZM26.985 51.0328V48.4079H26.185V51.0328H26.985ZM27.285 51.3328C27.1193 51.3328 26.985 51.1985 26.985 51.0328H26.185C26.185 51.6404 26.6775 52.1328 27.285 52.1328V51.3328ZM32.2918 51.3328H27.285V52.1328H32.2918V51.3328ZM32.5918 51.0328C32.5918 51.1985 32.4575 51.3328 32.2918 51.3328V52.1328C32.8993 52.1328 33.3918 51.6404 33.3918 51.0328H32.5918ZM32.5918 48.4079V51.0328H33.3918V48.4079H32.5918ZM40.8336 48.0079H32.9918V48.8079H40.8336V48.0079ZM41.1336 47.7079C41.1336 47.8736 40.9993 48.0079 40.8336 48.0079V48.8079C41.4411 48.8079 41.9336 48.3154 41.9336 47.7079H41.1336ZM41.1336 46.3692V47.7079H41.9336V46.3692H41.1336ZM40.8336 46.0692C40.9993 46.0692 41.1336 46.2035 41.1336 46.3692H41.9336C41.9336 45.7617 41.4411 45.2692 40.8336 45.2692V46.0692ZM32.9918 46.0692L40.8336 46.0692V45.2692L32.9918 45.2692V46.0692ZM32.5918 42.3909V45.6692H33.3918V42.3909H32.5918ZM32.2918 42.0909C32.4575 42.0909 32.5918 42.2252 32.5918 42.3909H33.3918C33.3918 41.7834 32.8993 41.2909 32.2918 41.2909V42.0909ZM27.285 42.0909H32.2918V41.2909H27.285V42.0909Z" fill="black" mask="url(#path-8-inside-1_693_2634)"/>
</g>
<path d="M50.2866 13.6828C50.2734 13.6914 50.2612 13.6994 50.25 13.7068L50.2507 69.457L50.2513 107.863L50.2516 120.525L50.2517 124.076L50.2518 125.204L50.2518 125.333C50.3182 128.939 53.4657 132.293 58.6857 134.76C63.8867 137.217 71.0637 138.75 79 138.75C86.927 138.75 94.0962 137.227 99.2953 134.78C104.513 132.324 107.665 128.981 107.746 125.381L107.746 125.227C107.746 125.034 107.746 124.662 107.746 124.123L107.747 120.57L107.747 107.903L107.748 69.4817L107.75 13.7055C107.739 13.698 107.726 13.6897 107.713 13.6809C107.616 13.6174 107.471 13.5246 107.28 13.4067C106.897 13.171 106.331 12.8359 105.601 12.4347C104.14 11.6323 102.026 10.5661 99.4118 9.50126C94.1824 7.37088 86.9655 5.25 79 5.25C71.0346 5.25 63.8176 7.37308 58.5883 9.50458C55.9745 10.57 53.8597 11.6364 52.3993 12.4385C51.6692 12.8395 51.1029 13.1742 50.72 13.4094C50.5285 13.5271 50.3833 13.6196 50.2866 13.6828ZM107.838 13.7662C107.838 13.7665 107.839 13.7666 107.838 13.7666C107.838 13.7666 107.838 13.7665 107.838 13.7663C107.838 13.7662 107.838 13.7662 107.838 13.7662Z" fill="url(#paint4_linear_693_2634)" stroke="#0F172A" stroke-width="0.5"/>
<path d="M50.349 14.6258C50.349 16.1587 51.1211 17.6389 52.5599 19.0061C53.9991 20.3738 56.0924 21.6146 58.6957 22.6609C63.9011 24.7531 71.106 26.0516 79.0745 26.0516C87.043 26.0516 94.2479 24.7531 99.4533 22.6609C102.057 21.6146 104.15 20.3738 105.589 19.0061C107.028 17.6389 107.8 16.1587 107.8 14.6258C107.8 13.093 107.028 11.6127 105.589 10.2455C104.15 8.87786 102.057 7.637 99.4533 6.5907C94.2479 4.49853 87.043 3.2 79.0745 3.2C71.106 3.2 63.9011 4.49853 58.6957 6.5907C56.0924 7.637 53.9991 8.87786 52.5599 10.2455C51.1211 11.6127 50.349 13.093 50.349 14.6258Z" fill="url(#paint5_linear_693_2634)" stroke="#0F172A" stroke-width="0.4"/>
<path d="M55.6527 13.6835C55.6527 14.7117 56.2908 15.7078 57.4838 16.6288C58.6754 17.5487 60.4059 18.3815 62.5533 19.0827C66.8469 20.4847 72.7849 21.3535 79.3482 21.3535C85.9116 21.3535 91.8495 20.4847 96.1432 19.0827C98.2906 18.3815 100.021 17.5487 101.213 16.6288C102.406 15.7078 103.044 14.7117 103.044 13.6835C103.044 12.6554 102.406 11.6593 101.213 10.7383C100.021 9.81836 98.2906 8.98559 96.1432 8.28441C91.8495 6.8824 85.9116 6.01357 79.3482 6.01357C72.7849 6.01357 66.8469 6.8824 62.5533 8.28441C60.4059 8.98559 58.6754 9.81836 57.4838 10.7383C56.2908 11.6593 55.6527 12.6554 55.6527 13.6835Z" fill="#0F172A" stroke="#0F172A" stroke-width="0.2"/>
<path d="M55.6527 14.655C55.6527 15.6831 56.2908 16.6793 57.4838 17.6003C58.6754 18.5202 60.4059 19.3529 62.5533 20.0541C66.8469 21.4561 72.7849 22.325 79.3482 22.325C85.9116 22.325 91.8495 21.4561 96.1432 20.0541C98.2906 19.3529 100.021 18.5202 101.213 17.6003C102.406 16.6793 103.044 15.6831 103.044 14.655C103.044 13.6268 102.406 12.6307 101.213 11.7097C100.021 10.7898 98.2906 9.95703 96.1432 9.25584C91.8495 7.85383 85.9116 6.98501 79.3482 6.98501C72.7849 6.98501 66.8469 7.85383 62.5533 9.25584C60.4059 9.95703 58.6754 10.7898 57.4838 11.7097C56.2908 12.6307 55.6527 13.6268 55.6527 14.655Z" fill="#FFDF77" stroke="#0F172A" stroke-width="0.2"/>
<path d="M50.2 14.6258C50.2 16.1585 50.974 17.6387 52.4165 19.006C53.8596 20.3737 55.9583 21.6146 58.5683 22.6609C63.7872 24.7531 71.0108 26.0516 79 26.0516C86.9892 26.0516 94.2128 24.7531 99.4317 22.6609C102.042 21.6146 104.14 20.3737 105.583 19.006C107.026 17.6387 107.8 16.1585 107.8 14.6258C107.8 13.0932 107.026 11.613 105.583 10.2457C104.14 8.87799 102.042 7.63709 99.4317 6.59076C94.2128 4.49855 86.9892 3.2 79 3.2C71.0108 3.2 63.7872 4.49855 58.5683 6.59076C55.9583 7.63709 53.8596 8.87799 52.4165 10.2457C50.974 11.613 50.2 13.0932 50.2 14.6258Z" fill="url(#paint6_linear_693_2634)" stroke="#0F172A" stroke-width="0.4"/>
<path d="M55.5176 13.6835C55.5176 14.7116 56.1573 15.7077 57.3534 16.6287C58.5481 17.5487 60.2831 18.3815 62.4361 19.0827C66.7408 20.4847 72.6941 21.3535 79.2744 21.3535C85.8547 21.3535 91.808 20.4847 96.1128 19.0827C98.2657 18.3815 100.001 17.5487 101.195 16.6287C102.392 15.7077 103.031 14.7116 103.031 13.6835C103.031 12.6555 102.392 11.6594 101.195 10.7384C100.001 9.81841 98.2657 8.98562 96.1128 8.28443C91.808 6.8824 85.8547 6.01357 79.2744 6.01357C72.6941 6.01357 66.7408 6.8824 62.4361 8.28443C60.2831 8.98562 58.5481 9.81841 57.3534 10.7384C56.1573 11.6594 55.5176 12.6555 55.5176 13.6835Z" fill="#0F172A" stroke="#0F172A" stroke-width="0.2"/>
<path d="M55.5176 14.655C55.5176 15.683 56.1573 16.6791 57.3534 17.6002C58.5481 18.5201 60.2831 19.3529 62.4361 20.0541C66.7408 21.4561 72.6941 22.325 79.2744 22.325C85.8547 22.325 91.808 21.4561 96.1128 20.0541C98.2657 19.3529 100.001 18.5201 101.195 17.6002C102.392 16.6791 103.031 15.683 103.031 14.655C103.031 13.627 102.392 12.6308 101.195 11.7098C100.001 10.7898 98.2657 9.95706 96.1128 9.25587C91.808 7.85384 85.8547 6.98501 79.2744 6.98501C72.6941 6.98501 66.7408 7.85384 62.4361 9.25587C60.2831 9.95706 58.5481 10.7898 57.3534 11.7098C56.1573 12.6308 55.5176 13.627 55.5176 14.655Z" fill="#FFDF77" stroke="#0F172A" stroke-width="0.2"/>
<g filter="url(#filter1_d_693_2634)">
<mask id="path-17-inside-2_693_2634" fill="white">
<path fill-rule="evenodd" clip-rule="evenodd" d="M77.285 8.69092C76.8984 8.69092 76.585 9.00432 76.585 9.39092V12.6692L68.7421 12.6692C68.3555 12.6692 68.0421 12.9826 68.0421 13.3692L68.0421 14.7079C68.0421 15.0945 68.3555 15.4079 68.7421 15.4079H76.585V18.0328C76.585 18.4194 76.8984 18.7328 77.285 18.7328H82.2918C82.6784 18.7328 82.9918 18.4194 82.9918 18.0328V15.4079H90.8336C91.2202 15.4079 91.5336 15.0945 91.5336 14.7079V13.3692C91.5336 12.9826 91.2202 12.6692 90.8336 12.6692L82.9918 12.6692V9.39092C82.9918 9.00432 82.6784 8.69092 82.2918 8.69092H77.285Z"/>
</mask>
<path fill-rule="evenodd" clip-rule="evenodd" d="M77.285 8.69092C76.8984 8.69092 76.585 9.00432 76.585 9.39092V12.6692L68.7421 12.6692C68.3555 12.6692 68.0421 12.9826 68.0421 13.3692L68.0421 14.7079C68.0421 15.0945 68.3555 15.4079 68.7421 15.4079H76.585V18.0328C76.585 18.4194 76.8984 18.7328 77.285 18.7328H82.2918C82.6784 18.7328 82.9918 18.4194 82.9918 18.0328V15.4079H90.8336C91.2202 15.4079 91.5336 15.0945 91.5336 14.7079V13.3692C91.5336 12.9826 91.2202 12.6692 90.8336 12.6692L82.9918 12.6692V9.39092C82.9918 9.00432 82.6784 8.69092 82.2918 8.69092H77.285Z" fill="url(#paint7_linear_693_2634)"/>
<path d="M76.585 12.6692V13.0692H76.985V12.6692H76.585ZM68.7421 12.6692L68.7421 12.2692H68.7421V12.6692ZM68.0421 13.3692H68.4421H68.0421ZM68.0421 14.7079H67.6421H68.0421ZM76.585 15.4079H76.985V15.0079H76.585V15.4079ZM82.9918 15.4079V15.0079H82.5918V15.4079H82.9918ZM90.8336 12.6692V13.0692V12.6692ZM82.9918 12.6692H82.5918V13.0692H82.9918V12.6692ZM76.985 9.39092C76.985 9.22523 77.1193 9.09092 77.285 9.09092V8.29092C76.6775 8.29092 76.185 8.7834 76.185 9.39092H76.985ZM76.985 12.6692V9.39092H76.185V12.6692H76.985ZM68.7421 13.0692H76.585V12.2692L68.7421 12.2692L68.7421 13.0692ZM68.4421 13.3692C68.4421 13.2035 68.5764 13.0692 68.7421 13.0692V12.2692C68.1345 12.2692 67.6421 12.7617 67.6421 13.3692H68.4421ZM68.4421 14.7079L68.4421 13.3692H67.6421L67.6421 14.7079H68.4421ZM68.7421 15.0079C68.5764 15.0079 68.4421 14.8736 68.4421 14.7079H67.6421C67.6421 15.3154 68.1345 15.8079 68.7421 15.8079V15.0079ZM76.585 15.0079H68.7421V15.8079H76.585V15.0079ZM76.985 18.0328V15.4079H76.185V18.0328H76.985ZM77.285 18.3328C77.1193 18.3328 76.985 18.1985 76.985 18.0328H76.185C76.185 18.6404 76.6775 19.1328 77.285 19.1328V18.3328ZM82.2918 18.3328H77.285V19.1328H82.2918V18.3328ZM82.5918 18.0328C82.5918 18.1985 82.4575 18.3328 82.2918 18.3328V19.1328C82.8993 19.1328 83.3918 18.6404 83.3918 18.0328H82.5918ZM82.5918 15.4079V18.0328H83.3918V15.4079H82.5918ZM90.8336 15.0079H82.9918V15.8079H90.8336V15.0079ZM91.1336 14.7079C91.1336 14.8736 90.9993 15.0079 90.8336 15.0079V15.8079C91.4411 15.8079 91.9336 15.3154 91.9336 14.7079H91.1336ZM91.1336 13.3692V14.7079H91.9336V13.3692H91.1336ZM90.8336 13.0692C90.9993 13.0692 91.1336 13.2035 91.1336 13.3692H91.9336C91.9336 12.7617 91.4411 12.2692 90.8336 12.2692V13.0692ZM82.9918 13.0692L90.8336 13.0692V12.2692L82.9918 12.2692V13.0692ZM82.5918 9.39092V12.6692H83.3918V9.39092H82.5918ZM82.2918 9.09092C82.4575 9.09092 82.5918 9.22523 82.5918 9.39092H83.3918C83.3918 8.7834 82.8993 8.29092 82.2918 8.29092V9.09092ZM77.285 9.09092H82.2918V8.29092H77.285V9.09092Z" fill="black" mask="url(#path-17-inside-2_693_2634)"/>
</g>
<path d="M6.2 131.776V131.775C7.07076 130.644 8.45998 129.718 10.274 128.968C12.1145 128.207 14.3771 127.633 16.9435 127.206C22.0765 126.353 28.3969 126.095 34.9255 126.095C41.4541 126.095 47.7744 126.353 52.9074 127.206C55.4738 127.633 57.7365 128.207 59.577 128.968C61.391 129.718 62.7802 130.644 63.651 131.775L63.651 137.521C63.651 139.054 62.8789 140.534 61.4401 141.901C60.0008 143.269 57.9075 144.51 55.3043 145.556C50.0989 147.648 42.894 148.947 34.9255 148.947C26.957 148.947 19.7521 147.648 14.5467 145.556C11.9434 144.51 9.85013 143.269 8.41088 141.901C6.97209 140.534 6.2 139.054 6.2 137.521V137.52V137.519V137.518V137.517V137.516V137.515V137.514V137.512V137.51V137.509V137.507V137.505V137.502V137.5V137.498V137.495V137.493V137.49V137.487V137.484V137.481V137.477V137.474V137.471V137.467V137.463V137.46V137.456V137.452V137.447V137.443V137.439V137.434V137.43V137.425V137.42V137.415V137.41V137.405V137.4V137.394V137.389V137.383V137.377V137.372V137.366V137.36V137.353V137.347V137.341V137.334V137.328V137.321V137.315V137.308V137.301V137.294V137.287V137.279V137.272V137.265V137.257V137.249V137.242V137.234V137.226V137.218V137.21V137.202V137.193V137.185V137.176V137.168V137.159V137.15V137.142V137.133V137.124V137.114V137.105V137.096V137.087V137.077V137.068V137.058V137.048V137.038V137.028V137.019V137.008V136.998V136.988V136.978V136.967V136.957V136.946V136.936V136.925V136.914V136.903V136.892V136.881V136.87V136.859V136.848V136.837V136.825V136.814V136.802V136.791V136.779V136.767V136.755V136.743V136.731V136.719V136.707V136.695V136.683V136.67V136.658V136.646V136.633V136.62V136.608V136.595V136.582V136.569V136.556V136.543V136.53V136.517V136.504V136.491V136.478V136.464V136.451V136.437V136.424V136.41V136.397V136.383V136.369V136.355V136.342V136.328V136.314V136.3V136.286V136.271V136.257V136.243V136.229V136.214V136.2V136.186V136.171V136.156V136.142V136.127V136.113V136.098V136.083V136.068V136.053V136.038V136.023V136.008V135.993V135.978V135.963V135.948V135.933V135.918V135.902V135.887V135.872V135.856V135.841V135.825V135.81V135.794V135.779V135.763V135.747V135.732V135.716V135.7V135.684V135.668V135.652V135.637V135.621V135.605V135.589V135.573V135.557V135.541V135.524V135.508V135.492V135.476V135.46V135.443V135.427V135.411V135.395V135.378V135.362V135.345V135.329V135.313V135.296V135.28V135.263V135.247V135.23V135.214V135.197V135.18V135.164V135.147V135.131V135.114V135.097V135.081V135.064V135.047V135.031V135.014V134.997V134.98V134.964V134.947V134.93V134.913V134.896V134.88V134.863V134.846V134.829V134.812V134.795V134.778V134.762V134.745V134.728V134.711V134.694V134.677V134.66V134.644V134.627V134.61V134.593V134.576V134.559V134.542V134.525V134.508V134.492V134.475V134.458V134.441V134.424V134.407V134.39V134.374V134.357V134.34V134.323V134.306V134.29V134.273V134.256V134.239V134.223V134.206V134.189V134.172V134.156V134.139V134.122V134.106V134.089V134.072V134.056V134.039V134.023V134.006V133.99V133.973V133.956V133.94V133.924V133.907V133.891V133.874V133.858V133.842V133.825V133.809V133.793V133.776V133.76V133.744V133.728V133.712V133.696V133.679V133.663V133.647V133.631V133.615V133.599V133.584V133.568V133.552V133.536V133.52V133.504V133.489V133.473V133.457V133.442V133.426V133.411V133.395V133.38V133.364V133.349V133.334V133.318V133.303V133.288V133.273V133.257V133.242V133.227V133.212V133.197V133.182V133.167V133.153V133.138V133.123V133.108V133.094V133.079V133.064V133.05V133.036V133.021V133.007V132.992V132.978V132.964V132.95V132.936V132.922V132.908V132.894V132.88V132.866V132.852V132.839V132.825V132.811V132.798V132.784V132.771V132.757V132.744V132.731V132.718V132.705V132.691V132.678V132.666V132.653V132.64V132.627V132.614V132.602V132.589V132.577V132.564V132.552V132.54V132.527V132.515V132.503V132.491V132.479V132.467V132.456V132.444V132.432V132.421V132.409V132.398V132.386V132.375V132.364V132.353V132.342V132.331V132.32V132.309V132.298V132.288V132.277V132.267V132.256V132.246V132.236V132.225V132.215V132.205V132.195V132.186V132.176V132.166V132.157V132.147V132.138V132.128V132.119V132.11V132.101V132.092V132.083V132.074V132.066V132.057V132.048V132.04V132.032V132.023V132.015V132.007V131.999V131.991V131.984V131.976V131.968V131.961V131.954V131.946V131.939V131.932V131.925V131.918V131.911V131.905V131.898V131.892V131.885V131.879V131.873V131.867V131.861V131.855V131.849V131.844V131.838V131.833V131.827V131.822V131.817V131.812V131.807V131.802V131.798V131.793V131.789V131.784V131.78V131.776Z" fill="#0497EC" stroke="#0F172A" stroke-width="0.4"/>
<path d="M16.5601 146.34L11.0505 143.912L7.73555 141.192V136.297L8.31406 133.442L11.2066 132.728L29.7189 132.014V148.535L25.2837 148.282L20.4191 147.293L16.5601 146.34Z" fill="#0F172A" stroke="#0F172A" stroke-width="0.4"/>
<path d="M59.223 143.64V133.972L54.5949 133.238V145.812L56.9089 144.863L59.223 143.64Z" fill="#0F172A" stroke="#0F172A" stroke-width="0.4"/>
<path d="M6.2 132.626C6.2 134.159 6.97209 135.639 8.41088 137.006C9.85012 138.374 11.9434 139.615 14.5467 140.661C19.7521 142.753 26.957 144.052 34.9255 144.052C42.894 144.052 50.0989 142.753 55.3043 140.661C57.9076 139.615 60.0009 138.374 61.4401 137.006C62.8789 135.639 63.651 134.159 63.651 132.626C63.651 131.093 62.8789 129.613 61.4401 128.246C60.0009 126.878 57.9076 125.637 55.3043 124.591C50.0989 122.499 42.894 121.2 34.9255 121.2C26.957 121.2 19.7521 122.499 14.5467 124.591C11.9434 125.637 9.85012 126.878 8.41088 128.246C6.97209 129.613 6.2 131.093 6.2 132.626Z" fill="url(#paint8_linear_693_2634)" stroke="#0F172A" stroke-width="0.4"/>
<path d="M11.5037 131.684C11.5037 132.712 12.1418 133.708 13.3347 134.629C14.5263 135.549 16.2569 136.382 18.4043 137.083C22.6979 138.485 28.6358 139.354 35.1992 139.354C41.7626 139.354 47.7005 138.485 51.9942 137.083C54.1415 136.382 55.8721 135.549 57.0637 134.629C58.2566 133.708 58.8948 132.712 58.8948 131.684C58.8948 130.655 58.2566 129.659 57.0637 128.738C55.8721 127.818 54.1415 126.986 51.9942 126.284C47.7005 124.882 41.7626 124.014 35.1992 124.014C28.6358 124.014 22.6979 124.882 18.4043 126.284C16.2569 126.986 14.5263 127.818 13.3347 128.738C12.1418 129.659 11.5037 130.655 11.5037 131.684Z" fill="#0F172A" stroke="#0F172A" stroke-width="0.2"/>
<path d="M11.5037 132.655C11.5037 133.683 12.1418 134.679 13.3347 135.6C14.5263 136.52 16.2569 137.353 18.4043 138.054C22.6979 139.456 28.6358 140.325 35.1992 140.325C41.7626 140.325 47.7005 139.456 51.9942 138.054C54.1415 137.353 55.8721 136.52 57.0637 135.6C58.2566 134.679 58.8948 133.683 58.8948 132.655C58.8948 131.627 58.2566 130.631 57.0637 129.71C55.8721 128.79 54.1415 127.957 51.9942 127.256C47.7005 125.854 41.7626 124.985 35.1992 124.985C28.6358 124.985 22.6979 125.854 18.4043 127.256C16.2569 127.957 14.5263 128.79 13.3347 129.71C12.1418 130.631 11.5037 131.627 11.5037 132.655Z" fill="#FFDF77" stroke="#0F172A" stroke-width="0.2"/>
<g filter="url(#filter2_d_693_2634)">
<mask id="path-25-inside-3_693_2634" fill="white">
<path fill-rule="evenodd" clip-rule="evenodd" d="M32.2167 126.691C31.8301 126.691 31.5167 127.004 31.5167 127.391V130.669L23.6957 130.669C23.3091 130.669 22.9957 130.983 22.9957 131.369L22.9957 132.708C22.9957 133.095 23.3091 133.408 23.6957 133.408H31.5167V136.033C31.5167 136.419 31.8301 136.733 32.2167 136.733H37.207C37.5936 136.733 37.907 136.419 37.907 136.033V133.408H45.7269C46.1135 133.408 46.4269 133.095 46.4269 132.708V131.369C46.4269 130.983 46.1135 130.669 45.7269 130.669L37.907 130.669V127.391C37.907 127.004 37.5936 126.691 37.207 126.691H32.2167Z"/>
</mask>
<path fill-rule="evenodd" clip-rule="evenodd" d="M32.2167 126.691C31.8301 126.691 31.5167 127.004 31.5167 127.391V130.669L23.6957 130.669C23.3091 130.669 22.9957 130.983 22.9957 131.369L22.9957 132.708C22.9957 133.095 23.3091 133.408 23.6957 133.408H31.5167V136.033C31.5167 136.419 31.8301 136.733 32.2167 136.733H37.207C37.5936 136.733 37.907 136.419 37.907 136.033V133.408H45.7269C46.1135 133.408 46.4269 133.095 46.4269 132.708V131.369C46.4269 130.983 46.1135 130.669 45.7269 130.669L37.907 130.669V127.391C37.907 127.004 37.5936 126.691 37.207 126.691H32.2167Z" fill="url(#paint9_linear_693_2634)"/>
<path d="M31.5167 130.669V131.069H31.9167V130.669H31.5167ZM23.6957 130.669L23.6957 130.269H23.6957V130.669ZM22.9957 131.369H23.3957H22.9957ZM22.9957 132.708H23.3957H22.9957ZM31.5167 133.408H31.9167V133.008H31.5167V133.408ZM37.907 133.408V133.008H37.507V133.408H37.907ZM45.7269 130.669V131.069V130.669ZM37.907 130.669H37.507V131.069H37.907V130.669ZM31.9167 127.391C31.9167 127.225 32.051 127.091 32.2167 127.091V126.291C31.6092 126.291 31.1167 126.783 31.1167 127.391H31.9167ZM31.9167 130.669V127.391H31.1167V130.669H31.9167ZM23.6957 131.069H31.5167V130.269L23.6957 130.269L23.6957 131.069ZM23.3957 131.369C23.3957 131.204 23.53 131.069 23.6957 131.069V130.269C23.0882 130.269 22.5957 130.762 22.5957 131.369H23.3957ZM23.3957 132.708L23.3957 131.369H22.5957L22.5957 132.708H23.3957ZM23.6957 133.008C23.53 133.008 23.3957 132.874 23.3957 132.708H22.5957C22.5957 133.315 23.0882 133.808 23.6957 133.808V133.008ZM31.5167 133.008H23.6957V133.808H31.5167V133.008ZM31.9167 136.033V133.408H31.1167V136.033H31.9167ZM32.2167 136.333C32.051 136.333 31.9167 136.199 31.9167 136.033H31.1167C31.1167 136.64 31.6092 137.133 32.2167 137.133V136.333ZM37.207 136.333H32.2167V137.133H37.207V136.333ZM37.507 136.033C37.507 136.199 37.3727 136.333 37.207 136.333V137.133C37.8145 137.133 38.307 136.64 38.307 136.033H37.507ZM37.507 133.408V136.033H38.307V133.408H37.507ZM45.7269 133.008H37.907V133.808H45.7269V133.008ZM46.0269 132.708C46.0269 132.874 45.8926 133.008 45.7269 133.008V133.808C46.3344 133.808 46.8269 133.315 46.8269 132.708H46.0269ZM46.0269 131.369V132.708H46.8269V131.369H46.0269ZM45.7269 131.069C45.8926 131.069 46.0269 131.204 46.0269 131.369H46.8269C46.8269 130.762 46.3344 130.269 45.7269 130.269V131.069ZM37.907 131.069L45.7269 131.069V130.269L37.907 130.269V131.069ZM37.507 127.391V130.669H38.307V127.391H37.507ZM37.207 127.091C37.3727 127.091 37.507 127.225 37.507 127.391H38.307C38.307 126.783 37.8145 126.291 37.207 126.291V127.091ZM32.2167 127.091H37.207V126.291H32.2167V127.091Z" fill="black" mask="url(#path-25-inside-3_693_2634)"/>
</g>
<path d="M6.2 126.776V126.775C7.07076 125.644 8.45998 124.718 10.274 123.968C12.1145 123.207 14.3771 122.633 16.9435 122.206C22.0765 121.353 28.3969 121.095 34.9255 121.095C41.4541 121.095 47.7744 121.353 52.9074 122.206C55.4738 122.633 57.7365 123.207 59.577 123.968C61.391 124.718 62.7802 125.644 63.651 126.775L63.651 132.521C63.651 134.054 62.8789 135.534 61.4401 136.901C60.0008 138.269 57.9075 139.51 55.3043 140.556C50.0989 142.648 42.894 143.947 34.9255 143.947C26.957 143.947 19.7521 142.648 14.5467 140.556C11.9434 139.51 9.85013 138.269 8.41088 136.901C6.97209 135.534 6.2 134.054 6.2 132.521V132.52V132.519V132.518V132.517V132.516V132.515V132.514V132.512V132.51V132.509V132.507V132.505V132.502V132.5V132.498V132.495V132.493V132.49V132.487V132.484V132.481V132.477V132.474V132.471V132.467V132.463V132.46V132.456V132.452V132.447V132.443V132.439V132.434V132.43V132.425V132.42V132.415V132.41V132.405V132.4V132.394V132.389V132.383V132.377V132.372V132.366V132.36V132.353V132.347V132.341V132.334V132.328V132.321V132.315V132.308V132.301V132.294V132.287V132.279V132.272V132.265V132.257V132.249V132.242V132.234V132.226V132.218V132.21V132.202V132.193V132.185V132.176V132.168V132.159V132.15V132.142V132.133V132.124V132.114V132.105V132.096V132.087V132.077V132.068V132.058V132.048V132.038V132.028V132.019V132.008V131.998V131.988V131.978V131.967V131.957V131.946V131.936V131.925V131.914V131.903V131.892V131.881V131.87V131.859V131.848V131.837V131.825V131.814V131.802V131.791V131.779V131.767V131.755V131.743V131.731V131.719V131.707V131.695V131.683V131.67V131.658V131.646V131.633V131.62V131.608V131.595V131.582V131.569V131.556V131.543V131.53V131.517V131.504V131.491V131.478V131.464V131.451V131.437V131.424V131.41V131.397V131.383V131.369V131.355V131.342V131.328V131.314V131.3V131.286V131.271V131.257V131.243V131.229V131.214V131.2V131.186V131.171V131.156V131.142V131.127V131.113V131.098V131.083V131.068V131.053V131.038V131.023V131.008V130.993V130.978V130.963V130.948V130.933V130.918V130.902V130.887V130.872V130.856V130.841V130.825V130.81V130.794V130.779V130.763V130.747V130.732V130.716V130.7V130.684V130.668V130.652V130.637V130.621V130.605V130.589V130.573V130.557V130.541V130.524V130.508V130.492V130.476V130.46V130.443V130.427V130.411V130.395V130.378V130.362V130.345V130.329V130.313V130.296V130.28V130.263V130.247V130.23V130.214V130.197V130.18V130.164V130.147V130.131V130.114V130.097V130.081V130.064V130.047V130.031V130.014V129.997V129.98V129.964V129.947V129.93V129.913V129.896V129.88V129.863V129.846V129.829V129.812V129.795V129.778V129.762V129.745V129.728V129.711V129.694V129.677V129.66V129.644V129.627V129.61V129.593V129.576V129.559V129.542V129.525V129.508V129.492V129.475V129.458V129.441V129.424V129.407V129.39V129.374V129.357V129.34V129.323V129.306V129.29V129.273V129.256V129.239V129.223V129.206V129.189V129.172V129.156V129.139V129.122V129.106V129.089V129.072V129.056V129.039V129.023V129.006V128.99V128.973V128.956V128.94V128.924V128.907V128.891V128.874V128.858V128.842V128.825V128.809V128.793V128.776V128.76V128.744V128.728V128.712V128.696V128.679V128.663V128.647V128.631V128.615V128.599V128.584V128.568V128.552V128.536V128.52V128.504V128.489V128.473V128.457V128.442V128.426V128.411V128.395V128.38V128.364V128.349V128.334V128.318V128.303V128.288V128.273V128.257V128.242V128.227V128.212V128.197V128.182V128.167V128.153V128.138V128.123V128.108V128.094V128.079V128.064V128.05V128.036V128.021V128.007V127.992V127.978V127.964V127.95V127.936V127.922V127.908V127.894V127.88V127.866V127.852V127.839V127.825V127.811V127.798V127.784V127.771V127.757V127.744V127.731V127.718V127.705V127.691V127.678V127.666V127.653V127.64V127.627V127.614V127.602V127.589V127.577V127.564V127.552V127.54V127.527V127.515V127.503V127.491V127.479V127.467V127.456V127.444V127.432V127.421V127.409V127.398V127.386V127.375V127.364V127.353V127.342V127.331V127.32V127.309V127.298V127.288V127.277V127.267V127.256V127.246V127.236V127.225V127.215V127.205V127.195V127.186V127.176V127.166V127.157V127.147V127.138V127.128V127.119V127.11V127.101V127.092V127.083V127.074V127.066V127.057V127.048V127.04V127.032V127.023V127.015V127.007V126.999V126.991V126.984V126.976V126.968V126.961V126.954V126.946V126.939V126.932V126.925V126.918V126.911V126.905V126.898V126.892V126.885V126.879V126.873V126.867V126.861V126.855V126.849V126.844V126.838V126.833V126.827V126.822V126.817V126.812V126.807V126.802V126.798V126.793V126.789V126.784V126.78V126.776Z" fill="#0497EC" stroke="#0F172A" stroke-width="0.4"/>
<path d="M16.5601 141.34L11.0505 138.912L7.73555 136.192V131.297L8.31406 128.442L11.2066 127.728L29.7189 127.014V143.535L25.2837 143.282L20.4191 142.293L16.5601 141.34Z" fill="#0F172A" stroke="#0F172A" stroke-width="0.4"/>
<path d="M59.223 138.64V128.972L54.5949 128.238V140.812L56.9089 139.863L59.223 138.64Z" fill="#0F172A" stroke="#0F172A" stroke-width="0.4"/>
<path d="M6.2 127.626C6.2 129.159 6.97209 130.639 8.41088 132.006C9.85012 133.374 11.9434 134.615 14.5467 135.661C19.7521 137.753 26.957 139.052 34.9255 139.052C42.894 139.052 50.0989 137.753 55.3043 135.661C57.9076 134.615 60.0009 133.374 61.4401 132.006C62.8789 130.639 63.651 129.159 63.651 127.626C63.651 126.093 62.8789 124.613 61.4401 123.246C60.0009 121.878 57.9076 120.637 55.3043 119.591C50.0989 117.499 42.894 116.2 34.9255 116.2C26.957 116.2 19.7521 117.499 14.5467 119.591C11.9434 120.637 9.85012 121.878 8.41088 123.246C6.97209 124.613 6.2 126.093 6.2 127.626Z" fill="url(#paint10_linear_693_2634)" stroke="#0F172A" stroke-width="0.4"/>
<path d="M11.5037 126.684C11.5037 127.712 12.1418 128.708 13.3347 129.629C14.5263 130.549 16.2569 131.382 18.4043 132.083C22.6979 133.485 28.6358 134.354 35.1992 134.354C41.7626 134.354 47.7005 133.485 51.9942 132.083C54.1415 131.382 55.8721 130.549 57.0637 129.629C58.2566 128.708 58.8948 127.712 58.8948 126.684C58.8948 125.655 58.2566 124.659 57.0637 123.738C55.8721 122.818 54.1415 121.986 51.9942 121.284C47.7005 119.882 41.7626 119.014 35.1992 119.014C28.6358 119.014 22.6979 119.882 18.4043 121.284C16.2569 121.986 14.5263 122.818 13.3347 123.738C12.1418 124.659 11.5037 125.655 11.5037 126.684Z" fill="#0F172A" stroke="#0F172A" stroke-width="0.2"/>
<path d="M11.5037 127.655C11.5037 128.683 12.1418 129.679 13.3347 130.6C14.5263 131.52 16.2569 132.353 18.4043 133.054C22.6979 134.456 28.6358 135.325 35.1992 135.325C41.7626 135.325 47.7005 134.456 51.9942 133.054C54.1415 132.353 55.8721 131.52 57.0637 130.6C58.2566 129.679 58.8948 128.683 58.8948 127.655C58.8948 126.627 58.2566 125.631 57.0637 124.71C55.8721 123.79 54.1415 122.957 51.9942 122.256C47.7005 120.854 41.7626 119.985 35.1992 119.985C28.6358 119.985 22.6979 120.854 18.4043 122.256C16.2569 122.957 14.5263 123.79 13.3347 124.71C12.1418 125.631 11.5037 126.627 11.5037 127.655Z" fill="#FFDF77" stroke="#0F172A" stroke-width="0.2"/>
<g filter="url(#filter3_d_693_2634)">
<mask id="path-33-inside-4_693_2634" fill="white">
<path fill-rule="evenodd" clip-rule="evenodd" d="M32.2167 121.691C31.8301 121.691 31.5167 122.004 31.5167 122.391V125.669L23.6957 125.669C23.3091 125.669 22.9957 125.983 22.9957 126.369L22.9957 127.708C22.9957 128.095 23.3091 128.408 23.6957 128.408H31.5167V131.033C31.5167 131.419 31.8301 131.733 32.2167 131.733H37.207C37.5936 131.733 37.907 131.419 37.907 131.033V128.408H45.7269C46.1135 128.408 46.4269 128.095 46.4269 127.708V126.369C46.4269 125.983 46.1135 125.669 45.7269 125.669L37.907 125.669V122.391C37.907 122.004 37.5936 121.691 37.207 121.691H32.2167Z"/>
</mask>
<path fill-rule="evenodd" clip-rule="evenodd" d="M32.2167 121.691C31.8301 121.691 31.5167 122.004 31.5167 122.391V125.669L23.6957 125.669C23.3091 125.669 22.9957 125.983 22.9957 126.369L22.9957 127.708C22.9957 128.095 23.3091 128.408 23.6957 128.408H31.5167V131.033C31.5167 131.419 31.8301 131.733 32.2167 131.733H37.207C37.5936 131.733 37.907 131.419 37.907 131.033V128.408H45.7269C46.1135 128.408 46.4269 128.095 46.4269 127.708V126.369C46.4269 125.983 46.1135 125.669 45.7269 125.669L37.907 125.669V122.391C37.907 122.004 37.5936 121.691 37.207 121.691H32.2167Z" fill="url(#paint11_linear_693_2634)"/>
<path d="M31.5167 125.669V126.069H31.9167V125.669H31.5167ZM23.6957 125.669L23.6957 125.269H23.6957V125.669ZM22.9957 126.369H23.3957H22.9957ZM22.9957 127.708H23.3957H22.9957ZM31.5167 128.408H31.9167V128.008H31.5167V128.408ZM37.907 128.408V128.008H37.507V128.408H37.907ZM45.7269 125.669V126.069V125.669ZM37.907 125.669H37.507V126.069H37.907V125.669ZM31.9167 122.391C31.9167 122.225 32.051 122.091 32.2167 122.091V121.291C31.6092 121.291 31.1167 121.783 31.1167 122.391H31.9167ZM31.9167 125.669V122.391H31.1167V125.669H31.9167ZM23.6957 126.069H31.5167V125.269L23.6957 125.269L23.6957 126.069ZM23.3957 126.369C23.3957 126.204 23.53 126.069 23.6957 126.069V125.269C23.0882 125.269 22.5957 125.762 22.5957 126.369H23.3957ZM23.3957 127.708L23.3957 126.369H22.5957L22.5957 127.708H23.3957ZM23.6957 128.008C23.53 128.008 23.3957 127.874 23.3957 127.708H22.5957C22.5957 128.315 23.0882 128.808 23.6957 128.808V128.008ZM31.5167 128.008H23.6957V128.808H31.5167V128.008ZM31.9167 131.033V128.408H31.1167V131.033H31.9167ZM32.2167 131.333C32.051 131.333 31.9167 131.199 31.9167 131.033H31.1167C31.1167 131.64 31.6092 132.133 32.2167 132.133V131.333ZM37.207 131.333H32.2167V132.133H37.207V131.333ZM37.507 131.033C37.507 131.199 37.3727 131.333 37.207 131.333V132.133C37.8145 132.133 38.307 131.64 38.307 131.033H37.507ZM37.507 128.408V131.033H38.307V128.408H37.507ZM45.7269 128.008H37.907V128.808H45.7269V128.008ZM46.0269 127.708C46.0269 127.874 45.8926 128.008 45.7269 128.008V128.808C46.3344 128.808 46.8269 128.315 46.8269 127.708H46.0269ZM46.0269 126.369V127.708H46.8269V126.369H46.0269ZM45.7269 126.069C45.8926 126.069 46.0269 126.204 46.0269 126.369H46.8269C46.8269 125.762 46.3344 125.269 45.7269 125.269V126.069ZM37.907 126.069L45.7269 126.069V125.269L37.907 125.269V126.069ZM37.507 122.391V125.669H38.307V122.391H37.507ZM37.207 122.091C37.3727 122.091 37.507 122.225 37.507 122.391H38.307C38.307 121.783 37.8145 121.291 37.207 121.291V122.091ZM32.2167 122.091H37.207V121.291H32.2167V122.091Z" fill="black" mask="url(#path-33-inside-4_693_2634)"/>
</g>
<path d="M248.2 135.776V135.775C249.071 134.644 250.46 133.718 252.274 132.968C254.114 132.207 256.377 131.633 258.944 131.206C264.077 130.353 270.397 130.095 276.925 130.095C283.454 130.095 289.774 130.353 294.907 131.206C297.474 131.633 299.736 132.207 301.577 132.968C303.391 133.718 304.78 134.644 305.651 135.775L305.651 141.521C305.651 143.054 304.879 144.534 303.44 145.901C302.001 147.269 299.908 148.51 297.304 149.556C292.099 151.648 284.894 152.947 276.925 152.947C268.957 152.947 261.752 151.648 256.547 149.556C253.943 148.51 251.85 147.269 250.411 145.901C248.972 144.534 248.2 143.054 248.2 141.521V141.52V141.519V141.518V141.517V141.516V141.515V141.514V141.512V141.51V141.509V141.507V141.505V141.502V141.5V141.498V141.495V141.493V141.49V141.487V141.484V141.481V141.477V141.474V141.471V141.467V141.463V141.46V141.456V141.452V141.447V141.443V141.439V141.434V141.43V141.425V141.42V141.415V141.41V141.405V141.4V141.394V141.389V141.383V141.377V141.372V141.366V141.36V141.353V141.347V141.341V141.334V141.328V141.321V141.315V141.308V141.301V141.294V141.287V141.279V141.272V141.265V141.257V141.249V141.242V141.234V141.226V141.218V141.21V141.202V141.193V141.185V141.176V141.168V141.159V141.15V141.142V141.133V141.124V141.114V141.105V141.096V141.087V141.077V141.068V141.058V141.048V141.038V141.028V141.019V141.008V140.998V140.988V140.978V140.967V140.957V140.946V140.936V140.925V140.914V140.903V140.892V140.881V140.87V140.859V140.848V140.837V140.825V140.814V140.802V140.791V140.779V140.767V140.755V140.743V140.731V140.719V140.707V140.695V140.683V140.67V140.658V140.646V140.633V140.62V140.608V140.595V140.582V140.569V140.556V140.543V140.53V140.517V140.504V140.491V140.478V140.464V140.451V140.437V140.424V140.41V140.397V140.383V140.369V140.355V140.342V140.328V140.314V140.3V140.286V140.271V140.257V140.243V140.229V140.214V140.2V140.186V140.171V140.156V140.142V140.127V140.113V140.098V140.083V140.068V140.053V140.038V140.023V140.008V139.993V139.978V139.963V139.948V139.933V139.918V139.902V139.887V139.872V139.856V139.841V139.825V139.81V139.794V139.779V139.763V139.747V139.732V139.716V139.7V139.684V139.668V139.652V139.637V139.621V139.605V139.589V139.573V139.557V139.541V139.524V139.508V139.492V139.476V139.46V139.443V139.427V139.411V139.395V139.378V139.362V139.345V139.329V139.313V139.296V139.28V139.263V139.247V139.23V139.214V139.197V139.18V139.164V139.147V139.131V139.114V139.097V139.081V139.064V139.047V139.031V139.014V138.997V138.98V138.964V138.947V138.93V138.913V138.896V138.88V138.863V138.846V138.829V138.812V138.795V138.778V138.762V138.745V138.728V138.711V138.694V138.677V138.66V138.644V138.627V138.61V138.593V138.576V138.559V138.542V138.525V138.508V138.492V138.475V138.458V138.441V138.424V138.407V138.39V138.374V138.357V138.34V138.323V138.306V138.29V138.273V138.256V138.239V138.223V138.206V138.189V138.172V138.156V138.139V138.122V138.106V138.089V138.072V138.056V138.039V138.023V138.006V137.99V137.973V137.956V137.94V137.924V137.907V137.891V137.874V137.858V137.842V137.825V137.809V137.793V137.776V137.76V137.744V137.728V137.712V137.696V137.679V137.663V137.647V137.631V137.615V137.599V137.584V137.568V137.552V137.536V137.52V137.504V137.489V137.473V137.457V137.442V137.426V137.411V137.395V137.38V137.364V137.349V137.334V137.318V137.303V137.288V137.273V137.257V137.242V137.227V137.212V137.197V137.182V137.167V137.153V137.138V137.123V137.108V137.094V137.079V137.064V137.05V137.036V137.021V137.007V136.992V136.978V136.964V136.95V136.936V136.922V136.908V136.894V136.88V136.866V136.852V136.839V136.825V136.811V136.798V136.784V136.771V136.757V136.744V136.731V136.718V136.705V136.691V136.678V136.666V136.653V136.64V136.627V136.614V136.602V136.589V136.577V136.564V136.552V136.54V136.527V136.515V136.503V136.491V136.479V136.467V136.456V136.444V136.432V136.421V136.409V136.398V136.386V136.375V136.364V136.353V136.342V136.331V136.32V136.309V136.298V136.288V136.277V136.267V136.256V136.246V136.236V136.225V136.215V136.205V136.195V136.186V136.176V136.166V136.157V136.147V136.138V136.128V136.119V136.11V136.101V136.092V136.083V136.074V136.066V136.057V136.048V136.04V136.032V136.023V136.015V136.007V135.999V135.991V135.984V135.976V135.968V135.961V135.954V135.946V135.939V135.932V135.925V135.918V135.911V135.905V135.898V135.892V135.885V135.879V135.873V135.867V135.861V135.855V135.849V135.844V135.838V135.833V135.827V135.822V135.817V135.812V135.807V135.802V135.798V135.793V135.789V135.784V135.78V135.776Z" fill="#0497EC" stroke="#0F172A" stroke-width="0.4"/>
<path d="M258.56 150.34L253.051 147.912L249.736 145.192V140.297L250.314 137.442L253.207 136.728L271.719 136.014V152.535L267.284 152.282L262.419 151.293L258.56 150.34Z" fill="#0F172A" stroke="#0F172A" stroke-width="0.4"/>
<path d="M301.223 147.64V137.972L296.595 137.238V149.812L298.909 148.863L301.223 147.64Z" fill="#0F172A" stroke="#0F172A" stroke-width="0.4"/>
<path d="M248.2 136.626C248.2 138.159 248.972 139.639 250.411 141.006C251.85 142.374 253.943 143.615 256.547 144.661C261.752 146.753 268.957 148.052 276.925 148.052C284.894 148.052 292.099 146.753 297.304 144.661C299.908 143.615 302.001 142.374 303.44 141.006C304.879 139.639 305.651 138.159 305.651 136.626C305.651 135.093 304.879 133.613 303.44 132.246C302.001 130.878 299.908 129.637 297.304 128.591C292.099 126.499 284.894 125.2 276.925 125.2C268.957 125.2 261.752 126.499 256.547 128.591C253.943 129.637 251.85 130.878 250.411 132.246C248.972 133.613 248.2 135.093 248.2 136.626Z" fill="url(#paint12_linear_693_2634)" stroke="#0F172A" stroke-width="0.4"/>
<path d="M253.504 135.684C253.504 136.712 254.142 137.708 255.335 138.629C256.526 139.549 258.257 140.382 260.404 141.083C264.698 142.485 270.636 143.354 277.199 143.354C283.763 143.354 289.701 142.485 293.994 141.083C296.142 140.382 297.872 139.549 299.064 138.629C300.257 137.708 300.895 136.712 300.895 135.684C300.895 134.655 300.257 133.659 299.064 132.738C297.872 131.818 296.142 130.986 293.994 130.284C289.701 128.882 283.763 128.014 277.199 128.014C270.636 128.014 264.698 128.882 260.404 130.284C258.257 130.986 256.526 131.818 255.335 132.738C254.142 133.659 253.504 134.655 253.504 135.684Z" fill="#0F172A" stroke="#0F172A" stroke-width="0.2"/>
<path d="M253.504 136.655C253.504 137.683 254.142 138.679 255.335 139.6C256.526 140.52 258.257 141.353 260.404 142.054C264.698 143.456 270.636 144.325 277.199 144.325C283.763 144.325 289.701 143.456 293.994 142.054C296.142 141.353 297.872 140.52 299.064 139.6C300.257 138.679 300.895 137.683 300.895 136.655C300.895 135.627 300.257 134.631 299.064 133.71C297.872 132.79 296.142 131.957 293.994 131.256C289.701 129.854 283.763 128.985 277.199 128.985C270.636 128.985 264.698 129.854 260.404 131.256C258.257 131.957 256.526 132.79 255.335 133.71C254.142 134.631 253.504 135.627 253.504 136.655Z" fill="#FFDF77" stroke="#0F172A" stroke-width="0.2"/>
<g filter="url(#filter4_d_693_2634)">
<mask id="path-41-inside-5_693_2634" fill="white">
<path fill-rule="evenodd" clip-rule="evenodd" d="M274.217 130.691C273.83 130.691 273.517 131.004 273.517 131.391V134.669L265.696 134.669C265.309 134.669 264.996 134.983 264.996 135.369L264.996 136.708C264.996 137.095 265.309 137.408 265.696 137.408H273.517V140.033C273.517 140.419 273.83 140.733 274.217 140.733H279.207C279.594 140.733 279.907 140.419 279.907 140.033V137.408H287.727C288.113 137.408 288.427 137.095 288.427 136.708V135.369C288.427 134.983 288.113 134.669 287.727 134.669L279.907 134.669V131.391C279.907 131.004 279.594 130.691 279.207 130.691H274.217Z"/>
</mask>
<path fill-rule="evenodd" clip-rule="evenodd" d="M274.217 130.691C273.83 130.691 273.517 131.004 273.517 131.391V134.669L265.696 134.669C265.309 134.669 264.996 134.983 264.996 135.369L264.996 136.708C264.996 137.095 265.309 137.408 265.696 137.408H273.517V140.033C273.517 140.419 273.83 140.733 274.217 140.733H279.207C279.594 140.733 279.907 140.419 279.907 140.033V137.408H287.727C288.113 137.408 288.427 137.095 288.427 136.708V135.369C288.427 134.983 288.113 134.669 287.727 134.669L279.907 134.669V131.391C279.907 131.004 279.594 130.691 279.207 130.691H274.217Z" fill="url(#paint13_linear_693_2634)"/>
<path d="M273.517 134.669V135.069H273.917V134.669H273.517ZM265.696 134.669L265.696 134.269H265.696V134.669ZM264.996 135.369H265.396H264.996ZM264.996 136.708H265.396H264.996ZM273.517 137.408H273.917V137.008H273.517V137.408ZM279.907 137.408V137.008H279.507V137.408H279.907ZM287.727 134.669V135.069V134.669ZM279.907 134.669H279.507V135.069H279.907V134.669ZM273.917 131.391C273.917 131.225 274.051 131.091 274.217 131.091V130.291C273.609 130.291 273.117 130.783 273.117 131.391H273.917ZM273.917 134.669V131.391H273.117V134.669H273.917ZM265.696 135.069H273.517V134.269L265.696 134.269L265.696 135.069ZM265.396 135.369C265.396 135.204 265.53 135.069 265.696 135.069V134.269C265.088 134.269 264.596 134.762 264.596 135.369H265.396ZM265.396 136.708L265.396 135.369H264.596L264.596 136.708H265.396ZM265.696 137.008C265.53 137.008 265.396 136.874 265.396 136.708H264.596C264.596 137.315 265.088 137.808 265.696 137.808V137.008ZM273.517 137.008H265.696V137.808H273.517V137.008ZM273.917 140.033V137.408H273.117V140.033H273.917ZM274.217 140.333C274.051 140.333 273.917 140.199 273.917 140.033H273.117C273.117 140.64 273.609 141.133 274.217 141.133V140.333ZM279.207 140.333H274.217V141.133H279.207V140.333ZM279.507 140.033C279.507 140.199 279.373 140.333 279.207 140.333V141.133C279.815 141.133 280.307 140.64 280.307 140.033H279.507ZM279.507 137.408V140.033H280.307V137.408H279.507ZM287.727 137.008H279.907V137.808H287.727V137.008ZM288.027 136.708C288.027 136.874 287.893 137.008 287.727 137.008V137.808C288.334 137.808 288.827 137.315 288.827 136.708H288.027ZM288.027 135.369V136.708H288.827V135.369H288.027ZM287.727 135.069C287.893 135.069 288.027 135.204 288.027 135.369H288.827C288.827 134.762 288.334 134.269 287.727 134.269V135.069ZM279.907 135.069L287.727 135.069V134.269L279.907 134.269V135.069ZM279.507 131.391V134.669H280.307V131.391H279.507ZM279.207 131.091C279.373 131.091 279.507 131.225 279.507 131.391H280.307C280.307 130.783 279.815 130.291 279.207 130.291V131.091ZM274.217 131.091H279.207V130.291H274.217V131.091Z" fill="black" mask="url(#path-41-inside-5_693_2634)"/>
</g>
<g filter="url(#filter5_d_693_2634)">
<mask id="path-43-inside-6_693_2634" fill="white">
<path d="M122.06 57.7171C124.519 56.4595 125.523 53.417 123.914 51.1726C121.602 47.9467 118.81 45.3001 115.839 43.566C111.642 41.1161 107.43 40.6881 104.13 42.3763C100.83 44.0644 98.7121 47.7304 98.2425 52.5677C97.9101 55.9917 98.4227 59.804 99.6854 63.5668C100.564 66.1848 103.619 67.1508 106.077 65.8932L106.799 65.5238C108.953 64.4221 109.549 61.7112 109.783 59.3034C109.91 57.9934 110.483 57.0006 111.377 56.5434C112.271 56.0862 113.412 56.2021 114.548 56.8656C116.638 58.085 119.184 59.1882 121.338 58.0865L122.06 57.7171Z"/>
</mask>
<path d="M122.06 57.7171C124.519 56.4595 125.523 53.417 123.914 51.1726C121.602 47.9467 118.81 45.3001 115.839 43.566C111.642 41.1161 107.43 40.6881 104.13 42.3763C100.83 44.0644 98.7121 47.7304 98.2425 52.5677C97.9101 55.9917 98.4227 59.804 99.6854 63.5668C100.564 66.1848 103.619 67.1508 106.077 65.8932L106.799 65.5238C108.953 64.4221 109.549 61.7112 109.783 59.3034C109.91 57.9934 110.483 57.0006 111.377 56.5434C112.271 56.0862 113.412 56.2021 114.548 56.8656C116.638 58.085 119.184 59.1882 121.338 58.0865L122.06 57.7171Z" fill="#A9D355"/>
<path d="M122.06 57.7171C124.519 56.4595 125.523 53.417 123.914 51.1726C121.602 47.9467 118.81 45.3001 115.839 43.566C111.642 41.1161 107.43 40.6881 104.13 42.3763C100.83 44.0644 98.7121 47.7304 98.2425 52.5677C97.9101 55.9917 98.4227 59.804 99.6854 63.5668C100.564 66.1848 103.619 67.1508 106.077 65.8932L106.799 65.5238C108.953 64.4221 109.549 61.7112 109.783 59.3034C109.91 57.9934 110.483 57.0006 111.377 56.5434C112.271 56.0862 113.412 56.2021 114.548 56.8656C116.638 58.085 119.184 59.1882 121.338 58.0865L122.06 57.7171Z" stroke="#0F172A" stroke-width="2" mask="url(#path-43-inside-6_693_2634)"/>
</g>
<g filter="url(#filter6_d_693_2634)">
<mask id="path-44-inside-7_693_2634" fill="white">
<path d="M122.888 57.2939C124.889 56.27 125.702 53.7991 124.445 51.9355C122.035 48.3638 119.042 45.435 115.839 43.566C111.642 41.1161 107.43 40.6881 104.13 42.3763C100.83 44.0644 98.7121 47.7304 98.2425 52.5677C97.8842 56.2579 98.5075 60.3992 99.9935 64.4435C100.769 66.5538 103.248 67.3403 105.25 66.3164C107.251 65.2925 107.955 62.8361 107.578 60.6198C107.421 59.6979 107.379 58.7948 107.462 57.9487C107.658 55.9291 108.542 54.3987 109.919 53.6939C111.297 52.9891 113.056 53.1678 114.808 54.1906C115.542 54.6191 116.25 55.1812 116.906 55.8479C118.483 57.4507 120.886 58.3177 122.888 57.2939Z"/>
</mask>
<path d="M122.888 57.2939C124.889 56.27 125.702 53.7991 124.445 51.9355C122.035 48.3638 119.042 45.435 115.839 43.566C111.642 41.1161 107.43 40.6881 104.13 42.3763C100.83 44.0644 98.7121 47.7304 98.2425 52.5677C97.8842 56.2579 98.5075 60.3992 99.9935 64.4435C100.769 66.5538 103.248 67.3403 105.25 66.3164C107.251 65.2925 107.955 62.8361 107.578 60.6198C107.421 59.6979 107.379 58.7948 107.462 57.9487C107.658 55.9291 108.542 54.3987 109.919 53.6939C111.297 52.9891 113.056 53.1678 114.808 54.1906C115.542 54.6191 116.25 55.1812 116.906 55.8479C118.483 57.4507 120.886 58.3177 122.888 57.2939Z" fill="#A9D355"/>
<path d="M122.888 57.2939C124.889 56.27 125.702 53.7991 124.445 51.9355C122.035 48.3638 119.042 45.435 115.839 43.566C111.642 41.1161 107.43 40.6881 104.13 42.3763C100.83 44.0644 98.7121 47.7304 98.2425 52.5677C97.8842 56.2579 98.5075 60.3992 99.9935 64.4435C100.769 66.5538 103.248 67.3403 105.25 66.3164C107.251 65.2925 107.955 62.8361 107.578 60.6198C107.421 59.6979 107.379 58.7948 107.462 57.9487C107.658 55.9291 108.542 54.3987 109.919 53.6939C111.297 52.9891 113.056 53.1678 114.808 54.1906C115.542 54.6191 116.25 55.1812 116.906 55.8479C118.483 57.4507 120.886 58.3177 122.888 57.2939Z" stroke="#0F172A" mask="url(#path-44-inside-7_693_2634)"/>
</g>
<rect x="0.249371" y="0.250517" width="44.457" height="21.4172" rx="10.7086" transform="matrix(-0.00251224 0.999997 0.999998 0.00206921 121.694 107.249)" fill="#0F172A" stroke="#0F172A" stroke-width="0.5"/>
<rect x="0.249371" y="0.250517" width="44.457" height="21.4172" rx="10.7086" transform="matrix(-0.00251224 0.999997 0.999998 0.00206921 148.419 111.837)" fill="url(#paint14_linear_693_2634)" stroke="#0F172A" stroke-width="0.5"/>
<rect x="0.249371" y="0.250517" width="44.457" height="21.4172" rx="10.7086" transform="matrix(-0.00251224 0.999997 0.999998 0.00206921 176.729 103.66)" fill="#0F172A" stroke="#0F172A" stroke-width="0.5"/>
<rect x="0.249371" y="0.250517" width="44.457" height="21.4172" rx="10.7086" transform="matrix(-0.00251224 0.999997 0.999998 0.00206921 203.454 107.351)" fill="url(#paint15_linear_693_2634)" stroke="#0F172A" stroke-width="0.5"/>
<g filter="url(#filter7_d_693_2634)">
<rect x="94.5427" y="37.8326" width="152.352" height="105.468" rx="52.7339" transform="rotate(-1.87838 94.5427 37.8326)" fill="#A9D355"/>
<rect x="94.8007" y="38.0743" width="151.852" height="104.968" rx="52.4839" transform="rotate(-1.87838 94.8007 38.0743)" stroke="#0F172A" stroke-width="0.5"/>
</g>
<path d="M217.524 130.389C207.939 137.099 196.013 138.932 190.543 139.839L193.543 139.839L196.043 139.87L200.543 139.339L206.543 138.839L211.043 137.339L214.543 136.339L219.043 134.339L223.043 132.339L226.543 129.839L229.543 127.339L233.043 123.839L236.543 119.839L238.043 118.339L241.043 113.339L243.543 108.839L245.043 104.839L246.043 102.339L247.043 97.8388L247.543 93.3388L248.043 88.1614L247.543 81.8388L246.543 75.8388L244.543 69.3388L242.543 64.3387L240.043 60.3388L238.543 57.8388L236.553 54.7655C240.014 65.2368 242.146 74.008 241.56 88.6015C240.974 103.195 229.505 122.002 217.524 130.389Z" fill="#FFDE76"/>
<path d="M101.592 95.1031C102.629 106.757 106.227 116.8 108.543 121.839L106.543 119.839L103.543 115.839L101.043 111.339L100.75 108.933L98.6418 104.926L97.9221 101.187L97.056 96.3395L96.8842 91.6256L96.0426 88.8387L96.5426 83.8387L97.0426 79.3387L98.5426 73.3387L99.5426 70.3387L102.043 64.8387L104.543 60.3387L107.043 56.8387L109.043 54.3387L112.543 50.8387L116.043 47.8387L119.455 45.3388L124.543 42.3387L131.043 39.3388L137.543 37.8387L142.543 36.8387L147.043 36.3387L150.543 36.3387L153.552 36.9544C142.94 39.9579 133.799 40.1731 122.043 48.8388C110.286 57.5045 99.7896 74.8388 101.592 95.1031Z" fill="#FFDE76"/>
<rect x="142.436" y="74.067" width="9.76597" height="17.8404" rx="4.88298" fill="url(#paint16_linear_693_2634)" stroke="#0F172A"/>
<path d="M144.411 39.3818L144.179 39.4747L144.411 39.3818C144.243 38.9633 144.228 38.6614 144.297 38.4388C144.365 38.2209 144.529 38.0347 144.819 37.8749C145.113 37.7132 145.517 37.5889 146.029 37.4935C146.538 37.3987 147.138 37.335 147.814 37.2866L175.617 35.9413H200.7C202.046 35.9413 203.173 36.9288 203.631 38.4514C203.84 39.2241 203.91 39.8464 203.634 40.3067C203.364 40.7563 202.701 41.1458 201.174 41.2725L185.936 40.8244L185.936 40.824L185.922 40.8243L167.53 41.2729L167.53 41.2729L167.525 41.2731L147.793 42.17C147.094 42.1691 146.472 42.0043 145.918 41.5885C145.359 41.1688 144.849 40.4766 144.411 39.3818Z" fill="#0F172A" stroke="#0F172A" stroke-width="0.5"/>
<g filter="url(#filter8_d_693_2634)">
<rect x="94.3733" y="38.2256" width="151.852" height="104.968" rx="52.4839" transform="rotate(-1.87838 94.3733 38.2256)" stroke="#0F172A" stroke-width="0.5" shape-rendering="crispEdges"/>
</g>
<g filter="url(#filter9_d_693_2634)">
<ellipse cx="111.881" cy="96.8934" rx="17.4947" ry="17.9433" fill="#A9D355"/>
<path d="M128.876 96.8934C128.876 106.539 121.255 114.337 111.881 114.337C102.507 114.337 94.8861 106.539 94.8861 96.8934C94.8861 87.2477 102.507 79.4501 111.881 79.4501C121.255 79.4501 128.876 87.2477 128.876 96.8934Z" stroke="#0F172A"/>
</g>
<rect x="113.727" y="91.1132" width="2.58866" height="12.4575" rx="1.29433" fill="#0F172A" stroke="#0F172A"/>
<rect x="102.063" y="91.1132" width="2.58866" height="12.4575" rx="1.29433" fill="#0F172A" stroke="#0F172A"/>
<path d="M200.512 18.0611L200.514 18.0638C201.141 21.9077 200.005 26.8019 197.4 31.6875C194.775 36.6097 190.685 41.4687 185.523 45.1544C180.361 48.8401 174.437 51.1306 168.93 52.0154C163.463 52.8936 158.465 52.3786 155.033 50.5373L152.708 47.281C149.982 43.4625 149.939 38.1818 152.214 32.6561C154.486 27.138 159.046 21.4521 165.374 16.9342C171.701 12.4162 178.56 9.94908 184.517 9.59176C190.482 9.23395 195.462 10.989 198.189 14.8076L198.189 14.8083L198.19 14.8092L198.191 14.8101L198.191 14.8111L198.192 14.8122L198.193 14.8133L198.194 14.8145L198.195 14.8158L198.196 14.8171L198.197 14.8186L198.198 14.82L198.199 14.8216L198.2 14.8232L198.201 14.8249L198.202 14.8266L198.204 14.8284L198.205 14.8303L198.206 14.8323L198.208 14.8343L198.209 14.8363L198.211 14.8385L198.212 14.8407L198.214 14.843L198.216 14.8453L198.217 14.8477L198.219 14.8502L198.221 14.8527L198.223 14.8553L198.225 14.8579L198.227 14.8606L198.229 14.8634L198.231 14.8663L198.233 14.8692L198.235 14.8721L198.237 14.8752L198.239 14.8782L198.241 14.8814L198.244 14.8846L198.246 14.8879L198.248 14.8912L198.251 14.8946L198.253 14.898L198.256 14.9015L198.258 14.9051L198.261 14.9087L198.264 14.9124L198.266 14.9161L198.269 14.9199L198.272 14.9238L198.274 14.9277L198.277 14.9316L198.28 14.9357L198.283 14.9397L198.286 14.9439L198.289 14.9481L198.292 14.9523L198.295 14.9566L198.298 14.961L198.301 14.9654L198.305 14.9698L198.308 14.9744L198.311 14.9789L198.314 14.9836L198.318 14.9882L198.321 14.993L198.325 14.9977L198.328 15.0026L198.331 15.0075L198.335 15.0124L198.339 15.0174L198.342 15.0224L198.346 15.0275L198.349 15.0327L198.353 15.0379L198.357 15.0431L198.361 15.0484L198.364 15.0537L198.368 15.0591L198.372 15.0646L198.376 15.07L198.38 15.0756L198.384 15.0812L198.388 15.0868L198.392 15.0925L198.396 15.0982L198.4 15.104L198.405 15.1098L198.409 15.1157L198.413 15.1216L198.417 15.1275L198.421 15.1335L198.426 15.1396L198.43 15.1457L198.435 15.1518L198.439 15.158L198.443 15.1642L198.448 15.1705L198.452 15.1768L198.457 15.1832L198.461 15.1896L198.466 15.196L198.471 15.2025L198.475 15.209L198.48 15.2156L198.485 15.2222L198.49 15.2288L198.494 15.2355L198.499 15.2422L198.504 15.249L198.509 15.2558L198.514 15.2627L198.519 15.2696L198.524 15.2765L198.529 15.2835L198.534 15.2905L198.539 15.2975L198.544 15.3046L198.549 15.3117L198.554 15.3189L198.559 15.3261L198.564 15.3333L198.569 15.3406L198.575 15.3479L198.58 15.3552L198.585 15.3626L198.59 15.37L198.596 15.3775L198.601 15.385L198.606 15.3925L198.612 15.4L198.617 15.4076L198.623 15.4152L198.628 15.4229L198.634 15.4306L198.639 15.4383L198.645 15.4461L198.65 15.4539L198.656 15.4617L198.661 15.4695L198.667 15.4774L198.673 15.4853L198.678 15.4933L198.684 15.5012L198.69 15.5092L198.695 15.5173L198.701 15.5253L198.707 15.5334L198.713 15.5416L198.719 15.5497L198.724 15.5579L198.73 15.5661L198.736 15.5743L198.742 15.5826L198.748 15.5909L198.754 15.5992L198.76 15.6076L198.766 15.6159L198.772 15.6243L198.778 15.6328L198.784 15.6412L198.79 15.6497L198.796 15.6582L198.802 15.6667L198.808 15.6753L198.814 15.6839L198.821 15.6925L198.827 15.7011L198.833 15.7098L198.839 15.7184L198.845 15.7271L198.852 15.7359L198.858 15.7446L198.864 15.7534L198.87 15.7621L198.877 15.771L198.883 15.7798L198.889 15.7886L198.896 15.7975L198.902 15.8064L198.908 15.8153L198.915 15.8242L198.921 15.8332L198.927 15.8422L198.934 15.8512L198.94 15.8602L198.947 15.8692L198.953 15.8783L198.96 15.8873L198.966 15.8964L198.973 15.9055L198.979 15.9146L198.986 15.9238L198.992 15.9329L198.999 15.9421L199.005 15.9513L199.012 15.9605L199.018 15.9697L199.025 15.9789L199.032 15.9881L199.038 15.9974L199.045 16.0067L199.052 16.016L199.058 16.0253L199.065 16.0346L199.071 16.0439L199.078 16.0532L199.085 16.0626L199.092 16.072L199.098 16.0813L199.105 16.0907L199.112 16.1001L199.118 16.1096L199.125 16.119L199.132 16.1284L199.139 16.1379L199.145 16.1473L199.152 16.1568L199.159 16.1662L199.166 16.1757L199.172 16.1852L199.179 16.1947L199.186 16.2042L199.193 16.2138L199.2 16.2233L199.206 16.2328L199.213 16.2424L199.22 16.2519L199.227 16.2615L199.234 16.271L199.24 16.2806L199.247 16.2902L199.254 16.2997L199.261 16.3093L199.268 16.3189L199.275 16.3285L199.282 16.3381L199.288 16.3477L199.295 16.3573L199.302 16.3669L199.309 16.3765L199.316 16.3861L199.323 16.3958L199.33 16.4054L199.336 16.415L199.343 16.4246L199.35 16.4343L199.357 16.4439L199.364 16.4535L199.371 16.4632L199.378 16.4728L199.385 16.4824L199.391 16.492L199.398 16.5017L199.405 16.5113L199.412 16.5209L199.419 16.5306L199.426 16.5402L199.433 16.5498L199.44 16.5594L199.446 16.5691L199.453 16.5787L199.46 16.5883L199.467 16.5979L199.474 16.6075L199.481 16.6171L199.488 16.6267L199.494 16.6363L199.501 16.6459L199.508 16.6555L199.515 16.6651L199.522 16.6747L199.529 16.6842L199.535 16.6938L199.542 16.7033L199.549 16.7129L199.556 16.7224L199.563 16.732L199.57 16.7415L199.576 16.751L199.583 16.7605L199.59 16.7701L199.597 16.7796L199.604 16.789L199.61 16.7985L199.617 16.808L199.624 16.8175L199.631 16.8269L199.637 16.8363L199.644 16.8458L199.651 16.8552L199.657 16.8646L199.664 16.874L199.671 16.8834L199.678 16.8928L199.684 16.9021L199.691 16.9115L199.698 16.9208L199.704 16.9301L199.711 16.9394L199.718 16.9487L199.724 16.958L199.731 16.9673L199.737 16.9765L199.744 16.9858L199.751 16.995L199.757 17.0042L199.764 17.0134L199.77 17.0226L199.777 17.0318L199.783 17.0409L199.79 17.05L199.796 17.0591L199.803 17.0682L199.809 17.0773L199.816 17.0864L199.822 17.0954L199.829 17.1044L199.835 17.1134L199.842 17.1224L199.848 17.1314L199.854 17.1403L199.861 17.1493L199.867 17.1582L199.873 17.167L199.88 17.1759L199.886 17.1848L199.892 17.1936L199.899 17.2024L199.905 17.2112L199.911 17.2199L199.917 17.2286L199.924 17.2374L199.93 17.246L199.936 17.2547L199.942 17.2634L199.948 17.272L199.954 17.2806L199.961 17.2891L199.967 17.2977L199.973 17.3062L199.979 17.3147L199.985 17.3232L199.991 17.3316L199.997 17.34L200.003 17.3484L200.009 17.3568L200.015 17.3651L200.021 17.3734L200.027 17.3817L200.033 17.39L200.038 17.3982L200.044 17.4064L200.05 17.4146L200.056 17.4227L200.062 17.4308L200.068 17.4389L200.073 17.447L200.079 17.455L200.085 17.463L200.09 17.471L200.096 17.4789L200.102 17.4868L200.107 17.4947L200.113 17.5025L200.118 17.5103L200.124 17.5181L200.13 17.5258L200.135 17.5335L200.141 17.5412L200.146 17.5489L200.151 17.5565L200.157 17.564L200.162 17.5716L200.168 17.5791L200.173 17.5866L200.178 17.594L200.184 17.6014L200.189 17.6088L200.194 17.6161L200.199 17.6234L200.204 17.6306L200.21 17.6379L200.215 17.645L200.22 17.6522L200.225 17.6593L200.23 17.6664L200.235 17.6734L200.24 17.6804L200.245 17.6873L200.25 17.6943L200.255 17.7011L200.26 17.708L200.264 17.7148L200.269 17.7215L200.274 17.7282L200.279 17.7349L200.284 17.7416L200.288 17.7481L200.293 17.7547L200.298 17.7612L200.302 17.7677L200.307 17.7741L200.311 17.7805L200.316 17.7868L200.32 17.7931L200.325 17.7994L200.329 17.8056L200.334 17.8117L200.338 17.8179L200.342 17.8239L200.347 17.83L200.351 17.836L200.355 17.8419L200.359 17.8478L200.364 17.8536L200.368 17.8594L200.372 17.8652L200.376 17.8709L200.38 17.8766L200.384 17.8822L200.388 17.8878L200.392 17.8933L200.396 17.8987L200.4 17.9042L200.404 17.9095L200.407 17.9149L200.411 17.9201L200.415 17.9254L200.419 17.9305L200.422 17.9356L200.426 17.9407L200.429 17.9457L200.433 17.9507L200.436 17.9556L200.44 17.9605L200.443 17.9653L200.447 17.9701L200.45 17.9748L200.453 17.9795L200.457 17.9841L200.46 17.9886L200.463 17.9931L200.466 17.9975L200.47 18.0019L200.473 18.0063L200.476 18.0106L200.479 18.0148L200.482 18.0189L200.485 18.0231L200.487 18.0271L200.49 18.0311L200.493 18.0351L200.496 18.039L200.499 18.0428L200.501 18.0466L200.504 18.0503L200.507 18.0539L200.509 18.0575L200.512 18.0611Z" fill="#0497EC" stroke="#0F172A"/>
<path d="M181.209 30.3027L169.648 14.1106L171.574 12.8136L173.75 12.0246L177.405 10.5707L181.891 9.67349L186.249 9.3221L189.966 9.67349L192.209 10.1221L194.017 11.0418L196.011 13.8335L197.408 16.7697L195.559 19.0738L181.209 30.3027Z" fill="white"/>
<path d="M150.49 37.4857L156.323 45.3738L160.505 43.3994L152.313 31.9255L151.388 34.7942L150.49 37.4857Z" fill="white"/>
<path d="M200.512 18.0612L200.514 18.0639C201.141 21.9078 200.005 26.802 197.4 31.6876C194.775 36.6098 190.685 41.4689 185.523 45.1545C180.361 48.8402 174.437 51.1307 168.93 52.0155C163.463 52.8937 158.465 52.3787 155.033 50.5374L152.708 47.2812C149.982 43.4626 149.939 38.1819 152.214 32.6562C154.486 27.1381 159.046 21.4523 165.374 16.9343C171.701 12.4164 178.56 9.9492 184.517 9.59188C190.482 9.23407 195.462 10.9892 198.189 14.8077L198.189 14.8085L198.19 14.8093L198.191 14.8103L198.191 14.8112L198.192 14.8123L198.193 14.8134L198.194 14.8147L198.195 14.8159L198.196 14.8173L198.197 14.8187L198.198 14.8202L198.199 14.8217L198.2 14.8233L198.201 14.825L198.202 14.8267L198.204 14.8285L198.205 14.8304L198.206 14.8324L198.208 14.8344L198.209 14.8365L198.211 14.8386L198.212 14.8408L198.214 14.8431L198.216 14.8454L198.217 14.8478L198.219 14.8503L198.221 14.8528L198.223 14.8554L198.225 14.8581L198.227 14.8608L198.229 14.8635L198.231 14.8664L198.233 14.8693L198.235 14.8722L198.237 14.8753L198.239 14.8784L198.241 14.8815L198.244 14.8847L198.246 14.888L198.248 14.8913L198.251 14.8947L198.253 14.8981L198.256 14.9016L198.258 14.9052L198.261 14.9088L198.264 14.9125L198.266 14.9162L198.269 14.92L198.272 14.9239L198.274 14.9278L198.277 14.9318L198.28 14.9358L198.283 14.9399L198.286 14.944L198.289 14.9482L198.292 14.9524L198.295 14.9567L198.298 14.9611L198.301 14.9655L198.305 14.97L198.308 14.9745L198.311 14.9791L198.314 14.9837L198.318 14.9884L198.321 14.9931L198.325 14.9979L198.328 15.0027L198.331 15.0076L198.335 15.0125L198.339 15.0175L198.342 15.0226L198.346 15.0276L198.349 15.0328L198.353 15.038L198.357 15.0432L198.361 15.0485L198.364 15.0539L198.368 15.0592L198.372 15.0647L198.376 15.0702L198.38 15.0757L198.384 15.0813L198.388 15.0869L198.392 15.0926L198.396 15.0983L198.4 15.1041L198.405 15.1099L198.409 15.1158L198.413 15.1217L198.417 15.1277L198.421 15.1337L198.426 15.1397L198.43 15.1458L198.435 15.1519L198.439 15.1581L198.443 15.1643L198.448 15.1706L198.452 15.1769L198.457 15.1833L198.461 15.1897L198.466 15.1961L198.471 15.2026L198.475 15.2091L198.48 15.2157L198.485 15.2223L198.49 15.2289L198.494 15.2356L198.499 15.2424L198.504 15.2491L198.509 15.256L198.514 15.2628L198.519 15.2697L198.524 15.2766L198.529 15.2836L198.534 15.2906L198.539 15.2976L198.544 15.3047L198.549 15.3119L198.554 15.319L198.559 15.3262L198.564 15.3334L198.569 15.3407L198.575 15.348L198.58 15.3554L198.585 15.3627L198.59 15.3702L198.596 15.3776L198.601 15.3851L198.606 15.3926L198.612 15.4002L198.617 15.4077L198.623 15.4154L198.628 15.423L198.634 15.4307L198.639 15.4384L198.645 15.4462L198.65 15.454L198.656 15.4618L198.661 15.4696L198.667 15.4775L198.673 15.4854L198.678 15.4934L198.684 15.5014L198.69 15.5094L198.695 15.5174L198.701 15.5255L198.707 15.5336L198.713 15.5417L198.719 15.5498L198.724 15.558L198.73 15.5662L198.736 15.5745L198.742 15.5827L198.748 15.591L198.754 15.5993L198.76 15.6077L198.766 15.6161L198.772 15.6245L198.778 15.6329L198.784 15.6414L198.79 15.6498L198.796 15.6583L198.802 15.6669L198.808 15.6754L198.814 15.684L198.821 15.6926L198.827 15.7012L198.833 15.7099L198.839 15.7186L198.845 15.7273L198.852 15.736L198.858 15.7447L198.864 15.7535L198.87 15.7623L198.877 15.7711L198.883 15.7799L198.889 15.7888L198.896 15.7976L198.902 15.8065L198.908 15.8154L198.915 15.8244L198.921 15.8333L198.927 15.8423L198.934 15.8513L198.94 15.8603L198.947 15.8693L198.953 15.8784L198.96 15.8874L198.966 15.8965L198.973 15.9056L198.979 15.9147L198.986 15.9239L198.992 15.933L198.999 15.9422L199.005 15.9514L199.012 15.9606L199.018 15.9698L199.025 15.979L199.032 15.9883L199.038 15.9975L199.045 16.0068L199.052 16.0161L199.058 16.0254L199.065 16.0347L199.071 16.044L199.078 16.0534L199.085 16.0627L199.092 16.0721L199.098 16.0815L199.105 16.0909L199.112 16.1003L199.118 16.1097L199.125 16.1191L199.132 16.1285L199.139 16.138L199.145 16.1474L199.152 16.1569L199.159 16.1664L199.166 16.1759L199.172 16.1853L199.179 16.1948L199.186 16.2044L199.193 16.2139L199.2 16.2234L199.206 16.2329L199.213 16.2425L199.22 16.252L199.227 16.2616L199.234 16.2711L199.24 16.2807L199.247 16.2903L199.254 16.2999L199.261 16.3094L199.268 16.319L199.275 16.3286L199.282 16.3382L199.288 16.3478L199.295 16.3574L199.302 16.367L199.309 16.3767L199.316 16.3863L199.323 16.3959L199.33 16.4055L199.336 16.4151L199.343 16.4248L199.35 16.4344L199.357 16.444L199.364 16.4536L199.371 16.4633L199.378 16.4729L199.385 16.4825L199.391 16.4922L199.398 16.5018L199.405 16.5114L199.412 16.5211L199.419 16.5307L199.426 16.5403L199.433 16.5499L199.44 16.5596L199.446 16.5692L199.453 16.5788L199.46 16.5884L199.467 16.598L199.474 16.6076L199.481 16.6172L199.488 16.6268L199.494 16.6364L199.501 16.646L199.508 16.6556L199.515 16.6652L199.522 16.6748L199.529 16.6843L199.535 16.6939L199.542 16.7035L199.549 16.713L199.556 16.7226L199.563 16.7321L199.57 16.7416L199.576 16.7512L199.583 16.7607L199.59 16.7702L199.597 16.7797L199.604 16.7892L199.61 16.7986L199.617 16.8081L199.624 16.8176L199.631 16.827L199.637 16.8365L199.644 16.8459L199.651 16.8553L199.657 16.8647L199.664 16.8741L199.671 16.8835L199.678 16.8929L199.684 16.9022L199.691 16.9116L199.698 16.9209L199.704 16.9303L199.711 16.9396L199.718 16.9489L199.724 16.9581L199.731 16.9674L199.737 16.9767L199.744 16.9859L199.751 16.9951L199.757 17.0043L199.764 17.0135L199.77 17.0227L199.777 17.0319L199.783 17.041L199.79 17.0501L199.796 17.0593L199.803 17.0684L199.809 17.0774L199.816 17.0865L199.822 17.0955L199.829 17.1046L199.835 17.1136L199.842 17.1225L199.848 17.1315L199.854 17.1404L199.861 17.1494L199.867 17.1583L199.873 17.1672L199.88 17.176L199.886 17.1849L199.892 17.1937L199.899 17.2025L199.905 17.2113L199.911 17.22L199.917 17.2288L199.924 17.2375L199.93 17.2462L199.936 17.2548L199.942 17.2635L199.948 17.2721L199.954 17.2807L199.961 17.2893L199.967 17.2978L199.973 17.3063L199.979 17.3148L199.985 17.3233L199.991 17.3317L199.997 17.3402L200.003 17.3485L200.009 17.3569L200.015 17.3653L200.021 17.3736L200.027 17.3818L200.033 17.3901L200.038 17.3983L200.044 17.4065L200.05 17.4147L200.056 17.4228L200.062 17.431L200.068 17.439L200.073 17.4471L200.079 17.4551L200.085 17.4631L200.09 17.4711L200.096 17.479L200.102 17.4869L200.107 17.4948L200.113 17.5026L200.118 17.5104L200.124 17.5182L200.13 17.5259L200.135 17.5337L200.141 17.5413L200.146 17.549L200.151 17.5566L200.157 17.5642L200.162 17.5717L200.168 17.5792L200.173 17.5867L200.178 17.5941L200.184 17.6015L200.189 17.6089L200.194 17.6162L200.199 17.6235L200.204 17.6308L200.21 17.638L200.215 17.6452L200.22 17.6523L200.225 17.6594L200.23 17.6665L200.235 17.6735L200.24 17.6805L200.245 17.6875L200.25 17.6944L200.255 17.7013L200.26 17.7081L200.264 17.7149L200.269 17.7216L200.274 17.7284L200.279 17.735L200.284 17.7417L200.288 17.7483L200.293 17.7548L200.298 17.7613L200.302 17.7678L200.307 17.7742L200.311 17.7806L200.316 17.7869L200.32 17.7932L200.325 17.7995L200.329 17.8057L200.334 17.8119L200.338 17.818L200.342 17.8241L200.347 17.8301L200.351 17.8361L200.355 17.842L200.359 17.8479L200.364 17.8538L200.368 17.8596L200.372 17.8653L200.376 17.871L200.38 17.8767L200.384 17.8823L200.388 17.8879L200.392 17.8934L200.396 17.8989L200.4 17.9043L200.404 17.9097L200.407 17.915L200.411 17.9203L200.415 17.9255L200.419 17.9306L200.422 17.9358L200.426 17.9408L200.429 17.9459L200.433 17.9508L200.436 17.9558L200.44 17.9606L200.443 17.9654L200.447 17.9702L200.45 17.9749L200.453 17.9796L200.457 17.9842L200.46 17.9887L200.463 17.9932L200.466 17.9977L200.47 18.0021L200.473 18.0064L200.476 18.0107L200.479 18.0149L200.482 18.0191L200.485 18.0232L200.487 18.0272L200.49 18.0312L200.493 18.0352L200.496 18.0391L200.499 18.0429L200.501 18.0467L200.504 18.0504L200.507 18.0541L200.509 18.0577L200.512 18.0612Z" stroke="#0F172A"/>
<path d="M154.856 50.8055C152.048 46.8728 152.03 41.473 154.328 35.892C156.625 30.314 161.225 24.5857 167.591 20.0401C173.958 15.4946 180.869 13.0036 186.891 12.6424C192.915 12.281 198.017 14.0507 200.825 17.9833C203.633 21.916 203.65 27.3158 201.352 32.8968C199.056 38.4748 194.456 44.2032 188.089 48.7487C181.723 53.2942 174.812 55.7852 168.79 56.1464C162.765 56.5078 157.664 54.7381 154.856 50.8055Z" fill="#FFDE76" stroke="#0F172A" stroke-width="0.4"/>
<path d="M160.005 48.0866C157.986 45.2592 158.098 41.1969 160.099 36.8189C162.093 32.455 165.926 27.88 171.142 24.1555C176.359 20.4311 181.931 18.291 186.706 17.822C191.496 17.3515 195.374 18.5648 197.393 21.3923C199.412 24.2197 199.3 28.282 197.3 32.66C195.306 37.0238 191.472 41.5989 186.256 45.3233C181.04 49.0477 175.468 51.1878 170.693 51.6568C165.902 52.1273 162.024 50.914 160.005 48.0866Z" fill="#0F172A" stroke="#0F172A"/>
<path d="M158.927 47.4675C156.909 44.6408 157.098 40.5795 159.136 36.2469C161.17 31.9226 165.026 27.3838 170.229 23.669C175.432 19.9542 180.976 17.7812 185.727 17.2612C190.487 16.7403 194.389 17.8806 196.407 20.7073C198.426 23.5339 198.237 27.5953 196.199 31.9278C194.165 36.2521 190.309 40.791 185.106 44.5058C179.903 48.2205 174.358 50.3936 169.608 50.9135C164.848 51.4345 160.945 50.2941 158.927 47.4675Z" fill="url(#paint17_linear_693_2634)" stroke="#0F172A" stroke-width="0.5"/>
<g filter="url(#filter10_d_693_2634)">
<mask id="path-67-inside-8_693_2634" fill="white">
<path fill-rule="evenodd" clip-rule="evenodd" d="M173.596 31.0431C173.285 31.2719 173.217 31.71 173.446 32.0216L175.386 34.6641L169.064 39.3058C168.753 39.5346 168.686 39.9727 168.914 40.2843L169.707 41.3634C169.936 41.675 170.374 41.7421 170.685 41.5133L177.007 36.8717L178.561 38.9875C178.79 39.2992 179.228 39.3663 179.539 39.1375L183.575 36.1744C183.887 35.9456 183.954 35.5075 183.725 35.1958L182.171 33.08L188.492 28.439C188.804 28.2102 188.871 27.7721 188.642 27.4605L187.85 26.3814C187.621 26.0697 187.183 26.0026 186.872 26.2314L180.551 30.8724L178.61 28.2299C178.382 27.9183 177.944 27.8511 177.632 28.0799L173.596 31.0431Z"/>
</mask>
<path fill-rule="evenodd" clip-rule="evenodd" d="M173.596 31.0431C173.285 31.2719 173.217 31.71 173.446 32.0216L175.386 34.6641L169.064 39.3058C168.753 39.5346 168.686 39.9727 168.914 40.2843L169.707 41.3634C169.936 41.675 170.374 41.7421 170.685 41.5133L177.007 36.8717L178.561 38.9875C178.79 39.2992 179.228 39.3663 179.539 39.1375L183.575 36.1744C183.887 35.9456 183.954 35.5075 183.725 35.1958L182.171 33.08L188.492 28.439C188.804 28.2102 188.871 27.7721 188.642 27.4605L187.85 26.3814C187.621 26.0697 187.183 26.0026 186.872 26.2314L180.551 30.8724L178.61 28.2299C178.382 27.9183 177.944 27.8511 177.632 28.0799L173.596 31.0431Z" fill="#FFDE76"/>
<path d="M175.386 34.6641L175.623 34.9865L175.946 34.7498L175.709 34.4274L175.386 34.6641ZM169.064 39.3058L168.828 38.9833L168.828 38.9833L169.064 39.3058ZM168.914 40.2843L169.237 40.0476L168.914 40.2843ZM169.707 41.3634L169.384 41.6001L169.707 41.3634ZM177.007 36.8717L177.33 36.6349L177.093 36.3125L176.77 36.5492L177.007 36.8717ZM182.171 33.08L181.935 32.7575L181.612 32.9943L181.849 33.3167L182.171 33.08ZM186.872 26.2314L187.108 26.5538L186.872 26.2314ZM180.551 30.8724L180.228 31.1091L180.465 31.4315L180.787 31.1948L180.551 30.8724ZM173.769 31.7849C173.671 31.6513 173.699 31.4635 173.833 31.3655L173.359 30.7206C172.87 31.0802 172.764 31.7686 173.124 32.2583L173.769 31.7849ZM175.709 34.4274L173.769 31.7849L173.124 32.2583L175.064 34.9008L175.709 34.4274ZM169.301 39.6282L175.623 34.9865L175.15 34.3417L168.828 38.9833L169.301 39.6282ZM169.237 40.0476C169.139 39.914 169.168 39.7263 169.301 39.6282L168.828 38.9833C168.338 39.3429 168.232 40.0313 168.592 40.521L169.237 40.0476ZM170.029 41.1267L169.237 40.0476L168.592 40.521L169.384 41.6001L170.029 41.1267ZM170.449 41.1909C170.315 41.289 170.127 41.2602 170.029 41.1267L169.384 41.6001C169.744 42.0898 170.432 42.1953 170.922 41.8358L170.449 41.1909ZM176.77 36.5492L170.449 41.1909L170.922 41.8358L177.244 37.1941L176.77 36.5492ZM178.883 38.7508L177.33 36.6349L176.685 37.1084L178.238 39.2243L178.883 38.7508ZM179.303 38.8151C179.169 38.9131 178.981 38.8844 178.883 38.7508L178.238 39.2243C178.598 39.714 179.286 39.8195 179.776 39.4599L179.303 38.8151ZM183.338 35.8519L179.303 38.8151L179.776 39.4599L183.812 36.4968L183.338 35.8519ZM183.403 35.4326C183.501 35.5661 183.472 35.7539 183.338 35.8519L183.812 36.4968C184.301 36.1372 184.407 35.4488 184.047 34.9591L183.403 35.4326ZM181.849 33.3167L183.403 35.4326L184.047 34.9591L182.494 32.8432L181.849 33.3167ZM188.256 28.1166L181.935 32.7575L182.408 33.4024L188.729 28.7614L188.256 28.1166ZM188.32 27.6972C188.418 27.8307 188.389 28.0185 188.256 28.1166L188.729 28.7614C189.219 28.4019 189.324 27.7134 188.965 27.2237L188.32 27.6972ZM187.528 26.6181L188.32 27.6972L188.965 27.2237L188.173 26.1446L187.528 26.6181ZM187.108 26.5538C187.242 26.4558 187.43 26.4845 187.528 26.6181L188.173 26.1446C187.813 25.6549 187.125 25.5494 186.635 25.909L187.108 26.5538ZM180.787 31.1948L187.108 26.5538L186.635 25.909L180.314 30.55L180.787 31.1948ZM178.288 28.4666L180.228 31.1091L180.873 30.6356L178.933 27.9932L178.288 28.4666ZM177.869 28.4023C178.002 28.3043 178.19 28.3331 178.288 28.4666L178.933 27.9932C178.573 27.5035 177.885 27.3979 177.395 27.7575L177.869 28.4023ZM173.833 31.3655L177.869 28.4023L177.395 27.7575L173.359 30.7206L173.833 31.3655Z" fill="black" mask="url(#path-67-inside-8_693_2634)"/>
</g>
<path d="M191 40L191.5 38.5L158 39.5L158 41L159 40.5L170.5 41.5L191 40Z" fill="#0F172A"/>
<path d="M179.2 41.0743C159.911 41.5228 151.836 41.9714 148.247 42.42C148.247 45.5601 150.042 52.7374 150.042 54.5317C150.042 56.7746 156.322 64.4005 156.322 65.2977C156.322 66.0154 166.789 68.5873 172.022 69.7835L203.872 62.6062L204.769 41.9714C198.489 41.0741 191.757 40.7823 179.2 41.0743Z" fill="#A9D355"/>
<path d="M145.556 39.28C145.556 40.7664 147.658 41.9715 149.145 41.9715L167.537 41.5229L185.928 41.0743H201.18C202.667 41.0743 203.423 39.8693 203.423 38.3828" stroke="#0F172A"/>
<g filter="url(#filter11_d_693_2634)">
<mask id="path-72-inside-9_693_2634" fill="white">
<path d="M175.195 72.6219C177.01 73.734 179.409 73.1718 180.289 71.2338C182.013 67.4393 182.885 63.4682 182.751 59.8479C182.577 55.1254 180.706 51.3865 177.552 49.4538C174.398 47.521 170.217 47.5527 165.931 49.5418C162.644 51.0667 159.502 53.6463 156.904 56.9055C155.577 58.57 156.166 60.9621 157.981 62.0742C159.796 63.1862 162.131 62.5508 163.71 61.124C164.52 60.3925 165.395 59.799 166.294 59.3819C168.212 58.492 170.082 58.4778 171.493 59.3425C172.904 60.2072 173.741 61.8799 173.819 63.9926C173.855 64.9829 173.724 66.0317 173.44 67.0854C172.886 69.1406 173.38 71.5098 175.195 72.6219Z"/>
</mask>
<path d="M175.195 72.6219C177.01 73.734 179.409 73.1718 180.289 71.2338C182.013 67.4393 182.885 63.4682 182.751 59.8479C182.577 55.1254 180.706 51.3865 177.552 49.4538C174.398 47.521 170.217 47.5527 165.931 49.5418C162.644 51.0667 159.502 53.6463 156.904 56.9055C155.577 58.57 156.166 60.9621 157.981 62.0742C159.796 63.1862 162.131 62.5508 163.71 61.124C164.52 60.3925 165.395 59.799 166.294 59.3819C168.212 58.492 170.082 58.4778 171.493 59.3425C172.904 60.2072 173.741 61.8799 173.819 63.9926C173.855 64.9829 173.724 66.0317 173.44 67.0854C172.886 69.1406 173.38 71.5098 175.195 72.6219Z" fill="#A9D355"/>
<path d="M175.195 72.6219C177.01 73.734 179.409 73.1718 180.289 71.2338C182.013 67.4393 182.885 63.4682 182.751 59.8479C182.577 55.1254 180.706 51.3865 177.552 49.4538C174.398 47.521 170.217 47.5527 165.931 49.5418C162.644 51.0667 159.502 53.6463 156.904 56.9055C155.577 58.57 156.166 60.9621 157.981 62.0742C159.796 63.1862 162.131 62.5508 163.71 61.124C164.52 60.3925 165.395 59.799 166.294 59.3819C168.212 58.492 170.082 58.4778 171.493 59.3425C172.904 60.2072 173.741 61.8799 173.819 63.9926C173.855 64.9829 173.724 66.0317 173.44 67.0854C172.886 69.1406 173.38 71.5098 175.195 72.6219Z" stroke="#0F172A" mask="url(#path-72-inside-9_693_2634)"/>
</g>
<path d="M167.043 65.8389C163.543 63.5055 160.043 62.8389 158.543 62.3389H160.543L162.543 61.8389L164.543 60.3389L167.043 58.8389L169.543 58.3389L171.543 58.8389L172.543 59.8389L174.043 62.8389V64.8389L173.543 67.3389V69.3389L174.043 71.3389L175.543 72.8389C174.543 72.3389 170.543 68.1722 167.043 65.8389Z" fill="#10172A"/>
<defs>
<filter id="filter0_d_693_2634" x="18.0421" y="41.6909" width="23.4915" height="12.042" filterUnits="userSpaceOnUse" color-interpolation-filters="sRGB">
<feFlood flood-opacity="0" result="BackgroundImageFix"/>
<feColorMatrix in="SourceAlpha" type="matrix" values="0 0 0 0 0 0 0 0 0 0 0 0 0 0 0 0 0 0 127 0" result="hardAlpha"/>
<feOffset dy="2"/>
<feComposite in2="hardAlpha" operator="out"/>
<feColorMatrix type="matrix" values="0 0 0 0 0 0 0 0 0 0 0 0 0 0 0 0 0 0 1 0"/>
<feBlend mode="normal" in2="BackgroundImageFix" result="effect1_dropShadow_693_2634"/>
<feBlend mode="normal" in="SourceGraphic" in2="effect1_dropShadow_693_2634" result="shape"/>
</filter>
<filter id="filter1_d_693_2634" x="68.0421" y="8.69092" width="23.4915" height="12.042" filterUnits="userSpaceOnUse" color-interpolation-filters="sRGB">
<feFlood flood-opacity="0" result="BackgroundImageFix"/>
<feColorMatrix in="SourceAlpha" type="matrix" values="0 0 0 0 0 0 0 0 0 0 0 0 0 0 0 0 0 0 127 0" result="hardAlpha"/>
<feOffset dy="2"/>
<feComposite in2="hardAlpha" operator="out"/>
<feColorMatrix type="matrix" values="0 0 0 0 0 0 0 0 0 0 0 0 0 0 0 0 0 0 1 0"/>
<feBlend mode="normal" in2="BackgroundImageFix" result="effect1_dropShadow_693_2634"/>
<feBlend mode="normal" in="SourceGraphic" in2="effect1_dropShadow_693_2634" result="shape"/>
</filter>
<filter id="filter2_d_693_2634" x="22.9957" y="126.691" width="23.4312" height="12.042" filterUnits="userSpaceOnUse" color-interpolation-filters="sRGB">
<feFlood flood-opacity="0" result="BackgroundImageFix"/>
<feColorMatrix in="SourceAlpha" type="matrix" values="0 0 0 0 0 0 0 0 0 0 0 0 0 0 0 0 0 0 127 0" result="hardAlpha"/>
<feOffset dy="2"/>
<feComposite in2="hardAlpha" operator="out"/>
<feColorMatrix type="matrix" values="0 0 0 0 0 0 0 0 0 0 0 0 0 0 0 0 0 0 1 0"/>
<feBlend mode="normal" in2="BackgroundImageFix" result="effect1_dropShadow_693_2634"/>
<feBlend mode="normal" in="SourceGraphic" in2="effect1_dropShadow_693_2634" result="shape"/>
</filter>
<filter id="filter3_d_693_2634" x="22.9957" y="121.691" width="23.4312" height="12.042" filterUnits="userSpaceOnUse" color-interpolation-filters="sRGB">
<feFlood flood-opacity="0" result="BackgroundImageFix"/>
<feColorMatrix in="SourceAlpha" type="matrix" values="0 0 0 0 0 0 0 0 0 0 0 0 0 0 0 0 0 0 127 0" result="hardAlpha"/>
<feOffset dy="2"/>
<feComposite in2="hardAlpha" operator="out"/>
<feColorMatrix type="matrix" values="0 0 0 0 0 0 0 0 0 0 0 0 0 0 0 0 0 0 1 0"/>
<feBlend mode="normal" in2="BackgroundImageFix" result="effect1_dropShadow_693_2634"/>
<feBlend mode="normal" in="SourceGraphic" in2="effect1_dropShadow_693_2634" result="shape"/>
</filter>
<filter id="filter4_d_693_2634" x="264.996" y="130.691" width="23.4312" height="12.042" filterUnits="userSpaceOnUse" color-interpolation-filters="sRGB">
<feFlood flood-opacity="0" result="BackgroundImageFix"/>
<feColorMatrix in="SourceAlpha" type="matrix" values="0 0 0 0 0 0 0 0 0 0 0 0 0 0 0 0 0 0 127 0" result="hardAlpha"/>
<feOffset dy="2"/>
<feComposite in2="hardAlpha" operator="out"/>
<feColorMatrix type="matrix" values="0 0 0 0 0 0 0 0 0 0 0 0 0 0 0 0 0 0 1 0"/>
<feBlend mode="normal" in2="BackgroundImageFix" result="effect1_dropShadow_693_2634"/>
<feBlend mode="normal" in="SourceGraphic" in2="effect1_dropShadow_693_2634" result="shape"/>
</filter>
<filter id="filter5_d_693_2634" x="98.1437" y="41.3602" width="26.5513" height="26.0801" filterUnits="userSpaceOnUse" color-interpolation-filters="sRGB">
<feFlood flood-opacity="0" result="BackgroundImageFix"/>
<feColorMatrix in="SourceAlpha" type="matrix" values="0 0 0 0 0 0 0 0 0 0 0 0 0 0 0 0 0 0 127 0" result="hardAlpha"/>
<feOffset dy="1"/>
<feComposite in2="hardAlpha" operator="out"/>
<feColorMatrix type="matrix" values="0 0 0 0 0.0588235 0 0 0 0 0.0901961 0 0 0 0 0.164706 0 0 0 1 0"/>
<feBlend mode="normal" in2="BackgroundImageFix" result="effect1_dropShadow_693_2634"/>
<feBlend mode="normal" in="SourceGraphic" in2="effect1_dropShadow_693_2634" result="shape"/>
</filter>
<filter id="filter6_d_693_2634" x="98.1437" y="41.3602" width="26.9013" height="26.4021" filterUnits="userSpaceOnUse" color-interpolation-filters="sRGB">
<feFlood flood-opacity="0" result="BackgroundImageFix"/>
<feColorMatrix in="SourceAlpha" type="matrix" values="0 0 0 0 0 0 0 0 0 0 0 0 0 0 0 0 0 0 127 0" result="hardAlpha"/>
<feOffset dy="1"/>
<feComposite in2="hardAlpha" operator="out"/>
<feColorMatrix type="matrix" values="0 0 0 0 0.0588235 0 0 0 0 0.0901961 0 0 0 0 0.164706 0 0 0 1 0"/>
<feBlend mode="normal" in2="BackgroundImageFix" result="effect1_dropShadow_693_2634"/>
<feBlend mode="normal" in="SourceGraphic" in2="effect1_dropShadow_693_2634" result="shape"/>
</filter>
<filter id="filter7_d_693_2634" x="96.2423" y="34.5385" width="152.328" height="108.006" filterUnits="userSpaceOnUse" color-interpolation-filters="sRGB">
<feFlood flood-opacity="0" result="BackgroundImageFix"/>
<feColorMatrix in="SourceAlpha" type="matrix" values="0 0 0 0 0 0 0 0 0 0 0 0 0 0 0 0 0 0 127 0" result="hardAlpha"/>
<feOffset dy="1"/>
<feComposite in2="hardAlpha" operator="out"/>
<feColorMatrix type="matrix" values="0 0 0 0 0.0588235 0 0 0 0 0.0901961 0 0 0 0 0.164706 0 0 0 1 0"/>
<feBlend mode="normal" in2="BackgroundImageFix" result="effect1_dropShadow_693_2634"/>
<feBlend mode="normal" in="SourceGraphic" in2="effect1_dropShadow_693_2634" result="shape"/>
</filter>
<filter id="filter8_d_693_2634" x="95.8148" y="34.6897" width="152.328" height="108.006" filterUnits="userSpaceOnUse" color-interpolation-filters="sRGB">
<feFlood flood-opacity="0" result="BackgroundImageFix"/>
<feColorMatrix in="SourceAlpha" type="matrix" values="0 0 0 0 0 0 0 0 0 0 0 0 0 0 0 0 0 0 127 0" result="hardAlpha"/>
<feOffset dy="1"/>
<feComposite in2="hardAlpha" operator="out"/>
<feColorMatrix type="matrix" values="0 0 0 0 0.0588235 0 0 0 0 0.0901961 0 0 0 0 0.164706 0 0 0 1 0"/>
<feBlend mode="normal" in2="BackgroundImageFix" result="effect1_dropShadow_693_2634"/>
<feBlend mode="normal" in="SourceGraphic" in2="effect1_dropShadow_693_2634" result="shape"/>
</filter>
<filter id="filter9_d_693_2634" x="94.3861" y="78.9501" width="36.9894" height="36.8866" filterUnits="userSpaceOnUse" color-interpolation-filters="sRGB">
<feFlood flood-opacity="0" result="BackgroundImageFix"/>
<feColorMatrix in="SourceAlpha" type="matrix" values="0 0 0 0 0 0 0 0 0 0 0 0 0 0 0 0 0 0 127 0" result="hardAlpha"/>
<feOffset dx="2" dy="1"/>
<feComposite in2="hardAlpha" operator="out"/>
<feColorMatrix type="matrix" values="0 0 0 0 0.0588235 0 0 0 0 0.0901961 0 0 0 0 0.164706 0 0 0 1 0"/>
<feBlend mode="normal" in2="BackgroundImageFix" result="effect1_dropShadow_693_2634"/>
<feBlend mode="normal" in="SourceGraphic" in2="effect1_dropShadow_693_2634" result="shape"/>
</filter>
<filter id="filter10_d_693_2634" x="167.779" y="25.0956" width="20.9996" height="16.5536" filterUnits="userSpaceOnUse" color-interpolation-filters="sRGB">
<feFlood flood-opacity="0" result="BackgroundImageFix"/>
<feColorMatrix in="SourceAlpha" type="matrix" values="0 0 0 0 0 0 0 0 0 0 0 0 0 0 0 0 0 0 127 0" result="hardAlpha"/>
<feOffset dx="-1" dy="-1"/>
<feComposite in2="hardAlpha" operator="out"/>
<feColorMatrix type="matrix" values="0 0 0 0 0.0588235 0 0 0 0 0.0901961 0 0 0 0 0.164706 0 0 0 1 0"/>
<feBlend mode="normal" in2="BackgroundImageFix" result="effect1_dropShadow_693_2634"/>
<feBlend mode="normal" in="SourceGraphic" in2="effect1_dropShadow_693_2634" result="shape"/>
</filter>
<filter id="filter11_d_693_2634" x="156.183" y="48.0267" width="27.5812" height="25.1606" filterUnits="userSpaceOnUse" color-interpolation-filters="sRGB">
<feFlood flood-opacity="0" result="BackgroundImageFix"/>
<feColorMatrix in="SourceAlpha" type="matrix" values="0 0 0 0 0 0 0 0 0 0 0 0 0 0 0 0 0 0 127 0" result="hardAlpha"/>
<feOffset dx="1"/>
<feComposite in2="hardAlpha" operator="out"/>
<feColorMatrix type="matrix" values="0 0 0 0 0.0588235 0 0 0 0 0.0901961 0 0 0 0 0.164706 0 0 0 1 0"/>
<feBlend mode="normal" in2="BackgroundImageFix" result="effect1_dropShadow_693_2634"/>
<feBlend mode="normal" in="SourceGraphic" in2="effect1_dropShadow_693_2634" result="shape"/>
</filter>
<linearGradient id="paint0_linear_693_2634" x1="58" y1="45.6379" x2="0" y2="45.6379" gradientUnits="userSpaceOnUse">
<stop stop-color="#0497EC"/>
<stop offset="0.0322656" stop-color="#0497EC"/>
<stop offset="0.0334375" stop-color="#0F172A"/>
<stop offset="0.409285" stop-color="#0F172A"/>
<stop offset="0.410703" stop-color="#0497EC"/>
<stop offset="0.839123" stop-color="#0497EC"/>
<stop offset="0.841059" stop-color="#0F172A"/>
<stop offset="0.92"/>
<stop offset="0.920978" stop-color="#0497EC"/>
<stop offset="0.9999" stop-color="#0497EC"/>
</linearGradient>
<linearGradient id="paint1_linear_693_2634" x1="1.03049" y1="58.5299" x2="10.2056" y2="34.2229" gradientUnits="userSpaceOnUse">
<stop offset="0.0102275" stop-color="white"/>
<stop offset="0.431088" stop-color="white"/>
<stop offset="0.432344" stop-color="#FFDE76"/>
<stop offset="0.869792" stop-color="#FFDE76"/>
</linearGradient>
<linearGradient id="paint2_linear_693_2634" x1="0.883747" y1="58.5299" x2="10.0411" y2="34.2073" gradientUnits="userSpaceOnUse">
<stop offset="0.0102275" stop-color="white"/>
<stop offset="0.431088" stop-color="white"/>
<stop offset="0.432344" stop-color="#FFDE76"/>
<stop offset="0.869792" stop-color="#FFDE76"/>
</linearGradient>
<linearGradient id="paint3_linear_693_2634" x1="13.7448" y1="64.7824" x2="32.239" y2="16.3893" gradientUnits="userSpaceOnUse">
<stop offset="0.0102275" stop-color="white"/>
<stop offset="0.431088" stop-color="white"/>
<stop offset="0.432344" stop-color="#FFDE76"/>
<stop offset="0.869792" stop-color="#FFDE76"/>
</linearGradient>
<linearGradient id="paint4_linear_693_2634" x1="108" y1="14.7745" x2="50" y2="14.7745" gradientUnits="userSpaceOnUse">
<stop stop-color="#0497EC"/>
<stop offset="0.0322656" stop-color="#0497EC"/>
<stop offset="0.0334375" stop-color="#0F172A"/>
<stop offset="0.409285" stop-color="#0F172A"/>
<stop offset="0.410703" stop-color="#0497EC"/>
<stop offset="0.839123" stop-color="#0497EC"/>
<stop offset="0.841059" stop-color="#0F172A"/>
<stop offset="0.92"/>
<stop offset="0.920978" stop-color="#0497EC"/>
<stop offset="0.9999" stop-color="#0497EC"/>
</linearGradient>
<linearGradient id="paint5_linear_693_2634" x1="51.0305" y1="25.5299" x2="60.2056" y2="1.22288" gradientUnits="userSpaceOnUse">
<stop offset="0.0102275" stop-color="white"/>
<stop offset="0.431088" stop-color="white"/>
<stop offset="0.432344" stop-color="#FFDE76"/>
<stop offset="0.869792" stop-color="#FFDE76"/>
</linearGradient>
<linearGradient id="paint6_linear_693_2634" x1="50.8837" y1="25.5299" x2="60.0411" y2="1.20731" gradientUnits="userSpaceOnUse">
<stop offset="0.0102275" stop-color="white"/>
<stop offset="0.431088" stop-color="white"/>
<stop offset="0.432344" stop-color="#FFDE76"/>
<stop offset="0.869792" stop-color="#FFDE76"/>
</linearGradient>
<linearGradient id="paint7_linear_693_2634" x1="63.7448" y1="31.7824" x2="82.239" y2="-16.6107" gradientUnits="userSpaceOnUse">
<stop offset="0.0102275" stop-color="white"/>
<stop offset="0.431088" stop-color="white"/>
<stop offset="0.432344" stop-color="#FFDE76"/>
<stop offset="0.869792" stop-color="#FFDE76"/>
</linearGradient>
<linearGradient id="paint8_linear_693_2634" x1="6.88148" y1="143.53" x2="16.0566" y2="119.223" gradientUnits="userSpaceOnUse">
<stop offset="0.0102275" stop-color="white"/>
<stop offset="0.431088" stop-color="white"/>
<stop offset="0.432344" stop-color="#FFDE76"/>
<stop offset="0.869792" stop-color="#FFDE76"/>
</linearGradient>
<linearGradient id="paint9_linear_693_2634" x1="18.7095" y1="149.782" x2="37.2392" y2="101.421" gradientUnits="userSpaceOnUse">
<stop offset="0.0102275" stop-color="white"/>
<stop offset="0.431088" stop-color="white"/>
<stop offset="0.432344" stop-color="#FFDE76"/>
<stop offset="0.869792" stop-color="#FFDE76"/>
</linearGradient>
<linearGradient id="paint10_linear_693_2634" x1="6.88148" y1="138.53" x2="16.0566" y2="114.223" gradientUnits="userSpaceOnUse">
<stop offset="0.0102275" stop-color="white"/>
<stop offset="0.431088" stop-color="white"/>
<stop offset="0.432344" stop-color="#FFDE76"/>
<stop offset="0.869792" stop-color="#FFDE76"/>
</linearGradient>
<linearGradient id="paint11_linear_693_2634" x1="18.7095" y1="144.782" x2="37.2392" y2="96.4211" gradientUnits="userSpaceOnUse">
<stop offset="0.0102275" stop-color="white"/>
<stop offset="0.431088" stop-color="white"/>
<stop offset="0.432344" stop-color="#FFDE76"/>
<stop offset="0.869792" stop-color="#FFDE76"/>
</linearGradient>
<linearGradient id="paint12_linear_693_2634" x1="248.881" y1="147.53" x2="258.057" y2="123.223" gradientUnits="userSpaceOnUse">
<stop offset="0.0102275" stop-color="white"/>
<stop offset="0.431088" stop-color="white"/>
<stop offset="0.432344" stop-color="#FFDE76"/>
<stop offset="0.869792" stop-color="#FFDE76"/>
</linearGradient>
<linearGradient id="paint13_linear_693_2634" x1="260.71" y1="153.782" x2="279.239" y2="105.421" gradientUnits="userSpaceOnUse">
<stop offset="0.0102275" stop-color="white"/>
<stop offset="0.431088" stop-color="white"/>
<stop offset="0.432344" stop-color="#FFDE76"/>
<stop offset="0.869792" stop-color="#FFDE76"/>
</linearGradient>
<linearGradient id="paint14_linear_693_2634" x1="10.7662" y1="-0.0859039" x2="58.5025" y2="-8.83783" gradientUnits="userSpaceOnUse">
<stop offset="0.0102275"/>
<stop offset="0.431088"/>
<stop offset="0.432344" stop-color="#A9D355"/>
<stop offset="0.869792" stop-color="#A9D355"/>
</linearGradient>
<linearGradient id="paint15_linear_693_2634" x1="10.993" y1="-2.38462" x2="64.9714" y2="-8.8302" gradientUnits="userSpaceOnUse">
<stop offset="0.0102275"/>
<stop offset="0.431088"/>
<stop offset="0.432344" stop-color="#A9D355"/>
<stop offset="0.869792" stop-color="#A9D355"/>
<stop offset="1" stop-color="white"/>
<stop offset="1" stop-color="#A9D355"/>
</linearGradient>
<linearGradient id="paint16_linear_693_2634" x1="124.71" y1="86.1273" x2="172.702" y2="59.0378" gradientUnits="userSpaceOnUse">
<stop stop-color="#0497EC"/>
<stop offset="0.0322656" stop-color="#0497EC"/>
<stop offset="0.0334375" stop-color="#0F172A"/>
<stop offset="0.409285" stop-color="#0F172A"/>
<stop offset="0.410703" stop-color="#0497EC"/>
<stop offset="0.839123" stop-color="#0497EC"/>
<stop offset="0.841059" stop-color="#0F172A"/>
<stop offset="0.92"/>
<stop offset="0.920978" stop-color="#0497EC"/>
<stop offset="0.9999" stop-color="#0497EC"/>
</linearGradient>
<linearGradient id="paint17_linear_693_2634" x1="218.195" y1="70.427" x2="216.095" y2="-4.75561" gradientUnits="userSpaceOnUse">
<stop offset="0.0102275" stop-color="#0F172A"/>
<stop offset="0.430988" stop-color="#0F172A"/>
<stop offset="0.431088" stop-color="#0F172A"/>
<stop offset="0.432344" stop-color="#FFDE76"/>
<stop offset="0.869792" stop-color="#FFDE76"/>
</linearGradient>
</defs>
</svg>
