<svg width="418" height="166" viewBox="0 0 418 166" fill="none" xmlns="http://www.w3.org/2000/svg">
<g filter="url(#filter0_d_713_3250)">
<ellipse cx="193.745" cy="63.8287" rx="18.2324" ry="20.9198" transform="rotate(72.4981 193.745 63.8287)" fill="#FFDE76"/>
<path d="M199.153 80.9786C188.234 84.4218 177.009 79.4868 174.032 70.0448C171.054 60.6029 177.418 50.1218 188.337 46.6787C199.256 43.2356 210.48 48.1706 213.457 57.6125C216.435 67.0544 210.072 77.5355 199.153 80.9786Z" stroke="#0F172A" stroke-width="0.5"/>
</g>
<g filter="url(#filter1_d_713_3250)">
<ellipse cx="193.291" cy="63.9719" rx="14.5031" ry="16.6407" transform="rotate(72.4981 193.291 63.9719)" fill="#FFDE76"/>
<path d="M177.23 69.0365C179.68 76.8047 188.868 80.7834 197.713 77.9943C206.558 75.2052 211.802 66.6754 209.352 58.9073C206.903 51.1391 197.714 47.1604 188.869 49.9495C180.025 52.7386 174.781 61.2684 177.23 69.0365Z" stroke="#0F172A" stroke-width="0.4"/>
</g>
<g filter="url(#filter2_d_713_3250)">
<path d="M180.182 67.6721C180.058 67.2781 180.276 66.8579 180.671 66.7336L204.801 59.1244C205.195 59.0002 205.615 59.2189 205.74 59.6129C205.864 60.007 205.645 60.4271 205.251 60.5514L181.12 68.1606C180.726 68.2849 180.306 68.0661 180.182 67.6721ZM199.633 66.9805C199.479 66.4917 199.732 65.9794 200.146 65.6781C200.698 65.2769 201.089 64.7532 201.317 64.1068C201.642 63.1881 201.635 62.1892 201.294 61.1103C201.046 60.3214 200.682 59.6773 200.202 59.178C199.725 58.6845 199.177 58.3532 198.561 58.1842C197.946 58.0209 197.312 58.0422 196.66 58.2478C196.114 58.4199 195.681 58.681 195.359 59.0311C195.046 59.3848 194.817 59.7824 194.671 60.2239C194.531 60.6633 194.44 61.1065 194.398 61.5534C194.363 61.9982 194.348 62.4016 194.352 62.7638L194.364 64.7499C194.37 65.258 194.34 65.8351 194.273 66.4812C194.208 67.1331 194.045 67.7873 193.783 68.4436C193.53 69.1037 193.128 69.7088 192.577 70.2588C192.026 70.8088 191.272 71.2349 190.313 71.5371C189.209 71.8855 188.131 71.948 187.08 71.7246C186.031 71.507 185.091 70.9996 184.262 70.2025C183.434 69.4112 182.805 68.3311 182.373 66.9621C181.97 65.686 181.858 64.5065 182.036 63.4236C182.216 62.3464 182.645 61.4078 183.322 60.6076C183.789 60.0607 184.355 59.6021 185.02 59.2316C185.524 58.9509 186.131 59.2476 186.304 59.7976L186.408 60.1254C186.565 60.6244 186.3 61.1462 185.865 61.4369C185.505 61.6775 185.211 61.9629 184.984 62.2932C184.611 62.8509 184.397 63.4731 184.343 64.1598C184.297 64.8502 184.386 65.5493 184.609 66.2569C184.869 67.0806 185.255 67.7719 185.768 68.3309C186.288 68.8877 186.884 69.2704 187.557 69.4791C188.237 69.6856 188.949 69.6714 189.695 69.4363C190.374 69.2222 190.874 68.8827 191.196 68.4178C191.517 67.9528 191.726 67.4086 191.822 66.7852C191.919 66.1618 191.968 65.5054 191.97 64.816L191.997 62.3967C192.017 60.8597 192.325 59.5509 192.921 58.4701C193.517 57.3894 194.504 56.6318 195.882 56.1974C197.026 55.8364 198.11 55.7913 199.132 56.0621C200.162 56.3367 201.058 56.8577 201.82 57.6252C202.59 58.3963 203.154 59.3504 203.513 60.4873C203.875 61.6358 203.961 62.7313 203.77 63.7736C203.585 64.8138 203.17 65.7229 202.522 66.501C202.087 67.0294 201.566 67.4602 200.96 67.7934C200.466 68.0647 199.88 67.7647 199.711 67.2275L199.633 66.9805Z" fill="url(#paint0_linear_713_3250)"/>
<path d="M203.963 61.2196L205.326 60.7898C205.852 60.624 206.144 60.0635 205.978 59.5378C205.812 59.012 205.252 58.7202 204.726 58.886L203.323 59.3283C202.98 58.6175 202.538 57.9904 201.997 57.4488C201.205 56.6504 200.27 56.1066 199.196 55.8206L199.196 55.8205C198.122 55.536 196.99 55.5857 195.806 55.959C194.379 56.4092 193.334 57.203 192.702 58.3494C192.082 59.4739 191.768 60.8252 191.747 62.3934L191.747 62.3938L191.741 62.9808L202.522 66.501L202.714 66.6609C202.715 66.6607 202.715 66.6606 202.715 66.6604C203.391 65.8477 203.824 64.8984 204.016 63.8178M203.963 61.2196C204.15 62.1136 204.169 62.9803 204.016 63.8178M203.963 61.2196L203.724 61.2952C203.707 61.2138 203.689 61.1322 203.669 61.0502M204.016 63.8178C204.016 63.8181 204.016 63.8183 204.016 63.8186L203.77 63.7736L204.016 63.8172C204.016 63.8174 204.016 63.8176 204.016 63.8178ZM200.022 59.3515C200.251 59.5898 200.453 59.8649 200.628 60.1782L194.616 62.0742C194.623 61.9145 194.634 61.7481 194.647 61.5751C194.688 61.1474 194.775 60.7228 194.909 60.301C195.044 59.8935 195.255 59.5264 195.545 59.1984C195.831 58.8875 196.223 58.6476 196.735 58.4863C197.345 58.2938 197.93 58.2757 198.496 58.4255C199.065 58.5819 199.574 58.8882 200.022 59.3515Z" stroke="black" stroke-width="0.5"/>
</g>
<g filter="url(#filter3_d_713_3250)">
<ellipse cx="261.041" cy="47.8742" rx="16.1713" ry="19.5758" transform="rotate(68.1635 261.041 47.8742)" fill="#FFDE76"/>
<path d="M266.963 62.6532C257.012 66.6406 246.356 63.1853 243.101 55.0626C239.847 46.9399 245.168 37.0827 255.119 33.0952C265.07 29.1078 275.725 32.5631 278.98 40.6858C282.235 48.8085 276.914 58.6657 266.963 62.6532Z" stroke="#0F172A" stroke-width="0.5"/>
</g>
<g filter="url(#filter4_d_713_3250)">
<ellipse cx="260.628" cy="48.0397" rx="12.8636" ry="15.5717" transform="rotate(68.1635 260.628 48.0397)" fill="#FFDE76"/>
<path d="M245.988 53.9061C248.684 60.6349 257.436 63.392 265.487 60.166C273.537 56.94 277.964 48.9021 275.268 42.1733C272.571 35.4446 263.819 32.6875 255.769 35.9135C247.718 39.1395 243.291 47.1774 245.988 53.9061Z" stroke="#0F172A" stroke-width="0.4"/>
</g>
<g filter="url(#filter5_d_713_3250)">
<path d="M248.665 52.4384C248.529 52.0982 248.694 51.712 249.034 51.5757L271.08 42.7419C271.42 42.6056 271.806 42.7708 271.942 43.111C272.079 43.4512 271.913 43.8374 271.573 43.9737L249.528 52.8075C249.188 52.9438 248.801 52.7786 248.665 52.4384ZM266.713 50.2849C266.521 49.8073 266.736 49.2727 267.127 48.9384C267.591 48.5423 267.909 48.0572 268.08 47.483C268.333 46.638 268.272 45.7498 267.899 44.8184C267.626 44.1374 267.254 43.5949 266.782 43.191C266.313 42.7921 265.788 42.5435 265.207 42.4451C264.628 42.3517 264.041 42.424 263.447 42.6621C262.95 42.8613 262.562 43.1301 262.282 43.4687C262.011 43.8099 261.819 44.1831 261.707 44.5883C261.601 44.9911 261.541 45.3931 261.526 45.7943C261.517 46.1932 261.524 46.5535 261.547 46.8754L261.664 48.6417C261.697 49.0934 261.7 49.6095 261.673 50.1901C261.647 50.7757 261.53 51.3716 261.323 51.9777C261.124 52.5864 260.783 53.1588 260.302 53.6947C259.82 54.2306 259.142 54.6734 258.27 55.0232C257.263 55.4264 256.267 55.573 255.28 55.4628C254.295 55.3576 253.397 54.9854 252.585 54.346C251.775 53.7116 251.133 52.8036 250.659 51.6218C250.218 50.5201 250.051 49.48 250.158 48.5013C250.268 47.5276 250.615 46.6562 251.2 45.887C251.592 45.3773 252.074 44.9333 252.647 44.5553C253.127 44.2384 253.753 44.489 253.967 45.0232L253.997 45.0969C254.192 45.584 253.964 46.1249 253.552 46.4502C253.255 46.685 253.015 46.9505 252.832 47.2469C252.516 47.7746 252.351 48.3462 252.337 48.9619C252.332 49.5801 252.451 50.1947 252.696 50.8056C252.981 51.5167 253.376 52.0993 253.882 52.5534C254.394 53.0051 254.967 53.2954 255.603 53.4243C256.244 53.5508 256.905 53.478 257.584 53.2059C258.202 52.9582 258.648 52.6138 258.921 52.173C259.195 51.7321 259.36 51.2302 259.416 50.6673C259.471 50.1045 259.482 49.5162 259.447 48.9025L259.343 46.7473C259.28 45.3779 259.496 44.1872 259.991 43.1752C260.486 42.1633 261.361 41.4059 262.615 40.9031C263.658 40.4853 264.661 40.3538 265.623 40.5086C266.594 40.6659 267.453 41.054 268.2 41.6727C268.956 42.294 269.53 43.0954 269.923 44.0769C270.321 45.0684 270.459 46.036 270.337 46.9796C270.222 47.9208 269.885 48.7649 269.326 49.5119C268.963 50.0017 268.521 50.4172 268.001 50.7583C267.53 51.0666 266.922 50.8073 266.713 50.2849Z" fill="url(#paint1_linear_713_3250)"/>
<path d="M266.62 43.3812C266.834 43.5642 267.027 43.7793 267.199 44.0276L261.772 46.2021C261.771 46.0737 261.772 45.9403 261.776 45.8019C261.79 45.4208 261.848 45.038 261.949 44.6534C262.051 44.2831 262.226 43.9411 262.476 43.6261C262.724 43.327 263.074 43.0808 263.54 42.8941C264.095 42.6715 264.636 42.6065 265.166 42.6917C265.7 42.7824 266.184 43.0105 266.62 43.3812ZM259.094 46.7593L259.118 47.2657L252.67 49.8493C252.612 49.555 252.585 49.2606 252.587 48.9658C252.6 48.3947 252.753 47.8664 253.046 47.3768C253.212 47.1079 253.431 46.8643 253.707 46.6464C254.178 46.2743 254.477 45.6231 254.229 45.0039L254.199 44.9302C253.936 44.2744 253.144 43.9282 252.509 44.3466C251.915 44.7389 251.412 45.2015 251.002 45.7347L251.001 45.7356C250.388 46.5413 250.024 47.4555 249.91 48.4734L249.91 48.474C249.826 49.2411 249.903 50.0386 250.136 50.8647L248.941 51.3436C248.473 51.5313 248.245 52.063 248.433 52.5314C248.621 52.9997 249.152 53.2272 249.621 53.0396L250.818 52.5599C251.251 53.3762 251.788 54.0394 252.431 54.5428C253.278 55.2096 254.22 55.6009 255.253 55.7113C256.284 55.8263 257.322 55.6723 258.363 55.2553C259.261 54.8954 259.974 54.4335 260.487 53.8618C260.989 53.3037 261.349 52.7022 261.56 52.0571C261.774 51.4311 261.896 50.8124 261.922 50.2015C261.95 49.6141 261.948 49.088 261.914 48.6243C261.914 48.624 261.914 48.6237 261.914 48.6234L261.881 48.1269L267.909 45.7114C268.027 46.3027 268.003 46.8682 267.841 47.4115C267.683 47.9387 267.393 48.3829 266.965 48.7484C266.519 49.1292 266.237 49.7714 266.48 50.3779C266.736 51.0149 267.507 51.3802 268.138 50.9674C268.682 50.6106 269.146 50.175 269.526 49.6612C270.112 48.879 270.465 47.994 270.585 47.0108C270.682 46.2553 270.62 45.4884 270.403 44.7118L271.666 44.2058C272.134 44.0181 272.362 43.4863 272.174 43.018C271.987 42.5497 271.455 42.3221 270.987 42.5098L269.686 43.0308C269.329 42.4318 268.887 41.9142 268.359 41.4799C267.577 40.8325 266.677 40.4262 265.663 40.2618L265.663 40.2617C264.649 40.0987 263.601 40.239 262.522 40.671C261.222 41.192 260.294 41.9871 259.766 43.0654C259.249 44.1224 259.029 45.3565 259.094 46.7589L259.094 46.7593ZM254.048 52.3668C253.786 52.131 253.554 51.8572 253.353 51.5441L259.21 49.197C259.227 49.6977 259.213 50.1796 259.167 50.6426C259.114 51.171 258.961 51.6356 258.709 52.0411C258.471 52.4253 258.074 52.7403 257.491 52.9739C256.851 53.23 256.24 53.295 255.652 53.1792C255.062 53.0595 254.528 52.7904 254.048 52.3668Z" stroke="black" stroke-width="0.5"/>
</g>
<g filter="url(#filter6_d_713_3250)">
<ellipse cx="152.029" cy="89.6345" rx="17.6105" ry="23.2538" transform="rotate(-62.5779 152.029 89.6345)" fill="#FFDE76"/>
<path d="M160.024 74.2247C165.68 77.1592 169.891 81.548 172.134 86.2613C174.376 90.9743 174.644 95.9967 172.448 100.229C170.252 104.461 165.992 107.133 160.847 108.014C155.703 108.895 149.69 107.979 144.034 105.044C138.378 102.11 134.167 97.721 131.925 93.0078C129.683 88.2947 129.414 83.2723 131.61 79.0403C133.806 74.8083 138.066 72.1357 143.211 71.2549C148.355 70.3742 154.368 71.2901 160.024 74.2247Z" stroke="#0F172A" stroke-width="0.5"/>
</g>
<g filter="url(#filter7_d_713_3250)">
<ellipse cx="152.498" cy="89.8774" rx="14.0083" ry="18.4974" transform="rotate(-62.5779 152.498 89.8774)" fill="#FFDE76"/>
<path d="M169.095 98.4884C170.911 94.987 170.675 90.8576 168.851 87.0228C167.026 83.1882 163.611 79.6362 159.042 77.2656C154.473 74.895 149.602 74.1476 145.416 74.8642C141.231 75.5808 137.718 77.7652 135.902 81.2665C134.085 84.7678 134.321 88.8973 136.146 92.7321C137.97 96.5667 141.386 100.119 145.955 102.489C150.524 104.86 155.394 105.607 159.58 104.891C163.766 104.174 167.278 101.99 169.095 98.4884Z" stroke="#0F172A" stroke-width="0.4"/>
</g>
<g filter="url(#filter8_d_713_3250)">
<path d="M165.748 97.2016C165.564 97.5559 165.128 97.694 164.774 97.5103L139.616 84.4572C139.262 84.2734 139.123 83.8373 139.307 83.483C139.491 83.1288 139.927 82.9906 140.281 83.1744L165.439 96.2275C165.794 96.4113 165.932 96.8474 165.748 97.2016ZM149.568 83.1107C149.33 83.5702 148.782 83.7572 148.276 83.6473C147.511 83.4809 146.791 83.5317 146.117 83.7996C145.192 84.167 144.478 84.8357 143.975 85.8056C143.607 86.5148 143.436 87.2139 143.463 87.903C143.493 88.5868 143.696 89.2149 144.072 89.7873C144.451 90.3544 144.977 90.813 145.652 91.1631C146.217 91.456 146.755 91.6062 147.267 91.6136C147.774 91.6122 148.246 91.5196 148.683 91.3356C149.112 91.148 149.505 90.9216 149.861 90.6564C150.21 90.3875 150.513 90.1312 150.771 89.8876L152.194 88.5607C152.555 88.2186 152.995 87.8581 153.515 87.4792C154.038 87.0952 154.641 86.7828 155.325 86.5421C156.005 86.2927 156.766 86.191 157.607 86.237C158.448 86.283 159.365 86.5632 160.356 87.0777C161.499 87.6707 162.415 88.4335 163.102 89.3658C163.792 90.293 164.184 91.3305 164.279 92.4784C164.377 93.621 164.106 94.8077 163.468 96.0383C162.872 97.1856 162.113 98.0521 161.188 98.638C160.266 99.2187 159.244 99.5221 158.12 99.5481C157.311 99.5631 156.484 99.4325 155.638 99.1562C155.093 98.978 154.877 98.345 155.142 97.8359L155.263 97.6021C155.506 97.1343 156.067 96.9489 156.578 97.0789C157.074 97.2051 157.546 97.2419 157.994 97.1893C158.697 97.0974 159.318 96.8438 159.857 96.4284C160.392 96.0043 160.824 95.4741 161.154 94.838C161.538 94.0975 161.725 93.3505 161.714 92.5969C161.696 91.8397 161.491 91.1408 161.098 90.5001C160.698 89.8558 160.112 89.3336 159.341 88.9335C158.639 88.5691 157.99 88.4212 157.395 88.4898C156.8 88.5584 156.239 88.7637 155.712 89.1058C155.185 89.4478 154.672 89.8469 154.174 90.3029L152.407 91.8881C151.283 92.8932 150.09 93.532 148.83 93.8048C147.57 94.0776 146.227 93.8442 144.802 93.1047C143.618 92.4902 142.711 91.7118 142.081 90.7696C141.447 89.8185 141.099 88.8042 141.038 87.7267C140.972 86.6403 141.205 85.5861 141.735 84.5641C142.271 83.5316 142.991 82.7406 143.897 82.1912C144.796 81.6382 145.787 81.345 146.87 81.3116C147.639 81.2842 148.407 81.3988 149.174 81.6554C149.707 81.8338 149.908 82.4559 149.649 82.9546L149.568 83.1107Z" fill="url(#paint2_linear_713_3250)"/>
<path d="M143.713 87.8927C143.701 87.5721 143.734 87.2472 143.815 86.9175L150.076 90.166C149.96 90.261 149.839 90.358 149.71 90.457C149.371 90.7095 148.996 90.9259 148.584 91.1059C148.181 91.2754 147.744 91.3621 147.268 91.3636C146.804 91.3565 146.305 91.2201 145.767 90.9412C145.126 90.6084 144.633 90.177 144.28 89.6492C143.93 89.1149 143.741 88.531 143.713 87.8927ZM152.574 92.0742L153.006 91.6864L160.41 95.5279C160.2 95.7897 159.964 96.0241 159.703 96.2315C159.201 96.6178 158.623 96.8547 157.963 96.9412C157.55 96.9895 157.109 96.9562 156.64 96.8367C156.042 96.6846 155.349 96.8941 155.041 97.4869L154.92 97.7208C154.594 98.349 154.851 99.1617 155.561 99.3939C156.43 99.678 157.285 99.8137 158.125 99.7981L158.126 99.798C159.293 99.771 160.36 99.4551 161.321 98.8495L161.322 98.8492C162.051 98.3873 162.677 97.7615 163.204 96.9772L164.659 97.7322C165.136 97.9795 165.723 97.7936 165.97 97.3168C166.217 96.84 166.031 96.2529 165.555 96.0056L164.097 95.2494C164.46 94.3001 164.606 93.3689 164.528 92.4578C164.43 91.2634 164.02 90.1815 163.303 89.217C162.59 88.2508 161.644 87.4644 160.472 86.8558C159.458 86.3301 158.507 86.0358 157.621 85.9874C156.752 85.9398 155.957 86.0444 155.241 86.3069C154.537 86.5546 153.911 86.8777 153.367 87.2775C152.842 87.6606 152.393 88.0276 152.022 88.3786C152.022 88.3788 152.022 88.379 152.022 88.3793L151.605 88.7679L144.677 85.1735C145.093 84.6509 145.604 84.2724 146.209 84.032C146.834 83.7839 147.502 83.7349 148.223 83.8916C148.812 84.0195 149.488 83.8085 149.79 83.2259L149.871 83.0698C150.189 82.4562 149.954 81.6528 149.253 81.4183C148.46 81.1527 147.662 81.0332 146.862 81.0617C145.736 81.0966 144.703 81.4018 143.767 81.9779C143.037 82.4205 142.425 83.0118 141.929 83.7475L140.396 82.9525C139.92 82.7051 139.333 82.8911 139.085 83.3679C138.838 83.8447 139.024 84.4317 139.501 84.6791L141.074 85.4955C140.838 86.2273 140.742 86.9763 140.788 87.7413C140.853 88.8658 141.216 89.9225 141.873 90.9082L141.873 90.9085C142.53 91.8915 143.472 92.6961 144.687 93.3266C146.151 94.0861 147.553 94.337 148.883 94.0491C150.192 93.7658 151.423 93.1034 152.574 92.0745L152.574 92.0742ZM161.464 92.6017C161.47 93.0013 161.416 93.4004 161.303 93.7996L154.554 90.298C154.976 89.9289 155.408 89.6015 155.848 89.3155C156.345 88.9934 156.869 88.8021 157.424 88.7382C157.956 88.6768 158.554 88.8067 159.226 89.1554C159.963 89.5378 160.512 90.0309 160.885 90.6313C161.254 91.2337 161.447 91.8889 161.464 92.6017Z" stroke="black" stroke-width="0.5"/>
</g>
<g filter="url(#filter9_d_713_3250)">
<ellipse cx="391.326" cy="107" rx="13.6593" ry="14.929" transform="rotate(-67.2155 391.326 107)" fill="#FFDE76"/>
<path d="M396.519 94.6371C404.013 97.785 407.719 105.876 404.859 112.685C401.999 119.494 393.627 122.511 386.133 119.363C378.639 116.215 374.932 108.124 377.792 101.315C380.652 94.5064 389.025 91.4893 396.519 94.6371Z" stroke="#0F172A" stroke-width="0.5"/>
</g>
<g filter="url(#filter10_d_713_3250)">
<ellipse cx="391.639" cy="107.131" rx="10.8653" ry="11.8754" transform="rotate(-67.2155 391.639 107.131)" fill="#FFDE76"/>
<path d="M402.772 111.808C405.145 106.158 402.057 99.5054 395.924 96.9293C389.791 94.3533 382.879 96.8054 380.506 102.455C378.133 108.104 381.221 114.757 387.353 117.333C393.486 119.909 400.399 117.457 402.772 111.808Z" stroke="#0F172A" stroke-width="0.4"/>
</g>
<g filter="url(#filter11_d_713_3250)">
<path d="M400.477 111.179C400.357 111.465 400.028 111.599 399.743 111.479L383.145 104.507C382.859 104.387 382.725 104.059 382.845 103.773C382.965 103.488 383.293 103.354 383.579 103.474L400.177 110.446C400.462 110.565 400.597 110.894 400.477 111.179ZM389.674 102.329C389.506 102.73 389.061 102.919 388.627 102.914C388.182 102.909 387.762 103.028 387.367 103.271C386.755 103.646 386.285 104.225 385.957 105.006C385.717 105.578 385.608 106.12 385.63 106.633C385.654 107.143 385.792 107.591 386.045 107.979C386.3 108.363 386.652 108.649 387.102 108.838C387.479 108.996 387.837 109.05 388.177 109C388.514 108.944 388.826 108.823 389.115 108.638C389.399 108.451 389.658 108.239 389.893 108.001C390.123 107.762 390.323 107.537 390.492 107.326L391.429 106.178C391.666 105.882 391.956 105.564 392.299 105.224C392.644 104.879 393.042 104.58 393.495 104.325C393.945 104.064 394.449 103.905 395.008 103.848C395.567 103.791 396.176 103.902 396.838 104.18C397.6 104.5 398.212 104.972 398.674 105.596C399.137 106.215 399.404 106.95 399.474 107.8C399.545 108.645 399.373 109.564 398.956 110.555C398.568 111.48 398.069 112.212 397.459 112.751C396.85 113.286 396.174 113.625 395.428 113.766C394.972 113.85 394.507 113.857 394.033 113.787C393.53 113.713 393.29 113.165 393.487 112.697C393.664 112.275 394.138 112.082 394.596 112.101C394.851 112.111 395.096 112.082 395.33 112.012C395.796 111.867 396.207 111.61 396.562 111.24C396.914 110.864 397.198 110.42 397.413 109.907C397.664 109.311 397.783 108.731 397.772 108.167C397.755 107.602 397.615 107.101 397.35 106.663C397.081 106.224 396.689 105.896 396.175 105.68C395.707 105.484 395.275 105.443 394.881 105.559C394.486 105.675 394.115 105.89 393.767 106.204C393.42 106.517 393.082 106.872 392.753 107.268L391.59 108.648C390.85 109.523 390.062 110.131 389.228 110.472C388.393 110.814 387.5 110.785 386.55 110.385C385.76 110.054 385.153 109.569 384.73 108.931C384.303 108.288 384.066 107.565 384.019 106.765C383.969 105.958 384.117 105.143 384.463 104.319C384.812 103.488 385.286 102.817 385.884 102.307C386.477 101.795 387.133 101.467 387.852 101.325C388.291 101.235 388.73 101.224 389.169 101.292C389.644 101.366 389.86 101.887 389.674 102.329Z" fill="url(#paint3_linear_713_3250)"/>
<path d="M385.88 106.622C385.871 106.405 385.887 106.18 385.93 105.948L389.909 107.619C389.847 107.687 389.782 107.756 389.714 107.827C389.492 108.051 389.247 108.251 388.978 108.429C388.719 108.595 388.44 108.703 388.138 108.753C387.852 108.795 387.541 108.751 387.199 108.608C386.792 108.437 386.48 108.181 386.254 107.842C386.028 107.495 385.902 107.091 385.88 106.622ZM391.781 108.809L392.032 108.511L396.81 110.518C396.681 110.717 396.538 110.9 396.381 111.068C396.054 111.408 395.68 111.641 395.257 111.773C395.051 111.834 394.834 111.861 394.607 111.851C394.089 111.829 393.489 112.046 393.256 112.6C393.011 113.185 393.298 113.931 393.996 114.034C394.497 114.109 394.989 114.101 395.473 114.012L395.475 114.012C396.267 113.861 396.984 113.501 397.624 112.939L397.624 112.938C398.097 112.52 398.502 111.997 398.842 111.372L399.646 111.709C400.059 111.883 400.534 111.689 400.707 111.276C400.881 110.863 400.687 110.388 400.274 110.215L399.469 109.877C399.692 109.144 399.779 108.444 399.723 107.779C399.65 106.888 399.368 106.108 398.874 105.447C398.384 104.784 397.735 104.285 396.934 103.949C396.245 103.66 395.593 103.538 394.983 103.6C394.392 103.66 393.854 103.828 393.371 104.108C392.901 104.373 392.484 104.686 392.123 105.047C391.775 105.392 391.479 105.716 391.234 106.02C391.234 106.021 391.234 106.021 391.234 106.021L390.993 106.317L386.533 104.443C386.798 104.033 387.121 103.715 387.498 103.484C387.855 103.264 388.228 103.159 388.624 103.164C389.116 103.169 389.683 102.955 389.905 102.426C390.137 101.872 389.882 101.15 389.208 101.045C388.739 100.973 388.27 100.984 387.803 101.079C387.039 101.231 386.344 101.579 385.721 102.117C385.248 102.52 384.852 103.017 384.531 103.602L383.676 103.243C383.263 103.07 382.788 103.264 382.615 103.676C382.441 104.089 382.635 104.564 383.048 104.738L383.933 105.109C383.79 105.667 383.735 106.225 383.77 106.78C383.819 107.623 384.07 108.388 384.521 109.069L384.522 109.07C384.976 109.753 385.623 110.267 386.453 110.616C387.455 111.037 388.417 111.074 389.322 110.704C390.203 110.344 391.022 109.707 391.781 108.809L391.781 108.809ZM397.522 108.174C397.527 108.451 397.499 108.734 397.436 109.023L393.128 107.213C393.391 106.911 393.66 106.637 393.935 106.389C394.259 106.097 394.597 105.903 394.951 105.799C395.278 105.703 395.65 105.731 396.078 105.911C396.548 106.108 396.897 106.403 397.137 106.793C397.376 107.19 397.506 107.647 397.522 108.174Z" stroke="black" stroke-width="0.5"/>
</g>
<g filter="url(#filter12_d_713_3250)">
<ellipse cx="299.253" cy="54.7334" rx="26.2658" ry="26.5386" transform="rotate(-25.8132 299.253 54.7334)" fill="#FFDE76"/>
<path d="M322.672 43.4051C328.996 56.4774 323.632 72.1435 310.7 78.3988C297.767 84.6542 282.156 79.1339 275.833 66.0617C269.51 52.9894 274.873 37.3233 287.805 31.0679C300.738 24.8125 316.349 30.3328 322.672 43.4051Z" stroke="#0F172A" stroke-width="0.5"/>
</g>
<g filter="url(#filter13_d_713_3250)">
<ellipse cx="299.515" cy="55.276" rx="20.8933" ry="21.1102" transform="rotate(-25.8132 299.515 55.276)" fill="#FFDE76"/>
<path d="M308.795 74.4598C319.283 69.3863 323.628 56.6843 318.504 46.0911C313.38 35.4979 300.725 31.0186 290.236 36.0921C279.747 41.1656 275.403 53.8676 280.527 64.4608C285.651 75.054 298.306 79.5333 308.795 74.4598Z" stroke="#0F172A" stroke-width="0.4"/>
</g>
<g filter="url(#filter14_d_713_3250)">
<path d="M306.43 71.1179C305.933 71.3584 305.335 71.1503 305.095 70.6531L291.162 41.85C290.922 41.3529 291.13 40.7549 291.627 40.5144L291.767 40.4467C292.264 40.2062 292.862 40.4143 293.103 40.9115L307.035 69.7146C307.275 70.2117 307.067 70.8097 306.57 71.0502L306.43 71.1179ZM302.5 46.5844C302.043 46.8053 301.503 46.6384 301.157 46.2681C300.488 45.5534 299.638 45.1261 298.607 44.9861C297.273 44.805 295.873 45.0693 294.406 45.7789C293.333 46.2978 292.479 46.9272 291.844 47.667C291.217 48.403 290.828 49.1866 290.675 50.0177C290.53 50.845 290.646 51.6492 291.024 52.4302C291.34 53.0838 291.766 53.5712 292.301 53.8926C292.84 54.2023 293.429 54.3942 294.069 54.4685C294.704 54.5348 295.338 54.5378 295.971 54.4776C296.6 54.4095 297.168 54.3264 297.675 54.2285L300.46 53.7075C301.172 53.5697 301.986 53.4612 302.902 53.3822C303.825 53.2994 304.765 53.3413 305.722 53.508C306.683 53.6629 307.586 54.0222 308.433 54.5861C309.28 55.15 309.981 56.0058 310.537 57.1534C311.176 58.4764 311.412 59.8378 311.242 61.2377C311.08 62.6337 310.497 63.9632 309.492 65.2262C308.495 66.4853 307.066 67.5651 305.204 68.4655C303.469 69.3049 301.83 69.7488 300.286 69.7972C298.75 69.8418 297.375 69.5336 296.159 68.8724C295.249 68.3708 294.47 67.6905 293.824 66.8315C293.476 66.368 293.679 65.7206 294.201 65.468L295.437 64.8701C295.905 64.644 296.458 64.8234 296.797 65.2167C297.225 65.7127 297.725 66.0802 298.297 66.3191C299.13 66.6536 300.032 66.7679 301.003 66.6622C301.978 66.5447 302.947 66.2532 303.909 65.7877C305.029 65.2459 305.946 64.5762 306.66 63.7784C307.37 62.9727 307.826 62.1132 308.026 61.1999C308.223 60.2787 308.106 59.3717 307.674 58.4791C307.281 57.6662 306.736 57.1135 306.04 56.8209C305.343 56.5283 304.551 56.4 303.663 56.4361C302.776 56.4721 301.848 56.5766 300.881 56.7496L297.483 57.3311C295.324 57.6968 293.445 57.6367 291.847 57.1508C290.25 56.6648 289.052 55.5969 288.254 53.9472C287.591 52.5764 287.379 51.2036 287.619 49.8286C287.864 48.4419 288.472 47.1642 289.445 45.9955C290.421 44.8151 291.682 43.8509 293.228 43.1031C294.79 42.3477 296.315 41.9591 297.804 41.9374C299.288 41.9077 300.621 42.2073 301.801 42.8363C302.685 43.3012 303.416 43.9297 303.995 44.7217C304.328 45.1777 304.118 45.8019 303.609 46.0478L302.5 46.5844Z" fill="url(#paint4_linear_713_3250)"/>
<path d="M294.12 42.4414L293.328 40.8026C293.027 40.1811 292.28 39.921 291.658 40.2216L291.518 40.2893C290.897 40.5899 290.637 41.3374 290.937 41.9589L291.751 43.6418C290.781 44.2651 289.947 44.9962 289.252 45.8359C288.254 47.0352 287.626 48.3524 287.373 49.7853L287.373 49.7856C287.123 51.2169 287.345 52.6427 288.029 54.0561C288.854 55.7618 290.103 56.8816 291.775 57.3899C293.419 57.8901 295.339 57.9479 297.524 57.5775L297.525 57.5775L298.418 57.4246L301.801 42.8363M294.12 42.4414C295.365 41.9578 296.592 41.7052 297.799 41.6874C299.321 41.6571 300.696 41.9645 301.918 42.6153M294.12 42.4414L294.23 42.6672C294.152 42.6971 294.075 42.728 293.997 42.7599M301.918 42.6153C301.918 42.6154 301.918 42.6155 301.918 42.6156L301.801 42.8363M301.918 42.6153C301.918 42.6152 301.918 42.6151 301.917 42.615L301.801 42.8363M301.918 42.6153C302.834 43.0977 303.595 43.751 304.197 44.5742C304.637 45.1776 304.342 45.971 303.718 46.2729L302.609 46.8094C302.03 47.0895 301.376 46.8679 300.974 46.4389C300.347 45.769 299.551 45.3666 298.573 45.2338C297.632 45.106 296.65 45.2089 295.624 45.5501L295.514 45.3232C296.582 44.9635 297.613 44.8511 298.607 44.9861C299.638 45.1261 300.488 45.5534 301.157 46.2681C301.503 46.6384 302.043 46.8053 302.5 46.5844L303.609 46.0478C304.118 45.8019 304.328 45.1777 303.995 44.7217C303.416 43.9297 302.685 43.3012 301.801 42.8363" stroke="black" stroke-width="0.5"/>
</g>
<g filter="url(#filter15_d_713_3250)">
<ellipse cx="252.201" cy="95.673" rx="16.1589" ry="20.0083" transform="rotate(115.923 252.201 95.673)" fill="#FFDE76"/>
<path d="M245.246 109.981C235.385 105.188 230.611 94.895 234.431 87.0353C238.251 79.1757 249.295 76.5715 259.156 81.3649C269.018 86.1583 273.792 96.451 269.972 104.311C266.151 112.17 255.108 114.775 245.246 109.981Z" stroke="#0F172A" stroke-width="0.5"/>
</g>
<g filter="url(#filter16_d_713_3250)">
<ellipse cx="251.792" cy="95.4741" rx="12.8536" ry="15.9157" transform="rotate(115.923 251.792 95.4741)" fill="#FFDE76"/>
<path d="M237.298 88.4289C234.13 94.9468 238.119 103.342 246.086 107.214C254.053 111.087 263.118 109.037 266.287 102.519C269.455 96.0014 265.466 87.6065 257.499 83.7339C249.532 79.8613 240.466 81.911 237.298 88.4289Z" stroke="#0F172A" stroke-width="0.4"/>
</g>
<g filter="url(#filter17_d_713_3250)">
<path d="M240.241 89.4521C240.401 89.1228 240.798 88.9856 241.127 89.1456L262.986 99.7707C263.315 99.9308 263.452 100.328 263.292 100.657C263.132 100.986 262.735 101.123 262.406 100.963L240.547 90.3383C240.218 90.1782 240.081 89.7814 240.241 89.4521ZM254.317 101.533C254.542 101.069 255.083 100.87 255.594 100.941C256.216 101.027 256.804 100.942 257.357 100.685C258.163 100.309 258.785 99.6705 259.223 98.7687C259.543 98.1094 259.692 97.4683 259.668 96.8454C259.642 96.2274 259.465 95.6678 259.137 95.1668C258.807 94.6706 258.347 94.2796 257.759 93.9936C257.267 93.7544 256.798 93.6432 256.352 93.6601C255.909 93.6848 255.498 93.7905 255.118 93.9773C254.743 94.167 254.401 94.3902 254.091 94.6469C253.787 94.9066 253.522 95.1527 253.298 95.3852L252.058 96.6527C251.744 96.9793 251.36 97.3262 250.907 97.6933C250.451 98.0653 249.926 98.3761 249.329 98.6257C248.737 98.883 248.074 99.0103 247.34 99.0074C246.607 99.0046 245.808 98.7931 244.944 98.3729C243.947 97.8886 243.149 97.24 242.55 96.4272C241.948 95.6193 241.606 94.6976 241.523 93.6624C241.437 92.6319 241.673 91.5446 242.229 90.4005C242.747 89.3339 243.409 88.5139 244.215 87.9405C245.018 87.372 245.909 87.05 246.889 86.9746C247.548 86.9269 248.221 86.9937 248.907 87.175C249.463 87.3218 249.697 87.9524 249.446 88.4695L249.412 88.5395C249.182 89.0119 248.628 89.2078 248.111 89.1158C247.723 89.0469 247.353 89.0434 247 89.1053C246.387 89.2209 245.845 89.4793 245.376 89.8804C244.91 90.2893 244.533 90.7894 244.246 91.3809C243.911 92.0693 243.749 92.7545 243.759 93.4366C243.775 94.1216 243.954 94.7451 244.297 95.3073C244.645 95.8724 245.156 96.3183 245.828 96.6451C246.44 96.9428 247.006 97.0468 247.524 96.9572C248.043 96.8676 248.532 96.6557 248.991 96.3216C249.45 95.9874 249.897 95.6023 250.332 95.1662L251.871 93.6488C252.851 92.6866 253.89 92.0529 254.988 91.7476C256.086 91.4424 257.257 91.5918 258.499 92.1958C259.532 92.6977 260.323 93.3608 260.872 94.1852C261.425 95.0173 261.728 95.9199 261.782 96.8931C261.84 97.874 261.638 98.8396 261.176 99.7898C260.709 100.75 260.081 101.499 259.292 102.039C258.509 102.581 257.645 102.893 256.701 102.973C256.077 103.029 255.454 102.974 254.831 102.807C254.288 102.661 254.071 102.039 254.317 101.533Z" fill="url(#paint5_linear_713_3250)"/>
<path d="M252.588 96.4689L258.567 99.3752C258.208 99.8579 257.769 100.217 257.251 100.458C256.744 100.694 256.205 100.773 255.628 100.693C255.044 100.612 254.378 100.835 254.092 101.424C253.792 102.042 254.042 102.854 254.767 103.048C255.416 103.223 256.069 103.281 256.723 103.222C257.71 103.138 258.615 102.812 259.434 102.245C260.066 101.813 260.597 101.253 261.028 100.571L262.297 101.188C262.75 101.409 263.297 101.22 263.517 100.766C263.738 100.313 263.549 99.7663 263.095 99.5458L261.789 98.911C261.99 98.2427 262.072 97.565 262.032 96.8789C261.975 95.8603 261.657 94.9149 261.08 94.0468L261.08 94.0465C260.503 93.1796 259.675 92.4891 258.609 91.9709C257.323 91.3462 256.09 91.1819 254.921 91.5068C253.774 91.8254 252.7 92.4846 251.696 93.4704L251.695 93.4708L251.333 93.8284L250.907 97.6933M252.588 96.4689L252.238 96.8262C252.238 96.8264 252.238 96.8267 252.238 96.8269C251.915 97.1623 251.523 97.5157 251.065 97.8872M252.588 96.4689L252.351 96.3537L252.535 96.1652M251.065 97.8872C251.065 97.8873 251.064 97.8874 251.064 97.8875L250.907 97.6933M251.065 97.8872C251.065 97.8871 251.065 97.887 251.065 97.8869L250.907 97.6933M251.065 97.8872C250.589 98.2754 250.043 98.5979 249.427 98.8557C249.428 98.8554 249.428 98.8552 249.429 98.855L249.329 98.6257C249.926 98.3761 250.451 98.0653 250.907 97.6933M259.418 96.8555C259.429 97.1369 259.402 97.4244 259.335 97.7183L253.952 95.1016C254.047 95.0157 254.147 94.928 254.252 94.8384C254.546 94.5948 254.872 94.3822 255.229 94.201C255.577 94.0304 255.954 93.9329 256.363 93.9098C256.759 93.8952 257.187 93.9936 257.65 94.2185C258.202 94.4867 258.625 94.8493 258.928 95.3045C259.23 95.7662 259.394 96.2814 259.418 96.8555Z" stroke="black" stroke-width="0.5"/>
</g>
<g filter="url(#filter18_d_713_3250)">
<ellipse cx="219.78" cy="114.75" rx="25.5879" ry="25.9885" transform="rotate(17.3623 219.78 114.75)" fill="#FFDE76"/>
<path d="M243.963 122.312C239.72 135.882 225.452 143.491 212.099 139.316C198.747 135.141 191.353 120.76 195.596 107.189C199.84 93.6185 214.108 86.0099 227.461 90.1847C240.813 94.3595 248.206 108.741 243.963 122.312Z" stroke="#0F172A" stroke-width="0.5"/>
</g>
<g filter="url(#filter19_d_713_3250)">
<ellipse cx="219.604" cy="115.314" rx="20.354" ry="20.6726" transform="rotate(17.3623 219.604 115.314)" fill="#FFDE76"/>
<path d="M213.375 135.236C224.212 138.624 235.782 132.447 239.221 121.448C242.661 110.448 236.67 98.7807 225.833 95.3923C214.995 92.0039 203.425 98.1807 199.986 109.18C196.547 120.18 202.538 131.847 213.375 135.236Z" stroke="#0F172A" stroke-width="0.4"/>
</g>
<g filter="url(#filter20_d_713_3250)">
<path d="M213.955 131.269C213.428 131.105 213.134 130.544 213.299 130.017L222.637 100.151C222.802 99.6242 223.363 99.3305 223.89 99.4953L223.985 99.5251C224.512 99.6899 224.806 100.251 224.641 100.778L215.303 130.643C215.138 131.17 214.578 131.464 214.05 131.299L213.955 131.269ZM227.55 111.104C227.066 110.952 226.787 110.461 226.786 109.953C226.784 109.003 226.466 108.135 225.832 107.351C225.007 106.33 223.836 105.583 222.321 105.109C221.213 104.762 220.187 104.641 219.242 104.746C218.305 104.852 217.505 105.152 216.841 105.644C216.186 106.138 215.731 106.791 215.478 107.602C215.266 108.28 215.242 108.913 215.407 109.501C215.583 110.083 215.873 110.614 216.277 111.095C216.684 111.567 217.132 111.993 217.622 112.373C218.113 112.745 218.572 113.066 218.998 113.335L221.322 114.825C221.92 115.202 222.57 115.669 223.272 116.225C223.983 116.783 224.623 117.442 225.19 118.2C225.769 118.954 226.17 119.815 226.395 120.784C226.619 121.754 226.545 122.834 226.173 124.026C225.743 125.399 225.001 126.53 223.945 127.417C222.898 128.307 221.596 128.867 220.039 129.098C218.49 129.331 216.755 129.147 214.832 128.546C213.04 127.986 211.58 127.207 210.452 126.209C209.332 125.214 208.561 124.074 208.14 122.789C207.831 121.828 207.732 120.828 207.844 119.79C207.906 119.214 208.497 118.881 209.05 119.054L210.278 119.438C210.774 119.593 211.054 120.102 211.034 120.621C211.009 121.255 211.119 121.845 211.363 122.393C211.731 123.189 212.295 123.874 213.055 124.448C213.825 125.016 214.707 125.455 215.701 125.766C216.858 126.128 217.956 126.262 218.996 126.169C220.038 126.068 220.936 125.758 221.688 125.24C222.443 124.713 222.965 123.986 223.255 123.059C223.519 122.215 223.502 121.456 223.203 120.781C222.904 120.106 222.428 119.485 221.773 118.917C221.119 118.349 220.391 117.804 219.589 117.28L216.789 115.424C215.012 114.241 213.719 112.942 212.909 111.527C212.1 110.111 211.963 108.547 212.498 106.834C212.943 105.411 213.71 104.288 214.799 103.466C215.899 102.638 217.184 102.131 218.655 101.946C220.136 101.755 221.676 101.91 223.272 102.409C224.886 102.913 226.228 103.655 227.299 104.635C228.372 105.607 229.118 106.712 229.535 107.95C229.85 108.867 229.95 109.798 229.836 110.744C229.768 111.305 229.187 111.616 228.648 111.447L227.55 111.104Z" fill="url(#paint6_linear_713_3250)"/>
<path d="M217.383 116.118L216.65 115.632L216.65 115.632C214.851 114.434 213.526 113.109 212.692 111.651C211.845 110.168 211.706 108.531 212.26 106.759C212.719 105.291 213.514 104.123 214.648 103.266L214.649 103.266C215.786 102.41 217.113 101.888 218.623 101.698C219.676 101.563 220.755 101.597 221.859 101.8L222.398 100.077C222.604 99.4178 223.305 99.0507 223.964 99.2567L224.06 99.2865C224.718 99.4925 225.086 100.194 224.88 100.853L224.355 102.53C225.56 103.016 226.598 103.656 227.467 104.45C228.568 105.447 229.339 106.587 229.772 107.87C230.098 108.821 230.202 109.79 230.084 110.774C229.994 111.516 229.235 111.893 228.574 111.686L227.476 111.343C226.861 111.15 226.537 110.541 226.536 109.954C226.534 109.064 226.238 108.251 225.638 107.508C225.057 106.79 224.295 106.209 223.343 105.768L220.724 114.144L221.456 114.613C221.456 114.614 221.456 114.614 221.457 114.614C222.063 114.997 222.72 115.469 223.427 116.029M217.383 116.118L221.322 114.825C221.92 115.202 222.57 115.669 223.272 116.225C223.983 116.783 224.623 117.442 225.19 118.2M217.383 116.118L214.585 125.066C214.089 124.833 213.629 124.56 213.204 124.248C212.476 123.697 211.94 123.044 211.591 122.29C211.364 121.779 211.26 121.228 211.284 120.631C211.307 120.028 210.981 119.396 210.353 119.199L209.125 118.815C208.444 118.602 207.676 119.008 207.595 119.763C207.48 120.835 207.582 121.87 207.902 122.865L207.903 122.867C208.339 124.198 209.136 125.375 210.286 126.396L210.286 126.396C211.18 127.187 212.271 127.839 213.556 128.357L213.061 129.942C212.854 130.601 213.222 131.302 213.881 131.508L213.976 131.538C214.635 131.744 215.336 131.377 215.542 130.718L216.038 129.131M217.383 116.118L216.038 129.131M223.427 116.029C223.427 116.029 223.427 116.029 223.428 116.029L223.272 116.225L223.427 116.028C223.427 116.028 223.427 116.028 223.427 116.029ZM223.427 116.029C224.156 116.601 224.81 117.275 225.389 118.049M225.389 118.049C225.389 118.049 225.389 118.049 225.388 118.048L225.19 118.2M225.389 118.049C225.99 118.832 226.406 119.726 226.638 120.728C226.875 121.75 226.794 122.877 226.411 124.1C225.968 125.517 225.2 126.689 224.107 127.608C223.019 128.532 221.672 129.108 220.076 129.345C218.837 129.532 217.491 129.458 216.038 129.131M225.389 118.049C225.39 118.05 225.39 118.05 225.39 118.051L225.19 118.2M225.19 118.2C225.769 118.954 226.17 119.815 226.395 120.784C226.619 121.754 226.545 122.834 226.173 124.026C225.743 125.399 225.001 126.53 223.945 127.417C222.898 128.307 221.596 128.867 220.039 129.098C218.842 129.278 217.533 129.209 216.113 128.891L216.038 129.131M217.067 125.839L216.992 126.079C217.683 126.197 218.351 126.227 218.996 126.169M217.067 125.839C217.726 125.948 218.361 125.975 218.973 125.92M217.067 125.839L219.639 117.613M217.067 125.839C216.985 125.825 216.903 125.81 216.82 125.794L219.422 117.47L219.451 117.489L219.452 117.49C219.515 117.531 219.577 117.572 219.639 117.613M218.973 125.92C218.972 125.92 218.972 125.92 218.972 125.92L218.996 126.169M218.973 125.92C218.973 125.92 218.973 125.92 218.974 125.92L218.996 126.169M218.973 125.92C219.978 125.823 220.833 125.525 221.545 125.034M218.996 126.169C220.038 126.068 220.936 125.758 221.688 125.24M221.688 125.24L221.545 125.035C221.545 125.035 221.545 125.034 221.545 125.034M221.688 125.24L221.546 125.034C221.546 125.034 221.546 125.034 221.545 125.034M221.688 125.24L219.639 117.613M221.545 125.034C222.252 124.541 222.742 123.861 223.017 122.985C223.266 122.186 223.244 121.491 222.974 120.882C222.693 120.246 222.241 119.654 221.609 119.106C221.016 118.59 220.359 118.093 219.639 117.613M219.27 104.994C219.77 104.939 220.296 104.949 220.85 105.027L218.459 112.675C218.239 112.52 218.01 112.354 217.774 112.175C217.298 111.806 216.863 111.392 216.468 110.933C216.086 110.478 215.813 109.978 215.647 109.431C215.498 108.898 215.517 108.316 215.716 107.676C215.955 106.914 216.379 106.306 216.991 105.844C217.614 105.382 218.371 105.097 219.27 104.994Z" stroke="black" stroke-width="0.5"/>
</g>
<g filter="url(#filter21_d_713_3250)">
<ellipse cx="319.331" cy="115.948" rx="21.9986" ry="27.5892" transform="rotate(61.9212 319.331 115.948)" fill="#FFDE76"/>
<path d="M329.567 135.137C316.196 142.27 300.839 139.37 295.209 128.817C289.579 118.263 295.723 103.893 309.094 96.7596C322.465 89.6265 337.822 92.5266 343.452 103.08C349.082 113.634 342.938 128.004 329.567 135.137Z" stroke="#0F172A" stroke-width="0.5"/>
</g>
<g filter="url(#filter22_d_713_3250)">
<ellipse cx="318.777" cy="116.244" rx="17.4989" ry="21.946" transform="rotate(61.9212 318.777 116.244)" fill="#FFDE76"/>
<path d="M299.238 126.667C303.858 135.327 316.356 137.595 327.108 131.859C337.86 126.123 342.936 114.479 338.317 105.82C333.697 97.1602 321.199 94.8919 310.447 100.628C299.695 106.364 294.618 118.008 299.238 126.667Z" stroke="#0F172A" stroke-width="0.4"/>
</g>
<g filter="url(#filter23_d_713_3250)">
<path d="M302.7 124.255C302.466 123.815 302.632 123.268 303.072 123.034L332.661 107.249C333.101 107.014 333.647 107.18 333.882 107.62C334.117 108.06 333.95 108.607 333.511 108.842L303.922 124.627C303.482 124.861 302.935 124.695 302.7 124.255ZM327.391 117.978C327.148 117.523 327.3 116.966 327.683 116.621C328.429 115.947 328.895 115.148 329.081 114.224C329.321 113.031 329.12 111.833 328.477 110.628C328.007 109.748 327.418 109.073 326.708 108.603C326.002 108.14 325.238 107.89 324.416 107.855C323.597 107.826 322.79 108.023 321.994 108.448C321.328 108.803 320.823 109.235 320.478 109.743C320.146 110.253 319.928 110.793 319.825 111.364C319.731 111.93 319.7 112.487 319.732 113.036C319.772 113.58 319.829 114.069 319.904 114.503L320.3 116.887C320.406 117.496 320.478 118.198 320.516 118.993C320.557 119.794 320.474 120.625 320.265 121.485C320.067 122.347 319.669 123.183 319.069 123.994C318.469 124.805 317.584 125.522 316.414 126.146C315.067 126.865 313.698 127.234 312.31 127.251C310.924 127.274 309.624 126.92 308.41 126.187C307.198 125.461 306.185 124.334 305.37 122.806C304.61 121.382 304.24 119.994 304.26 118.644C304.284 117.301 304.653 116.056 305.366 114.91C305.916 114.037 306.643 113.262 307.549 112.585C308.009 112.241 308.654 112.42 308.924 112.927L309.313 113.656C309.56 114.119 309.398 114.687 308.996 115.026C308.476 115.463 308.084 115.949 307.818 116.484C307.447 117.256 307.293 118.062 307.355 118.902C307.429 119.744 307.677 120.561 308.098 121.35C308.588 122.27 309.216 122.996 309.98 123.528C310.751 124.056 311.588 124.354 312.49 124.422C313.4 124.485 314.31 124.275 315.22 123.789C316.048 123.347 316.624 122.803 316.946 122.157C317.269 121.511 317.432 120.8 317.436 120.024C317.439 119.249 317.377 118.447 317.247 117.617L316.818 114.702C316.55 112.849 316.693 111.192 317.249 109.731C317.805 108.27 318.923 107.092 320.604 106.195C322.001 105.45 323.38 105.101 324.74 105.149C326.112 105.199 327.36 105.581 328.482 106.297C329.616 107.014 330.521 108.008 331.198 109.277C331.882 110.559 332.202 111.852 332.157 113.157C332.121 114.457 331.763 115.663 331.083 116.774C330.572 117.618 329.901 118.343 329.069 118.951C328.614 119.283 327.988 119.097 327.723 118.601L327.391 117.978Z" fill="url(#paint7_linear_713_3250)"/>
<path d="M326.57 108.812C326.927 109.048 327.254 109.341 327.55 109.692L320.043 113.696C320.019 113.482 319.999 113.256 319.981 113.019C319.951 112.491 319.981 111.954 320.072 111.406C320.168 110.872 320.372 110.364 320.687 109.881C321.004 109.414 321.474 109.008 322.112 108.668C322.872 108.263 323.636 108.077 324.406 108.104C325.181 108.138 325.901 108.373 326.57 108.812ZM316.571 114.739L316.682 115.49L307.872 120.19C307.732 119.761 307.643 119.325 307.604 118.882C307.546 118.087 307.691 117.326 308.042 116.594C308.291 116.094 308.661 115.635 309.157 115.217C309.632 114.817 309.847 114.125 309.533 113.538L309.145 112.809C308.81 112.182 307.995 111.939 307.399 112.385C306.471 113.078 305.722 113.876 305.155 114.777L305.154 114.778C304.417 115.962 304.035 117.251 304.01 118.64L304.01 118.641C303.994 119.711 304.215 120.798 304.666 121.9L302.954 122.813C302.392 123.113 302.18 123.811 302.48 124.373C302.779 124.934 303.478 125.147 304.039 124.847L305.754 123.933C306.469 124.994 307.311 125.82 308.28 126.401C309.534 127.157 310.88 127.525 312.313 127.501C313.746 127.483 315.153 127.103 316.532 126.367C317.724 125.731 318.642 124.992 319.27 124.143C319.887 123.309 320.302 122.442 320.508 121.542C320.722 120.662 320.808 119.808 320.765 118.98C320.727 118.179 320.654 117.467 320.546 116.845C320.546 116.845 320.546 116.845 320.546 116.844L320.424 116.106L328.672 111.706C328.947 112.537 329 113.359 328.836 114.175C328.661 115.043 328.224 115.795 327.516 116.435C327.065 116.842 326.863 117.52 327.17 118.096L327.503 118.719C327.829 119.331 328.623 119.586 329.216 119.153C330.074 118.527 330.768 117.777 331.296 116.904C331.999 115.756 332.369 114.508 332.407 113.164C332.443 112.107 332.248 111.059 331.826 110.024L333.628 109.062C334.19 108.762 334.402 108.064 334.103 107.503C333.803 106.941 333.105 106.728 332.543 107.028L330.694 108.014C330.114 107.239 329.421 106.595 328.616 106.086C327.455 105.346 326.164 104.95 324.749 104.899L324.749 104.899C323.338 104.849 321.916 105.212 320.487 105.974C318.764 106.893 317.597 108.113 317.015 109.643C316.442 111.15 316.297 112.851 316.571 114.738L316.571 114.739ZM310.121 123.322C309.69 123.022 309.303 122.655 308.961 122.222L317.038 117.913C317.14 118.639 317.189 119.342 317.186 120.023C317.183 120.763 317.027 121.436 316.723 122.045C316.429 122.633 315.898 123.144 315.102 123.569C314.229 124.035 313.366 124.232 312.508 124.173C311.652 124.108 310.858 123.826 310.121 123.322Z" stroke="black" stroke-width="0.5"/>
</g>
<g filter="url(#filter24_d_713_3250)">
<ellipse cx="353.598" cy="69.0567" rx="13.9335" ry="21" transform="rotate(61.0242 353.598 69.0567)" fill="#FFDE76"/>
<path d="M360.226 81.0274C355.19 83.8162 349.891 84.9807 345.4 84.6203C340.907 84.2597 337.256 82.3785 335.445 79.1088C333.634 75.8392 333.978 71.7458 336.056 67.7464C338.133 63.7489 341.933 59.8748 346.969 57.086C352.005 54.2972 357.305 53.1328 361.795 53.4931C366.288 53.8537 369.94 55.7349 371.75 59.0046C373.561 62.2742 373.218 66.3676 371.139 70.367C369.062 74.3645 365.263 78.2386 360.226 81.0274Z" stroke="#0F172A" stroke-width="0.5"/>
</g>
<g filter="url(#filter25_d_713_3250)">
<ellipse cx="353.18" cy="69.288" rx="11.0835" ry="16.7045" transform="rotate(61.0242 353.18 69.288)" fill="#FFDE76"/>
<path d="M338.392 77.4772C339.917 80.2318 342.969 81.772 346.628 82.0656C350.288 82.3594 354.581 81.41 358.646 79.159C362.711 76.908 365.794 73.7728 367.488 70.5142C369.18 67.2572 369.494 63.8533 367.969 61.0987C366.443 58.3441 363.392 56.8039 359.733 56.5103C356.072 56.2165 351.779 57.1659 347.714 59.4169C343.649 61.6679 340.566 64.8031 338.873 68.0617C337.18 71.3187 336.866 74.7226 338.392 77.4772Z" stroke="#0F172A" stroke-width="0.4"/>
</g>
<g filter="url(#filter26_d_713_3250)">
<path d="M341.071 75.6326C340.918 75.3563 341.018 75.0084 341.294 74.8554L363.827 62.3775C364.103 62.2246 364.451 62.3245 364.604 62.6007C364.757 62.877 364.657 63.2249 364.381 63.3778L341.848 75.8557C341.571 76.0087 341.224 75.9088 341.071 75.6326ZM359.517 70.0724C359.299 69.6798 359.428 69.1935 359.762 68.8934C360.292 68.4164 360.64 67.8803 360.808 67.2851C361.034 66.4796 360.938 65.6986 360.52 64.9423C360.213 64.3893 359.811 63.9801 359.311 63.7146C358.814 63.4532 358.265 63.3373 357.665 63.3669C357.067 63.4005 356.468 63.5836 355.867 63.9162C355.365 64.1944 354.977 64.513 354.703 64.8718C354.437 65.2313 354.255 65.6033 354.156 65.9877C354.062 66.3688 354.016 66.74 354.016 67.1013C354.022 67.4593 354.043 67.7796 354.079 68.0623L354.267 69.6161C354.318 70.0126 354.341 70.4729 354.335 70.997C354.331 71.5251 354.235 72.0808 354.045 72.6639C353.864 73.2478 353.536 73.8276 353.062 74.4035C352.588 74.9794 351.91 75.5117 351.028 76.0004C350.01 76.5637 348.993 76.8959 347.976 76.9969C346.961 77.102 346.025 76.951 345.167 76.5441C344.311 76.1413 343.618 75.4601 343.086 74.5004C342.591 73.6059 342.379 72.7108 342.452 71.8151C342.527 70.9236 342.85 70.0752 343.421 69.2702C343.837 68.6885 344.367 68.1549 345.01 67.6692C345.417 67.361 345.992 67.5144 346.24 67.9617C346.47 68.377 346.328 68.8917 345.967 69.2004C345.619 69.4985 345.346 69.8166 345.148 70.1548C344.844 70.6899 344.697 71.2337 344.706 71.7862C344.724 72.3394 344.871 72.8641 345.145 73.3602C345.465 73.9376 345.893 74.378 346.43 74.6813C346.972 74.9813 347.572 75.1247 348.229 75.1114C348.893 75.0947 349.568 74.8963 350.254 74.5162C350.879 74.17 351.324 73.7724 351.587 73.3235C351.851 72.8745 352.001 72.3931 352.037 71.8791C352.073 71.3652 352.061 70.8378 352.001 70.2968L351.812 68.3933C351.695 67.1832 351.87 66.0763 352.34 65.0726C352.809 64.069 353.678 63.2159 354.946 62.5134C356 61.9297 357.024 61.6097 358.018 61.5535C359.021 61.4979 359.917 61.6709 360.708 62.0724C361.507 62.4746 362.128 63.0742 362.569 63.8712C363.015 64.6763 363.194 65.5124 363.105 66.3796C363.023 67.2434 362.709 68.0652 362.164 68.8452C361.772 69.4121 361.276 69.9169 360.676 70.3596C360.289 70.6459 359.75 70.4941 359.517 70.0724Z" fill="url(#paint8_linear_713_3250)"/>
<path d="M363.083 64.3822L364.502 63.5965C364.899 63.3767 365.043 62.8766 364.823 62.4796C364.603 62.0826 364.103 61.939 363.706 62.1588L362.248 62.966C361.855 62.5031 361.379 62.1303 360.821 61.8493C359.986 61.4255 359.045 61.2462 358.004 61.3038L358.004 61.3039C356.966 61.3626 355.905 61.6965 354.825 62.2947C353.525 63.0149 352.611 63.9024 352.113 64.9668C351.623 66.0149 351.442 67.1672 351.563 68.4174L351.563 68.418L351.607 68.8586L362.164 68.8452M363.083 64.3822C363.333 65.0352 363.425 65.7101 363.354 66.4041C363.267 67.3144 362.936 68.1765 362.37 68.988M363.083 64.3822L362.862 64.5046C362.833 64.4266 362.801 64.3488 362.767 64.2713M362.37 68.988C362.369 68.9881 362.369 68.9883 362.369 68.9884L362.164 68.8452M362.37 68.988C362.37 68.9878 362.37 68.9877 362.37 68.9875L362.164 68.8452M362.37 68.988C361.96 69.5791 361.445 70.1031 360.825 70.5607C360.3 70.9481 359.595 70.73 359.298 70.1935C359.013 69.6795 359.192 69.0694 359.594 68.7075C360.095 68.2572 360.415 67.7604 360.567 67.2174C360.706 66.7226 360.714 66.2396 360.587 65.7643L360.812 65.6398C360.967 66.1763 360.965 66.7248 360.808 67.2851C360.64 67.8803 360.292 68.4164 359.762 68.8934C359.428 69.1935 359.299 69.6798 359.517 70.0724C359.75 70.4941 360.289 70.6459 360.676 70.3596C361.276 69.9169 361.772 69.4121 362.164 68.8452M359.194 63.9356C359.399 64.0446 359.587 64.1807 359.758 64.345L354.274 67.3818C354.27 67.2907 354.267 67.1965 354.266 67.0993C354.266 66.7607 354.31 66.4107 354.398 66.0487C354.489 65.7 354.655 65.3578 354.903 65.0219C355.151 64.6976 355.509 64.4004 355.988 64.1349C356.561 63.818 357.123 63.6479 357.678 63.6165C358.237 63.5892 358.74 63.6968 359.194 63.9356Z" stroke="black" stroke-width="0.5"/>
</g>
<g filter="url(#filter27_d_713_3250)">
<path d="M134.394 29.2417C134.574 27.5946 133.426 26.1054 131.785 25.8801C116.137 23.733 53.9201 14.2694 47.2545 16.1983C38.7812 17.8089 33.2674 21.7839 27.3911 26.4724C21.5149 31.1609 16.6271 36.955 13.0067 43.5238C9.38635 50.0927 7.10438 57.3076 6.29108 64.7567C5.47779 72.2058 6.14909 79.7432 8.26667 86.9385C10.3843 94.1338 13.9066 100.846 18.6327 106.692C23.3588 112.538 29.196 117.404 35.8111 121.011C41.9034 124.332 104.692 128.557 120.434 129.844C122.085 129.979 123.527 128.772 123.707 127.125L125.663 109.206C125.843 107.559 124.669 106.099 123.018 105.959C108.825 104.761 51.5229 100.234 48.2467 98.4472C44.6155 96.4673 41.4113 93.7966 38.8171 90.5876C36.2229 87.3785 34.2893 83.694 33.1269 79.7443C31.9646 75.7947 31.5961 71.6572 32.0425 67.5683C32.489 63.4793 33.7416 59.5189 35.7288 55.9131C37.7161 52.3073 40.3992 49.1268 43.6248 46.5532C46.8504 43.9796 50.5554 42.0632 54.5282 40.9135C58.1128 39.8762 114.927 48.8983 129.019 51.0016C130.658 51.2461 132.118 50.0847 132.298 48.4376L134.394 29.2417Z" fill="#0F172A"/>
</g>
<path d="M125.217 110.711C123.87 110.586 120.616 110.317 116.164 109.95C108.622 109.328 97.6429 108.422 86.6722 107.447C77.4377 106.627 68.2149 105.758 61.0725 104.971C57.5019 104.577 54.4465 104.203 52.1677 103.865C51.029 103.696 50.0782 103.536 49.3515 103.385C48.6512 103.239 48.0905 103.091 47.7875 102.925C44.099 100.914 40.844 98.2013 38.2085 94.9412C35.5729 91.6811 33.6085 87.9377 32.4275 83.9248C31.2465 79.9118 30.8721 75.708 31.3257 71.5533C31.7793 67.3986 33.052 63.3746 35.0711 59.7111C37.0903 56.0475 39.8162 52.8162 43.0932 50.2017C46.3701 47.5871 50.1338 45.6404 54.1694 44.4725C54.3511 44.4199 54.5865 44.3941 54.8431 44.381C55.1083 44.3676 55.4299 44.3665 55.8005 44.376C56.5422 44.3951 57.5043 44.4571 58.6509 44.5554C60.9454 44.7522 64.0044 45.0964 67.5693 45.5423C74.7005 46.4343 83.8761 47.7359 93.0527 49.0868C102.546 50.4844 112.032 51.9336 119.265 53.0386C125.243 53.9518 129.682 54.63 131.316 54.8499L133.954 30.6882C131.94 30.4432 127.344 29.7863 121.26 28.9167C112.904 27.7224 101.742 26.127 90.6067 24.6465C80.5954 23.3156 70.5975 22.0764 62.6525 21.3008C58.6793 20.913 55.2257 20.6417 52.5433 20.5325C51.2018 20.4778 50.0594 20.464 49.1446 20.4956C48.2188 20.5276 47.563 20.6053 47.1737 20.7179L47.1737 20.718L47.1645 20.7205C38.2521 23.1152 33.3215 26.2443 27.4832 30.9025C21.6583 35.5501 16.8133 41.2934 13.2248 47.8045C9.63629 54.3156 7.37445 61.4669 6.56832 68.8503C5.7622 76.2337 6.42758 83.7046 8.52653 90.8366C10.6255 97.9687 14.1169 104.622 18.8017 110.417C23.4865 116.212 29.2729 121.035 35.8306 124.611C36.1864 124.805 36.81 125.022 37.7072 125.253C38.5936 125.481 39.712 125.714 41.0337 125.951C43.6765 126.423 47.1072 126.903 51.0705 127.381C58.9958 128.338 69.0255 129.285 79.0882 130.146C90.2781 131.103 101.519 131.953 109.934 132.589C116.066 133.053 120.698 133.404 122.718 133.599L125.217 110.711Z" fill="#0497EC" stroke="#0F172A"/>
<path d="M31.5954 71.395L6.34061 68.6377C5.56582 76.0327 6.23626 83.5084 8.31538 90.6472C10.4178 97.866 13.9194 104.599 18.6204 110.461C23.3213 116.324 29.1295 121.201 35.7133 124.815C36.0978 125.026 36.7466 125.252 37.6465 125.486C38.5411 125.719 39.6659 125.956 40.9905 126.197C43.6392 126.677 47.0743 127.167 51.0383 127.656C58.9658 128.634 68.9963 129.606 79.0571 130.491C90.4917 131.497 101.971 132.39 110.437 133.048C116.558 133.524 121.105 133.878 122.919 134.063L125.493 110.486C124.383 110.377 121.223 110.108 116.776 109.73C109.223 109.088 97.9557 108.13 86.7043 107.1C77.4729 106.255 68.255 105.362 61.1174 104.555C57.549 104.152 54.4981 103.77 52.2247 103.426C51.0883 103.254 50.1431 103.091 49.4235 102.94C48.7169 102.791 48.1937 102.647 47.9289 102.501C44.2703 100.493 41.0427 97.7828 38.4305 94.5251C35.8182 91.2673 33.8724 87.526 32.7041 83.5147C31.5592 79.5834 31.183 75.4682 31.5954 71.395Z" fill="#FF6B6C" stroke="#0F172A" stroke-width="0.5"/>
<path d="M131.264 54.8513L133.897 30.7374L111.487 27.7361L108.914 51.302L131.264 54.8513Z" fill="url(#paint9_linear_713_3250)" stroke="#0F172A" stroke-width="0.5"/>
<path d="M125.221 110.204L122.648 133.769L100.118 131.864L102.691 108.298L125.221 110.204Z" fill="url(#paint10_linear_713_3250)" stroke="#0F172A" stroke-width="0.5"/>
<path d="M110.787 33L111.287 28.0001L103.787 26.5L83.2867 24L68.7867 22L60.2867 21L52.2867 20.5H48.7867L45.2867 21.5L40.2867 23L35.7867 25.5L32.2867 27.5L26.7867 31.5L22.7867 35L18.2867 40L12.7867 48C13.62 47.1667 15.6867 45 17.2867 43C19.2867 40.5 26.5738 33.1064 32.7867 30C39.7867 26.5 45.2867 25.5001 50.2867 25.5001C55.2867 25.5 68.325 26.6719 78.2867 28.0001C93.2867 30 102.287 31.6667 110.787 33Z" fill="#C1E9FF"/>
<path d="M131.264 54.8513L133.897 30.7374L111.487 27.7361L108.914 51.302L131.264 54.8513Z" stroke="#0F172A" stroke-width="0.5"/>
<path d="M125.217 110.711C123.87 110.586 120.616 110.317 116.164 109.95C108.622 109.328 97.6429 108.421 86.6722 107.447C77.4377 106.627 68.215 105.758 61.0725 104.971C57.5019 104.577 54.4465 104.203 52.1678 103.865C51.029 103.696 50.0782 103.536 49.3515 103.385C48.6512 103.239 48.0905 103.091 47.7875 102.925C44.099 100.914 40.844 98.2013 38.2085 94.9412C35.573 91.6811 33.6085 87.9377 32.4275 83.9248C31.2465 79.9118 30.8721 75.708 31.3257 71.5533C31.7793 67.3986 33.052 63.3746 35.0712 59.711C37.0903 56.0475 39.8162 52.8162 43.0932 50.2016C46.3701 47.5871 50.1338 45.6404 54.1694 44.4725C54.3511 44.4199 54.5865 44.3941 54.8431 44.381C55.1084 44.3676 55.4299 44.3665 55.8005 44.376C56.5422 44.3951 57.5043 44.4571 58.6509 44.5554C60.9454 44.7522 64.0044 45.0964 67.5693 45.5423C74.7005 46.4343 83.8762 47.7358 93.0527 49.0868C102.546 50.4844 112.032 51.9335 119.265 53.0385C125.243 53.9518 129.682 54.63 131.316 54.8499L133.954 30.6882C131.94 30.4432 127.344 29.7863 121.26 28.9167C112.904 27.7224 101.742 26.127 90.6067 24.6465C80.5954 23.3156 70.5975 22.0764 62.6525 21.3008C58.6793 20.913 55.2258 20.6417 52.5433 20.5325C51.2018 20.4778 50.0595 20.464 49.1447 20.4956C48.2188 20.5276 47.563 20.6053 47.1737 20.7179L47.1737 20.718L47.1645 20.7205C38.2522 23.1152 33.3215 26.2443 27.4832 30.9025C21.6583 35.5501 16.8133 41.2934 13.2248 47.8045C9.63631 54.3155 7.37446 61.4669 6.56834 68.8503C5.76222 76.2337 6.42759 83.7046 8.52654 90.8366C10.6255 97.9686 14.117 104.622 18.8018 110.417C23.4866 116.212 29.273 121.035 35.8306 124.611C36.1864 124.805 36.81 125.022 37.7072 125.253C38.5936 125.481 39.7121 125.714 41.0338 125.95C43.6765 126.423 47.1072 126.903 51.0705 127.381C58.9958 128.338 69.0256 129.285 79.0883 130.146C90.2782 131.103 101.519 131.953 109.934 132.589C116.066 133.053 120.698 133.404 122.718 133.599L125.217 110.711Z" stroke="#0F172A"/>
<defs>
<filter id="filter0_d_713_3250" x="173.048" y="45.332" width="41.3926" height="39.9932" filterUnits="userSpaceOnUse" color-interpolation-filters="sRGB">
<feFlood flood-opacity="0" result="BackgroundImageFix"/>
<feColorMatrix in="SourceAlpha" type="matrix" values="0 0 0 0 0 0 0 0 0 0 0 0 0 0 0 0 0 0 127 0" result="hardAlpha"/>
<feOffset dy="3"/>
<feComposite in2="hardAlpha" operator="out"/>
<feColorMatrix type="matrix" values="0 0 0 0 0.0588235 0 0 0 0 0.0901961 0 0 0 0 0.164706 0 0 0 1 0"/>
<feBlend mode="normal" in2="BackgroundImageFix" result="effect1_dropShadow_713_3250"/>
<feBlend mode="normal" in="SourceGraphic" in2="effect1_dropShadow_713_3250" result="shape"/>
</filter>
<filter id="filter1_d_713_3250" x="176.427" y="47.8601" width="33.7289" height="31.2236" filterUnits="userSpaceOnUse" color-interpolation-filters="sRGB">
<feFlood flood-opacity="0" result="BackgroundImageFix"/>
<feColorMatrix in="SourceAlpha" type="matrix" values="0 0 0 0 0 0 0 0 0 0 0 0 0 0 0 0 0 0 127 0" result="hardAlpha"/>
<feOffset dy="-1"/>
<feComposite in2="hardAlpha" operator="out"/>
<feColorMatrix type="matrix" values="0 0 0 0 0.0588235 0 0 0 0 0.0901961 0 0 0 0 0.164706 0 0 0 1 0"/>
<feBlend mode="normal" in2="BackgroundImageFix" result="effect1_dropShadow_713_3250"/>
<feBlend mode="normal" in="SourceGraphic" in2="effect1_dropShadow_713_3250" result="shape"/>
</filter>
<filter id="filter2_d_713_3250" x="179.647" y="55.3879" width="26.6274" height="17.9675" filterUnits="userSpaceOnUse" color-interpolation-filters="sRGB">
<feFlood flood-opacity="0" result="BackgroundImageFix"/>
<feColorMatrix in="SourceAlpha" type="matrix" values="0 0 0 0 0 0 0 0 0 0 0 0 0 0 0 0 0 0 127 0" result="hardAlpha"/>
<feOffset dy="1"/>
<feComposite in2="hardAlpha" operator="out"/>
<feColorMatrix type="matrix" values="0 0 0 0 0.0588235 0 0 0 0 0.0901961 0 0 0 0 0.164706 0 0 0 1 0"/>
<feBlend mode="normal" in2="BackgroundImageFix" result="effect1_dropShadow_713_3250"/>
<feBlend mode="normal" in="SourceGraphic" in2="effect1_dropShadow_713_3250" result="shape"/>
</filter>
<filter id="filter3_d_713_3250" x="241.895" y="31.1865" width="38.2922" height="36.3752" filterUnits="userSpaceOnUse" color-interpolation-filters="sRGB">
<feFlood flood-opacity="0" result="BackgroundImageFix"/>
<feColorMatrix in="SourceAlpha" type="matrix" values="0 0 0 0 0 0 0 0 0 0 0 0 0 0 0 0 0 0 127 0" result="hardAlpha"/>
<feOffset dy="3"/>
<feComposite in2="hardAlpha" operator="out"/>
<feColorMatrix type="matrix" values="0 0 0 0 0.0588235 0 0 0 0 0.0901961 0 0 0 0 0.164706 0 0 0 1 0"/>
<feBlend mode="normal" in2="BackgroundImageFix" result="effect1_dropShadow_713_3250"/>
<feBlend mode="normal" in="SourceGraphic" in2="effect1_dropShadow_713_3250" result="shape"/>
</filter>
<filter id="filter4_d_713_3250" x="244.995" y="33.3677" width="31.2646" height="28.3442" filterUnits="userSpaceOnUse" color-interpolation-filters="sRGB">
<feFlood flood-opacity="0" result="BackgroundImageFix"/>
<feColorMatrix in="SourceAlpha" type="matrix" values="0 0 0 0 0 0 0 0 0 0 0 0 0 0 0 0 0 0 127 0" result="hardAlpha"/>
<feOffset dy="-1"/>
<feComposite in2="hardAlpha" operator="out"/>
<feColorMatrix type="matrix" values="0 0 0 0 0.0588235 0 0 0 0 0.0901961 0 0 0 0 0.164706 0 0 0 1 0"/>
<feBlend mode="normal" in2="BackgroundImageFix" result="effect1_dropShadow_713_3250"/>
<feBlend mode="normal" in="SourceGraphic" in2="effect1_dropShadow_713_3250" result="shape"/>
</filter>
<filter id="filter5_d_713_3250" x="248.117" y="39.9458" width="24.373" height="17.0525" filterUnits="userSpaceOnUse" color-interpolation-filters="sRGB">
<feFlood flood-opacity="0" result="BackgroundImageFix"/>
<feColorMatrix in="SourceAlpha" type="matrix" values="0 0 0 0 0 0 0 0 0 0 0 0 0 0 0 0 0 0 127 0" result="hardAlpha"/>
<feOffset dy="1"/>
<feComposite in2="hardAlpha" operator="out"/>
<feColorMatrix type="matrix" values="0 0 0 0 0.0588235 0 0 0 0 0.0901961 0 0 0 0 0.164706 0 0 0 1 0"/>
<feBlend mode="normal" in2="BackgroundImageFix" result="effect1_dropShadow_713_3250"/>
<feBlend mode="normal" in="SourceGraphic" in2="effect1_dropShadow_713_3250" result="shape"/>
</filter>
<filter id="filter6_d_713_3250" x="129.846" y="70.6843" width="44.3663" height="40.9004" filterUnits="userSpaceOnUse" color-interpolation-filters="sRGB">
<feFlood flood-opacity="0" result="BackgroundImageFix"/>
<feColorMatrix in="SourceAlpha" type="matrix" values="0 0 0 0 0 0 0 0 0 0 0 0 0 0 0 0 0 0 127 0" result="hardAlpha"/>
<feOffset dy="3"/>
<feComposite in2="hardAlpha" operator="out"/>
<feColorMatrix type="matrix" values="0 0 0 0 0.0588235 0 0 0 0 0.0901961 0 0 0 0 0.164706 0 0 0 1 0"/>
<feBlend mode="normal" in2="BackgroundImageFix" result="effect1_dropShadow_713_3250"/>
<feBlend mode="normal" in="SourceGraphic" in2="effect1_dropShadow_713_3250" result="shape"/>
</filter>
<filter id="filter7_d_713_3250" x="134.452" y="73.4033" width="36.0914" height="31.9482" filterUnits="userSpaceOnUse" color-interpolation-filters="sRGB">
<feFlood flood-opacity="0" result="BackgroundImageFix"/>
<feColorMatrix in="SourceAlpha" type="matrix" values="0 0 0 0 0 0 0 0 0 0 0 0 0 0 0 0 0 0 127 0" result="hardAlpha"/>
<feOffset dy="-1"/>
<feComposite in2="hardAlpha" operator="out"/>
<feColorMatrix type="matrix" values="0 0 0 0 0.0588235 0 0 0 0 0.0901961 0 0 0 0 0.164706 0 0 0 1 0"/>
<feBlend mode="normal" in2="BackgroundImageFix" result="effect1_dropShadow_713_3250"/>
<feBlend mode="normal" in="SourceGraphic" in2="effect1_dropShadow_713_3250" result="shape"/>
</filter>
<filter id="filter8_d_713_3250" x="138.726" y="80.8076" width="27.6038" height="20.2417" filterUnits="userSpaceOnUse" color-interpolation-filters="sRGB">
<feFlood flood-opacity="0" result="BackgroundImageFix"/>
<feColorMatrix in="SourceAlpha" type="matrix" values="0 0 0 0 0 0 0 0 0 0 0 0 0 0 0 0 0 0 127 0" result="hardAlpha"/>
<feOffset dy="1"/>
<feComposite in2="hardAlpha" operator="out"/>
<feColorMatrix type="matrix" values="0 0 0 0 0.0588235 0 0 0 0 0.0901961 0 0 0 0 0.164706 0 0 0 1 0"/>
<feBlend mode="normal" in2="BackgroundImageFix" result="effect1_dropShadow_713_3250"/>
<feBlend mode="normal" in="SourceGraphic" in2="effect1_dropShadow_713_3250" result="shape"/>
</filter>
<filter id="filter9_d_713_3250" x="376.576" y="93.1396" width="29.4991" height="30.7209" filterUnits="userSpaceOnUse" color-interpolation-filters="sRGB">
<feFlood flood-opacity="0" result="BackgroundImageFix"/>
<feColorMatrix in="SourceAlpha" type="matrix" values="0 0 0 0 0 0 0 0 0 0 0 0 0 0 0 0 0 0 127 0" result="hardAlpha"/>
<feOffset dy="3"/>
<feComposite in2="hardAlpha" operator="out"/>
<feColorMatrix type="matrix" values="0 0 0 0 0.0588235 0 0 0 0 0.0901961 0 0 0 0 0.164706 0 0 0 1 0"/>
<feBlend mode="normal" in2="BackgroundImageFix" result="effect1_dropShadow_713_3250"/>
<feBlend mode="normal" in="SourceGraphic" in2="effect1_dropShadow_713_3250" result="shape"/>
</filter>
<filter id="filter10_d_713_3250" x="379.505" y="94.7068" width="24.2677" height="23.8489" filterUnits="userSpaceOnUse" color-interpolation-filters="sRGB">
<feFlood flood-opacity="0" result="BackgroundImageFix"/>
<feColorMatrix in="SourceAlpha" type="matrix" values="0 0 0 0 0 0 0 0 0 0 0 0 0 0 0 0 0 0 127 0" result="hardAlpha"/>
<feOffset dy="-1"/>
<feComposite in2="hardAlpha" operator="out"/>
<feColorMatrix type="matrix" values="0 0 0 0 0.0588235 0 0 0 0 0.0901961 0 0 0 0 0.164706 0 0 0 1 0"/>
<feBlend mode="normal" in2="BackgroundImageFix" result="effect1_dropShadow_713_3250"/>
<feBlend mode="normal" in="SourceGraphic" in2="effect1_dropShadow_713_3250" result="shape"/>
</filter>
<filter id="filter11_d_713_3250" x="382.301" y="100.748" width="18.7197" height="14.5867" filterUnits="userSpaceOnUse" color-interpolation-filters="sRGB">
<feFlood flood-opacity="0" result="BackgroundImageFix"/>
<feColorMatrix in="SourceAlpha" type="matrix" values="0 0 0 0 0 0 0 0 0 0 0 0 0 0 0 0 0 0 127 0" result="hardAlpha"/>
<feOffset dy="1"/>
<feComposite in2="hardAlpha" operator="out"/>
<feColorMatrix type="matrix" values="0 0 0 0 0.0588235 0 0 0 0 0.0901961 0 0 0 0 0.164706 0 0 0 1 0"/>
<feBlend mode="normal" in2="BackgroundImageFix" result="effect1_dropShadow_713_3250"/>
<feBlend mode="normal" in="SourceGraphic" in2="effect1_dropShadow_713_3250" result="shape"/>
</filter>
<filter id="filter12_d_713_3250" x="272.929" y="28.2402" width="52.6474" height="55.9863" filterUnits="userSpaceOnUse" color-interpolation-filters="sRGB">
<feFlood flood-opacity="0" result="BackgroundImageFix"/>
<feColorMatrix in="SourceAlpha" type="matrix" values="0 0 0 0 0 0 0 0 0 0 0 0 0 0 0 0 0 0 127 0" result="hardAlpha"/>
<feOffset dy="3"/>
<feComposite in2="hardAlpha" operator="out"/>
<feColorMatrix type="matrix" values="0 0 0 0 0.0588235 0 0 0 0 0.0901961 0 0 0 0 0.164706 0 0 0 1 0"/>
<feBlend mode="normal" in2="BackgroundImageFix" result="effect1_dropShadow_713_3250"/>
<feBlend mode="normal" in="SourceGraphic" in2="effect1_dropShadow_713_3250" result="shape"/>
</filter>
<filter id="filter13_d_713_3250" x="278.176" y="32.8015" width="42.6785" height="43.9487" filterUnits="userSpaceOnUse" color-interpolation-filters="sRGB">
<feFlood flood-opacity="0" result="BackgroundImageFix"/>
<feColorMatrix in="SourceAlpha" type="matrix" values="0 0 0 0 0 0 0 0 0 0 0 0 0 0 0 0 0 0 127 0" result="hardAlpha"/>
<feOffset dy="-1"/>
<feComposite in2="hardAlpha" operator="out"/>
<feColorMatrix type="matrix" values="0 0 0 0 0.0588235 0 0 0 0 0.0901961 0 0 0 0 0.164706 0 0 0 1 0"/>
<feBlend mode="normal" in2="BackgroundImageFix" result="effect1_dropShadow_713_3250"/>
<feBlend mode="normal" in="SourceGraphic" in2="effect1_dropShadow_713_3250" result="shape"/>
</filter>
<filter id="filter14_d_713_3250" x="287.024" y="39.8464" width="24.7716" height="32.8716" filterUnits="userSpaceOnUse" color-interpolation-filters="sRGB">
<feFlood flood-opacity="0" result="BackgroundImageFix"/>
<feColorMatrix in="SourceAlpha" type="matrix" values="0 0 0 0 0 0 0 0 0 0 0 0 0 0 0 0 0 0 127 0" result="hardAlpha"/>
<feOffset dy="1"/>
<feComposite in2="hardAlpha" operator="out"/>
<feColorMatrix type="matrix" values="0 0 0 0 0.0588235 0 0 0 0 0.0901961 0 0 0 0 0.164706 0 0 0 1 0"/>
<feBlend mode="normal" in2="BackgroundImageFix" result="effect1_dropShadow_713_3250"/>
<feBlend mode="normal" in="SourceGraphic" in2="effect1_dropShadow_713_3250" result="shape"/>
</filter>
<filter id="filter15_d_713_3250" x="232.864" y="78.7083" width="38.6743" height="36.9294" filterUnits="userSpaceOnUse" color-interpolation-filters="sRGB">
<feFlood flood-opacity="0" result="BackgroundImageFix"/>
<feColorMatrix in="SourceAlpha" type="matrix" values="0 0 0 0 0 0 0 0 0 0 0 0 0 0 0 0 0 0 127 0" result="hardAlpha"/>
<feOffset dy="3"/>
<feComposite in2="hardAlpha" operator="out"/>
<feColorMatrix type="matrix" values="0 0 0 0 0.0588235 0 0 0 0 0.0901961 0 0 0 0 0.164706 0 0 0 1 0"/>
<feBlend mode="normal" in2="BackgroundImageFix" result="effect1_dropShadow_713_3250"/>
<feBlend mode="normal" in="SourceGraphic" in2="effect1_dropShadow_713_3250" result="shape"/>
</filter>
<filter id="filter16_d_713_3250" x="236.008" y="80.5815" width="31.5696" height="28.7852" filterUnits="userSpaceOnUse" color-interpolation-filters="sRGB">
<feFlood flood-opacity="0" result="BackgroundImageFix"/>
<feColorMatrix in="SourceAlpha" type="matrix" values="0 0 0 0 0 0 0 0 0 0 0 0 0 0 0 0 0 0 127 0" result="hardAlpha"/>
<feOffset dy="-1"/>
<feComposite in2="hardAlpha" operator="out"/>
<feColorMatrix type="matrix" values="0 0 0 0 0.0588235 0 0 0 0 0.0901961 0 0 0 0 0.164706 0 0 0 1 0"/>
<feBlend mode="normal" in2="BackgroundImageFix" result="effect1_dropShadow_713_3250"/>
<feBlend mode="normal" in="SourceGraphic" in2="effect1_dropShadow_713_3250" result="shape"/>
</filter>
<filter id="filter17_d_713_3250" x="239.674" y="86.4597" width="24.1855" height="18.0344" filterUnits="userSpaceOnUse" color-interpolation-filters="sRGB">
<feFlood flood-opacity="0" result="BackgroundImageFix"/>
<feColorMatrix in="SourceAlpha" type="matrix" values="0 0 0 0 0 0 0 0 0 0 0 0 0 0 0 0 0 0 127 0" result="hardAlpha"/>
<feOffset dy="1"/>
<feComposite in2="hardAlpha" operator="out"/>
<feColorMatrix type="matrix" values="0 0 0 0 0.0588235 0 0 0 0 0.0901961 0 0 0 0 0.164706 0 0 0 1 0"/>
<feBlend mode="normal" in2="BackgroundImageFix" result="effect1_dropShadow_713_3250"/>
<feBlend mode="normal" in="SourceGraphic" in2="effect1_dropShadow_713_3250" result="shape"/>
</filter>
<filter id="filter18_d_713_3250" x="194.149" y="88.7905" width="51.2614" height="54.9199" filterUnits="userSpaceOnUse" color-interpolation-filters="sRGB">
<feFlood flood-opacity="0" result="BackgroundImageFix"/>
<feColorMatrix in="SourceAlpha" type="matrix" values="0 0 0 0 0 0 0 0 0 0 0 0 0 0 0 0 0 0 127 0" result="hardAlpha"/>
<feOffset dy="3"/>
<feComposite in2="hardAlpha" operator="out"/>
<feColorMatrix type="matrix" values="0 0 0 0 0.0588235 0 0 0 0 0.0901961 0 0 0 0 0.164706 0 0 0 1 0"/>
<feBlend mode="normal" in2="BackgroundImageFix" result="effect1_dropShadow_713_3250"/>
<feBlend mode="normal" in="SourceGraphic" in2="effect1_dropShadow_713_3250" result="shape"/>
</filter>
<filter id="filter19_d_713_3250" x="198.816" y="93.2637" width="41.576" height="43.1006" filterUnits="userSpaceOnUse" color-interpolation-filters="sRGB">
<feFlood flood-opacity="0" result="BackgroundImageFix"/>
<feColorMatrix in="SourceAlpha" type="matrix" values="0 0 0 0 0 0 0 0 0 0 0 0 0 0 0 0 0 0 127 0" result="hardAlpha"/>
<feOffset dy="-1"/>
<feComposite in2="hardAlpha" operator="out"/>
<feColorMatrix type="matrix" values="0 0 0 0 0.0588235 0 0 0 0 0.0901961 0 0 0 0 0.164706 0 0 0 1 0"/>
<feBlend mode="normal" in2="BackgroundImageFix" result="effect1_dropShadow_713_3250"/>
<feBlend mode="normal" in="SourceGraphic" in2="effect1_dropShadow_713_3250" result="shape"/>
</filter>
<filter id="filter20_d_713_3250" x="207.299" y="98.9495" width="23.0817" height="33.8958" filterUnits="userSpaceOnUse" color-interpolation-filters="sRGB">
<feFlood flood-opacity="0" result="BackgroundImageFix"/>
<feColorMatrix in="SourceAlpha" type="matrix" values="0 0 0 0 0 0 0 0 0 0 0 0 0 0 0 0 0 0 127 0" result="hardAlpha"/>
<feOffset dy="1"/>
<feComposite in2="hardAlpha" operator="out"/>
<feColorMatrix type="matrix" values="0 0 0 0 0.0588235 0 0 0 0 0.0901961 0 0 0 0 0.164706 0 0 0 1 0"/>
<feBlend mode="normal" in2="BackgroundImageFix" result="effect1_dropShadow_713_3250"/>
<feBlend mode="normal" in="SourceGraphic" in2="effect1_dropShadow_713_3250" result="shape"/>
</filter>
<filter id="filter21_d_713_3250" x="292.871" y="92.593" width="52.919" height="49.7107" filterUnits="userSpaceOnUse" color-interpolation-filters="sRGB">
<feFlood flood-opacity="0" result="BackgroundImageFix"/>
<feColorMatrix in="SourceAlpha" type="matrix" values="0 0 0 0 0 0 0 0 0 0 0 0 0 0 0 0 0 0 127 0" result="hardAlpha"/>
<feOffset dy="3"/>
<feComposite in2="hardAlpha" operator="out"/>
<feColorMatrix type="matrix" values="0 0 0 0 0.0588235 0 0 0 0 0.0901961 0 0 0 0 0.164706 0 0 0 1 0"/>
<feBlend mode="normal" in2="BackgroundImageFix" result="effect1_dropShadow_713_3250"/>
<feBlend mode="normal" in="SourceGraphic" in2="effect1_dropShadow_713_3250" result="shape"/>
</filter>
<filter id="filter22_d_713_3250" x="297.327" y="96.2676" width="42.9012" height="38.9519" filterUnits="userSpaceOnUse" color-interpolation-filters="sRGB">
<feFlood flood-opacity="0" result="BackgroundImageFix"/>
<feColorMatrix in="SourceAlpha" type="matrix" values="0 0 0 0 0 0 0 0 0 0 0 0 0 0 0 0 0 0 127 0" result="hardAlpha"/>
<feOffset dy="-1"/>
<feComposite in2="hardAlpha" operator="out"/>
<feColorMatrix type="matrix" values="0 0 0 0 0.0588235 0 0 0 0 0.0901961 0 0 0 0 0.164706 0 0 0 1 0"/>
<feBlend mode="normal" in2="BackgroundImageFix" result="effect1_dropShadow_713_3250"/>
<feBlend mode="normal" in="SourceGraphic" in2="effect1_dropShadow_713_3250" result="shape"/>
</filter>
<filter id="filter23_d_713_3250" x="302.094" y="104.645" width="32.3949" height="24.1072" filterUnits="userSpaceOnUse" color-interpolation-filters="sRGB">
<feFlood flood-opacity="0" result="BackgroundImageFix"/>
<feColorMatrix in="SourceAlpha" type="matrix" values="0 0 0 0 0 0 0 0 0 0 0 0 0 0 0 0 0 0 127 0" result="hardAlpha"/>
<feOffset dy="1"/>
<feComposite in2="hardAlpha" operator="out"/>
<feColorMatrix type="matrix" values="0 0 0 0 0.0588235 0 0 0 0 0.0901961 0 0 0 0 0.164706 0 0 0 1 0"/>
<feBlend mode="normal" in2="BackgroundImageFix" result="effect1_dropShadow_713_3250"/>
<feBlend mode="normal" in="SourceGraphic" in2="effect1_dropShadow_713_3250" result="shape"/>
</filter>
<filter id="filter24_d_713_3250" x="334.02" y="53.1794" width="39.1548" height="34.7546" filterUnits="userSpaceOnUse" color-interpolation-filters="sRGB">
<feFlood flood-opacity="0" result="BackgroundImageFix"/>
<feColorMatrix in="SourceAlpha" type="matrix" values="0 0 0 0 0 0 0 0 0 0 0 0 0 0 0 0 0 0 127 0" result="hardAlpha"/>
<feOffset dy="3"/>
<feComposite in2="hardAlpha" operator="out"/>
<feColorMatrix type="matrix" values="0 0 0 0 0.0588235 0 0 0 0 0.0901961 0 0 0 0 0.164706 0 0 0 1 0"/>
<feBlend mode="normal" in2="BackgroundImageFix" result="effect1_dropShadow_713_3250"/>
<feBlend mode="normal" in="SourceGraphic" in2="effect1_dropShadow_713_3250" result="shape"/>
</filter>
<filter id="filter25_d_713_3250" x="337.207" y="55.2583" width="31.9462" height="27.0593" filterUnits="userSpaceOnUse" color-interpolation-filters="sRGB">
<feFlood flood-opacity="0" result="BackgroundImageFix"/>
<feColorMatrix in="SourceAlpha" type="matrix" values="0 0 0 0 0 0 0 0 0 0 0 0 0 0 0 0 0 0 127 0" result="hardAlpha"/>
<feOffset dy="-1"/>
<feComposite in2="hardAlpha" operator="out"/>
<feColorMatrix type="matrix" values="0 0 0 0 0.0588235 0 0 0 0 0.0901961 0 0 0 0 0.164706 0 0 0 1 0"/>
<feBlend mode="normal" in2="BackgroundImageFix" result="effect1_dropShadow_713_3250"/>
<feBlend mode="normal" in="SourceGraphic" in2="effect1_dropShadow_713_3250" result="shape"/>
</filter>
<filter id="filter26_d_713_3250" x="340.499" y="61.0432" width="24.677" height="17.4861" filterUnits="userSpaceOnUse" color-interpolation-filters="sRGB">
<feFlood flood-opacity="0" result="BackgroundImageFix"/>
<feColorMatrix in="SourceAlpha" type="matrix" values="0 0 0 0 0 0 0 0 0 0 0 0 0 0 0 0 0 0 127 0" result="hardAlpha"/>
<feOffset dy="1"/>
<feComposite in2="hardAlpha" operator="out"/>
<feColorMatrix type="matrix" values="0 0 0 0 0.0588235 0 0 0 0 0.0901961 0 0 0 0 0.164706 0 0 0 1 0"/>
<feBlend mode="normal" in2="BackgroundImageFix" result="effect1_dropShadow_713_3250"/>
<feBlend mode="normal" in="SourceGraphic" in2="effect1_dropShadow_713_3250" result="shape"/>
</filter>
<filter id="filter27_d_713_3250" x="5.95613" y="15.9407" width="128.456" height="116.913" filterUnits="userSpaceOnUse" color-interpolation-filters="sRGB">
<feFlood flood-opacity="0" result="BackgroundImageFix"/>
<feColorMatrix in="SourceAlpha" type="matrix" values="0 0 0 0 0 0 0 0 0 0 0 0 0 0 0 0 0 0 127 0" result="hardAlpha"/>
<feOffset dy="3"/>
<feComposite in2="hardAlpha" operator="out"/>
<feColorMatrix type="matrix" values="0 0 0 0 0.0588235 0 0 0 0 0.0901961 0 0 0 0 0.164706 0 0 0 1 0"/>
<feBlend mode="normal" in2="BackgroundImageFix" result="effect1_dropShadow_713_3250"/>
<feBlend mode="normal" in="SourceGraphic" in2="effect1_dropShadow_713_3250" result="shape"/>
</filter>
<linearGradient id="paint0_linear_713_3250" x1="148.771" y1="68.2345" x2="222.454" y2="109.266" gradientUnits="userSpaceOnUse">
<stop offset="0.0102275" stop-color="white"/>
<stop offset="0.431088" stop-color="white"/>
<stop offset="0.432344" stop-color="#FFDE76"/>
<stop offset="0.869792" stop-color="#FFDE76"/>
</linearGradient>
<linearGradient id="paint1_linear_713_3250" x1="219.557" y1="55.5883" x2="288.281" y2="89.5628" gradientUnits="userSpaceOnUse">
<stop offset="0.0102275" stop-color="white"/>
<stop offset="0.431088" stop-color="white"/>
<stop offset="0.432344" stop-color="#FFDE76"/>
<stop offset="0.869792" stop-color="#FFDE76"/>
</linearGradient>
<linearGradient id="paint2_linear_713_3250" x1="191.509" y1="120.263" x2="173.537" y2="35.5288" gradientUnits="userSpaceOnUse">
<stop offset="0.0102275" stop-color="white"/>
<stop offset="0.431088" stop-color="white"/>
<stop offset="0.432344" stop-color="#FFDE76"/>
<stop offset="0.869792" stop-color="#FFDE76"/>
</linearGradient>
<linearGradient id="paint3_linear_713_3250" x1="417.713" y1="125.66" x2="394.601" y2="68.4365" gradientUnits="userSpaceOnUse">
<stop offset="0.0102275" stop-color="white"/>
<stop offset="0.431088" stop-color="white"/>
<stop offset="0.432344" stop-color="#FFDE76"/>
<stop offset="0.869792" stop-color="#FFDE76"/>
</linearGradient>
<linearGradient id="paint4_linear_713_3250" x1="311.586" y1="111.078" x2="345.209" y2="2.19071" gradientUnits="userSpaceOnUse">
<stop offset="0.0102275" stop-color="white"/>
<stop offset="0.431088" stop-color="white"/>
<stop offset="0.432344" stop-color="#FFDE76"/>
<stop offset="0.869792" stop-color="#FFDE76"/>
</linearGradient>
<linearGradient id="paint5_linear_713_3250" x1="217.779" y1="69.7535" x2="238.182" y2="144.384" gradientUnits="userSpaceOnUse">
<stop offset="0.0102275" stop-color="white"/>
<stop offset="0.431088" stop-color="white"/>
<stop offset="0.432344" stop-color="#FFDE76"/>
<stop offset="0.869792" stop-color="#FFDE76"/>
</linearGradient>
<linearGradient id="paint6_linear_713_3250" x1="190.899" y1="163.273" x2="287.779" y2="108.426" gradientUnits="userSpaceOnUse">
<stop offset="0.0102275" stop-color="white"/>
<stop offset="0.431088" stop-color="white"/>
<stop offset="0.432344" stop-color="#FFDE76"/>
<stop offset="0.869792" stop-color="#FFDE76"/>
</linearGradient>
<linearGradient id="paint7_linear_713_3250" x1="262.586" y1="133.47" x2="361.417" y2="171.545" gradientUnits="userSpaceOnUse">
<stop offset="0.0102275" stop-color="white"/>
<stop offset="0.431088" stop-color="white"/>
<stop offset="0.432344" stop-color="#FFDE76"/>
<stop offset="0.869792" stop-color="#FFDE76"/>
</linearGradient>
<linearGradient id="paint8_linear_713_3250" x1="311.316" y1="84.3259" x2="376.405" y2="115.074" gradientUnits="userSpaceOnUse">
<stop offset="0.0102275" stop-color="white"/>
<stop offset="0.431088" stop-color="white"/>
<stop offset="0.432344" stop-color="#FFDE76"/>
<stop offset="0.869792" stop-color="#FFDE76"/>
</linearGradient>
<linearGradient id="paint9_linear_713_3250" x1="134.749" y1="64.5902" x2="143.205" y2="-0.4461" gradientUnits="userSpaceOnUse">
<stop offset="0.0102275" stop-color="#BAC0CB"/>
<stop offset="0.430988" stop-color="#BAC0CB"/>
<stop offset="0.432344" stop-color="white"/>
<stop offset="0.869792" stop-color="white"/>
</linearGradient>
<linearGradient id="paint10_linear_713_3250" x1="97.8447" y1="152.69" x2="106.514" y2="61.5419" gradientUnits="userSpaceOnUse">
<stop offset="0.0102275" stop-color="#BAC0CB"/>
<stop offset="0.430988" stop-color="#BAC0CB"/>
<stop offset="0.432344" stop-color="white"/>
<stop offset="0.869792" stop-color="white"/>
</linearGradient>
</defs>
</svg>
