<svg width="279" height="157" viewBox="0 0 279 157" fill="none" xmlns="http://www.w3.org/2000/svg">
<path d="M130.178 137.329C129.608 137.809 126.884 131.909 125.57 129.904C126.03 129.869 127.127 129.748 127.837 129.535C128.546 129.323 129.504 128.294 129.824 128.121C130.114 128.679 130.425 130.687 130.696 132.273C130.968 133.858 130.89 136.729 130.178 137.329Z" fill="#E3F2FD" stroke="black" stroke-width="0.5"/>
<path d="M116.069 144.033C116.796 144.049 115.36 135.63 115.218 133.187C114.837 133.455 113.808 133.752 113.128 134.038C112.448 134.324 111.324 134 110.972 134.068C111.071 134.699 112.327 139.21 113.169 140.908C113.699 141.976 115.16 144.012 116.069 144.033Z" fill="#E3F2FD" stroke="black" stroke-width="0.5"/>
<path d="M123.948 145.576C123.232 145.692 123.525 136.848 123.239 134.416C123.662 134.628 125.204 134.819 125.925 135.009C126.647 135.199 127.701 134.725 128.06 134.743C128.072 135.38 126.931 139.926 126.661 140.828C126.324 141.956 124.843 145.431 123.948 145.576Z" fill="#E3F2FD" stroke="black" stroke-width="0.5"/>
<path d="M121.353 146.626C120.668 146.863 119.016 138.332 118.367 135.969C118.814 136.108 120.358 136.033 121.095 136.098C121.833 136.163 122.796 135.513 123.152 135.47C123.261 136.099 123.175 141.776 123.046 142.717C122.885 143.893 122.21 146.33 121.353 146.626Z" fill="#E3F2FD" stroke="black" stroke-width="0.5"/>
<path d="M119.471 145.982C120.195 145.93 118.759 137.528 118.415 135.102C118.059 135.405 116.612 135.943 115.96 136.293C115.309 136.643 114.165 136.425 113.821 136.525C113.972 137.146 116.308 142.326 116.8 143.139C117.415 144.156 118.566 146.046 119.471 145.982Z" fill="#E3F2FD" stroke="black" stroke-width="0.5"/>
<path d="M192 150.5C192.727 150.517 190.963 141.013 190.821 138.571C190.44 138.838 189.41 139.135 188.731 139.421C188.051 139.707 186.927 139.384 186.575 139.451C186.674 140.082 187.929 144.593 188.772 146.291C189.302 147.359 191.091 150.479 192 150.5Z" fill="#E3F2FD" stroke="black" stroke-width="0.5"/>
<path d="M199.551 150.959C198.835 151.075 199.128 142.231 198.842 139.799C199.265 140.012 200.807 140.202 201.528 140.392C202.25 140.582 203.304 140.108 203.663 140.126C203.675 140.763 202.534 145.309 202.264 146.211C201.927 147.339 200.446 150.814 199.551 150.959Z" fill="#E3F2FD" stroke="black" stroke-width="0.5"/>
<path d="M197 151.5C196.314 151.737 194.619 143.715 193.97 141.352C194.417 141.491 195.961 141.416 196.698 141.481C197.436 141.546 198.399 140.896 198.755 140.853C198.863 141.483 198.777 147.159 198.649 148.1C198.488 149.276 197.857 151.203 197 151.5Z" fill="#E3F2FD" stroke="black" stroke-width="0.5"/>
<path d="M195.074 151.365C195.798 151.313 194.362 142.911 194.018 140.485C193.662 140.788 192.215 141.327 191.563 141.676C190.911 142.026 189.768 141.808 189.424 141.908C189.575 142.529 191.508 146.686 192 147.5C192.615 148.517 194.169 151.429 195.074 151.365Z" fill="#E3F2FD" stroke="black" stroke-width="0.5"/>
<path d="M130.358 119.929C130.358 114.959 131.724 86.1297 134 64.7564C128.537 61.9397 117.336 56.7041 116.244 58.2947C114.878 60.2829 110.325 87.1238 109.414 103.03C108.504 118.935 108.959 130.865 112.146 136.829C115.333 142.794 123.984 143.788 127.171 138.817C130.358 133.847 130.358 124.9 130.358 119.929Z" fill="#0598ED" stroke="black" stroke-width="0.5"/>
<path d="M205.032 126.175C204.843 121.179 205.043 92.1506 206.394 70.584C201.09 67.9497 190.238 63.0906 189.259 64.7289C188.035 66.7767 184.728 93.9215 184.468 109.943C184.208 125.964 185.095 137.939 188.354 143.82C191.612 149.701 199.878 150.388 202.72 145.277C205.562 140.165 205.221 131.172 205.032 126.175Z" fill="#0598ED" stroke="black" stroke-width="0.5"/>
<path d="M230.862 65.5544C249.408 64.9055 262.955 62.2626 268 60L273.66 84.0077C272.818 84.4628 268.107 86.7306 251.542 88.8147C230.115 91.5105 210.944 90.0582 192.427 88.8349C173.909 87.6116 165.917 86.0833 149.447 82.0828C136.271 78.8824 124.298 77.7917 118.467 76.9211C112.449 77.296 95.7727 80.1274 89.3444 81.1514C81.3089 82.4313 71.3135 80.872 60.3091 79.7651C51.5057 78.8796 46.3287 76.7395 44.8406 75.7801C46.1714 76.1128 50.3355 76.8016 56.3458 76.8947C63.8587 77.0112 75.3784 77.1897 87.428 75.5038C97.0676 74.155 103.862 71.0769 106.054 69.7063C102.231 68.5547 92.8821 66.2252 86.0705 66.1196C77.5559 65.9876 63.6044 61.0898 56.6142 59.577C49.6239 58.0642 40.1802 53.2363 28.1596 53.05C18.5431 52.901 6.05901 56.7649 1.01901 58.7155C6.90344 56.1538 20.5799 50.779 28.2104 49.7737C37.7484 48.517 44.7314 50.4978 56.7085 53.4924C66.2901 55.8881 77.3961 54.7493 81.7513 53.8805C74.4755 49.2422 57.8305 39.2778 49.4567 36.5263C41.0829 33.7749 31.992 32.0423 28.4932 31.5199C33.676 31.1321 47.2326 31.3421 59.9965 35.2852C75.9514 40.214 92.2911 52.6394 113.24 58.5819C134.189 64.5245 207.838 66.36 230.862 65.5544Z" fill="#10182B" stroke="#10182B" stroke-width="0.5"/>
<path d="M139.428 144.83C140.153 145.191 141.518 138.264 142.392 135.81C141.898 135.892 140.708 136.044 139.904 136.002C139.101 135.959 137.825 135.117 137.443 135.017C137.28 135.68 137.466 137.88 137.585 139.624C137.704 141.368 138.522 144.379 139.428 144.83Z" fill="#E3F2FD" stroke="black"/>
<path d="M157.491 150.5C156.724 150.69 156.256 141.421 155.829 138.797C156.296 138.991 157.458 139.062 158.246 139.205C159.035 139.348 160.15 138.739 160.539 138.727C160.583 139.419 160.319 144.5 159.827 146.5C159.518 147.758 158.45 150.263 157.491 150.5Z" fill="#E3F2FD" stroke="black"/>
<path d="M149.5 154C150.286 153.954 147.884 144.644 147.613 141.997C147.215 142.322 145.625 142.889 144.904 143.261C144.184 143.633 142.954 143.379 142.578 143.484C142.715 144.162 145.001 148.713 145.5 149.606C146.124 150.722 148.517 154.058 149.5 154Z" fill="#E3F2FD" stroke="black"/>
<path d="M152.5 154.5C153.283 154.59 153.018 145.152 153.147 142.492C152.705 142.745 151.051 143.031 150.284 143.274C149.517 143.517 148.342 143.056 147.954 143.094C147.988 143.788 149.422 149.787 149.781 150.755C150.229 151.964 151.521 154.388 152.5 154.5Z" fill="#E3F2FD" stroke="black"/>
<path d="M154.343 153.372C153.563 153.488 153.1 144.238 152.891 141.584C153.34 141.821 155.002 142.05 155.776 142.266C156.55 142.483 157.711 141.981 158.099 142.006C158.086 142.7 156.834 148.746 156.505 149.726C156.093 150.95 155.318 153.226 154.343 153.372Z" fill="#E3F2FD" stroke="black"/>
<path d="M227.543 148.328C226.841 148.691 224.237 139.783 223.213 137.33C223.712 137.41 224.859 137.21 225.66 137.166C226.46 137.122 227.403 136.271 227.779 136.169C227.983 136.833 228.903 141.836 228.888 143.896C228.879 145.192 228.422 147.875 227.543 148.328Z" fill="#E3F2FD" stroke="black"/>
<path d="M220.581 153.586C221.336 153.358 216.841 144.859 215.963 142.347C215.651 142.756 214.236 143.676 213.621 144.204C213.007 144.733 211.752 144.772 211.41 144.961C211.701 145.589 214.979 149.486 215.672 150.239C216.538 151.18 219.639 153.87 220.581 153.586Z" fill="#E3F2FD" stroke="black"/>
<path d="M223.616 153.377C224.398 153.282 221.952 144.163 221.461 141.546C221.09 141.894 219.547 142.556 218.857 142.97C218.168 143.384 216.917 143.208 216.549 143.335C216.743 144.002 219.529 149.506 220.102 150.363C220.819 151.436 222.638 153.495 223.616 153.377Z" fill="#E3F2FD" stroke="black"/>
<path d="M225.147 151.851C224.416 152.146 221.82 143.255 221.001 140.722C221.493 140.848 223.163 140.685 223.966 140.717C224.769 140.748 225.782 139.991 226.166 139.925C226.314 140.603 226.498 146.775 226.404 147.804C226.287 149.09 226.062 151.484 225.147 151.851Z" fill="#E3F2FD" stroke="black"/>
<g filter="url(#filter0_d_713_3258)">
<path d="M141 27.9999C141.357 30.5 141.5 33.0001 141.5 34C142 34.3334 143.2 34.7 146 35.5C149.5 36.5 154 36.5 161.5 37C169 37.5 187 38 198.5 40C210 42 221 49 225.5 57.5C229.1 64.3 228 78.6667 227 85C226.5 89 225.5 99.2 225.5 108C225.5 119 226.812 128 228.5 137C229.812 144 224.81 148 220 148C212.5 148 208 141 206.5 136C205 131 203 122.5 202.5 110.5C202 98.5 202.5 86.5 203 81.5C201.667 82.1667 199.1 83.6 197.5 84C195.5 84.5 192 85.5 187.5 85.5C183 85.5 175.5 85 168.5 82.5C162.9 80.5 157.5 76.6667 155.5 75C155.333 80.3333 155 92.5 155.5 99C156.114 106.976 156.5 115 159.5 127C162.5 139 161 144 155 146C148.342 148.219 141.5 143 139 138C135.5 131 132 118.5 130.5 103.5C129.3 91.5 129.333 76.1667 129.5 70L127.5 69L126 67C126 68 125.7 70 124.5 70C123.3 70 122 66.3333 121.5 64.5C120.833 65.3333 119.2 66.9 118 66.5C116.8 66.1 116.833 61.6667 117 59.5C113 59.6667 105.5 59.5 100 57C95.6 55 91 51.3333 89.5 49.5C89.5 48.1667 89.6 44.6 90 41C90.4 37.4 91.8333 33.8333 92.5 32.5C91.8333 32.6667 90.3 33 89.5 33C88.7 33 89.5 31 90 30C89.3333 30.1667 87.9 30.4 87.5 30C87 29.5 87.5 27.9999 89 26C90.2 24.4001 93.5 22 95 21C94.5 20.8333 93.5 20.4 93.5 20C93.5 19.5 95 18 98.5 17.4999C101.3 17.0999 105.333 17.3332 107 17.4999C106.667 17.1666 106.2 16.3 107 15.5C107.8 14.7 113.667 15.8333 116.5 16.5C116.5 16.1666 116.8 15.3999 118 14.9999C119.5 14.4999 124.5 15.9999 129 17.4999C132.6 18.6999 137.333 21 139.5 22.5C139.667 22.8333 140.6 25.1999 141 27.9999Z" fill="#8CCCF9"/>
<path d="M141 27.9999C141.357 30.5 141.5 33.0001 141.5 34C142 34.3334 143.2 34.7 146 35.5C149.5 36.5 154 36.5 161.5 37C169 37.5 187 38 198.5 40C210 42 221 49 225.5 57.5C229.1 64.3 228 78.6667 227 85C226.5 89 225.5 99.2 225.5 108C225.5 119 226.812 128 228.5 137C229.812 144 224.81 148 220 148C212.5 148 208 141 206.5 136C205 131 203 122.5 202.5 110.5C202 98.5 202.5 86.5 203 81.5C201.667 82.1667 199.1 83.6 197.5 84C195.5 84.5 192 85.5 187.5 85.5C183 85.5 175.5 85 168.5 82.5C162.9 80.5 157.5 76.6667 155.5 75C155.333 80.3333 155 92.5 155.5 99C156.114 106.976 156.5 115 159.5 127C162.5 139 161 144 155 146C148.342 148.219 141.5 143 139 138C135.5 131 132 118.5 130.5 103.5C129.3 91.5 129.333 76.1667 129.5 70L127.5 69L126 67C126 68 125.7 70 124.5 70C123.3 70 122 66.3333 121.5 64.5C120.833 65.3333 119.2 66.9 118 66.5C116.8 66.1 116.833 61.6667 117 59.5C113 59.6667 105.5 59.5 100 57C95.6 55 91 51.3333 89.5 49.5C89.5 48.1667 89.6 44.6 90 41C90.4 37.4 91.8333 33.8333 92.5 32.5C91.8333 32.6667 90.3 33 89.5 33C88.7 33 89.5 31 90 30C89.3333 30.1667 87.9 30.4 87.5 30C87 29.5 87.5 27.9999 89 26C90.2 24.4001 93.5 22 95 21C94.5 20.8333 93.5 20.4 93.5 20C93.5 19.5 95 18 98.5 17.4999C101.3 17.0999 105.333 17.3332 107 17.4999C106.667 17.1666 106.2 16.3 107 15.5C107.8 14.7 113.667 15.8333 116.5 16.5C116.5 16.1666 116.8 15.3999 118 14.9999C119.5 14.4999 124.5 15.9999 129 17.4999C132.6 18.6999 137.333 21 139.5 22.5C139.667 22.8333 140.6 25.1999 141 27.9999Z" stroke="#10182B"/>
</g>
<path d="M89.5 48.9999L91 50.5L92 51.5L94 53.0001C102.5 56.8195 108.324 57.0518 113.393 56.8197C118.016 56.6081 123.33 54.7032 125.5 53.4999C125.926 53.1656 128.5 52.2563 133.5 45.9999C138.785 39.3864 141 27.5731 139.5 22.4999L135 19.9999L130.391 18.3202L126.5 16.9999L121.5 15.4999L111 19.5L95 28.5L92.5 33L90 38.5L89.5 41.4999L89.5 44.6124L89.5 48.9999Z" fill="#E3F2FD"/>
<path d="M98 30.5C93.2 33.3 90.8333 40.3333 90 43C90 41.8334 91 37 91 37C91 37 92 33.6667 92.5 32.5C91.6667 32.6667 89.9 32.9 89.5 32.5C89.1 32.1 89.6667 30.6665 90 29.9998C89.3333 30.1665 87.9 30.4 87.5 29.9998C87 29.4996 88.5 26 90 24.5C91.2 23.3 93.8333 21.6667 95 21C94.5 20.8333 93.5 20.3 93.5 19.5C93.5 18.5 97.5 17.5 100 17.5H107C106.833 17.1667 106.6 16.3 107 15.4999C107.4 14.6998 109.5 15.1665 110.5 15.4999L116.5 16.5C116.5 16.1666 116.7 15.3999 117.5 14.9999C118.3 14.5999 120.833 15.1665 122 15.4999L129 17.5C125.5 17.5 118.769 17.1796 114.5 20.5C110 24 109.5 26.5 109 28.5C107 28 102.8 27.7 98 30.5Z" fill="#8CCCF9"/>
<path d="M171.5 76.5C163.1 77.3 157 75.1667 155 74C156.5 75.1667 160.3 78 163.5 80C167.5 82.5 175 84.5 183.5 85C192 85.5 194.5 84.5 198 83.5C200.8 82.7 202.833 81.1667 203.5 80.5C202.167 78.6667 197.8 74.9 191 74.5C182.5 74 182 75.5 171.5 76.5Z" fill="#C1E9FF"/>
<path d="M141 27.9999C141.357 30.5 141.5 33.0001 141.5 34C142 34.3334 143.2 34.7 146 35.5C149.5 36.5 154 36.5 161.5 37C169 37.5 187 38 198.5 40C210 42 221 49 225.5 57.5C229.1 64.3 228 78.6667 227 85C226.5 89 225.5 99.2 225.5 108C225.5 119 226.812 128 228.5 137C229.812 144 224.81 148 220 148C212.5 148 208 141 206.5 136C205 131 203 122.5 202.5 110.5C202 98.5 202.5 86.5 203 81.5C201.667 82.1667 199.1 83.6 197.5 84C195.5 84.5 192 85.5 187.5 85.5C183 85.5 175.5 85 168.5 82.5C162.9 80.5 157.5 76.6667 155.5 75C155.333 80.3333 155 92.5 155.5 99C156.114 106.976 156.5 115 159.5 127C162.5 139 161 144 155 146C148.342 148.219 141.5 143 139 138C135.5 131 132 118.5 130.5 103.5C129.3 91.5 129.333 76.1667 129.5 70L127.5 69L126 67C126 68 125.7 70 124.5 70C123.3 70 122 66.3333 121.5 64.5C120.833 65.3333 119.2 66.9 118 66.5C116.8 66.1 116.833 61.6667 117 59.5C113 59.6667 105.5 59.5 100 57C95.6 55 91 51.3333 89.5 49.5C89.5 48.1667 89.6 44.6 90 41C90.4 37.4 91.8333 33.8333 92.5 32.5C91.8333 32.6667 90.3 33 89.5 33C88.7 33 89.5 31 90 30C89.3333 30.1667 87.9 30.4 87.5 30C87 29.5 87.5 27.9999 89 26C90.2 24.4001 93.5 22 95 21C94.5 20.8333 93.5 20.4 93.5 20C93.5 19.5 95 18 98.5 17.4999C101.3 17.0999 105.333 17.3332 107 17.4999C106.667 17.1666 106.2 16.3 107 15.5C107.8 14.7 113.667 15.8333 116.5 16.5C116.5 16.1666 116.8 15.3999 118 14.9999C119.5 14.4999 124.5 15.9999 129 17.4999C132.6 18.6999 137.333 21 139.5 22.5C139.667 22.8333 140.6 25.1999 141 27.9999Z" stroke="#10182B"/>
<ellipse cx="102.063" cy="44.3113" rx="6.13982" ry="4.84723" transform="rotate(-54.1546 102.063 44.3113)" fill="#8CCCF9"/>
<ellipse cx="6.13982" cy="4.82982" rx="6.13982" ry="4.82982" transform="matrix(-0.993593 -0.113014 -0.113014 0.993593 133.294 27.6108)" fill="#8CCCF9"/>
<path d="M98.978 45.2715C99.4146 45.5869 100.745 46.4681 102.282 45.6649C103.819 44.8617 104.174 43.0454 104.101 42.5943" stroke="black" stroke-linecap="round"/>
<path d="M128.807 29.957C128.723 30.4891 128.412 32.0539 126.759 32.579C125.106 33.1041 123.567 32.0768 123.298 31.7074" stroke="black" stroke-linecap="round"/>
<path d="M113.402 42.3494C114.026 43.543 116.472 43.6506 117.38 43.5043C118.108 42.6554 119.112 40.6311 118.535 39.5268C117.958 38.4225 116.275 39.1822 115.197 39.8651C114.183 40.5074 112.825 41.2451 113.402 42.3494Z" fill="black"/>
<path d="M111.013 49.5808C111.727 49.6973 113.159 50.2535 114.696 49.4503C116.102 48.7154 116.689 46.7782 118.509 45.8269C120.43 44.823 122.181 45.3759 123.851 44.5033C125.131 43.8339 125.888 42.7862 126.573 41.2872" stroke="black" stroke-width="0.5" stroke-linecap="round"/>
<path d="M126.295 129.502C127.216 132.966 122.129 136.942 120.246 137.849C117.534 136.473 112.253 131.713 114.31 129.059C115.681 127.289 118.914 127.535 120.212 128.296C122.095 127.389 125.645 127.059 126.295 129.502Z" fill="#8CCCF9"/>
<path d="M201.762 136.908C202.683 140.372 197.596 144.348 195.713 145.255C193.002 143.879 187.72 139.119 189.777 136.465C191.149 134.695 194.381 134.941 195.679 135.702C197.563 134.795 201.113 134.465 201.762 136.908Z" fill="#8CCCF9"/>
<g filter="url(#filter1_d_713_3258)">
<path d="M181 36.5C171.8 35.7 154.833 35.5 147.5 35.5C150.5 38.5 154.9 44.9 158.5 52.5C163 62 167.714 68.5 169.714 69.5C171.714 70.5 192.786 67 208.5 73.5C222.771 79.403 239.5 87 239.5 87C239.5 87 236.5 84 232.5 72C228.964 61.3934 226.131 52.167 216 46C204.5 39 192.5 37.5 181 36.5Z" fill="#FFDF77"/>
<path d="M181 36.5C171.8 35.7 154.833 35.5 147.5 35.5C150.5 38.5 154.9 44.9 158.5 52.5C163 62 167.714 68.5 169.714 69.5C171.714 70.5 192.786 67 208.5 73.5C222.771 79.403 239.5 87 239.5 87C239.5 87 236.5 84 232.5 72C228.964 61.3934 226.131 52.167 216 46C204.5 39 192.5 37.5 181 36.5Z" stroke="black" stroke-width="0.5"/>
</g>
<path d="M141.5 34C141.5 36 141 39.5 140 41.5" stroke="#0E1526" stroke-linecap="round"/>
<path d="M122.5 58C121.5 58.5 118.718 59.2177 116.5 59.5" stroke="#10182B" stroke-linecap="round"/>
<mask id="path-38-outside-1_713_3258" maskUnits="userSpaceOnUse" x="206" y="0" width="24" height="24" fill="black">
<rect fill="white" x="206" width="24" height="24"/>
<path fill-rule="evenodd" clip-rule="evenodd" d="M218 1C217.325 1 216.778 1.54721 216.778 2.22222V10.7778H208.222C207.547 10.7778 207 11.325 207 12C207 12.675 207.547 13.2222 208.222 13.2222H216.778V21.7778C216.778 22.4528 217.325 23 218 23C218.675 23 219.222 22.4528 219.222 21.7778V13.2222H227.778C228.453 13.2222 229 12.675 229 12C229 11.325 228.453 10.7778 227.778 10.7778H219.222V2.22222C219.222 1.54721 218.675 1 218 1Z"/>
</mask>
<path fill-rule="evenodd" clip-rule="evenodd" d="M218 1C217.325 1 216.778 1.54721 216.778 2.22222V10.7778H208.222C207.547 10.7778 207 11.325 207 12C207 12.675 207.547 13.2222 208.222 13.2222H216.778V21.7778C216.778 22.4528 217.325 23 218 23C218.675 23 219.222 22.4528 219.222 21.7778V13.2222H227.778C228.453 13.2222 229 12.675 229 12C229 11.325 228.453 10.7778 227.778 10.7778H219.222V2.22222C219.222 1.54721 218.675 1 218 1Z" fill="#A9D355"/>
<path d="M216.778 10.7778V10.9778H216.978V10.7778H216.778ZM216.778 13.2222H216.978V13.0222H216.778V13.2222ZM219.222 13.2222V13.0222H219.022V13.2222H219.222ZM219.222 10.7778H219.022V10.9778H219.222V10.7778ZM216.978 2.22222C216.978 1.65766 217.435 1.2 218 1.2V0.8C217.215 0.8 216.578 1.43675 216.578 2.22222H216.978ZM216.978 10.7778V2.22222H216.578V10.7778H216.978ZM208.222 10.9778H216.778V10.5778H208.222V10.9778ZM207.2 12C207.2 11.4354 207.658 10.9778 208.222 10.9778V10.5778C207.437 10.5778 206.8 11.2145 206.8 12H207.2ZM208.222 13.0222C207.658 13.0222 207.2 12.5646 207.2 12H206.8C206.8 12.7855 207.437 13.4222 208.222 13.4222V13.0222ZM216.778 13.0222H208.222V13.4222H216.778V13.0222ZM216.978 21.7778V13.2222H216.578V21.7778H216.978ZM218 22.8C217.435 22.8 216.978 22.3423 216.978 21.7778H216.578C216.578 22.5632 217.215 23.2 218 23.2V22.8ZM219.022 21.7778C219.022 22.3423 218.565 22.8 218 22.8V23.2C218.785 23.2 219.422 22.5632 219.422 21.7778H219.022ZM219.022 13.2222V21.7778H219.422V13.2222H219.022ZM227.778 13.0222H219.222V13.4222H227.778V13.0222ZM228.8 12C228.8 12.5646 228.342 13.0222 227.778 13.0222V13.4222C228.563 13.4222 229.2 12.7855 229.2 12H228.8ZM227.778 10.9778C228.342 10.9778 228.8 11.4354 228.8 12H229.2C229.2 11.2145 228.563 10.5778 227.778 10.5778V10.9778ZM219.222 10.9778H227.778V10.5778H219.222V10.9778ZM219.022 2.22222V10.7778H219.422V2.22222H219.022ZM218 1.2C218.565 1.2 219.022 1.65766 219.022 2.22222H219.422C219.422 1.43675 218.785 0.8 218 0.8V1.2Z" fill="#A9D355" mask="url(#path-38-outside-1_713_3258)"/>
<mask id="path-40-outside-2_713_3258" maskUnits="userSpaceOnUse" x="259" y="115" width="20" height="20" fill="black">
<rect fill="white" x="259" y="115" width="20" height="20"/>
<path fill-rule="evenodd" clip-rule="evenodd" d="M269 116C268.448 116 268 116.448 268 117V124H261C260.448 124 260 124.448 260 125C260 125.552 260.448 126 261 126H268V133C268 133.552 268.448 134 269 134C269.552 134 270 133.552 270 133V126H277C277.552 126 278 125.552 278 125C278 124.448 277.552 124 277 124H270V117C270 116.448 269.552 116 269 116Z"/>
</mask>
<path fill-rule="evenodd" clip-rule="evenodd" d="M269 116C268.448 116 268 116.448 268 117V124H261C260.448 124 260 124.448 260 125C260 125.552 260.448 126 261 126H268V133C268 133.552 268.448 134 269 134C269.552 134 270 133.552 270 133V126H277C277.552 126 278 125.552 278 125C278 124.448 277.552 124 277 124H270V117C270 116.448 269.552 116 269 116Z" fill="#A9D355"/>
<path d="M268 124V124.3H268.3V124H268ZM268 126H268.3V125.7H268V126ZM270 126V125.7H269.7V126H270ZM270 124H269.7V124.3H270V124ZM268.3 117C268.3 116.613 268.613 116.3 269 116.3V115.7C268.282 115.7 267.7 116.282 267.7 117H268.3ZM268.3 124V117H267.7V124H268.3ZM261 124.3H268V123.7H261V124.3ZM260.3 125C260.3 124.613 260.613 124.3 261 124.3V123.7C260.282 123.7 259.7 124.282 259.7 125H260.3ZM261 125.7C260.613 125.7 260.3 125.387 260.3 125H259.7C259.7 125.718 260.282 126.3 261 126.3V125.7ZM268 125.7H261V126.3H268V125.7ZM268.3 133V126H267.7V133H268.3ZM269 133.7C268.613 133.7 268.3 133.387 268.3 133H267.7C267.7 133.718 268.282 134.3 269 134.3V133.7ZM269.7 133C269.7 133.387 269.387 133.7 269 133.7V134.3C269.718 134.3 270.3 133.718 270.3 133H269.7ZM269.7 126V133H270.3V126H269.7ZM277 125.7H270V126.3H277V125.7ZM277.7 125C277.7 125.387 277.387 125.7 277 125.7V126.3C277.718 126.3 278.3 125.718 278.3 125H277.7ZM277 124.3C277.387 124.3 277.7 124.613 277.7 125H278.3C278.3 124.282 277.718 123.7 277 123.7V124.3ZM270 124.3H277V123.7H270V124.3ZM269.7 117V124H270.3V117H269.7ZM269 116.3C269.387 116.3 269.7 116.613 269.7 117H270.3C270.3 116.282 269.718 115.7 269 115.7V116.3Z" fill="#A9D355" mask="url(#path-40-outside-2_713_3258)"/>
<mask id="path-42-outside-3_713_3258" maskUnits="userSpaceOnUse" x="44" y="99" width="28" height="28" fill="black">
<rect fill="white" x="44" y="99" width="28" height="28"/>
<path fill-rule="evenodd" clip-rule="evenodd" d="M58 100C57.2023 100 56.5556 100.647 56.5556 101.444V111.556H46.4444C45.6467 111.556 45 112.202 45 113C45 113.798 45.6467 114.444 46.4444 114.444H56.5556V124.556C56.5556 125.353 57.2023 126 58 126C58.7977 126 59.4444 125.353 59.4444 124.556V114.444H69.5556C70.3533 114.444 71 113.798 71 113C71 112.202 70.3533 111.556 69.5556 111.556H59.4444V101.444C59.4444 100.647 58.7977 100 58 100Z"/>
</mask>
<path fill-rule="evenodd" clip-rule="evenodd" d="M58 100C57.2023 100 56.5556 100.647 56.5556 101.444V111.556H46.4444C45.6467 111.556 45 112.202 45 113C45 113.798 45.6467 114.444 46.4444 114.444H56.5556V124.556C56.5556 125.353 57.2023 126 58 126C58.7977 126 59.4444 125.353 59.4444 124.556V114.444H69.5556C70.3533 114.444 71 113.798 71 113C71 112.202 70.3533 111.556 69.5556 111.556H59.4444V101.444C59.4444 100.647 58.7977 100 58 100Z" fill="#A9D355"/>
<path d="M56.5556 111.556V111.756H56.7556V111.556H56.5556ZM56.5556 114.444H56.7556V114.244H56.5556V114.444ZM59.4444 114.444V114.244H59.2444V114.444H59.4444ZM59.4444 111.556H59.2444V111.756H59.4444V111.556ZM56.7556 101.444C56.7556 100.757 57.3127 100.2 58 100.2V99.8C57.0918 99.8 56.3556 100.536 56.3556 101.444H56.7556ZM56.7556 111.556V101.444H56.3556V111.556H56.7556ZM46.4444 111.756H56.5556V111.356H46.4444V111.756ZM45.2 113C45.2 112.313 45.7572 111.756 46.4444 111.756V111.356C45.5362 111.356 44.8 112.092 44.8 113H45.2ZM46.4444 114.244C45.7572 114.244 45.2 113.687 45.2 113H44.8C44.8 113.908 45.5362 114.644 46.4444 114.644V114.244ZM56.5556 114.244H46.4444V114.644H56.5556V114.244ZM56.7556 124.556V114.444H56.3556V124.556H56.7556ZM58 125.8C57.3127 125.8 56.7556 125.243 56.7556 124.556H56.3556C56.3556 125.464 57.0918 126.2 58 126.2V125.8ZM59.2444 124.556C59.2444 125.243 58.6873 125.8 58 125.8V126.2C58.9082 126.2 59.6444 125.464 59.6444 124.556H59.2444ZM59.2444 114.444V124.556H59.6444V114.444H59.2444ZM69.5556 114.244H59.4444V114.644H69.5556V114.244ZM70.8 113C70.8 113.687 70.2428 114.244 69.5556 114.244V114.644C70.4638 114.644 71.2 113.908 71.2 113H70.8ZM69.5556 111.756C70.2428 111.756 70.8 112.313 70.8 113H71.2C71.2 112.092 70.4638 111.356 69.5556 111.356V111.756ZM59.4444 111.756H69.5556V111.356H59.4444V111.756ZM59.2444 101.444V111.556H59.6444V101.444H59.2444ZM58 100.2C58.6873 100.2 59.2444 100.757 59.2444 101.444H59.6444C59.6444 100.536 58.9082 99.8 58 99.8V100.2Z" fill="#A9D355" mask="url(#path-42-outside-3_713_3258)"/>
<defs>
<filter id="filter0_d_713_3258" x="86.8125" y="14.4019" width="142.4" height="135.098" filterUnits="userSpaceOnUse" color-interpolation-filters="sRGB">
<feFlood flood-opacity="0" result="BackgroundImageFix"/>
<feColorMatrix in="SourceAlpha" type="matrix" values="0 0 0 0 0 0 0 0 0 0 0 0 0 0 0 0 0 0 127 0" result="hardAlpha"/>
<feOffset dy="1"/>
<feComposite in2="hardAlpha" operator="out"/>
<feColorMatrix type="matrix" values="0 0 0 0 0.0627451 0 0 0 0 0.0941176 0 0 0 0 0.168627 0 0 0 1 0"/>
<feBlend mode="normal" in2="BackgroundImageFix" result="effect1_dropShadow_713_3258"/>
<feBlend mode="normal" in="SourceGraphic" in2="effect1_dropShadow_713_3258" result="shape"/>
</filter>
<filter id="filter1_d_713_3258" x="146.896" y="35.25" width="92.7807" height="52.9775" filterUnits="userSpaceOnUse" color-interpolation-filters="sRGB">
<feFlood flood-opacity="0" result="BackgroundImageFix"/>
<feColorMatrix in="SourceAlpha" type="matrix" values="0 0 0 0 0 0 0 0 0 0 0 0 0 0 0 0 0 0 127 0" result="hardAlpha"/>
<feOffset dy="1"/>
<feComposite in2="hardAlpha" operator="out"/>
<feColorMatrix type="matrix" values="0 0 0 0 0.0627451 0 0 0 0 0.0941176 0 0 0 0 0.168627 0 0 0 1 0"/>
<feBlend mode="normal" in2="BackgroundImageFix" result="effect1_dropShadow_713_3258"/>
<feBlend mode="normal" in="SourceGraphic" in2="effect1_dropShadow_713_3258" result="shape"/>
</filter>
</defs>
</svg>
