<svg width="40" height="40" viewBox="0 0 40 40" fill="none" xmlns="http://www.w3.org/2000/svg">
<g clip-path="url(#clip0_4891_95683)">
<path d="M7.88296 33.3226C5.86 33.4322 3.86376 32.7045 2.19489 31.2493C1.47391 30.5504 0.897945 29.6391 0.516796 28.5943C0.135648 27.5494 -0.0392048 26.4024 0.00736312 25.2525C0.0162505 24.5825 0.0650414 23.9143 0.153323 23.2536C0.406155 21.4739 0.765856 19.3391 1.23243 16.8491C2.5548 10.062 5.96739 6.66848 11.4702 6.66848C12.8494 6.63982 14.2189 6.96734 15.4953 7.63113C16.6284 8.19473 17.6032 9.1743 18.2954 10.4447C18.9933 11.7536 19.35 13.3075 19.3152 14.8874C19.3052 15.545 19.2564 16.2008 19.1692 16.8491C18.8773 19.0457 18.5274 21.1805 18.1195 23.2536C17.4396 26.6345 16.2632 29.1641 14.5902 30.8424C12.919 32.4959 10.6832 33.3226 7.88296 33.3226ZM8.29153 27.9916C9.30179 28.0271 10.2874 27.5927 11.0629 26.7701C11.9199 25.7837 12.503 24.4722 12.7252 23.0312C13.1727 20.7122 13.5126 18.6884 13.745 16.96C13.8233 16.4351 13.8623 15.9021 13.8617 15.3679C13.8617 13.1218 12.9381 11.9989 11.091 11.9995C10.0725 11.9685 9.07907 12.4019 8.29089 13.221C7.44969 14.2179 6.87797 15.5264 6.65726 16.96C6.30712 18.6135 5.95719 20.6372 5.60748 23.0312C5.52833 23.5433 5.48926 24.0641 5.49083 24.586C5.49083 26.8564 6.4244 27.9916 8.29153 27.9916Z" fill="#FF0420"/>
<path d="M20.6594 32.9536C20.5668 32.9605 20.4741 32.9408 20.3882 32.8959C20.3024 32.8511 20.2256 32.7824 20.1635 32.6947C20.0665 32.4958 20.0351 32.2563 20.0762 32.0282L24.1013 7.96508C24.137 7.69956 24.2509 7.46121 24.42 7.2985C24.5764 7.13479 24.7719 7.0435 24.9746 7.03964H32.7335C34.5603 6.92587 36.3711 7.51975 37.9257 8.74248C38.5649 9.27384 39.084 10.0074 39.4318 10.8708C39.7796 11.7343 39.9442 12.6978 39.9093 13.6666C39.9065 14.3145 39.8477 14.9602 39.734 15.5919C39.4123 18.0861 38.3601 20.3341 36.788 21.8855C35.3296 23.2429 33.3267 23.9217 30.7793 23.9217H26.8421L25.5004 32.029C25.4647 32.2945 25.3508 32.5328 25.1817 32.6955C25.0256 32.8591 24.8303 32.9504 24.6278 32.9544L20.6594 32.9536ZM30.9852 18.8115C31.7494 18.8329 32.498 18.5338 33.1147 17.9605C33.7493 17.3691 34.1863 16.4975 34.3398 15.5174C34.3939 15.1511 34.4232 14.7795 34.4271 14.4068C34.4437 14.1056 34.4078 13.8036 34.3221 13.522C34.2364 13.2405 34.103 12.9863 33.9312 12.7775C33.4445 12.3213 32.8417 12.1103 32.2396 12.1854H28.7396L27.6312 18.8115H30.9852Z" fill="#FF0420"/>
</g>
<defs>
<clipPath id="clip0_4891_95683">
<rect width="40" height="40" fill="white"/>
</clipPath>
</defs>
</svg>
