<svg width="1841" height="668" viewBox="0 0 1841 668" fill="none" xmlns="http://www.w3.org/2000/svg">
<path fill-rule="evenodd" clip-rule="evenodd" d="M217 0L219.161 5.83927L225 8L219.161 10.1607L217 16L214.839 10.1607L209 8L214.839 5.83927L217 0ZM825.876 25.1239L822.5 16L819.124 25.1239L810 28.5L819.124 31.8761L822.5 41L825.876 31.8761L835 28.5L825.876 25.1239ZM10.5 71L13.336 78.664L21 81.5L13.336 84.336L10.5 92L7.66405 84.336L0 81.5L7.66405 78.664L10.5 71ZM776 289L778.161 294.839L784 297L778.161 299.161L776 305L773.839 299.161L768 297L773.839 294.839L776 289ZM415.336 313.664L412.5 306L409.664 313.664L402 316.5L409.664 319.336L412.5 327L415.336 319.336L423 316.5L415.336 313.664ZM80.9565 588.044L76.5 576L72.0435 588.044L60 592.5L72.0435 596.956L76.5 609L80.9565 596.956L93 592.5L80.9565 588.044ZM675.336 496.664L672.5 489L669.664 496.664L662 499.5L669.664 502.336L672.5 510L675.336 502.336L683 499.5L675.336 496.664ZM1579.5 262L1584.23 274.773L1597 279.5L1584.23 284.227L1579.5 297L1574.77 284.227L1562 279.5L1574.77 274.773L1579.5 262ZM1733.34 631.664L1730.5 624L1727.66 631.664L1720 634.5L1727.66 637.336L1730.5 645L1733.34 637.336L1741 634.5L1733.34 631.664ZM1803.5 90L1806.34 97.664L1814 100.5L1806.34 103.336L1803.5 111L1800.66 103.336L1793 100.5L1800.66 97.664L1803.5 90ZM315.161 422.839L313 417L310.839 422.839L305 425L310.839 427.161L313 433L315.161 427.161L321 425L315.161 422.839ZM511 652L513.161 657.839L519 660L513.161 662.161L511 668L508.839 662.161L503 660L508.839 657.839L511 652ZM1100.16 598.839L1098 593L1095.84 598.839L1090 601L1095.84 603.161L1098 609L1100.16 603.161L1106 601L1100.16 598.839ZM1833 409L1835.16 414.839L1841 417L1835.16 419.161L1833 425L1830.84 419.161L1825 417L1830.84 414.839L1833 409ZM1662.16 68.8393L1660 63L1657.84 68.8393L1652 71L1657.84 73.1607L1660 79L1662.16 73.1607L1668 71L1662.16 68.8393ZM162.161 347.839L160 342L157.839 347.839L152 350L157.839 352.161L160 358L162.161 352.161L168 350L162.161 347.839Z" fill="white"/>
</svg>
