<svg width="1894" height="687" viewBox="0 0 1894 687" fill="none" xmlns="http://www.w3.org/2000/svg">
<path fill-rule="evenodd" clip-rule="evenodd" d="M1374.31 3.08624C1374.31 1.70553 1373.19 0.586243 1371.81 0.586243C1370.43 0.586243 1369.31 1.70553 1369.31 3.08624V3.33702C1369.31 4.71773 1370.43 5.83702 1371.81 5.83702C1373.19 5.83702 1374.31 4.71773 1374.31 3.33702V3.08624ZM750.034 9.11621C748.653 9.11621 747.534 10.2355 747.534 11.6162C747.534 12.9969 748.653 14.1162 750.034 14.1162H750.364C751.744 14.1162 752.864 12.9969 752.864 11.6162C752.864 10.2355 751.744 9.11621 750.364 9.11621H750.034ZM213.369 160.343C211.988 160.343 210.869 161.462 210.869 162.843C210.869 164.224 211.988 165.343 213.369 165.343H213.552C214.933 165.343 216.052 164.224 216.052 162.843C216.052 161.462 214.933 160.343 213.552 160.343H213.369ZM1598.5 454C1598.5 452.619 1599.62 451.5 1601 451.5H1601.22C1602.6 451.5 1603.72 452.619 1603.72 454C1603.72 455.381 1602.6 456.5 1601.22 456.5H1601C1599.62 456.5 1598.5 455.381 1598.5 454ZM1012.64 411.308C1011.26 411.308 1010.14 412.427 1010.14 413.808C1010.14 415.189 1011.26 416.308 1012.64 416.308H1012.9C1014.28 416.308 1015.4 415.189 1015.4 413.808C1015.4 412.427 1014.28 411.308 1012.9 411.308H1012.64ZM1321.82 357.102C1321.82 355.722 1322.94 354.602 1324.32 354.602H1324.63C1326.01 354.602 1327.13 355.722 1327.13 357.102C1327.13 358.483 1326.01 359.602 1324.63 359.602H1324.32C1322.94 359.602 1321.82 358.483 1321.82 357.102ZM279.056 679.565C279.056 678.184 280.175 677.065 281.556 677.065H281.854C283.235 677.065 284.354 678.184 284.354 679.565C284.354 680.946 283.235 682.065 281.854 682.065H281.556C280.175 682.065 279.056 680.946 279.056 679.565ZM2.53076 198.136C1.15005 198.136 0.0307617 199.255 0.0307617 200.636C0.0307617 202.016 1.15005 203.136 2.53076 203.136H2.64251C4.02322 203.136 5.14251 202.016 5.14251 200.636C5.14251 199.255 4.02322 198.136 2.64251 198.136H2.53076ZM854.734 602.298C854.734 600.918 855.853 599.798 857.234 599.798H857.473C858.854 599.798 859.973 600.918 859.973 602.298C859.973 603.679 858.854 604.798 857.473 604.798H857.234C855.853 604.798 854.734 603.679 854.734 602.298ZM1321.22 678.741C1319.84 678.741 1318.72 679.861 1318.72 681.241C1318.72 682.622 1319.84 683.741 1321.22 683.741H1321.4C1322.78 683.741 1323.9 682.622 1323.9 681.241C1323.9 679.861 1322.78 678.741 1321.4 678.741H1321.22ZM1683.23 548.278C1683.38 546.906 1684.62 545.917 1685.99 546.07C1686.19 546.091 1686.39 546.134 1686.61 546.208C1686.83 546.283 1687.01 546.375 1687.15 546.459C1687.19 546.488 1687.24 546.517 1687.28 546.542C1687.33 546.577 1687.37 546.605 1687.38 546.615L1687.38 546.618L1687.39 546.622C1688.52 547.394 1688.82 548.931 1688.06 550.071C1687.32 551.172 1685.86 551.503 1684.73 550.854C1683.75 550.432 1683.11 549.401 1683.23 548.278ZM1566.34 117.335C1566.86 118.362 1566.6 119.573 1565.78 120.307C1565.25 120.887 1564.46 121.209 1563.62 121.104C1562.25 120.933 1561.28 119.684 1561.45 118.314C1561.47 118.215 1561.51 117.913 1561.65 117.571C1561.84 117.118 1562.18 116.677 1562.68 116.369C1562.88 116.247 1563.05 116.178 1563.14 116.146L1563.16 116.137C1564.36 115.648 1565.75 116.158 1566.34 117.335Z" fill="white"/>
<path d="M1006 664H1006.18" stroke="white" stroke-width="5" stroke-linecap="round"/>
<path d="M719 684H719.184" stroke="white" stroke-width="5" stroke-linecap="round"/>
<path d="M113 293H113.184" stroke="white" stroke-width="5" stroke-linecap="round"/>
<path d="M322 276H322.184" stroke="white" stroke-width="5" stroke-linecap="round"/>
<path d="M696 287H696.184" stroke="white" stroke-width="5" stroke-linecap="round"/>
<path d="M967 238H967.184" stroke="white" stroke-width="5" stroke-linecap="round"/>
<path d="M262 512H262.184" stroke="white" stroke-width="5" stroke-linecap="round"/>
<path d="M638 580H638.184" stroke="white" stroke-width="5" stroke-linecap="round"/>
<path d="M603 352H603.184" stroke="white" stroke-width="5" stroke-linecap="round"/>
<path d="M30 643H30.1835" stroke="white" stroke-width="5" stroke-linecap="round"/>
<path d="M403 57H403.184" stroke="white" stroke-width="5" stroke-linecap="round"/>
<path d="M1023 77H1023.18" stroke="white" stroke-width="5" stroke-linecap="round"/>
<path d="M1417 540H1417.18" stroke="white" stroke-width="5" stroke-linecap="round"/>
<path d="M1837 225H1837.18" stroke="white" stroke-width="5" stroke-linecap="round"/>
<path fill-rule="evenodd" clip-rule="evenodd" d="M272.161 8.83927L270 3L267.839 8.83927L262 11L267.839 13.1607L270 19L272.161 13.1607L278 11L272.161 8.83927ZM875.5 22L878.066 28.9341L885 31.5L878.066 34.0659L875.5 41L872.934 34.0659L866 31.5L872.934 28.9341L875.5 22ZM66.336 81.664L63.5 74L60.664 81.664L53 84.5L60.664 87.336L63.5 95L66.336 87.336L74 84.5L66.336 81.664ZM833.161 306.839L831 301L828.839 306.839L823 309L828.839 311.161L831 317L833.161 311.161L839 309L833.161 306.839ZM451.5 319L454.336 326.664L462 329.5L454.336 332.336L451.5 340L448.664 332.336L441 329.5L448.664 326.664L451.5 319ZM129.5 583L132.876 592.124L142 595.5L132.876 598.876L129.5 608L126.124 598.876L117 595.5L126.124 592.124L129.5 583ZM725.5 492L728.336 499.664L736 502.5L728.336 505.336L725.5 513L722.664 505.336L715 502.5L722.664 499.664L725.5 492ZM1680.34 247.664L1677.5 240L1674.66 247.664L1667 250.5L1674.66 253.336L1677.5 261L1680.34 253.336L1688 250.5L1680.34 247.664ZM1783.5 627L1786.34 634.664L1794 637.5L1786.34 640.336L1783.5 648L1780.66 640.336L1773 637.5L1780.66 634.664L1783.5 627ZM1859.34 100.664L1856.5 93L1853.66 100.664L1846 103.5L1853.66 106.336L1856.5 114L1859.34 106.336L1867 103.5L1859.34 100.664ZM366 420L368.161 425.839L374 428L368.161 430.161L366 436L363.839 430.161L358 428L363.839 425.839L366 420ZM566.161 660.839L564 655L561.839 660.839L556 663L561.839 665.161L564 671L566.161 665.161L572 663L566.161 660.839ZM1151 596L1153.16 601.839L1159 604L1153.16 606.161L1151 612L1148.84 606.161L1143 604L1148.84 601.839L1151 596ZM1888.16 417.839L1886 412L1883.84 417.839L1878 420L1883.84 422.161L1886 428L1888.16 422.161L1894 420L1888.16 417.839ZM1719 54L1721.16 59.8393L1727 62L1721.16 64.1607L1719 70L1716.84 64.1607L1711 62L1716.84 59.8393L1719 54ZM213 345L215.161 350.839L221 353L215.161 355.161L213 361L210.839 355.161L205 353L210.839 350.839L213 345ZM1163.26 67.7444L1161.5 63L1159.74 67.7444L1155 69.5L1159.74 71.2556L1161.5 76L1163.26 71.2556L1168 69.5L1163.26 67.7444Z" fill="white"/>
<path d="M1529.5 597L1532.61 605.394L1541 608.5L1532.61 611.606L1529.5 620L1526.39 611.606L1518 608.5L1526.39 605.394L1529.5 597Z" fill="white"/>
<path d="M1745.5 382L1747.53 387.474L1753 389.5L1747.53 391.526L1745.5 397L1743.47 391.526L1738 389.5L1743.47 387.474L1745.5 382Z" fill="white"/>
<path d="M1493.5 8L1496.88 17.1239L1506 20.5L1496.88 23.8761L1493.5 33L1490.12 23.8761L1481 20.5L1490.12 17.1239L1493.5 8Z" fill="white"/>
<path d="M581 38H581.184" stroke="white" stroke-width="5" stroke-linecap="round"/>
<path d="M1565 319H1565.18" stroke="white" stroke-width="5" stroke-linecap="round"/>
</svg>
