<svg width="1689" height="683" viewBox="0 0 1689 683" fill="none" xmlns="http://www.w3.org/2000/svg">
<path fill-rule="evenodd" clip-rule="evenodd" d="M1374.31 3.08624C1374.31 1.70553 1373.19 0.586243 1371.81 0.586243C1370.43 0.586243 1369.31 1.70553 1369.31 3.08624V3.33702C1369.31 4.71773 1370.43 5.83702 1371.81 5.83702C1373.19 5.83702 1374.31 4.71773 1374.31 3.33702V3.08624ZM750.034 9.11621C748.653 9.11621 747.534 10.2355 747.534 11.6162C747.534 12.9969 748.653 14.1162 750.034 14.1162H750.364C751.744 14.1162 752.864 12.9969 752.864 11.6162C752.864 10.2355 751.744 9.11621 750.364 9.11621H750.034ZM411.369 119.343C409.988 119.343 408.869 120.462 408.869 121.843C408.869 123.224 409.988 124.343 411.369 124.343H411.552C412.933 124.343 414.052 123.224 414.052 121.843C414.052 120.462 412.933 119.343 411.552 119.343H411.369ZM1585.08 454.782C1585.08 453.401 1586.2 452.282 1587.58 452.282H1587.81C1589.19 452.282 1590.31 453.401 1590.31 454.782C1590.31 456.163 1589.19 457.282 1587.81 457.282H1587.58C1586.2 457.282 1585.08 456.163 1585.08 454.782ZM1157.64 242.308C1156.26 242.308 1155.14 243.427 1155.14 244.808C1155.14 246.189 1156.26 247.308 1157.64 247.308H1157.9C1159.28 247.308 1160.4 246.189 1160.4 244.808C1160.4 243.427 1159.28 242.308 1157.9 242.308H1157.64ZM1321.82 357.102C1321.82 355.722 1322.94 354.602 1324.32 354.602H1324.63C1326.01 354.602 1327.13 355.722 1327.13 357.102C1327.13 358.483 1326.01 359.602 1324.63 359.602H1324.32C1322.94 359.602 1321.82 358.483 1321.82 357.102ZM279.056 679.565C279.056 678.184 280.175 677.065 281.556 677.065H281.854C283.235 677.065 284.354 678.184 284.354 679.565C284.354 680.946 283.235 682.065 281.854 682.065H281.556C280.175 682.065 279.056 680.946 279.056 679.565ZM2.53076 198.136C1.15005 198.136 0.0307617 199.255 0.0307617 200.636C0.0307617 202.016 1.15005 203.136 2.53076 203.136H2.64251C4.02322 203.136 5.14251 202.016 5.14251 200.636C5.14251 199.255 4.02322 198.136 2.64251 198.136H2.53076ZM854.734 602.298C854.734 600.918 855.853 599.798 857.234 599.798H857.473C858.854 599.798 859.973 600.918 859.973 602.298C859.973 603.679 858.854 604.798 857.473 604.798H857.234C855.853 604.798 854.734 603.679 854.734 602.298ZM1321.22 677.741C1319.84 677.741 1318.72 678.861 1318.72 680.241C1318.72 681.622 1319.84 682.741 1321.22 682.741H1321.4C1322.78 682.741 1323.9 681.622 1323.9 680.241C1323.9 678.861 1322.78 677.741 1321.4 677.741H1321.22ZM1683.23 548.278C1683.38 546.906 1684.62 545.917 1685.99 546.07C1686.19 546.091 1686.39 546.134 1686.61 546.208C1686.83 546.283 1687.01 546.375 1687.15 546.459C1687.19 546.488 1687.24 546.517 1687.28 546.542C1687.33 546.577 1687.37 546.605 1687.38 546.615L1687.38 546.618L1687.39 546.622C1688.52 547.394 1688.82 548.931 1688.06 550.071C1687.32 551.172 1685.86 551.503 1684.73 550.854C1683.75 550.432 1683.11 549.401 1683.23 548.278ZM1566.34 117.335C1566.86 118.362 1566.6 119.573 1565.78 120.307C1565.25 120.887 1564.46 121.209 1563.62 121.104C1562.25 120.933 1561.28 119.684 1561.45 118.314C1561.47 118.215 1561.51 117.913 1561.65 117.571C1561.84 117.118 1562.18 116.677 1562.68 116.369C1562.88 116.247 1563.05 116.178 1563.14 116.146L1563.16 116.137C1564.36 115.648 1565.75 116.158 1566.34 117.335Z" fill="white"/>
</svg>
