<svg width="44" height="44" viewBox="0 0 44 44" fill="none" xmlns="http://www.w3.org/2000/svg">
<circle cx="20" cy="20" r="21" transform="matrix(0 -1 -1 0 42 42)" stroke="white" stroke-width="2"/>
<path fill-rule="evenodd" clip-rule="evenodd" d="M20.7584 32.8213C20.2743 33.274 20.2743 34.0079 20.7584 34.4606C21.2425 34.9132 22.0273 34.9132 22.5114 34.4606L34.437 23.3085C34.6847 23.077 34.8056 22.7718 34.7999 22.4683C34.8056 22.1648 34.6847 21.8596 34.437 21.628L22.5114 10.476C22.0273 10.0233 21.2425 10.0233 20.7584 10.476C20.2743 10.9287 20.2743 11.6626 20.7584 12.1152L30.4735 21.2001H11.1996C10.5369 21.2001 9.99963 21.7374 9.99963 22.4001C9.99963 23.0629 10.5369 23.6001 11.1996 23.6001H30.6193L20.7584 32.8213Z" fill="white"/>
</svg>
