<svg width="15" height="10" viewBox="0 0 15 10" fill="none" xmlns="http://www.w3.org/2000/svg">
<mask id="path-1-inside-1_223_1187" fill="white">
<path fill-rule="evenodd" clip-rule="evenodd" d="M0.329505 0.354117C0.768845 -0.118039 1.48116 -0.118039 1.9205 0.354117L7.5 6.35038L13.0795 0.354117C13.5188 -0.118039 14.2312 -0.118039 14.6705 0.354117C15.1098 0.826273 15.1098 1.59179 14.6705 2.06394L8.30653 8.90326C8.08406 9.14235 7.79158 9.26037 7.5 9.25731C7.20842 9.26037 6.91594 9.14235 6.69347 8.90326L0.329505 2.06394C-0.109835 1.59179 -0.109835 0.826273 0.329505 0.354117Z"/>
</mask>
<path fill-rule="evenodd" clip-rule="evenodd" d="M0.329505 0.354117C0.768845 -0.118039 1.48116 -0.118039 1.9205 0.354117L7.5 6.35038L13.0795 0.354117C13.5188 -0.118039 14.2312 -0.118039 14.6705 0.354117C15.1098 0.826273 15.1098 1.59179 14.6705 2.06394L8.30653 8.90326C8.08406 9.14235 7.79158 9.26037 7.5 9.25731C7.20842 9.26037 6.91594 9.14235 6.69347 8.90326L0.329505 2.06394C-0.109835 1.59179 -0.109835 0.826273 0.329505 0.354117Z" fill="#0F172A"/>
<path d="M1.9205 0.354117L1.70087 0.55848L1.9205 0.354117ZM0.329505 0.354117L0.109878 0.149754L0.329505 0.354117ZM7.5 6.35038L7.71963 6.55474L7.5 6.79077L7.28037 6.55474L7.5 6.35038ZM13.0795 0.354117L13.2991 0.55848V0.55848L13.0795 0.354117ZM14.6705 0.354117L14.8901 0.149754L14.6705 0.354117ZM14.6705 2.06394L14.8901 2.26831V2.26831L14.6705 2.06394ZM8.30653 8.90326L8.08691 8.69889V8.69889L8.30653 8.90326ZM7.5 9.25731L7.49686 8.95726L7.50314 8.95733L7.5 9.25731ZM6.69347 8.90326L6.47384 9.10762V9.10762L6.69347 8.90326ZM0.329505 2.06394L0.109878 2.26831H0.109878L0.329505 2.06394ZM1.70087 0.55848C1.38018 0.21384 0.869817 0.21384 0.549132 0.558479L0.109878 0.149754C0.667872 -0.449919 1.58213 -0.449918 2.14012 0.149755L1.70087 0.55848ZM7.28037 6.55474L1.70087 0.55848L2.14012 0.149755L7.71963 6.14602L7.28037 6.55474ZM7.28037 6.14602L12.8599 0.149755L13.2991 0.55848L7.71963 6.55474L7.28037 6.14602ZM12.8599 0.149755C13.4179 -0.449918 14.3321 -0.449919 14.8901 0.149754L14.4509 0.558479C14.1302 0.21384 13.6198 0.21384 13.2991 0.55848L12.8599 0.149755ZM14.8901 0.149754C15.4366 0.737079 15.4366 1.68098 14.8901 2.26831L14.4509 1.85958C14.783 1.50259 14.783 0.915466 14.4509 0.558479L14.8901 0.149754ZM14.8901 2.26831L8.52616 9.10762L8.08691 8.69889L14.4509 1.85958L14.8901 2.26831ZM8.52616 9.10762C8.24627 9.40842 7.87295 9.56124 7.49686 9.5573L7.50314 8.95733C7.71021 8.9595 7.92185 8.87628 8.08691 8.69889L8.52616 9.10762ZM6.91309 8.69889C7.07815 8.87628 7.28979 8.9595 7.49686 8.95733L7.50314 9.5573C7.12704 9.56124 6.75374 9.40842 6.47384 9.10762L6.91309 8.69889ZM0.549132 1.85958L6.91309 8.69889L6.47384 9.10762L0.109878 2.26831L0.549132 1.85958ZM0.549132 0.558479C0.216956 0.915466 0.216956 1.50259 0.549132 1.85958L0.109878 2.26831C-0.436626 1.68098 -0.436626 0.737079 0.109878 0.149754L0.549132 0.558479Z" fill="#E3F2FD" mask="url(#path-1-inside-1_223_1187)"/>
</svg>
