<svg width="159" height="170" fill="none" xmlns="http://www.w3.org/2000/svg"><g filter="url(#a)"><rect x="99" y="38" width="60" height="25" rx="10" fill="#C1E9FF"/><rect x="99.25" y="38.25" width="59.5" height="24.5" rx="9.75" stroke="#0F172A" stroke-width=".5"/></g><path d="M124.883 54.527h1.914c.491 0 .946-.084 1.364-.253a3.295 3.295 0 0 0 1.1-.704 3.324 3.324 0 0 0 1.001-2.42c0-.484-.088-.931-.264-1.342a3.202 3.202 0 0 0-.737-1.067 3.21 3.21 0 0 0-1.1-.715 3.612 3.612 0 0 0-1.364-.253h-1.914v6.754zm-.506.473v-7.7h2.354c.609 0 1.159.099 1.65.297.499.19.928.458 1.287.803.359.345.634.752.825 1.221.191.47.286.979.286 1.529 0 .55-.095 1.06-.286 1.529-.191.47-.466.876-.825 1.221a3.924 3.924 0 0 1-1.287.814 4.526 4.526 0 0 1-1.65.286h-2.354zm6.576 0 3.212-7.7h.627l3.201 7.7h-.55l-1.067-2.607h-3.817L131.481 55h-.528zm1.793-3.058h3.443l-1.716-4.169-1.727 4.169zm6.24 3.058v-7.7h.506V55h-.506zm4.487-1.672v-2.035h-1.848v-.451h1.848V48.84h.451v2.002h1.848v.451h-1.848v2.035h-.451z" fill="#10172A"/><path d="M75.2 117.095v-.003c.897-1.166 2.33-2.12 4.198-2.893 1.896-.784 4.226-1.375 6.869-1.815 5.285-.878 11.793-1.144 18.515-1.144 6.722 0 13.23.266 18.515 1.144 2.643.44 4.973 1.031 6.868 1.815 1.869.773 3.301 1.727 4.199 2.893v5.918c0 1.58-.796 3.106-2.279 4.514-1.482 1.409-3.638 2.687-6.319 3.764-5.36 2.155-12.779 3.492-20.984 3.492-8.205 0-15.624-1.337-20.984-3.492-2.681-1.077-4.837-2.355-6.32-3.764-1.482-1.408-2.278-2.934-2.278-4.514V117.095z" fill="#0497EC" stroke="#0F172A" stroke-width=".4"/><path d="m85.873 132.09-5.673-2.5-3.413-2.8v-5.04l.596-2.94 2.978-.735 19.06-.735v17.01l-4.567-.26-5.008-1.018-3.973-.982zM129.799 129.31v-9.954l-4.765-.756v12.946l2.382-.976 2.383-1.26z" fill="#0F172A" stroke="#0F172A" stroke-width=".4"/><path d="M134.364 117.97c0 1.58-.796 3.106-2.279 4.514-1.482 1.409-3.638 2.687-6.319 3.764-5.36 2.155-12.779 3.492-20.984 3.492-8.205 0-15.624-1.337-20.984-3.492-2.681-1.077-4.837-2.355-6.32-3.764-1.482-1.408-2.278-2.934-2.278-4.514s.796-3.106 2.278-4.514c1.483-1.409 3.639-2.687 6.32-3.764 5.36-2.155 12.779-3.492 20.984-3.492 8.205 0 15.624 1.337 20.984 3.492 2.681 1.077 4.837 2.355 6.319 3.764 1.483 1.408 2.279 2.934 2.279 4.514z" fill="#fff" stroke="#0F172A" stroke-width=".4"/><path d="M75.2 112.095v-.003c.897-1.166 2.33-2.12 4.198-2.893 1.896-.784 4.226-1.375 6.869-1.815 5.285-.878 11.793-1.144 18.515-1.144 6.722 0 13.23.266 18.515 1.144 2.643.44 4.973 1.031 6.868 1.815 1.869.773 3.301 1.727 4.199 2.893v5.918c0 1.58-.796 3.106-2.279 4.514-1.482 1.409-3.638 2.687-6.319 3.765-5.36 2.154-12.779 3.491-20.984 3.491-8.205 0-15.624-1.337-20.984-3.491-2.681-1.078-4.837-2.356-6.32-3.765-1.482-1.408-2.278-2.934-2.278-4.514V112.095z" fill="#0497EC" stroke="#0F172A" stroke-width=".4"/><path d="m85.873 127.09-5.673-2.5-3.413-2.8v-5.04l.596-2.94 2.978-.735 19.06-.735v17.01l-4.567-.26-5.008-1.018-3.973-.982zM129.799 124.31v-9.954l-4.765-.756v12.946l2.382-.976 2.383-1.26z" fill="#0F172A" stroke="#0F172A" stroke-width=".4"/><path d="M134.364 112.97c0 1.58-.796 3.106-2.279 4.514-1.482 1.409-3.638 2.687-6.319 3.764-5.36 2.155-12.779 3.492-20.984 3.492-8.205 0-15.624-1.337-20.984-3.492-2.681-1.077-4.837-2.355-6.32-3.764-1.482-1.408-2.278-2.934-2.278-4.514s.796-3.106 2.278-4.514c1.483-1.409 3.639-2.687 6.32-3.764 5.36-2.155 12.779-3.492 20.984-3.492 8.205 0 15.624 1.337 20.984 3.492 2.681 1.077 4.837 2.355 6.319 3.764 1.483 1.408 2.279 2.934 2.279 4.514z" fill="#fff" stroke="#0F172A" stroke-width=".4"/><path d="M75.2 107.095v-.003c.897-1.166 2.33-2.12 4.198-2.893 1.896-.784 4.226-1.375 6.869-1.815 5.285-.878 11.793-1.144 18.515-1.144 6.722 0 13.23.266 18.515 1.144 2.643.44 4.973 1.031 6.868 1.815 1.869.773 3.301 1.727 4.199 2.893v5.918c0 1.58-.796 3.106-2.279 4.514-1.482 1.409-3.638 2.687-6.319 3.765-5.36 2.154-12.779 3.491-20.984 3.491-8.205 0-15.624-1.337-20.984-3.491-2.681-1.078-4.837-2.356-6.32-3.765-1.482-1.408-2.278-2.934-2.278-4.514V107.095z" fill="#0497EC" stroke="#0F172A" stroke-width=".4"/><path d="m85.873 122.09-5.673-2.5-3.413-2.8v-5.04l.596-2.94 2.978-.735 19.06-.735v17.01l-4.567-.26-5.008-1.018-3.973-.982zM129.799 119.31v-9.954l-4.765-.756v12.946l2.382-.976 2.383-1.26z" fill="#0F172A" stroke="#0F172A" stroke-width=".4"/><path d="M134.364 107.97c0 1.58-.796 3.106-2.279 4.514-1.482 1.409-3.638 2.687-6.319 3.764-5.36 2.155-12.779 3.492-20.984 3.492-8.205 0-15.624-1.337-20.984-3.492-2.681-1.077-4.837-2.355-6.32-3.764-1.482-1.408-2.278-2.934-2.278-4.514s.796-3.106 2.278-4.514c1.483-1.409 3.639-2.687 6.32-3.764 5.36-2.155 12.779-3.492 20.984-3.492 8.205 0 15.624 1.337 20.984 3.492 2.681 1.077 4.837 2.355 6.319 3.764 1.483 1.408 2.279 2.934 2.279 4.514z" fill="#fff" stroke="#0F172A" stroke-width=".4"/><path d="M75.2 102.095v-.003c.897-1.166 2.33-2.12 4.198-2.893 1.896-.784 4.226-1.375 6.869-1.815 5.285-.878 11.793-1.144 18.515-1.144 6.722 0 13.23.266 18.515 1.144 2.643.44 4.973 1.03 6.868 1.815 1.869.773 3.301 1.727 4.199 2.893v5.918c0 1.58-.796 3.106-2.279 4.514-1.482 1.409-3.638 2.687-6.319 3.765-5.36 2.154-12.779 3.491-20.984 3.491-8.205 0-15.624-1.337-20.984-3.491-2.681-1.078-4.837-2.356-6.32-3.765-1.482-1.408-2.278-2.934-2.278-4.514V102.095z" fill="#0497EC" stroke="#0F172A" stroke-width=".4"/><path d="m85.873 117.09-5.673-2.5-3.413-2.8v-5.04l.596-2.94 2.978-.735 19.06-.735v17.01l-4.567-.26-5.008-1.018-3.973-.982zM129.799 114.31v-9.954l-4.765-.756v12.946l2.382-.976 2.383-1.26z" fill="#0F172A" stroke="#0F172A" stroke-width=".4"/><path d="M134.364 102.97c0 1.58-.796 3.106-2.279 4.514-1.482 1.409-3.638 2.687-6.319 3.764-5.36 2.155-12.779 3.492-20.984 3.492-8.205 0-15.624-1.337-20.984-3.492-2.681-1.077-4.837-2.355-6.32-3.764-1.482-1.408-2.278-2.934-2.278-4.514s.796-3.106 2.278-4.514c1.483-1.41 3.639-2.687 6.32-3.764 5.36-2.155 12.779-3.492 20.984-3.492 8.205 0 15.624 1.337 20.984 3.492 2.681 1.077 4.837 2.355 6.319 3.764 1.483 1.408 2.279 2.934 2.279 4.514z" fill="#fff" stroke="#0F172A" stroke-width=".4"/><path d="M75.2 97.095v-.003c.897-1.166 2.33-2.12 4.198-2.893 1.896-.784 4.226-1.375 6.869-1.815 5.285-.878 11.793-1.144 18.515-1.144 6.722 0 13.23.266 18.515 1.144 2.643.44 4.973 1.03 6.868 1.815 1.869.773 3.301 1.727 4.199 2.893v5.918c0 1.58-.796 3.106-2.279 4.514-1.482 1.409-3.638 2.687-6.319 3.765-5.36 2.154-12.779 3.491-20.984 3.491-8.205 0-15.624-1.337-20.984-3.491-2.681-1.078-4.837-2.356-6.32-3.765-1.482-1.408-2.278-2.934-2.278-4.514V97.095z" fill="#0497EC" stroke="#0F172A" stroke-width=".4"/><path d="m85.873 112.09-5.673-2.5-3.413-2.8v-5.04l.596-2.94 2.978-.735 19.06-.735v17.01l-4.567-.26-5.008-1.018-3.973-.982zM129.799 109.31v-9.954l-4.765-.756v12.946l2.382-.976 2.383-1.26z" fill="#0F172A" stroke="#0F172A" stroke-width=".4"/><path d="M134.364 97.97c0 1.58-.796 3.106-2.279 4.514-1.482 1.409-3.638 2.687-6.319 3.764-5.36 2.155-12.779 3.492-20.984 3.492-8.205 0-15.624-1.337-20.984-3.492-2.681-1.077-4.837-2.355-6.32-3.764-1.482-1.408-2.278-2.934-2.278-4.514s.796-3.106 2.278-4.514c1.483-1.41 3.639-2.687 6.32-3.764 5.36-2.155 12.779-3.492 20.984-3.492 8.205 0 15.624 1.337 20.984 3.492 2.681 1.077 4.837 2.355 6.319 3.764 1.483 1.408 2.279 2.934 2.279 4.514z" fill="#fff" stroke="#0F172A" stroke-width=".4"/><path d="M75.2 92.095v-.003c.897-1.166 2.33-2.12 4.198-2.893 1.896-.784 4.226-1.375 6.869-1.815 5.285-.878 11.793-1.144 18.515-1.144 6.722 0 13.23.266 18.515 1.144 2.643.44 4.973 1.03 6.868 1.815 1.869.773 3.301 1.727 4.199 2.893v5.918c0 1.58-.796 3.106-2.279 4.514-1.482 1.409-3.638 2.687-6.319 3.765-5.36 2.154-12.779 3.491-20.984 3.491-8.205 0-15.624-1.337-20.984-3.491-2.681-1.078-4.837-2.356-6.32-3.765-1.482-1.408-2.278-2.934-2.278-4.514V92.094z" fill="#0497EC" stroke="#0F172A" stroke-width=".4"/><path d="m85.873 107.09-5.673-2.5-3.413-2.8v-5.04l.596-2.94 2.978-.735 19.06-.735v17.01l-4.567-.26-5.008-1.018-3.973-.982zM129.799 104.31v-9.954l-4.765-.756v12.946l2.382-.976 2.383-1.26z" fill="#0F172A" stroke="#0F172A" stroke-width=".4"/><path d="M134.364 92.97c0 1.58-.796 3.106-2.279 4.514-1.482 1.41-3.638 2.687-6.319 3.764-5.36 2.155-12.779 3.492-20.984 3.492-8.205 0-15.624-1.337-20.984-3.492-2.681-1.077-4.837-2.355-6.32-3.764-1.482-1.408-2.278-2.934-2.278-4.514s.796-3.106 2.278-4.514c1.483-1.41 3.639-2.687 6.32-3.764 5.36-2.155 12.779-3.492 20.984-3.492 8.205 0 15.624 1.337 20.984 3.492 2.681 1.077 4.837 2.355 6.319 3.764 1.483 1.408 2.279 2.934 2.279 4.514z" fill="#fff" stroke="#0F172A" stroke-width=".4"/><path d="M75.2 87.095v-.003c.897-1.166 2.33-2.12 4.198-2.893 1.896-.784 4.226-1.375 6.869-1.815 5.285-.878 11.793-1.144 18.515-1.144 6.722 0 13.23.266 18.515 1.144 2.643.44 4.973 1.03 6.868 1.815 1.869.773 3.301 1.727 4.199 2.893v5.918c0 1.58-.796 3.106-2.279 4.514-1.482 1.41-3.638 2.687-6.319 3.765-5.36 2.154-12.779 3.491-20.984 3.491-8.205 0-15.624-1.337-20.984-3.491-2.681-1.078-4.837-2.356-6.32-3.765-1.482-1.408-2.278-2.934-2.278-4.514V87.094z" fill="#0497EC" stroke="#0F172A" stroke-width=".4"/><path d="m85.873 102.09-5.673-2.5-3.413-2.8v-5.04l.596-2.94 2.978-.735 19.06-.735v17.01l-4.567-.26-5.008-1.018-3.973-.982zM129.799 99.31v-9.954l-4.765-.756v12.946l2.382-.976 2.383-1.26z" fill="#0F172A" stroke="#0F172A" stroke-width=".4"/><path d="M134.364 87.97c0 1.58-.796 3.106-2.279 4.514-1.482 1.41-3.638 2.687-6.319 3.765-5.36 2.154-12.779 3.491-20.984 3.491-8.205 0-15.624-1.337-20.984-3.491-2.681-1.078-4.837-2.356-6.32-3.765-1.482-1.408-2.278-2.934-2.278-4.514s.796-3.106 2.278-4.514c1.483-1.41 3.639-2.687 6.32-3.764 5.36-2.155 12.779-3.492 20.984-3.492 8.205 0 15.624 1.337 20.984 3.492 2.681 1.077 4.837 2.355 6.319 3.764 1.483 1.408 2.279 2.934 2.279 4.514z" fill="#fff" stroke="#0F172A" stroke-width=".4"/><path d="M75.2 82.095v-.003c.897-1.166 2.33-2.12 4.198-2.893 1.896-.784 4.226-1.375 6.869-1.815 5.285-.878 11.793-1.144 18.515-1.144 6.722 0 13.23.266 18.515 1.144 2.643.44 4.973 1.03 6.868 1.815 1.869.773 3.301 1.727 4.199 2.893v5.918c0 1.58-.796 3.106-2.279 4.514-1.482 1.41-3.638 2.687-6.319 3.764-5.36 2.155-12.779 3.492-20.984 3.492-8.205 0-15.624-1.337-20.984-3.492-2.681-1.077-4.837-2.355-6.32-3.764-1.482-1.408-2.278-2.934-2.278-4.514V82.094z" fill="#0497EC" stroke="#0F172A" stroke-width=".4"/><path d="m85.873 97.09-5.673-2.5-3.413-2.8v-5.04l.596-2.94 2.978-.735 19.06-.735v17.01l-4.567-.26-5.008-1.018-3.973-.982zM129.799 94.31v-9.954l-4.765-.756v12.946l2.382-.976 2.383-1.26z" fill="#0F172A" stroke="#0F172A" stroke-width=".4"/><path d="M134.364 82.97c0 1.58-.796 3.106-2.279 4.514-1.482 1.41-3.638 2.687-6.319 3.765-5.36 2.154-12.779 3.491-20.984 3.491-8.205 0-15.624-1.337-20.984-3.491-2.681-1.078-4.837-2.356-6.32-3.765-1.482-1.408-2.278-2.934-2.278-4.514s.796-3.106 2.278-4.514c1.483-1.41 3.639-2.687 6.32-3.764 5.36-2.155 12.779-3.492 20.984-3.492 8.205 0 15.624 1.337 20.984 3.492 2.681 1.077 4.837 2.355 6.319 3.764 1.483 1.408 2.279 2.934 2.279 4.514z" fill="#fff" stroke="#0F172A" stroke-width=".4"/><path d="M75.2 77.095v-.003c.897-1.166 2.33-2.12 4.198-2.893 1.896-.784 4.226-1.375 6.869-1.815 5.285-.878 11.793-1.144 18.515-1.144 6.722 0 13.23.266 18.515 1.144 2.643.44 4.973 1.03 6.868 1.815 1.869.773 3.301 1.727 4.199 2.893v5.918c0 1.58-.796 3.106-2.279 4.514-1.482 1.41-3.638 2.687-6.319 3.764-5.36 2.155-12.779 3.492-20.984 3.492-8.205 0-15.624-1.337-20.984-3.492-2.681-1.077-4.837-2.355-6.32-3.764-1.482-1.408-2.278-2.934-2.278-4.514V77.094z" fill="#0497EC" stroke="#0F172A" stroke-width=".4"/><path d="m85.873 92.09-5.673-2.5-3.413-2.8v-5.04l.596-2.94 2.978-.735 19.06-.735v17.01l-4.567-.26-5.008-1.018-3.973-.982zM129.799 89.31v-9.954l-4.765-.756v12.946l2.382-.976 2.383-1.26z" fill="#0F172A" stroke="#0F172A" stroke-width=".4"/><path d="M134.364 77.97c0 1.58-.796 3.106-2.279 4.514-1.482 1.41-3.638 2.687-6.319 3.765-5.36 2.154-12.779 3.491-20.984 3.491-8.205 0-15.624-1.337-20.984-3.491-2.681-1.078-4.837-2.356-6.32-3.765-1.482-1.408-2.278-2.934-2.278-4.514s.796-3.106 2.278-4.514c1.483-1.41 3.639-2.687 6.32-3.764 5.36-2.155 12.779-3.492 20.984-3.492 8.205 0 15.624 1.337 20.984 3.492 2.681 1.077 4.837 2.355 6.319 3.764 1.483 1.408 2.279 2.934 2.279 4.514z" fill="#fff" stroke="#0F172A" stroke-width=".4"/><path d="M75.2 72.095v-.003c.897-1.166 2.33-2.12 4.198-2.893 1.896-.784 4.226-1.375 6.869-1.815 5.285-.878 11.793-1.144 18.515-1.144 6.722 0 13.23.266 18.515 1.144 2.643.44 4.973 1.03 6.868 1.815 1.869.773 3.301 1.727 4.199 2.893v5.918c0 1.58-.796 3.106-2.279 4.514-1.482 1.41-3.638 2.687-6.319 3.764-5.36 2.155-12.779 3.492-20.984 3.492-8.205 0-15.624-1.337-20.984-3.492-2.681-1.077-4.837-2.355-6.32-3.764-1.482-1.408-2.278-2.934-2.278-4.514V72.094z" fill="#0497EC" stroke="#0F172A" stroke-width=".4"/><path d="m85.873 87.09-5.673-2.5-3.413-2.8v-5.04l.596-2.94 2.978-.735 19.06-.735v17.01l-4.567-.26-5.008-1.018-3.973-.982zM129.799 84.31v-9.954l-4.765-.756v12.946l2.382-.976 2.383-1.26z" fill="#0F172A" stroke="#0F172A" stroke-width=".4"/><path d="M134.364 72.97c0 1.58-.796 3.106-2.279 4.514-1.482 1.41-3.638 2.687-6.319 3.765-5.36 2.154-12.779 3.491-20.984 3.491-8.205 0-15.624-1.337-20.984-3.491-2.681-1.078-4.837-2.356-6.32-3.765-1.482-1.408-2.278-2.934-2.278-4.514s.796-3.106 2.278-4.514c1.483-1.41 3.639-2.687 6.32-3.764 5.36-2.155 12.779-3.492 20.984-3.492 8.205 0 15.624 1.337 20.984 3.492 2.681 1.077 4.837 2.355 6.319 3.764 1.483 1.408 2.279 2.934 2.279 4.514z" fill="#fff" stroke="#0F172A" stroke-width=".4"/><path d="M75.2 67.095v-.003c.897-1.166 2.33-2.12 4.198-2.893 1.896-.784 4.226-1.375 6.869-1.815 5.285-.878 11.793-1.144 18.515-1.144 6.722 0 13.23.266 18.515 1.144 2.643.44 4.973 1.03 6.868 1.815 1.869.773 3.301 1.727 4.199 2.893v5.918c0 1.58-.796 3.106-2.279 4.514-1.482 1.41-3.638 2.687-6.319 3.764-5.36 2.155-12.779 3.492-20.984 3.492-8.205 0-15.624-1.337-20.984-3.492-2.681-1.077-4.837-2.355-6.32-3.764-1.482-1.408-2.278-2.934-2.278-4.514V67.094z" fill="#0497EC" stroke="#0F172A" stroke-width=".4"/><path d="m85.873 82.09-5.673-2.5-3.413-2.8v-5.04l.596-2.94 2.978-.735 19.06-.735v17.01l-4.567-.26-5.008-1.018-3.973-.982zM129.799 79.31v-9.954l-4.765-.756v12.946l2.382-.976 2.383-1.26z" fill="#0F172A" stroke="#0F172A" stroke-width=".4"/><path d="M134.364 67.97c0 1.58-.796 3.106-2.279 4.514-1.482 1.41-3.638 2.687-6.319 3.765-5.36 2.154-12.779 3.491-20.984 3.491-8.205 0-15.624-1.337-20.984-3.491-2.681-1.078-4.837-2.356-6.32-3.765-1.482-1.408-2.278-2.934-2.278-4.514s.796-3.106 2.278-4.514c1.483-1.41 3.639-2.687 6.32-3.765 5.36-2.154 12.779-3.491 20.984-3.491 8.205 0 15.624 1.337 20.984 3.491 2.681 1.078 4.837 2.356 6.319 3.765 1.483 1.408 2.279 2.934 2.279 4.514z" fill="#fff" stroke="#0F172A" stroke-width=".4"/><path d="M75.2 62.095v-.003c.897-1.166 2.33-2.12 4.198-2.893 1.896-.784 4.226-1.375 6.869-1.815 5.285-.878 11.793-1.144 18.515-1.144 6.722 0 13.23.266 18.515 1.144 2.643.44 4.973 1.03 6.868 1.815 1.869.773 3.301 1.727 4.199 2.893v5.918c0 1.58-.796 3.106-2.279 4.514-1.482 1.41-3.638 2.687-6.319 3.764-5.36 2.155-12.779 3.492-20.984 3.492-8.205 0-15.624-1.337-20.984-3.492-2.681-1.077-4.837-2.355-6.32-3.764-1.482-1.408-2.278-2.934-2.278-4.514V62.094z" fill="#0497EC" stroke="#0F172A" stroke-width=".4"/><path d="m85.873 77.09-5.673-2.5-3.413-2.8v-5.04l.596-2.94 2.978-.735 19.06-.735v17.01l-4.567-.26-5.008-1.018-3.973-.982zM129.799 74.31v-9.954l-4.765-.756v12.946l2.382-.976 2.383-1.26z" fill="#0F172A" stroke="#0F172A" stroke-width=".4"/><path d="M134.364 62.97c0 1.58-.796 3.106-2.279 4.514-1.482 1.41-3.638 2.687-6.319 3.765-5.36 2.154-12.779 3.491-20.984 3.491-8.205 0-15.624-1.337-20.984-3.491-2.681-1.078-4.837-2.356-6.32-3.765-1.482-1.408-2.278-2.934-2.278-4.514s.796-3.106 2.278-4.514c1.483-1.41 3.639-2.687 6.32-3.765 5.36-2.154 12.779-3.491 20.984-3.491 8.205 0 15.624 1.337 20.984 3.491 2.681 1.078 4.837 2.356 6.319 3.765 1.483 1.408 2.279 2.934 2.279 4.514z" fill="#fff" stroke="#0F172A" stroke-width=".4"/><path d="M75.2 57.095v-.003c.897-1.166 2.33-2.12 4.198-2.893 1.896-.784 4.226-1.375 6.869-1.815 5.285-.878 11.793-1.144 18.515-1.144 6.722 0 13.23.266 18.515 1.144 2.643.44 4.973 1.03 6.868 1.815 1.869.773 3.301 1.727 4.199 2.893v5.918c0 1.58-.796 3.106-2.279 4.514-1.482 1.41-3.638 2.687-6.319 3.764-5.36 2.155-12.779 3.492-20.984 3.492-8.205 0-15.624-1.337-20.984-3.492-2.681-1.077-4.837-2.355-6.32-3.764-1.482-1.408-2.278-2.934-2.278-4.514V57.094z" fill="#0497EC" stroke="#0F172A" stroke-width=".4"/><path d="m85.873 72.09-5.673-2.5-3.413-2.8v-5.04l.596-2.94 2.978-.735 19.06-.735v17.01l-4.567-.26-5.008-1.018-3.973-.982zM129.799 69.31v-9.954l-4.765-.756v12.946l2.382-.976 2.383-1.26z" fill="#0F172A" stroke="#0F172A" stroke-width=".4"/><path d="M134.364 57.97c0 1.58-.796 3.106-2.279 4.514-1.482 1.41-3.638 2.687-6.319 3.765-5.36 2.154-12.779 3.491-20.984 3.491-8.205 0-15.624-1.337-20.984-3.491-2.681-1.078-4.837-2.356-6.32-3.765-1.482-1.408-2.278-2.934-2.278-4.514s.796-3.106 2.278-4.514c1.483-1.41 3.639-2.687 6.32-3.765 5.36-2.154 12.779-3.491 20.984-3.491 8.205 0 15.624 1.337 20.984 3.491 2.681 1.078 4.837 2.356 6.319 3.765 1.483 1.408 2.279 2.934 2.279 4.514z" fill="#fff" stroke="#0F172A" stroke-width=".4"/><path d="M75.2 52.095v-.003c.897-1.166 2.33-2.12 4.198-2.893 1.896-.784 4.226-1.375 6.869-1.815 5.285-.878 11.793-1.144 18.515-1.144 6.722 0 13.23.266 18.515 1.144 2.643.44 4.973 1.03 6.868 1.815 1.869.773 3.301 1.727 4.199 2.893v5.918c0 1.58-.796 3.106-2.279 4.514-1.482 1.41-3.638 2.687-6.319 3.764-5.36 2.155-12.779 3.492-20.984 3.492-8.205 0-15.624-1.337-20.984-3.492-2.681-1.077-4.837-2.355-6.32-3.764-1.482-1.408-2.278-2.934-2.278-4.514V52.094z" fill="#0497EC" stroke="#0F172A" stroke-width=".4"/><path d="m85.873 67.09-5.673-2.5-3.413-2.8v-5.04l.596-2.94 2.978-.735 19.06-.735v17.01l-4.567-.26-5.008-1.018-3.973-.982zM129.799 64.31v-9.954l-4.765-.756v12.946l2.382-.976 2.383-1.26z" fill="#0F172A" stroke="#0F172A" stroke-width=".4"/><path d="M134.364 52.97c0 1.58-.796 3.106-2.279 4.514-1.482 1.41-3.638 2.687-6.319 3.764-5.36 2.155-12.779 3.492-20.984 3.492-8.205 0-15.624-1.337-20.984-3.491-2.681-1.078-4.837-2.356-6.32-3.765-1.482-1.408-2.278-2.934-2.278-4.514s.796-3.106 2.278-4.514c1.483-1.41 3.639-2.687 6.32-3.765 5.36-2.154 12.779-3.491 20.984-3.491 8.205 0 15.624 1.337 20.984 3.491 2.681 1.078 4.837 2.356 6.319 3.765 1.483 1.408 2.279 2.934 2.279 4.514z" fill="#fff" stroke="#0F172A" stroke-width=".4"/><path d="M75.2 47.095v-.003c.897-1.166 2.33-2.12 4.198-2.893 1.896-.784 4.226-1.375 6.869-1.815 5.285-.878 11.793-1.144 18.515-1.144 6.722 0 13.23.266 18.515 1.144 2.643.44 4.973 1.03 6.868 1.815 1.869.773 3.301 1.727 4.199 2.893v5.918c0 1.58-.796 3.106-2.279 4.514-1.482 1.41-3.638 2.687-6.319 3.764-5.36 2.155-12.779 3.492-20.984 3.492-8.205 0-15.624-1.337-20.984-3.492-2.681-1.077-4.837-2.355-6.32-3.764-1.482-1.408-2.278-2.934-2.278-4.514V47.094z" fill="#0497EC" stroke="#0F172A" stroke-width=".4"/><path d="m85.873 62.09-5.673-2.5-3.413-2.8v-5.04l.596-2.94 2.978-.735 19.06-.735v17.01l-4.567-.26-5.008-1.018-3.973-.982zM129.799 59.31v-9.954l-4.765-.756v12.946l2.382-.976 2.383-1.26z" fill="#0F172A" stroke="#0F172A" stroke-width=".4"/><path d="M134.364 47.97c0 1.58-.796 3.106-2.279 4.514-1.482 1.41-3.638 2.687-6.319 3.764-5.36 2.155-12.779 3.492-20.984 3.492-8.205 0-15.624-1.337-20.984-3.492-2.681-1.077-4.837-2.355-6.32-3.764-1.482-1.408-2.278-2.934-2.278-4.514s.796-3.106 2.278-4.514c1.483-1.41 3.639-2.687 6.32-3.765 5.36-2.154 12.779-3.491 20.984-3.491 8.205 0 15.624 1.337 20.984 3.491 2.681 1.078 4.837 2.356 6.319 3.765 1.483 1.408 2.279 2.934 2.279 4.514z" fill="#fff" stroke="#0F172A" stroke-width=".4"/><path d="M75.2 42.095v-.003c.897-1.166 2.33-2.12 4.198-2.893 1.896-.784 4.226-1.375 6.869-1.815 5.285-.878 11.793-1.144 18.515-1.144 6.722 0 13.23.266 18.515 1.144 2.643.44 4.973 1.03 6.868 1.815 1.869.773 3.301 1.727 4.199 2.893v5.918c0 1.58-.796 3.106-2.279 4.514-1.482 1.41-3.638 2.687-6.319 3.764-5.36 2.155-12.779 3.492-20.984 3.492-8.205 0-15.624-1.337-20.984-3.492-2.681-1.077-4.837-2.355-6.32-3.764-1.482-1.408-2.278-2.934-2.278-4.514V42.094z" fill="#0497EC" stroke="#0F172A" stroke-width=".4"/><path d="m85.873 57.09-5.673-2.5-3.413-2.8v-5.04l.596-2.94 2.978-.735 19.06-.735v17.01l-4.567-.26-5.008-1.018-3.973-.982zM129.799 54.31v-9.954l-4.765-.756v12.946l2.382-.976 2.383-1.26z" fill="#0F172A" stroke="#0F172A" stroke-width=".4"/><path d="M134.364 42.97c0 1.58-.796 3.106-2.279 4.514-1.482 1.41-3.638 2.687-6.319 3.764-5.36 2.155-12.779 3.492-20.984 3.492-8.205 0-15.624-1.337-20.984-3.492-2.681-1.077-4.837-2.355-6.32-3.764-1.482-1.408-2.278-2.934-2.278-4.514s.796-3.106 2.278-4.514c1.483-1.41 3.639-2.687 6.32-3.765 5.36-2.154 12.779-3.491 20.984-3.491 8.205 0 15.624 1.337 20.984 3.491 2.681 1.078 4.837 2.356 6.319 3.765 1.483 1.408 2.279 2.934 2.279 4.514z" fill="#fff" stroke="#0F172A" stroke-width=".4"/><path d="M75.2 37.095v-.003c.897-1.166 2.33-2.12 4.198-2.893 1.896-.784 4.226-1.375 6.869-1.815 5.285-.878 11.793-1.144 18.515-1.144 6.722 0 13.23.266 18.515 1.144 2.643.44 4.973 1.03 6.868 1.815 1.869.773 3.301 1.727 4.199 2.893v5.918c0 1.58-.796 3.106-2.279 4.514-1.482 1.41-3.638 2.687-6.319 3.764-5.36 2.155-12.779 3.492-20.984 3.492-8.205 0-15.624-1.337-20.984-3.492-2.681-1.077-4.837-2.355-6.32-3.764-1.482-1.408-2.278-2.934-2.278-4.514V37.094z" fill="#0497EC" stroke="#0F172A" stroke-width=".4"/><path d="m85.873 52.09-5.673-2.5-3.413-2.8v-5.04l.596-2.94 2.978-.735 19.06-.735v17.01l-4.567-.26-5.008-1.018-3.973-.982zM129.799 49.31v-9.954l-4.765-.756v12.946l2.382-.976 2.383-1.26z" fill="#0F172A" stroke="#0F172A" stroke-width=".4"/><path d="M134.364 37.97c0 1.58-.796 3.106-2.279 4.514-1.482 1.41-3.638 2.687-6.319 3.764-5.36 2.155-12.779 3.492-20.984 3.492-8.205 0-15.624-1.337-20.984-3.492-2.681-1.077-4.837-2.355-6.32-3.764-1.482-1.408-2.278-2.934-2.278-4.514s.796-3.106 2.278-4.514c1.483-1.41 3.639-2.687 6.32-3.765 5.36-2.154 12.779-3.491 20.984-3.491 8.205 0 15.624 1.337 20.984 3.492 2.681 1.077 4.837 2.355 6.319 3.764 1.483 1.408 2.279 2.934 2.279 4.514z" fill="#fff" stroke="#0F172A" stroke-width=".4"/><path d="M75.2 32.095v-.003c.897-1.166 2.33-2.12 4.198-2.893 1.896-.784 4.226-1.375 6.869-1.815 5.285-.878 11.793-1.144 18.515-1.144 6.722 0 13.23.266 18.515 1.144 2.643.44 4.973 1.03 6.868 1.815 1.869.773 3.301 1.727 4.199 2.893v5.918c0 1.58-.796 3.106-2.279 4.514-1.482 1.41-3.638 2.687-6.319 3.764-5.36 2.155-12.779 3.492-20.984 3.492-8.205 0-15.624-1.337-20.984-3.492-2.681-1.077-4.837-2.355-6.32-3.764-1.482-1.408-2.278-2.934-2.278-4.514V32.094z" fill="#0497EC" stroke="#0F172A" stroke-width=".4"/><path d="m85.873 47.09-5.673-2.5-3.413-2.8v-5.04l.596-2.94 2.978-.735 19.06-.735v17.01l-4.567-.26-5.008-1.018-3.973-.982zM129.799 44.31v-9.954l-4.765-.756v12.946l2.382-.976 2.383-1.26z" fill="#0F172A" stroke="#0F172A" stroke-width=".4"/><path d="M134.364 32.97c0 1.58-.796 3.106-2.279 4.514-1.482 1.41-3.638 2.687-6.319 3.764-5.36 2.155-12.779 3.492-20.984 3.492-8.205 0-15.624-1.337-20.984-3.492-2.681-1.077-4.837-2.355-6.32-3.764-1.482-1.408-2.278-2.934-2.278-4.514s.796-3.106 2.278-4.514c1.483-1.41 3.639-2.687 6.32-3.764 5.36-2.155 12.779-3.492 20.984-3.492 8.205 0 15.624 1.337 20.984 3.492 2.681 1.077 4.837 2.355 6.319 3.764 1.483 1.408 2.279 2.934 2.279 4.514z" fill="#fff" stroke="#0F172A" stroke-width=".4"/><path d="M75.2 27.095v-.003c.897-1.166 2.33-2.12 4.198-2.893 1.896-.784 4.226-1.375 6.869-1.815 5.285-.878 11.793-1.144 18.515-1.144 6.722 0 13.23.266 18.515 1.144 2.643.44 4.973 1.03 6.868 1.815 1.869.773 3.301 1.727 4.199 2.893v5.918c0 1.58-.796 3.106-2.279 4.514-1.482 1.41-3.638 2.687-6.319 3.764-5.36 2.155-12.779 3.492-20.984 3.492-8.205 0-15.624-1.337-20.984-3.492-2.681-1.077-4.837-2.355-6.32-3.764-1.482-1.408-2.278-2.934-2.278-4.514V27.094z" fill="#0497EC" stroke="#0F172A" stroke-width=".4"/><path d="m85.873 42.09-5.673-2.5-3.413-2.8v-5.04l.596-2.94 2.978-.735 19.06-.735v17.01l-4.567-.26-5.008-1.018-3.973-.982zM129.799 39.31v-9.954l-4.765-.756v12.946l2.382-.976 2.383-1.26z" fill="#0F172A" stroke="#0F172A" stroke-width=".4"/><path d="m134.31 30.27-.001 49.288v33.873l-.001 11.168V128.84c-.034 1.738-.852 3.418-2.342 4.968-1.492 1.551-3.645 2.961-6.317 4.152-5.344 2.381-12.717 3.866-20.869 3.866-8.143 0-15.508-1.476-20.85-3.847-2.67-1.185-4.825-2.59-6.319-4.136-1.493-1.546-2.316-3.221-2.357-4.956v-4.244l-.001-11.174-.001-33.887-.002-49.311c0-1.752.795-3.439 2.272-4.994 1.477-1.556 3.627-2.97 6.302-4.162 5.35-2.384 12.76-3.865 20.956-3.865 8.197 0 15.606 1.481 20.956 3.865 2.675 1.192 4.825 2.606 6.302 4.162 1.477 1.555 2.272 3.242 2.272 4.993z" fill="url(#b)" stroke="#0F172A" stroke-width=".5"/><path d="M134.364 27.97c0 1.58-.796 3.106-2.279 4.514-1.482 1.41-3.638 2.687-6.319 3.764-5.36 2.155-12.779 3.492-20.984 3.492-8.205 0-15.624-1.337-20.984-3.492-2.681-1.077-4.837-2.355-6.32-3.764-1.482-1.408-2.278-2.934-2.278-4.514s.796-3.106 2.278-4.514c1.483-1.41 3.639-2.687 6.32-3.764 5.36-2.155 12.779-3.492 20.984-3.492 8.205 0 15.624 1.337 20.984 3.492 2.681 1.077 4.837 2.355 6.319 3.764 1.483 1.408 2.279 2.934 2.279 4.514z" fill="url(#c)" stroke="#0F172A" stroke-width=".4"/><path d="M81.1 27c0 1.06.658 2.086 1.886 3.035 1.228.947 3.01 1.805 5.22 2.527C92.629 34.005 98.743 34.9 105.5 34.9c6.758 0 12.872-.895 17.293-2.338 2.211-.722 3.993-1.58 5.221-2.527 1.228-.949 1.886-1.975 1.886-3.035s-.658-2.086-1.886-3.035c-1.228-.947-3.01-1.805-5.221-2.527-4.421-1.443-10.535-2.338-17.293-2.338-6.758 0-12.872.895-17.293 2.338-2.211.722-3.993 1.58-5.22 2.527-1.23.949-1.887 1.975-1.887 3.035z" fill="#0F172A" stroke="#0F172A" stroke-width=".2"/><path d="M81.1 28c0 1.06.658 2.086 1.886 3.035 1.228.947 3.01 1.805 5.22 2.527C92.629 35.005 98.743 35.9 105.5 35.9c6.758 0 12.872-.895 17.293-2.338 2.211-.722 3.993-1.58 5.221-2.527 1.228-.949 1.886-1.975 1.886-3.035s-.658-2.086-1.886-3.035c-1.228-.947-3.01-1.805-5.221-2.527-4.421-1.443-10.535-2.338-17.293-2.338-6.758 0-12.872.895-17.293 2.338-2.211.722-3.993 1.58-5.22 2.527-1.23.949-1.887 1.975-1.887 3.035z" fill="#FFDF77" stroke="#0F172A" stroke-width=".2"/><g filter="url(#d)"><mask id="e" fill="#fff"><path fill-rule="evenodd" clip-rule="evenodd" d="M101.268 22a.7.7 0 0 0-.7.7V26H92.7a.7.7 0 0 0-.7.7v1.354a.7.7 0 0 0 .7.7h7.868v2.643a.7.7 0 0 0 .7.7h5.025a.7.7 0 0 0 .7-.7v-2.643h7.866a.7.7 0 0 0 .7-.7V26.7a.7.7 0 0 0-.7-.7h-7.866v-3.3a.7.7 0 0 0-.7-.7h-5.025z"/></mask><path fill-rule="evenodd" clip-rule="evenodd" d="M101.268 22a.7.7 0 0 0-.7.7V26H92.7a.7.7 0 0 0-.7.7v1.354a.7.7 0 0 0 .7.7h7.868v2.643a.7.7 0 0 0 .7.7h5.025a.7.7 0 0 0 .7-.7v-2.643h7.866a.7.7 0 0 0 .7-.7V26.7a.7.7 0 0 0-.7-.7h-7.866v-3.3a.7.7 0 0 0-.7-.7h-5.025z" fill="#FFDF77"/><path d="M100.568 26v.4h.4V26h-.4zM92.7 26v-.4.4zm-.7.7h-.4.4zm0 1.354h.4-.4zm8.568.7h.4v-.4h-.4v.4zm6.425 0v-.4h-.4v.4h.4zM114.859 26v.4-.4zm-7.866 0h-.4v.4h.4V26zm-6.025-3.3a.3.3 0 0 1 .3-.3v-.8a1.1 1.1 0 0 0-1.1 1.1h.8zm0 3.3v-3.3h-.8V26h.8zm-8.268.4h7.868v-.8H92.7v.8zm-.3.3a.3.3 0 0 1 .3-.3v-.8a1.1 1.1 0 0 0-1.1 1.1h.8zm0 1.354V26.7h-.8v1.354h.8zm.3.3a.3.3 0 0 1-.3-.3h-.8a1.1 1.1 0 0 0 1.1 1.1v-.8zm7.868 0H92.7v.8h7.868v-.8zm.4 3.043v-2.643h-.8v2.643h.8zm.3.3a.3.3 0 0 1-.3-.3h-.8a1.1 1.1 0 0 0 1.1 1.1v-.8zm5.025 0h-5.025v.8h5.025v-.8zm.3-.3a.3.3 0 0 1-.3.3v.8a1.1 1.1 0 0 0 1.1-1.1h-.8zm0-2.643v2.643h.8v-2.643h-.8zm8.266-.4h-7.866v.8h7.866v-.8zm.3-.3a.3.3 0 0 1-.3.3v.8a1.1 1.1 0 0 0 1.1-1.1h-.8zm0-1.354v1.354h.8V26.7h-.8zm-.3-.3a.3.3 0 0 1 .3.3h.8a1.1 1.1 0 0 0-1.1-1.1v.8zm-7.866 0h7.866v-.8h-7.866v.8zm-.4-3.7V26h.8v-3.3h-.8zm-.3-.3a.3.3 0 0 1 .3.3h.8a1.1 1.1 0 0 0-1.1-1.1v.8zm-5.025 0h5.025v-.8h-5.025v.8z" fill="#000" mask="url(#e)"/></g><path d="M78.31 50.27v42.288l-.001 29.061v13.221c-.035 1.738-.853 3.418-2.343 4.968-1.492 1.551-3.645 2.961-6.317 4.152-5.344 2.381-12.717 3.866-20.869 3.866-8.143 0-15.508-1.476-20.85-3.847-2.67-1.185-4.825-2.59-6.319-4.136-1.493-1.546-2.316-3.221-2.357-4.956v-3.642l-.001-9.588-.001-29.075-.002-42.311c0-1.752.795-3.439 2.272-4.994 1.477-1.556 3.627-2.97 6.302-4.162 5.35-2.384 12.76-3.865 20.956-3.865 8.197 0 15.606 1.481 20.956 3.865 2.675 1.192 4.825 2.606 6.302 4.162 1.477 1.555 2.272 3.242 2.272 4.993z" fill="url(#f)" stroke="#0F172A" stroke-width=".5"/><path d="M78.364 47.97c0 1.58-.796 3.106-2.279 4.514-1.482 1.41-3.638 2.687-6.319 3.764-5.36 2.155-12.78 3.492-20.984 3.492-8.205 0-15.624-1.337-20.984-3.492-2.681-1.077-4.837-2.355-6.32-3.764-1.482-1.408-2.278-2.934-2.278-4.514s.796-3.106 2.278-4.514c1.483-1.41 3.639-2.687 6.32-3.765 5.36-2.154 12.779-3.491 20.984-3.491 8.205 0 15.624 1.337 20.984 3.491 2.68 1.078 4.837 2.356 6.32 3.765 1.482 1.408 2.278 2.934 2.278 4.514z" fill="url(#g)" stroke="#0F172A" stroke-width=".4"/><path d="M25.1 47c0 1.06.658 2.086 1.886 3.035 1.228.947 3.01 1.805 5.22 2.527C36.629 54.005 42.743 54.9 49.5 54.9c6.758 0 12.872-.895 17.293-2.338 2.211-.722 3.993-1.58 5.22-2.527C73.244 49.086 73.9 48.06 73.9 47s-.658-2.086-1.886-3.035c-1.228-.947-3.01-1.805-5.22-2.527C62.371 39.995 56.257 39.1 49.5 39.1c-6.758 0-12.872.895-17.293 2.338-2.211.722-3.993 1.58-5.22 2.527-1.23.949-1.887 1.975-1.887 3.035z" fill="#0F172A" stroke="#0F172A" stroke-width=".2"/><path d="M25.1 48c0 1.06.658 2.086 1.886 3.035 1.228.947 3.01 1.805 5.22 2.527C36.629 55.005 42.743 55.9 49.5 55.9c6.758 0 12.872-.895 17.293-2.338 2.211-.722 3.993-1.58 5.22-2.527C73.244 50.086 73.9 49.06 73.9 48s-.658-2.086-1.886-3.035c-1.228-.947-3.01-1.805-5.22-2.527C62.371 40.995 56.257 40.1 49.5 40.1c-6.758 0-12.872.895-17.293 2.338-2.211.722-3.993 1.58-5.22 2.527-1.23.949-1.887 1.975-1.887 3.035z" fill="#FFDF77" stroke="#0F172A" stroke-width=".2"/><g filter="url(#h)"><mask id="i" fill="#fff"><path fill-rule="evenodd" clip-rule="evenodd" d="M45.268 42a.7.7 0 0 0-.7.7V46H36.7a.7.7 0 0 0-.7.7v1.354a.7.7 0 0 0 .7.7h7.868v2.643a.7.7 0 0 0 .7.7h5.025a.7.7 0 0 0 .7-.7v-2.643h7.866a.7.7 0 0 0 .7-.7V46.7a.7.7 0 0 0-.7-.7h-7.866v-3.3a.7.7 0 0 0-.7-.7h-5.025z"/></mask><path fill-rule="evenodd" clip-rule="evenodd" d="M45.268 42a.7.7 0 0 0-.7.7V46H36.7a.7.7 0 0 0-.7.7v1.354a.7.7 0 0 0 .7.7h7.868v2.643a.7.7 0 0 0 .7.7h5.025a.7.7 0 0 0 .7-.7v-2.643h7.866a.7.7 0 0 0 .7-.7V46.7a.7.7 0 0 0-.7-.7h-7.866v-3.3a.7.7 0 0 0-.7-.7h-5.025z" fill="#FFDF77"/><path d="M44.568 46v.4h.4V46h-.4zM36.7 46v-.4.4zm-.7.7h-.4.4zm0 1.354h.4-.4zm8.568.7h.4v-.4h-.4v.4zm6.425 0v-.4h-.4v.4h.4zM58.859 46v.4-.4zm-7.866 0h-.4v.4h.4V46zm-6.025-3.3a.3.3 0 0 1 .3-.3v-.8a1.1 1.1 0 0 0-1.1 1.1h.8zm0 3.3v-3.3h-.8V46h.8zm-8.268.4h7.868v-.8H36.7v.8zm-.3.3a.3.3 0 0 1 .3-.3v-.8a1.1 1.1 0 0 0-1.1 1.1h.8zm0 1.354V46.7h-.8v1.354h.8zm.3.3a.3.3 0 0 1-.3-.3h-.8a1.1 1.1 0 0 0 1.1 1.1v-.8zm7.868 0H36.7v.8h7.868v-.8zm.4 3.043v-2.643h-.8v2.643h.8zm.3.3a.3.3 0 0 1-.3-.3h-.8a1.1 1.1 0 0 0 1.1 1.1v-.8zm5.025 0h-5.025v.8h5.025v-.8zm.3-.3a.3.3 0 0 1-.3.3v.8a1.1 1.1 0 0 0 1.1-1.1h-.8zm0-2.643v2.643h.8v-2.643h-.8zm8.266-.4h-7.866v.8h7.866v-.8zm.3-.3a.3.3 0 0 1-.3.3v.8a1.1 1.1 0 0 0 1.1-1.1h-.8zm0-1.354v1.354h.8V46.7h-.8zm-.3-.3a.3.3 0 0 1 .3.3h.8a1.1 1.1 0 0 0-1.1-1.1v.8zm-7.866 0h7.866v-.8h-7.866v.8zm-.4-3.7V46h.8v-3.3h-.8zm-.3-.3a.3.3 0 0 1 .3.3h.8a1.1 1.1 0 0 0-1.1-1.1v.8zm-5.025 0h5.025v-.8h-5.025v.8z" fill="#000" mask="url(#i)"/></g><path d="M61.364 135.095v-.003c-.898-1.166-2.33-2.12-4.199-2.893-1.895-.784-4.225-1.375-6.868-1.815-5.285-.878-11.793-1.144-18.515-1.144-6.722 0-13.23.266-18.516 1.144-2.642.44-4.972 1.031-6.868 1.815-1.869.773-3.3 1.727-4.198 2.893v5.918c0 1.58.796 3.106 2.278 4.514 1.483 1.409 3.639 2.687 6.32 3.764 5.36 2.155 12.779 3.492 20.984 3.492 8.205 0 15.624-1.337 20.984-3.492 2.68-1.077 4.837-2.355 6.32-3.764 1.482-1.408 2.278-2.934 2.278-4.514V135.095z" fill="#0497EC" stroke="#0F172A" stroke-width=".4"/><path d="m50.69 150.09 5.674-2.5 3.413-2.8v-5.04l-.596-2.94-2.978-.735-19.06-.735v17.01l4.566-.26 5.009-1.018 3.973-.982zM6.765 147.31v-9.954l4.765-.756v12.946l-2.383-.976-2.382-1.26z" fill="#0F172A" stroke="#0F172A" stroke-width=".4"/><path d="M2.2 135.97c0 1.58.796 3.106 2.278 4.514 1.483 1.409 3.639 2.687 6.32 3.764 5.36 2.155 12.779 3.492 20.984 3.492 8.205 0 15.624-1.337 20.984-3.492 2.68-1.077 4.837-2.355 6.32-3.764 1.482-1.408 2.278-2.934 2.278-4.514s-.796-3.106-2.279-4.514c-1.482-1.409-3.638-2.687-6.319-3.764-5.36-2.155-12.78-3.492-20.984-3.492-8.205 0-15.624 1.337-20.985 3.492-2.68 1.077-4.836 2.355-6.319 3.764-1.482 1.408-2.278 2.934-2.278 4.514z" fill="#FFDE76" stroke="#0F172A" stroke-width=".4"/><path d="M61.364 130.095v-.003c-.898-1.166-2.33-2.12-4.199-2.893-1.895-.784-4.225-1.375-6.868-1.815-5.285-.878-11.793-1.144-18.515-1.144-6.722 0-13.23.266-18.516 1.144-2.642.44-4.972 1.031-6.868 1.815-1.869.773-3.3 1.727-4.198 2.893v5.918c0 1.58.796 3.106 2.278 4.514 1.483 1.409 3.639 2.687 6.32 3.764 5.36 2.155 12.779 3.492 20.984 3.492 8.205 0 15.624-1.337 20.984-3.492 2.68-1.077 4.837-2.355 6.32-3.764 1.482-1.408 2.278-2.934 2.278-4.514V130.095z" fill="#0497EC" stroke="#0F172A" stroke-width=".4"/><path d="m50.69 145.09 5.674-2.5 3.413-2.8v-5.04l-.596-2.94-2.978-.735-19.06-.735v17.01l4.566-.26 5.009-1.018 3.973-.982zM6.765 142.31v-9.954l4.765-.756v12.946l-2.383-.976-2.382-1.26z" fill="#0F172A" stroke="#0F172A" stroke-width=".4"/><path d="M2.2 130.97c0 1.58.796 3.106 2.278 4.514 1.483 1.409 3.639 2.687 6.32 3.764 5.36 2.155 12.779 3.492 20.984 3.492 8.205 0 15.624-1.337 20.984-3.492 2.68-1.077 4.837-2.355 6.32-3.764 1.482-1.408 2.278-2.934 2.278-4.514s-.796-3.106-2.279-4.514c-1.482-1.409-3.638-2.687-6.319-3.764-5.36-2.155-12.78-3.492-20.984-3.492-8.205 0-15.624 1.337-20.985 3.492-2.68 1.077-4.836 2.355-6.319 3.764-1.482 1.408-2.278 2.934-2.278 4.514z" fill="#FFDE76" stroke="#0F172A" stroke-width=".4"/><path d="M61.364 125.095v-.003c-.898-1.166-2.33-2.12-4.199-2.893-1.895-.784-4.225-1.375-6.868-1.815-5.285-.878-11.793-1.144-18.515-1.144-6.722 0-13.23.266-18.516 1.144-2.642.44-4.972 1.031-6.868 1.815-1.869.773-3.3 1.727-4.198 2.893v5.918c0 1.58.796 3.106 2.278 4.514 1.483 1.409 3.639 2.687 6.32 3.764 5.36 2.155 12.779 3.492 20.984 3.492 8.205 0 15.624-1.337 20.984-3.492 2.68-1.077 4.837-2.355 6.32-3.764 1.482-1.408 2.278-2.934 2.278-4.514V125.095z" fill="#0497EC" stroke="#0F172A" stroke-width=".4"/><path d="m50.69 140.09 5.674-2.5 3.413-2.8v-5.04l-.596-2.94-2.978-.735-19.06-.735v17.01l4.566-.26 5.009-1.018 3.973-.982zM6.765 137.31v-9.954l4.765-.756v12.946l-2.383-.976-2.382-1.26z" fill="#0F172A" stroke="#0F172A" stroke-width=".4"/><path d="M2.2 125.97c0 1.58.796 3.106 2.278 4.514 1.483 1.409 3.639 2.687 6.32 3.764 5.36 2.155 12.779 3.492 20.984 3.492 8.205 0 15.624-1.337 20.984-3.492 2.68-1.077 4.837-2.355 6.32-3.764 1.482-1.408 2.278-2.934 2.278-4.514s-.796-3.106-2.279-4.514c-1.482-1.409-3.638-2.687-6.319-3.764-5.36-2.155-12.78-3.492-20.984-3.492-8.205 0-15.624 1.337-20.985 3.492-2.68 1.077-4.836 2.355-6.319 3.764-1.482 1.408-2.278 2.934-2.278 4.514z" fill="#FFDE76" stroke="#0F172A" stroke-width=".4"/><path d="M61.364 120.095v-.003c-.898-1.166-2.33-2.12-4.199-2.893-1.895-.784-4.225-1.375-6.868-1.815-5.285-.878-11.793-1.144-18.515-1.144-6.722 0-13.23.266-18.516 1.144-2.642.44-4.972 1.031-6.868 1.815-1.869.773-3.3 1.727-4.198 2.893v5.918c0 1.58.796 3.106 2.278 4.514 1.483 1.409 3.639 2.687 6.32 3.764 5.36 2.155 12.779 3.492 20.984 3.492 8.205 0 15.624-1.337 20.984-3.492 2.68-1.077 4.837-2.355 6.32-3.764 1.482-1.408 2.278-2.934 2.278-4.514V120.095z" fill="#0497EC" stroke="#0F172A" stroke-width=".4"/><path d="m50.69 135.09 5.674-2.5 3.413-2.8v-5.04l-.596-2.94-2.978-.735-19.06-.735v17.01l4.566-.26 5.009-1.018 3.973-.982zM6.765 132.31v-9.954l4.765-.756v12.946l-2.383-.976-2.382-1.26z" fill="#0F172A" stroke="#0F172A" stroke-width=".4"/><path d="M2.2 120.97c0 1.58.796 3.106 2.278 4.514 1.483 1.409 3.639 2.687 6.32 3.764 5.36 2.155 12.779 3.492 20.984 3.492 8.205 0 15.624-1.337 20.984-3.492 2.68-1.077 4.837-2.355 6.32-3.764 1.482-1.408 2.278-2.934 2.278-4.514s-.796-3.106-2.279-4.514c-1.482-1.409-3.638-2.687-6.319-3.764-5.36-2.155-12.78-3.492-20.984-3.492-8.205 0-15.624 1.337-20.985 3.492-2.68 1.077-4.836 2.355-6.319 3.764-1.482 1.408-2.278 2.934-2.278 4.514z" fill="#FFDE76" stroke="#0F172A" stroke-width=".4"/><path d="M61.364 115.095v-.003c-.898-1.166-2.33-2.12-4.199-2.893-1.895-.784-4.225-1.375-6.868-1.815-5.285-.878-11.793-1.144-18.515-1.144-6.722 0-13.23.266-18.516 1.144-2.642.44-4.972 1.031-6.868 1.815-1.869.773-3.3 1.727-4.198 2.893v5.918c0 1.58.796 3.106 2.278 4.514 1.483 1.409 3.639 2.687 6.32 3.764 5.36 2.155 12.779 3.492 20.984 3.492 8.205 0 15.624-1.337 20.984-3.492 2.68-1.077 4.837-2.355 6.32-3.764 1.482-1.408 2.278-2.934 2.278-4.514V115.095z" fill="#0497EC" stroke="#0F172A" stroke-width=".4"/><path d="m50.69 130.09 5.674-2.5 3.413-2.8v-5.04l-.596-2.94-2.978-.735-19.06-.735v17.01l4.566-.26 5.009-1.018 3.973-.982zM6.765 127.31v-9.954l4.765-.756v12.946l-2.383-.976-2.382-1.26z" fill="#0F172A" stroke="#0F172A" stroke-width=".4"/><path d="M2.2 115.97c0 1.58.796 3.106 2.278 4.514 1.483 1.409 3.639 2.687 6.32 3.764 5.36 2.155 12.779 3.492 20.984 3.492 8.205 0 15.624-1.337 20.984-3.492 2.68-1.077 4.837-2.355 6.32-3.764 1.482-1.408 2.278-2.934 2.278-4.514s-.796-3.106-2.279-4.514c-1.482-1.409-3.638-2.687-6.319-3.764-5.36-2.155-12.78-3.492-20.984-3.492-8.205 0-15.624 1.337-20.985 3.492-2.68 1.077-4.836 2.355-6.319 3.764-1.482 1.408-2.278 2.934-2.278 4.514z" fill="#FFDE76" stroke="#0F172A" stroke-width=".4"/><path d="M61.364 110.095v-.003c-.898-1.166-2.33-2.12-4.199-2.893-1.895-.784-4.225-1.375-6.868-1.815-5.285-.878-11.793-1.144-18.515-1.144-6.722 0-13.23.266-18.516 1.144-2.642.44-4.972 1.031-6.868 1.815-1.869.773-3.3 1.727-4.198 2.893v5.918c0 1.58.796 3.106 2.278 4.514 1.483 1.409 3.639 2.687 6.32 3.765 5.36 2.154 12.779 3.491 20.984 3.491 8.205 0 15.624-1.337 20.984-3.491 2.68-1.078 4.837-2.356 6.32-3.765 1.482-1.408 2.278-2.934 2.278-4.514V110.095z" fill="#0497EC" stroke="#0F172A" stroke-width=".4"/><path d="m50.69 125.09 5.674-2.5 3.413-2.8v-5.04l-.596-2.94-2.978-.735-19.06-.735v17.01l4.566-.26 5.009-1.018 3.973-.982zM6.765 122.31v-9.954l4.765-.756v12.946l-2.383-.976-2.382-1.26z" fill="#0F172A" stroke="#0F172A" stroke-width=".4"/><path d="M2.2 110.97c0 1.58.796 3.106 2.278 4.514 1.483 1.409 3.639 2.687 6.32 3.764 5.36 2.155 12.779 3.492 20.984 3.492 8.205 0 15.624-1.337 20.984-3.492 2.68-1.077 4.837-2.355 6.32-3.764 1.482-1.408 2.278-2.934 2.278-4.514s-.796-3.106-2.279-4.514c-1.482-1.409-3.638-2.687-6.319-3.764-5.36-2.155-12.78-3.492-20.984-3.492-8.205 0-15.624 1.337-20.985 3.492-2.68 1.077-4.836 2.355-6.319 3.764-1.482 1.408-2.278 2.934-2.278 4.514z" fill="#FFDE76" stroke="#0F172A" stroke-width=".4"/><path d="M61.364 105.095v-.003c-.898-1.166-2.33-2.12-4.199-2.893-1.895-.784-4.225-1.375-6.868-1.815-5.285-.878-11.793-1.144-18.515-1.144-6.722 0-13.23.266-18.516 1.144-2.642.44-4.972 1.031-6.868 1.815-1.869.773-3.3 1.727-4.198 2.893v5.918c0 1.58.796 3.106 2.278 4.514 1.483 1.409 3.639 2.687 6.32 3.765 5.36 2.154 12.779 3.491 20.984 3.491 8.205 0 15.624-1.337 20.984-3.491 2.68-1.078 4.837-2.356 6.32-3.765 1.482-1.408 2.278-2.934 2.278-4.514V105.095z" fill="#0497EC" stroke="#0F172A" stroke-width=".4"/><path d="m50.69 120.09 5.674-2.5 3.413-2.8v-5.04l-.596-2.94-2.978-.735-19.06-.735v17.01l4.566-.26 5.009-1.018 3.973-.982zM6.765 117.31v-9.954l4.765-.756v12.946l-2.383-.976-2.382-1.26z" fill="#0F172A" stroke="#0F172A" stroke-width=".4"/><path d="M2.2 105.97c0 1.58.796 3.106 2.278 4.514 1.483 1.409 3.639 2.687 6.32 3.764 5.36 2.155 12.779 3.492 20.984 3.492 8.205 0 15.624-1.337 20.984-3.492 2.68-1.077 4.837-2.355 6.32-3.764 1.482-1.408 2.278-2.934 2.278-4.514s-.796-3.106-2.279-4.514c-1.482-1.409-3.638-2.687-6.319-3.764-5.36-2.155-12.78-3.492-20.984-3.492-8.205 0-15.624 1.337-20.985 3.492-2.68 1.077-4.836 2.355-6.319 3.764-1.482 1.408-2.278 2.934-2.278 4.514z" fill="#FFDE76" stroke="#0F172A" stroke-width=".4"/><path d="M61.364 100.095v-.003c-.898-1.166-2.33-2.12-4.199-2.893-1.895-.784-4.225-1.375-6.868-1.815-5.285-.878-11.793-1.144-18.515-1.144-6.722 0-13.23.266-18.516 1.144-2.642.44-4.972 1.03-6.868 1.815-1.869.773-3.3 1.727-4.198 2.893v5.918c0 1.58.796 3.106 2.278 4.514 1.483 1.409 3.639 2.687 6.32 3.765 5.36 2.154 12.779 3.491 20.984 3.491 8.205 0 15.624-1.337 20.984-3.491 2.68-1.078 4.837-2.356 6.32-3.765 1.482-1.408 2.278-2.934 2.278-4.514V100.095z" fill="#0497EC" stroke="#0F172A" stroke-width=".4"/><path d="m50.69 115.09 5.674-2.5 3.413-2.8v-5.04l-.596-2.94-2.978-.735-19.06-.735v17.01l4.566-.26 5.009-1.018 3.973-.982zM6.765 112.31v-9.954l4.765-.756v12.946l-2.383-.976-2.382-1.26z" fill="#0F172A" stroke="#0F172A" stroke-width=".4"/><path d="M2.2 100.97c0 1.58.796 3.106 2.278 4.514 1.483 1.409 3.639 2.687 6.32 3.764 5.36 2.155 12.779 3.492 20.984 3.492 8.205 0 15.624-1.337 20.984-3.492 2.68-1.077 4.837-2.355 6.32-3.764 1.482-1.408 2.278-2.934 2.278-4.514s-.796-3.106-2.279-4.514c-1.482-1.41-3.638-2.687-6.319-3.764-5.36-2.155-12.78-3.492-20.984-3.492-8.205 0-15.624 1.337-20.985 3.492-2.68 1.077-4.836 2.355-6.319 3.764C2.996 97.864 2.2 99.39 2.2 100.97z" fill="url(#j)" stroke="#0F172A" stroke-width=".4"/><path d="M8.1 100c0 1.06.658 2.086 1.886 3.035 1.228.947 3.01 1.805 5.22 2.527 4.422 1.443 10.536 2.338 17.294 2.338 6.758 0 12.872-.895 17.293-2.338 2.211-.722 3.993-1.58 5.22-2.527 1.23-.949 1.887-1.975 1.887-3.035s-.658-2.086-1.886-3.035c-1.228-.947-3.01-1.805-5.22-2.527C45.371 92.995 39.257 92.1 32.5 92.1c-6.758 0-12.872.895-17.293 2.338-2.211.722-3.993 1.58-5.22 2.527C8.756 97.914 8.1 98.94 8.1 100z" fill="#0F172A" stroke="#0F172A" stroke-width=".2"/><path d="M8.1 101c0 1.06.658 2.086 1.886 3.035 1.228.947 3.01 1.805 5.22 2.527 4.422 1.443 10.536 2.338 17.294 2.338 6.758 0 12.872-.895 17.293-2.338 2.211-.722 3.993-1.58 5.22-2.527 1.23-.949 1.887-1.975 1.887-3.035s-.658-2.086-1.886-3.035c-1.228-.947-3.01-1.805-5.22-2.527C45.371 93.995 39.257 93.1 32.5 93.1c-6.758 0-12.872.895-17.293 2.338-2.211.722-3.993 1.58-5.22 2.527C8.756 98.914 8.1 99.94 8.1 101z" fill="#FFDF77" stroke="#0F172A" stroke-width=".2"/><g filter="url(#k)"><mask id="l" fill="#fff"><path fill-rule="evenodd" clip-rule="evenodd" d="M28.268 95a.7.7 0 0 0-.7.7V99H19.7a.7.7 0 0 0-.7.7v1.354a.7.7 0 0 0 .7.7h7.868v2.643a.7.7 0 0 0 .7.7h5.025a.7.7 0 0 0 .7-.7v-2.643h7.866a.7.7 0 0 0 .7-.7V99.7a.7.7 0 0 0-.7-.7h-7.866v-3.3a.7.7 0 0 0-.7-.7h-5.025z"/></mask><path fill-rule="evenodd" clip-rule="evenodd" d="M28.268 95a.7.7 0 0 0-.7.7V99H19.7a.7.7 0 0 0-.7.7v1.354a.7.7 0 0 0 .7.7h7.868v2.643a.7.7 0 0 0 .7.7h5.025a.7.7 0 0 0 .7-.7v-2.643h7.866a.7.7 0 0 0 .7-.7V99.7a.7.7 0 0 0-.7-.7h-7.866v-3.3a.7.7 0 0 0-.7-.7h-5.025z" fill="#FFDF77"/><path d="M27.568 99v.4h.4V99h-.4zM19.7 99v-.4.4zm-.7.7h-.4.4zm0 1.354h.4-.4zm8.568.7h.4v-.4h-.4v.4zm6.425 0v-.4h-.4v.4h.4zM41.859 99v.4-.4zm-7.866 0h-.4v.4h.4V99zm-6.025-3.3a.3.3 0 0 1 .3-.3v-.8a1.1 1.1 0 0 0-1.1 1.1h.8zm0 3.3v-3.3h-.8V99h.8zm-8.268.4h7.868v-.8H19.7v.8zm-.3.3a.3.3 0 0 1 .3-.3v-.8a1.1 1.1 0 0 0-1.1 1.1h.8zm0 1.354V99.7h-.8v1.354h.8zm.3.3a.3.3 0 0 1-.3-.3h-.8a1.1 1.1 0 0 0 1.1 1.1v-.8zm7.868 0H19.7v.8h7.868v-.8zm.4 3.043v-2.643h-.8v2.643h.8zm.3.3a.3.3 0 0 1-.3-.3h-.8a1.1 1.1 0 0 0 1.1 1.1v-.8zm5.025 0h-5.025v.8h5.025v-.8zm.3-.3a.3.3 0 0 1-.3.3v.8a1.1 1.1 0 0 0 1.1-1.1h-.8zm0-2.643v2.643h.8v-2.643h-.8zm8.266-.4h-7.866v.8h7.866v-.8zm.3-.3a.3.3 0 0 1-.3.3v.8a1.1 1.1 0 0 0 1.1-1.1h-.8zm0-1.354v1.354h.8V99.7h-.8zm-.3-.3a.3.3 0 0 1 .3.3h.8a1.1 1.1 0 0 0-1.1-1.1v.8zm-7.866 0h7.866v-.8h-7.866v.8zm-.4-3.7V99h.8v-3.3h-.8zm-.3-.3a.3.3 0 0 1 .3.3h.8a1.1 1.1 0 0 0-1.1-1.1v.8zm-5.025 0h5.025v-.8h-5.025v.8z" fill="#000" mask="url(#l)"/></g><path d="M156.8 133.095v-.003c-.897-1.166-2.329-2.12-4.198-2.893-1.896-.784-4.226-1.375-6.869-1.815-5.285-.878-11.793-1.144-18.515-1.144-6.722 0-13.23.266-18.515 1.144-2.643.44-4.973 1.031-6.868 1.815-1.87.773-3.301 1.727-4.199 2.893v5.918c0 1.58.796 3.106 2.279 4.514 1.482 1.409 3.638 2.687 6.319 3.764 5.36 2.155 12.779 3.492 20.984 3.492 8.205 0 15.624-1.337 20.985-3.492 2.68-1.077 4.836-2.355 6.319-3.764 1.482-1.408 2.278-2.934 2.278-4.514V133.095z" fill="#0497EC" stroke="#0F172A" stroke-width=".4"/><path d="m146.127 148.09 5.673-2.5 3.413-2.8v-5.04l-.596-2.94-2.978-.735-19.06-.735v17.01l4.566-.26 5.009-1.018 3.973-.982zM102.201 145.31v-9.954l4.765-.756v12.946l-2.382-.976-2.383-1.26z" fill="#0F172A" stroke="#0F172A" stroke-width=".4"/><path d="M97.636 133.97c0 1.58.796 3.106 2.279 4.514 1.482 1.409 3.638 2.687 6.319 3.764 5.36 2.155 12.779 3.492 20.984 3.492 8.205 0 15.624-1.337 20.985-3.492 2.68-1.077 4.836-2.355 6.319-3.764 1.482-1.408 2.278-2.934 2.278-4.514s-.796-3.106-2.278-4.514c-1.483-1.409-3.639-2.687-6.319-3.764-5.361-2.155-12.78-3.492-20.985-3.492s-15.624 1.337-20.984 3.492c-2.681 1.077-4.837 2.355-6.32 3.764-1.482 1.408-2.278 2.934-2.278 4.514z" fill="#fff" stroke="#0F172A" stroke-width=".4"/><path d="M156.8 128.095v-.003c-.897-1.166-2.329-2.12-4.198-2.893-1.896-.784-4.226-1.375-6.869-1.815-5.285-.878-11.793-1.144-18.515-1.144-6.722 0-13.23.266-18.515 1.144-2.643.44-4.973 1.031-6.868 1.815-1.87.773-3.301 1.727-4.199 2.893v5.918c0 1.58.796 3.106 2.279 4.514 1.482 1.409 3.638 2.687 6.319 3.764 5.36 2.155 12.779 3.492 20.984 3.492 8.205 0 15.624-1.337 20.985-3.492 2.68-1.077 4.836-2.355 6.319-3.764 1.482-1.408 2.278-2.934 2.278-4.514V128.095z" fill="#0497EC" stroke="#0F172A" stroke-width=".4"/><path d="m146.127 143.09 5.673-2.5 3.413-2.8v-5.04l-.596-2.94-2.978-.735-19.06-.735v17.01l4.566-.26 5.009-1.018 3.973-.982zM102.201 140.31v-9.954l4.765-.756v12.946l-2.382-.976-2.383-1.26z" fill="#0F172A" stroke="#0F172A" stroke-width=".4"/><path d="M97.636 128.97c0 1.58.796 3.106 2.279 4.514 1.482 1.409 3.638 2.687 6.319 3.764 5.36 2.155 12.779 3.492 20.984 3.492 8.205 0 15.624-1.337 20.985-3.492 2.68-1.077 4.836-2.355 6.319-3.764 1.482-1.408 2.278-2.934 2.278-4.514s-.796-3.106-2.278-4.514c-1.483-1.409-3.639-2.687-6.319-3.764-5.361-2.155-12.78-3.492-20.985-3.492s-15.624 1.337-20.984 3.492c-2.681 1.077-4.837 2.355-6.32 3.764-1.482 1.408-2.278 2.934-2.278 4.514z" fill="#fff" stroke="#0F172A" stroke-width=".4"/><path d="M156.8 123.095v-.003c-.897-1.166-2.329-2.12-4.198-2.893-1.896-.784-4.226-1.375-6.869-1.815-5.285-.878-11.793-1.144-18.515-1.144-6.722 0-13.23.266-18.515 1.144-2.643.44-4.973 1.031-6.868 1.815-1.87.773-3.301 1.727-4.199 2.893v5.918c0 1.58.796 3.106 2.279 4.514 1.482 1.409 3.638 2.687 6.319 3.764 5.36 2.155 12.779 3.492 20.984 3.492 8.205 0 15.624-1.337 20.985-3.492 2.68-1.077 4.836-2.355 6.319-3.764 1.482-1.408 2.278-2.934 2.278-4.514V123.095z" fill="#0497EC" stroke="#0F172A" stroke-width=".4"/><path d="m146.127 138.09 5.673-2.5 3.413-2.8v-5.04l-.596-2.94-2.978-.735-19.06-.735v17.01l4.566-.26 5.009-1.018 3.973-.982zM102.201 135.31v-9.954l4.765-.756v12.946l-2.382-.976-2.383-1.26z" fill="#0F172A" stroke="#0F172A" stroke-width=".4"/><path d="M97.636 123.97c0 1.58.796 3.106 2.279 4.514 1.482 1.409 3.638 2.687 6.319 3.764 5.36 2.155 12.779 3.492 20.984 3.492 8.205 0 15.624-1.337 20.985-3.492 2.68-1.077 4.836-2.355 6.319-3.764 1.482-1.408 2.278-2.934 2.278-4.514s-.796-3.106-2.278-4.514c-1.483-1.409-3.639-2.687-6.319-3.764-5.361-2.155-12.78-3.492-20.985-3.492s-15.624 1.337-20.984 3.492c-2.681 1.077-4.837 2.355-6.32 3.764-1.482 1.408-2.278 2.934-2.278 4.514z" fill="#fff" stroke="#0F172A" stroke-width=".4"/><path d="M156.8 118.095v-.003c-.897-1.166-2.329-2.12-4.198-2.893-1.896-.784-4.226-1.375-6.869-1.815-5.285-.878-11.793-1.144-18.515-1.144-6.722 0-13.23.266-18.515 1.144-2.643.44-4.973 1.031-6.868 1.815-1.87.773-3.301 1.727-4.199 2.893v5.918c0 1.58.796 3.106 2.279 4.514 1.482 1.409 3.638 2.687 6.319 3.764 5.36 2.155 12.779 3.492 20.984 3.492 8.205 0 15.624-1.337 20.985-3.492 2.68-1.077 4.836-2.355 6.319-3.764 1.482-1.408 2.278-2.934 2.278-4.514V118.095z" fill="#0497EC" stroke="#0F172A" stroke-width=".4"/><path d="m146.127 133.09 5.673-2.5 3.413-2.8v-5.04l-.596-2.94-2.978-.735-19.06-.735v17.01l4.566-.26 5.009-1.018 3.973-.982zM102.201 130.31v-9.954l4.765-.756v12.946l-2.382-.976-2.383-1.26z" fill="#0F172A" stroke="#0F172A" stroke-width=".4"/><path d="M97.636 118.97c0 1.58.796 3.106 2.279 4.514 1.482 1.409 3.638 2.687 6.319 3.764 5.36 2.155 12.779 3.492 20.984 3.492 8.205 0 15.624-1.337 20.985-3.492 2.68-1.077 4.836-2.355 6.319-3.764 1.482-1.408 2.278-2.934 2.278-4.514s-.796-3.106-2.278-4.514c-1.483-1.409-3.639-2.687-6.319-3.764-5.361-2.155-12.78-3.492-20.985-3.492s-15.624 1.337-20.984 3.492c-2.681 1.077-4.837 2.355-6.32 3.764-1.482 1.408-2.278 2.934-2.278 4.514z" fill="#fff" stroke="#0F172A" stroke-width=".4"/><path d="M156.8 113.095v-.003c-.897-1.166-2.329-2.12-4.198-2.893-1.896-.784-4.226-1.375-6.869-1.815-5.285-.878-11.793-1.144-18.515-1.144-6.722 0-13.23.266-18.515 1.144-2.643.44-4.973 1.031-6.868 1.815-1.87.773-3.301 1.727-4.199 2.893v5.918c0 1.58.796 3.106 2.279 4.514 1.482 1.409 3.638 2.687 6.319 3.764 5.36 2.155 12.779 3.492 20.984 3.492 8.205 0 15.624-1.337 20.985-3.492 2.68-1.077 4.836-2.355 6.319-3.764 1.482-1.408 2.278-2.934 2.278-4.514V113.095z" fill="#0497EC" stroke="#0F172A" stroke-width=".4"/><path d="m146.127 128.09 5.673-2.5 3.413-2.8v-5.04l-.596-2.94-2.978-.735-19.06-.735v17.01l4.566-.26 5.009-1.018 3.973-.982zM102.201 125.31v-9.954l4.765-.756v12.946l-2.382-.976-2.383-1.26z" fill="#0F172A" stroke="#0F172A" stroke-width=".4"/><path d="M97.636 113.97c0 1.58.796 3.106 2.279 4.514 1.482 1.409 3.638 2.687 6.319 3.764 5.36 2.155 12.779 3.492 20.984 3.492 8.205 0 15.624-1.337 20.985-3.492 2.68-1.077 4.836-2.355 6.319-3.764 1.482-1.408 2.278-2.934 2.278-4.514s-.796-3.106-2.278-4.514c-1.483-1.409-3.639-2.687-6.319-3.764-5.361-2.155-12.78-3.492-20.985-3.492s-15.624 1.337-20.984 3.492c-2.681 1.077-4.837 2.355-6.32 3.764-1.482 1.408-2.278 2.934-2.278 4.514z" fill="#fff" stroke="#0F172A" stroke-width=".4"/><path d="M156.8 108.095v-.003c-.897-1.166-2.329-2.12-4.198-2.893-1.896-.784-4.226-1.375-6.869-1.815-5.285-.878-11.793-1.144-18.515-1.144-6.722 0-13.23.266-18.515 1.144-2.643.44-4.973 1.031-6.868 1.815-1.87.773-3.301 1.727-4.199 2.893v5.918c0 1.58.796 3.106 2.279 4.514 1.482 1.409 3.638 2.687 6.319 3.765 5.36 2.154 12.779 3.491 20.984 3.491 8.205 0 15.624-1.337 20.985-3.491 2.68-1.078 4.836-2.356 6.319-3.765 1.482-1.408 2.278-2.934 2.278-4.514V108.095z" fill="#0497EC" stroke="#0F172A" stroke-width=".4"/><path d="m146.127 123.09 5.673-2.5 3.413-2.8v-5.04l-.596-2.94-2.978-.735-19.06-.735v17.01l4.566-.26 5.009-1.018 3.973-.982zM102.201 120.31v-9.954l4.765-.756v12.946l-2.382-.976-2.383-1.26z" fill="#0F172A" stroke="#0F172A" stroke-width=".4"/><path d="M97.636 108.97c0 1.58.796 3.106 2.279 4.514 1.482 1.409 3.638 2.687 6.319 3.764 5.36 2.155 12.779 3.492 20.984 3.492 8.205 0 15.624-1.337 20.985-3.492 2.68-1.077 4.836-2.355 6.319-3.764 1.482-1.408 2.278-2.934 2.278-4.514s-.796-3.106-2.278-4.514c-1.483-1.409-3.639-2.687-6.319-3.764-5.361-2.155-12.78-3.492-20.985-3.492s-15.624 1.337-20.984 3.492c-2.681 1.077-4.837 2.355-6.32 3.764-1.482 1.408-2.278 2.934-2.278 4.514z" fill="#fff" stroke="#0F172A" stroke-width=".4"/><path d="M156.8 103.095v-.003c-.897-1.166-2.329-2.12-4.198-2.893-1.896-.784-4.226-1.375-6.869-1.815-5.285-.878-11.793-1.144-18.515-1.144-6.722 0-13.23.266-18.515 1.144-2.643.44-4.973 1.03-6.868 1.815-1.87.773-3.301 1.727-4.199 2.893v5.918c0 1.58.796 3.106 2.279 4.514 1.482 1.409 3.638 2.687 6.319 3.765 5.36 2.154 12.779 3.491 20.984 3.491 8.205 0 15.624-1.337 20.985-3.491 2.68-1.078 4.836-2.356 6.319-3.765 1.482-1.408 2.278-2.934 2.278-4.514V103.095z" fill="#0497EC" stroke="#0F172A" stroke-width=".4"/><path d="m146.127 118.09 5.673-2.5 3.413-2.8v-5.04l-.596-2.94-2.978-.735-19.06-.735v17.01l4.566-.26 5.009-1.018 3.973-.982zM102.201 115.31v-9.954l4.765-.756v12.946l-2.382-.976-2.383-1.26z" fill="#0F172A" stroke="#0F172A" stroke-width=".4"/><path d="M97.636 103.97c0 1.58.796 3.106 2.279 4.514 1.482 1.409 3.638 2.687 6.319 3.764 5.36 2.155 12.779 3.492 20.984 3.492 8.205 0 15.624-1.337 20.985-3.492 2.68-1.077 4.836-2.355 6.319-3.764 1.482-1.408 2.278-2.934 2.278-4.514s-.796-3.106-2.278-4.514c-1.483-1.41-3.639-2.687-6.319-3.764-5.361-2.155-12.78-3.492-20.985-3.492s-15.624 1.337-20.984 3.492c-2.681 1.077-4.837 2.355-6.32 3.764-1.482 1.408-2.278 2.934-2.278 4.514z" fill="#fff" stroke="#0F172A" stroke-width=".4"/><path d="M156.364 98.055v-.003c-.898-1.166-2.33-2.12-4.199-2.893-1.895-.784-4.225-1.375-6.868-1.815-5.285-.878-11.793-1.144-18.515-1.144-6.722 0-13.23.266-18.515 1.144-2.643.44-4.973 1.03-6.869 1.815-1.869.773-3.3 1.727-4.198 2.893v5.918c0 1.58.796 3.106 2.278 4.514 1.483 1.409 3.639 2.687 6.319 3.764 5.361 2.155 12.78 3.492 20.985 3.492s15.624-1.337 20.984-3.492c2.681-1.077 4.837-2.355 6.319-3.764 1.483-1.408 2.279-2.934 2.279-4.514V98.055z" fill="#0497EC" stroke="#0F172A" stroke-width=".4"/><path d="m146.127 113.09 5.673-2.5 3.413-2.8v-5.04l-.596-2.94-2.978-.735-19.06-.735v17.01l4.566-.26 5.009-1.018 3.973-.982zM102.201 110.31v-9.954l4.765-.756v12.946l-2.382-.976-2.383-1.26z" fill="#0F172A" stroke="#0F172A" stroke-width=".4"/><path d="M97.636 98.97c0 1.58.796 3.106 2.279 4.514 1.482 1.409 3.638 2.687 6.319 3.764 5.36 2.155 12.779 3.492 20.984 3.492 8.205 0 15.624-1.337 20.985-3.492 2.68-1.077 4.836-2.355 6.319-3.764 1.482-1.408 2.278-2.934 2.278-4.514s-.796-3.106-2.278-4.514c-1.483-1.41-3.639-2.687-6.319-3.764-5.361-2.155-12.78-3.492-20.985-3.492s-15.624 1.337-20.984 3.492c-2.681 1.077-4.837 2.355-6.32 3.764-1.482 1.408-2.278 2.934-2.278 4.514z" fill="#fff" stroke="#0F172A" stroke-width=".4"/><path d="M156.8 93.095v-.003c-.897-1.166-2.329-2.12-4.198-2.893-1.896-.784-4.226-1.375-6.869-1.815-5.285-.878-11.793-1.144-18.515-1.144-6.722 0-13.23.266-18.515 1.144-2.643.44-4.973 1.03-6.868 1.815-1.87.773-3.301 1.727-4.199 2.893v5.918c0 1.58.796 3.106 2.279 4.514 1.482 1.409 3.638 2.687 6.319 3.765 5.36 2.154 12.779 3.491 20.984 3.491 8.205 0 15.624-1.337 20.985-3.491 2.68-1.078 4.836-2.356 6.319-3.765 1.482-1.408 2.278-2.934 2.278-4.514V93.094z" fill="#0497EC" stroke="#0F172A" stroke-width=".4"/><path d="m146.127 108.09 5.673-2.5 3.413-2.8v-5.04l-.596-2.94-2.978-.735-19.06-.735v17.01l4.566-.26 5.009-1.018 3.973-.982zM102.201 105.31v-9.954l4.765-.756v12.946l-2.382-.976-2.383-1.26z" fill="#0F172A" stroke="#0F172A" stroke-width=".4"/><path d="M97.636 93.97c0 1.58.796 3.106 2.279 4.514 1.482 1.41 3.638 2.687 6.319 3.764 5.36 2.155 12.779 3.492 20.984 3.492 8.205 0 15.624-1.337 20.985-3.492 2.68-1.077 4.836-2.355 6.319-3.764 1.482-1.408 2.278-2.934 2.278-4.514s-.796-3.106-2.278-4.514c-1.483-1.41-3.639-2.687-6.319-3.764-5.361-2.155-12.78-3.492-20.985-3.492s-15.624 1.337-20.984 3.492c-2.681 1.077-4.837 2.355-6.32 3.764-1.482 1.408-2.278 2.934-2.278 4.514z" fill="#fff" stroke="#0F172A" stroke-width=".4"/><path d="M156.8 88.095v-.003c-.897-1.166-2.329-2.12-4.198-2.893-1.896-.784-4.226-1.375-6.869-1.815-5.285-.878-11.793-1.144-18.515-1.144-6.722 0-13.23.266-18.515 1.144-2.643.44-4.973 1.03-6.868 1.815-1.87.773-3.301 1.727-4.199 2.893v5.918c0 1.58.796 3.106 2.279 4.514 1.482 1.41 3.638 2.687 6.319 3.765 5.36 2.154 12.779 3.491 20.984 3.491 8.205 0 15.624-1.337 20.985-3.491 2.68-1.078 4.836-2.356 6.319-3.765 1.482-1.408 2.278-2.934 2.278-4.514V88.094z" fill="#0497EC" stroke="#0F172A" stroke-width=".4"/><path d="m146.127 103.09 5.673-2.5 3.413-2.8v-5.04l-.596-2.94-2.978-.735-19.06-.735v17.01l4.566-.26 5.009-1.018 3.973-.982zM102.201 100.31v-9.954l4.765-.756v12.946l-2.382-.976-2.383-1.26z" fill="#0F172A" stroke="#0F172A" stroke-width=".4"/><path d="M97.636 88.97c0 1.58.796 3.106 2.279 4.514 1.482 1.41 3.638 2.687 6.319 3.765 5.36 2.154 12.779 3.491 20.984 3.491 8.205 0 15.624-1.337 20.985-3.491 2.68-1.078 4.836-2.356 6.319-3.765 1.482-1.408 2.278-2.934 2.278-4.514s-.796-3.106-2.278-4.514c-1.483-1.41-3.639-2.687-6.319-3.764-5.361-2.155-12.78-3.492-20.985-3.492s-15.624 1.337-20.984 3.492c-2.681 1.077-4.837 2.355-6.32 3.764-1.482 1.408-2.278 2.934-2.278 4.514z" fill="url(#m)" stroke="#0F172A" stroke-width=".4"/><path d="M103.1 88c0 1.06.658 2.086 1.886 3.035 1.228.947 3.01 1.805 5.221 2.527 4.421 1.443 10.535 2.338 17.293 2.338 6.758 0 12.872-.895 17.293-2.338 2.211-.722 3.993-1.58 5.221-2.527 1.228-.949 1.886-1.975 1.886-3.035s-.658-2.086-1.886-3.035c-1.228-.947-3.01-1.805-5.221-2.527-4.421-1.443-10.535-2.338-17.293-2.338-6.758 0-12.872.895-17.293 2.338-2.211.722-3.993 1.58-5.221 2.527-1.228.949-1.886 1.975-1.886 3.035z" fill="#0F172A" stroke="#0F172A" stroke-width=".2"/><path d="M103.1 89c0 1.06.658 2.086 1.886 3.035 1.228.947 3.01 1.805 5.221 2.527 4.421 1.443 10.535 2.338 17.293 2.338 6.758 0 12.872-.895 17.293-2.338 2.211-.722 3.993-1.58 5.221-2.527 1.228-.949 1.886-1.975 1.886-3.035s-.658-2.086-1.886-3.035c-1.228-.947-3.01-1.805-5.221-2.527-4.421-1.443-10.535-2.338-17.293-2.338-6.758 0-12.872.895-17.293 2.338-2.211.722-3.993 1.58-5.221 2.527-1.228.949-1.886 1.975-1.886 3.035z" fill="#FFDF77" stroke="#0F172A" stroke-width=".2"/><g filter="url(#n)"><mask id="p" fill="#fff"><path fill-rule="evenodd" clip-rule="evenodd" d="M124.268 83a.7.7 0 0 0-.7.7V87H115.7a.7.7 0 0 0-.7.7v1.354a.7.7 0 0 0 .7.7h7.868v2.643a.7.7 0 0 0 .7.7h5.025a.7.7 0 0 0 .7-.7v-2.643h7.866a.7.7 0 0 0 .7-.7V87.7a.7.7 0 0 0-.7-.7h-7.866v-3.3a.7.7 0 0 0-.7-.7h-5.025z"/></mask><path fill-rule="evenodd" clip-rule="evenodd" d="M124.268 83a.7.7 0 0 0-.7.7V87H115.7a.7.7 0 0 0-.7.7v1.354a.7.7 0 0 0 .7.7h7.868v2.643a.7.7 0 0 0 .7.7h5.025a.7.7 0 0 0 .7-.7v-2.643h7.866a.7.7 0 0 0 .7-.7V87.7a.7.7 0 0 0-.7-.7h-7.866v-3.3a.7.7 0 0 0-.7-.7h-5.025z" fill="url(#o)"/><path d="M123.568 87v.4h.4V87h-.4zm-7.868 0v-.4.4zm-.7.7h-.4.4zm0 1.354h.4-.4zm8.568.7h.4v-.4h-.4v.4zm6.425 0v-.4h-.4v.4h.4zM137.859 87v.4-.4zm-7.866 0h-.4v.4h.4V87zm-6.025-3.3a.3.3 0 0 1 .3-.3v-.8a1.1 1.1 0 0 0-1.1 1.1h.8zm0 3.3v-3.3h-.8V87h.8zm-8.268.4h7.868v-.8H115.7v.8zm-.3.3a.3.3 0 0 1 .3-.3v-.8a1.1 1.1 0 0 0-1.1 1.1h.8zm0 1.354V87.7h-.8v1.354h.8zm.3.3a.3.3 0 0 1-.3-.3h-.8a1.1 1.1 0 0 0 1.1 1.1v-.8zm7.868 0H115.7v.8h7.868v-.8zm.4 3.043v-2.643h-.8v2.643h.8zm.3.3a.3.3 0 0 1-.3-.3h-.8a1.1 1.1 0 0 0 1.1 1.1v-.8zm5.025 0h-5.025v.8h5.025v-.8zm.3-.3a.3.3 0 0 1-.3.3v.8a1.1 1.1 0 0 0 1.1-1.1h-.8zm0-2.643v2.643h.8v-2.643h-.8zm8.266-.4h-7.866v.8h7.866v-.8zm.3-.3a.3.3 0 0 1-.3.3v.8a1.1 1.1 0 0 0 1.1-1.1h-.8zm0-1.354v1.354h.8V87.7h-.8zm-.3-.3a.3.3 0 0 1 .3.3h.8a1.1 1.1 0 0 0-1.1-1.1v.8zm-7.866 0h7.866v-.8h-7.866v.8zm-.4-3.7V87h.8v-3.3h-.8zm-.3-.3a.3.3 0 0 1 .3.3h.8a1.1 1.1 0 0 0-1.1-1.1v.8zm-5.025 0h5.025v-.8h-5.025v.8z" fill="#000" mask="url(#p)"/></g><path d="M50.2 152.005v-.003c.897-1.166 2.33-2.12 4.198-2.893 1.896-.784 4.226-1.375 6.869-1.815 5.285-.878 11.793-1.144 18.515-1.144 6.722 0 13.23.266 18.515 1.144 2.643.44 4.973 1.031 6.868 1.815 1.869.773 3.301 1.727 4.199 2.893v5.918c0 1.58-.796 3.106-2.279 4.514-1.482 1.409-3.638 2.687-6.319 3.765-5.36 2.154-12.78 3.491-20.984 3.491-8.205 0-15.624-1.337-20.984-3.491-2.681-1.078-4.837-2.356-6.32-3.765-1.482-1.408-2.278-2.934-2.278-4.514V152.005z" fill="#0497EC" stroke="#0F172A" stroke-width=".4"/><path d="m60.873 167-5.673-2.5-3.413-2.8v-5.04l.596-2.94 2.978-.735 19.06-.735v17.01l-4.567-.26-5.008-1.018-3.973-.982zM104.799 164.22v-9.954l-4.765-.756v12.946l2.382-.976 2.383-1.26z" fill="#0F172A" stroke="#0F172A" stroke-width=".4"/><path d="M109.364 152.88c0 1.58-.796 3.106-2.279 4.514-1.482 1.409-3.638 2.687-6.319 3.765-5.36 2.154-12.78 3.491-20.984 3.491-8.205 0-15.624-1.337-20.984-3.491-2.681-1.078-4.837-2.356-6.32-3.765-1.482-1.408-2.278-2.934-2.278-4.514s.796-3.106 2.278-4.514c1.483-1.409 3.639-2.687 6.32-3.764 5.36-2.155 12.779-3.492 20.984-3.492 8.205 0 15.624 1.337 20.984 3.492 2.681 1.077 4.837 2.355 6.319 3.764 1.483 1.408 2.279 2.934 2.279 4.514z" fill="#fff" stroke="#0F172A" stroke-width=".4"/><path d="M50.2 147.005v-.003c.897-1.166 2.33-2.12 4.198-2.893 1.896-.784 4.226-1.375 6.869-1.815 5.285-.878 11.793-1.144 18.515-1.144 6.722 0 13.23.266 18.515 1.144 2.643.44 4.973 1.031 6.868 1.815 1.869.773 3.301 1.727 4.199 2.893v5.918c0 1.58-.796 3.106-2.279 4.514-1.482 1.409-3.638 2.687-6.319 3.765-5.36 2.154-12.78 3.491-20.984 3.491-8.205 0-15.624-1.337-20.984-3.491-2.681-1.078-4.837-2.356-6.32-3.765-1.482-1.408-2.278-2.934-2.278-4.514V147.005z" fill="#0497EC" stroke="#0F172A" stroke-width=".4"/><path d="m60.873 162-5.673-2.5-3.413-2.8v-5.04l.596-2.94 2.978-.735 19.06-.735v17.01l-4.567-.26-5.008-1.018-3.973-.982zM104.799 159.22v-9.954l-4.765-.756v12.946l2.382-.976 2.383-1.26z" fill="#0F172A" stroke="#0F172A" stroke-width=".4"/><path d="M109.364 147.88c0 1.58-.796 3.106-2.279 4.514-1.482 1.409-3.638 2.687-6.319 3.765-5.36 2.154-12.78 3.491-20.984 3.491-8.205 0-15.624-1.337-20.984-3.491-2.681-1.078-4.837-2.356-6.32-3.765-1.482-1.408-2.278-2.934-2.278-4.514s.796-3.106 2.278-4.514c1.483-1.409 3.639-2.687 6.32-3.764 5.36-2.155 12.779-3.492 20.984-3.492 8.205 0 15.624 1.337 20.984 3.492 2.681 1.077 4.837 2.355 6.319 3.764 1.483 1.408 2.279 2.934 2.279 4.514z" fill="#fff" stroke="#0F172A" stroke-width=".4"/><path d="M50.2 142.005v-.003c.897-1.166 2.33-2.12 4.198-2.893 1.896-.784 4.226-1.375 6.869-1.815 5.285-.878 11.793-1.144 18.515-1.144 6.722 0 13.23.266 18.515 1.144 2.643.44 4.973 1.031 6.868 1.815 1.869.773 3.301 1.727 4.199 2.893v5.918c0 1.58-.796 3.106-2.279 4.514-1.482 1.409-3.638 2.687-6.319 3.765-5.36 2.154-12.78 3.491-20.984 3.491-8.205 0-15.624-1.337-20.984-3.491-2.681-1.078-4.837-2.356-6.32-3.765-1.482-1.408-2.278-2.934-2.278-4.514V142.005z" fill="#0497EC" stroke="#0F172A" stroke-width=".4"/><path d="m60.873 157-5.673-2.5-3.413-2.8v-5.04l.596-2.94 2.978-.735 19.06-.735v17.01l-4.567-.26-5.008-1.018-3.973-.982zM104.799 154.22v-9.954l-4.765-.756v12.946l2.382-.976 2.383-1.26z" fill="#0F172A" stroke="#0F172A" stroke-width=".4"/><path d="M109.364 142.88c0 1.58-.796 3.106-2.279 4.514-1.482 1.409-3.638 2.687-6.319 3.765-5.36 2.154-12.78 3.491-20.984 3.491-8.205 0-15.624-1.337-20.984-3.491-2.681-1.078-4.837-2.356-6.32-3.765-1.482-1.408-2.278-2.934-2.278-4.514s.796-3.106 2.278-4.514c1.483-1.409 3.639-2.687 6.32-3.764 5.36-2.155 12.779-3.492 20.984-3.492 8.205 0 15.624 1.337 20.984 3.492 2.681 1.077 4.837 2.355 6.319 3.764 1.483 1.408 2.279 2.934 2.279 4.514z" fill="#fff" stroke="#0F172A" stroke-width=".4"/><path d="M50.2 137.005v-.003c.897-1.166 2.33-2.12 4.198-2.893 1.896-.784 4.226-1.375 6.869-1.815 5.285-.878 11.793-1.144 18.515-1.144 6.722 0 13.23.266 18.515 1.144 2.643.44 4.973 1.031 6.868 1.815 1.869.773 3.301 1.727 4.199 2.893v5.918c0 1.58-.796 3.106-2.279 4.514-1.482 1.409-3.638 2.687-6.319 3.765-5.36 2.154-12.78 3.491-20.984 3.491-8.205 0-15.624-1.337-20.984-3.491-2.681-1.078-4.837-2.356-6.32-3.765-1.482-1.408-2.278-2.934-2.278-4.514V137.005z" fill="#0497EC" stroke="#0F172A" stroke-width=".4"/><path d="m60.873 152-5.673-2.5-3.413-2.8v-5.04l.596-2.94 2.978-.735 19.06-.735v17.01l-4.567-.26-5.008-1.018-3.973-.982zM104.799 149.22v-9.954l-4.765-.756v12.946l2.382-.976 2.383-1.26z" fill="#0F172A" stroke="#0F172A" stroke-width=".4"/><path d="M50.2 137.88c0 1.58.796 3.106 2.278 4.514 1.483 1.409 3.639 2.687 6.32 3.765 5.36 2.154 12.779 3.491 20.984 3.491 8.205 0 15.624-1.337 20.984-3.491 2.681-1.078 4.837-2.356 6.319-3.765 1.483-1.408 2.279-2.934 2.279-4.514s-.796-3.106-2.279-4.514c-1.482-1.409-3.638-2.687-6.319-3.764-5.36-2.155-12.78-3.492-20.984-3.492-8.205 0-15.624 1.337-20.985 3.492-2.68 1.077-4.836 2.355-6.319 3.764-1.482 1.408-2.278 2.934-2.278 4.514z" fill="url(#q)" stroke="#0F172A" stroke-width=".4"/><path d="M56.1 137c0 1.06.658 2.086 1.886 3.035 1.228.947 3.01 1.805 5.22 2.527 4.422 1.443 10.536 2.338 17.294 2.338 6.758 0 12.872-.895 17.293-2.338 2.211-.722 3.993-1.58 5.221-2.527 1.228-.949 1.886-1.975 1.886-3.035s-.658-2.086-1.886-3.035c-1.228-.947-3.01-1.805-5.22-2.527-4.422-1.443-10.536-2.338-17.294-2.338-6.758 0-12.872.895-17.293 2.338-2.211.722-3.993 1.58-5.22 2.527-1.23.949-1.887 1.975-1.887 3.035z" fill="#0F172A" stroke="#0F172A" stroke-width=".2"/><path d="M56.1 138c0 1.06.658 2.086 1.886 3.035 1.228.947 3.01 1.805 5.22 2.527 4.422 1.443 10.536 2.338 17.294 2.338 6.758 0 12.872-.895 17.293-2.338 2.211-.722 3.993-1.58 5.221-2.527 1.228-.949 1.886-1.975 1.886-3.035s-.658-2.086-1.886-3.035c-1.228-.947-3.01-1.805-5.22-2.527-4.422-1.443-10.536-2.338-17.294-2.338-6.758 0-12.872.895-17.293 2.338-2.211.722-3.993 1.58-5.22 2.527-1.23.949-1.887 1.975-1.887 3.035z" fill="#FFDF77" stroke="#0F172A" stroke-width=".2"/><g filter="url(#r)"><mask id="t" fill="#fff"><path fill-rule="evenodd" clip-rule="evenodd" d="M76.268 132a.7.7 0 0 0-.7.7v3.3H67.7a.7.7 0 0 0-.7.7v1.354a.7.7 0 0 0 .7.7h7.868v2.643a.7.7 0 0 0 .7.7h5.025a.7.7 0 0 0 .7-.7v-2.643h7.866a.7.7 0 0 0 .7-.7V136.7a.7.7 0 0 0-.7-.7h-7.866v-3.3a.7.7 0 0 0-.7-.7h-5.025z"/></mask><path fill-rule="evenodd" clip-rule="evenodd" d="M76.268 132a.7.7 0 0 0-.7.7v3.3H67.7a.7.7 0 0 0-.7.7v1.354a.7.7 0 0 0 .7.7h7.868v2.643a.7.7 0 0 0 .7.7h5.025a.7.7 0 0 0 .7-.7v-2.643h7.866a.7.7 0 0 0 .7-.7V136.7a.7.7 0 0 0-.7-.7h-7.866v-3.3a.7.7 0 0 0-.7-.7h-5.025z" fill="url(#s)"/><path d="M75.568 136v.4h.4v-.4h-.4zm-7.868 0v-.4.4zm-.7.7h-.4.4zm0 1.354h.4-.4zm8.568.7h.4v-.4h-.4v.4zm6.425 0v-.4h-.4v.4h.4zM89.859 136v.4-.4zm-7.866 0h-.4v.4h.4v-.4zm-6.025-3.3a.3.3 0 0 1 .3-.3v-.8a1.1 1.1 0 0 0-1.1 1.1h.8zm0 3.3v-3.3h-.8v3.3h.8zm-8.268.4h7.868v-.8H67.7v.8zm-.3.3a.3.3 0 0 1 .3-.3v-.8a1.1 1.1 0 0 0-1.1 1.1h.8zm0 1.354V136.7h-.8v1.354h.8zm.3.3a.3.3 0 0 1-.3-.3h-.8a1.1 1.1 0 0 0 1.1 1.1v-.8zm7.868 0H67.7v.8h7.868v-.8zm.4 3.043v-2.643h-.8v2.643h.8zm.3.3a.3.3 0 0 1-.3-.3h-.8a1.1 1.1 0 0 0 1.1 1.1v-.8zm5.025 0h-5.025v.8h5.025v-.8zm.3-.3a.3.3 0 0 1-.3.3v.8a1.1 1.1 0 0 0 1.1-1.1h-.8zm0-2.643v2.643h.8v-2.643h-.8zm8.266-.4h-7.866v.8h7.866v-.8zm.3-.3a.3.3 0 0 1-.3.3v.8a1.1 1.1 0 0 0 1.1-1.1h-.8zm0-1.354v1.354h.8V136.7h-.8zm-.3-.3a.3.3 0 0 1 .3.3h.8a1.1 1.1 0 0 0-1.1-1.1v.8zm-7.866 0h7.866v-.8h-7.866v.8zm-.4-3.7v3.3h.8v-3.3h-.8zm-.3-.3a.3.3 0 0 1 .3.3h.8a1.1 1.1 0 0 0-1.1-1.1v.8zm-5.025 0h5.025v-.8h-5.025v.8z" fill="#000" mask="url(#t)"/></g><g filter="url(#u)"><rect width="94" height="25" rx="10" fill="#C1E9FF"/><rect x=".25" y=".25" width="93.5" height="24.5" rx="9.75" stroke="#0F172A" stroke-width=".5"/></g><g filter="url(#v)"><rect x="25" y="74" width="66" height="25" rx="10" fill="#C1E9FF"/><rect x="25.25" y="74.25" width="65.5" height="24.5" rx="9.75" stroke="#0F172A" stroke-width=".5"/></g><path d="M18.768 17V9.861l-1.199.561v-.506l1.309-.616h.374V17h-.484zm4.33.121c-.967 0-1.814-.356-2.54-1.067l.33-.319c.337.337.678.576 1.023.715.345.14.74.209 1.188.209.403 0 .755-.084 1.056-.253.308-.176.55-.418.726-.726.176-.315.264-.675.264-1.078 0-.565-.187-1.02-.561-1.364-.374-.352-.865-.528-1.474-.528-.308 0-.612.037-.913.11-.3.066-.616.183-.946.352l-.341-.121.176-3.751h4.158v.462h-3.696l-.132 2.904c.315-.147.605-.253.869-.319.271-.066.56-.099.869-.099.499 0 .935.099 1.309.297.374.19.664.462.869.814.213.352.319.759.319 1.221 0 .506-.106.95-.32 1.331-.212.381-.509.678-.89.891-.381.213-.829.319-1.342.319zm6.718 0c-.58 0-1.097-.165-1.551-.495-.455-.33-.814-.792-1.078-1.386-.264-.601-.396-1.298-.396-2.09 0-.792.132-1.485.396-2.079.264-.601.623-1.067 1.078-1.397.454-.33.971-.495 1.55-.495.58 0 1.097.165 1.552.495.454.33.814.796 1.078 1.397.264.594.396 1.287.396 2.079 0 .792-.132 1.489-.396 2.09-.264.594-.624 1.056-1.078 1.386-.455.33-.972.495-1.551.495zm0-.462c.498 0 .935-.14 1.309-.418.381-.286.678-.69.89-1.21.213-.528.32-1.155.32-1.881s-.107-1.35-.32-1.87c-.212-.528-.509-.931-.89-1.21a2.094 2.094 0 0 0-1.31-.429 2.14 2.14 0 0 0-1.32.429c-.373.279-.667.682-.88 1.21-.212.52-.318 1.144-.318 1.87 0 .726.106 1.353.319 1.881.212.52.506.924.88 1.21.381.279.821.418 1.32.418zm7.154.462c-.58 0-1.096-.165-1.551-.495-.455-.33-.814-.792-1.078-1.386-.264-.601-.396-1.298-.396-2.09 0-.792.132-1.485.396-2.079.264-.601.623-1.067 1.078-1.397.455-.33.972-.495 1.551-.495.58 0 1.096.165 1.551.495.455.33.814.796 1.078 1.397.264.594.396 1.287.396 2.079 0 .792-.132 1.489-.396 2.09-.264.594-.623 1.056-1.078 1.386-.455.33-.972.495-1.551.495zm0-.462c.499 0 .935-.14 1.309-.418.381-.286.678-.69.891-1.21.213-.528.319-1.155.319-1.881s-.106-1.35-.319-1.87c-.213-.528-.51-.931-.891-1.21a2.094 2.094 0 0 0-1.309-.429 2.14 2.14 0 0 0-1.32.429c-.374.279-.667.682-.88 1.21-.213.52-.319 1.144-.319 1.87 0 .726.106 1.353.319 1.881.213.52.506.924.88 1.21.381.279.821.418 1.32.418zm9.824.462c-.609 0-1.144-.128-1.606-.385a2.71 2.71 0 0 1-1.078-1.144c-.257-.499-.385-1.104-.385-1.815V9.3h.506v4.477c0 .609.11 1.13.33 1.562.22.425.52.752.902.979.389.22.832.33 1.331.33s.939-.11 1.32-.33a2.36 2.36 0 0 0 .913-.979c.22-.433.33-.953.33-1.562V9.3h.506v4.477c0 .711-.128 1.316-.385 1.815-.257.499-.616.88-1.078 1.144-.462.257-.997.385-1.606.385zm7.12 0a4.04 4.04 0 0 1-1.726-.374 4.227 4.227 0 0 1-1.408-1.1l.396-.33c.366.433.78.763 1.243.99.47.227.968.341 1.496.341.44 0 .832-.077 1.177-.231.344-.154.616-.363.814-.627.198-.271.297-.576.297-.913 0-.447-.154-.788-.462-1.023-.3-.242-.81-.422-1.53-.539l-.934-.154c-.77-.125-1.335-.341-1.694-.649-.36-.308-.54-.73-.54-1.265 0-.41.107-.77.32-1.078.22-.308.524-.55.913-.726a3.195 3.195 0 0 1 1.33-.264c.507 0 1.013.088 1.519.264.506.169.986.422 1.44.759l-.307.418c-.866-.645-1.75-.968-2.651-.968-.396 0-.748.066-1.056.198-.308.132-.55.319-.726.561a1.32 1.32 0 0 0-.264.814c0 .403.135.719.407.946.271.22.726.381 1.364.484l.935.154c.872.14 1.5.374 1.88.704.382.323.573.788.573 1.397 0 .425-.121.807-.363 1.144-.242.33-.576.59-1.001.781-.418.19-.899.286-1.441.286zm4.565-.594h1.914a3.61 3.61 0 0 0 1.364-.253 3.292 3.292 0 0 0 1.1-.704 3.319 3.319 0 0 0 1.001-2.42c0-.484-.088-.931-.264-1.342a3.198 3.198 0 0 0-.737-1.067 3.208 3.208 0 0 0-1.1-.715 3.611 3.611 0 0 0-1.364-.253H58.48v6.754zm-.506.473V9.3h2.354a4.38 4.38 0 0 1 1.65.297c.499.19.928.458 1.287.803.36.345.634.752.825 1.221.19.47.286.979.286 1.529 0 .55-.095 1.06-.286 1.529-.19.47-.466.876-.825 1.221-.36.345-.788.616-1.287.814a4.529 4.529 0 0 1-1.65.286h-2.354zm9.256 0V9.773h-2.86V9.3h6.226v.473h-2.86V17h-.506zm6.016-1.672v-2.035h-1.848v-.451h1.848V10.84h.451v2.002h1.848v.451h-1.848v2.035h-.45zM39.357 91.121c-.968 0-1.815-.356-2.54-1.067l.33-.319c.337.337.678.576 1.022.715.345.14.74.209 1.188.209.404 0 .756-.084 1.056-.253.308-.176.55-.418.726-.726.176-.315.264-.675.264-1.078 0-.565-.187-1.02-.56-1.364-.375-.352-.866-.528-1.475-.528-.308 0-.612.037-.913.11-.3.066-.616.183-.946.352l-.34-.121.175-3.751h4.158v.462h-3.696l-.132 2.904c.316-.147.605-.253.87-.319.27-.066.56-.099.868-.099.499 0 .935.099 1.31.297.373.19.663.462.868.814.213.352.32.759.32 1.221 0 .506-.107.95-.32 1.331-.212.381-.51.678-.89.891-.382.213-.83.319-1.343.319zm6.717 0c-.58 0-1.096-.165-1.551-.495-.455-.33-.814-.792-1.078-1.386-.264-.601-.396-1.298-.396-2.09 0-.792.132-1.485.396-2.079.264-.601.623-1.067 1.078-1.397.455-.33.972-.495 1.551-.495.58 0 1.096.165 1.551.495.455.33.814.796 1.078 1.397.264.594.396 1.287.396 2.079 0 .792-.132 1.489-.396 2.09-.264.594-.623 1.056-1.078 1.386-.455.33-.972.495-1.551.495zm0-.462c.499 0 .935-.14 1.309-.418.381-.286.678-.69.891-1.21.213-.528.319-1.155.319-1.881s-.106-1.35-.319-1.87c-.213-.528-.51-.931-.891-1.21a2.094 2.094 0 0 0-1.309-.429 2.14 2.14 0 0 0-1.32.429c-.374.279-.667.682-.88 1.21-.213.52-.319 1.144-.319 1.87 0 .726.106 1.353.319 1.881.213.52.506.924.88 1.21.381.279.821.418 1.32.418zm6.92.341v-7.7h5.324v.473H53.5v3.102h3.146v.473H53.5v3.179h4.862V91h-5.368zm8.751 0v-7.227h-2.86V83.3h6.226v.473h-2.86V91h-.506zm4.462 0v-7.7h.506v3.586h4.906V83.3h.506V91h-.506v-3.641h-4.906V91h-.506zm9.901-1.672v-2.035H74.26v-.451h1.848V84.84h.451v2.002h1.848v.451H76.56v2.035h-.45z" fill="#10172A"/><defs><linearGradient id="b" x1="75" y1="26.124" x2="134.56" y2="26.124" gradientUnits="userSpaceOnUse"><stop stop-color="#0497EC"/><stop offset=".032" stop-color="#0497EC"/><stop offset=".033" stop-color="#0F172A"/><stop offset=".409" stop-color="#0F172A"/><stop offset=".411" stop-color="#0497EC"/><stop offset=".839" stop-color="#0497EC"/><stop offset=".841" stop-color="#0F172A"/><stop offset=".92"/><stop offset=".921" stop-color="#0497EC"/><stop offset="1" stop-color="#0497EC"/></linearGradient><linearGradient id="s" x1="62.69" y1="155.218" x2="81.321" y2="106.592" gradientUnits="userSpaceOnUse"><stop offset=".01" stop-color="#fff"/><stop offset=".431" stop-color="#fff"/><stop offset=".432" stop-color="#FFDE76"/><stop offset=".87" stop-color="#FFDE76"/></linearGradient><linearGradient id="q" x1="50.907" y1="149.107" x2="60.354" y2="124.08" gradientUnits="userSpaceOnUse"><stop offset=".01" stop-color="#fff"/><stop offset=".431" stop-color="#fff"/><stop offset=".432" stop-color="#FFDE76"/><stop offset=".87" stop-color="#FFDE76"/></linearGradient><linearGradient id="o" x1="110.69" y1="106.218" x2="129.321" y2="57.592" gradientUnits="userSpaceOnUse"><stop offset=".01" stop-color="#fff"/><stop offset=".431" stop-color="#fff"/><stop offset=".432" stop-color="#FFDE76"/><stop offset=".87" stop-color="#FFDE76"/></linearGradient><linearGradient id="m" x1="98.344" y1="100.197" x2="107.791" y2="75.17" gradientUnits="userSpaceOnUse"><stop offset=".01" stop-color="#fff"/><stop offset=".431" stop-color="#fff"/><stop offset=".432" stop-color="#FFDE76"/><stop offset=".87" stop-color="#FFDE76"/></linearGradient><linearGradient id="j" x1="2.907" y1="112.197" x2="12.354" y2="87.17" gradientUnits="userSpaceOnUse"><stop offset=".01" stop-color="#fff"/><stop offset=".431" stop-color="#fff"/><stop offset=".432" stop-color="#FFDE76"/><stop offset=".87" stop-color="#FFDE76"/></linearGradient><linearGradient id="g" x1="54" y1="15.5" x2="69.285" y2="77.697" gradientUnits="userSpaceOnUse"><stop offset=".01" stop-color="#0F172A"/><stop offset=".431" stop-color="#0F172A"/><stop offset=".432" stop-color="#FFDE76"/><stop offset=".87" stop-color="#FFDE76"/></linearGradient><linearGradient id="f" x1="19" y1="45.102" x2="78.56" y2="45.102" gradientUnits="userSpaceOnUse"><stop stop-color="#0497EC"/><stop offset=".032" stop-color="#0497EC"/><stop offset=".033" stop-color="#0F172A"/><stop offset=".409" stop-color="#0F172A"/><stop offset=".411" stop-color="#0497EC"/><stop offset=".839" stop-color="#0497EC"/><stop offset=".841" stop-color="#0F172A"/><stop offset=".92"/><stop offset=".921" stop-color="#0497EC"/><stop offset="1" stop-color="#0497EC"/></linearGradient><linearGradient id="c" x1="120" y1="-7" x2="136.597" y2="50.728" gradientUnits="userSpaceOnUse"><stop offset=".061" stop-color="#0F172A"/><stop offset=".431" stop-color="#0F172A"/><stop offset=".432" stop-color="#FFDE76"/><stop offset=".87" stop-color="#FFDE76"/></linearGradient><filter id="d" x="92" y="22" width="23.559" height="11.097" filterUnits="userSpaceOnUse" color-interpolation-filters="sRGB"><feFlood flood-opacity="0" result="BackgroundImageFix"/><feColorMatrix in="SourceAlpha" values="0 0 0 0 0 0 0 0 0 0 0 0 0 0 0 0 0 0 127 0" result="hardAlpha"/><feOffset dy="1"/><feComposite in2="hardAlpha" operator="out"/><feColorMatrix values="0 0 0 0 0 0 0 0 0 0 0 0 0 0 0 0 0 0 1 0"/><feBlend in2="BackgroundImageFix" result="effect1_dropShadow_485_1026"/><feBlend in="SourceGraphic" in2="effect1_dropShadow_485_1026" result="shape"/></filter><filter id="v" x="25" y="74" width="66" height="27" filterUnits="userSpaceOnUse" color-interpolation-filters="sRGB"><feFlood flood-opacity="0" result="BackgroundImageFix"/><feColorMatrix in="SourceAlpha" values="0 0 0 0 0 0 0 0 0 0 0 0 0 0 0 0 0 0 127 0" result="hardAlpha"/><feOffset dy="2"/><feComposite in2="hardAlpha" operator="out"/><feColorMatrix values="0 0 0 0 0.0588235 0 0 0 0 0.0901961 0 0 0 0 0.164706 0 0 0 1 0"/><feBlend in2="BackgroundImageFix" result="effect1_dropShadow_485_1026"/><feBlend in="SourceGraphic" in2="effect1_dropShadow_485_1026" result="shape"/></filter><filter id="u" x="0" y="0" width="94" height="27" filterUnits="userSpaceOnUse" color-interpolation-filters="sRGB"><feFlood flood-opacity="0" result="BackgroundImageFix"/><feColorMatrix in="SourceAlpha" values="0 0 0 0 0 0 0 0 0 0 0 0 0 0 0 0 0 0 127 0" result="hardAlpha"/><feOffset dy="2"/><feComposite in2="hardAlpha" operator="out"/><feColorMatrix values="0 0 0 0 0.0588235 0 0 0 0 0.0901961 0 0 0 0 0.164706 0 0 0 1 0"/><feBlend in2="BackgroundImageFix" result="effect1_dropShadow_485_1026"/><feBlend in="SourceGraphic" in2="effect1_dropShadow_485_1026" result="shape"/></filter><filter id="r" x="67" y="132" width="23.559" height="11.097" filterUnits="userSpaceOnUse" color-interpolation-filters="sRGB"><feFlood flood-opacity="0" result="BackgroundImageFix"/><feColorMatrix in="SourceAlpha" values="0 0 0 0 0 0 0 0 0 0 0 0 0 0 0 0 0 0 127 0" result="hardAlpha"/><feOffset dy="1"/><feComposite in2="hardAlpha" operator="out"/><feColorMatrix values="0 0 0 0 0 0 0 0 0 0 0 0 0 0 0 0 0 0 1 0"/><feBlend in2="BackgroundImageFix" result="effect1_dropShadow_485_1026"/><feBlend in="SourceGraphic" in2="effect1_dropShadow_485_1026" result="shape"/></filter><filter id="n" x="115" y="83" width="23.559" height="11.097" filterUnits="userSpaceOnUse" color-interpolation-filters="sRGB"><feFlood flood-opacity="0" result="BackgroundImageFix"/><feColorMatrix in="SourceAlpha" values="0 0 0 0 0 0 0 0 0 0 0 0 0 0 0 0 0 0 127 0" result="hardAlpha"/><feOffset dy="1"/><feComposite in2="hardAlpha" operator="out"/><feColorMatrix values="0 0 0 0 0 0 0 0 0 0 0 0 0 0 0 0 0 0 1 0"/><feBlend in2="BackgroundImageFix" result="effect1_dropShadow_485_1026"/><feBlend in="SourceGraphic" in2="effect1_dropShadow_485_1026" result="shape"/></filter><filter id="k" x="19" y="95" width="23.559" height="11.097" filterUnits="userSpaceOnUse" color-interpolation-filters="sRGB"><feFlood flood-opacity="0" result="BackgroundImageFix"/><feColorMatrix in="SourceAlpha" values="0 0 0 0 0 0 0 0 0 0 0 0 0 0 0 0 0 0 127 0" result="hardAlpha"/><feOffset dy="1"/><feComposite in2="hardAlpha" operator="out"/><feColorMatrix values="0 0 0 0 0 0 0 0 0 0 0 0 0 0 0 0 0 0 1 0"/><feBlend in2="BackgroundImageFix" result="effect1_dropShadow_485_1026"/><feBlend in="SourceGraphic" in2="effect1_dropShadow_485_1026" result="shape"/></filter><filter id="h" x="36" y="42" width="23.559" height="11.097" filterUnits="userSpaceOnUse" color-interpolation-filters="sRGB"><feFlood flood-opacity="0" result="BackgroundImageFix"/><feColorMatrix in="SourceAlpha" values="0 0 0 0 0 0 0 0 0 0 0 0 0 0 0 0 0 0 127 0" result="hardAlpha"/><feOffset dy="1"/><feComposite in2="hardAlpha" operator="out"/><feColorMatrix values="0 0 0 0 0 0 0 0 0 0 0 0 0 0 0 0 0 0 1 0"/><feBlend in2="BackgroundImageFix" result="effect1_dropShadow_485_1026"/><feBlend in="SourceGraphic" in2="effect1_dropShadow_485_1026" result="shape"/></filter><filter id="a" x="99" y="38" width="60" height="27" filterUnits="userSpaceOnUse" color-interpolation-filters="sRGB"><feFlood flood-opacity="0" result="BackgroundImageFix"/><feColorMatrix in="SourceAlpha" values="0 0 0 0 0 0 0 0 0 0 0 0 0 0 0 0 0 0 127 0" result="hardAlpha"/><feOffset dy="2"/><feComposite in2="hardAlpha" operator="out"/><feColorMatrix values="0 0 0 0 0.0588235 0 0 0 0 0.0901961 0 0 0 0 0.164706 0 0 0 1 0"/><feBlend in2="BackgroundImageFix" result="effect1_dropShadow_485_1026"/><feBlend in="SourceGraphic" in2="effect1_dropShadow_485_1026" result="shape"/></filter></defs></svg>