<svg width="206" height="225" fill="none" xmlns="http://www.w3.org/2000/svg"><path d="M128.576 79.934v-.004c.574-.458 1.516-.805 2.778-1.072 1.314-.277 2.943-.46 4.798-.605 1.582-.123 3.321-.217 5.164-.317l.967-.053c2.201-.12 4.529-.257 6.887-.464 2.358-.208 4.673-.48 6.861-.746l.961-.118c1.833-.224 3.562-.435 5.14-.59 1.853-.182 3.489-.286 4.83-.243 1.29.042 2.278.22 2.924.57l.323 3.673c.022.25-.069.521-.301.817-.232.297-.596.605-1.089.918-.986.626-2.451 1.246-4.294 1.823-3.684 1.153-8.838 2.12-14.586 2.627-5.749.506-10.993.454-14.821-.038-1.916-.246-3.467-.6-4.547-1.044-.54-.222-.952-.462-1.233-.713-.279-.251-.417-.503-.439-.752v-.006l-.001-.001V83.586l-.001-.002v-.01l-.001-.002v-.01l-.001-.002V83.55l-.001-.002v-.007l-.001-.003V83.53l-.001-.004v-.007l-.001-.003v-.008l-.001-.004v-.007l-.001-.004V83.484l-.001-.004v-.008l-.001-.005v-.004l-.001-.005V83.45l-.001-.005v-.005l-.001-.005v-.005l-.001-.005v-.005l-.001-.005v-.01l-.001-.005v-.006l-.001-.005v-.006l-.001-.005v-.006l-.001-.006v-.005l-.001-.006v-.006l-.001-.006v-.006l-.001-.006v-.006l-.001-.006-.001-.006v-.007l-.001-.006v-.006l-.001-.007v-.006l-.001-.007-.001-.006v-.007l-.001-.007v-.006l-.001-.007v-.007l-.001-.007-.001-.007v-.007l-.001-.007-.001-.007v-.007l-.001-.008v-.007l-.001-.007-.001-.007v-.008l-.001-.007-.001-.008v-.007l-.001-.008-.001-.008v-.007l-.001-.008-.001-.008v-.008l-.001-.008-.001-.007-.001-.008v-.008l-.001-.009-.001-.008v-.008l-.001-.008-.001-.008-.001-.009v-.008l-.001-.008-.001-.009-.001-.008v-.009l-.001-.008-.001-.009-.001-.008v-.009l-.001-.009-.001-.008-.001-.01v-.008l-.001-.009-.001-.009-.001-.009-.001-.008v-.01l-.001-.008-.001-.01-.001-.009-.001-.009v-.009l-.001-.01-.001-.009-.001-.009-.001-.009v-.01l-.001-.009-.001-.01-.001-.009-.001-.01-.001-.009v-.01l-.001-.009-.001-.01-.001-.009-.001-.01-.001-.01-.001-.009v-.01l-.001-.01-.001-.01-.001-.01-.001-.009-.001-.01-.001-.01v-.01l-.001-.01-.001-.01-.001-.01-.001-.01-.001-.01-.001-.01-.001-.01-.001-.01v-.01l-.001-.01-.001-.01-.001-.011-.001-.01-.001-.01-.001-.01-.001-.011-.001-.01-.001-.01-.001-.011v-.01l-.001-.011-.001-.01-.001-.011-.001-.01-.001-.011-.001-.01-.001-.011-.001-.01-.001-.011-.001-.01-.001-.011-.001-.011v-.01l-.001-.011-.001-.01-.001-.012-.001-.01-.001-.011-.001-.01-.001-.012-.001-.01-.001-.011-.001-.01-.001-.012-.001-.01-.001-.011-.001-.011-.001-.01-.001-.012-.001-.01-.001-.011-.001-.011v-.011l-.001-.011-.001-.011-.001-.01-.001-.012-.001-.01-.001-.012-.001-.01-.001-.011-.001-.011-.001-.011-.001-.011-.001-.011-.001-.011-.001-.011-.001-.011-.001-.011-.001-.011-.001-.011-.001-.011-.001-.011-.001-.011-.001-.011-.001-.011-.001-.011-.001-.011-.001-.011-.001-.011-.001-.011v-.011l-.001-.011-.001-.011-.001-.011-.001-.011-.001-.011-.001-.011-.001-.011-.001-.011-.001-.011-.001-.011-.001-.011-.001-.011-.001-.011-.001-.011-.001-.011-.001-.011-.001-.011-.001-.011-.001-.01-.001-.012-.001-.01-.001-.012-.001-.01-.001-.011-.001-.011-.001-.011-.001-.011v-.01l-.001-.012-.001-.01-.001-.011-.001-.011-.001-.011-.001-.01-.001-.012-.001-.01-.001-.011-.001-.01-.001-.012-.001-.01-.001-.011-.001-.01-.001-.011-.001-.011-.001-.01-.001-.011v-.011l-.001-.01-.001-.011-.001-.01-.001-.011-.001-.01-.001-.011-.001-.01-.001-.011-.001-.01-.001-.011-.001-.01-.001-.01v-.011l-.001-.01-.001-.01-.001-.011-.001-.01-.001-.01-.001-.011-.001-.01-.001-.01-.001-.01v-.01l-.001-.01-.001-.011-.001-.01-.001-.01-.001-.01-.001-.01-.001-.01-.001-.01v-.01l-.001-.01-.001-.01-.001-.01-.001-.01-.001-.01-.001-.009v-.01l-.001-.01-.001-.009-.001-.01-.001-.01-.001-.009-.001-.01v-.009l-.001-.01-.001-.009-.001-.01-.001-.009-.001-.009v-.01l-.001-.009-.001-.009-.001-.009-.001-.01v-.008l-.001-.01-.001-.008-.001-.01-.001-.008v-.01l-.001-.008-.001-.01-.001-.008-.001-.009v-.009l-.001-.008-.001-.01-.001-.008v-.008l-.001-.01-.001-.008-.001-.008v-.009l-.001-.008-.001-.008-.001-.009v-.008l-.001-.008-.001-.008v-.009l-.001-.008-.001-.008-.001-.008v-.008l-.001-.008-.001-.008v-.008l-.001-.007-.001-.008v-.008l-.001-.007-.001-.008v-.008l-.001-.007-.001-.008v-.007l-.001-.007-.001-.008v-.007l-.001-.007-.001-.007v-.007l-.001-.008v-.007l-.001-.007-.001-.007v-.006l-.001-.007-.001-.007v-.007l-.001-.006v-.007l-.001-.006v-.007l-.001-.006-.001-.007v-.006l-.001-.006v-.007l-.001-.006v-.006l-.001-.006v-.006l-.001-.006v-.006l-.001-.005v-.006l-.001-.006v-.005l-.001-.006v-.006l-.001-.005v-.005l-.001-.006v-.005l-.001-.005v-.005l-.001-.005v-.01l-.001-.005v-.005l-.001-.005v-.004l-.001-.005V79.964l-.001-.005v-.004l-.001-.004V79.942l-.001-.004v-.004z" fill="#0497EC" stroke="#0F172A" stroke-width=".4"/><path d="m136.508 86.377-4.271-.78-2.178-.858-.44-5.005 2.462-.673 13.313-1.557.775 8.793-3.337.294-6.324-.214zM166.873 82.758l-.588-6.674-2.539-.196.661 7.507 2.466-.637z" fill="#0F172A" stroke="#0F172A" stroke-width=".4"/><path d="M169.877 76.188c.019.216-.069.458-.303.73-.233.273-.599.558-1.095.848-.991.58-2.461 1.158-4.308 1.7-3.691 1.083-8.85 2.007-14.6 2.513-5.749.506-10.99.498-14.814.077-1.914-.21-3.462-.523-4.539-.92-.539-.2-.949-.416-1.226-.644-.278-.227-.407-.45-.425-.666-.019-.215.068-.458.302-.73.233-.272.599-.557 1.095-.847.991-.58 2.461-1.159 4.308-1.7 3.691-1.083 8.85-2.007 14.6-2.513 5.749-.507 10.99-.498 14.814-.078 1.914.21 3.462.523 4.539.921.539.2.949.416 1.226.643.278.227.407.45.426.666z" fill="#FFDE76" stroke="#0F172A" stroke-width=".4"/><path d="M164.112 76.13c.006.067.006.219.004.364l-.003.166c-.338.242-.947.499-1.805.756-.913.275-2.082.544-3.444.8-2.723.51-6.207.96-9.943 1.29-3.646.32-7.113.474-9.886.445-1.386-.014-2.597-.075-3.568-.181-.908-.1-1.589-.24-2.01-.411a5.862 5.862 0 0 1-.026-.147 5.79 5.79 0 0 1-.057-.376c-.004-.052.026-.153.206-.304.174-.145.447-.303.823-.467.747-.328 1.852-.665 3.239-.989 2.77-.647 6.63-1.237 10.923-1.616 4.292-.378 8.196-.471 11.037-.318 1.422.077 2.569.215 3.362.407.398.097.695.204.892.317.203.117.251.211.256.264z" fill="#0F172A" stroke="#0F172A" stroke-width=".4"/><path d="M164.23 76.827c.002.026-.007.063-.045.112a.79.79 0 0 1-.196.169c-.187.123-.473.254-.854.39-.761.272-1.876.556-3.265.834-2.776.557-6.636 1.09-10.919 1.467s-8.176.527-11.008.464c-1.416-.031-2.563-.116-3.359-.25-.399-.068-.704-.147-.91-.236a.795.795 0 0 1-.222-.131c-.047-.042-.061-.077-.064-.103-.002-.027.006-.063.045-.113a.792.792 0 0 1 .196-.168c.187-.123.473-.255.854-.39.761-.273 1.875-.556 3.264-.835 2.777-.556 6.636-1.09 10.92-1.467 4.283-.377 8.176-.526 11.007-.464 1.417.032 2.564.116 3.36.25.399.068.704.148.91.236a.808.808 0 0 1 .222.132c.046.042.061.076.064.103z" fill="#FFDE76" stroke="#0F172A" stroke-width=".2"/><path d="m126.098 90.876.002-.003c.732-.068 1.709.16 2.91.632 1.249.49 2.711 1.233 4.34 2.133 1.389.766 2.894 1.645 4.488 2.575l.836.487c1.905 1.11 3.924 2.276 6.007 3.399 2.084 1.124 4.168 2.169 6.142 3.15l.867.431c1.653.82 3.214 1.595 4.618 2.333 1.647.867 3.071 1.68 4.167 2.454 1.054.744 1.782 1.435 2.128 2.084l-1.749 3.245c-.119.22-.344.397-.7.516-.358.121-.831.178-1.415.168-1.168-.019-2.732-.307-4.589-.839-3.711-1.062-8.548-3.088-13.628-5.826-5.08-2.739-9.43-5.666-12.358-8.182-1.465-1.259-2.565-2.407-3.223-3.372-.329-.482-.541-.91-.637-1.274-.096-.363-.073-.649.046-.869l.001-.001v-.001l.001-.001v-.001h.001v-.002h.001v-.002h.001l.001-.002v-.001l.001-.002.001-.001v-.002l.001-.001.001-.002.001-.001.001-.002.001-.002.001-.002.001-.002.001-.002.001-.002.001-.002.002-.002.001-.003.001-.002.001-.002.002-.003.001-.002.002-.003.001-.003.001-.002.002-.003.002-.003.001-.003.002-.003.001-.003.002-.003.002-.003.002-.004.001-.003.002-.003.002-.004.002-.003.002-.004.002-.003.002-.004.002-.004.002-.004.002-.003.002-.004.002-.004.002-.004.002-.004.003-.005.002-.004.002-.004.003-.004.002-.005.002-.004.003-.004.002-.005.003-.005.002-.004.003-.005.002-.005.003-.005.002-.004.003-.005.003-.005.002-.005.003-.005.003-.005.003-.006.003-.005.002-.005.003-.005.003-.006.003-.005.003-.006.003-.005.003-.006.003-.005.003-.006.003-.006.003-.006.003-.005.004-.006.003-.006.003-.006.003-.006.003-.006.004-.006.003-.007.003-.006.004-.006.003-.006.004-.007.003-.006.003-.006.004-.007.003-.006.004-.007.004-.006.003-.007.004-.007.003-.006.004-.007.004-.007.003-.007.004-.007.004-.007.004-.007.003-.007.004-.007.004-.007.004-.007.004-.007.004-.007.003-.008.004-.007.004-.007.004-.007.004-.008.004-.007.004-.008.004-.007.004-.008.004-.007.005-.008.004-.008.004-.007.004-.008.004-.008.004-.008.005-.007.004-.008.004-.008.004-.008.005-.008.004-.008.004-.008.005-.008.004-.008.004-.008.005-.008.004-.008.004-.009.005-.008.004-.008.005-.008.004-.009.005-.008.004-.008.005-.009.004-.008.005-.009.005-.008.004-.009.005-.008.004-.009.005-.008.005-.009.004-.009.005-.008.005-.009.004-.009.005-.008.005-.01.004-.008.005-.009.005-.009.005-.008.005-.01.004-.008.005-.01.005-.008.005-.01.005-.008.004-.009.005-.01.005-.008.005-.01.005-.008.005-.01.005-.008.005-.01.005-.009.005-.009.005-.01.005-.008.005-.01.005-.009.005-.01.005-.008.005-.01.005-.009.005-.01.005-.009.005-.009.005-.01.005-.009.005-.01.005-.009.005-.009.005-.01.005-.009.005-.01.005-.009.005-.01.006-.009.005-.01.005-.009.005-.01.005-.009.005-.01.005-.01.006-.009.005-.01.005-.009.005-.01.005-.01.006-.009.005-.01.005-.009.005-.01.005-.01.006-.009.005-.01.005-.01.005-.009.005-.01.006-.01.005-.009.005-.01.005-.01.005-.009.006-.01.005-.01.005-.01.005-.009.006-.01.005-.01.005-.009.005-.01.006-.01.005-.01.005-.009.005-.01.006-.01.005-.01.005-.009.005-.01.006-.01.005-.009.005-.01.005-.01.006-.01.005-.009.005-.01.005-.01.005-.009.006-.01.005-.01.005-.01.005-.009.006-.01.005-.01.005-.009.005-.01.005-.01.006-.009.005-.01.005-.01.005-.009.005-.01.006-.009.005-.01.005-.01.005-.009.005-.01.005-.009.006-.01.005-.01.005-.009.005-.01.005-.009.005-.01.005-.009.006-.01.005-.009.005-.01.005-.009.005-.009.005-.01.005-.009.005-.01.005-.009.005-.009.005-.01.005-.009.005-.01.005-.008.005-.01.005-.009.005-.01.005-.009.005-.009.005-.009.005-.01.005-.008.005-.01.005-.009.005-.009.005-.009.005-.009.005-.009.005-.01.005-.008.004-.01.005-.008.005-.01.005-.008.005-.009.005-.009.004-.009.005-.009.005-.008.005-.01.004-.008.005-.009.005-.008.004-.01.005-.008.005-.009.004-.008.005-.009.005-.008.004-.009.005-.009.005-.008.004-.009.005-.008.004-.008.005-.009.004-.008.005-.009.004-.008.005-.008.004-.009.005-.008.004-.008.004-.008.005-.008.004-.008.005-.008.004-.008.004-.008.005-.008.004-.008.004-.008.004-.008.005-.008.004-.008.004-.008.004-.007.004-.008.004-.008.005-.008.004-.007.004-.008.004-.007.004-.008.004-.007.004-.008.004-.007.004-.007.004-.008.004-.007.004-.007.004-.008.003-.007.004-.007.004-.007.004-.007.004-.007.003-.007.004-.007.004-.007.004-.007.003-.006.004-.007.004-.007.003-.007.004-.006.003-.007.004-.006.003-.007.004-.006.003-.007.004-.006.003-.007.004-.006.003-.006.003-.006.004-.007.003-.006.003-.006.003-.006.004-.006.003-.006.003-.005.003-.006.003-.006.003-.006.003-.005.003-.006.003-.006.003-.005.003-.006.003-.005.003-.006.003-.005.003-.005.003-.005.003-.006.002-.005.003-.005.003-.005.002-.005.003-.005.003-.005.002-.004.003-.005.002-.005.003-.004.002-.005.003-.005.002-.004.003-.005.002-.004.002-.004.003-.005.002-.004.002-.004.002-.004.003-.004.002-.004.002-.004.002-.004.002-.004.002-.003.002-.004.002-.004.002-.003z" fill="#0497EC" stroke="#0F172A" stroke-width=".4"/><path d="m129.18 100.619-3.139-3-1.346-1.915 2.384-4.422 2.426.792 11.976 6.02-4.188 7.771-2.949-1.59-5.164-3.656zM156.532 114.294l3.179-5.897-2.013-1.561-3.576 6.634 2.41.824z" fill="#0F172A" stroke="#0F172A" stroke-width=".4"/><path d="M162.653 110.459c-.103.19-.309.344-.654.443-.345.099-.807.136-1.381.106-1.146-.061-2.692-.386-4.533-.949-3.678-1.126-8.495-3.191-13.576-5.93-5.081-2.739-9.453-5.628-12.416-8.082-1.482-1.228-2.603-2.34-3.284-3.265-.341-.462-.564-.869-.671-1.211-.107-.343-.091-.6.011-.79.103-.19.31-.345.654-.444.345-.1.807-.136 1.381-.106 1.147.06 2.692.386 4.533.95 3.678 1.125 8.495 3.19 13.576 5.929 5.081 2.739 9.454 5.628 12.416 8.082 1.482 1.228 2.603 2.34 3.284 3.265.341.462.564.869.671 1.211.107.343.092.6-.011.791z" fill="#FFDE76" stroke="#0F172A" stroke-width=".4"/><path d="M159.598 109.049c-.41-.007-1.055-.151-1.908-.428-.913-.296-2.04-.735-3.324-1.291-2.567-1.111-5.75-2.682-9.085-4.48-3.257-1.755-6.314-3.528-8.692-5.057-1.189-.764-2.206-1.466-2.992-2.074-.714-.551-1.223-1.014-1.502-1.368l.08-.114c.085-.121.188-.274.234-.359.012-.021.072-.082.308-.096.221-.012.533.021.935.104.8.167 1.907.522 3.247 1.04 2.675 1.035 6.247 2.708 10.08 4.775 3.832 2.066 7.193 4.13 9.529 5.797 1.168.834 2.074 1.564 2.653 2.141.29.289.49.532.6.724.119.204.101.288.09.31a5.03 5.03 0 0 1-.253.376z" fill="#0F172A" stroke="#0F172A" stroke-width=".4"/><path d="M159.616 109.248c-.008.014-.028.035-.084.051a.826.826 0 0 1-.248.017c-.219-.01-.526-.069-.914-.175-.774-.211-1.852-.606-3.157-1.153-2.609-1.093-6.116-2.789-9.901-4.83-3.785-2.04-7.13-4.037-9.477-5.616-1.174-.79-2.096-1.474-2.698-2.004-.302-.266-.519-.49-.649-.667a.835.835 0 0 1-.121-.217c-.018-.056-.011-.084-.004-.098.008-.014.027-.035.084-.05a.814.814 0 0 1 .248-.019c.219.011.526.07.914.176.774.211 1.852.606 3.157 1.153 2.609 1.093 6.116 2.789 9.901 4.83 3.785 2.04 7.129 4.037 9.476 5.616 1.175.79 2.096 1.474 2.699 2.004.302.266.519.49.648.667a.818.818 0 0 1 .122.217c.017.056.011.084.004.098z" fill="#FFDE76" stroke="#0F172A" stroke-width=".2"/><path d="m66.317 156.274.028-.011.029-.004 76.45-10.374c5.255-2.049 7.863-7.965 5.827-13.229l-.003-.01-16.249-47.75c-1.365-3.355-3.696-5.196-6.309-6.149-2.625-.956-5.541-1.017-8.058-.789h-.003l-78.545 9.028c-5.253 2.05-7.86 7.965-5.825 13.228l9.71 25.103 9.709 25.102c2.039 5.273 7.966 7.894 13.24 5.855z" fill="#0F172A" stroke="#0F172A" stroke-width=".5"/><path d="m66.023 160.607.027-.01.028-.004 77.853-11.005c5.035-1.965 7.486-7.81 5.447-13.082L129.96 86.301c-1.021-2.638-2.769-4.328-4.992-5.265-2.23-.94-4.954-1.128-7.923-.723L39.193 91.319c-5.035 1.965-7.486 7.81-5.447 13.082l9.71 25.103 9.709 25.102c2.042 5.282 7.805 7.957 12.858 6.002z" fill="url(#a)" stroke="#0F172A" stroke-width=".5"/><path d="m13.899 119.159.001.004c.734.043 1.704-.217 2.888-.728 1.233-.531 2.67-1.321 4.269-2.273a227.293 227.293 0 0 0 4.4-2.721l.82-.515c1.868-1.171 3.848-2.403 5.893-3.593 2.046-1.191 4.095-2.304 6.036-3.35l.852-.458c1.626-.874 3.16-1.7 4.539-2.484 1.618-.92 3.014-1.779 4.085-2.588 1.03-.778 1.734-1.493 2.059-2.152l-1.855-3.187c-.126-.216-.357-.385-.717-.493-.36-.108-.836-.15-1.42-.121-1.165.057-2.72.396-4.558.988-3.674 1.184-8.442 3.367-13.43 6.27-4.988 2.903-9.24 5.971-12.084 8.581-1.423 1.306-2.485 2.49-3.11 3.476-.314.493-.512.927-.596 1.294-.084.366-.051.651.075.867v.002l.001.001v.001l.001.001v.001l.001.001.001.001v.001l.001.001.001.001v.002l.002.001v.001l.001.002.001.001.001.002.001.002.001.002.001.001.002.002v.002l.002.002.001.003.001.002.002.002.001.002.001.003.002.002.001.003.002.002.001.003.002.002.001.003.002.003.002.003.001.003.002.003.002.003.002.003.002.003.002.003.002.004.001.003.002.004.002.003.002.004.003.003.002.004.002.004.002.003.002.004.003.004.002.004.002.004.003.004.002.004.002.004.003.005.002.004.003.004.002.005.003.004.003.005.002.004.003.005.003.004.003.005.002.005.003.005.003.005.003.004.003.005.003.005.002.006.004.005.002.005.004.005.003.005.003.006.003.005.003.006.003.005.003.006.004.005.003.006.003.005.004.006.003.006.003.006.004.006.003.005.004.006.003.006.004.006.003.006.004.007.003.006.004.006.004.006.003.007.004.006.004.006.003.007.004.006.004.007.004.006.004.007.003.006.004.007.004.007.004.007.004.006.004.007.004.007.004.007.004.007.004.007.004.007.005.007.004.007.004.007.004.008.004.007.004.007.005.007.004.008.004.007.005.007.004.008.004.007.005.008.004.007.004.008.005.008.004.007.005.008.004.008.005.007.004.008.005.008.004.008.005.008.005.007.004.008.005.008.004.008.005.008.005.008.004.008.005.009.005.008.005.008.004.008.005.008.005.009.005.008.005.008.005.008.004.009.005.008.005.009.005.008.005.008.005.009.005.008.005.009.005.009.005.008.005.009.005.008.005.009.005.009.005.008.005.009.005.009.005.009.005.008.005.009.005.009.006.009.005.009.005.009.005.008.005.009.006.009.005.009.005.009.005.009.005.009.006.009.005.009.005.009.006.009.005.01.005.009.006.009.005.009.005.009.006.009.005.009.005.01.006.009.005.009.005.009.006.01.005.009.005.009.006.009.005.01.006.009.005.009.006.01.005.009.005.009.006.01.005.009.006.01.005.009.006.009.005.01.006.009.005.01.006.009.005.01.006.009.005.009.006.01.005.009.006.01.005.009.006.01.005.009.006.01.005.009.006.01.006.009.005.01.006.01.005.009.006.01.005.009.006.01.005.009.006.01.005.009.006.01.006.009.005.01.006.009.005.01.006.01.005.009.006.01.006.009.005.01.006.009.005.01.006.009.005.01.006.009.005.01.006.01.005.009.006.01.006.009.005.01.006.009.005.01.006.009.005.01.006.009.005.01.006.009.005.01.006.009.005.009.006.01.005.009.006.01.005.009.006.01.005.009.006.009.005.01.006.009.005.009.006.01.005.009.005.01.006.009.005.009.006.009.005.01.005.009.006.009.005.01.006.009.005.009.005.009.006.009.005.01.005.009.006.009.005.009.005.009.006.009.005.009.005.009.005.009.006.009.005.009.005.009.005.009.006.009.005.009.005.009.005.009.005.009.006.009.005.009.005.009.005.008.005.009.005.009.005.009.005.008.005.009.005.009.005.008.005.009.006.009.005.008.005.009.004.008.005.009.005.008.005.009.005.008.005.009.005.008.005.008.005.009.005.008.004.008.005.009.005.008.005.008.004.008.005.008.005.008.005.008.004.008.005.009.005.008.004.007.005.008.004.008.005.008.005.008.004.008.005.008.004.007.005.008.004.008.005.007.004.008.004.008.005.007.004.008.005.007.004.008.004.007.005.007.004.008.004.007.004.007.004.007.005.008.004.007.004.007.004.007.004.007.004.007.004.007.004.007.004.007.004.007.004.007.004.006.004.007.004.007.004.006.004.007.004.007.003.006.004.007.004.006.004.006.003.007.004.006.004.006.003.007.004.006.003.006.004.006.004.006.003.006.003.006.004.006.003.006.004.006.003.005.003.006.004.006.003.005.003.006.003.005.004.006.003.005.003.006.003.005.003.005.003.006.003.005.003.005.003.005.003.005.003.005.003.005.003.005.003.005.002.005.003.004.003.005.002.005.003.004.003.005.002.004.003.004.002.005.003.004.002.004.003.005.002.004.003.004.002.004.002.004.002.004.003.003.002.004.002.004.002.004.002.003.002.004.002.003z" fill="#0497EC" stroke="#0F172A" stroke-width=".4"/><path d="m16.66 109.32-3.04 3.102-1.282 1.957 2.528 4.343 2.399-.872 11.773-6.409-4.441-7.629-2.895 1.685-5.042 3.823zM43.55 94.758l3.37 5.79-1.96 1.626-3.792-6.514 2.382-.902z" fill="#0F172A" stroke="#0F172A" stroke-width=".4"/><path d="M49.793 98.391c-.108-.187-.32-.334-.668-.422-.348-.088-.81-.11-1.383-.06-1.144.098-2.678.473-4.5 1.097-3.64 1.245-8.386 3.467-13.374 6.37-4.989 2.904-9.265 5.934-12.145 8.484-1.442 1.276-2.526 2.424-3.176 3.371-.325.473-.535.887-.631 1.233-.096.345-.072.602.037.789.109.187.32.334.668.422.348.088.811.109 1.384.06 1.144-.098 2.678-.473 4.5-1.097 3.639-1.245 8.386-3.467 13.374-6.37 4.988-2.904 9.264-5.934 12.145-8.484 1.441-1.276 2.525-2.424 3.175-3.371.326-.473.536-.886.631-1.233.096-.345.072-.602-.037-.789z" fill="#10182B" stroke="#0F172A" stroke-width=".4"/><path d="m65.285 168.388.019-.007.02-.004 79.355-16.83c5.041-1.962 7.495-7.81 5.455-13.085l-19.418-50.205c-1.021-2.64-2.803-4.411-5.042-5.388-2.243-.98-4.962-1.167-7.857-.602h-.002l-79.352 16.83c-5.041 1.961-7.495 7.809-5.455 13.084l9.71 25.103 9.708 25.102c2.043 5.282 7.805 7.957 12.859 6.002z" fill="url(#b)" stroke="#0F172A" stroke-width=".5"/><path d="m65.577 176.895.01-.004.01-.003 79.83-23.382c5.047-1.958 7.505-7.81 5.464-13.088l-19.418-50.205c-2.033-5.255-7.564-7.313-12.884-5.994L38.764 107.6c-5.047 1.958-7.505 7.81-5.464 13.088l9.71 25.103 9.708 25.102c2.043 5.282 7.805 7.957 12.859 6.002z" fill="url(#c)" stroke="#0F172A" stroke-width=".5"/><g filter="url(#d)"><path d="M134.511 91.869c-2.089-5.402-8.161-8.087-13.563-5.998l-80.85 31.271c-5.4 2.089-8.086 8.162-5.997 13.563L53.52 180.91c2.09 5.401 8.162 8.087 13.563 5.997l78.514-32.763c5.402-2.089 8.087-8.162 5.998-13.563l-17.083-48.712z" fill="url(#e)"/><path d="m145.5 153.913.006-.002c5.273-2.04 7.894-7.967 5.854-13.24l-.002-.007-17.081-48.709c-2.041-5.27-7.967-7.89-13.239-5.85l-80.85 31.27c-5.272 2.04-7.893 7.967-5.854 13.24l19.418 50.205c2.04 5.271 7.965 7.893 13.237 5.856l.003-.002 78.508-32.761z" stroke="#0F172A" stroke-width=".5"/></g><g filter="url(#f)"><rect width="27.124" height="14.741" rx="5" transform="scale(-1 1) rotate(21.145 -409.867 -71.042)" fill="#FFDE76"/><rect x="-.143" y=".323" width="26.624" height="14.241" rx="4.75" transform="scale(-1 1) rotate(21.145 -409.866 -69.953)" stroke="#0F172A" stroke-width=".5"/></g><g filter="url(#g)" transform="scale(-1 1) rotate(21.145 -427.598 -28.584)"><circle cx="3.538" cy="3.538" r="3.538" fill="#fff"/><circle cx="3.538" cy="3.538" r="3.288" stroke="#0F172A" stroke-width=".5"/></g><path d="m129.505 86.291-94.39 36.291" stroke="#0F172A" stroke-width=".5" stroke-dasharray="5 5"/><path d="M151.556 148.235 58.321 186.38" stroke="#fff" stroke-width=".5" stroke-dasharray="5 5"/><g filter="url(#h)" stroke="#0F172A"><path d="M110.511 46.572c-.374-.904-.458-2.07-.296-3.456.167-1.415.589-3.041 1.205-4.816 1.231-3.55 3.225-7.667 5.447-11.836 2.222-4.17 4.528-8.12 6.788-11.121 1.13-1.501 2.244-2.758 3.327-3.686 1.059-.907 2.075-1.488 3.033-1.682l3.448 1.838c.901.48 1.525 1.43 1.859 2.78.333 1.35.371 3.079.117 5.075-.508 3.99-2.174 9.005-4.884 14.09-2.711 5.087-5.944 9.266-8.974 11.912-1.516 1.324-2.972 2.257-4.279 2.733s-2.442.487-3.344.007h-.001v-.001h-.001l-.001-.001h-.001l-.001-.001h-.001l-.001-.001h-.001l-.001-.002h-.003l-.002-.002h-.001l-.002-.001-.001-.001-.002-.001-.002-.001-.002-.001-.002-.001-.002-.001-.002-.001-.002-.002h-.002l-.003-.002-.002-.001-.003-.002h-.002l-.003-.002-.002-.002-.003-.001-.003-.002-.003-.001-.003-.002-.003-.001-.003-.002-.003-.002-.003-.001-.003-.002-.003-.002-.004-.002-.003-.001-.004-.002-.003-.002-.004-.002-.004-.002-.003-.002-.004-.002-.004-.002-.004-.002-.004-.002-.004-.003-.004-.002-.005-.002-.004-.002-.004-.003-.004-.002-.005-.002-.004-.003-.005-.002-.005-.003-.004-.002-.005-.003-.005-.002-.005-.003-.004-.002-.005-.003-.005-.003-.006-.002-.005-.003-.005-.003-.005-.003-.005-.002-.006-.003-.005-.003-.006-.003-.005-.003-.006-.003-.005-.003-.006-.003-.006-.003-.005-.003-.006-.003-.006-.003-.006-.004-.006-.003-.006-.003-.006-.003-.006-.003-.006-.004-.007-.003-.006-.003-.006-.004-.007-.003-.006-.004-.006-.003-.007-.004-.007-.003-.006-.003-.007-.004-.006-.004-.007-.003-.007-.004-.007-.003-.007-.004-.007-.004-.007-.004-.007-.003-.007-.004-.007-.004-.007-.004-.007-.003-.007-.004-.008-.004-.007-.004-.007-.004-.008-.004-.007-.004-.008-.004-.007-.004-.008-.004-.007-.004-.008-.004-.008-.004-.007-.004-.008-.005-.008-.004-.008-.004-.008-.004-.008-.004-.008-.004-.008-.005-.008-.004-.008-.004-.008-.005-.008-.004-.008-.004-.008-.005-.009-.004-.008-.004-.008-.005-.008-.004-.009-.005-.008-.004-.009-.005-.008-.004-.009-.005-.008-.004-.009-.005-.008-.005-.009-.004-.009-.005-.008-.004-.009-.005-.009-.005-.009-.004-.008-.005-.009-.005-.009-.005-.009-.004-.009-.005-.009-.005-.009-.005-.009-.004-.009-.005-.009-.005-.009-.005-.009-.005-.009-.005-.009-.004-.01-.005-.009-.005-.009-.005-.009-.005-.01-.005-.009-.005-.009-.005-.01-.005-.009-.005-.009-.005-.01-.005-.009-.005-.01-.005-.009-.005-.01-.005-.009-.005-.01-.005-.009-.005-.01-.005-.009-.006-.01-.005-.01-.005-.009-.005-.01-.005-.01-.005-.009-.006-.01-.005-.01-.005-.01-.005-.01-.005-.009-.006-.01-.005-.01-.005-.01-.005-.01-.006-.01-.005-.009-.005-.01-.005-.01-.006-.01-.005-.01-.005-.01-.006-.01-.005-.01-.005-.01-.005-.01-.006-.01-.005-.01-.005-.01-.006-.01-.005-.01-.005-.01-.006-.01-.005-.01-.006-.01-.005-.01-.005-.01-.006-.011-.005-.01-.006-.01-.005-.01-.005-.01-.006-.01-.005-.01-.005-.011-.006-.01-.005-.01-.006-.01-.005-.01-.006-.01-.005-.011-.005-.01-.006-.01-.005-.01-.006-.01-.005-.01-.006-.011-.005-.01-.005-.01-.006-.01-.005-.01-.006-.011-.005-.01-.006-.01-.005-.01-.005-.01-.006-.011-.005-.01-.006-.01-.005-.01-.006-.01-.005-.01-.005-.011-.006-.01-.005-.01-.006-.01-.005-.01-.005-.01-.006-.011-.005-.01-.006-.01-.005-.01-.006-.01-.005-.01-.005-.01-.006-.011-.005-.01-.006-.01-.005-.01-.005-.01-.006-.01-.005-.01-.005-.01-.006-.01-.005-.01-.005-.01-.006-.01-.005-.01-.005-.01-.006-.01-.005-.01-.005-.01-.006-.01-.005-.01-.005-.01-.005-.01-.006-.01-.005-.009-.005-.01-.006-.01-.005-.01-.005-.01-.005-.01-.006-.009-.005-.01-.005-.01-.005-.01-.005-.009-.006-.01-.005-.01-.005-.009-.005-.01-.005-.01-.005-.009-.005-.01-.005-.009-.006-.01-.005-.01-.005-.009-.005-.01-.005-.009-.005-.009-.005-.01-.005-.009-.005-.01-.005-.009-.005-.009-.005-.01-.005-.009-.005-.009-.005-.01-.005-.009-.005-.009-.005-.009-.005-.009-.004-.009-.005-.009-.005-.01-.005-.009-.005-.009-.005-.009-.004-.009-.005-.008-.005-.009-.005-.009-.004-.009-.005-.009-.005-.009-.005-.008-.004-.009-.005-.009-.004-.009-.005-.008-.005-.009-.004-.008-.005-.009-.004-.008-.005-.009-.004-.008-.005-.009-.004-.008-.005-.009-.004-.008-.005-.008-.004-.008-.005-.009-.004-.008-.004-.008-.005-.008-.004-.008-.004-.008-.005-.008-.004-.008-.004-.008-.004-.008-.005-.008-.004-.008-.004-.007-.004-.008-.004-.008-.004-.007-.004-.008-.004-.008-.004-.007-.004-.008-.004-.007-.004-.008-.004-.007-.004-.007-.004-.008-.004-.007-.004-.007-.004-.007-.004-.007-.003-.007-.004-.007-.004-.007-.004-.007-.003-.007-.004-.007-.004-.007-.003-.007-.004-.006-.004-.007-.003-.007-.004-.006-.003-.007-.004-.006-.003-.007-.004-.006-.003-.007-.003-.006-.004-.006-.003-.006-.003-.006-.004-.006-.003-.007-.003-.006-.003-.005-.003-.006-.003-.006-.004-.006-.003-.006-.003-.005-.003-.006-.003-.006-.003-.005-.003-.006-.003-.005-.002-.005-.003-.006-.003-.005-.003-.005-.003-.005-.003-.005-.002-.005-.003-.005-.002-.005-.003-.005-.003-.005-.002-.005-.003-.004-.002-.005-.003-.005-.002-.004-.003-.005-.002-.004-.002-.004-.003-.005-.002-.004-.002-.004-.002-.004-.003-.004-.002-.004-.002-.004-.002-.004-.002-.004-.002-.003-.002-.004-.002-.004-.002-.003-.002-.004-.002-.003-.001-.003-.002-.004-.002-.003-.002-.003-.001-.003-.002-.003-.002z" fill="#0497EC" stroke-width=".4"/><path d="m122.582 44.692-3.25 2.538-2.66 1.43-2.956-1.576-1.527-1.289.553-2.077 5.871-12.054 9.976 5.317-1.945 2.76-1.945 2.759-2.117 2.192zM135.676 16.562l-5.838-3.112-2.018 2.72 7.593 4.047.215-1.784.048-1.871z" fill="#0F172A" stroke-width=".4"/><path d="M130.507 10.238c.901.48 1.525 1.429 1.859 2.78.333 1.35.371 3.078.117 5.075-.508 3.99-2.174 9.005-4.884 14.09-2.711 5.086-5.944 9.265-8.974 11.912-1.516 1.324-2.972 2.257-4.279 2.733-1.307.475-2.442.487-3.344.006-.901-.48-1.525-1.43-1.858-2.78-.334-1.35-.372-3.079-.118-5.075.508-3.99 2.174-9.005 4.885-14.09 2.71-5.087 5.944-9.265 8.973-11.912 1.516-1.324 2.972-2.257 4.279-2.733s2.442-.487 3.344-.006z" fill="url(#i)" stroke-width=".4"/><path d="M128.854 13.15c.627.334 1.022 1.07 1.178 2.156.156 1.084.07 2.492-.244 4.133-.628 3.279-2.162 7.46-4.456 11.765-2.294 4.305-4.91 7.91-7.282 10.26-1.187 1.175-2.309 2.031-3.295 2.506-.988.476-1.82.559-2.447.225-.627-.334-1.022-1.071-1.178-2.157-.156-1.083-.07-2.492.244-4.132.628-3.28 2.162-7.462 4.456-11.766 2.294-4.305 4.91-7.91 7.282-10.26 1.187-1.174 2.309-2.031 3.295-2.506.988-.476 1.82-.559 2.447-.225z" fill="#0F172A" stroke-width=".2"/><path d="M129.319 13.397c.558.298.895.997.996 2.056.101 1.054-.034 2.437-.39 4.056-.712 3.235-2.298 7.39-4.593 11.695-2.294 4.306-4.859 7.94-7.148 10.334-1.145 1.198-2.217 2.082-3.149 2.586-.935.506-1.703.616-2.262.319-.558-.298-.895-.997-.996-2.056-.101-1.054.035-2.437.391-4.055.711-3.236 2.298-7.391 4.592-11.696 2.294-4.305 4.859-7.94 7.148-10.334 1.145-1.198 2.218-2.082 3.149-2.586.936-.506 1.704-.616 2.262-.319z" fill="#FFDE76" stroke-width=".2"/><path d="M44.687 64.398c-.843.497-1.986.744-3.38.777-1.425.034-3.095-.157-4.938-.517-3.687-.722-8.043-2.12-12.483-3.735-4.44-1.616-8.675-3.345-11.963-5.163-1.644-.908-3.045-1.836-4.115-2.777-1.047-.922-1.764-1.846-2.09-2.768l1.336-3.671c.35-.96 1.202-1.71 2.492-2.23s2.997-.8 5.009-.828c4.022-.056 9.22.89 14.636 2.862 5.416 1.97 10.006 4.587 13.051 7.216 1.524 1.315 2.652 2.626 3.306 3.853.654 1.227.825 2.35.475 3.31v.003h-.001v.002l-.001.002v.001l-.001.001v.002l-.001.001v.001l-.001.002v.002l-.001.001-.001.002v.002l-.001.002-.001.002v.002l-.002.002v.002l-.001.003-.001.002-.001.002-.001.003-.001.003-.001.002-.001.003-.001.003-.001.003-.001.003-.001.003-.001.003-.002.003v.003l-.002.004-.001.003-.001.004-.002.003-.001.004-.001.003-.002.004-.001.004-.002.004v.004l-.002.004-.002.004-.001.004-.002.004-.002.004-.001.005-.002.004-.001.005-.002.004-.002.005-.001.004-.002.005-.002.005-.002.005-.001.005-.002.005-.002.005-.002.005-.002.005-.002.005-.002.005-.001.006-.002.005-.002.006-.002.005-.002.006-.002.005-.002.006-.003.006-.002.006-.002.005-.002.006-.002.006-.002.006-.003.006-.002.007-.002.006-.002.006-.003.006-.002.007-.002.006-.003.007-.002.006-.003.007-.002.006-.002.007-.003.007-.002.006-.003.007-.002.007-.003.007-.002.007-.003.007-.002.007-.003.007-.003.008-.002.007-.003.007-.003.007-.002.008-.003.007-.003.008-.002.007-.003.008-.003.007-.003.008-.003.008-.002.008-.003.007-.003.008-.003.008-.003.008-.003.008-.003.008-.003.008-.002.008-.004.008-.002.008-.003.009-.004.008-.002.008-.004.008-.003.009-.003.008-.003.009-.003.008-.003.009-.003.008-.003.01-.003.008-.004.008-.003.01-.003.008-.003.009-.003.009-.003.008-.004.01-.003.008-.003.01-.004.008-.003.01-.003.009-.004.009-.003.009-.003.009-.003.01-.004.008-.003.01-.004.009-.003.01-.004.009-.003.01-.003.009-.004.01-.003.009-.004.01-.003.009-.004.01-.003.009-.004.01-.003.01-.004.009-.003.01-.004.01-.003.01-.004.009-.004.01-.003.01-.004.01-.003.01-.004.01-.004.01-.003.01-.004.01-.004.01-.003.01-.004.01-.003.01-.004.01-.004.01-.004.01-.003.01-.004.01-.004.01-.004.01-.003.011-.004.01-.004.01-.004.011-.003.01-.004.01-.004.011-.004.01-.003.011-.004.01-.004.01-.004.011-.004.01-.003.011-.004.01-.004.011-.004.01-.004.011-.004.011-.003.01-.004.011-.004.01-.004.011-.004.011-.004.01-.004.011-.004.011-.003.01-.004.011-.004.011-.004.01-.004.011-.004.011-.004.01-.004.012-.004.01-.003.011-.004.01-.004.012-.004.01-.004.011-.004.011-.004.01-.004.012-.004.01-.004.011-.004.011-.004.01-.004.012-.004.01-.004.011-.004.011-.004.011-.003.011-.004.01-.004.012-.004.01-.004.011-.004.011-.004.011-.004.011-.004.01-.004.012-.004.01-.004.011-.004.011-.004.011-.004.01-.004.012-.004.01-.004.011-.004.011-.003.011-.004.01-.004.012-.004.01-.004.011-.004.011-.004.011-.004.01-.004.012-.004.01-.004.011-.004.01-.004.012-.004.01-.003.011-.004.01-.004.012-.004.01-.004.011-.004.01-.004.011-.004.011-.004.01-.003.011-.004.011-.004.01-.004.011-.004.011-.004.01-.004.011-.003.01-.004.011-.004.01-.004.011-.004.01-.004.011-.004.01-.003.011-.004.01-.004.011-.004.01-.004.011-.003.01-.004.01-.004.011-.004.01-.003.01-.004.011-.004.01-.004.01-.003.01-.004.011-.004.01-.003.01-.004.01-.004.01-.003.01-.004.01-.004.01-.003.011-.004.01-.004.01-.003.01-.004.01-.004.01-.003.01-.004.01-.003.01-.004.01-.004.009-.003.01-.004.01-.003.01-.004.009-.003.01-.004.01-.003.009-.004.01-.003.009-.004.01-.003.009-.004.01-.003.009-.003.01-.004.009-.003.009-.003.01-.004.008-.003.01-.004.009-.003.01-.003.008-.004.01-.003.008-.003.01-.003.008-.004.01-.003.008-.003.01-.003.008-.004.009-.003.009-.003.008-.003.01-.003.008-.003.008-.004.009-.003.009-.003.008-.003.009-.003.008-.003.008-.003.009-.003.008-.003.008-.003.009-.003.008-.003.008-.003.008-.003.008-.003.008-.003.008-.003.008-.002.008-.003.008-.003.008-.003.007-.003.008-.003.008-.002.008-.003.007-.003.008-.003.007-.002.008-.003.007-.003.007-.002.008-.003.007-.003.007-.002.007-.003.007-.002.007-.003.007-.002.007-.003.007-.003.007-.002.007-.002.007-.003.006-.002.007-.003.007-.002.006-.002.007-.003.006-.002.006-.002.007-.003.006-.002.006-.002.006-.002.007-.003.005-.002.007-.002.006-.002.005-.002.006-.002.006-.002.006-.002.005-.003.006-.002.005-.002.006-.002.005-.001.006-.002.005-.002.005-.002.005-.002.005-.002.006-.002.005-.002.005-.001.004-.002.005-.002.005-.001.005-.002.004-.002.005-.001.004-.002.005-.002.004-.001.004-.002.005-.001.004-.002.004-.001.004-.002.004-.001.004-.001.004-.002.003-.001.004-.001.004-.002.003-.001.004-.001.003-.002.003v.004l-.002.003z" fill="#0497EC" stroke-width=".4"/><path d="m41.134 52.71 2.968 2.862 1.788 2.433-1.146 3.148-1.061 1.693-2.135-.257-12.757-4.124 3.866-10.623 3.005 1.54 3.004 1.538 2.468 1.79zM11.446 43.687l-2.263 6.216 2.976 1.618 2.943-8.086-1.796.037-1.86.215z" fill="#0F172A" stroke-width=".4"/><path d="M5.909 49.691c.349-.96 1.201-1.71 2.491-2.23s2.997-.798 5.01-.827c4.022-.056 9.22.89 14.636 2.861 5.415 1.972 10.006 4.587 13.05 7.216 1.524 1.315 2.652 2.626 3.306 3.854.654 1.227.825 2.35.476 3.31-.35.96-1.202 1.71-2.492 2.23s-2.997.799-5.01.827c-4.022.057-9.22-.89-14.635-2.861-5.416-1.971-10.007-4.587-13.052-7.216C8.166 55.54 7.04 54.229 6.384 53c-.654-1.227-.825-2.35-.475-3.31z" fill="url(#j)" stroke-width=".4"/><path d="M8.795 51.461c.25-.666.919-1.158 1.955-1.461 1.034-.303 2.413-.413 4.045-.329 3.263.168 7.512 1.106 11.972 2.778s8.278 3.758 10.847 5.777c1.285 1.01 2.253 2 2.832 2.907.581.91.763 1.72.513 2.387-.25.666-.92 1.157-1.955 1.46-1.034.304-2.413.413-4.045.33-3.263-.168-7.512-1.106-11.972-2.779-4.46-1.672-8.279-3.758-10.848-5.777-1.284-1.01-2.252-1.999-2.832-2.907-.58-.91-.762-1.72-.512-2.386z" fill="#0F172A" stroke-width=".2"/><path d="M8.999 51.067c.222-.593.859-1.023 1.868-1.272 1.005-.247 2.356-.307 3.96-.183 3.206.247 7.402 1.228 11.826 2.887 4.423 1.658 8.23 3.677 10.81 5.599 1.289.96 2.267 1.894 2.862 2.741.597.851.794 1.593.572 2.187-.223.594-.86 1.024-1.869 1.272-1.005.247-2.355.308-3.96.184-3.206-.248-7.402-1.229-11.825-2.888-4.424-1.658-8.231-3.677-10.81-5.598-1.29-.961-2.268-1.895-2.863-2.742-.597-.85-.794-1.593-.571-2.187z" fill="#FFDE76" stroke-width=".2"/><path d="M85.942 41.7h-.001c-2.162-1.286-4.207-4.1-5.713-7.789-1.514-3.707-2.47-8.268-2.458-12.969.013-4.7.996-9.256 2.53-12.955 1.526-3.68 3.587-6.483 5.756-7.757l2.458.007c2.894.008 5.557 2.275 7.504 6.045 1.942 3.76 3.14 8.964 3.125 14.72-.016 5.755-1.244 10.953-3.207 14.702-1.968 3.759-4.644 6.011-7.537 6.003H88.092l-.005-.001H87.735l-.006-.001H87.373l-.007-.001H87.02l-.007-.001H86.656l-.007-.001H86.299l-.005-.001H85.942z" fill="#0497EC" stroke-width=".4"/><path d="m98.913 24.77-.428 3.348-.846 3.347-1.265 2.927-.843 2.092-1.26 1.67-2.52 2.506-2.093-.006-1.953-.424-.483-2.095-.45-13.4 12.141.034zM93.948 3.402l-5.778-.016-.511 3.348 8.604.024L95.2 5.08l-1.252-1.678z" fill="#0F172A" stroke-width=".4"/><path d="M86.002.23c2.894.008 5.556 2.275 7.503 6.045 1.942 3.76 3.141 8.964 3.125 14.72-.016 5.755-1.244 10.953-3.206 14.702-1.968 3.759-4.644 6.011-7.537 6.003-2.894-.008-5.557-2.275-7.504-6.045-1.942-3.76-3.14-8.964-3.125-14.72.016-5.755 1.244-10.953 3.207-14.702C80.433 2.474 83.108.223 86.002.23z" fill="url(#k)" stroke-width=".4"/><path d="M85.497 4.633c2.17.006 4.16 1.895 5.61 5.018 1.447 3.114 2.338 7.42 2.325 12.18-.013 4.758-.928 9.06-2.392 12.165-1.468 3.115-3.469 4.993-5.639 4.987-2.17-.006-4.16-1.896-5.61-5.018-1.447-3.114-2.338-7.42-2.325-12.18.014-4.759.928-9.06 2.392-12.166 1.468-3.114 3.469-4.992 5.639-4.986z" fill="#0F172A" stroke-width=".2"/><path d="M86.2 4.123c2.104.006 4.037 1.878 5.446 4.975 1.405 3.089 2.27 7.36 2.256 12.08-.013 4.72-.902 8.986-2.324 12.067-1.426 3.089-3.369 4.95-5.474 4.944-2.105-.006-4.038-1.878-5.447-4.975-1.404-3.088-2.27-7.36-2.256-12.08.013-4.72.902-8.985 2.324-12.066 1.426-3.09 3.37-4.95 5.474-4.945z" fill="#FFDE76" stroke-width=".2"/><path d="M59.304 47.43c-2.516.057-5.743-1.243-8.976-3.57-3.25-2.339-6.482-5.697-8.965-9.688-2.484-3.992-4.069-8.374-4.731-12.323-.659-3.93-.4-7.399.763-9.63l2.086-1.298c2.457-1.529 5.917-1.02 9.568 1.142 3.641 2.156 7.42 5.93 10.46 10.818 3.04 4.886 4.758 9.943 5.084 14.163.326 4.23-.746 7.559-3.203 9.087h-.001v.001h-.001v.001h-.002v.001h-.001l-.001.001h-.001v.001h-.002v.001l-.002.001h-.001l-.001.002h-.001l-.002.001h-.001l-.001.002h-.002l-.001.001-.002.001-.001.001-.002.001-.001.001-.002.001-.001.001-.002.001-.002.001-.002.001-.001.002h-.002l-.002.002-.002.001-.002.001-.002.002h-.002l-.002.002-.002.001-.002.002-.003.001-.002.001-.002.002-.002.001-.003.002-.002.001-.002.002-.003.001-.002.002-.003.001-.002.002-.003.002-.003.001-.002.002-.003.002-.003.001-.003.002-.002.002-.003.002-.003.001-.003.002-.003.002-.003.002-.003.002-.003.002-.003.002-.003.001-.003.002-.004.002-.003.002-.003.002-.003.002-.004.002-.003.002-.003.003-.004.002-.003.002-.004.002-.003.002-.004.002-.003.003-.004.002-.003.002-.004.002-.004.003-.003.002-.004.002-.004.003-.004.002-.004.002-.003.003-.004.002-.004.003-.004.002-.004.002-.004.003-.004.003-.004.002-.004.003-.004.002-.004.003-.005.002-.004.003-.004.002-.004.003-.004.003-.005.002-.004.003-.004.003-.005.003-.004.002-.004.003-.005.003-.004.002-.005.003-.004.003-.005.003-.005.003-.004.003-.005.002-.004.003-.005.003-.005.003-.004.003-.005.003-.005.003-.005.003-.004.003-.005.003-.005.003-.005.003-.005.003-.005.003-.005.003-.005.003-.005.003-.004.003-.005.004-.005.003-.005.003-.006.003-.005.003-.005.003-.005.003-.005.004-.005.003-.005.003-.006.003-.005.004-.005.003-.005.003-.005.003-.006.004-.005.003-.005.003-.006.004-.005.003-.005.003-.006.004-.005.003-.006.003-.005.004-.006.003-.005.003-.005.004-.006.003-.005.004-.006.003-.006.004-.005.003-.006.003-.005.004-.006.003-.005.004-.006.003-.006.004-.005.003-.006.004-.006.004-.005.003-.006.004-.006.003-.005.004-.006.003-.006.004-.006.003-.005.004-.006.004-.006.003-.006.004-.006.003-.006.004-.005.004-.006.003-.006.004-.006.004-.006.003-.006.004-.005.004-.006.003-.006.004-.006.004-.006.003-.006.004-.006.004-.006.003-.006.004-.006.004-.006.004-.006.003-.006.004-.006.004-.006.003-.006.004-.006.004-.006.004-.006.004-.006.003-.006.004-.006.004-.006.004-.006.003-.006.004-.006.004-.006.004-.007.003-.006.004-.006.004-.006.004-.006.004-.006.003-.006.004-.006.004-.006.004-.006.004-.007.003-.006.004-.006.004-.006.004-.006.004-.006.003-.006.004-.006.004-.007.004-.006.004-.006.003-.006.004-.006.004-.006.004-.006.004-.006.004-.007.003-.006.004-.006.004-.006.004-.006.004-.006.003-.006.004-.006.004-.007.004-.006.004-.006.003-.006.004-.006.004-.006.004-.006.004-.006.003-.006.004-.007.004-.006.004-.006.004-.006.004-.006.003-.006.004-.006.004-.006.004-.006.003-.006.004-.006.004-.006.004-.006.004-.007.003-.006.004-.006.004-.006.004-.006.003-.006.004-.006.004-.006.003-.006.004-.006.004-.006.004-.006.003-.006.004-.005.004-.007.003-.005.004-.006.004-.006.004-.006.003-.006.004-.006.003-.006.004-.006.004-.006.004-.005.003-.006.004-.006.003-.006.004-.006.004-.006.003-.005.004-.006.003-.006.004-.006.004-.005.003-.006.004-.006.003-.005.004-.006.003-.006.004-.006.004-.005.003-.006.003-.005.004-.006.004-.006.003-.005.003-.006.004-.005.003-.006.004-.006.003-.005.004-.006.003-.005.004-.005.003-.006.003-.005.004-.006.003-.005.003-.006.004-.005.003-.005.004-.006.003-.005.003-.005.003-.006.004-.005.003-.005.003-.005.004-.006.003-.005.003-.005.003-.005.003-.005.004-.006.003-.005.003-.005.003-.005.003-.005.004-.005.003-.005.003-.005.003-.005.003-.005.003-.005.003-.005.003-.005.003-.004.003-.005.003-.005.003-.005.003-.005.003-.004.003-.005.003-.005.003-.005.003-.004.003-.005.003-.004.003-.005.002-.005.003-.004.003-.005.003-.004.003-.005.003-.004.002-.005.003-.004.003-.004.003-.005.002-.004.003-.004.003-.005.002-.004.003-.004.003-.004.002-.004.003-.005.002-.004.003-.004.002-.004.003-.004.003-.004.002-.004.002-.004.003-.004.002-.004.003-.004.002-.003.003-.004.002-.004.002-.004.003-.003.002-.004.002-.004.003-.003.002-.004.002-.004.002-.003.003-.004.002-.003.002-.004.002-.003.002-.003.002-.004.002-.003.002-.003.002-.004.002-.003.003-.003.002-.003.001-.003.002-.003.002-.004.002-.002.002-.004.002-.002.002-.003.002-.003.002-.003.001-.003.002-.003.002-.003.001-.002.002-.003.002-.003.002-.002.001-.003.002-.002.001-.003.002-.002.001-.003.002-.002.001-.003.002-.002.001-.002.002-.002.001-.003.002h-.002l-.002.002-.002.002h-.002l-.002.002-.002.001z" fill="#0497EC" stroke-width=".4"/><path d="m61.314 26.196 1.414 3.065 1.059 3.286.482 3.152.395 2.22-.182 2.086-.806 3.46-1.777 1.106-1.88.677-1.521-1.52-7.493-11.118 10.309-6.414zM45.767 10.72l-4.906 3.052 1.343 3.11 7.305-4.546-1.79-.858-1.952-.758z" fill="#0F172A" stroke-width=".4"/><path d="M37.348 12.248c2.457-1.529 5.917-1.02 9.568 1.142 3.641 2.156 7.42 5.93 10.46 10.818 3.04 4.887 4.758 9.944 5.084 14.163.326 4.23-.746 7.559-3.203 9.087-2.457 1.53-5.917 1.02-9.568-1.141-3.64-2.157-7.419-5.931-10.46-10.818-3.04-4.887-4.757-9.944-5.083-14.163-.327-4.23.745-7.56 3.202-9.088z" fill="url(#l)" stroke-width=".4"/><path d="M39.019 15.834c1.88-1.17 4.605-.645 7.514 1.216 2.903 1.857 5.958 5.024 8.472 9.065 2.514 4.04 4.006 8.18 4.39 11.605.384 3.433-.348 6.109-2.23 7.279-1.88 1.17-4.604.645-7.514-1.217-2.902-1.856-5.957-5.024-8.472-9.064-2.514-4.041-4.006-8.181-4.389-11.606-.384-3.432.348-6.108 2.229-7.278z" fill="#0F172A" stroke-width=".2"/><path d="M39.5 15.302c1.815-1.13 4.472-.582 7.326 1.284 2.847 1.861 5.858 5.015 8.35 9.023 2.494 4.007 3.994 8.101 4.406 11.478.413 3.385-.27 6.01-2.085 7.139-1.815 1.129-4.47.582-7.325-1.284-2.847-1.862-5.858-5.016-8.351-9.023-2.494-4.008-3.993-8.102-4.405-11.478-.413-3.386.27-6.01 2.085-7.14z" fill="#FFDE76" stroke-width=".2"/><path d="m122.812 60.058-.001-.002c.43-.655 1.242-1.299 2.384-1.942 1.181-.666 2.69-1.317 4.431-1.975 2.33-.88 5.059-1.763 7.955-2.7 1.435-.465 2.911-.943 4.4-1.44a487.782 487.782 0 0 0 4.382-1.494c2.878-.99 5.591-1.925 7.982-2.622 1.786-.52 3.384-.907 4.728-1.084 1.299-.172 2.335-.146 3.072.12l1.133 3.391c.198.594-.071 1.37-.864 2.302-.784.92-2.037 1.94-3.673 2.994-3.269 2.106-8.028 4.325-13.5 6.153-5.472 1.828-10.609 2.914-14.488 3.195-1.941.14-3.555.079-4.735-.186-1.194-.268-1.876-.727-2.074-1.32v-.001l-.001-.001v-.002l-.001-.001v-.002l-.001-.001v-.002l-.001-.002v-.001l-.001-.001v-.002l-.001-.002v-.001l-.001-.002v-.002l-.001-.002-.001-.001v-.002l-.001-.003-.001-.002v-.002l-.001-.002-.001-.003-.001-.002-.001-.002-.001-.003v-.003l-.001-.002-.001-.003-.001-.003-.001-.003-.001-.003-.001-.003-.001-.003-.001-.003-.001-.003-.001-.004-.002-.003-.001-.003-.001-.004-.001-.003-.001-.004-.001-.004-.002-.003-.001-.004-.001-.004-.002-.004-.001-.004-.001-.004-.002-.004-.001-.004-.001-.004-.002-.005-.001-.004-.002-.004-.001-.005-.002-.004-.001-.005-.002-.004-.001-.005-.002-.005-.002-.005-.001-.005-.002-.005-.001-.005-.002-.005-.002-.005-.002-.005-.001-.005-.002-.005-.002-.006-.002-.005-.001-.005-.002-.006-.002-.005-.002-.006-.002-.005-.002-.006-.002-.006-.002-.006-.002-.006-.002-.006-.001-.005-.002-.006-.003-.006-.002-.006-.002-.007-.002-.006-.002-.006-.002-.006-.002-.007-.002-.006-.002-.007-.002-.006-.003-.007-.002-.006-.002-.007-.002-.006-.002-.007-.003-.007-.002-.007-.002-.006-.003-.007-.002-.007-.002-.007-.003-.007-.002-.007-.002-.007-.003-.008-.002-.007-.002-.007-.003-.007-.002-.008-.003-.007-.002-.007-.003-.008-.002-.007-.003-.008-.002-.007-.003-.008-.002-.008-.003-.007-.003-.008-.002-.008-.003-.008-.002-.007-.003-.008-.003-.008-.002-.008-.003-.008-.003-.008-.002-.008-.003-.008-.003-.008-.002-.008-.003-.009-.003-.008-.003-.008-.002-.008-.003-.009-.003-.008-.003-.009-.003-.008-.002-.008-.003-.009-.003-.008-.003-.009-.003-.009-.003-.008-.003-.009-.003-.008-.002-.01-.003-.008-.003-.009-.003-.008-.003-.01-.003-.008-.003-.009-.003-.009-.003-.009-.003-.009-.003-.009-.003-.009-.003-.009-.003-.009-.003-.009-.003-.01-.003-.008-.003-.01-.003-.009-.003-.009-.004-.009-.003-.01-.003-.009-.003-.009-.003-.01-.003-.009-.003-.009-.003-.01-.003-.009-.004-.01-.003-.009-.003-.01-.003-.009-.003-.01-.003-.009-.004-.01-.003-.009-.003-.01-.003-.009-.003-.01-.004-.01-.003-.009-.003-.01-.003-.01-.004-.009-.003-.01-.003-.01-.003-.01-.004-.009-.003-.01-.003-.01-.003-.01-.004-.01-.003-.009-.003-.01-.004-.01-.003-.01-.003-.01-.004-.01-.003-.01-.003-.01-.003-.01-.004-.01-.003-.01-.003-.009-.004-.01-.003-.01-.003-.01-.004-.01-.003-.01-.003-.01-.004-.01-.003-.01-.004-.01-.003-.01-.003-.01-.004-.01-.003-.01-.003-.01-.004-.01-.003-.01-.003-.01-.004-.01-.003-.011-.004-.01-.003-.01-.003-.01-.004-.01-.003-.01-.004-.01-.003-.01-.003-.01-.004-.011-.003-.01-.003-.01-.004-.01-.003-.01-.004-.01-.003-.01-.003-.011-.004-.01-.003-.01-.003-.01-.004-.01-.003-.01-.004-.01-.003-.01-.003-.011-.004-.01-.003-.01-.004-.01-.003-.01-.003-.01-.004-.01-.003-.01-.003-.01-.004-.01-.003-.011-.003-.01-.004-.01-.003-.01-.004-.01-.003-.01-.003-.01-.004-.01-.003-.01-.003-.01-.004-.01-.003-.01-.003-.01-.004-.01-.003-.01-.003-.01-.004-.01-.003-.01-.003-.01-.004-.01-.003-.01-.003-.01-.003-.01-.004-.01-.003-.01-.003-.009-.004-.01-.003-.01-.003-.01-.003-.01-.004-.009-.003-.01-.003-.01-.003-.009-.004-.01-.003-.01-.003-.009-.003-.01-.003-.01-.004-.009-.003-.01-.003-.009-.003-.01-.003-.01-.004-.009-.003-.009-.003-.01-.003-.009-.003-.01-.003-.009-.004-.01-.003-.009-.003-.009-.003-.01-.003-.008-.003-.01-.003-.009-.003-.01-.003-.008-.003-.01-.003-.009-.003-.009-.004-.009-.003-.01-.003-.008-.003-.01-.003-.008-.003-.01-.003-.008-.003-.009-.003-.009-.002-.009-.003-.009-.003-.008-.003-.01-.003-.008-.003-.009-.003-.008-.003-.009-.003-.009-.003-.008-.003-.009-.002-.008-.003-.009-.003-.008-.003-.009-.003-.008-.003-.009-.002-.008-.003-.008-.003-.008-.003-.009-.002-.008-.003-.008-.003-.008-.003-.008-.002-.008-.003-.009-.003-.008-.002-.008-.003-.007-.003-.008-.002-.008-.003-.008-.002-.008-.003-.008-.003-.007-.002-.008-.003-.008-.002-.007-.003-.008-.002-.007-.003-.008-.002-.007-.003-.007-.002-.008-.003-.007-.002-.007-.002-.008-.003-.007-.002-.007-.002-.007-.003-.007-.002-.007-.003-.007-.002-.007-.002-.007-.002-.007-.003-.006-.002-.007-.002-.007-.002-.007-.003-.006-.002-.007-.002-.006-.002-.007-.002-.006-.002-.006-.002-.007-.003-.006-.002-.006-.002-.006-.002-.006-.002-.006-.002-.006-.002-.006-.002-.006-.002-.006-.002-.006-.002-.006-.001-.006-.002-.005-.002-.006-.002-.005-.002-.006-.002-.005-.002-.006-.001-.005-.002-.005-.002-.006-.002-.005-.001-.005-.002-.005-.002-.005-.001-.005-.002-.005-.002-.005-.001-.005-.002-.004-.001-.005-.002-.005-.001-.004-.002-.005-.001-.004-.002-.004-.001-.005-.002-.004-.001-.004-.001-.004-.002-.004-.001-.004-.002-.004-.001-.004-.001-.004-.001-.004-.002-.004-.001-.003-.001-.004z" fill="#0497EC" stroke-width=".4"/><path d="m131.73 64.923-4.369.135-1.986-.66-1.725-5.163 1.853-1.06 12.973-4.775 3.184 9.531-3.707.797-6.223 1.195zM161.118 53.784l-2.255-6.752-2.913.532 2.653 7.942 2.515-1.722z" fill="#0F172A" stroke-width=".4"/><path d="M162.217 47.133c.198.593-.071 1.37-.864 2.302-.784.92-2.037 1.94-3.673 2.994-3.27 2.106-8.028 4.325-13.5 6.153-5.472 1.828-10.609 2.913-14.488 3.195-1.941.14-3.555.079-4.735-.186-1.195-.268-1.876-.727-2.074-1.32-.198-.594.07-1.37.864-2.302.784-.921 2.037-1.94 3.673-2.994 3.269-2.107 8.028-4.326 13.5-6.153 5.472-1.828 10.609-2.914 14.488-3.195 1.941-.141 3.555-.08 4.735.186 1.194.268 1.876.727 2.074 1.32z" fill="url(#m)" stroke-width=".4"/><path d="M158.121 48.248c.06.178.029.393-.107.65-.136.258-.374.547-.708.861-.669.628-1.709 1.343-3.044 2.098-2.669 1.51-6.502 3.174-10.865 4.631-4.364 1.458-8.427 2.431-11.468 2.829-1.521.198-2.781.252-3.693.151-.457-.05-.82-.138-1.084-.262-.264-.123-.417-.277-.476-.455-.06-.177-.03-.393.107-.65.136-.258.374-.546.708-.86.669-.629 1.708-1.343 3.044-2.099 2.669-1.51 6.502-3.173 10.865-4.63 4.364-1.458 8.427-2.432 11.468-2.829 1.521-.199 2.781-.252 3.693-.152.457.05.82.138 1.084.262.264.124.417.278.476.455z" fill="#0F172A" stroke-width=".2"/><path d="M158.332 48.82c.046.138.012.318-.135.547-.147.228-.394.488-.74.775-.689.572-1.748 1.237-3.099 1.95-2.702 1.426-6.558 3.038-10.928 4.497-4.369 1.46-8.42 2.488-11.437 2.973-1.509.242-2.754.347-3.649.303-.449-.022-.803-.08-1.057-.175-.255-.094-.391-.217-.437-.355-.046-.138-.012-.318.136-.547.146-.228.394-.488.739-.775.689-.573 1.748-1.237 3.1-1.95 2.702-1.426 6.558-3.038 10.927-4.498 4.37-1.46 8.421-2.488 11.437-2.972 1.509-.243 2.754-.348 3.65-.304.448.022.802.08 1.056.175.256.095.391.218.437.356z" fill="#FFDF77" stroke-width=".2"/><path d="M1.774 87.007v.004c.632.376 1.613.592 2.9.684 1.338.095 2.977.055 4.835-.054 1.583-.094 3.32-.238 5.16-.39l.964-.08c2.197-.18 4.521-.363 6.886-.478 2.364-.116 4.695-.161 6.899-.196l.968-.015c1.845-.028 3.588-.054 5.172-.116 1.86-.072 3.495-.192 4.818-.418 1.272-.216 2.227-.527 2.819-.963l-.18-3.682c-.013-.25-.14-.507-.41-.768-.27-.263-.673-.519-1.204-.761-1.062-.486-2.598-.9-4.503-1.22-3.806-.64-9.044-.898-14.808-.616-5.764.282-10.951 1.049-14.677 2.057-1.865.505-3.353 1.068-4.362 1.654-.505.294-.88.588-1.124.875-.243.287-.345.555-.333.805v.014l.001.001V83.362l.001.003V83.383l.001.003v.016l.001.004V83.424l.001.004v.016l.001.004v.017l.001.004v.014l.001.005v.015l.001.005v.015l.001.005v.017l.001.005v.017l.001.006v.012l.001.006V83.609l.001.006v.012l.001.007v.012l.001.007V83.666l.001.007V83.686l.001.007v.014l.001.007v.014l.001.007v.014l.001.008v.014l.001.008v.007l.001.008v.015l.001.008v.015l.001.008v.008l.001.008v.016l.001.008v.008l.001.008v.016l.001.009v.008l.001.008v.017l.001.009v.008l.001.009v.017l.001.008v.01l.001.008v.009l.001.009V84.059l.001.008v.01l.001.008v.01l.001.008v.01l.001.009v.019l.001.008v.01l.001.01v.008l.001.01v.01l.001.009v.01l.001.009v.01l.001.009v.02l.001.009v.01l.001.01v.01l.001.009v.01l.001.01v.01l.001.01v.01l.001.01v.01l.001.01v.01l.001.01v.01l.001.01v.01l.001.01v.01l.001.01v.01l.001.01v.011l.001.01v.01l.001.011v.01l.001.01v.011l.001.01v.011l.001.01v.011l.001.01v.011l.001.01v.011l.001.01v.011l.001.011v.01l.001.011v.011l.001.01.001.011v.011l.001.01v.012l.001.01v.011l.001.01v.012l.001.01v.011l.001.011v.011l.001.01v.012l.001.01v.011l.001.011.001.011v.011l.001.011v.011l.001.011v.011l.001.01v.012l.001.01v.012l.001.01v.012l.001.01v.012l.001.01.001.012v.01l.001.012v.01l.001.012v.01l.001.012v.01l.001.012v.011l.001.011v.011l.001.011.001.011v.011l.001.011v.011l.001.011v.011l.001.011v.011l.001.011v.011l.001.011.001.011v.012l.001.01v.011l.001.011v.011l.001.011v.011l.001.011v.011l.001.011v.011l.001.011v.011l.001.011.001.011v.011l.001.01v.012l.001.01v.011l.001.011v.011l.001.011v.01l.001.012v.01l.001.011v.011l.001.01.001.012v.01l.001.011v.01l.001.012v.01l.001.01v.012l.001.01v.01l.001.011v.011l.001.01v.011l.001.01v.011l.001.01v.011l.001.01v.011l.001.01v.01l.001.011v.01l.001.011v.01l.001.01v.01l.001.011v.01l.001.01V86l.001.01v.011l.001.01v.01l.001.01v.01l.001.01v.01l.001.01v.01l.001.01v.01l.001.01v.01l.001.01v.009l.001.01v.01l.001.01v.009l.001.01v.019l.001.009v.01l.001.009v.01l.001.009v.009l.001.01v.008l.001.01v.009l.001.01V86.347l.001.008v.01l.001.008v.01l.001.008V86.41l.001.009v.009l.001.008v.009l.001.009v.017l.001.008v.009l.001.008v.009l.001.008v.016l.001.009v.008l.001.008v.016l.001.008v.016l.001.008v.008l.001.008v.015l.001.008v.015l.001.007v.008l.001.007v.015l.001.007v.014l.001.007v.014l.001.007v.014l.001.007V86.776l.001.007V86.796l.001.006V86.815l.001.006V86.834l.001.006V86.858l.001.006v.011l.001.006v.017l.001.005v.016l.001.005v.016l.001.005V86.959l.001.005V86.982l.001.005v.012l.001.004v.004z" fill="#0497EC" stroke-width=".4"/><path d="M8.754 79.543 4.63 80.898l-2.04 1.148.245 5.018 2.532.33 13.4-.27-.43-8.818-3.346.164-6.236 1.073zM39.329 78.991l.327 6.691-2.489.541-.368-7.527 2.53.295z" fill="#0F172A" stroke-width=".4"/><path d="M43.2 85.09c-.01-.216-.13-.445-.4-.682-.268-.239-.669-.47-1.2-.69-1.06-.44-2.595-.813-4.499-1.098-3.804-.57-9.041-.782-14.806-.5-5.765.282-10.956 1.005-14.687 1.943-1.867.469-3.358.99-4.37 1.53-.507.271-.884.542-1.128.805-.244.263-.341.502-.33.718.01.216.13.444.398.682.269.238.67.47 1.201.69 1.06.44 2.595.812 4.5 1.097 3.804.57 9.04.782 14.805.5 5.765-.282 10.956-1.005 14.687-1.942 1.867-.47 3.358-.99 4.37-1.531.508-.271.884-.541 1.128-.804.244-.263.341-.502.33-.718z" fill="url(#n)" stroke-width=".4"/><path d="M38.369 85.713c-.01-.156-.113-.32-.336-.486-.222-.165-.55-.324-.977-.47-.855-.295-2.086-.537-3.607-.714-3.04-.355-7.216-.45-11.81-.2-4.593.248-8.729.795-11.7 1.476-1.487.34-2.678.714-3.488 1.098-.406.192-.711.385-.91.574-.2.189-.28.362-.27.518.01.156.113.319.336.485.222.166.55.324.977.471.855.294 2.086.536 3.607.713 3.04.355 7.216.45 11.81.201 4.593-.25 8.729-.796 11.7-1.477 1.487-.34 2.678-.713 3.488-1.098.406-.192.71-.385.91-.573.2-.19.28-.363.27-.518z" fill="#0F172A" stroke-width=".2"/><path d="M38.528 85.365c-.007-.113-.096-.243-.319-.382-.22-.137-.545-.268-.971-.389-.852-.242-2.08-.44-3.6-.584-3.035-.289-7.214-.36-11.815-.146-4.602.214-8.75.673-11.737 1.242-1.494.285-2.693.596-3.512.916-.41.16-.719.32-.921.477-.206.16-.28.297-.273.41.006.113.095.243.318.383.22.136.545.267.972.388.851.243 2.08.44 3.598.585 3.037.288 7.215.36 11.817.146 4.6-.215 8.75-.674 11.736-1.243 1.494-.284 2.693-.596 3.512-.916.41-.16.72-.32.922-.476.206-.16.28-.297.273-.41z" fill="url(#o)" stroke-width=".2"/></g><rect x="84.238" y="108.861" width="47.6" height="8.6" rx="4.3" transform="rotate(-20.295 84.238 108.861)" fill="#FFDE76" stroke="#000" stroke-width=".4"/><path d="m90.914 112.577.476-1.552-1.298-.815.412-.153.992.636.34-1.128.399-.148-.448 1.456 1.378.871-.413.153-1.071-.691-.373 1.225-.394.146zm2.372-.878.477-1.551-1.299-.815.413-.153.992.635.34-1.128.398-.147-.448 1.456 1.378.871-.413.153-1.07-.692-.374 1.226-.394.145zm2.372-.877.477-1.551-1.299-.816.413-.152.992.635.34-1.128.398-.147-.447 1.455 1.377.872-.412.152-1.072-.691-.373 1.225-.394.146zm2.373-.877.476-1.552-1.298-.815.412-.153.992.636.34-1.128.399-.148-.448 1.456 1.378.871-.413.153-1.071-.691-.374 1.225-.393.146zm2.372-.877.476-1.552-1.298-.815.413-.153.992.635.339-1.127.399-.148-.448 1.456 1.378.871-.413.153-1.071-.692-.373 1.226-.394.146zm2.372-.878.477-1.551-1.299-.816.413-.152.992.635.34-1.128.398-.147-.448 1.456 1.378.871-.413.152-1.071-.691-.373 1.226-.394.145zm2.372-.877.477-1.552-1.299-.815.413-.153.992.636.34-1.128.399-.147-.448 1.455 1.377.871-.412.153-1.072-.691-.373 1.225-.394.146zm2.877-1.032a.245.245 0 0 1-.195-.008.242.242 0 0 1-.132-.143.245.245 0 0 1 .007-.195.248.248 0 0 1 .143-.132.241.241 0 0 1 .195.008.245.245 0 0 1 .133.142.245.245 0 0 1-.008.195.243.243 0 0 1-.143.133zm1.173-.434a.245.245 0 0 1-.195-.007.246.246 0 0 1-.133-.143.245.245 0 0 1 .008-.195.244.244 0 0 1 .143-.133.243.243 0 0 1 .194.008c.065.03.109.077.133.143a.241.241 0 0 1-.008.195.243.243 0 0 1-.142.132zm1.172-.433a.245.245 0 0 1-.195-.008.25.25 0 0 1-.133-.143.25.25 0 0 1 .008-.195.245.245 0 0 1 .143-.132.245.245 0 0 1 .195.007.252.252 0 0 1 .125.338.246.246 0 0 1-.143.133zm1.172-.434a.239.239 0 0 1-.194-.008.242.242 0 0 1-.133-.142.241.241 0 0 1 .008-.195.245.245 0 0 1 .142-.133.245.245 0 0 1 .195.008.24.24 0 0 1 .133.143.245.245 0 0 1-.008.195.242.242 0 0 1-.143.132zm1.173-.433a.25.25 0 0 1-.195-.008.246.246 0 0 1-.133-.143.245.245 0 0 1 .008-.195.25.25 0 0 1 .143-.133.25.25 0 0 1 .195.008c.064.03.108.077.132.143a.245.245 0 0 1-.007.195.252.252 0 0 1-.143.133zm1.172-.434a.245.245 0 0 1-.195-.008.242.242 0 0 1-.132-.143.243.243 0 0 1 .007-.194.246.246 0 0 1 .143-.133.245.245 0 0 1 .195.008.244.244 0 0 1 .133.143.247.247 0 0 1-.008.194.243.243 0 0 1-.143.133zm.599-.253.477-1.552-1.299-.815.413-.153.992.636.34-1.128.399-.148-.448 1.456 1.377.871-.412.153-1.072-.692-.373 1.226-.394.146zm2.373-.878.476-1.551-1.298-.816.412-.152.992.635.34-1.128.399-.147-.448 1.456 1.378.871-.413.152-1.071-.691-.373 1.226-.394.145zm2.372-.877.476-1.552-1.298-.815.413-.152.992.635.339-1.128.399-.147-.448 1.455 1.378.872-.413.152-1.071-.691-.373 1.225-.394.146zm2.372-.877.477-1.552-1.299-.815.413-.153.992.636.34-1.128.398-.148-.448 1.456 1.378.871-.412.153-1.072-.692-.373 1.226-.394.146zm2.372-.878.477-1.551-1.299-.815.413-.153.992.635.34-1.128.399-.147-.448 1.456 1.377.87-.412.154-1.072-.692-.373 1.226-.394.145z" fill="#000"/><defs><linearGradient id="e" x1="79.8" y1="208.922" x2="74.472" y2="69.685" gradientUnits="userSpaceOnUse"><stop offset=".01" stop-color="#0F172A"/><stop offset=".431" stop-color="#0F172A"/><stop offset=".432" stop-color="#FFDE76"/><stop offset=".87" stop-color="#FFDE76"/></linearGradient><linearGradient id="o" x1="20.955" y1="91.429" x2="25.509" y2="73.035" gradientUnits="userSpaceOnUse"><stop offset=".01" stop-color="#0F172A"/><stop offset=".431" stop-color="#0F172A"/><stop offset=".432" stop-color="#FFDE76"/><stop offset=".87" stop-color="#FFDE76"/></linearGradient><linearGradient id="n" x1="-.5" y1="112" x2="20.634" y2="37.204" gradientUnits="userSpaceOnUse"><stop offset=".01" stop-color="#0F172A"/><stop offset=".431" stop-color="#0F172A"/><stop offset=".432" stop-color="#FFDE76"/><stop offset=".87" stop-color="#FFDE76"/></linearGradient><linearGradient id="m" x1="99" y1="33.5" x2="102.898" y2="78.011" gradientUnits="userSpaceOnUse"><stop offset=".01" stop-color="#fff"/><stop offset=".431" stop-color="#fff"/><stop offset=".432" stop-color="#FFDE76"/><stop offset=".87" stop-color="#FFDE76"/></linearGradient><linearGradient id="a" x1="52.292" y1="108.398" x2="45.967" y2="72.83" gradientUnits="userSpaceOnUse"><stop offset=".01" stop-color="#0F172A"/><stop offset=".431" stop-color="#0F172A"/><stop offset=".432" stop-color="#A9D355"/><stop offset=".87" stop-color="#A9D355"/></linearGradient><linearGradient id="b" x1="52.589" y1="115.796" x2="43.743" y2="81.134" gradientUnits="userSpaceOnUse"><stop offset=".01" stop-color="#0F172A"/><stop offset=".431" stop-color="#0F172A"/><stop offset=".432" stop-color="#A9D355"/><stop offset=".87" stop-color="#A9D355"/></linearGradient><linearGradient id="c" x1="69.535" y1="121.443" x2="56.002" y2="82.804" gradientUnits="userSpaceOnUse"><stop offset=".01" stop-color="#10172A"/><stop offset=".431" stop-color="#0F172A"/><stop offset=".432" stop-color="#A9D355"/><stop offset=".87" stop-color="#A9D355"/></linearGradient><linearGradient id="l" x1="35" y1="97.5" x2="102.599" y2="-7.65" gradientUnits="userSpaceOnUse"><stop offset=".01" stop-color="#0F172A"/><stop offset=".431" stop-color="#0F172A"/><stop offset=".432" stop-color="#FFDE76"/><stop offset=".87" stop-color="#FFDE76"/></linearGradient><linearGradient id="i" x1="104" y1="13" x2="132.046" y2="44.407" gradientUnits="userSpaceOnUse"><stop offset=".01" stop-color="#fff"/><stop offset=".431" stop-color="#fff"/><stop offset=".432" stop-color="#FFDE76"/><stop offset=".87" stop-color="#FFDE76"/></linearGradient><linearGradient id="j" x1="34" y1="108" x2="68.709" y2="17.088" gradientUnits="userSpaceOnUse"><stop offset=".01" stop-color="#0F172A"/><stop offset=".431" stop-color="#0F172A"/><stop offset=".432" stop-color="#FFDE76"/><stop offset=".87" stop-color="#FFDE76"/></linearGradient><linearGradient id="k" x1="76.5" y1="-4" x2="109.883" y2="14.595" gradientUnits="userSpaceOnUse"><stop offset=".01" stop-color="#fff"/><stop offset=".431" stop-color="#fff"/><stop offset=".432" stop-color="#FFDE76"/><stop offset=".87" stop-color="#FFDE76"/></linearGradient><filter id="f" x="29.393" y="144.535" width="27.684" height="22.602" filterUnits="userSpaceOnUse" color-interpolation-filters="sRGB"><feFlood flood-opacity="0" result="BackgroundImageFix"/><feColorMatrix in="SourceAlpha" values="0 0 0 0 0 0 0 0 0 0 0 0 0 0 0 0 0 0 127 0" result="hardAlpha"/><feOffset dy="2"/><feComposite in2="hardAlpha" operator="out"/><feColorMatrix values="0 0 0 0 0 0 0 0 0 0 0 0 0 0 0 0 0 0 1 0"/><feBlend in2="BackgroundImageFix" result="effect1_dropShadow_485_1043"/><feBlend in="SourceGraphic" in2="effect1_dropShadow_485_1043" result="shape"/></filter><filter id="h" x="1.393" y=".03" width="162.148" height="91.379" filterUnits="userSpaceOnUse" color-interpolation-filters="sRGB"><feFlood flood-opacity="0" result="BackgroundImageFix"/><feColorMatrix in="SourceAlpha" values="0 0 0 0 0 0 0 0 0 0 0 0 0 0 0 0 0 0 127 0" result="hardAlpha"/><feOffset dy="1"/><feComposite in2="hardAlpha" operator="out"/><feColorMatrix values="0 0 0 0 0.0627451 0 0 0 0 0.0901961 0 0 0 0 0.164706 0 0 0 1 0"/><feBlend in2="BackgroundImageFix" result="effect1_dropShadow_485_1043"/><feBlend in="SourceGraphic" in2="effect1_dropShadow_485_1043" result="shape"/></filter><filter id="g" x="33.54" y="153.362" width="7.078" height="8.078" filterUnits="userSpaceOnUse" color-interpolation-filters="sRGB"><feFlood flood-opacity="0" result="BackgroundImageFix"/><feColorMatrix in="SourceAlpha" values="0 0 0 0 0 0 0 0 0 0 0 0 0 0 0 0 0 0 127 0" result="hardAlpha"/><feOffset dy="1"/><feComposite in2="hardAlpha" operator="out"/><feColorMatrix values="0 0 0 0 0 0 0 0 0 0 0 0 0 0 0 0 0 0 1 0"/><feBlend in2="BackgroundImageFix" result="effect1_dropShadow_485_1043"/><feBlend in="SourceGraphic" in2="effect1_dropShadow_485_1043" result="shape"/></filter><filter id="d" x="33.392" y="85.162" width="118.91" height="104.454" filterUnits="userSpaceOnUse" color-interpolation-filters="sRGB"><feFlood flood-opacity="0" result="BackgroundImageFix"/><feColorMatrix in="SourceAlpha" values="0 0 0 0 0 0 0 0 0 0 0 0 0 0 0 0 0 0 127 0" result="hardAlpha"/><feOffset dy="2"/><feComposite in2="hardAlpha" operator="out"/><feColorMatrix values="0 0 0 0 0 0 0 0 0 0 0 0 0 0 0 0 0 0 1 0"/><feBlend in2="BackgroundImageFix" result="effect1_dropShadow_485_1043"/><feBlend in="SourceGraphic" in2="effect1_dropShadow_485_1043" result="shape"/></filter></defs></svg>