<svg width="229" height="210" viewBox="0 0 229 210" fill="none" xmlns="http://www.w3.org/2000/svg">
<g filter="url(#filter0_dddd_526_2066)">
<path d="M181.074 126.303C182.903 127.464 185.944 126.062 187.709 125.513C195.106 123.211 200.993 120.514 206.917 115.412C220.336 103.854 230.562 87.9252 225.098 70.1158C218.928 50.0051 202.692 40.1703 182.436 37.7411C169.952 36.2438 158.167 38.8691 145.821 39.6837" stroke="#A9D355" stroke-width="2" stroke-linecap="round"/>
<path d="M67.5329 115.987C64.9688 116.272 63.1983 119.761 61.9726 121.547C56.8369 129.032 53.3959 135.772 51.7207 144.716C47.9261 164.975 50.3613 186.859 68.7492 198.987C89.5133 212.682 111.923 209.726 132.519 197.133C145.214 189.372 154.176 178.39 165.013 168.637" stroke="#A9D355" stroke-width="2" stroke-linecap="round"/>
<path d="M101.954 45.5269C98.6478 36.9216 87.5371 30.8136 80.7099 28.016C65.7225 21.8745 49.3472 24.95 38.5289 32.6728C22.3998 44.1867 22.1678 66.579 31.1526 89.963" stroke="#A9D355" stroke-width="2" stroke-linecap="round"/>
<path d="M60.465 52.6042C57.3203 49.4594 57.2494 42.6972 57.6849 38.5296C59.1497 24.5093 65.9173 11.8928 79.1154 5.63093C92.9702 -0.942518 110.602 0.819068 123.193 9.33783C127.558 12.2913 134.499 16.6669 136.572 21.8486" stroke="#A9D355" stroke-width="2" stroke-linecap="round"/>
<path d="M148.231 178.374C147.058 183.067 151.496 188.763 154.574 191.84C161.33 198.597 172.308 201.657 181.651 201.166C195.581 200.432 203.948 190.605 207.136 177.853" stroke="#A9D355" stroke-width="2" stroke-linecap="round"/>
<path d="M19.9961 84.5433C17.5823 84.6853 15.5626 88.4761 14.233 90.1037C9.34874 96.0827 5.71862 102.549 3.92324 110.115C-0.694238 129.574 4.03273 148.318 19.6486 161.403C48.7329 185.775 91.4751 175.23 112.263 145.533" stroke="#A9D355" stroke-width="2" stroke-linecap="round"/>
</g>
<g filter="url(#filter1_d_526_2066)">
<rect x="84.2547" y="95.3074" width="135.027" height="96.1" rx="10" fill="#C1E9FF"/>
<rect x="84.5047" y="95.5574" width="134.527" height="95.6" rx="9.75" stroke="#0F172A" stroke-width="0.5"/>
</g>
<g filter="url(#filter2_d_526_2066)">
<path d="M84.2547 105.307C84.2547 99.7846 88.7319 95.3074 94.2547 95.3074H209.281C214.804 95.3074 219.281 99.7846 219.281 105.307V111.121H84.2547V105.307Z" fill="#0497EC"/>
<path d="M84.5047 105.307C84.5047 99.9226 88.87 95.5574 94.2547 95.5574H209.281C214.666 95.5574 219.031 99.9226 219.031 105.307V110.871H84.5047V105.307Z" stroke="#10172A" stroke-width="0.5"/>
</g>
<g filter="url(#filter3_d_526_2066)">
<rect x="102.502" y="7.72256" width="110.697" height="79.0696" rx="10" fill="#C1E9FF"/>
<rect x="102.752" y="7.97256" width="110.197" height="78.5696" rx="9.75" stroke="#0F172A" stroke-width="0.5"/>
</g>
<g filter="url(#filter4_d_526_2066)">
<path d="M102.502 17.7226C102.502 12.1997 106.979 7.72256 112.502 7.72256H203.199C208.722 7.72256 213.199 12.1997 213.199 17.7226V23.5365H102.502V17.7226Z" fill="#0497EC"/>
<path d="M102.502 17.7226C102.502 12.1997 106.979 7.72256 112.502 7.72256H203.199C208.722 7.72256 213.199 12.1997 213.199 17.7226V23.5365H102.502V17.7226Z" fill="#0497EC"/>
<path d="M102.752 17.7226C102.752 12.3378 107.117 7.97256 112.502 7.97256H203.199C208.584 7.97256 212.949 12.3378 212.949 17.7226V23.2865H102.752V17.7226Z" stroke="#10172A" stroke-width="0.5"/>
</g>
<line x1="111.267" y1="24.7529" x2="111.267" y2="86.7921" stroke="white" stroke-width="0.5"/>
<line x1="184.254" y1="24.7529" x2="184.254" y2="86.7921" stroke="white" stroke-width="0.5"/>
<line x1="147.761" y1="24.7529" x2="147.761" y2="86.7921" stroke="white" stroke-width="0.5"/>
<line x1="129.514" y1="24.7529" x2="129.514" y2="86.7921" stroke="white" stroke-width="0.5"/>
<line x1="202.501" y1="24.7529" x2="202.501" y2="86.7921" stroke="white" stroke-width="0.5"/>
<line x1="166.008" y1="24.7529" x2="166.008" y2="86.7921" stroke="white" stroke-width="0.5"/>
<rect x="199.514" y="14.109" width="0.860165" height="6.88132" rx="0.430083" transform="rotate(-45 199.514 14.109)" fill="black"/>
<rect x="200.122" y="18.9748" width="0.860165" height="6.88132" rx="0.430083" transform="rotate(-135 200.122 18.9748)" fill="black"/>
<rect x="206.813" y="102.91" width="0.860165" height="6.88132" rx="0.430083" transform="rotate(-45 206.813 102.91)" fill="black"/>
<rect x="207.421" y="107.776" width="0.860165" height="6.88132" rx="0.430083" transform="rotate(-135 207.421 107.776)" fill="black"/>
<g filter="url(#filter5_d_526_2066)">
<rect x="8.8345" y="49.0821" width="127.728" height="91.2342" rx="10" fill="#C1E9FF"/>
<rect x="9.0845" y="49.3321" width="127.228" height="90.7342" rx="9.75" stroke="#0F172A" stroke-width="0.5"/>
</g>
<g filter="url(#filter6_d_526_2066)">
<path d="M8.8345 59.0821C8.8345 53.5592 13.3117 49.0821 18.8345 49.0821H126.562C132.085 49.0821 136.562 53.5592 136.562 59.0821V64.896H8.8345V59.0821Z" fill="#0497EC"/>
<path d="M8.8345 59.0821C8.8345 53.5592 13.3117 49.0821 18.8345 49.0821H126.562C132.085 49.0821 136.562 53.5592 136.562 59.0821V64.896H8.8345V59.0821Z" fill="#0497EC"/>
<path d="M9.0845 59.0821C9.0845 53.6973 13.4497 49.3321 18.8345 49.3321H126.562C131.947 49.3321 136.312 53.6973 136.312 59.0821V64.646H9.0845V59.0821Z" stroke="#10172A" stroke-width="0.5"/>
</g>
<rect x="110.051" y="34.7345" width="93.1671" height="8.01519" rx="4.0076" fill="#C1E9FF" stroke="#0F172A" stroke-width="0.5"/>
<rect x="110.051" y="66.3624" width="93.1671" height="8.01519" rx="4.0076" fill="#C1E9FF" stroke="#0F172A" stroke-width="0.5"/>
<rect x="96.6696" y="127.185" width="110.197" height="9.23165" rx="4.61582" fill="#C1E9FF" stroke="#0F172A" stroke-width="0.5"/>
<rect x="96.6696" y="145.432" width="110.197" height="10.4481" rx="5.22405" fill="#C1E9FF" stroke="#0F172A" stroke-width="0.5"/>
<rect x="96.6696" y="164.895" width="110.197" height="9.23165" rx="4.61582" fill="#C1E9FF" stroke="#0F172A" stroke-width="0.5"/>
<rect x="18.8165" y="79.7434" width="102.899" height="9.23165" rx="4.61582" fill="#C1E9FF" stroke="#0F172A" stroke-width="0.5"/>
<rect x="18.8165" y="97.9902" width="102.899" height="8.01519" rx="4.0076" fill="#C1E9FF" stroke="#0F172A" stroke-width="0.5"/>
<g filter="url(#filter7_d_526_2066)">
<circle cx="113.45" cy="97.7404" r="53.5241" fill="url(#paint0_linear_526_2066)"/>
<circle cx="113.45" cy="97.7404" r="53.2741" stroke="#0F172A" stroke-width="0.5"/>
</g>
<g filter="url(#filter8_d_526_2066)">
<circle cx="113.45" cy="98.9567" r="42.576" fill="url(#paint1_linear_526_2066)"/>
<circle cx="113.45" cy="98.9567" r="42.826" stroke="#0F172A" stroke-width="0.5"/>
</g>
<g filter="url(#filter9_d_526_2066)">
<mask id="path-40-inside-1_526_2066" fill="white">
<path fill-rule="evenodd" clip-rule="evenodd" d="M130.171 80.9645H98.8938V73.1607H130.171C134.373 73.1607 137.779 76.6546 137.779 80.9645L130.171 80.9645L130.171 80.9645ZM130.171 83.5657H130.171V116.515V116.515H130.171V124.319C134.373 124.319 137.779 120.825 137.779 116.515V84.4328H130.171V83.5657ZM127.635 116.515V116.515H126.79V124.319H95.5125C91.3107 124.319 87.9044 120.825 87.9044 116.515H95.5125H127.635ZM95.5125 73.1607V80.9645V113.047H87.9044V80.9645C87.9044 76.6546 91.3107 73.1607 95.5125 73.1607Z"/>
</mask>
<path fill-rule="evenodd" clip-rule="evenodd" d="M130.171 80.9645H98.8938V73.1607H130.171C134.373 73.1607 137.779 76.6546 137.779 80.9645L130.171 80.9645L130.171 80.9645ZM130.171 83.5657H130.171V116.515V116.515H130.171V124.319C134.373 124.319 137.779 120.825 137.779 116.515V84.4328H130.171V83.5657ZM127.635 116.515V116.515H126.79V124.319H95.5125C91.3107 124.319 87.9044 120.825 87.9044 116.515H95.5125H127.635ZM95.5125 73.1607V80.9645V113.047H87.9044V80.9645C87.9044 76.6546 91.3107 73.1607 95.5125 73.1607Z" fill="url(#paint2_linear_526_2066)"/>
<path d="M98.8938 80.9645H98.3938V81.4645H98.8938V80.9645ZM130.171 80.9645V81.4645H130.209L130.247 81.4587L130.171 80.9645ZM98.8938 73.1607V72.6607H98.3938V73.1607H98.8938ZM137.779 80.9645V81.4645L138.279 81.4645V80.9645H137.779ZM130.171 80.9645V80.4645H130.133L130.095 80.4703L130.171 80.9645ZM130.171 83.5657V83.0657H129.671V83.5657H130.171ZM130.171 83.5657H130.671V83.0657H130.171V83.5657ZM130.171 116.515H129.671V117.015H130.171V116.515ZM130.171 116.515H130.671V116.015H130.171V116.515ZM130.171 124.319H129.671V124.819L130.171 124.819L130.171 124.319ZM137.779 84.4328H138.279V83.9328H137.779V84.4328ZM130.171 84.4328H129.671V84.9328H130.171V84.4328ZM127.635 116.515V117.015H128.135V116.515H127.635ZM127.635 116.515H128.135V116.015H127.635V116.515ZM126.79 116.515V116.015H126.29V116.515H126.79ZM126.79 124.319V124.819H127.29V124.319H126.79ZM87.9044 116.515V116.015H87.4044V116.515H87.9044ZM95.5125 73.1607H96.0125V72.6607H95.5125V73.1607ZM95.5125 113.047V113.547H96.0125V113.047H95.5125ZM87.9044 113.047H87.4044V113.547H87.9044V113.047ZM98.8938 81.4645H130.171V80.4645H98.8938V81.4645ZM98.3938 73.1607V80.9645H99.3938V73.1607H98.3938ZM130.171 72.6607H98.8938V73.6607H130.171V72.6607ZM138.279 80.9645C138.279 76.3905 134.661 72.6607 130.171 72.6607V73.6607C134.085 73.6607 137.279 76.9187 137.279 80.9645H138.279ZM130.171 81.4645L137.779 81.4645V80.4645L130.171 80.4645V81.4645ZM130.247 81.4587L130.247 81.4586L130.095 80.4703L130.095 80.4703L130.247 81.4587ZM130.171 84.0657H130.171V83.0657H130.171V84.0657ZM130.671 116.515V83.5657H129.671V116.515H130.671ZM130.671 116.515V116.515H129.671V116.515H130.671ZM130.171 116.015H130.171V117.015H130.171V116.015ZM130.671 124.319V116.515H129.671V124.319H130.671ZM137.279 116.515C137.279 120.561 134.085 123.819 130.171 123.819L130.171 124.819C134.661 124.819 138.279 121.089 138.279 116.515H137.279ZM137.279 84.4328V116.515H138.279V84.4328H137.279ZM137.779 83.9328H130.171V84.9328H137.779V83.9328ZM130.671 84.4328V83.5657H129.671V84.4328H130.671ZM128.135 116.515V116.515H127.135V116.515H128.135ZM126.79 117.015H127.635V116.015H126.79V117.015ZM127.29 124.319V116.515H126.29V124.319H127.29ZM95.5125 124.819H126.79V123.819H95.5125V124.819ZM87.4044 116.515C87.4044 121.089 91.0226 124.819 95.5125 124.819V123.819C91.5987 123.819 88.4044 120.561 88.4044 116.515H87.4044ZM95.5125 116.015H87.9044V117.015H95.5125V116.015ZM127.635 116.015H95.5125V117.015H127.635V116.015ZM96.0125 80.9645V73.1607H95.0125V80.9645H96.0125ZM96.0125 113.047V80.9645H95.0125V113.047H96.0125ZM87.9044 113.547H95.5125V112.547H87.9044V113.547ZM87.4044 80.9645V113.047H88.4044V80.9645H87.4044ZM95.5125 72.6607C91.0226 72.6607 87.4044 76.3905 87.4044 80.9645H88.4044C88.4044 76.9187 91.5987 73.6607 95.5125 73.6607V72.6607Z" fill="black" mask="url(#path-40-inside-1_526_2066)"/>
<mask id="path-42-inside-2_526_2066" fill="white">
<path fill-rule="evenodd" clip-rule="evenodd" d="M111.428 88.768C111.041 88.768 110.728 89.0814 110.728 89.468V95.7047L104.665 95.7047C104.278 95.7047 103.965 96.0181 103.965 96.4047L103.965 100.207C103.965 100.594 104.278 100.907 104.665 100.907H110.728V107.144C110.728 107.53 111.041 107.844 111.428 107.844H115.1C115.487 107.844 115.8 107.53 115.8 107.144V100.907H121.862C122.249 100.907 122.562 100.594 122.562 100.207V96.4047C122.562 96.0181 122.249 95.7047 121.862 95.7047L115.8 95.7047V89.468C115.8 89.0814 115.487 88.768 115.1 88.768H111.428Z"/>
</mask>
<path fill-rule="evenodd" clip-rule="evenodd" d="M111.428 88.768C111.041 88.768 110.728 89.0814 110.728 89.468V95.7047L104.665 95.7047C104.278 95.7047 103.965 96.0181 103.965 96.4047L103.965 100.207C103.965 100.594 104.278 100.907 104.665 100.907H110.728V107.144C110.728 107.53 111.041 107.844 111.428 107.844H115.1C115.487 107.844 115.8 107.53 115.8 107.144V100.907H121.862C122.249 100.907 122.562 100.594 122.562 100.207V96.4047C122.562 96.0181 122.249 95.7047 121.862 95.7047L115.8 95.7047V89.468C115.8 89.0814 115.487 88.768 115.1 88.768H111.428Z" fill="url(#paint3_linear_526_2066)"/>
<path d="M110.728 95.7047V96.2047H111.228V95.7047H110.728ZM104.665 95.7047L104.665 95.2047H104.665V95.7047ZM103.965 96.4047H104.465H103.965ZM103.965 100.207H103.465H103.965ZM110.728 100.907H111.228V100.407H110.728V100.907ZM115.8 100.907V100.407H115.3V100.907H115.8ZM121.862 95.7047V96.2047V95.7047ZM115.8 95.7047H115.3V96.2047H115.8V95.7047ZM111.228 89.468C111.228 89.3575 111.317 89.268 111.428 89.268V88.268C110.765 88.268 110.228 88.8053 110.228 89.468H111.228ZM111.228 95.7047V89.468H110.228V95.7047H111.228ZM104.665 96.2047L110.728 96.2047V95.2047L104.665 95.2047L104.665 96.2047ZM104.465 96.4047C104.465 96.2942 104.554 96.2047 104.665 96.2047V95.2047C104.002 95.2047 103.465 95.7419 103.465 96.4047H104.465ZM104.465 100.207L104.465 96.4047H103.465L103.465 100.207H104.465ZM104.665 100.407C104.554 100.407 104.465 100.318 104.465 100.207H103.465C103.465 100.87 104.002 101.407 104.665 101.407V100.407ZM110.728 100.407H104.665V101.407H110.728V100.407ZM111.228 107.144V100.907H110.228V107.144H111.228ZM111.428 107.344C111.317 107.344 111.228 107.254 111.228 107.144H110.228C110.228 107.807 110.765 108.344 111.428 108.344V107.344ZM115.1 107.344H111.428V108.344H115.1V107.344ZM115.3 107.144C115.3 107.254 115.21 107.344 115.1 107.344V108.344C115.763 108.344 116.3 107.807 116.3 107.144H115.3ZM115.3 100.907V107.144H116.3V100.907H115.3ZM121.862 100.407H115.8V101.407H121.862V100.407ZM122.062 100.207C122.062 100.318 121.973 100.407 121.862 100.407V101.407C122.525 101.407 123.062 100.87 123.062 100.207H122.062ZM122.062 96.4047V100.207H123.062V96.4047H122.062ZM121.862 96.2047C121.973 96.2047 122.062 96.2942 122.062 96.4047H123.062C123.062 95.7419 122.525 95.2047 121.862 95.2047V96.2047ZM115.8 96.2047L121.862 96.2047V95.2047L115.8 95.2047V96.2047ZM115.3 89.468V95.7047H116.3V89.468H115.3ZM115.1 89.268C115.21 89.268 115.3 89.3575 115.3 89.468H116.3C116.3 88.8053 115.763 88.268 115.1 88.268V89.268ZM111.428 89.268H115.1V88.268H111.428V89.268Z" fill="black" mask="url(#path-42-inside-2_526_2066)"/>
</g>
<defs>
<filter id="filter0_dddd_526_2066" x="0.735245" y="0.140076" width="227.367" height="209.36" filterUnits="userSpaceOnUse" color-interpolation-filters="sRGB">
<feFlood flood-opacity="0" result="BackgroundImageFix"/>
<feColorMatrix in="SourceAlpha" type="matrix" values="0 0 0 0 0 0 0 0 0 0 0 0 0 0 0 0 0 0 127 0" result="hardAlpha"/>
<feOffset dy="0.5"/>
<feComposite in2="hardAlpha" operator="out"/>
<feColorMatrix type="matrix" values="0 0 0 0 0.0627451 0 0 0 0 0.0901961 0 0 0 0 0.164706 0 0 0 1 0"/>
<feBlend mode="normal" in2="BackgroundImageFix" result="effect1_dropShadow_526_2066"/>
<feColorMatrix in="SourceAlpha" type="matrix" values="0 0 0 0 0 0 0 0 0 0 0 0 0 0 0 0 0 0 127 0" result="hardAlpha"/>
<feOffset dy="-0.5"/>
<feComposite in2="hardAlpha" operator="out"/>
<feColorMatrix type="matrix" values="0 0 0 0 0.0627451 0 0 0 0 0.0901961 0 0 0 0 0.164706 0 0 0 1 0"/>
<feBlend mode="normal" in2="effect1_dropShadow_526_2066" result="effect2_dropShadow_526_2066"/>
<feColorMatrix in="SourceAlpha" type="matrix" values="0 0 0 0 0 0 0 0 0 0 0 0 0 0 0 0 0 0 127 0" result="hardAlpha"/>
<feOffset dx="0.5"/>
<feComposite in2="hardAlpha" operator="out"/>
<feColorMatrix type="matrix" values="0 0 0 0 0.0627451 0 0 0 0 0.0941176 0 0 0 0 0.168627 0 0 0 1 0"/>
<feBlend mode="normal" in2="effect2_dropShadow_526_2066" result="effect3_dropShadow_526_2066"/>
<feColorMatrix in="SourceAlpha" type="matrix" values="0 0 0 0 0 0 0 0 0 0 0 0 0 0 0 0 0 0 127 0" result="hardAlpha"/>
<feOffset dx="-0.5"/>
<feComposite in2="hardAlpha" operator="out"/>
<feColorMatrix type="matrix" values="0 0 0 0 0.0627451 0 0 0 0 0.0901961 0 0 0 0 0.164706 0 0 0 1 0"/>
<feBlend mode="normal" in2="effect3_dropShadow_526_2066" result="effect4_dropShadow_526_2066"/>
<feBlend mode="normal" in="SourceGraphic" in2="effect4_dropShadow_526_2066" result="shape"/>
</filter>
<filter id="filter1_d_526_2066" x="84.2547" y="95.3074" width="135.027" height="98.1" filterUnits="userSpaceOnUse" color-interpolation-filters="sRGB">
<feFlood flood-opacity="0" result="BackgroundImageFix"/>
<feColorMatrix in="SourceAlpha" type="matrix" values="0 0 0 0 0 0 0 0 0 0 0 0 0 0 0 0 0 0 127 0" result="hardAlpha"/>
<feOffset dy="2"/>
<feComposite in2="hardAlpha" operator="out"/>
<feColorMatrix type="matrix" values="0 0 0 0 0.0588235 0 0 0 0 0.0901961 0 0 0 0 0.164706 0 0 0 1 0"/>
<feBlend mode="normal" in2="BackgroundImageFix" result="effect1_dropShadow_526_2066"/>
<feBlend mode="normal" in="SourceGraphic" in2="effect1_dropShadow_526_2066" result="shape"/>
</filter>
<filter id="filter2_d_526_2066" x="84.2547" y="95.3074" width="135.027" height="16.8139" filterUnits="userSpaceOnUse" color-interpolation-filters="sRGB">
<feFlood flood-opacity="0" result="BackgroundImageFix"/>
<feColorMatrix in="SourceAlpha" type="matrix" values="0 0 0 0 0 0 0 0 0 0 0 0 0 0 0 0 0 0 127 0" result="hardAlpha"/>
<feOffset dy="1"/>
<feComposite in2="hardAlpha" operator="out"/>
<feColorMatrix type="matrix" values="0 0 0 0 0.0627451 0 0 0 0 0.0941176 0 0 0 0 0.168627 0 0 0 1 0"/>
<feBlend mode="normal" in2="BackgroundImageFix" result="effect1_dropShadow_526_2066"/>
<feBlend mode="normal" in="SourceGraphic" in2="effect1_dropShadow_526_2066" result="shape"/>
</filter>
<filter id="filter3_d_526_2066" x="102.502" y="7.72256" width="110.697" height="81.0696" filterUnits="userSpaceOnUse" color-interpolation-filters="sRGB">
<feFlood flood-opacity="0" result="BackgroundImageFix"/>
<feColorMatrix in="SourceAlpha" type="matrix" values="0 0 0 0 0 0 0 0 0 0 0 0 0 0 0 0 0 0 127 0" result="hardAlpha"/>
<feOffset dy="2"/>
<feComposite in2="hardAlpha" operator="out"/>
<feColorMatrix type="matrix" values="0 0 0 0 0.0588235 0 0 0 0 0.0901961 0 0 0 0 0.164706 0 0 0 1 0"/>
<feBlend mode="normal" in2="BackgroundImageFix" result="effect1_dropShadow_526_2066"/>
<feBlend mode="normal" in="SourceGraphic" in2="effect1_dropShadow_526_2066" result="shape"/>
</filter>
<filter id="filter4_d_526_2066" x="102.502" y="7.72256" width="110.697" height="16.8139" filterUnits="userSpaceOnUse" color-interpolation-filters="sRGB">
<feFlood flood-opacity="0" result="BackgroundImageFix"/>
<feColorMatrix in="SourceAlpha" type="matrix" values="0 0 0 0 0 0 0 0 0 0 0 0 0 0 0 0 0 0 127 0" result="hardAlpha"/>
<feOffset dy="1"/>
<feComposite in2="hardAlpha" operator="out"/>
<feColorMatrix type="matrix" values="0 0 0 0 0.0627451 0 0 0 0 0.0941176 0 0 0 0 0.168627 0 0 0 1 0"/>
<feBlend mode="normal" in2="BackgroundImageFix" result="effect1_dropShadow_526_2066"/>
<feBlend mode="normal" in="SourceGraphic" in2="effect1_dropShadow_526_2066" result="shape"/>
</filter>
<filter id="filter5_d_526_2066" x="8.8345" y="49.0821" width="127.728" height="93.2342" filterUnits="userSpaceOnUse" color-interpolation-filters="sRGB">
<feFlood flood-opacity="0" result="BackgroundImageFix"/>
<feColorMatrix in="SourceAlpha" type="matrix" values="0 0 0 0 0 0 0 0 0 0 0 0 0 0 0 0 0 0 127 0" result="hardAlpha"/>
<feOffset dy="2"/>
<feComposite in2="hardAlpha" operator="out"/>
<feColorMatrix type="matrix" values="0 0 0 0 0.0588235 0 0 0 0 0.0901961 0 0 0 0 0.164706 0 0 0 1 0"/>
<feBlend mode="normal" in2="BackgroundImageFix" result="effect1_dropShadow_526_2066"/>
<feBlend mode="normal" in="SourceGraphic" in2="effect1_dropShadow_526_2066" result="shape"/>
</filter>
<filter id="filter6_d_526_2066" x="8.8345" y="49.0821" width="127.728" height="16.8139" filterUnits="userSpaceOnUse" color-interpolation-filters="sRGB">
<feFlood flood-opacity="0" result="BackgroundImageFix"/>
<feColorMatrix in="SourceAlpha" type="matrix" values="0 0 0 0 0 0 0 0 0 0 0 0 0 0 0 0 0 0 127 0" result="hardAlpha"/>
<feOffset dy="1"/>
<feComposite in2="hardAlpha" operator="out"/>
<feColorMatrix type="matrix" values="0 0 0 0 0.0627451 0 0 0 0 0.0941176 0 0 0 0 0.168627 0 0 0 1 0"/>
<feBlend mode="normal" in2="BackgroundImageFix" result="effect1_dropShadow_526_2066"/>
<feBlend mode="normal" in="SourceGraphic" in2="effect1_dropShadow_526_2066" result="shape"/>
</filter>
<filter id="filter7_d_526_2066" x="59.9255" y="44.2164" width="107.048" height="110.048" filterUnits="userSpaceOnUse" color-interpolation-filters="sRGB">
<feFlood flood-opacity="0" result="BackgroundImageFix"/>
<feColorMatrix in="SourceAlpha" type="matrix" values="0 0 0 0 0 0 0 0 0 0 0 0 0 0 0 0 0 0 127 0" result="hardAlpha"/>
<feOffset dy="3"/>
<feComposite in2="hardAlpha" operator="out"/>
<feColorMatrix type="matrix" values="0 0 0 0 0.0588235 0 0 0 0 0.0901961 0 0 0 0 0.164706 0 0 0 1 0"/>
<feBlend mode="normal" in2="BackgroundImageFix" result="effect1_dropShadow_526_2066"/>
<feBlend mode="normal" in="SourceGraphic" in2="effect1_dropShadow_526_2066" result="shape"/>
</filter>
<filter id="filter8_d_526_2066" x="70.3741" y="54.8807" width="86.1519" height="87.1519" filterUnits="userSpaceOnUse" color-interpolation-filters="sRGB">
<feFlood flood-opacity="0" result="BackgroundImageFix"/>
<feColorMatrix in="SourceAlpha" type="matrix" values="0 0 0 0 0 0 0 0 0 0 0 0 0 0 0 0 0 0 127 0" result="hardAlpha"/>
<feOffset dy="-1"/>
<feComposite in2="hardAlpha" operator="out"/>
<feColorMatrix type="matrix" values="0 0 0 0 0.0588235 0 0 0 0 0.0901961 0 0 0 0 0.164706 0 0 0 1 0"/>
<feBlend mode="normal" in2="BackgroundImageFix" result="effect1_dropShadow_526_2066"/>
<feBlend mode="normal" in="SourceGraphic" in2="effect1_dropShadow_526_2066" result="shape"/>
</filter>
<filter id="filter9_d_526_2066" x="87.9044" y="73.1607" width="49.8747" height="52.1581" filterUnits="userSpaceOnUse" color-interpolation-filters="sRGB">
<feFlood flood-opacity="0" result="BackgroundImageFix"/>
<feColorMatrix in="SourceAlpha" type="matrix" values="0 0 0 0 0 0 0 0 0 0 0 0 0 0 0 0 0 0 127 0" result="hardAlpha"/>
<feOffset dy="1"/>
<feComposite in2="hardAlpha" operator="out"/>
<feColorMatrix type="matrix" values="0 0 0 0 0.0588235 0 0 0 0 0.0901961 0 0 0 0 0.164706 0 0 0 1 0"/>
<feBlend mode="normal" in2="BackgroundImageFix" result="effect1_dropShadow_526_2066"/>
<feBlend mode="normal" in="SourceGraphic" in2="effect1_dropShadow_526_2066" result="shape"/>
</filter>
<linearGradient id="paint0_linear_526_2066" x1="331.663" y1="76.4681" x2="76.7814" y2="354.594" gradientUnits="userSpaceOnUse">
<stop offset="0.0102275" stop-color="white"/>
<stop offset="0.431088" stop-color="white"/>
<stop offset="0.432344" stop-color="#FFDE76"/>
<stop offset="0.869792" stop-color="#FFDE76"/>
</linearGradient>
<linearGradient id="paint1_linear_526_2066" x1="287.029" y1="82.0355" x2="84.2822" y2="303.272" gradientUnits="userSpaceOnUse">
<stop offset="0.0102275" stop-color="white"/>
<stop offset="0.431088" stop-color="white"/>
<stop offset="0.432344" stop-color="#FFDE76"/>
<stop offset="0.869792" stop-color="#FFDE76"/>
</linearGradient>
<linearGradient id="paint2_linear_526_2066" x1="78.781" y1="190.799" x2="219.524" y2="37.3208" gradientUnits="userSpaceOnUse">
<stop offset="0.0102275" stop-color="white"/>
<stop offset="0.431088" stop-color="white"/>
<stop offset="0.432344" stop-color="#FFDE76"/>
<stop offset="0.869792" stop-color="#FFDE76"/>
</linearGradient>
<linearGradient id="paint3_linear_526_2066" x1="100.563" y1="132.633" x2="153.043" y2="75.404" gradientUnits="userSpaceOnUse">
<stop offset="0.0102275" stop-color="white"/>
<stop offset="0.431088" stop-color="white"/>
<stop offset="0.432344" stop-color="#FFDE76"/>
<stop offset="0.869792" stop-color="#FFDE76"/>
</linearGradient>
</defs>
</svg>
