<svg width="23" height="16" viewBox="0 0 23 16" fill="none" xmlns="http://www.w3.org/2000/svg">
<path d="M19.8135 1.77366C17.8229 0.2673 14.674 0.0124677 14.5402 0.00164474C14.33 -0.0150817 14.1304 0.0970838 14.0446 0.278123C14.0384 0.28993 13.9694 0.4385 13.893 0.669719C15.2093 0.878307 16.8266 1.29942 18.2902 2.15444C18.5244 2.2912 18.5965 2.58145 18.4512 2.80283C18.3571 2.94648 18.193 3.0252 18.0257 3.0252C17.9358 3.0252 17.8449 3.00257 17.7623 2.95435C15.2469 1.48636 12.1043 1.41257 11.5 1.41257C10.8957 1.41257 7.75205 1.48636 5.23877 2.95435C5.00355 3.0921 4.69618 3.02323 4.54982 2.80283C4.40345 2.58145 4.47664 2.29218 4.71082 2.15444C6.17445 1.3004 7.79073 0.878307 9.108 0.669719C9.03064 0.437516 8.96164 0.28993 8.95641 0.278123C8.86964 0.0970838 8.671 -0.0170496 8.45982 0.00262857C8.32705 0.0124677 5.17814 0.2673 3.16041 1.79531C2.10659 2.71133 0 8.07166 0 12.7059C0 12.7875 0.023 12.8682 0.0658636 12.9391C1.52009 15.3427 5.48655 15.9725 6.39086 16C6.39609 16 6.40132 16 6.40655 16C6.5665 16 6.71704 15.9282 6.81114 15.8062L7.72591 14.6235C5.25968 14.0233 3.99991 13.005 3.92673 12.945C3.71973 12.7728 3.69986 12.4756 3.88282 12.2808C4.06577 12.086 4.38045 12.0673 4.58745 12.2385C4.61777 12.2641 6.93764 14.1168 11.5 14.1168C16.0707 14.1168 18.3906 12.2562 18.4136 12.2375C18.6206 12.0683 18.9363 12.086 19.1182 12.2818C19.3001 12.4766 19.2803 12.7728 19.0743 12.944C19.0011 13.005 17.7414 14.0223 15.2751 14.6225L16.1899 15.8052C16.284 15.9272 16.4345 15.999 16.5945 15.999C16.5997 15.999 16.605 15.999 16.6102 15.999C17.5145 15.9724 21.481 15.3427 22.9352 12.9381C22.977 12.8672 23 12.7875 23 12.7059C23 8.07166 20.8934 2.71133 19.8135 1.77366ZM8.24968 10.8237C7.28368 10.8237 6.49959 9.98044 6.49959 8.94144C6.49959 7.90243 7.28264 7.05922 8.24968 7.05922C9.21673 7.05922 9.99977 7.90243 9.99977 8.94144C9.99977 9.98044 9.21673 10.8237 8.24968 10.8237ZM14.7503 10.8237C13.7843 10.8237 13.0002 9.98044 13.0002 8.94144C13.0002 7.90243 13.7833 7.05922 14.7503 7.05922C15.7163 7.05922 16.5004 7.90243 16.5004 8.94144C16.5004 9.98044 15.7163 10.8237 14.7503 10.8237Z" fill="#0F172A"/>
</svg>
