<svg width="26" height="27" viewBox="0 0 26 27" fill="none" xmlns="http://www.w3.org/2000/svg">
<path d="M13.0001 0.5C5.82081 0.5 6.10352e-05 6.41189 6.10352e-05 13.7036C6.10352e-05 19.8905 4.19473 25.0674 9.84973 26.5C9.78906 26.3218 9.75006 26.1149 9.75006 25.8585V23.6018C9.22248 23.6018 8.33848 23.6018 8.11639 23.6018C7.22698 23.6018 6.43614 23.2134 6.05264 22.4916C5.62689 21.6895 5.55323 20.4627 4.49806 19.7123C4.18498 19.4625 4.42331 19.1775 4.78406 19.216C5.45031 19.4075 6.00281 19.8718 6.52281 20.5606C7.04064 21.2505 7.28439 21.4067 8.25181 21.4067C8.72089 21.4067 9.42289 21.3792 10.0837 21.2736C10.4391 20.357 11.0533 19.5131 11.8041 19.1148C7.47506 18.6626 5.40914 16.4752 5.40914 13.5055C5.40914 12.227 5.94539 10.9902 6.85648 9.94824C6.55748 8.91397 6.18156 6.8047 6.97131 6.00148C8.91914 6.00148 10.0967 7.28443 10.3795 7.63102C11.3501 7.29323 12.4161 7.10178 13.5363 7.10178C14.6586 7.10178 15.729 7.29323 16.7018 7.63322C16.9813 7.28883 18.16 6.00148 20.1121 6.00148C20.9051 6.8058 20.5249 8.92387 20.2226 9.95595C21.1283 10.9957 21.6613 12.2292 21.6613 13.5055C21.6613 16.473 19.5986 18.6593 15.2761 19.1137C16.4656 19.7442 17.3334 21.5157 17.3334 22.8503V25.8585C17.3334 25.973 17.3085 26.0555 17.2955 26.1534C22.3611 24.35 26.0001 19.4647 26.0001 13.7036C26.0001 6.41189 20.1793 0.5 13.0001 0.5Z" fill="#BAC0CB"/>
</svg>
