<svg width="27" height="27" viewBox="0 0 27 27" fill="none" xmlns="http://www.w3.org/2000/svg">
<path d="M13.6501 0.5C6.47084 0.5 0.650085 6.41189 0.650085 13.7036C0.650085 19.8905 4.84475 25.0674 10.4998 26.5C10.4391 26.3218 10.4001 26.1149 10.4001 25.8585V23.6018C9.8725 23.6018 8.9885 23.6018 8.76642 23.6018C7.877 23.6018 7.08617 23.2134 6.70267 22.4916C6.27692 21.6895 6.20325 20.4627 5.14809 19.7123C4.835 19.4625 5.07334 19.1775 5.43409 19.216C6.10034 19.4075 6.65283 19.8718 7.17283 20.5606C7.69067 21.2505 7.93442 21.4067 8.90183 21.4067C9.37092 21.4067 10.0729 21.3792 10.7338 21.2736C11.0891 20.357 11.7033 19.5131 12.4541 19.1148C8.12508 18.6626 6.05917 16.4752 6.05917 13.5055C6.05917 12.227 6.59542 10.9902 7.5065 9.94824C7.2075 8.91397 6.83159 6.8047 7.62134 6.00148C9.56917 6.00148 10.7468 7.28443 11.0295 7.63102C12.0002 7.29323 13.0662 7.10178 14.1863 7.10178C15.3087 7.10178 16.379 7.29323 17.3518 7.63322C17.6313 7.28883 18.81 6.00148 20.7622 6.00148C21.5552 6.8058 21.1749 8.92387 20.8727 9.95595C21.7783 10.9957 22.3113 12.2292 22.3113 13.5055C22.3113 16.473 20.2487 18.6593 15.9262 19.1137C17.1157 19.7442 17.9834 21.5157 17.9834 22.8503V25.8585C17.9834 25.973 17.9585 26.0555 17.9455 26.1534C23.0112 24.35 26.6501 19.4647 26.6501 13.7036C26.6501 6.41189 20.8293 0.5 13.6501 0.5Z" fill="#BAC0CB"/>
</svg>
