<svg width="26" height="26" viewBox="0 0 26 26" fill="none" xmlns="http://www.w3.org/2000/svg">
<path d="M13.0001 0C5.83197 0 6.10352e-05 5.83135 6.10352e-05 13C6.10352e-05 20.1687 5.83197 26 13.0001 26C20.1681 26 26.0001 20.1687 26.0001 13C26.0001 5.83135 20.1681 0 13.0001 0ZM9.04354 18.6522H6.78267V10.1739H9.04354V18.6522ZM7.9131 8.47826C7.28854 8.47826 6.78267 7.97239 6.78267 7.34783C6.78267 6.72326 7.28854 6.21739 7.9131 6.21739C8.53767 6.21739 9.04354 6.72326 9.04354 7.34783C9.04354 7.97239 8.53767 8.47826 7.9131 8.47826ZM19.7827 18.6522H17.5218V15.8261V14.413C17.5218 13.325 16.6316 12.4348 15.5435 12.4348C14.4555 12.4348 13.5653 13.325 13.5653 14.413V18.6522H11.3044V10.1739H13.5653V11.2003C14.2255 10.5662 15.1208 10.1739 16.1088 10.1739C18.1379 10.1739 19.7827 11.8187 19.7827 13.8478V18.6522Z" fill="#BAC0CB"/>
</svg>
