<svg width="22" height="19" viewBox="0 0 22 19" xmlns="http://www.w3.org/2000/svg">
<path d="M7.082 3.90035V17.8272C7.082 18.0249 7.03262 18.1931 6.93387 18.3319C6.83512 18.4706 6.69076 18.54 6.50078 18.54C6.36616 18.54 6.23575 18.5083 6.10955 18.4449L0.593658 15.6783C0.427605 15.5989 0.287222 15.4664 0.172531 15.2806C0.0578393 15.0949 0.000488281 14.9109 0.000488281 14.7288V1.19356C0.000488281 1.03532 0.0401264 0.900786 0.119392 0.789978C0.198658 0.679159 0.31335 0.623755 0.463466 0.623755C0.574179 0.623755 0.748211 0.683148 0.985562 0.801946L7.04679 3.84117C7.0707 3.8651 7.082 3.88483 7.082 3.90035ZM7.84122 5.09914L14.1754 15.381L7.84122 12.2229V5.09914ZM21.2563 5.31324V17.8272C21.2563 18.0249 21.201 18.1851 21.0902 18.308C20.9796 18.4307 20.8292 18.4921 20.6393 18.4921C20.4493 18.4921 20.2635 18.4406 20.0819 18.3379L14.851 15.7255L21.2563 5.31324ZM21.2204 3.88838C21.2204 3.91231 20.2064 5.57255 18.1782 8.86914C16.15 12.1656 14.9619 14.0949 14.6138 14.657L9.98811 7.12973L13.8314 0.872424C13.966 0.650786 14.1717 0.539978 14.4484 0.539978C14.5592 0.539978 14.6619 0.563691 14.7567 0.611116L21.1739 3.81657C21.2054 3.83253 21.2204 3.85691 21.2204 3.88838Z" />
</svg>