<svg width="26" height="25" viewBox="0 0 26 25" xmlns="http://www.w3.org/2000/svg">
<path d="M25.509 0.830948C25.0655 0.448169 24.3689 0.393401 23.6487 0.687707H23.6475C22.89 0.99706 2.20499 10.0273 1.36292 10.3962C1.20976 10.4504 -0.127842 10.9583 0.00993972 12.0898C0.132938 13.11 1.20799 13.5325 1.33927 13.5812L6.59804 15.4139C6.94693 16.5959 8.23309 20.9569 8.51752 21.8886C8.69492 22.4694 8.98409 23.2325 9.49086 23.3896C9.93555 23.5642 10.3779 23.4047 10.6641 23.176L13.8792 20.1408L19.0694 24.2605L19.1929 24.3357C19.5454 24.4946 19.883 24.5741 20.2053 24.5741C20.4543 24.5741 20.6932 24.5265 20.9214 24.4314C21.699 24.1064 22.0101 23.3523 22.0426 23.2668L25.9194 2.75748C26.1559 1.66211 25.8272 1.10479 25.509 0.830948ZM11.2359 16.1469L9.46189 20.9617L7.68787 14.9432L21.2886 4.7117L11.2359 16.1469Z"/>
</svg>
