<svg width="26" height="22" viewBox="0 0 26 22" fill="none" xmlns="http://www.w3.org/2000/svg">
<path d="M26 3.00051C25.0415 3.42604 24.0142 3.71175 22.9341 3.84144C24.0365 3.18085 24.8835 2.13526 25.2806 0.891084C24.2513 1.50101 23.1064 1.94478 21.8926 2.18389C20.92 1.1464 19.5339 0.5 18 0.5C15.0537 0.5 12.6646 2.88703 12.6646 5.83333C12.6646 6.25076 12.7133 6.65806 12.8045 7.04914C8.37082 6.82624 4.44174 4.70263 1.80952 1.47467C1.34954 2.26494 1.08815 3.18085 1.08815 4.15755C1.08815 6.0076 2.02837 7.64083 3.46099 8.59929C2.58561 8.57092 1.76292 8.32979 1.04357 7.9306C1.04357 7.95289 1.04357 7.97518 1.04357 7.99747C1.04357 10.5831 2.88349 12.7371 5.32118 13.2295C4.87538 13.3511 4.40324 13.4159 3.91692 13.4159C3.57244 13.4159 3.2381 13.3835 2.91185 13.3186C3.59271 15.4362 5.56231 16.9823 7.89463 17.0248C6.07092 18.4554 3.77102 19.3065 1.27052 19.3065C0.838906 19.3065 0.415401 19.2822 0 19.2315C2.35866 20.7472 5.16312 21.6287 8.17629 21.6287C17.9878 21.6287 23.3536 13.501 23.3536 6.45339C23.3536 6.22239 23.3475 5.98936 23.3394 5.76241C24.381 5.01064 25.2847 4.07042 26 3.00051Z" fill="#BAC0CB"/>
</svg>
