<svg width="20" height="16" viewBox="0 0 20 16" fill="none" xmlns="http://www.w3.org/2000/svg">
<path d="M20 1.89355C19.2627 2.21579 18.4724 2.43215 17.6416 2.53035C18.4896 2.03011 19.1411 1.23832 19.4467 0.296154C18.6548 0.758032 17.7741 1.09408 16.8405 1.27515C16.0923 0.489498 15.0261 0 13.8462 0C11.5798 0 9.74203 1.80761 9.74203 4.03875C9.74203 4.35485 9.77944 4.66328 9.84958 4.95943C6.43909 4.79064 3.41672 3.18251 1.39194 0.738084C1.03811 1.33653 0.837035 2.03011 0.837035 2.76973C0.837035 4.17071 1.56028 5.4075 2.6623 6.13331C1.98893 6.11182 1.35609 5.92922 0.802743 5.62693C0.802743 5.64381 0.802743 5.66069 0.802743 5.67757C0.802743 7.63556 2.21807 9.26671 4.09321 9.63959C3.75029 9.73166 3.38711 9.78076 3.01302 9.78076C2.74803 9.78076 2.49084 9.75621 2.23989 9.70711C2.76362 11.3106 4.2787 12.4814 6.07279 12.5137C4.66994 13.597 2.90079 14.2415 0.97732 14.2415C0.645312 14.2415 0.319539 14.2231 0 14.1847C1.81436 15.3325 3.97163 16 6.28945 16C13.8368 16 17.9643 9.84521 17.9643 4.5083C17.9643 4.33337 17.9596 4.1569 17.9534 3.98504C18.7546 3.41575 19.4498 2.70375 20 1.89355Z" fill="#0F172A"/>
</svg>
