<svg width="136" height="21" viewBox="0 0 136 21" fill="none" xmlns="http://www.w3.org/2000/svg">
<path fill-rule="evenodd" clip-rule="evenodd" d="M0 20.5H64.0081V0.5H0V20.5Z" fill="#BAC0CB"/>
<path fill-rule="evenodd" clip-rule="evenodd" d="M34.3219 16.3098L31.3057 12.6661H30.1215V16.3098H28.1073V3.08105H30.1215V10.5001H31.3057L34.3219 6.85636H36.9433L33.0263 11.5831L36.9433 16.3098H34.3219ZM10.4555 8.50616C8.7652 8.50616 7.38868 9.89279 7.38868 11.5831C7.38868 13.2835 8.7652 14.66 10.4555 14.66C12.1458 14.66 13.5223 13.2734 13.5223 11.5831C13.5223 9.88267 12.1458 8.50616 10.4555 8.50616ZM10.4555 16.6843C7.65184 16.6843 5.37451 14.3968 5.37451 11.5831C5.37451 8.76931 7.65184 6.48187 10.4555 6.48187C11.5284 6.48187 12.5506 6.81588 13.4211 7.44341L13.5223 7.51425V6.85636H15.5365V16.3098H13.5223V15.6519L13.4211 15.7228C12.5506 16.3503 11.5284 16.6843 10.4555 16.6843ZM22.3381 16.6843C19.5344 16.6843 17.2571 14.3968 17.2571 11.5831C17.2571 8.76931 19.5344 6.48187 22.3381 6.48187C24.0486 6.48187 25.6275 7.33207 26.5688 8.7592L24.747 9.67013C24.1599 8.92114 23.2895 8.49603 22.3381 8.49603C20.6478 8.49603 19.2713 9.88268 19.2713 11.573C19.2713 13.2734 20.6478 14.6499 22.3381 14.6499C23.2895 14.6499 24.1599 14.2248 24.747 13.4758L26.5688 14.3867C25.6275 15.8341 24.0486 16.6843 22.3381 16.6843ZM42.3178 8.50616C41.0628 8.50616 39.9899 9.28551 39.5749 10.49L39.5445 10.5709H45.0911L45.0607 10.49C44.6559 9.28551 43.5729 8.50616 42.3178 8.50616ZM42.4696 16.6843C39.666 16.6843 37.3887 14.3968 37.3887 11.5831C37.3887 8.71871 39.5547 6.48187 42.3178 6.48187C45.081 6.48187 47.247 8.71871 47.247 11.5831V12.5952H39.5648L39.5952 12.6762C40.0506 13.8604 41.2045 14.66 42.4595 14.66C43.2996 14.66 44.079 14.3361 44.6559 13.7288L46.4676 14.7207C45.5061 15.9758 44.0486 16.6843 42.4696 16.6843ZM53.7146 8.50616C52.4595 8.50616 51.3866 9.28551 50.9717 10.49L50.9413 10.5709H56.4777L56.4474 10.49C56.0526 9.28551 54.9696 8.50616 53.7146 8.50616ZM53.8664 16.6843C51.0628 16.6843 48.7854 14.3968 48.7854 11.5831C48.7854 8.71871 50.9514 6.48187 53.7146 6.48187C56.4777 6.48187 58.6437 8.71871 58.6437 11.5831V12.5952H50.9615L50.9919 12.6762C51.4474 13.8604 52.5911 14.66 53.8563 14.66C54.6964 14.66 55.4757 14.3361 56.0526 13.7288L57.8644 14.7207C56.9028 15.9758 55.4454 16.6843 53.8664 16.6843Z" fill="white"/>
<path fill-rule="evenodd" clip-rule="evenodd" d="M112.439 8.4959C111.781 8.4959 111.154 8.67809 110.628 9.0121V6.17809H109.18V11.755V12.4838V15.2469H110.628V11.7449C110.628 10.6923 111.376 9.9534 112.439 9.9534C113.502 9.9534 114.251 10.6923 114.251 11.7449V15.2469H115.698V11.7449C115.698 10.8137 115.354 9.97364 114.727 9.37647C114.13 8.80967 113.32 8.4959 112.439 8.4959ZM105.111 9.88254C105.759 9.88254 106.356 10.1761 106.751 10.6821L107.996 10.0546C107.348 9.07283 106.275 8.48578 105.111 8.48578C103.198 8.48578 101.64 10.0546 101.64 11.9878C101.64 13.921 103.198 15.4898 105.111 15.4898C106.275 15.4898 107.358 14.9028 107.996 13.921L106.751 13.2935C106.356 13.7995 105.759 14.0931 105.111 14.0931C103.957 14.0931 103.016 13.1417 103.016 11.9777C103.016 10.8238 103.957 9.88254 105.111 9.88254ZM101.589 8.76918H99.7976L97.7429 11.2692H96.9332V6.17809H95.5567V15.2469H96.9332V12.7469H97.7429L99.7976 15.2469H101.589L98.917 12.008L101.589 8.76918ZM134.717 9.36635C134.119 8.79955 133.31 8.48578 132.429 8.48578C131.761 8.48578 131.144 8.66797 130.617 9.00198V8.74894H129.17V11.7449V12.4736V15.2469H130.617V11.7449C130.617 10.6923 131.366 9.9534 132.429 9.9534C133.492 9.9534 134.241 10.6923 134.241 11.7449V15.2469H135.688V11.7449C135.688 10.8036 135.344 9.96352 134.717 9.36635ZM120.324 14.1133C119.17 14.1133 118.229 13.1619 118.229 11.9979C118.229 10.834 119.17 9.88254 120.324 9.88254C121.478 9.88254 122.419 10.834 122.419 11.9979C122.419 13.1619 121.478 14.1133 120.324 14.1133ZM122.419 9.21453L122.348 9.16392C121.751 8.7287 121.053 8.4959 120.324 8.4959C118.411 8.4959 116.852 10.0647 116.852 11.9979C116.852 13.9311 118.411 15.5 120.324 15.5C121.053 15.5 121.761 15.2672 122.348 14.8319L122.419 14.7813V15.2368H123.796V8.74894H122.419V9.21453ZM125.759 15.2368H127.146V8.74894H125.759V15.2368ZM126.447 6.23882C126.002 6.23882 125.648 6.60319 125.648 7.04854C125.648 7.49388 126.002 7.85825 126.447 7.85825C126.893 7.85825 127.247 7.49388 127.247 7.04854C127.247 6.60319 126.893 6.23882 126.447 6.23882ZM77.5506 15.2469H78.9372V6.16797H77.5506V15.2469ZM91.4474 9.88254C92.0951 9.88254 92.6923 10.1761 93.087 10.6821L94.332 10.0546C93.6842 9.07283 92.6113 8.48578 91.4474 8.48578C89.5344 8.48578 87.9757 10.0546 87.9757 11.9878C87.9757 13.921 89.5344 15.4898 91.4474 15.4898C92.6113 15.4898 93.6943 14.9028 94.332 13.921L93.087 13.2935C92.6923 13.7995 92.0951 14.0931 91.4474 14.0931C90.2935 14.0931 89.3522 13.1417 89.3522 11.9777C89.3522 10.8238 90.2834 9.88254 91.4474 9.88254ZM72.8138 14.0526C71.6903 14.0526 70.7793 13.1315 70.7793 12.008C70.7793 10.8744 71.6903 9.96351 72.8138 9.96351C73.9372 9.96351 74.8482 10.8846 74.8482 12.008C74.8482 13.1315 73.9372 14.0526 72.8138 14.0526ZM72.8138 8.4959C72.0546 8.4959 71.3563 8.73882 70.7793 9.16392V6.17809H69.332V15.2469H70.7793V14.8421C71.3461 15.257 72.0546 15.5101 72.8138 15.5101C74.7267 15.5101 76.2854 13.9412 76.2854 12.008C76.2955 10.0647 74.7368 8.4959 72.8138 8.4959ZM83.583 14.0526C82.4595 14.0526 81.5486 13.1315 81.5486 12.008C81.5486 10.8744 82.4595 9.96351 83.583 9.96351C84.7065 9.96351 85.6174 10.8846 85.6174 12.008C85.6073 13.1315 84.6963 14.0526 83.583 14.0526ZM83.583 8.4959C81.67 8.4959 80.1113 10.0647 80.1113 11.9979C80.1113 13.9311 81.67 15.5 83.583 15.5C85.4959 15.5 87.0546 13.9311 87.0546 11.9979C87.0546 10.0647 85.4959 8.4959 83.583 8.4959Z" fill="#BAC0CB"/>
</svg>
