<svg width="36" height="37" viewBox="0 0 36 37" fill="none" xmlns="http://www.w3.org/2000/svg">
<g clip-path="url(#clip0_123_18)">
<mask id="mask0_123_18" style="mask-type:luminance" maskUnits="userSpaceOnUse" x="0" y="0" width="36" height="37">
<path d="M36 0.5H0V36.5H36V0.5Z" fill="white"/>
</mask>
<g mask="url(#mask0_123_18)">
<path d="M33.6 0.5V7.7H31.2V0.5H28.8V7.7H26.4V0.5H24V7.7H12V0.5H9.6V7.7V10.1H33.6V12.5H31.2H28.8H7.2V0.5H4.8V12.5H2.4V0.5H0V12.5V14.9V26.9H2.4V19.7H4.8V26.9H7.2V19.7H9.6V26.9H12V19.7H24V26.9H26.4V19.7V17.3H7.2H4.8H2.4V14.9H4.8H7.2H28.8V26.9H31.2V14.9H33.6V26.9H36V14.9V12.5V10.1V7.7V0.5H33.6Z" fill="#BAC0CB"/>
<path d="M4.1145 32.729V34.1H1.029V32.729H0V36.5H1.029V35.129H4.1145V36.5H5.1435V32.729H4.1145Z" fill="#BAC0CB"/>
<path d="M23.658 35.1289H22.629V36.4999H23.658V35.1289Z" fill="#BAC0CB"/>
<path d="M23.6565 32.729H22.629V34.1H19.5435V32.729H18.5145V36.5H19.5435V35.129H22.629L23.6565 34.1V32.729Z" fill="#BAC0CB"/>
<path d="M10.629 32.729H6.17249V36.5H7.20148V35.129H10.287V36.5H11.316V32.729H10.6305H10.629ZM7.19999 34.1V33.7565H10.2855V34.1H7.19999Z" fill="#BAC0CB"/>
<path d="M17.4855 33.7565V32.729H13.371H13.029H12.3435V36.5H13.029H13.371H17.4855V35.471H13.371V33.7565H17.4855Z" fill="#BAC0CB"/>
<path d="M29.829 33.7565V32.729H25.7145H25.371H24.6855V36.5H25.371H25.7145H29.829V35.471H25.7145V35.129H29.829V34.1H25.7145V33.7565H29.829Z" fill="#BAC0CB"/>
<path d="M34.971 32.729V35.129L31.8855 32.729H30.8565V36.5H31.8855V34.1L34.971 36.5H36V32.729H34.971Z" fill="#BAC0CB"/>
</g>
</g>
<defs>
<clipPath id="clip0_123_18">
<rect width="36" height="36" fill="white" transform="translate(0 0.5)"/>
</clipPath>
</defs>
</svg>
