<svg width="1920" height="620" viewBox="0 0 1920 620" fill="none" xmlns="http://www.w3.org/2000/svg">
<rect x="-1.5" y="0.5" width="1923" height="619" fill="white" stroke="#0F172A"/>
<path d="M281.229 411.138L284.32 419.49L292.671 422.58L284.32 425.67L281.229 434.022L278.139 425.67L269.788 422.58L278.139 419.49L281.229 411.138Z" fill="#0F172A"/>
<path d="M384.205 580.857L386.265 586.425L391.833 588.485L386.265 590.545L384.205 596.113L382.145 590.545L376.577 588.485L382.145 586.425L384.205 580.857Z" fill="#0F172A"/>
<path d="M83.8599 564.648L85.9201 570.216L91.4877 572.276L85.9201 574.336L83.8599 579.904L81.7997 574.336L76.2321 572.276L81.7997 570.216L83.8599 564.648Z" fill="#0F172A"/>
<path d="M206.858 171.816L208.918 177.383L214.486 179.443L208.918 181.504L206.858 187.071L204.798 181.504L199.23 179.443L204.798 177.383L206.858 171.816Z" fill="#0F172A"/>
<path d="M1642.79 145.118L1646.14 154.166L1655.19 157.514L1646.14 160.861L1642.79 169.909L1639.45 160.861L1630.4 157.514L1639.45 154.166L1642.79 145.118Z" fill="#0F172A"/>
<path d="M1781.05 397.79L1783.11 403.357L1788.68 405.417L1783.11 407.478L1781.05 413.045L1778.99 407.478L1773.42 405.417L1778.99 403.357L1781.05 397.79Z" fill="#0F172A"/>
<path d="M1575.1 596.113L1577.16 601.68L1582.72 603.741L1577.16 605.801L1575.1 611.368L1573.04 605.801L1567.47 603.741L1573.04 601.68L1575.1 596.113Z" fill="#0F172A"/>
<path d="M1853.51 541.765L1856.34 549.42L1864 552.253L1856.34 555.086L1853.51 562.741L1850.68 555.086L1843.02 552.253L1850.68 549.42L1853.51 541.765Z" fill="#0F172A"/>
<path d="M1825.86 11.6317L1827.92 17.1993L1833.49 19.2595L1827.92 21.3197L1825.86 26.8873L1823.8 21.3197L1818.23 19.2595L1823.8 17.1993L1825.86 11.6317Z" fill="#0F172A"/>
<path d="M1600.62 35.6522H1600.95" stroke="#0F172A" stroke-width="5" stroke-linecap="round"/>
<path d="M1539.59 238.606C1539.65 238.613 1539.63 238.628 1539.66 238.673" stroke="#0F172A" stroke-width="5" stroke-linecap="round"/>
<path d="M1846.1 287.643L1846.34 287.883" stroke="#0F172A" stroke-width="5" stroke-linecap="round"/>
<path d="M1663.73 550.096V550.48" stroke="#0F172A" stroke-width="5" stroke-linecap="round"/>
<path d="M269.227 552.778V553.014" stroke="#0F172A" stroke-width="5" stroke-linecap="round"/>
<path d="M84.0344 143.684H84.3192" stroke="#0F172A" stroke-width="5" stroke-linecap="round"/>
<path d="M280.768 16.0095C280.806 15.7006 280.877 15.7874 281.103 15.6742" stroke="#0F172A" stroke-width="5" stroke-linecap="round"/>
<path d="M372.978 207.806C373.219 208.02 373.363 208.047 373.649 208.142" stroke="#0F172A" stroke-width="5" stroke-linecap="round"/>
<path d="M148.591 354.619H148.786" stroke="#0F172A" stroke-width="5" stroke-linecap="round"/>
<path d="M60.4933 518.031H60.7177" stroke="#0F172A" stroke-width="5" stroke-linecap="round"/>
<path d="M1655.42 353.092H1655.72" stroke="#0F172A" stroke-width="5" stroke-linecap="round"/>
<path d="M1773.14 99.2174V99.7602" stroke="#0F172A" stroke-width="5" stroke-linecap="round"/>
<path fill-rule="evenodd" clip-rule="evenodd" d="M1473.73 52.9375H370.5V50.9375H1473.73C1490.85 50.9375 1504.73 64.8167 1504.73 81.9375V220.945C1504.73 238.064 1490.85 251.942 1473.73 251.945L1213 252H1212.94H399C382.984 252 370 264.984 370 281V420.002C370 436.018 382.984 449.002 399 449.002H1545.32L1532.45 436.973C1531.85 436.408 1531.85 435.49 1532.45 434.924C1533.06 434.359 1534.04 434.359 1534.65 434.924L1549.55 448.864C1549.86 449.154 1550.01 449.535 1550.01 449.915C1550.01 450.294 1549.86 450.676 1549.55 450.965L1534.65 464.905C1534.04 465.471 1533.06 465.471 1532.45 464.905C1531.85 464.339 1531.85 463.422 1532.45 462.856L1545.13 451.002H399C381.879 451.002 368 437.122 368 420.002V281C368 263.879 381.879 250 399 250H1212.94H1213L1473.73 249.945C1489.75 249.942 1502.73 236.959 1502.73 220.945V81.9375C1502.73 65.9212 1489.74 52.9375 1473.73 52.9375Z" fill="#0F172A"/>
<circle cx="369" cy="355" r="12.5" fill="#0497EC" stroke="#0F172A"/>
<path d="M397.62 351L394.52 337H397.5L399.4 346.48L402.12 337H404.86L407.58 346.46L409.48 337H412.36L409.28 351H406.22L403.46 341.24L400.66 351H397.62ZM414.147 351V337H424.907V339.52H417.047V342.72H422.227V345.16H417.047V348.48H424.987V351H414.147ZM429.721 351L435.481 337H438.821L444.521 351H441.381L439.961 347.32H434.181L432.741 351H429.721ZM435.081 345H439.081L437.081 339.84L435.081 345ZM445.709 351V337H452.549C453.496 337 454.329 337.187 455.049 337.56C455.783 337.92 456.349 338.427 456.749 339.08C457.163 339.733 457.369 340.487 457.369 341.34C457.369 342.233 457.123 343.02 456.629 343.7C456.136 344.38 455.476 344.887 454.649 345.22L457.749 351H454.509L451.769 345.64H448.609V351H445.709ZM448.609 343.26H452.289C452.943 343.26 453.463 343.087 453.849 342.74C454.249 342.393 454.449 341.94 454.449 341.38C454.449 340.82 454.249 340.367 453.849 340.02C453.463 339.673 452.943 339.5 452.289 339.5H448.609V343.26ZM459.283 351V337H470.043V339.52H462.183V342.72H467.363V345.16H462.183V348.48H470.123V351H459.283ZM476.198 351V337H479.098V342.64H485.538V337H488.438V351H485.538V345.26H479.098V351H476.198ZM490.983 351V337H501.743V339.52H493.883V342.72H499.063V345.16H493.883V348.48H501.823V351H490.983ZM503.873 351V337H510.713C511.66 337 512.493 337.187 513.213 337.56C513.947 337.92 514.513 338.427 514.913 339.08C515.327 339.733 515.533 340.487 515.533 341.34C515.533 342.233 515.287 343.02 514.793 343.7C514.3 344.38 513.64 344.887 512.813 345.22L515.913 351H512.673L509.933 345.64H506.773V351H503.873ZM506.773 343.26H510.453C511.107 343.26 511.627 343.087 512.013 342.74C512.413 342.393 512.613 341.94 512.613 341.38C512.613 340.82 512.413 340.367 512.013 340.02C511.627 339.673 511.107 339.5 510.453 339.5H506.773V343.26ZM517.448 351V337H528.208V339.52H520.348V342.72H525.528V345.16H520.348V348.48H528.288V351H517.448Z" fill="#0F172A"/>
<line x1="532" y1="356" x2="382" y2="356" stroke="#0F172A" stroke-width="2"/>
<circle cx="755.5" cy="449.5" r="8" fill="#848D9C" stroke="#0F172A"/>
<circle cx="493" cy="451" r="7.5" fill="#848D9C" stroke="#0F172A"/>
<circle cx="1018.5" cy="449.5" r="8" fill="#848D9C" stroke="#0F172A"/>
<circle cx="1281.5" cy="449.5" r="8" fill="#848D9C" stroke="#0F172A"/>
<line x1="755" y1="458" x2="755" y2="574" stroke="#848D9C" stroke-width="2"/>
<line x1="1018" y1="458" x2="1018" y2="574" stroke="#848D9C" stroke-width="2"/>
<line x1="1281" y1="458" x2="1281" y2="574" stroke="#848D9C" stroke-width="2"/>
<line x1="492" y1="458" x2="492" y2="574" stroke="#848D9C" stroke-width="2"/>
<path d="M1035.42 503V489H1041.76C1042.69 489 1043.51 489.173 1044.2 489.52C1044.91 489.867 1045.45 490.353 1045.84 490.98C1046.24 491.593 1046.44 492.313 1046.44 493.14C1046.44 494.06 1046.18 494.853 1045.66 495.52C1045.14 496.187 1044.44 496.667 1043.56 496.96L1046.68 503H1044.36L1041.46 497.26H1037.52V503H1035.42ZM1037.52 495.5H1041.6C1042.43 495.5 1043.09 495.293 1043.58 494.88C1044.09 494.453 1044.34 493.88 1044.34 493.16C1044.34 492.467 1044.09 491.907 1043.58 491.48C1043.09 491.053 1042.43 490.84 1041.6 490.84H1037.52V495.5ZM1048.6 503V489H1058.92V490.84H1050.7V495.04H1056.1V496.82H1050.7V501.16H1059V503H1048.6ZM1067.02 503.22C1066 503.22 1065.04 503.033 1064.14 502.66C1063.26 502.287 1062.49 501.773 1061.82 501.12C1061.16 500.453 1060.64 499.687 1060.26 498.82C1059.89 497.94 1059.7 497 1059.7 496C1059.7 495 1059.88 494.067 1060.24 493.2C1060.62 492.32 1061.14 491.553 1061.8 490.9C1062.47 490.233 1063.24 489.713 1064.12 489.34C1065 488.967 1065.96 488.78 1066.98 488.78C1068.09 488.78 1069.14 488.993 1070.12 489.42C1071.11 489.847 1071.94 490.44 1072.62 491.2L1071.18 492.6C1070.68 492 1070.05 491.54 1069.3 491.22C1068.57 490.887 1067.8 490.72 1066.98 490.72C1066.25 490.72 1065.57 490.853 1064.94 491.12C1064.33 491.387 1063.79 491.76 1063.32 492.24C1062.86 492.707 1062.49 493.26 1062.22 493.9C1061.97 494.54 1061.84 495.24 1061.84 496C1061.84 496.747 1061.97 497.447 1062.22 498.1C1062.49 498.74 1062.86 499.3 1063.32 499.78C1063.8 500.26 1064.36 500.633 1064.98 500.9C1065.61 501.167 1066.29 501.3 1067.02 501.3C1067.85 501.3 1068.6 501.127 1069.26 500.78C1069.94 500.433 1070.5 499.96 1070.92 499.36C1071.35 498.747 1071.61 498.06 1071.7 497.3H1067.04V495.46H1073.9V496.18C1073.9 497.18 1073.73 498.107 1073.38 498.96C1073.04 499.813 1072.55 500.56 1071.92 501.2C1071.31 501.84 1070.58 502.34 1069.74 502.7C1068.9 503.047 1068 503.22 1067.02 503.22ZM1081.8 503.22C1080.59 503.22 1079.54 502.967 1078.64 502.46C1077.75 501.953 1077.06 501.24 1076.58 500.32C1076.1 499.387 1075.86 498.287 1075.86 497.02V489H1077.96V497.02C1077.96 497.887 1078.12 498.64 1078.42 499.28C1078.74 499.92 1079.19 500.413 1079.76 500.76C1080.35 501.107 1081.03 501.28 1081.8 501.28C1082.6 501.28 1083.29 501.107 1083.86 500.76C1084.44 500.413 1084.88 499.92 1085.18 499.28C1085.5 498.64 1085.66 497.887 1085.66 497.02V489H1087.76V497.02C1087.76 498.287 1087.52 499.387 1087.02 500.32C1086.54 501.24 1085.86 501.953 1084.96 502.46C1084.07 502.967 1083.02 503.22 1081.8 503.22ZM1090.36 503V489H1092.46V501.14H1100.52V503H1090.36ZM1101.66 503L1107.44 489H1109.92L1115.64 503H1113.36L1111.74 498.9H1105.48L1103.84 503H1101.66ZM1106.16 497.16H1111.06L1108.62 491L1106.16 497.16ZM1118.4 503V490.86H1113.48V489H1125.42V490.86H1120.5V503H1118.4ZM1127.18 503V489H1137.5V490.84H1129.28V495.04H1134.68V496.82H1129.28V501.16H1137.58V503H1127.18ZM1141.84 501.12H1144.72C1145.45 501.12 1146.13 500.993 1146.76 500.74C1147.38 500.473 1147.93 500.113 1148.4 499.66C1148.88 499.193 1149.24 498.653 1149.5 498.04C1149.76 497.413 1149.9 496.733 1149.9 496C1149.9 495.28 1149.76 494.607 1149.5 493.98C1149.24 493.353 1148.88 492.813 1148.4 492.36C1147.93 491.893 1147.38 491.533 1146.76 491.28C1146.13 491.013 1145.45 490.88 1144.72 490.88H1141.84V501.12ZM1139.74 503V489H1144.68C1145.73 489 1146.7 489.18 1147.6 489.54C1148.49 489.887 1149.27 490.373 1149.94 491C1150.6 491.627 1151.12 492.367 1151.5 493.22C1151.87 494.073 1152.06 495 1152.06 496C1152.06 497.013 1151.87 497.947 1151.5 498.8C1151.14 499.64 1150.62 500.373 1149.96 501C1149.29 501.627 1148.5 502.12 1147.6 502.48C1146.7 502.827 1145.73 503 1144.68 503H1139.74ZM1157.05 503L1162.83 489H1165.31L1171.03 503H1168.75L1167.13 498.9H1160.87L1159.23 503H1157.05ZM1161.55 497.16H1166.45L1164.01 491L1161.55 497.16ZM1172.47 503V489H1174.51L1182.33 499.4V489H1184.31V503H1182.47L1174.47 492.28V503H1172.47ZM1189.28 501.12H1192.16C1192.89 501.12 1193.57 500.993 1194.2 500.74C1194.82 500.473 1195.37 500.113 1195.84 499.66C1196.32 499.193 1196.68 498.653 1196.94 498.04C1197.2 497.413 1197.34 496.733 1197.34 496C1197.34 495.28 1197.2 494.607 1196.94 493.98C1196.68 493.353 1196.32 492.813 1195.84 492.36C1195.37 491.893 1194.82 491.533 1194.2 491.28C1193.57 491.013 1192.89 490.88 1192.16 490.88H1189.28V501.12ZM1187.18 503V489H1192.12C1193.17 489 1194.14 489.18 1195.04 489.54C1195.93 489.887 1196.71 490.373 1197.38 491C1198.04 491.627 1198.56 492.367 1198.94 493.22C1199.31 494.073 1199.5 495 1199.5 496C1199.5 497.013 1199.31 497.947 1198.94 498.8C1198.58 499.64 1198.06 500.373 1197.4 501C1196.73 501.627 1195.94 502.12 1195.04 502.48C1194.14 502.827 1193.17 503 1192.12 503H1187.18ZM1035.42 525V511H1037.52V523.14H1045.58V525H1035.42ZM1047.71 525V511H1049.81V525H1047.71ZM1059.41 525.22C1058.37 525.22 1057.4 525.04 1056.51 524.68C1055.63 524.307 1054.85 523.793 1054.17 523.14C1053.5 522.473 1052.98 521.707 1052.61 520.84C1052.25 519.96 1052.07 519.013 1052.07 518C1052.07 516.987 1052.25 516.047 1052.61 515.18C1052.98 514.3 1053.5 513.533 1054.17 512.88C1054.85 512.213 1055.63 511.7 1056.53 511.34C1057.42 510.967 1058.38 510.78 1059.41 510.78C1060.14 510.78 1060.85 510.88 1061.55 511.08C1062.25 511.267 1062.9 511.54 1063.49 511.9C1064.09 512.26 1064.61 512.693 1065.05 513.2L1063.65 514.64C1063.13 514.013 1062.49 513.54 1061.75 513.22C1061 512.887 1060.22 512.72 1059.41 512.72C1058.66 512.72 1057.97 512.853 1057.33 513.12C1056.7 513.387 1056.15 513.76 1055.69 514.24C1055.22 514.707 1054.85 515.26 1054.59 515.9C1054.33 516.54 1054.21 517.24 1054.21 518C1054.21 518.747 1054.33 519.44 1054.59 520.08C1054.85 520.72 1055.23 521.28 1055.71 521.76C1056.19 522.24 1056.75 522.613 1057.39 522.88C1058.03 523.147 1058.72 523.28 1059.47 523.28C1060.28 523.28 1061.05 523.12 1061.77 522.8C1062.5 522.467 1063.12 522 1063.63 521.4L1065.01 522.8C1064.54 523.293 1064.01 523.727 1063.41 524.1C1062.82 524.46 1062.18 524.74 1061.49 524.94C1060.81 525.127 1060.11 525.22 1059.41 525.22ZM1067.06 525V511H1077.38V512.84H1069.16V517.04H1074.56V518.82H1069.16V523.16H1077.46V525H1067.06ZM1079.62 525V511H1081.66L1089.48 521.4V511H1091.46V525H1089.62L1081.62 514.28V525H1079.62ZM1099.07 525.2C1097.95 525.2 1096.87 524.98 1095.83 524.54C1094.79 524.1 1093.87 523.48 1093.07 522.68L1094.35 521.2C1095.11 521.947 1095.88 522.5 1096.67 522.86C1097.47 523.22 1098.3 523.4 1099.17 523.4C1099.85 523.4 1100.44 523.307 1100.95 523.12C1101.47 522.92 1101.87 522.64 1102.15 522.28C1102.43 521.92 1102.57 521.513 1102.57 521.06C1102.57 520.433 1102.35 519.953 1101.91 519.62C1101.47 519.287 1100.74 519.033 1099.73 518.86L1097.39 518.48C1096.11 518.253 1095.15 517.84 1094.51 517.24C1093.88 516.64 1093.57 515.84 1093.57 514.84C1093.57 514.04 1093.78 513.34 1094.21 512.74C1094.63 512.127 1095.23 511.653 1096.01 511.32C1096.79 510.987 1097.7 510.82 1098.73 510.82C1099.74 510.82 1100.73 510.987 1101.71 511.32C1102.69 511.64 1103.58 512.107 1104.37 512.72L1103.21 514.32C1101.7 513.173 1100.17 512.6 1098.63 512.6C1098.01 512.6 1097.48 512.687 1097.03 512.86C1096.57 513.033 1096.22 513.28 1095.97 513.6C1095.71 513.907 1095.59 514.267 1095.59 514.68C1095.59 515.253 1095.78 515.693 1096.17 516C1096.55 516.293 1097.19 516.507 1098.09 516.64L1100.35 517.02C1101.83 517.26 1102.91 517.693 1103.61 518.32C1104.3 518.947 1104.65 519.807 1104.65 520.9C1104.65 521.753 1104.41 522.507 1103.95 523.16C1103.48 523.8 1102.83 524.3 1101.99 524.66C1101.15 525.02 1100.17 525.2 1099.07 525.2ZM1106.59 525V511H1116.91V512.84H1108.69V517.04H1114.09V518.82H1108.69V523.16H1116.99V525H1106.59ZM1121.25 523.12H1124.13C1124.86 523.12 1125.54 522.993 1126.17 522.74C1126.8 522.473 1127.34 522.113 1127.81 521.66C1128.29 521.193 1128.66 520.653 1128.91 520.04C1129.18 519.413 1129.31 518.733 1129.31 518C1129.31 517.28 1129.18 516.607 1128.91 515.98C1128.66 515.353 1128.29 514.813 1127.81 514.36C1127.34 513.893 1126.8 513.533 1126.17 513.28C1125.54 513.013 1124.86 512.88 1124.13 512.88H1121.25V523.12ZM1119.15 525V511H1124.09C1125.14 511 1126.12 511.18 1127.01 511.54C1127.9 511.887 1128.68 512.373 1129.35 513C1130.02 513.627 1130.54 514.367 1130.91 515.22C1131.28 516.073 1131.47 517 1131.47 518C1131.47 519.013 1131.28 519.947 1130.91 520.8C1130.55 521.64 1130.04 522.373 1129.37 523C1128.7 523.627 1127.92 524.12 1127.01 524.48C1126.12 524.827 1125.14 525 1124.09 525H1119.15ZM1144.6 525.22C1143.56 525.22 1142.59 525.04 1141.7 524.68C1140.82 524.307 1140.04 523.793 1139.36 523.14C1138.69 522.473 1138.17 521.707 1137.8 520.84C1137.44 519.96 1137.26 519.013 1137.26 518C1137.26 516.987 1137.44 516.047 1137.8 515.18C1138.17 514.3 1138.69 513.533 1139.36 512.88C1140.04 512.213 1140.83 511.7 1141.72 511.34C1142.61 510.967 1143.57 510.78 1144.6 510.78C1145.33 510.78 1146.05 510.88 1146.74 511.08C1147.45 511.267 1148.09 511.54 1148.68 511.9C1149.28 512.26 1149.8 512.693 1150.24 513.2L1148.84 514.64C1148.32 514.013 1147.69 513.54 1146.94 513.22C1146.19 512.887 1145.41 512.72 1144.6 512.72C1143.85 512.72 1143.16 512.853 1142.52 513.12C1141.89 513.387 1141.35 513.76 1140.88 514.24C1140.41 514.707 1140.05 515.26 1139.78 515.9C1139.53 516.54 1139.4 517.24 1139.4 518C1139.4 518.747 1139.53 519.44 1139.78 520.08C1140.05 520.72 1140.42 521.28 1140.9 521.76C1141.38 522.24 1141.94 522.613 1142.58 522.88C1143.22 523.147 1143.91 523.28 1144.66 523.28C1145.47 523.28 1146.24 523.12 1146.96 522.8C1147.69 522.467 1148.31 522 1148.82 521.4L1150.2 522.8C1149.73 523.293 1149.2 523.727 1148.6 524.1C1148.01 524.46 1147.37 524.74 1146.68 524.94C1146 525.127 1145.31 525.22 1144.6 525.22ZM1158.64 525.22C1157.63 525.22 1156.68 525.04 1155.8 524.68C1154.92 524.307 1154.14 523.793 1153.46 523.14C1152.8 522.473 1152.28 521.707 1151.9 520.84C1151.54 519.96 1151.36 519.013 1151.36 518C1151.36 516.987 1151.54 516.047 1151.9 515.18C1152.28 514.3 1152.8 513.533 1153.46 512.88C1154.14 512.213 1154.92 511.7 1155.8 511.34C1156.68 510.967 1157.63 510.78 1158.64 510.78C1159.66 510.78 1160.6 510.967 1161.48 511.34C1162.38 511.7 1163.16 512.213 1163.82 512.88C1164.49 513.533 1165.01 514.3 1165.38 515.18C1165.76 516.047 1165.94 516.987 1165.94 518C1165.94 519.013 1165.76 519.96 1165.38 520.84C1165.01 521.707 1164.49 522.473 1163.82 523.14C1163.16 523.793 1162.38 524.307 1161.48 524.68C1160.6 525.04 1159.66 525.22 1158.64 525.22ZM1158.66 523.28C1159.38 523.28 1160.05 523.147 1160.66 522.88C1161.29 522.613 1161.84 522.247 1162.3 521.78C1162.77 521.3 1163.14 520.74 1163.4 520.1C1163.67 519.447 1163.8 518.747 1163.8 518C1163.8 517.24 1163.67 516.54 1163.4 515.9C1163.14 515.26 1162.77 514.707 1162.3 514.24C1161.84 513.76 1161.29 513.387 1160.66 513.12C1160.05 512.853 1159.38 512.72 1158.66 512.72C1157.93 512.72 1157.25 512.853 1156.62 513.12C1156 513.387 1155.45 513.76 1154.98 514.24C1154.52 514.707 1154.15 515.26 1153.88 515.9C1153.63 516.54 1153.5 517.233 1153.5 517.98C1153.5 518.74 1153.63 519.447 1153.88 520.1C1154.15 520.74 1154.52 521.3 1154.98 521.78C1155.45 522.247 1156 522.613 1156.62 522.88C1157.25 523.147 1157.93 523.28 1158.66 523.28ZM1168.15 525V511H1170.97L1175.35 519.96L1179.73 511H1182.53V525H1180.55V513.56L1175.33 524L1170.11 513.56V525H1168.15ZM1185.38 525V511H1191.86C1192.78 511 1193.58 511.18 1194.26 511.54C1194.94 511.887 1195.47 512.373 1195.86 513C1196.25 513.627 1196.44 514.353 1196.44 515.18C1196.44 516.007 1196.25 516.733 1195.86 517.36C1195.47 517.987 1194.93 518.48 1194.24 518.84C1193.56 519.187 1192.77 519.36 1191.86 519.36H1187.48V525H1185.38ZM1187.48 517.58H1191.64C1192.47 517.58 1193.12 517.367 1193.6 516.94C1194.09 516.5 1194.34 515.92 1194.34 515.2C1194.34 514.48 1194.09 513.907 1193.6 513.48C1193.12 513.053 1192.47 512.84 1191.64 512.84H1187.48V517.58ZM1195.17 525L1200.95 511H1203.43L1209.15 525H1206.87L1205.25 520.9H1198.99L1197.35 525H1195.17ZM1199.67 519.16H1204.57L1202.13 513L1199.67 519.16ZM1210.6 525V511H1212.64L1220.46 521.4V511H1222.44V525H1220.6L1212.6 514.28V525H1210.6ZM1229.5 525V519.44L1223.86 511H1226.3L1230.6 517.58L1234.9 511H1237.24L1231.6 519.48V525H1229.5ZM1040.16 547.2C1039.04 547.2 1037.96 546.98 1036.92 546.54C1035.88 546.1 1034.96 545.48 1034.16 544.68L1035.44 543.2C1036.2 543.947 1036.97 544.5 1037.76 544.86C1038.56 545.22 1039.39 545.4 1040.26 545.4C1040.94 545.4 1041.53 545.307 1042.04 545.12C1042.56 544.92 1042.96 544.64 1043.24 544.28C1043.52 543.92 1043.66 543.513 1043.66 543.06C1043.66 542.433 1043.44 541.953 1043 541.62C1042.56 541.287 1041.83 541.033 1040.82 540.86L1038.48 540.48C1037.2 540.253 1036.24 539.84 1035.6 539.24C1034.97 538.64 1034.66 537.84 1034.66 536.84C1034.66 536.04 1034.87 535.34 1035.3 534.74C1035.73 534.127 1036.33 533.653 1037.1 533.32C1037.89 532.987 1038.79 532.82 1039.82 532.82C1040.83 532.82 1041.83 532.987 1042.8 533.32C1043.79 533.64 1044.67 534.107 1045.46 534.72L1044.3 536.32C1042.79 535.173 1041.27 534.6 1039.72 534.6C1039.11 534.6 1038.57 534.687 1038.12 534.86C1037.67 535.033 1037.31 535.28 1037.06 535.6C1036.81 535.907 1036.68 536.267 1036.68 536.68C1036.68 537.253 1036.87 537.693 1037.26 538C1037.65 538.293 1038.29 538.507 1039.18 538.64L1041.44 539.02C1042.92 539.26 1044.01 539.693 1044.7 540.32C1045.39 540.947 1045.74 541.807 1045.74 542.9C1045.74 543.753 1045.51 544.507 1045.04 545.16C1044.57 545.8 1043.92 546.3 1043.08 546.66C1042.24 547.02 1041.27 547.2 1040.16 547.2ZM1051.23 547V534.86H1046.31V533H1058.25V534.86H1053.33V547H1051.23ZM1060.01 547V533H1066.35C1067.28 533 1068.1 533.173 1068.79 533.52C1069.5 533.867 1070.04 534.353 1070.43 534.98C1070.83 535.593 1071.03 536.313 1071.03 537.14C1071.03 538.06 1070.77 538.853 1070.25 539.52C1069.73 540.187 1069.03 540.667 1068.15 540.96L1071.27 547H1068.95L1066.05 541.26H1062.11V547H1060.01ZM1062.11 539.5H1066.19C1067.02 539.5 1067.68 539.293 1068.17 538.88C1068.68 538.453 1068.93 537.88 1068.93 537.16C1068.93 536.467 1068.68 535.907 1068.17 535.48C1067.68 535.053 1067.02 534.84 1066.19 534.84H1062.11V539.5ZM1078.89 547.22C1077.68 547.22 1076.63 546.967 1075.73 546.46C1074.84 545.953 1074.15 545.24 1073.67 544.32C1073.19 543.387 1072.95 542.287 1072.95 541.02V533H1075.05V541.02C1075.05 541.887 1075.21 542.64 1075.51 543.28C1075.83 543.92 1076.28 544.413 1076.85 544.76C1077.44 545.107 1078.12 545.28 1078.89 545.28C1079.69 545.28 1080.38 545.107 1080.95 544.76C1081.53 544.413 1081.97 543.92 1082.27 543.28C1082.59 542.64 1082.75 541.887 1082.75 541.02V533H1084.85V541.02C1084.85 542.287 1084.61 543.387 1084.11 544.32C1083.63 545.24 1082.95 545.953 1082.05 546.46C1081.16 546.967 1080.11 547.22 1078.89 547.22ZM1094.19 547.22C1093.15 547.22 1092.18 547.04 1091.29 546.68C1090.41 546.307 1089.63 545.793 1088.95 545.14C1088.28 544.473 1087.76 543.707 1087.39 542.84C1087.03 541.96 1086.85 541.013 1086.85 540C1086.85 538.987 1087.03 538.047 1087.39 537.18C1087.76 536.3 1088.28 535.533 1088.95 534.88C1089.63 534.213 1090.42 533.7 1091.31 533.34C1092.2 532.967 1093.16 532.78 1094.19 532.78C1094.92 532.78 1095.64 532.88 1096.33 533.08C1097.04 533.267 1097.68 533.54 1098.27 533.9C1098.87 534.26 1099.39 534.693 1099.83 535.2L1098.43 536.64C1097.91 536.013 1097.28 535.54 1096.53 535.22C1095.78 534.887 1095 534.72 1094.19 534.72C1093.44 534.72 1092.75 534.853 1092.11 535.12C1091.48 535.387 1090.94 535.76 1090.47 536.24C1090 536.707 1089.64 537.26 1089.37 537.9C1089.12 538.54 1088.99 539.24 1088.99 540C1088.99 540.747 1089.12 541.44 1089.37 542.08C1089.64 542.72 1090.01 543.28 1090.49 543.76C1090.97 544.24 1091.53 544.613 1092.17 544.88C1092.81 545.147 1093.5 545.28 1094.25 545.28C1095.06 545.28 1095.83 545.12 1096.55 544.8C1097.28 544.467 1097.9 544 1098.41 543.4L1099.79 544.8C1099.32 545.293 1098.79 545.727 1098.19 546.1C1097.6 546.46 1096.96 546.74 1096.27 546.94C1095.59 547.127 1094.9 547.22 1094.19 547.22ZM1105.88 547V534.86H1100.96V533H1112.9V534.86H1107.98V547H1105.88ZM1120.36 547.22C1119.14 547.22 1118.09 546.967 1117.2 546.46C1116.3 545.953 1115.62 545.24 1115.14 544.32C1114.66 543.387 1114.42 542.287 1114.42 541.02V533H1116.52V541.02C1116.52 541.887 1116.67 542.64 1116.98 543.28C1117.3 543.92 1117.74 544.413 1118.32 544.76C1118.9 545.107 1119.58 545.28 1120.36 545.28C1121.16 545.28 1121.84 545.107 1122.42 544.76C1122.99 544.413 1123.43 543.92 1123.74 543.28C1124.06 542.64 1124.22 541.887 1124.22 541.02V533H1126.32V541.02C1126.32 542.287 1126.07 543.387 1125.58 544.32C1125.1 545.24 1124.41 545.953 1123.52 546.46C1122.62 546.967 1121.57 547.22 1120.36 547.22ZM1128.92 547V533H1135.26C1136.19 533 1137 533.173 1137.7 533.52C1138.4 533.867 1138.95 534.353 1139.34 534.98C1139.74 535.593 1139.94 536.313 1139.94 537.14C1139.94 538.06 1139.68 538.853 1139.16 539.52C1138.64 540.187 1137.94 540.667 1137.06 540.96L1140.18 547H1137.86L1134.96 541.26H1131.02V547H1128.92ZM1131.02 539.5H1135.1C1135.92 539.5 1136.58 539.293 1137.08 538.88C1137.58 538.453 1137.84 537.88 1137.84 537.16C1137.84 536.467 1137.58 535.907 1137.08 535.48C1136.58 535.053 1135.92 534.84 1135.1 534.84H1131.02V539.5ZM1142.1 547V533H1152.42V534.84H1144.2V539.04H1149.6V540.82H1144.2V545.16H1152.5V547H1142.1Z" fill="#848D9C"/>
<path d="M776.52 501.12H779.4C780.133 501.12 780.813 500.993 781.44 500.74C782.067 500.473 782.613 500.113 783.08 499.66C783.56 499.193 783.927 498.653 784.18 498.04C784.447 497.413 784.58 496.733 784.58 496C784.58 495.28 784.447 494.607 784.18 493.98C783.927 493.353 783.56 492.813 783.08 492.36C782.613 491.893 782.067 491.533 781.44 491.28C780.813 491.013 780.133 490.88 779.4 490.88H776.52V501.12ZM774.42 503V489H779.36C780.413 489 781.387 489.18 782.28 489.54C783.173 489.887 783.953 490.373 784.62 491C785.287 491.627 785.807 492.367 786.18 493.22C786.553 494.073 786.74 495 786.74 496C786.74 497.013 786.553 497.947 786.18 498.8C785.82 499.64 785.307 500.373 784.64 501C783.973 501.627 783.187 502.12 782.28 502.48C781.387 502.827 780.413 503 779.36 503H774.42ZM788.951 503V489H799.271V490.84H791.051V495.04H796.451V496.82H791.051V501.16H799.351V503H788.951ZM801.51 503V489H811.87V490.84H803.61V495.14H809.05V496.92H803.61V503H801.51ZM813.912 503V489H816.012V503H813.912ZM774.42 525V511H776.52V523.14H784.58V525H774.42ZM786.705 525V511H797.025V512.84H788.805V517.04H794.205V518.82H788.805V523.16H797.105V525H786.705ZM799.264 525V511H801.304L809.124 521.4V511H811.104V525H809.264L801.264 514.28V525H799.264ZM816.071 523.12H818.951C819.684 523.12 820.364 522.993 820.991 522.74C821.617 522.473 822.164 522.113 822.631 521.66C823.111 521.193 823.477 520.653 823.731 520.04C823.997 519.413 824.131 518.733 824.131 518C824.131 517.28 823.997 516.607 823.731 515.98C823.477 515.353 823.111 514.813 822.631 514.36C822.164 513.893 821.617 513.533 820.991 513.28C820.364 513.013 819.684 512.88 818.951 512.88H816.071V523.12ZM813.971 525V511H818.911C819.964 511 820.937 511.18 821.831 511.54C822.724 511.887 823.504 512.373 824.171 513C824.837 513.627 825.357 514.367 825.731 515.22C826.104 516.073 826.291 517 826.291 518C826.291 519.013 826.104 519.947 825.731 520.8C825.371 521.64 824.857 522.373 824.191 523C823.524 523.627 822.737 524.12 821.831 524.48C820.937 524.827 819.964 525 818.911 525H813.971ZM828.502 525V511H838.822V512.84H830.602V517.04H836.002V518.82H830.602V523.16H838.902V525H828.502ZM841.061 525V511H847.401C848.334 511 849.147 511.173 849.841 511.52C850.547 511.867 851.094 512.353 851.481 512.98C851.881 513.593 852.081 514.313 852.081 515.14C852.081 516.06 851.821 516.853 851.301 517.52C850.781 518.187 850.081 518.667 849.201 518.96L852.321 525H850.001L847.101 519.26H843.161V525H841.061ZM843.161 517.5H847.241C848.067 517.5 848.727 517.293 849.221 516.88C849.727 516.453 849.981 515.88 849.981 515.16C849.981 514.467 849.727 513.907 849.221 513.48C848.727 513.053 848.067 512.84 847.241 512.84H843.161V517.5ZM859.043 525.2C857.923 525.2 856.843 524.98 855.803 524.54C854.763 524.1 853.843 523.48 853.043 522.68L854.323 521.2C855.083 521.947 855.856 522.5 856.643 522.86C857.443 523.22 858.276 523.4 859.143 523.4C859.823 523.4 860.416 523.307 860.923 523.12C861.443 522.92 861.843 522.64 862.123 522.28C862.403 521.92 862.543 521.513 862.543 521.06C862.543 520.433 862.323 519.953 861.883 519.62C861.443 519.287 860.716 519.033 859.703 518.86L857.363 518.48C856.083 518.253 855.123 517.84 854.483 517.24C853.856 516.64 853.543 515.84 853.543 514.84C853.543 514.04 853.756 513.34 854.183 512.74C854.609 512.127 855.209 511.653 855.983 511.32C856.769 510.987 857.676 510.82 858.703 510.82C859.716 510.82 860.709 510.987 861.683 511.32C862.669 511.64 863.556 512.107 864.343 512.72L863.183 514.32C861.676 513.173 860.149 512.6 858.603 512.6C857.989 512.6 857.456 512.687 857.003 512.86C856.549 513.033 856.196 513.28 855.943 513.6C855.689 513.907 855.563 514.267 855.563 514.68C855.563 515.253 855.756 515.693 856.143 516C856.529 516.293 857.169 516.507 858.063 516.64L860.323 517.02C861.803 517.26 862.889 517.693 863.583 518.32C864.276 518.947 864.623 519.807 864.623 520.9C864.623 521.753 864.389 522.507 863.923 523.16C863.456 523.8 862.803 524.3 861.963 524.66C861.123 525.02 860.149 525.2 859.043 525.2Z" fill="#848D9C"/>
<path d="M1300.42 503V489H1302.46L1310.28 499.4V489H1312.26V503H1310.42L1302.42 492.28V503H1300.42ZM1315.13 503V489H1325.45V490.84H1317.23V495.04H1322.63V496.82H1317.23V501.16H1325.53V503H1315.13ZM1333.51 503.22C1332.49 503.22 1331.55 503.04 1330.67 502.68C1329.79 502.307 1329.01 501.793 1328.33 501.14C1327.66 500.473 1327.14 499.707 1326.77 498.84C1326.41 497.96 1326.23 497.013 1326.23 496C1326.23 494.987 1326.41 494.047 1326.77 493.18C1327.14 492.3 1327.66 491.533 1328.33 490.88C1329.01 490.213 1329.79 489.7 1330.67 489.34C1331.55 488.967 1332.49 488.78 1333.51 488.78C1334.52 488.78 1335.47 488.967 1336.35 489.34C1337.24 489.7 1338.02 490.213 1338.69 490.88C1339.35 491.533 1339.87 492.3 1340.25 493.18C1340.62 494.047 1340.81 494.987 1340.81 496C1340.81 497.013 1340.62 497.96 1340.25 498.84C1339.87 499.707 1339.35 500.473 1338.69 501.14C1338.02 501.793 1337.24 502.307 1336.35 502.68C1335.47 503.04 1334.52 503.22 1333.51 503.22ZM1333.53 501.28C1334.25 501.28 1334.91 501.147 1335.53 500.88C1336.15 500.613 1336.7 500.247 1337.17 499.78C1337.63 499.3 1338 498.74 1338.27 498.1C1338.53 497.447 1338.67 496.747 1338.67 496C1338.67 495.24 1338.53 494.54 1338.27 493.9C1338 493.26 1337.63 492.707 1337.17 492.24C1336.7 491.76 1336.15 491.387 1335.53 491.12C1334.91 490.853 1334.25 490.72 1333.53 490.72C1332.79 490.72 1332.11 490.853 1331.49 491.12C1330.86 491.387 1330.31 491.76 1329.85 492.24C1329.38 492.707 1329.01 493.26 1328.75 493.9C1328.49 494.54 1328.37 495.233 1328.37 495.98C1328.37 496.74 1328.49 497.447 1328.75 498.1C1329.01 498.74 1329.38 499.3 1329.85 499.78C1330.31 500.247 1330.86 500.613 1331.49 500.88C1332.11 501.147 1332.79 501.28 1333.53 501.28ZM1343.02 503V489H1349.08C1350 489 1350.8 489.153 1351.48 489.46C1352.16 489.767 1352.68 490.2 1353.06 490.76C1353.43 491.307 1353.62 491.953 1353.62 492.7C1353.62 493.38 1353.44 493.98 1353.1 494.5C1352.75 495.02 1352.26 495.433 1351.64 495.74C1352.42 496.02 1353.04 496.447 1353.48 497.02C1353.93 497.58 1354.16 498.24 1354.16 499C1354.16 499.813 1353.96 500.52 1353.56 501.12C1353.17 501.72 1352.61 502.187 1351.88 502.52C1351.16 502.84 1350.31 503 1349.34 503H1343.02ZM1345.12 494.94H1348.96C1349.74 494.94 1350.37 494.753 1350.84 494.38C1351.3 494.007 1351.54 493.5 1351.54 492.86C1351.54 492.22 1351.3 491.713 1350.84 491.34C1350.37 490.967 1349.74 490.78 1348.96 490.78H1345.12V494.94ZM1345.12 501.22H1349.18C1350.06 501.22 1350.75 501.013 1351.26 500.6C1351.78 500.187 1352.04 499.627 1352.04 498.92C1352.04 498.227 1351.78 497.673 1351.26 497.26C1350.75 496.833 1350.06 496.62 1349.18 496.62H1345.12V501.22ZM1354.82 503L1360.6 489H1363.08L1368.8 503H1366.52L1364.9 498.9H1358.64L1357 503H1354.82ZM1359.32 497.16H1364.22L1361.78 491L1359.32 497.16ZM1370.24 503V489H1372.28L1380.1 499.4V489H1382.08V503H1380.24L1372.24 492.28V503H1370.24ZM1384.95 503V489H1387.05V495.48L1393.83 489H1396.49L1389.21 495.78L1396.71 503H1393.83L1387.05 496.36V503H1384.95ZM1400.74 503L1406.52 489H1409L1414.72 503H1412.44L1410.82 498.9H1404.56L1402.92 503H1400.74ZM1405.24 497.16H1410.14L1407.7 491L1405.24 497.16ZM1416.16 503V489H1418.2L1426.02 499.4V489H1428V503H1426.16L1418.16 492.28V503H1416.16ZM1432.97 501.12H1435.85C1436.58 501.12 1437.26 500.993 1437.89 500.74C1438.52 500.473 1439.06 500.113 1439.53 499.66C1440.01 499.193 1440.38 498.653 1440.63 498.04C1440.9 497.413 1441.03 496.733 1441.03 496C1441.03 495.28 1440.9 494.607 1440.63 493.98C1440.38 493.353 1440.01 492.813 1439.53 492.36C1439.06 491.893 1438.52 491.533 1437.89 491.28C1437.26 491.013 1436.58 490.88 1435.85 490.88H1432.97V501.12ZM1430.87 503V489H1435.81C1436.86 489 1437.84 489.18 1438.73 489.54C1439.62 489.887 1440.4 490.373 1441.07 491C1441.74 491.627 1442.26 492.367 1442.63 493.22C1443 494.073 1443.19 495 1443.19 496C1443.19 497.013 1443 497.947 1442.63 498.8C1442.27 499.64 1441.76 500.373 1441.09 501C1440.42 501.627 1439.64 502.12 1438.73 502.48C1437.84 502.827 1436.86 503 1435.81 503H1430.87ZM1300.42 525V511H1302.46L1310.28 521.4V511H1312.26V525H1310.42L1302.42 514.28V525H1300.42ZM1315.13 525V511H1325.45V512.84H1317.23V517.04H1322.63V518.82H1317.23V523.16H1325.53V525H1315.13ZM1333.51 525.22C1332.49 525.22 1331.55 525.04 1330.67 524.68C1329.79 524.307 1329.01 523.793 1328.33 523.14C1327.66 522.473 1327.14 521.707 1326.77 520.84C1326.41 519.96 1326.23 519.013 1326.23 518C1326.23 516.987 1326.41 516.047 1326.77 515.18C1327.14 514.3 1327.66 513.533 1328.33 512.88C1329.01 512.213 1329.79 511.7 1330.67 511.34C1331.55 510.967 1332.49 510.78 1333.51 510.78C1334.52 510.78 1335.47 510.967 1336.35 511.34C1337.24 511.7 1338.02 512.213 1338.69 512.88C1339.35 513.533 1339.87 514.3 1340.25 515.18C1340.62 516.047 1340.81 516.987 1340.81 518C1340.81 519.013 1340.62 519.96 1340.25 520.84C1339.87 521.707 1339.35 522.473 1338.69 523.14C1338.02 523.793 1337.24 524.307 1336.35 524.68C1335.47 525.04 1334.52 525.22 1333.51 525.22ZM1333.53 523.28C1334.25 523.28 1334.91 523.147 1335.53 522.88C1336.15 522.613 1336.7 522.247 1337.17 521.78C1337.63 521.3 1338 520.74 1338.27 520.1C1338.53 519.447 1338.67 518.747 1338.67 518C1338.67 517.24 1338.53 516.54 1338.27 515.9C1338 515.26 1337.63 514.707 1337.17 514.24C1336.7 513.76 1336.15 513.387 1335.53 513.12C1334.91 512.853 1334.25 512.72 1333.53 512.72C1332.79 512.72 1332.11 512.853 1331.49 513.12C1330.86 513.387 1330.31 513.76 1329.85 514.24C1329.38 514.707 1329.01 515.26 1328.75 515.9C1328.49 516.54 1328.37 517.233 1328.37 517.98C1328.37 518.74 1328.49 519.447 1328.75 520.1C1329.01 520.74 1329.38 521.3 1329.85 521.78C1330.31 522.247 1330.86 522.613 1331.49 522.88C1332.11 523.147 1332.79 523.28 1333.53 523.28ZM1343.02 525V511H1349.08C1350 511 1350.8 511.153 1351.48 511.46C1352.16 511.767 1352.68 512.2 1353.06 512.76C1353.43 513.307 1353.62 513.953 1353.62 514.7C1353.62 515.38 1353.44 515.98 1353.1 516.5C1352.75 517.02 1352.26 517.433 1351.64 517.74C1352.42 518.02 1353.04 518.447 1353.48 519.02C1353.93 519.58 1354.16 520.24 1354.16 521C1354.16 521.813 1353.96 522.52 1353.56 523.12C1353.17 523.72 1352.61 524.187 1351.88 524.52C1351.16 524.84 1350.31 525 1349.34 525H1343.02ZM1345.12 516.94H1348.96C1349.74 516.94 1350.37 516.753 1350.84 516.38C1351.3 516.007 1351.54 515.5 1351.54 514.86C1351.54 514.22 1351.3 513.713 1350.84 513.34C1350.37 512.967 1349.74 512.78 1348.96 512.78H1345.12V516.94ZM1345.12 523.22H1349.18C1350.06 523.22 1350.75 523.013 1351.26 522.6C1351.78 522.187 1352.04 521.627 1352.04 520.92C1352.04 520.227 1351.78 519.673 1351.26 519.26C1350.75 518.833 1350.06 518.62 1349.18 518.62H1345.12V523.22ZM1356.44 525V511H1362.78C1363.71 511 1364.52 511.173 1365.22 511.52C1365.92 511.867 1366.47 512.353 1366.86 512.98C1367.26 513.593 1367.46 514.313 1367.46 515.14C1367.46 516.06 1367.2 516.853 1366.68 517.52C1366.16 518.187 1365.46 518.667 1364.58 518.96L1367.7 525H1365.38L1362.48 519.26H1358.54V525H1356.44ZM1358.54 517.5H1362.62C1363.44 517.5 1364.1 517.293 1364.6 516.88C1365.1 516.453 1365.36 515.88 1365.36 515.16C1365.36 514.467 1365.1 513.907 1364.6 513.48C1364.1 513.053 1363.44 512.84 1362.62 512.84H1358.54V517.5ZM1376.3 525.22C1375.29 525.22 1374.34 525.04 1373.46 524.68C1372.58 524.307 1371.8 523.793 1371.12 523.14C1370.45 522.473 1369.93 521.707 1369.56 520.84C1369.2 519.96 1369.02 519.013 1369.02 518C1369.02 516.987 1369.2 516.047 1369.56 515.18C1369.93 514.3 1370.45 513.533 1371.12 512.88C1371.8 512.213 1372.58 511.7 1373.46 511.34C1374.34 510.967 1375.29 510.78 1376.3 510.78C1377.31 510.78 1378.26 510.967 1379.14 511.34C1380.03 511.7 1380.81 512.213 1381.48 512.88C1382.15 513.533 1382.67 514.3 1383.04 515.18C1383.41 516.047 1383.6 516.987 1383.6 518C1383.6 519.013 1383.41 519.96 1383.04 520.84C1382.67 521.707 1382.15 522.473 1381.48 523.14C1380.81 523.793 1380.03 524.307 1379.14 524.68C1378.26 525.04 1377.31 525.22 1376.3 525.22ZM1376.32 523.28C1377.04 523.28 1377.71 523.147 1378.32 522.88C1378.95 522.613 1379.49 522.247 1379.96 521.78C1380.43 521.3 1380.79 520.74 1381.06 520.1C1381.33 519.447 1381.46 518.747 1381.46 518C1381.46 517.24 1381.33 516.54 1381.06 515.9C1380.79 515.26 1380.43 514.707 1379.96 514.24C1379.49 513.76 1378.95 513.387 1378.32 513.12C1377.71 512.853 1377.04 512.72 1376.32 512.72C1375.59 512.72 1374.91 512.853 1374.28 513.12C1373.65 513.387 1373.11 513.76 1372.64 514.24C1372.17 514.707 1371.81 515.26 1371.54 515.9C1371.29 516.54 1371.16 517.233 1371.16 517.98C1371.16 518.74 1371.29 519.447 1371.54 520.1C1371.81 520.74 1372.17 521.3 1372.64 521.78C1373.11 522.247 1373.65 522.613 1374.28 522.88C1374.91 523.147 1375.59 523.28 1376.32 523.28ZM1385.81 525V511H1387.91V517.48L1394.69 511H1397.35L1390.07 517.78L1397.57 525H1394.69L1387.91 518.36V525H1385.81ZM1398.51 525V511H1408.83V512.84H1400.61V517.04H1406.01V518.82H1400.61V523.16H1408.91V525H1398.51ZM1411.06 525V511H1417.4C1418.34 511 1419.15 511.173 1419.84 511.52C1420.55 511.867 1421.1 512.353 1421.48 512.98C1421.88 513.593 1422.08 514.313 1422.08 515.14C1422.08 516.06 1421.82 516.853 1421.3 517.52C1420.78 518.187 1420.08 518.667 1419.2 518.96L1422.32 525H1420L1417.1 519.26H1413.16V525H1411.06ZM1413.16 517.5H1417.24C1418.07 517.5 1418.73 517.293 1419.22 516.88C1419.73 516.453 1419.98 515.88 1419.98 515.16C1419.98 514.467 1419.73 513.907 1419.22 513.48C1418.73 513.053 1418.07 512.84 1417.24 512.84H1413.16V517.5ZM1300.42 547V533H1306.9C1307.82 533 1308.62 533.18 1309.3 533.54C1309.98 533.887 1310.51 534.373 1310.9 535C1311.29 535.627 1311.48 536.353 1311.48 537.18C1311.48 538.007 1311.29 538.733 1310.9 539.36C1310.51 539.987 1309.97 540.48 1309.28 540.84C1308.6 541.187 1307.81 541.36 1306.9 541.36H1302.52V547H1300.42ZM1302.52 539.58H1306.68C1307.51 539.58 1308.16 539.367 1308.64 538.94C1309.13 538.5 1309.38 537.92 1309.38 537.2C1309.38 536.48 1309.13 535.907 1308.64 535.48C1308.16 535.053 1307.51 534.84 1306.68 534.84H1302.52V539.58ZM1310.21 547L1315.99 533H1318.47L1324.19 547H1321.91L1320.29 542.9H1314.03L1312.39 547H1310.21ZM1314.71 541.16H1319.61L1317.17 535L1314.71 541.16ZM1325.63 547V533H1331.97C1332.91 533 1333.72 533.173 1334.41 533.52C1335.12 533.867 1335.67 534.353 1336.05 534.98C1336.45 535.593 1336.65 536.313 1336.65 537.14C1336.65 538.06 1336.39 538.853 1335.87 539.52C1335.35 540.187 1334.65 540.667 1333.77 540.96L1336.89 547H1334.57L1331.67 541.26H1327.73V547H1325.63ZM1327.73 539.5H1331.81C1332.64 539.5 1333.3 539.293 1333.79 538.88C1334.3 538.453 1334.55 537.88 1334.55 537.16C1334.55 536.467 1334.3 535.907 1333.79 535.48C1333.3 535.053 1332.64 534.84 1331.81 534.84H1327.73V539.5ZM1342.31 547V534.86H1337.39V533H1349.33V534.86H1344.41V547H1342.31ZM1351.08 547V533H1353.12L1360.94 543.4V533H1362.92V547H1361.08L1353.08 536.28V547H1351.08ZM1365.79 547V533H1376.11V534.84H1367.89V539.04H1373.29V540.82H1367.89V545.16H1376.19V547H1365.79ZM1378.35 547V533H1384.69C1385.62 533 1386.44 533.173 1387.13 533.52C1387.84 533.867 1388.38 534.353 1388.77 534.98C1389.17 535.593 1389.37 536.313 1389.37 537.14C1389.37 538.06 1389.11 538.853 1388.59 539.52C1388.07 540.187 1387.37 540.667 1386.49 540.96L1389.61 547H1387.29L1384.39 541.26H1380.45V547H1378.35ZM1380.45 539.5H1384.53C1385.36 539.5 1386.02 539.293 1386.51 538.88C1387.02 538.453 1387.27 537.88 1387.27 537.16C1387.27 536.467 1387.02 535.907 1386.51 535.48C1386.02 535.053 1385.36 534.84 1384.53 534.84H1380.45V539.5ZM1396.33 547.2C1395.21 547.2 1394.13 546.98 1393.09 546.54C1392.05 546.1 1391.13 545.48 1390.33 544.68L1391.61 543.2C1392.37 543.947 1393.15 544.5 1393.93 544.86C1394.73 545.22 1395.57 545.4 1396.43 545.4C1397.11 545.4 1397.71 545.307 1398.21 545.12C1398.73 544.92 1399.13 544.64 1399.41 544.28C1399.69 543.92 1399.83 543.513 1399.83 543.06C1399.83 542.433 1399.61 541.953 1399.17 541.62C1398.73 541.287 1398.01 541.033 1396.99 540.86L1394.65 540.48C1393.37 540.253 1392.41 539.84 1391.77 539.24C1391.15 538.64 1390.83 537.84 1390.83 536.84C1390.83 536.04 1391.05 535.34 1391.47 534.74C1391.9 534.127 1392.5 533.653 1393.27 533.32C1394.06 532.987 1394.97 532.82 1395.99 532.82C1397.01 532.82 1398 532.987 1398.97 533.32C1399.96 533.64 1400.85 534.107 1401.63 534.72L1400.47 536.32C1398.97 535.173 1397.44 534.6 1395.89 534.6C1395.28 534.6 1394.75 534.687 1394.29 534.86C1393.84 535.033 1393.49 535.28 1393.23 535.6C1392.98 535.907 1392.85 536.267 1392.85 536.68C1392.85 537.253 1393.05 537.693 1393.43 538C1393.82 538.293 1394.46 538.507 1395.35 538.64L1397.61 539.02C1399.09 539.26 1400.18 539.693 1400.87 540.32C1401.57 540.947 1401.91 541.807 1401.91 542.9C1401.91 543.753 1401.68 544.507 1401.21 545.16C1400.75 545.8 1400.09 546.3 1399.25 546.66C1398.41 547.02 1397.44 547.2 1396.33 547.2ZM1403.86 547V533H1405.96V539H1413.4V533H1415.5V547H1413.4V540.9H1405.96V547H1403.86ZM1418.35 547V533H1420.45V547H1418.35ZM1423.31 547V533H1429.79C1430.71 533 1431.51 533.18 1432.19 533.54C1432.87 533.887 1433.4 534.373 1433.79 535C1434.18 535.627 1434.37 536.353 1434.37 537.18C1434.37 538.007 1434.18 538.733 1433.79 539.36C1433.4 539.987 1432.86 540.48 1432.17 540.84C1431.49 541.187 1430.7 541.36 1429.79 541.36H1425.41V547H1423.31ZM1425.41 539.58H1429.57C1430.4 539.58 1431.05 539.367 1431.53 538.94C1432.02 538.5 1432.27 537.92 1432.27 537.2C1432.27 536.48 1432.02 535.907 1431.53 535.48C1431.05 535.053 1430.4 534.84 1429.57 534.84H1425.41V539.58ZM1441.47 547.2C1440.35 547.2 1439.27 546.98 1438.23 546.54C1437.19 546.1 1436.27 545.48 1435.47 544.68L1436.75 543.2C1437.51 543.947 1438.28 544.5 1439.07 544.86C1439.87 545.22 1440.7 545.4 1441.57 545.4C1442.25 545.4 1442.84 545.307 1443.35 545.12C1443.87 544.92 1444.27 544.64 1444.55 544.28C1444.83 543.92 1444.97 543.513 1444.97 543.06C1444.97 542.433 1444.75 541.953 1444.31 541.62C1443.87 541.287 1443.14 541.033 1442.13 540.86L1439.79 540.48C1438.51 540.253 1437.55 539.84 1436.91 539.24C1436.28 538.64 1435.97 537.84 1435.97 536.84C1435.97 536.04 1436.18 535.34 1436.61 534.74C1437.04 534.127 1437.64 533.653 1438.41 533.32C1439.2 532.987 1440.1 532.82 1441.13 532.82C1442.14 532.82 1443.14 532.987 1444.11 533.32C1445.1 533.64 1445.98 534.107 1446.77 534.72L1445.61 536.32C1444.1 535.173 1442.58 534.6 1441.03 534.6C1440.42 534.6 1439.88 534.687 1439.43 534.86C1438.98 535.033 1438.62 535.28 1438.37 535.6C1438.12 535.907 1437.99 536.267 1437.99 536.68C1437.99 537.253 1438.18 537.693 1438.57 538C1438.96 538.293 1439.6 538.507 1440.49 538.64L1442.75 539.02C1444.23 539.26 1445.32 539.693 1446.01 540.32C1446.7 540.947 1447.05 541.807 1447.05 542.9C1447.05 543.753 1446.82 544.507 1446.35 545.16C1445.88 545.8 1445.23 546.3 1444.39 546.66C1443.55 547.02 1442.58 547.2 1441.47 547.2Z" fill="#848D9C"/>
<path d="M518.1 503.22C517.087 503.22 516.14 503.04 515.26 502.68C514.38 502.307 513.6 501.793 512.92 501.14C512.253 500.473 511.733 499.707 511.36 498.84C511 497.96 510.82 497.013 510.82 496C510.82 494.987 511 494.047 511.36 493.18C511.733 492.3 512.253 491.533 512.92 490.88C513.6 490.213 514.38 489.7 515.26 489.34C516.14 488.967 517.087 488.78 518.1 488.78C519.113 488.78 520.06 488.967 520.94 489.34C521.833 489.7 522.613 490.213 523.28 490.88C523.947 491.533 524.467 492.3 524.84 493.18C525.213 494.047 525.4 494.987 525.4 496C525.4 497.013 525.213 497.96 524.84 498.84C524.467 499.707 523.947 500.473 523.28 501.14C522.613 501.793 521.833 502.307 520.94 502.68C520.06 503.04 519.113 503.22 518.1 503.22ZM518.12 501.28C518.84 501.28 519.507 501.147 520.12 500.88C520.747 500.613 521.293 500.247 521.76 499.78C522.227 499.3 522.593 498.74 522.86 498.1C523.127 497.447 523.26 496.747 523.26 496C523.26 495.24 523.127 494.54 522.86 493.9C522.593 493.26 522.227 492.707 521.76 492.24C521.293 491.76 520.747 491.387 520.12 491.12C519.507 490.853 518.84 490.72 518.12 490.72C517.387 490.72 516.707 490.853 516.08 491.12C515.453 491.387 514.907 491.76 514.44 492.24C513.973 492.707 513.607 493.26 513.34 493.9C513.087 494.54 512.96 495.233 512.96 495.98C512.96 496.74 513.087 497.447 513.34 498.1C513.607 498.74 513.973 499.3 514.44 499.78C514.907 500.247 515.453 500.613 516.08 500.88C516.707 501.147 517.387 501.28 518.12 501.28ZM527.611 503V489H537.971V490.84H529.711V495.14H535.151V496.92H529.711V503H527.611ZM540.014 503V489H550.374V490.84H542.114V495.14H547.554V496.92H542.114V503H540.014ZM551.057 498.22V496.48H558.257V498.22H551.057ZM567.535 503.22C566.495 503.22 565.528 503.04 564.635 502.68C563.755 502.307 562.975 501.793 562.295 501.14C561.628 500.473 561.108 499.707 560.735 498.84C560.375 497.96 560.195 497.013 560.195 496C560.195 494.987 560.375 494.047 560.735 493.18C561.108 492.3 561.628 491.533 562.295 490.88C562.975 490.213 563.762 489.7 564.655 489.34C565.548 488.967 566.508 488.78 567.535 488.78C568.268 488.78 568.982 488.88 569.675 489.08C570.382 489.267 571.028 489.54 571.615 489.9C572.215 490.26 572.735 490.693 573.175 491.2L571.775 492.64C571.255 492.013 570.622 491.54 569.875 491.22C569.128 490.887 568.348 490.72 567.535 490.72C566.788 490.72 566.095 490.853 565.455 491.12C564.828 491.387 564.282 491.76 563.815 492.24C563.348 492.707 562.982 493.26 562.715 493.9C562.462 494.54 562.335 495.24 562.335 496C562.335 496.747 562.462 497.44 562.715 498.08C562.982 498.72 563.355 499.28 563.835 499.76C564.315 500.24 564.875 500.613 565.515 500.88C566.155 501.147 566.848 501.28 567.595 501.28C568.408 501.28 569.175 501.12 569.895 500.8C570.628 500.467 571.248 500 571.755 499.4L573.135 500.8C572.668 501.293 572.135 501.727 571.535 502.1C570.948 502.46 570.308 502.74 569.615 502.94C568.935 503.127 568.242 503.22 567.535 503.22ZM575.19 503V489H577.29V495H584.73V489H586.83V503H584.73V496.9H577.29V503H575.19ZM588.282 503L594.062 489H596.542L602.262 503H599.982L598.362 498.9H592.102L590.462 503H588.282ZM592.782 497.16H597.682L595.242 491L592.782 497.16ZM603.705 503V489H605.805V503H603.705ZM608.666 503V489H610.706L618.526 499.4V489H620.506V503H618.666L610.666 492.28V503H608.666ZM631.753 503V497.44L626.113 489H628.553L632.853 495.58L637.153 489H639.493L633.853 497.48V503H631.753ZM640.873 503V489H642.973V503H640.873ZM645.834 503V489H656.154V490.84H647.934V495.04H653.334V496.82H647.934V501.16H656.234V503H645.834ZM658.393 503V489H660.493V501.14H668.553V503H658.393ZM672.778 501.12H675.658C676.391 501.12 677.071 500.993 677.698 500.74C678.324 500.473 678.871 500.113 679.338 499.66C679.818 499.193 680.184 498.653 680.438 498.04C680.704 497.413 680.838 496.733 680.838 496C680.838 495.28 680.704 494.607 680.438 493.98C680.184 493.353 679.818 492.813 679.338 492.36C678.871 491.893 678.324 491.533 677.698 491.28C677.071 491.013 676.391 490.88 675.658 490.88H672.778V501.12ZM670.678 503V489H675.618C676.671 489 677.644 489.18 678.538 489.54C679.431 489.887 680.211 490.373 680.878 491C681.544 491.627 682.064 492.367 682.438 493.22C682.811 494.073 682.998 495 682.998 496C682.998 497.013 682.811 497.947 682.438 498.8C682.078 499.64 681.564 500.373 680.898 501C680.231 501.627 679.444 502.12 678.538 502.48C677.644 502.827 676.671 503 675.618 503H670.678ZM513.68 525L510.62 511H512.78L514.96 521.7L518.12 511H520.12L523.28 521.68L525.48 511H527.54L524.48 525H522.32L519.1 514L515.86 525H513.68ZM529.584 525V511H531.684V525H529.584ZM538.385 525V512.86H533.465V511H545.405V512.86H540.485V525H538.385ZM547.162 525V511H549.262V517H556.702V511H558.802V525H556.702V518.9H549.262V525H547.162ZM572.514 525.22C571.501 525.22 570.554 525.04 569.674 524.68C568.794 524.307 568.014 523.793 567.334 523.14C566.667 522.473 566.147 521.707 565.774 520.84C565.414 519.96 565.234 519.013 565.234 518C565.234 516.987 565.414 516.047 565.774 515.18C566.147 514.3 566.667 513.533 567.334 512.88C568.014 512.213 568.794 511.7 569.674 511.34C570.554 510.967 571.501 510.78 572.514 510.78C573.527 510.78 574.474 510.967 575.354 511.34C576.247 511.7 577.027 512.213 577.694 512.88C578.361 513.533 578.881 514.3 579.254 515.18C579.627 516.047 579.814 516.987 579.814 518C579.814 519.013 579.627 519.96 579.254 520.84C578.881 521.707 578.361 522.473 577.694 523.14C577.027 523.793 576.247 524.307 575.354 524.68C574.474 525.04 573.527 525.22 572.514 525.22ZM572.534 523.28C573.254 523.28 573.921 523.147 574.534 522.88C575.161 522.613 575.707 522.247 576.174 521.78C576.641 521.3 577.007 520.74 577.274 520.1C577.541 519.447 577.674 518.747 577.674 518C577.674 517.24 577.541 516.54 577.274 515.9C577.007 515.26 576.641 514.707 576.174 514.24C575.707 513.76 575.161 513.387 574.534 513.12C573.921 512.853 573.254 512.72 572.534 512.72C571.801 512.72 571.121 512.853 570.494 513.12C569.867 513.387 569.321 513.76 568.854 514.24C568.387 514.707 568.021 515.26 567.754 515.9C567.501 516.54 567.374 517.233 567.374 517.98C567.374 518.74 567.501 519.447 567.754 520.1C568.021 520.74 568.387 521.3 568.854 521.78C569.321 522.247 569.867 522.613 570.494 522.88C571.121 523.147 571.801 523.28 572.534 523.28ZM582.025 525V511H584.065L591.885 521.4V511H593.865V525H592.025L584.025 514.28V525H582.025ZM596.233 520.22V518.48H603.433V520.22H596.233ZM612.711 525.22C611.671 525.22 610.704 525.04 609.811 524.68C608.931 524.307 608.151 523.793 607.471 523.14C606.804 522.473 606.284 521.707 605.911 520.84C605.551 519.96 605.371 519.013 605.371 518C605.371 516.987 605.551 516.047 605.911 515.18C606.284 514.3 606.804 513.533 607.471 512.88C608.151 512.213 608.937 511.7 609.831 511.34C610.724 510.967 611.684 510.78 612.711 510.78C613.444 510.78 614.157 510.88 614.851 511.08C615.557 511.267 616.204 511.54 616.791 511.9C617.391 512.26 617.911 512.693 618.351 513.2L616.951 514.64C616.431 514.013 615.797 513.54 615.051 513.22C614.304 512.887 613.524 512.72 612.711 512.72C611.964 512.72 611.271 512.853 610.631 513.12C610.004 513.387 609.457 513.76 608.991 514.24C608.524 514.707 608.157 515.26 607.891 515.9C607.637 516.54 607.511 517.24 607.511 518C607.511 518.747 607.637 519.44 607.891 520.08C608.157 520.72 608.531 521.28 609.011 521.76C609.491 522.24 610.051 522.613 610.691 522.88C611.331 523.147 612.024 523.28 612.771 523.28C613.584 523.28 614.351 523.12 615.071 522.8C615.804 522.467 616.424 522 616.931 521.4L618.311 522.8C617.844 523.293 617.311 523.727 616.711 524.1C616.124 524.46 615.484 524.74 614.791 524.94C614.111 525.127 613.417 525.22 612.711 525.22ZM620.365 525V511H622.465V517H629.905V511H632.005V525H629.905V518.9H622.465V525H620.365ZM633.458 525L639.238 511H641.718L647.438 525H645.158L643.537 520.9H637.278L635.638 525H633.458ZM637.958 519.16H642.858L640.418 513L637.958 519.16ZM648.881 525V511H650.981V525H648.881ZM653.842 525V511H655.882L663.702 521.4V511H665.682V525H663.842L655.842 514.28V525H653.842ZM518.16 547.22C517.12 547.22 516.153 547.04 515.26 546.68C514.38 546.307 513.6 545.793 512.92 545.14C512.253 544.473 511.733 543.707 511.36 542.84C511 541.96 510.82 541.013 510.82 540C510.82 538.987 511 538.047 511.36 537.18C511.733 536.3 512.253 535.533 512.92 534.88C513.6 534.213 514.387 533.7 515.28 533.34C516.173 532.967 517.133 532.78 518.16 532.78C518.893 532.78 519.607 532.88 520.3 533.08C521.007 533.267 521.653 533.54 522.24 533.9C522.84 534.26 523.36 534.693 523.8 535.2L522.4 536.64C521.88 536.013 521.247 535.54 520.5 535.22C519.753 534.887 518.973 534.72 518.16 534.72C517.413 534.72 516.72 534.853 516.08 535.12C515.453 535.387 514.907 535.76 514.44 536.24C513.973 536.707 513.607 537.26 513.34 537.9C513.087 538.54 512.96 539.24 512.96 540C512.96 540.747 513.087 541.44 513.34 542.08C513.607 542.72 513.98 543.28 514.46 543.76C514.94 544.24 515.5 544.613 516.14 544.88C516.78 545.147 517.473 545.28 518.22 545.28C519.033 545.28 519.8 545.12 520.52 544.8C521.253 544.467 521.873 544 522.38 543.4L523.76 544.8C523.293 545.293 522.76 545.727 522.16 546.1C521.573 546.46 520.933 546.74 520.24 546.94C519.56 547.127 518.867 547.22 518.16 547.22ZM531.515 547.22C530.301 547.22 529.248 546.967 528.355 546.46C527.461 545.953 526.775 545.24 526.295 544.32C525.815 543.387 525.575 542.287 525.575 541.02V533H527.675V541.02C527.675 541.887 527.828 542.64 528.135 543.28C528.455 543.92 528.901 544.413 529.475 544.76C530.061 545.107 530.741 545.28 531.515 545.28C532.315 545.28 533.001 545.107 533.575 544.76C534.148 544.413 534.588 543.92 534.895 543.28C535.215 542.64 535.375 541.887 535.375 541.02V533H537.475V541.02C537.475 542.287 537.228 543.387 536.735 544.32C536.255 545.24 535.568 545.953 534.675 546.46C533.781 546.967 532.728 547.22 531.515 547.22ZM544.812 547.2C543.692 547.2 542.612 546.98 541.572 546.54C540.532 546.1 539.612 545.48 538.812 544.68L540.092 543.2C540.852 543.947 541.626 544.5 542.412 544.86C543.212 545.22 544.046 545.4 544.912 545.4C545.592 545.4 546.186 545.307 546.692 545.12C547.212 544.92 547.612 544.64 547.892 544.28C548.172 543.92 548.312 543.513 548.312 543.06C548.312 542.433 548.092 541.953 547.652 541.62C547.212 541.287 546.486 541.033 545.472 540.86L543.132 540.48C541.852 540.253 540.892 539.84 540.252 539.24C539.626 538.64 539.312 537.84 539.312 536.84C539.312 536.04 539.526 535.34 539.952 534.74C540.379 534.127 540.979 533.653 541.752 533.32C542.539 532.987 543.446 532.82 544.472 532.82C545.486 532.82 546.479 532.987 547.452 533.32C548.439 533.64 549.326 534.107 550.112 534.72L548.952 536.32C547.446 535.173 545.919 534.6 544.372 534.6C543.759 534.6 543.226 534.687 542.772 534.86C542.319 535.033 541.966 535.28 541.712 535.6C541.459 535.907 541.332 536.267 541.332 536.68C541.332 537.253 541.526 537.693 541.912 538C542.299 538.293 542.939 538.507 543.832 538.64L546.092 539.02C547.572 539.26 548.659 539.693 549.352 540.32C550.046 540.947 550.392 541.807 550.392 542.9C550.392 543.753 550.159 544.507 549.692 545.16C549.226 545.8 548.572 546.3 547.732 546.66C546.892 547.02 545.919 547.2 544.812 547.2ZM555.885 547V534.86H550.965V533H562.905V534.86H557.985V547H555.885ZM570.385 547.22C569.372 547.22 568.425 547.04 567.545 546.68C566.665 546.307 565.885 545.793 565.205 545.14C564.538 544.473 564.018 543.707 563.645 542.84C563.285 541.96 563.105 541.013 563.105 540C563.105 538.987 563.285 538.047 563.645 537.18C564.018 536.3 564.538 535.533 565.205 534.88C565.885 534.213 566.665 533.7 567.545 533.34C568.425 532.967 569.372 532.78 570.385 532.78C571.398 532.78 572.345 532.967 573.225 533.34C574.118 533.7 574.898 534.213 575.565 534.88C576.232 535.533 576.752 536.3 577.125 537.18C577.498 538.047 577.685 538.987 577.685 540C577.685 541.013 577.498 541.96 577.125 542.84C576.752 543.707 576.232 544.473 575.565 545.14C574.898 545.793 574.118 546.307 573.225 546.68C572.345 547.04 571.398 547.22 570.385 547.22ZM570.405 545.28C571.125 545.28 571.792 545.147 572.405 544.88C573.032 544.613 573.578 544.247 574.045 543.78C574.512 543.3 574.878 542.74 575.145 542.1C575.412 541.447 575.545 540.747 575.545 540C575.545 539.24 575.412 538.54 575.145 537.9C574.878 537.26 574.512 536.707 574.045 536.24C573.578 535.76 573.032 535.387 572.405 535.12C571.792 534.853 571.125 534.72 570.405 534.72C569.672 534.72 568.992 534.853 568.365 535.12C567.738 535.387 567.192 535.76 566.725 536.24C566.258 536.707 565.892 537.26 565.625 537.9C565.372 538.54 565.245 539.233 565.245 539.98C565.245 540.74 565.372 541.447 565.625 542.1C565.892 542.74 566.258 543.3 566.725 543.78C567.192 544.247 567.738 544.613 568.365 544.88C568.992 545.147 569.672 545.28 570.405 545.28ZM581.997 545.12H584.877C585.61 545.12 586.29 544.993 586.917 544.74C587.543 544.473 588.09 544.113 588.557 543.66C589.037 543.193 589.403 542.653 589.657 542.04C589.923 541.413 590.057 540.733 590.057 540C590.057 539.28 589.923 538.607 589.657 537.98C589.403 537.353 589.037 536.813 588.557 536.36C588.09 535.893 587.543 535.533 586.917 535.28C586.29 535.013 585.61 534.88 584.877 534.88H581.997V545.12ZM579.897 547V533H584.837C585.89 533 586.863 533.18 587.757 533.54C588.65 533.887 589.43 534.373 590.097 535C590.763 535.627 591.283 536.367 591.657 537.22C592.03 538.073 592.217 539 592.217 540C592.217 541.013 592.03 541.947 591.657 542.8C591.297 543.64 590.783 544.373 590.117 545C589.45 545.627 588.663 546.12 587.757 546.48C586.863 546.827 585.89 547 584.837 547H579.897ZM597.319 547V541.44L591.679 533H594.119L598.419 539.58L602.719 533H605.059L599.419 541.48V547H597.319Z" fill="#848D9C"/>
<circle cx="896.5" cy="250.5" r="8" fill="#91B845" stroke="#0F172A"/>
<circle cx="633.5" cy="250.5" r="8" fill="#91B845" stroke="#0F172A"/>
<circle cx="1159.5" cy="250.5" r="8" fill="#91B845" stroke="#0F172A"/>
<line x1="896" y1="258" x2="896" y2="408" stroke="#0F172A" stroke-width="2"/>
<line x1="1159" y1="258" x2="1159" y2="408" stroke="#0F172A" stroke-width="2"/>
<line x1="633" y1="258" x2="633" y2="408" stroke="#0F172A" stroke-width="2"/>
<path d="M1187.08 329V317.56H1182.36V315H1194.68V317.56H1189.98V329H1187.08ZM1202.31 329.22C1201.27 329.22 1200.3 329.04 1199.41 328.68C1198.51 328.307 1197.73 327.793 1197.05 327.14C1196.38 326.473 1195.85 325.707 1195.47 324.84C1195.09 323.96 1194.91 323.013 1194.91 322C1194.91 320.987 1195.09 320.047 1195.47 319.18C1195.85 318.3 1196.38 317.533 1197.05 316.88C1197.73 316.213 1198.51 315.7 1199.41 315.34C1200.3 314.967 1201.27 314.78 1202.31 314.78C1203.35 314.78 1204.31 314.967 1205.21 315.34C1206.11 315.7 1206.9 316.213 1207.57 316.88C1208.25 317.533 1208.77 318.3 1209.15 319.18C1209.52 320.047 1209.71 320.987 1209.71 322C1209.71 323.013 1209.52 323.96 1209.15 324.84C1208.77 325.707 1208.25 326.473 1207.57 327.14C1206.9 327.793 1206.11 328.307 1205.21 328.68C1204.31 329.04 1203.35 329.22 1202.31 329.22ZM1202.31 326.56C1202.95 326.56 1203.53 326.447 1204.07 326.22C1204.6 325.98 1205.07 325.66 1205.47 325.26C1205.87 324.847 1206.18 324.36 1206.41 323.8C1206.63 323.24 1206.75 322.64 1206.75 322C1206.75 321.347 1206.63 320.747 1206.41 320.2C1206.18 319.64 1205.87 319.16 1205.47 318.76C1205.07 318.347 1204.6 318.027 1204.07 317.8C1203.53 317.56 1202.95 317.44 1202.31 317.44C1201.68 317.44 1201.1 317.56 1200.57 317.8C1200.03 318.027 1199.57 318.347 1199.17 318.76C1198.77 319.16 1198.45 319.64 1198.23 320.2C1198 320.747 1197.89 321.34 1197.89 321.98C1197.89 322.633 1198 323.24 1198.23 323.8C1198.45 324.36 1198.77 324.847 1199.17 325.26C1199.57 325.66 1200.03 325.98 1200.57 326.22C1201.1 326.447 1201.68 326.56 1202.31 326.56ZM1211.72 329V315H1214.62V321.26L1220.74 315H1224.28L1217.48 321.66L1224.6 329H1220.72L1214.62 322.5V329H1211.72ZM1225.17 329V315H1235.93V317.52H1228.07V320.72H1233.25V323.16H1228.07V326.48H1236.01V329H1225.17ZM1238.06 329V315H1240.82L1247.78 324.04V315H1250.5V329H1247.94L1240.8 319.64V329H1238.06ZM1262.07 329.2C1260.94 329.2 1259.83 328.993 1258.75 328.58C1257.67 328.153 1256.71 327.553 1255.87 326.78L1257.53 324.7C1258.34 325.42 1259.12 325.94 1259.87 326.26C1260.63 326.58 1261.43 326.74 1262.27 326.74C1262.86 326.74 1263.36 326.673 1263.79 326.54C1264.22 326.393 1264.54 326.187 1264.77 325.92C1265.01 325.653 1265.13 325.34 1265.13 324.98C1265.13 324.5 1264.96 324.133 1264.61 323.88C1264.26 323.613 1263.67 323.407 1262.83 323.26L1260.05 322.78C1258.86 322.58 1257.96 322.16 1257.33 321.52C1256.72 320.88 1256.41 320.053 1256.41 319.04C1256.41 318.173 1256.63 317.42 1257.07 316.78C1257.52 316.14 1258.16 315.653 1258.97 315.32C1259.8 314.973 1260.78 314.8 1261.91 314.8C1262.94 314.8 1263.96 314.973 1264.97 315.32C1266 315.667 1266.9 316.147 1267.69 316.76L1266.13 318.92C1264.66 317.8 1263.19 317.24 1261.71 317.24C1261.19 317.24 1260.74 317.307 1260.35 317.44C1259.96 317.573 1259.66 317.76 1259.45 318C1259.25 318.227 1259.15 318.5 1259.15 318.82C1259.15 319.247 1259.3 319.58 1259.61 319.82C1259.92 320.047 1260.43 320.22 1261.15 320.34L1263.79 320.78C1265.19 321.007 1266.24 321.453 1266.93 322.12C1267.62 322.773 1267.97 323.64 1267.97 324.72C1267.97 325.627 1267.73 326.42 1267.25 327.1C1266.77 327.767 1266.08 328.287 1265.19 328.66C1264.31 329.02 1263.27 329.2 1262.07 329.2ZM1268.15 329L1273.91 315H1277.25L1282.95 329H1279.81L1278.39 325.32H1272.61L1271.17 329H1268.15ZM1273.51 323H1277.51L1275.51 317.84L1273.51 323ZM1284.14 329V315H1287.04V326.44H1294.7V329H1284.14ZM1296.7 329V315H1307.46V317.52H1299.6V320.72H1304.78V323.16H1299.6V326.48H1307.54V329H1296.7Z" fill="#0F172A"/>
<path d="M920.26 329V315H923.16V329H920.26ZM925.709 329V315H928.469L935.429 324.04V315H938.149V329H935.589L928.449 319.64V329H925.709ZM945.69 329.2C944.556 329.2 943.45 328.993 942.37 328.58C941.29 328.153 940.33 327.553 939.49 326.78L941.15 324.7C941.963 325.42 942.743 325.94 943.49 326.26C944.25 326.58 945.05 326.74 945.89 326.74C946.476 326.74 946.983 326.673 947.41 326.54C947.836 326.393 948.163 326.187 948.39 325.92C948.63 325.653 948.75 325.34 948.75 324.98C948.75 324.5 948.576 324.133 948.23 323.88C947.883 323.613 947.29 323.407 946.45 323.26L943.67 322.78C942.483 322.58 941.576 322.16 940.95 321.52C940.336 320.88 940.03 320.053 940.03 319.04C940.03 318.173 940.25 317.42 940.69 316.78C941.143 316.14 941.776 315.653 942.59 315.32C943.416 314.973 944.396 314.8 945.53 314.8C946.556 314.8 947.576 314.973 948.59 315.32C949.616 315.667 950.523 316.147 951.31 316.76L949.75 318.92C948.283 317.8 946.81 317.24 945.33 317.24C944.81 317.24 944.356 317.307 943.97 317.44C943.583 317.573 943.283 317.76 943.07 318C942.87 318.227 942.77 318.5 942.77 318.82C942.77 319.247 942.923 319.58 943.23 319.82C943.536 320.047 944.05 320.22 944.77 320.34L947.41 320.78C948.81 321.007 949.856 321.453 950.55 322.12C951.243 322.773 951.59 323.64 951.59 324.72C951.59 325.627 951.35 326.42 950.87 327.1C950.39 327.767 949.703 328.287 948.81 328.66C947.93 329.02 946.89 329.2 945.69 329.2ZM959.287 329.2C958.02 329.2 956.92 328.947 955.987 328.44C955.067 327.933 954.354 327.213 953.847 326.28C953.34 325.333 953.087 324.227 953.087 322.96V315H955.987V322.96C955.987 323.68 956.12 324.313 956.387 324.86C956.667 325.393 957.054 325.807 957.547 326.1C958.054 326.38 958.64 326.52 959.307 326.52C959.974 326.52 960.554 326.38 961.047 326.1C961.54 325.807 961.92 325.393 962.187 324.86C962.467 324.313 962.607 323.68 962.607 322.96V315H965.487V322.96C965.487 324.213 965.234 325.313 964.727 326.26C964.22 327.193 963.5 327.92 962.567 328.44C961.647 328.947 960.554 329.2 959.287 329.2ZM967.799 329V315H974.639C975.586 315 976.419 315.187 977.139 315.56C977.872 315.92 978.439 316.427 978.839 317.08C979.252 317.733 979.459 318.487 979.459 319.34C979.459 320.233 979.212 321.02 978.719 321.7C978.226 322.38 977.566 322.887 976.739 323.22L979.839 329H976.599L973.859 323.64H970.699V329H967.799ZM970.699 321.26H974.379C975.032 321.26 975.552 321.087 975.939 320.74C976.339 320.393 976.539 319.94 976.539 319.38C976.539 318.82 976.339 318.367 975.939 318.02C975.552 317.673 975.032 317.5 974.379 317.5H970.699V321.26ZM980.229 329L985.989 315H989.329L995.029 329H991.889L990.469 325.32H984.689L983.249 329H980.229ZM985.589 323H989.589L987.589 317.84L985.589 323ZM996.217 329V315H998.977L1005.94 324.04V315H1008.66V329H1006.1L998.957 319.64V329H996.217ZM1018.1 329.2C1017.06 329.2 1016.08 329.02 1015.18 328.66C1014.27 328.287 1013.48 327.773 1012.8 327.12C1012.13 326.467 1011.6 325.707 1011.22 324.84C1010.84 323.96 1010.66 323.013 1010.66 322C1010.66 320.973 1010.84 320.027 1011.22 319.16C1011.6 318.28 1012.14 317.513 1012.82 316.86C1013.5 316.207 1014.28 315.7 1015.18 315.34C1016.08 314.967 1017.06 314.78 1018.1 314.78C1018.87 314.78 1019.62 314.887 1020.34 315.1C1021.06 315.313 1021.72 315.613 1022.34 316C1022.96 316.387 1023.5 316.853 1023.94 317.4L1021.98 319.34C1021.47 318.713 1020.88 318.24 1020.22 317.92C1019.56 317.6 1018.86 317.44 1018.1 317.44C1017.47 317.44 1016.88 317.56 1016.34 317.8C1015.79 318.027 1015.32 318.347 1014.92 318.76C1014.52 319.16 1014.2 319.64 1013.98 320.2C1013.75 320.747 1013.64 321.347 1013.64 322C1013.64 322.64 1013.75 323.24 1013.98 323.8C1014.2 324.347 1014.52 324.827 1014.94 325.24C1015.35 325.64 1015.83 325.953 1016.38 326.18C1016.94 326.407 1017.54 326.52 1018.2 326.52C1018.93 326.52 1019.62 326.367 1020.26 326.06C1020.9 325.753 1021.46 325.313 1021.96 324.74L1023.86 326.62C1023.42 327.153 1022.89 327.613 1022.28 328C1021.66 328.387 1021 328.687 1020.28 328.9C1019.57 329.1 1018.84 329.2 1018.1 329.2ZM1025.55 329V315H1036.31V317.52H1028.45V320.72H1033.63V323.16H1028.45V326.48H1036.39V329H1025.55Z" fill="#0F172A"/>
<path d="M657.26 329V315H668.02V317.52H660.16V320.72H665.34V323.16H660.16V326.48H668.1V329H657.26ZM673.971 329V317.56H669.251V315H681.571V317.56H676.871V329H673.971ZM683.198 329V315H686.098V320.64H692.538V315H695.438V329H692.538V323.26H686.098V329H683.198ZM701.663 326.42V322.9H698.383V320.84H701.663V317.32H703.783V320.84H707.063V322.9H703.783V326.42H701.663Z" fill="#0F172A"/>
<circle cx="755.5" cy="51.5" r="8" fill="#91B845" stroke="#0F172A"/>
<circle cx="1018.5" cy="51.5" r="8" fill="#91B845" stroke="#0F172A"/>
<circle cx="1281.5" cy="51.5" r="8" fill="#91B845" stroke="#0F172A"/>
<line x1="1018" y1="59" x2="1018" y2="209" stroke="#0F172A" stroke-width="2"/>
<line x1="1281" y1="59" x2="1281" y2="209" stroke="#0F172A" stroke-width="2"/>
<line x1="755" y1="59" x2="755" y2="209" stroke="#0F172A" stroke-width="2"/>
<path d="M777.26 130V116H784.28C785.2 116 786.007 116.187 786.7 116.56C787.407 116.933 787.96 117.453 788.36 118.12C788.76 118.773 788.96 119.533 788.96 120.4C788.96 121.227 788.76 121.967 788.36 122.62C787.96 123.273 787.407 123.787 786.7 124.16C785.993 124.533 785.187 124.72 784.28 124.72H780.16V130H777.26ZM780.16 122.32H783.96C784.587 122.32 785.087 122.147 785.46 121.8C785.847 121.453 786.04 120.993 786.04 120.42C786.04 119.833 785.847 119.367 785.46 119.02C785.087 118.673 784.587 118.5 783.96 118.5H780.16V122.32ZM797.733 130.22C796.693 130.22 795.727 130.04 794.833 129.68C793.94 129.307 793.153 128.793 792.473 128.14C791.807 127.473 791.28 126.707 790.893 125.84C790.52 124.96 790.333 124.013 790.333 123C790.333 121.987 790.52 121.047 790.893 120.18C791.28 119.3 791.807 118.533 792.473 117.88C793.153 117.213 793.94 116.7 794.833 116.34C795.727 115.967 796.693 115.78 797.733 115.78C798.773 115.78 799.74 115.967 800.633 116.34C801.54 116.7 802.327 117.213 802.993 117.88C803.673 118.533 804.2 119.3 804.573 120.18C804.947 121.047 805.133 121.987 805.133 123C805.133 124.013 804.947 124.96 804.573 125.84C804.2 126.707 803.673 127.473 802.993 128.14C802.327 128.793 801.54 129.307 800.633 129.68C799.74 130.04 798.773 130.22 797.733 130.22ZM797.733 127.56C798.373 127.56 798.96 127.447 799.493 127.22C800.027 126.98 800.493 126.66 800.893 126.26C801.293 125.847 801.607 125.36 801.833 124.8C802.06 124.24 802.173 123.64 802.173 123C802.173 122.347 802.06 121.747 801.833 121.2C801.607 120.64 801.293 120.16 800.893 119.76C800.493 119.347 800.027 119.027 799.493 118.8C798.96 118.56 798.373 118.44 797.733 118.44C797.107 118.44 796.527 118.56 795.993 118.8C795.46 119.027 794.993 119.347 794.593 119.76C794.193 120.16 793.88 120.64 793.653 121.2C793.427 121.747 793.313 122.34 793.313 122.98C793.313 123.633 793.427 124.24 793.653 124.8C793.88 125.36 794.193 125.847 794.593 126.26C794.993 126.66 795.46 126.98 795.993 127.22C796.527 127.447 797.107 127.56 797.733 127.56ZM814.003 130.22C812.963 130.22 811.996 130.04 811.103 129.68C810.209 129.307 809.423 128.793 808.743 128.14C808.076 127.473 807.549 126.707 807.163 125.84C806.789 124.96 806.603 124.013 806.603 123C806.603 121.987 806.789 121.047 807.163 120.18C807.549 119.3 808.076 118.533 808.743 117.88C809.423 117.213 810.209 116.7 811.103 116.34C811.996 115.967 812.963 115.78 814.003 115.78C815.043 115.78 816.009 115.967 816.903 116.34C817.809 116.7 818.596 117.213 819.263 117.88C819.943 118.533 820.469 119.3 820.843 120.18C821.216 121.047 821.403 121.987 821.403 123C821.403 124.013 821.216 124.96 820.843 125.84C820.469 126.707 819.943 127.473 819.263 128.14C818.596 128.793 817.809 129.307 816.903 129.68C816.009 130.04 815.043 130.22 814.003 130.22ZM814.003 127.56C814.643 127.56 815.229 127.447 815.763 127.22C816.296 126.98 816.763 126.66 817.163 126.26C817.563 125.847 817.876 125.36 818.103 124.8C818.329 124.24 818.443 123.64 818.443 123C818.443 122.347 818.329 121.747 818.103 121.2C817.876 120.64 817.563 120.16 817.163 119.76C816.763 119.347 816.296 119.027 815.763 118.8C815.229 118.56 814.643 118.44 814.003 118.44C813.376 118.44 812.796 118.56 812.263 118.8C811.729 119.027 811.263 119.347 810.863 119.76C810.463 120.16 810.149 120.64 809.923 121.2C809.696 121.747 809.583 122.34 809.583 122.98C809.583 123.633 809.696 124.24 809.923 124.8C810.149 125.36 810.463 125.847 810.863 126.26C811.263 126.66 811.729 126.98 812.263 127.22C812.796 127.447 813.376 127.56 814.003 127.56ZM823.412 130V116H826.312V127.44H833.972V130H823.412ZM840.971 130.2C839.838 130.2 838.731 129.993 837.651 129.58C836.571 129.153 835.611 128.553 834.771 127.78L836.431 125.7C837.244 126.42 838.024 126.94 838.771 127.26C839.531 127.58 840.331 127.74 841.171 127.74C841.758 127.74 842.264 127.673 842.691 127.54C843.118 127.393 843.444 127.187 843.671 126.92C843.911 126.653 844.031 126.34 844.031 125.98C844.031 125.5 843.858 125.133 843.511 124.88C843.164 124.613 842.571 124.407 841.731 124.26L838.951 123.78C837.764 123.58 836.858 123.16 836.231 122.52C835.618 121.88 835.311 121.053 835.311 120.04C835.311 119.173 835.531 118.42 835.971 117.78C836.424 117.14 837.058 116.653 837.871 116.32C838.698 115.973 839.678 115.8 840.811 115.8C841.838 115.8 842.858 115.973 843.871 116.32C844.898 116.667 845.804 117.147 846.591 117.76L845.031 119.92C843.564 118.8 842.091 118.24 840.611 118.24C840.091 118.24 839.638 118.307 839.251 118.44C838.864 118.573 838.564 118.76 838.351 119C838.151 119.227 838.051 119.5 838.051 119.82C838.051 120.247 838.204 120.58 838.511 120.82C838.818 121.047 839.331 121.22 840.051 121.34L842.691 121.78C844.091 122.007 845.138 122.453 845.831 123.12C846.524 123.773 846.871 124.64 846.871 125.72C846.871 126.627 846.631 127.42 846.151 128.1C845.671 128.767 844.984 129.287 844.091 129.66C843.211 130.02 842.171 130.2 840.971 130.2ZM775.92 152L781.68 138H785.02L790.72 152H787.58L786.16 148.32H780.38L778.94 152H775.92ZM781.28 146H785.28L783.28 140.84L781.28 146ZM793.17 152V140.56H788.45V138H800.77V140.56H796.07V152H793.17ZM809.32 149.42H811.76C812.387 149.42 812.967 149.313 813.5 149.1C814.047 148.873 814.52 148.56 814.92 148.16C815.333 147.76 815.647 147.293 815.86 146.76C816.087 146.227 816.2 145.647 816.2 145.02C816.2 144.393 816.087 143.813 815.86 143.28C815.633 142.733 815.32 142.26 814.92 141.86C814.52 141.46 814.047 141.147 813.5 140.92C812.967 140.693 812.387 140.58 811.76 140.58H809.32V149.42ZM806.42 152V138H811.8C812.853 138 813.827 138.18 814.72 138.54C815.613 138.887 816.393 139.38 817.06 140.02C817.727 140.66 818.247 141.407 818.62 142.26C819.007 143.113 819.2 144.033 819.2 145.02C819.2 146.02 819.013 146.94 818.64 147.78C818.267 148.62 817.74 149.36 817.06 150C816.393 150.627 815.613 151.12 814.72 151.48C813.827 151.827 812.853 152 811.8 152H806.42ZM821.186 152V138H831.946V140.52H824.086V143.72H829.266V146.16H824.086V149.48H832.026V152H821.186ZM832.756 152L838.096 144.76L833.036 138H836.496L839.816 142.6L843.116 138H846.456L841.476 144.76L846.876 152H843.416L839.756 146.92L836.096 152H832.756ZM847.592 152V138H858.352V140.52H850.492V143.72H855.672V146.16H850.492V149.48H858.432V152H847.592ZM865.483 152.2C864.349 152.2 863.243 151.993 862.163 151.58C861.083 151.153 860.123 150.553 859.283 149.78L860.943 147.7C861.756 148.42 862.536 148.94 863.283 149.26C864.043 149.58 864.843 149.74 865.683 149.74C866.269 149.74 866.776 149.673 867.203 149.54C867.629 149.393 867.956 149.187 868.183 148.92C868.423 148.653 868.543 148.34 868.543 147.98C868.543 147.5 868.369 147.133 868.023 146.88C867.676 146.613 867.083 146.407 866.243 146.26L863.463 145.78C862.276 145.58 861.369 145.16 860.743 144.52C860.129 143.88 859.823 143.053 859.823 142.04C859.823 141.173 860.043 140.42 860.483 139.78C860.936 139.14 861.569 138.653 862.383 138.32C863.209 137.973 864.189 137.8 865.323 137.8C866.349 137.8 867.369 137.973 868.383 138.32C869.409 138.667 870.316 139.147 871.103 139.76L869.543 141.92C868.076 140.8 866.603 140.24 865.123 140.24C864.603 140.24 864.149 140.307 863.763 140.44C863.376 140.573 863.076 140.76 862.863 141C862.663 141.227 862.563 141.5 862.563 141.82C862.563 142.247 862.716 142.58 863.023 142.82C863.329 143.047 863.843 143.22 864.563 143.34L867.203 143.78C868.603 144.007 869.649 144.453 870.343 145.12C871.036 145.773 871.383 146.64 871.383 147.72C871.383 148.627 871.143 149.42 870.663 150.1C870.183 150.767 869.496 151.287 868.603 151.66C867.723 152.02 866.683 152.2 865.483 152.2Z" fill="#0F172A"/>
<path d="M1043.16 127.42H1045.6C1046.23 127.42 1046.81 127.313 1047.34 127.1C1047.89 126.873 1048.36 126.56 1048.76 126.16C1049.17 125.76 1049.49 125.293 1049.7 124.76C1049.93 124.227 1050.04 123.647 1050.04 123.02C1050.04 122.393 1049.93 121.813 1049.7 121.28C1049.47 120.733 1049.16 120.26 1048.76 119.86C1048.36 119.46 1047.89 119.147 1047.34 118.92C1046.81 118.693 1046.23 118.58 1045.6 118.58H1043.16V127.42ZM1040.26 130V116H1045.64C1046.69 116 1047.67 116.18 1048.56 116.54C1049.45 116.887 1050.23 117.38 1050.9 118.02C1051.57 118.66 1052.09 119.407 1052.46 120.26C1052.85 121.113 1053.04 122.033 1053.04 123.02C1053.04 124.02 1052.85 124.94 1052.48 125.78C1052.11 126.62 1051.58 127.36 1050.9 128C1050.23 128.627 1049.45 129.12 1048.56 129.48C1047.67 129.827 1046.69 130 1045.64 130H1040.26ZM1055.03 130V116H1065.79V118.52H1057.93V121.72H1063.11V124.16H1057.93V127.48H1065.87V130H1055.03ZM1067.92 130V116H1070.82V127.44H1078.48V130H1067.92ZM1081.42 130V118.56H1076.7V116H1089.02V118.56H1084.32V130H1081.42ZM1086.75 130L1092.51 116H1095.85L1101.55 130H1098.41L1096.99 126.32H1091.21L1089.77 130H1086.75ZM1092.11 124H1096.11L1094.11 118.84L1092.11 124ZM1102.01 125.46V123.14H1109.53V125.46H1102.01ZM1111.61 130V116H1114.37L1121.33 125.04V116H1124.05V130H1121.49L1114.35 120.64V130H1111.61ZM1126.59 130V116H1137.35V118.52H1129.49V121.72H1134.67V124.16H1129.49V127.48H1137.43V130H1126.59ZM1145.46 130.2C1144.19 130.2 1143.09 129.947 1142.16 129.44C1141.24 128.933 1140.53 128.213 1140.02 127.28C1139.51 126.333 1139.26 125.227 1139.26 123.96V116H1142.16V123.96C1142.16 124.68 1142.29 125.313 1142.56 125.86C1142.84 126.393 1143.23 126.807 1143.72 127.1C1144.23 127.38 1144.81 127.52 1145.48 127.52C1146.15 127.52 1146.73 127.38 1147.22 127.1C1147.71 126.807 1148.09 126.393 1148.36 125.86C1148.64 125.313 1148.78 124.68 1148.78 123.96V116H1151.66V123.96C1151.66 125.213 1151.41 126.313 1150.9 127.26C1150.39 128.193 1149.67 128.92 1148.74 129.44C1147.82 129.947 1146.73 130.2 1145.46 130.2ZM1157.79 130V118.56H1153.07V116H1165.39V118.56H1160.69V130H1157.79ZM1167.02 130V116H1173.86C1174.8 116 1175.64 116.187 1176.36 116.56C1177.09 116.92 1177.66 117.427 1178.06 118.08C1178.47 118.733 1178.68 119.487 1178.68 120.34C1178.68 121.233 1178.43 122.02 1177.94 122.7C1177.44 123.38 1176.78 123.887 1175.96 124.22L1179.06 130H1175.82L1173.08 124.64H1169.92V130H1167.02ZM1169.92 122.26H1173.6C1174.25 122.26 1174.77 122.087 1175.16 121.74C1175.56 121.393 1175.76 120.94 1175.76 120.38C1175.76 119.82 1175.56 119.367 1175.16 119.02C1174.77 118.673 1174.25 118.5 1173.6 118.5H1169.92V122.26ZM1179.45 130L1185.21 116H1188.55L1194.25 130H1191.11L1189.69 126.32H1183.91L1182.47 130H1179.45ZM1184.81 124H1188.81L1186.81 118.84L1184.81 124ZM1195.44 130V116H1198.34V127.44H1206V130H1195.44ZM1044.6 152V146.64L1038.88 138H1042.22L1046.14 144.08L1050.08 138H1053.24L1047.5 146.66V152H1044.6ZM1054.38 152V138H1057.28V152H1054.38ZM1059.83 152V138H1070.59V140.52H1062.73V143.72H1067.91V146.16H1062.73V149.48H1070.67V152H1059.83ZM1072.72 152V138H1075.62V149.44H1083.28V152H1072.72ZM1088.18 149.42H1090.62C1091.25 149.42 1091.83 149.313 1092.36 149.1C1092.91 148.873 1093.38 148.56 1093.78 148.16C1094.19 147.76 1094.51 147.293 1094.72 146.76C1094.95 146.227 1095.06 145.647 1095.06 145.02C1095.06 144.393 1094.95 143.813 1094.72 143.28C1094.49 142.733 1094.18 142.26 1093.78 141.86C1093.38 141.46 1092.91 141.147 1092.36 140.92C1091.83 140.693 1091.25 140.58 1090.62 140.58H1088.18V149.42ZM1085.28 152V138H1090.66C1091.71 138 1092.69 138.18 1093.58 138.54C1094.47 138.887 1095.25 139.38 1095.92 140.02C1096.59 140.66 1097.11 141.407 1097.48 142.26C1097.87 143.113 1098.06 144.033 1098.06 145.02C1098.06 146.02 1097.87 146.94 1097.5 147.78C1097.13 148.62 1096.6 149.36 1095.92 150C1095.25 150.627 1094.47 151.12 1093.58 151.48C1092.69 151.827 1091.71 152 1090.66 152H1085.28Z" fill="#0F172A"/>
<path d="M1303.26 130V116H1306.98L1310.82 123.56L1314.66 116H1318.38V130H1315.64V119.7L1310.78 129L1305.94 119.66V130H1303.26ZM1326.88 130.2C1325.61 130.2 1324.51 129.947 1323.58 129.44C1322.66 128.933 1321.94 128.213 1321.44 127.28C1320.93 126.333 1320.68 125.227 1320.68 123.96V116H1323.58V123.96C1323.58 124.68 1323.71 125.313 1323.98 125.86C1324.26 126.393 1324.64 126.807 1325.14 127.1C1325.64 127.38 1326.23 127.52 1326.9 127.52C1327.56 127.52 1328.14 127.38 1328.64 127.1C1329.13 126.807 1329.51 126.393 1329.78 125.86C1330.06 125.313 1330.2 124.68 1330.2 123.96V116H1333.08V123.96C1333.08 125.213 1332.82 126.313 1332.32 127.26C1331.81 128.193 1331.09 128.92 1330.16 129.44C1329.24 129.947 1328.14 130.2 1326.88 130.2ZM1335.39 130V116H1338.29V127.44H1345.95V130H1335.39ZM1348.9 130V118.56H1344.18V116H1356.5V118.56H1351.8V130H1348.9ZM1358.12 130V116H1361.02V130H1358.12ZM1363.57 130V116H1370.59C1371.51 116 1372.32 116.187 1373.01 116.56C1373.72 116.933 1374.27 117.453 1374.67 118.12C1375.07 118.773 1375.27 119.533 1375.27 120.4C1375.27 121.227 1375.07 121.967 1374.67 122.62C1374.27 123.273 1373.72 123.787 1373.01 124.16C1372.31 124.533 1371.5 124.72 1370.59 124.72H1366.47V130H1363.57ZM1366.47 122.32H1370.27C1370.9 122.32 1371.4 122.147 1371.77 121.8C1372.16 121.453 1372.35 120.993 1372.35 120.42C1372.35 119.833 1372.16 119.367 1371.77 119.02C1371.4 118.673 1370.9 118.5 1370.27 118.5H1366.47V122.32ZM1384.05 130.22C1383.01 130.22 1382.04 130.04 1381.15 129.68C1380.25 129.307 1379.47 128.793 1378.79 128.14C1378.12 127.473 1377.59 126.707 1377.21 125.84C1376.83 124.96 1376.65 124.013 1376.65 123C1376.65 121.987 1376.83 121.047 1377.21 120.18C1377.59 119.3 1378.12 118.533 1378.79 117.88C1379.47 117.213 1380.25 116.7 1381.15 116.34C1382.04 115.967 1383.01 115.78 1384.05 115.78C1385.09 115.78 1386.05 115.967 1386.95 116.34C1387.85 116.7 1388.64 117.213 1389.31 117.88C1389.99 118.533 1390.51 119.3 1390.89 120.18C1391.26 121.047 1391.45 121.987 1391.45 123C1391.45 124.013 1391.26 124.96 1390.89 125.84C1390.51 126.707 1389.99 127.473 1389.31 128.14C1388.64 128.793 1387.85 129.307 1386.95 129.68C1386.05 130.04 1385.09 130.22 1384.05 130.22ZM1384.05 127.56C1384.69 127.56 1385.27 127.447 1385.81 127.22C1386.34 126.98 1386.81 126.66 1387.21 126.26C1387.61 125.847 1387.92 125.36 1388.15 124.8C1388.37 124.24 1388.49 123.64 1388.49 123C1388.49 122.347 1388.37 121.747 1388.15 121.2C1387.92 120.64 1387.61 120.16 1387.21 119.76C1386.81 119.347 1386.34 119.027 1385.81 118.8C1385.27 118.56 1384.69 118.44 1384.05 118.44C1383.42 118.44 1382.84 118.56 1382.31 118.8C1381.77 119.027 1381.31 119.347 1380.91 119.76C1380.51 120.16 1380.19 120.64 1379.97 121.2C1379.74 121.747 1379.63 122.34 1379.63 122.98C1379.63 123.633 1379.74 124.24 1379.97 124.8C1380.19 125.36 1380.51 125.847 1380.91 126.26C1381.31 126.66 1381.77 126.98 1382.31 127.22C1382.84 127.447 1383.42 127.56 1384.05 127.56ZM1400.32 130.22C1399.28 130.22 1398.31 130.04 1397.42 129.68C1396.52 129.307 1395.74 128.793 1395.06 128.14C1394.39 127.473 1393.86 126.707 1393.48 125.84C1393.1 124.96 1392.92 124.013 1392.92 123C1392.92 121.987 1393.1 121.047 1393.48 120.18C1393.86 119.3 1394.39 118.533 1395.06 117.88C1395.74 117.213 1396.52 116.7 1397.42 116.34C1398.31 115.967 1399.28 115.78 1400.32 115.78C1401.36 115.78 1402.32 115.967 1403.22 116.34C1404.12 116.7 1404.91 117.213 1405.58 117.88C1406.26 118.533 1406.78 119.3 1407.16 120.18C1407.53 121.047 1407.72 121.987 1407.72 123C1407.72 124.013 1407.53 124.96 1407.16 125.84C1406.78 126.707 1406.26 127.473 1405.58 128.14C1404.91 128.793 1404.12 129.307 1403.22 129.68C1402.32 130.04 1401.36 130.22 1400.32 130.22ZM1400.32 127.56C1400.96 127.56 1401.54 127.447 1402.08 127.22C1402.61 126.98 1403.08 126.66 1403.48 126.26C1403.88 125.847 1404.19 125.36 1404.42 124.8C1404.64 124.24 1404.76 123.64 1404.76 123C1404.76 122.347 1404.64 121.747 1404.42 121.2C1404.19 120.64 1403.88 120.16 1403.48 119.76C1403.08 119.347 1402.61 119.027 1402.08 118.8C1401.54 118.56 1400.96 118.44 1400.32 118.44C1399.69 118.44 1399.11 118.56 1398.58 118.8C1398.04 119.027 1397.58 119.347 1397.18 119.76C1396.78 120.16 1396.46 120.64 1396.24 121.2C1396.01 121.747 1395.9 122.34 1395.9 122.98C1395.9 123.633 1396.01 124.24 1396.24 124.8C1396.46 125.36 1396.78 125.847 1397.18 126.26C1397.58 126.66 1398.04 126.98 1398.58 127.22C1399.11 127.447 1399.69 127.56 1400.32 127.56ZM1409.72 130V116H1412.62V127.44H1420.28V130H1409.72ZM1310.16 152.2C1309.12 152.2 1308.15 152.02 1307.24 151.66C1306.33 151.287 1305.54 150.773 1304.86 150.12C1304.19 149.467 1303.67 148.707 1303.28 147.84C1302.91 146.96 1302.72 146.013 1302.72 145C1302.72 143.973 1302.91 143.027 1303.28 142.16C1303.67 141.28 1304.2 140.513 1304.88 139.86C1305.56 139.207 1306.35 138.7 1307.24 138.34C1308.15 137.967 1309.12 137.78 1310.16 137.78C1310.93 137.78 1311.68 137.887 1312.4 138.1C1313.12 138.313 1313.79 138.613 1314.4 139C1315.03 139.387 1315.56 139.853 1316 140.4L1314.04 142.34C1313.53 141.713 1312.95 141.24 1312.28 140.92C1311.63 140.6 1310.92 140.44 1310.16 140.44C1309.53 140.44 1308.95 140.56 1308.4 140.8C1307.85 141.027 1307.38 141.347 1306.98 141.76C1306.58 142.16 1306.27 142.64 1306.04 143.2C1305.81 143.747 1305.7 144.347 1305.7 145C1305.7 145.64 1305.81 146.24 1306.04 146.8C1306.27 147.347 1306.59 147.827 1307 148.24C1307.41 148.64 1307.89 148.953 1308.44 149.18C1309 149.407 1309.61 149.52 1310.26 149.52C1310.99 149.52 1311.68 149.367 1312.32 149.06C1312.96 148.753 1313.53 148.313 1314.02 147.74L1315.92 149.62C1315.48 150.153 1314.95 150.613 1314.34 151C1313.73 151.387 1313.06 151.687 1312.34 151.9C1311.63 152.1 1310.91 152.2 1310.16 152.2ZM1317.62 152V138H1320.52V143.64H1326.96V138H1329.86V152H1326.96V146.26H1320.52V152H1317.62ZM1331.06 152L1336.82 138H1340.16L1345.86 152H1342.72L1341.3 148.32H1335.52L1334.08 152H1331.06ZM1336.42 146H1340.42L1338.42 140.84L1336.42 146ZM1347.05 152V138H1349.95V152H1347.05ZM1352.5 152V138H1355.26L1362.22 147.04V138H1364.94V152H1362.38L1355.24 142.64V152H1352.5ZM1372.48 152.2C1371.35 152.2 1370.24 151.993 1369.16 151.58C1368.08 151.153 1367.12 150.553 1366.28 149.78L1367.94 147.7C1368.75 148.42 1369.53 148.94 1370.28 149.26C1371.04 149.58 1371.84 149.74 1372.68 149.74C1373.27 149.74 1373.77 149.673 1374.2 149.54C1374.63 149.393 1374.95 149.187 1375.18 148.92C1375.42 148.653 1375.54 148.34 1375.54 147.98C1375.54 147.5 1375.37 147.133 1375.02 146.88C1374.67 146.613 1374.08 146.407 1373.24 146.26L1370.46 145.78C1369.27 145.58 1368.37 145.16 1367.74 144.52C1367.13 143.88 1366.82 143.053 1366.82 142.04C1366.82 141.173 1367.04 140.42 1367.48 139.78C1367.93 139.14 1368.57 138.653 1369.38 138.32C1370.21 137.973 1371.19 137.8 1372.32 137.8C1373.35 137.8 1374.37 137.973 1375.38 138.32C1376.41 138.667 1377.31 139.147 1378.1 139.76L1376.54 141.92C1375.07 140.8 1373.6 140.24 1372.12 140.24C1371.6 140.24 1371.15 140.307 1370.76 140.44C1370.37 140.573 1370.07 140.76 1369.86 141C1369.66 141.227 1369.56 141.5 1369.56 141.82C1369.56 142.247 1369.71 142.58 1370.02 142.82C1370.33 143.047 1370.84 143.22 1371.56 143.34L1374.2 143.78C1375.6 144.007 1376.65 144.453 1377.34 145.12C1378.03 145.773 1378.38 146.64 1378.38 147.72C1378.38 148.627 1378.14 149.42 1377.66 150.1C1377.18 150.767 1376.49 151.287 1375.6 151.66C1374.72 152.02 1373.68 152.2 1372.48 152.2Z" fill="#0F172A"/>
<path d="M379.368 100.308C377.912 100.308 376.559 100.056 375.308 99.552C374.057 99.0293 372.956 98.3107 372.004 97.396C371.071 96.4627 370.333 95.3893 369.792 94.176C369.269 92.944 369.008 91.6187 369.008 90.2C369.008 88.7813 369.269 87.4653 369.792 86.252C370.333 85.02 371.071 83.9467 372.004 83.032C372.956 82.0987 374.057 81.38 375.308 80.876C376.559 80.3533 377.912 80.092 379.368 80.092C380.824 80.092 382.177 80.3533 383.428 80.876C384.697 81.38 385.799 82.0987 386.732 83.032C387.684 83.9467 388.421 85.02 388.944 86.252C389.467 87.4653 389.728 88.7813 389.728 90.2C389.728 91.6187 389.467 92.944 388.944 94.176C388.421 95.3893 387.684 96.4627 386.732 97.396C385.799 98.3107 384.697 99.0293 383.428 99.552C382.177 100.056 380.824 100.308 379.368 100.308ZM379.368 96.584C380.264 96.584 381.085 96.4253 381.832 96.108C382.579 95.772 383.232 95.324 383.792 94.764C384.352 94.1853 384.791 93.504 385.108 92.72C385.425 91.936 385.584 91.096 385.584 90.2C385.584 89.2853 385.425 88.4453 385.108 87.68C384.791 86.896 384.352 86.224 383.792 85.664C383.232 85.0853 382.579 84.6373 381.832 84.32C381.085 83.984 380.264 83.816 379.368 83.816C378.491 83.816 377.679 83.984 376.932 84.32C376.185 84.6373 375.532 85.0853 374.972 85.664C374.412 86.224 373.973 86.896 373.656 87.68C373.339 88.4453 373.18 89.276 373.18 90.172C373.18 91.0867 373.339 91.936 373.656 92.72C373.973 93.504 374.412 94.1853 374.972 94.764C375.532 95.324 376.185 95.772 376.932 96.108C377.679 96.4253 378.491 96.584 379.368 96.584ZM397.524 100L389.572 80.4H393.968L399.96 95.828L406.092 80.4H410.292L402.228 100H397.524ZM411.955 100V80.4H427.019V83.928H416.015V88.408H423.267V91.824H416.015V96.472H427.131V100H411.955ZM430.002 100V80.4H439.578C440.904 80.4 442.07 80.6613 443.078 81.184C444.105 81.688 444.898 82.3973 445.458 83.312C446.037 84.2267 446.326 85.2813 446.326 86.476C446.326 87.7267 445.981 88.828 445.29 89.78C444.6 90.732 443.676 91.4413 442.518 91.908L446.858 100H442.322L438.486 92.496H434.062V100H430.002ZM434.062 89.164H439.214C440.129 89.164 440.857 88.9213 441.398 88.436C441.958 87.9507 442.238 87.316 442.238 86.532C442.238 85.748 441.958 85.1133 441.398 84.628C440.857 84.1427 440.129 83.9 439.214 83.9H434.062V89.164ZM449.006 100V80.4H452.87L462.614 93.056V80.4H466.422V100H462.838L452.842 86.896V100H449.006ZM469.979 100V80.4H474.039V100H469.979ZM487.24 100.308C485.784 100.308 484.43 100.056 483.18 99.552C481.929 99.0293 480.828 98.3107 479.876 97.396C478.924 96.4627 478.177 95.3893 477.636 94.176C477.113 92.944 476.852 91.6187 476.852 90.2C476.852 88.7813 477.113 87.4653 477.636 86.252C478.177 85.02 478.914 83.9467 479.848 83.032C480.781 82.0987 481.873 81.38 483.124 80.876C484.393 80.3533 485.746 80.092 487.184 80.092C488.808 80.092 490.338 80.4187 491.776 81.072C493.213 81.7067 494.398 82.6027 495.332 83.76L492.504 86.364C491.832 85.524 491.038 84.8893 490.124 84.46C489.209 84.0307 488.229 83.816 487.184 83.816C486.306 83.816 485.494 83.984 484.748 84.32C484.001 84.6373 483.348 85.0853 482.788 85.664C482.228 86.224 481.789 86.896 481.472 87.68C481.173 88.4453 481.024 89.2853 481.024 90.2C481.024 91.1147 481.182 91.964 481.5 92.748C481.817 93.532 482.256 94.2133 482.816 94.792C483.394 95.352 484.057 95.8 484.804 96.136C485.569 96.4533 486.4 96.612 487.296 96.612C488.229 96.612 489.069 96.444 489.816 96.108C490.562 95.7533 491.188 95.268 491.692 94.652C492.214 94.0173 492.56 93.308 492.728 92.524H486.932V88.996H497.068V90.228C497.068 91.684 496.816 93.028 496.312 94.26C495.826 95.4733 495.145 96.5373 494.268 97.452C493.39 98.348 492.354 99.048 491.16 99.552C489.965 100.056 488.658 100.308 487.24 100.308ZM499.838 100V80.4H503.898V88.296H512.914V80.4H516.974V100H512.914V91.964H503.898V100H499.838ZM525.885 100V83.984H519.277V80.4H536.525V83.984H529.945V100H525.885ZM537.407 86.616L539.311 79.252H543.287L540.291 86.616H537.407ZM552.639 100.28C551.052 100.28 549.503 99.9907 547.991 99.412C546.479 98.8147 545.135 97.9747 543.959 96.892L546.283 93.98C547.422 94.988 548.514 95.716 549.559 96.164C550.623 96.612 551.743 96.836 552.919 96.836C553.74 96.836 554.45 96.7427 555.047 96.556C555.644 96.3507 556.102 96.0613 556.419 95.688C556.755 95.3147 556.923 94.876 556.923 94.372C556.923 93.7 556.68 93.1867 556.195 92.832C555.71 92.4587 554.879 92.1693 553.703 91.964L549.811 91.292C548.15 91.012 546.88 90.424 546.003 89.528C545.144 88.632 544.715 87.4747 544.715 86.056C544.715 84.8427 545.023 83.788 545.639 82.892C546.274 81.996 547.16 81.3147 548.299 80.848C549.456 80.3627 550.828 80.12 552.415 80.12C553.852 80.12 555.28 80.3627 556.699 80.848C558.136 81.3333 559.406 82.0053 560.507 82.864L558.323 85.888C556.27 84.32 554.207 83.536 552.135 83.536C551.407 83.536 550.772 83.6293 550.231 83.816C549.69 84.0027 549.27 84.264 548.971 84.6C548.691 84.9173 548.551 85.3 548.551 85.748C548.551 86.3453 548.766 86.812 549.195 87.148C549.624 87.4653 550.343 87.708 551.351 87.876L555.047 88.492C557.007 88.8093 558.472 89.4347 559.443 90.368C560.414 91.2827 560.899 92.496 560.899 94.008C560.899 95.2773 560.563 96.388 559.891 97.34C559.219 98.2733 558.258 99.0013 557.007 99.524C555.775 100.028 554.319 100.28 552.639 100.28ZM568.936 100V80.4H578.512C579.837 80.4 581.004 80.6613 582.012 81.184C583.039 81.688 583.832 82.3973 584.392 83.312C584.971 84.2267 585.26 85.2813 585.26 86.476C585.26 87.7267 584.915 88.828 584.224 89.78C583.533 90.732 582.609 91.4413 581.452 91.908L585.792 100H581.256L577.42 92.496H572.996V100H568.936ZM572.996 89.164H578.148C579.063 89.164 579.791 88.9213 580.332 88.436C580.892 87.9507 581.172 87.316 581.172 86.532C581.172 85.748 580.892 85.1133 580.332 84.628C579.791 84.1427 579.063 83.9 578.148 83.9H572.996V89.164ZM597.544 100.308C596.088 100.308 594.734 100.056 593.484 99.552C592.233 99.0293 591.132 98.3107 590.18 97.396C589.246 96.4627 588.509 95.3893 587.968 94.176C587.445 92.944 587.184 91.6187 587.184 90.2C587.184 88.7813 587.445 87.4653 587.968 86.252C588.509 85.02 589.246 83.9467 590.18 83.032C591.132 82.0987 592.233 81.38 593.484 80.876C594.734 80.3533 596.088 80.092 597.544 80.092C599 80.092 600.353 80.3533 601.604 80.876C602.873 81.38 603.974 82.0987 604.908 83.032C605.86 83.9467 606.597 85.02 607.12 86.252C607.642 87.4653 607.904 88.7813 607.904 90.2C607.904 91.6187 607.642 92.944 607.12 94.176C606.597 95.3893 605.86 96.4627 604.908 97.396C603.974 98.3107 602.873 99.0293 601.604 99.552C600.353 100.056 599 100.308 597.544 100.308ZM597.544 96.584C598.44 96.584 599.261 96.4253 600.008 96.108C600.754 95.772 601.408 95.324 601.968 94.764C602.528 94.1853 602.966 93.504 603.284 92.72C603.601 91.936 603.76 91.096 603.76 90.2C603.76 89.2853 603.601 88.4453 603.284 87.68C602.966 86.896 602.528 86.224 601.968 85.664C601.408 85.0853 600.754 84.6373 600.008 84.32C599.261 83.984 598.44 83.816 597.544 83.816C596.666 83.816 595.854 83.984 595.108 84.32C594.361 84.6373 593.708 85.0853 593.148 85.664C592.588 86.224 592.149 86.896 591.832 87.68C591.514 88.4453 591.356 89.276 591.356 90.172C591.356 91.0867 591.514 91.936 591.832 92.72C592.149 93.504 592.588 94.1853 593.148 94.764C593.708 95.324 594.361 95.772 595.108 96.108C595.854 96.4253 596.666 96.584 597.544 96.584ZM607.747 100L615.811 80.4H620.487L628.467 100H624.071L622.083 94.848H613.991L611.975 100H607.747ZM615.251 91.6H620.851L618.051 84.376L615.251 91.6ZM634.191 96.388H637.607C638.485 96.388 639.297 96.2387 640.043 95.94C640.809 95.6227 641.471 95.184 642.031 94.624C642.61 94.064 643.049 93.4107 643.347 92.664C643.665 91.9173 643.823 91.1053 643.823 90.228C643.823 89.3507 643.665 88.5387 643.347 87.792C643.03 87.0267 642.591 86.364 642.031 85.804C641.471 85.244 640.809 84.8053 640.043 84.488C639.297 84.1707 638.485 84.012 637.607 84.012H634.191V96.388ZM630.131 100V80.4H637.663C639.138 80.4 640.501 80.652 641.751 81.156C643.002 81.6413 644.094 82.332 645.027 83.228C645.961 84.124 646.689 85.1693 647.211 86.364C647.753 87.5587 648.023 88.8467 648.023 90.228C648.023 91.628 647.762 92.916 647.239 94.092C646.717 95.268 645.979 96.304 645.027 97.2C644.094 98.0773 643.002 98.768 641.751 99.272C640.501 99.7573 639.138 100 637.663 100H630.131ZM650.803 100V80.4H656.011L661.387 90.984L666.763 80.4H671.971V100H668.135V85.58L661.331 98.6L654.555 85.524V100H650.803ZM673.618 100L681.682 80.4H686.358L694.338 100H689.942L687.954 94.848H679.862L677.846 100H673.618ZM681.122 91.6H686.722L683.922 84.376L681.122 91.6ZM696.002 100V80.4H705.83C707.118 80.4 708.248 80.6613 709.218 81.184C710.208 81.7067 710.982 82.4347 711.542 83.368C712.102 84.2827 712.382 85.3467 712.382 86.56C712.382 87.7173 712.102 88.7533 711.542 89.668C710.982 90.5827 710.208 91.3013 709.218 91.824C708.229 92.3467 707.1 92.608 705.83 92.608H700.062V100H696.002ZM700.062 89.248H705.382C706.26 89.248 706.96 89.0053 707.482 88.52C708.024 88.0347 708.294 87.3907 708.294 86.588C708.294 85.7667 708.024 85.1133 707.482 84.628C706.96 84.1427 706.26 83.9 705.382 83.9H700.062V89.248Z" fill="#0F172A"/>
</svg>
