<svg width="375" height="311" viewBox="0 0 375 311" fill="none" xmlns="http://www.w3.org/2000/svg">
<rect x="-1.5" y="0.5" width="378" height="310" fill="white" stroke="#0F172A"/>
<path fill-rule="evenodd" clip-rule="evenodd" d="M20 52.5H292.458C308.75 52.5 321.958 65.7076 321.958 82V104.985C321.958 121.273 308.756 134.479 292.467 134.485L246.531 134.5H246.259H55.5017C38.6571 134.5 25.0017 148.155 25.0017 165V188C25.0017 204.845 38.657 218.5 55.5017 218.5H353.5V217.5H55.5017C39.2094 217.5 26.0017 204.292 26.0017 188V165C26.0017 148.708 39.2094 135.5 55.5017 135.5H246.26H246.531L292.468 135.485C309.309 135.479 322.958 121.825 322.958 104.985V82C322.958 65.1553 309.302 51.5 292.458 51.5H20V52.5Z" fill="#0F172A"/>
<path d="M106.36 27.154C105.632 27.154 104.955 27.028 104.33 26.776C103.704 26.5147 103.154 26.1553 102.678 25.698C102.211 25.2313 101.842 24.6947 101.572 24.088C101.31 23.472 101.18 22.8093 101.18 22.1C101.18 21.3907 101.31 20.7327 101.572 20.126C101.842 19.51 102.211 18.9733 102.678 18.516C103.154 18.0493 103.704 17.69 104.33 17.438C104.955 17.1767 105.632 17.046 106.36 17.046C107.088 17.046 107.764 17.1767 108.39 17.438C109.024 17.69 109.575 18.0493 110.042 18.516C110.518 18.9733 110.886 19.51 111.148 20.126C111.409 20.7327 111.54 21.3907 111.54 22.1C111.54 22.8093 111.409 23.472 111.148 24.088C110.886 24.6947 110.518 25.2313 110.042 25.698C109.575 26.1553 109.024 26.5147 108.39 26.776C107.764 27.028 107.088 27.154 106.36 27.154ZM106.36 25.292C106.808 25.292 107.218 25.2127 107.592 25.054C107.965 24.886 108.292 24.662 108.572 24.382C108.852 24.0927 109.071 23.752 109.23 23.36C109.388 22.968 109.468 22.548 109.468 22.1C109.468 21.6427 109.388 21.2227 109.23 20.84C109.071 20.448 108.852 20.112 108.572 19.832C108.292 19.5427 107.965 19.3187 107.592 19.16C107.218 18.992 106.808 18.908 106.36 18.908C105.921 18.908 105.515 18.992 105.142 19.16C104.768 19.3187 104.442 19.5427 104.162 19.832C103.882 20.112 103.662 20.448 103.504 20.84C103.345 21.2227 103.266 21.638 103.266 22.086C103.266 22.5433 103.345 22.968 103.504 23.36C103.662 23.752 103.882 24.0927 104.162 24.382C104.442 24.662 104.768 24.886 105.142 25.054C105.515 25.2127 105.921 25.292 106.36 25.292ZM115.438 27L111.462 17.2H113.66L116.656 24.914L119.722 17.2H121.822L117.79 27H115.438ZM122.653 27V17.2H130.185V18.964H124.683V21.204H128.309V22.912H124.683V25.236H130.241V27H122.653ZM131.677 27V17.2H136.465C137.128 17.2 137.711 17.3307 138.215 17.592C138.728 17.844 139.125 18.1987 139.405 18.656C139.694 19.1133 139.839 19.6407 139.839 20.238C139.839 20.8633 139.666 21.414 139.321 21.89C138.976 22.366 138.514 22.7207 137.935 22.954L140.105 27H137.837L135.919 23.248H133.707V27H131.677ZM133.707 21.582H136.283C136.74 21.582 137.104 21.4607 137.375 21.218C137.655 20.9753 137.795 20.658 137.795 20.266C137.795 19.874 137.655 19.5567 137.375 19.314C137.104 19.0713 136.74 18.95 136.283 18.95H133.707V21.582ZM141.179 27V17.2H143.111L147.983 23.528V17.2H149.887V27H148.095L143.097 20.448V27H141.179ZM151.665 27V17.2H153.695V27H151.665ZM160.296 27.154C159.568 27.154 158.891 27.028 158.266 26.776C157.64 26.5147 157.09 26.1553 156.614 25.698C156.138 25.2313 155.764 24.6947 155.494 24.088C155.232 23.472 155.102 22.8093 155.102 22.1C155.102 21.3907 155.232 20.7327 155.494 20.126C155.764 19.51 156.133 18.9733 156.6 18.516C157.066 18.0493 157.612 17.69 158.238 17.438C158.872 17.1767 159.549 17.046 160.268 17.046C161.08 17.046 161.845 17.2093 162.564 17.536C163.282 17.8533 163.875 18.3013 164.342 18.88L162.928 20.182C162.592 19.762 162.195 19.4447 161.738 19.23C161.28 19.0153 160.79 18.908 160.268 18.908C159.829 18.908 159.423 18.992 159.05 19.16C158.676 19.3187 158.35 19.5427 158.07 19.832C157.79 20.112 157.57 20.448 157.412 20.84C157.262 21.2227 157.188 21.6427 157.188 22.1C157.188 22.5573 157.267 22.982 157.426 23.374C157.584 23.766 157.804 24.1067 158.084 24.396C158.373 24.676 158.704 24.9 159.078 25.068C159.46 25.2267 159.876 25.306 160.324 25.306C160.79 25.306 161.21 25.222 161.584 25.054C161.957 24.8767 162.27 24.634 162.522 24.326C162.783 24.0087 162.956 23.654 163.04 23.262H160.142V21.498H165.21V22.114C165.21 22.842 165.084 23.514 164.832 24.13C164.589 24.7367 164.248 25.2687 163.81 25.726C163.371 26.174 162.853 26.524 162.256 26.776C161.658 27.028 161.005 27.154 160.296 27.154ZM166.595 27V17.2H168.625V21.148H173.133V17.2H175.163V27H173.133V22.982H168.625V27H166.595ZM179.619 27V18.992H176.315V17.2H184.939V18.992H181.649V27H179.619ZM185.379 20.308L186.331 16.626H188.319L186.821 20.308H185.379ZM192.995 27.14C192.202 27.14 191.427 26.9953 190.671 26.706C189.915 26.4073 189.243 25.9873 188.655 25.446L189.817 23.99C190.387 24.494 190.933 24.858 191.455 25.082C191.987 25.306 192.547 25.418 193.135 25.418C193.546 25.418 193.901 25.3713 194.199 25.278C194.498 25.1753 194.727 25.0307 194.885 24.844C195.053 24.6573 195.137 24.438 195.137 24.186C195.137 23.85 195.016 23.5933 194.773 23.416C194.531 23.2293 194.115 23.0847 193.527 22.982L191.581 22.646C190.751 22.506 190.116 22.212 189.677 21.764C189.248 21.316 189.033 20.7373 189.033 20.028C189.033 19.4213 189.187 18.894 189.495 18.446C189.813 17.998 190.256 17.6573 190.825 17.424C191.404 17.1813 192.09 17.06 192.883 17.06C193.602 17.06 194.316 17.1813 195.025 17.424C195.744 17.6667 196.379 18.0027 196.929 18.432L195.837 19.944C194.811 19.16 193.779 18.768 192.743 18.768C192.379 18.768 192.062 18.8147 191.791 18.908C191.521 19.0013 191.311 19.132 191.161 19.3C191.021 19.4587 190.951 19.65 190.951 19.874C190.951 20.1727 191.059 20.406 191.273 20.574C191.488 20.7327 191.847 20.854 192.351 20.938L194.199 21.246C195.179 21.4047 195.912 21.7173 196.397 22.184C196.883 22.6413 197.125 23.248 197.125 24.004C197.125 24.6387 196.957 25.194 196.621 25.67C196.285 26.1367 195.805 26.5007 195.179 26.762C194.563 27.014 193.835 27.14 192.995 27.14ZM201.144 27V17.2H205.932C206.594 17.2 207.178 17.3307 207.682 17.592C208.195 17.844 208.592 18.1987 208.872 18.656C209.161 19.1133 209.306 19.6407 209.306 20.238C209.306 20.8633 209.133 21.414 208.788 21.89C208.442 22.366 207.98 22.7207 207.402 22.954L209.572 27H207.304L205.386 23.248H203.174V27H201.144ZM203.174 21.582H205.75C206.207 21.582 206.571 21.4607 206.842 21.218C207.122 20.9753 207.262 20.658 207.262 20.266C207.262 19.874 207.122 19.5567 206.842 19.314C206.571 19.0713 206.207 18.95 205.75 18.95H203.174V21.582ZM215.448 27.154C214.72 27.154 214.043 27.028 213.418 26.776C212.792 26.5147 212.242 26.1553 211.766 25.698C211.299 25.2313 210.93 24.6947 210.66 24.088C210.398 23.472 210.268 22.8093 210.268 22.1C210.268 21.3907 210.398 20.7327 210.66 20.126C210.93 19.51 211.299 18.9733 211.766 18.516C212.242 18.0493 212.792 17.69 213.418 17.438C214.043 17.1767 214.72 17.046 215.448 17.046C216.176 17.046 216.852 17.1767 217.478 17.438C218.112 17.69 218.663 18.0493 219.13 18.516C219.606 18.9733 219.974 19.51 220.236 20.126C220.497 20.7327 220.628 21.3907 220.628 22.1C220.628 22.8093 220.497 23.472 220.236 24.088C219.974 24.6947 219.606 25.2313 219.13 25.698C218.663 26.1553 218.112 26.5147 217.478 26.776C216.852 27.028 216.176 27.154 215.448 27.154ZM215.448 25.292C215.896 25.292 216.306 25.2127 216.68 25.054C217.053 24.886 217.38 24.662 217.66 24.382C217.94 24.0927 218.159 23.752 218.318 23.36C218.476 22.968 218.556 22.548 218.556 22.1C218.556 21.6427 218.476 21.2227 218.318 20.84C218.159 20.448 217.94 20.112 217.66 19.832C217.38 19.5427 217.053 19.3187 216.68 19.16C216.306 18.992 215.896 18.908 215.448 18.908C215.009 18.908 214.603 18.992 214.23 19.16C213.856 19.3187 213.53 19.5427 213.25 19.832C212.97 20.112 212.75 20.448 212.592 20.84C212.433 21.2227 212.354 21.638 212.354 22.086C212.354 22.5433 212.433 22.968 212.592 23.36C212.75 23.752 212.97 24.0927 213.25 24.382C213.53 24.662 213.856 24.886 214.23 25.054C214.603 25.2127 215.009 25.292 215.448 25.292ZM220.549 27L224.581 17.2H226.919L230.909 27H228.711L227.717 24.424H223.671L222.663 27H220.549ZM224.301 22.8H227.101L225.701 19.188L224.301 22.8ZM233.771 25.194H235.479C235.918 25.194 236.324 25.1193 236.697 24.97C237.08 24.8113 237.411 24.592 237.691 24.312C237.981 24.032 238.2 23.7053 238.349 23.332C238.508 22.9587 238.587 22.5527 238.587 22.114C238.587 21.6753 238.508 21.2693 238.349 20.896C238.191 20.5133 237.971 20.182 237.691 19.902C237.411 19.622 237.08 19.4027 236.697 19.244C236.324 19.0853 235.918 19.006 235.479 19.006H233.771V25.194ZM231.741 27V17.2H235.507C236.245 17.2 236.926 17.326 237.551 17.578C238.177 17.8207 238.723 18.166 239.189 18.614C239.656 19.062 240.02 19.5847 240.281 20.182C240.552 20.7793 240.687 21.4233 240.687 22.114C240.687 22.814 240.557 23.458 240.295 24.046C240.034 24.634 239.665 25.152 239.189 25.6C238.723 26.0387 238.177 26.384 237.551 26.636C236.926 26.8787 236.245 27 235.507 27H231.741ZM242.077 27V17.2H244.681L247.369 22.492L250.057 17.2H252.661V27H250.743V19.79L247.341 26.3L243.953 19.762V27H242.077ZM253.485 27L257.517 17.2H259.855L263.845 27H261.647L260.653 24.424H256.607L255.599 27H253.485ZM257.237 22.8H260.037L258.637 19.188L257.237 22.8ZM264.677 27V17.2H269.591C270.235 17.2 270.8 17.3307 271.285 17.592C271.78 17.8533 272.167 18.2173 272.447 18.684C272.727 19.1413 272.867 19.6733 272.867 20.28C272.867 20.8587 272.727 21.3767 272.447 21.834C272.167 22.2913 271.78 22.6507 271.285 22.912C270.79 23.1733 270.226 23.304 269.591 23.304H266.707V27H264.677ZM266.707 21.624H269.367C269.806 21.624 270.156 21.5027 270.417 21.26C270.688 21.0173 270.823 20.6953 270.823 20.294C270.823 19.8833 270.688 19.5567 270.417 19.314C270.156 19.0713 269.806 18.95 269.367 18.95H266.707V21.624Z" fill="#0F172A"/>
<path d="M41.5652 164L40.3252 158.4H41.5172L42.2772 162.192L43.3652 158.4H44.4612L45.5492 162.184L46.3092 158.4H47.4612L46.2292 164H45.0052L43.9012 160.096L42.7812 164H41.5652ZM48.1759 164V158.4H52.4799V159.408H49.3359V160.688H51.4079V161.664H49.3359V162.992H52.5119V164H48.1759ZM54.4055 164L56.7095 158.4H58.0455L60.3255 164H59.0695L58.5015 162.528H56.1895L55.6135 164H54.4055ZM56.5495 161.6H58.1495L57.3495 159.536L56.5495 161.6ZM60.8009 164V158.4H63.5369C63.9155 158.4 64.2489 158.475 64.5369 158.624C64.8302 158.768 65.0569 158.971 65.2169 159.232C65.3822 159.493 65.4649 159.795 65.4649 160.136C65.4649 160.493 65.3662 160.808 65.1689 161.08C64.9715 161.352 64.7075 161.555 64.3769 161.688L65.6169 164H64.3209L63.2249 161.856H61.9609V164H60.8009ZM61.9609 160.904H63.4329C63.6942 160.904 63.9022 160.835 64.0569 160.696C64.2169 160.557 64.2969 160.376 64.2969 160.152C64.2969 159.928 64.2169 159.747 64.0569 159.608C63.9022 159.469 63.6942 159.4 63.4329 159.4H61.9609V160.904ZM66.2306 164V158.4H70.5346V159.408H67.3906V160.688H69.4626V161.664H67.3906V162.992H70.5666V164H66.2306ZM45.1759 176V170.4H46.3359V172.656H48.9119V170.4H50.0719V176H48.9119V173.704H46.3359V176H45.1759ZM51.0899 176V170.4H55.3939V171.408H52.2499V172.688H54.3219V173.664H52.2499V174.992H55.4259V176H51.0899ZM56.2462 176V170.4H58.9822C59.3609 170.4 59.6942 170.475 59.9822 170.624C60.2755 170.768 60.5022 170.971 60.6622 171.232C60.8275 171.493 60.9102 171.795 60.9102 172.136C60.9102 172.493 60.8115 172.808 60.6142 173.08C60.4169 173.352 60.1529 173.555 59.8222 173.688L61.0622 176H59.7662L58.6702 173.856H57.4062V176H56.2462ZM57.4062 172.904H58.8782C59.1395 172.904 59.3475 172.835 59.5022 172.696C59.6622 172.557 59.7422 172.376 59.7422 172.152C59.7422 171.928 59.6622 171.747 59.5022 171.608C59.3475 171.469 59.1395 171.4 58.8782 171.4H57.4062V172.904ZM61.6759 176V170.4H65.9799V171.408H62.8359V172.688H64.9079V173.664H62.8359V174.992H66.0119V176H61.6759Z" fill="#0F172A"/>
<circle cx="25.8023" cy="179.802" r="5.55226" fill="#0497EC" stroke="#0F172A" stroke-width="0.5"/>
<path d="M78.5 180.302L31.6046 180.302" stroke="#0F172A"/>
<line x1="57.5001" y1="221" x2="57.5001" y2="272.774" stroke="#848D9C"/>
<circle cx="57.5707" cy="217.571" r="3.32062" fill="#848D9C" stroke="#0F172A" stroke-width="0.5"/>
<path d="M63.835 236.077C63.4803 236.077 63.149 236.014 62.841 235.888C62.533 235.757 62.26 235.578 62.022 235.349C61.7887 235.116 61.6067 234.847 61.476 234.544C61.35 234.236 61.287 233.905 61.287 233.55C61.287 233.195 61.35 232.866 61.476 232.563C61.6067 232.255 61.7887 231.987 62.022 231.758C62.26 231.525 62.533 231.345 62.841 231.219C63.149 231.088 63.4803 231.023 63.835 231.023C64.1897 231.023 64.521 231.088 64.829 231.219C65.1417 231.345 65.4147 231.525 65.648 231.758C65.8813 231.987 66.0633 232.255 66.194 232.563C66.3247 232.866 66.39 233.195 66.39 233.55C66.39 233.905 66.3247 234.236 66.194 234.544C66.0633 234.847 65.8813 235.116 65.648 235.349C65.4147 235.578 65.1417 235.757 64.829 235.888C64.521 236.014 64.1897 236.077 63.835 236.077ZM63.842 235.398C64.094 235.398 64.3273 235.351 64.542 235.258C64.7613 235.165 64.9527 235.036 65.116 234.873C65.2793 234.705 65.4077 234.509 65.501 234.285C65.5943 234.056 65.641 233.811 65.641 233.55C65.641 233.284 65.5943 233.039 65.501 232.815C65.4077 232.591 65.2793 232.397 65.116 232.234C64.9527 232.066 64.7613 231.935 64.542 231.842C64.3273 231.749 64.094 231.702 63.842 231.702C63.5853 231.702 63.3473 231.749 63.128 231.842C62.9087 231.935 62.7173 232.066 62.554 232.234C62.3907 232.397 62.2623 232.591 62.169 232.815C62.0803 233.039 62.036 233.282 62.036 233.543C62.036 233.809 62.0803 234.056 62.169 234.285C62.2623 234.509 62.3907 234.705 62.554 234.873C62.7173 235.036 62.9087 235.165 63.128 235.258C63.3473 235.351 63.5853 235.398 63.842 235.398ZM67.164 236V231.1H70.79V231.744H67.899V233.249H69.803V233.872H67.899V236H67.164ZM71.5048 236V231.1H75.1308V231.744H72.2398V233.249H74.1438V233.872H72.2398V236H71.5048ZM75.3699 234.327V233.718H77.8899V234.327H75.3699ZM81.1373 236.077C80.7733 236.077 80.4349 236.014 80.1223 235.888C79.8143 235.757 79.5413 235.578 79.3033 235.349C79.0699 235.116 78.8879 234.847 78.7573 234.544C78.6313 234.236 78.5683 233.905 78.5683 233.55C78.5683 233.195 78.6313 232.866 78.7573 232.563C78.8879 232.255 79.0699 231.987 79.3033 231.758C79.5413 231.525 79.8166 231.345 80.1292 231.219C80.4419 231.088 80.7779 231.023 81.1373 231.023C81.3939 231.023 81.6436 231.058 81.8863 231.128C82.1336 231.193 82.3599 231.289 82.5653 231.415C82.7753 231.541 82.9573 231.693 83.1113 231.87L82.6213 232.374C82.4393 232.155 82.2176 231.989 81.9563 231.877C81.6949 231.76 81.4219 231.702 81.1373 231.702C80.8759 231.702 80.6333 231.749 80.4093 231.842C80.1899 231.935 79.9986 232.066 79.8353 232.234C79.6719 232.397 79.5436 232.591 79.4503 232.815C79.3616 233.039 79.3173 233.284 79.3173 233.55C79.3173 233.811 79.3616 234.054 79.4503 234.278C79.5436 234.502 79.6743 234.698 79.8423 234.866C80.0103 235.034 80.2063 235.165 80.4303 235.258C80.6543 235.351 80.8969 235.398 81.1583 235.398C81.4429 235.398 81.7113 235.342 81.9633 235.23C82.2199 235.113 82.4369 234.95 82.6143 234.74L83.0973 235.23C82.9339 235.403 82.7473 235.554 82.5373 235.685C82.3319 235.811 82.1079 235.909 81.8653 235.979C81.6273 236.044 81.3846 236.077 81.1373 236.077ZM83.8163 236V231.1H84.5513V233.2H87.1553V231.1H87.8903V236H87.1553V233.865H84.5513V236H83.8163ZM88.3986 236L90.4216 231.1H91.2896L93.2916 236H92.4936L91.9266 234.565H89.7356L89.1616 236H88.3986ZM89.9736 233.956H91.6886L90.8346 231.8L89.9736 233.956ZM93.7968 236V231.1H94.5318V236H93.7968ZM95.5331 236V231.1H96.2471L98.9841 234.74V231.1H99.6771V236H99.0331L96.2331 232.248V236H95.5331ZM103.613 236V234.054L101.639 231.1H102.493L103.998 233.403L105.503 231.1H106.322L104.348 234.068V236H103.613ZM106.806 236V231.1H107.541V236H106.806ZM108.542 236V231.1H112.154V231.744H109.277V233.214H111.167V233.837H109.277V235.356H112.182V236H108.542ZM112.937 236V231.1H113.672V235.349H116.493V236H112.937ZM117.972 235.342H118.98C119.237 235.342 119.475 235.298 119.694 235.209C119.914 235.116 120.105 234.99 120.268 234.831C120.436 234.668 120.565 234.479 120.653 234.264C120.747 234.045 120.793 233.807 120.793 233.55C120.793 233.298 120.747 233.062 120.653 232.843C120.565 232.624 120.436 232.435 120.268 232.276C120.105 232.113 119.914 231.987 119.694 231.898C119.475 231.805 119.237 231.758 118.98 231.758H117.972V235.342ZM117.237 236V231.1H118.966C119.335 231.1 119.676 231.163 119.988 231.289C120.301 231.41 120.574 231.581 120.807 231.8C121.041 232.019 121.223 232.278 121.353 232.577C121.484 232.876 121.549 233.2 121.549 233.55C121.549 233.905 121.484 234.231 121.353 234.53C121.227 234.824 121.048 235.081 120.814 235.3C120.581 235.519 120.306 235.692 119.988 235.818C119.676 235.939 119.335 236 118.966 236H117.237ZM62.288 248L61.217 243.1H61.973L62.736 246.845L63.842 243.1H64.542L65.648 246.838L66.418 243.1H67.139L66.068 248H65.312L64.185 244.15L63.051 248H62.288ZM67.8544 248V243.1H68.5894V248H67.8544ZM70.9348 248V243.751H69.2128V243.1H73.3918V243.751H71.6698V248H70.9348ZM74.0068 248V243.1H74.7418V245.2H77.3458V243.1H78.0808V248H77.3458V245.865H74.7418V248H74.0068ZM82.8799 248.077C82.5253 248.077 82.1939 248.014 81.8859 247.888C81.5779 247.757 81.3049 247.578 81.0669 247.349C80.8336 247.116 80.6516 246.847 80.5209 246.544C80.3949 246.236 80.3319 245.905 80.3319 245.55C80.3319 245.195 80.3949 244.866 80.5209 244.563C80.6516 244.255 80.8336 243.987 81.0669 243.758C81.3049 243.525 81.5779 243.345 81.8859 243.219C82.1939 243.088 82.5253 243.023 82.8799 243.023C83.2346 243.023 83.5659 243.088 83.8739 243.219C84.1866 243.345 84.4596 243.525 84.6929 243.758C84.9263 243.987 85.1083 244.255 85.2389 244.563C85.3696 244.866 85.4349 245.195 85.4349 245.55C85.4349 245.905 85.3696 246.236 85.2389 246.544C85.1083 246.847 84.9263 247.116 84.6929 247.349C84.4596 247.578 84.1866 247.757 83.8739 247.888C83.5659 248.014 83.2346 248.077 82.8799 248.077ZM82.8869 247.398C83.1389 247.398 83.3723 247.351 83.5869 247.258C83.8063 247.165 83.9976 247.036 84.1609 246.873C84.3243 246.705 84.4526 246.509 84.5459 246.285C84.6393 246.056 84.6859 245.811 84.6859 245.55C84.6859 245.284 84.6393 245.039 84.5459 244.815C84.4526 244.591 84.3243 244.397 84.1609 244.234C83.9976 244.066 83.8063 243.935 83.5869 243.842C83.3723 243.749 83.1389 243.702 82.8869 243.702C82.6303 243.702 82.3923 243.749 82.1729 243.842C81.9536 243.935 81.7623 244.066 81.5989 244.234C81.4356 244.397 81.3073 244.591 81.2139 244.815C81.1253 245.039 81.0809 245.282 81.0809 245.543C81.0809 245.809 81.1253 246.056 81.2139 246.285C81.3073 246.509 81.4356 246.705 81.5989 246.873C81.7623 247.036 81.9536 247.165 82.1729 247.258C82.3923 247.351 82.6303 247.398 82.8869 247.398ZM86.2089 248V243.1H86.9229L89.6599 246.74V243.1H90.3529V248H89.7089L86.9089 244.248V248H86.2089ZM91.1814 246.327V245.718H93.7014V246.327H91.1814ZM96.9488 248.077C96.5848 248.077 96.2464 248.014 95.9338 247.888C95.6258 247.757 95.3528 247.578 95.1148 247.349C94.8814 247.116 94.6994 246.847 94.5688 246.544C94.4428 246.236 94.3798 245.905 94.3798 245.55C94.3798 245.195 94.4428 244.866 94.5688 244.563C94.6994 244.255 94.8814 243.987 95.1148 243.758C95.3528 243.525 95.6281 243.345 95.9408 243.219C96.2534 243.088 96.5894 243.023 96.9488 243.023C97.2054 243.023 97.4551 243.058 97.6978 243.128C97.9451 243.193 98.1714 243.289 98.3768 243.415C98.5868 243.541 98.7688 243.693 98.9228 243.87L98.4328 244.374C98.2508 244.155 98.0291 243.989 97.7678 243.877C97.5064 243.76 97.2334 243.702 96.9488 243.702C96.6874 243.702 96.4448 243.749 96.2208 243.842C96.0014 243.935 95.8101 244.066 95.6468 244.234C95.4834 244.397 95.3551 244.591 95.2618 244.815C95.1731 245.039 95.1288 245.284 95.1288 245.55C95.1288 245.811 95.1731 246.054 95.2618 246.278C95.3551 246.502 95.4858 246.698 95.6538 246.866C95.8218 247.034 96.0178 247.165 96.2418 247.258C96.4658 247.351 96.7084 247.398 96.9698 247.398C97.2544 247.398 97.5228 247.342 97.7748 247.23C98.0314 247.113 98.2484 246.95 98.4258 246.74L98.9088 247.23C98.7454 247.403 98.5588 247.554 98.3488 247.685C98.1434 247.811 97.9194 247.909 97.6768 247.979C97.4388 248.044 97.1961 248.077 96.9488 248.077ZM99.6279 248V243.1H100.363V245.2H102.967V243.1H103.702V248H102.967V245.865H100.363V248H99.6279ZM104.21 248L106.233 243.1H107.101L109.103 248H108.305L107.738 246.565H105.547L104.973 248H104.21ZM105.785 245.956H107.5L106.646 243.8L105.785 245.956ZM109.608 248V243.1H110.343V248H109.608ZM111.345 248V243.1H112.059L114.796 246.74V243.1H115.489V248H114.845L112.045 244.248V248H111.345ZM63.856 260.077C63.492 260.077 63.1537 260.014 62.841 259.888C62.533 259.757 62.26 259.578 62.022 259.349C61.7887 259.116 61.6067 258.847 61.476 258.544C61.35 258.236 61.287 257.905 61.287 257.55C61.287 257.195 61.35 256.866 61.476 256.563C61.6067 256.255 61.7887 255.987 62.022 255.758C62.26 255.525 62.5353 255.345 62.848 255.219C63.1607 255.088 63.4967 255.023 63.856 255.023C64.1127 255.023 64.3623 255.058 64.605 255.128C64.8523 255.193 65.0787 255.289 65.284 255.415C65.494 255.541 65.676 255.693 65.83 255.87L65.34 256.374C65.158 256.155 64.9363 255.989 64.675 255.877C64.4137 255.76 64.1407 255.702 63.856 255.702C63.5947 255.702 63.352 255.749 63.128 255.842C62.9087 255.935 62.7173 256.066 62.554 256.234C62.3907 256.397 62.2623 256.591 62.169 256.815C62.0803 257.039 62.036 257.284 62.036 257.55C62.036 257.811 62.0803 258.054 62.169 258.278C62.2623 258.502 62.393 258.698 62.561 258.866C62.729 259.034 62.925 259.165 63.149 259.258C63.373 259.351 63.6157 259.398 63.877 259.398C64.1617 259.398 64.43 259.342 64.682 259.23C64.9387 259.113 65.1557 258.95 65.333 258.74L65.816 259.23C65.6527 259.403 65.466 259.554 65.256 259.685C65.0507 259.811 64.8267 259.909 64.584 259.979C64.346 260.044 64.1033 260.077 63.856 260.077ZM68.5301 260.077C68.1054 260.077 67.7368 259.988 67.4241 259.811C67.1114 259.634 66.8711 259.384 66.7031 259.062C66.5351 258.735 66.4511 258.35 66.4511 257.907V255.1H67.1861V257.907C67.1861 258.21 67.2398 258.474 67.3471 258.698C67.4591 258.922 67.6154 259.095 67.8161 259.216C68.0214 259.337 68.2594 259.398 68.5301 259.398C68.8101 259.398 69.0504 259.337 69.2511 259.216C69.4518 259.095 69.6058 258.922 69.7131 258.698C69.8251 258.474 69.8811 258.21 69.8811 257.907V255.1H70.6161V257.907C70.6161 258.35 70.5298 258.735 70.3571 259.062C70.1891 259.384 69.9488 259.634 69.6361 259.811C69.3234 259.988 68.9548 260.077 68.5301 260.077ZM73.1843 260.07C72.7923 260.07 72.4143 259.993 72.0503 259.839C71.6863 259.685 71.3643 259.468 71.0843 259.188L71.5323 258.67C71.7983 258.931 72.069 259.125 72.3443 259.251C72.6243 259.377 72.916 259.44 73.2193 259.44C73.4573 259.44 73.665 259.407 73.8423 259.342C74.0243 259.272 74.1643 259.174 74.2623 259.048C74.3603 258.922 74.4093 258.78 74.4093 258.621C74.4093 258.402 74.3323 258.234 74.1783 258.117C74.0243 258 73.77 257.912 73.4153 257.851L72.5963 257.718C72.1483 257.639 71.8123 257.494 71.5883 257.284C71.369 257.074 71.2593 256.794 71.2593 256.444C71.2593 256.164 71.334 255.919 71.4833 255.709C71.6327 255.494 71.8427 255.329 72.1133 255.212C72.3887 255.095 72.706 255.037 73.0653 255.037C73.42 255.037 73.7677 255.095 74.1083 255.212C74.4537 255.324 74.764 255.487 75.0393 255.702L74.6333 256.262C74.106 255.861 73.5717 255.66 73.0303 255.66C72.8157 255.66 72.629 255.69 72.4703 255.751C72.3117 255.812 72.188 255.898 72.0993 256.01C72.0107 256.117 71.9663 256.243 71.9663 256.388C71.9663 256.589 72.034 256.743 72.1693 256.85C72.3047 256.953 72.5287 257.027 72.8413 257.074L73.6323 257.207C74.1503 257.291 74.5307 257.443 74.7733 257.662C75.016 257.881 75.1373 258.182 75.1373 258.565C75.1373 258.864 75.0557 259.127 74.8923 259.356C74.729 259.58 74.5003 259.755 74.2063 259.881C73.9123 260.007 73.5717 260.07 73.1843 260.07ZM77.0598 260V255.751H75.3378V255.1H79.5168V255.751H77.7948V260H77.0598ZM82.1348 260.077C81.7801 260.077 81.4488 260.014 81.1408 259.888C80.8328 259.757 80.5598 259.578 80.3218 259.349C80.0885 259.116 79.9065 258.847 79.7758 258.544C79.6498 258.236 79.5868 257.905 79.5868 257.55C79.5868 257.195 79.6498 256.866 79.7758 256.563C79.9065 256.255 80.0885 255.987 80.3218 255.758C80.5598 255.525 80.8328 255.345 81.1408 255.219C81.4488 255.088 81.7801 255.023 82.1348 255.023C82.4895 255.023 82.8208 255.088 83.1288 255.219C83.4415 255.345 83.7145 255.525 83.9478 255.758C84.1811 255.987 84.3631 256.255 84.4938 256.563C84.6245 256.866 84.6898 257.195 84.6898 257.55C84.6898 257.905 84.6245 258.236 84.4938 258.544C84.3631 258.847 84.1811 259.116 83.9478 259.349C83.7145 259.578 83.4415 259.757 83.1288 259.888C82.8208 260.014 82.4895 260.077 82.1348 260.077ZM82.1418 259.398C82.3938 259.398 82.6271 259.351 82.8418 259.258C83.0611 259.165 83.2525 259.036 83.4158 258.873C83.5791 258.705 83.7075 258.509 83.8008 258.285C83.8941 258.056 83.9408 257.811 83.9408 257.55C83.9408 257.284 83.8941 257.039 83.8008 256.815C83.7075 256.591 83.5791 256.397 83.4158 256.234C83.2525 256.066 83.0611 255.935 82.8418 255.842C82.6271 255.749 82.3938 255.702 82.1418 255.702C81.8851 255.702 81.6471 255.749 81.4278 255.842C81.2085 255.935 81.0171 256.066 80.8538 256.234C80.6905 256.397 80.5621 256.591 80.4688 256.815C80.3801 257.039 80.3358 257.282 80.3358 257.543C80.3358 257.809 80.3801 258.056 80.4688 258.285C80.5621 258.509 80.6905 258.705 80.8538 258.873C81.0171 259.036 81.2085 259.165 81.4278 259.258C81.6471 259.351 81.8851 259.398 82.1418 259.398ZM86.1988 259.342H87.2068C87.4635 259.342 87.7015 259.298 87.9208 259.209C88.1401 259.116 88.3315 258.99 88.4948 258.831C88.6628 258.668 88.7911 258.479 88.8798 258.264C88.9731 258.045 89.0198 257.807 89.0198 257.55C89.0198 257.298 88.9731 257.062 88.8798 256.843C88.7911 256.624 88.6628 256.435 88.4948 256.276C88.3315 256.113 88.1401 255.987 87.9208 255.898C87.7015 255.805 87.4635 255.758 87.2068 255.758H86.1988V259.342ZM85.4638 260V255.1H87.1928C87.5615 255.1 87.9021 255.163 88.2148 255.289C88.5275 255.41 88.8005 255.581 89.0338 255.8C89.2671 256.019 89.4491 256.278 89.5798 256.577C89.7105 256.876 89.7758 257.2 89.7758 257.55C89.7758 257.905 89.7105 258.231 89.5798 258.53C89.4538 258.824 89.2741 259.081 89.0408 259.3C88.8075 259.519 88.5321 259.692 88.2148 259.818C87.9021 259.939 87.5615 260 87.1928 260H85.4638ZM91.5617 260V258.054L89.5877 255.1H90.4417L91.9467 257.403L93.4517 255.1H94.2707L92.2967 258.068V260H91.5617Z" fill="#848D9C"/>
<line x1="129.624" y1="221.587" x2="129.624" y2="273.362" stroke="#848D9C"/>
<circle cx="129.794" cy="217.794" r="3.54379" fill="#848D9C" stroke="#0F172A" stroke-width="0.5"/>
<path d="M135.232 239.342H136.24C136.497 239.342 136.735 239.298 136.954 239.209C137.173 239.116 137.365 238.99 137.528 238.831C137.696 238.668 137.824 238.479 137.913 238.264C138.006 238.045 138.053 237.807 138.053 237.55C138.053 237.298 138.006 237.062 137.913 236.843C137.824 236.624 137.696 236.435 137.528 236.276C137.365 236.113 137.173 235.987 136.954 235.898C136.735 235.805 136.497 235.758 136.24 235.758H135.232V239.342ZM134.497 240V235.1H136.226C136.595 235.1 136.935 235.163 137.248 235.289C137.561 235.41 137.834 235.581 138.067 235.8C138.3 236.019 138.482 236.278 138.613 236.577C138.744 236.876 138.809 237.2 138.809 237.55C138.809 237.905 138.744 238.231 138.613 238.53C138.487 238.824 138.307 239.081 138.074 239.3C137.841 239.519 137.565 239.692 137.248 239.818C136.935 239.939 136.595 240 136.226 240H134.497ZM139.583 240V235.1H143.195V235.744H140.318V237.214H142.208V237.837H140.318V239.356H143.223V240H139.583ZM143.978 240V235.1H147.604V235.744H144.713V237.249H146.617V237.872H144.713V240H143.978ZM148.319 240V235.1H149.054V240H148.319ZM134.497 252V247.1H135.232V251.349H138.053V252H134.497ZM138.797 252V247.1H142.409V247.744H139.532V249.214H141.422V249.837H139.532V251.356H142.437V252H138.797ZM143.192 252V247.1H143.906L146.643 250.74V247.1H147.336V252H146.692L143.892 248.248V252H143.192ZM149.075 251.342H150.083C150.339 251.342 150.577 251.298 150.797 251.209C151.016 251.116 151.207 250.99 151.371 250.831C151.539 250.668 151.667 250.479 151.756 250.264C151.849 250.045 151.896 249.807 151.896 249.55C151.896 249.298 151.849 249.062 151.756 248.843C151.667 248.624 151.539 248.435 151.371 248.276C151.207 248.113 151.016 247.987 150.797 247.898C150.577 247.805 150.339 247.758 150.083 247.758H149.075V251.342ZM148.34 252V247.1H150.069C150.437 247.1 150.778 247.163 151.091 247.289C151.403 247.41 151.676 247.581 151.91 247.8C152.143 248.019 152.325 248.278 152.456 248.577C152.586 248.876 152.652 249.2 152.652 249.55C152.652 249.905 152.586 250.231 152.456 250.53C152.33 250.824 152.15 251.081 151.917 251.3C151.683 251.519 151.408 251.692 151.091 251.818C150.778 251.939 150.437 252 150.069 252H148.34ZM153.426 252V247.1H157.038V247.744H154.161V249.214H156.051V249.837H154.161V251.356H157.066V252H153.426ZM157.821 252V247.1H160.04C160.367 247.1 160.652 247.161 160.894 247.282C161.142 247.403 161.333 247.574 161.468 247.793C161.608 248.008 161.678 248.26 161.678 248.549C161.678 248.871 161.587 249.149 161.405 249.382C161.223 249.615 160.978 249.783 160.67 249.886L161.762 252H160.95L159.935 249.991H158.556V252H157.821ZM158.556 249.375H159.984C160.274 249.375 160.505 249.303 160.677 249.158C160.855 249.009 160.943 248.808 160.943 248.556C160.943 248.313 160.855 248.117 160.677 247.968C160.505 247.819 160.274 247.744 159.984 247.744H158.556V249.375ZM164.115 252.07C163.723 252.07 163.345 251.993 162.981 251.839C162.617 251.685 162.295 251.468 162.015 251.188L162.463 250.67C162.729 250.931 163 251.125 163.275 251.251C163.555 251.377 163.847 251.44 164.15 251.44C164.388 251.44 164.596 251.407 164.773 251.342C164.955 251.272 165.095 251.174 165.193 251.048C165.291 250.922 165.34 250.78 165.34 250.621C165.34 250.402 165.263 250.234 165.109 250.117C164.955 250 164.701 249.912 164.346 249.851L163.527 249.718C163.079 249.639 162.743 249.494 162.519 249.284C162.3 249.074 162.19 248.794 162.19 248.444C162.19 248.164 162.265 247.919 162.414 247.709C162.563 247.494 162.773 247.329 163.044 247.212C163.319 247.095 163.637 247.037 163.996 247.037C164.351 247.037 164.698 247.095 165.039 247.212C165.384 247.324 165.695 247.487 165.97 247.702L165.564 248.262C165.037 247.861 164.502 247.66 163.961 247.66C163.746 247.66 163.56 247.69 163.401 247.751C163.242 247.812 163.119 247.898 163.03 248.01C162.941 248.117 162.897 248.243 162.897 248.388C162.897 248.589 162.965 248.743 163.1 248.85C163.235 248.953 163.459 249.027 163.772 249.074L164.563 249.207C165.081 249.291 165.461 249.443 165.704 249.662C165.947 249.881 166.068 250.182 166.068 250.565C166.068 250.864 165.986 251.127 165.823 251.356C165.66 251.58 165.431 251.755 165.137 251.881C164.843 252.007 164.502 252.07 164.115 252.07Z" fill="#848D9C"/>
<line x1="201.624" y1="221.587" x2="201.624" y2="273.362" stroke="#848D9C"/>
<circle cx="201.794" cy="217.794" r="3.54379" fill="#848D9C" stroke="#0F172A" stroke-width="0.5"/>
<path d="M206.497 235V230.1H208.716C209.043 230.1 209.327 230.161 209.57 230.282C209.817 230.403 210.009 230.574 210.144 230.793C210.284 231.008 210.354 231.26 210.354 231.549C210.354 231.871 210.263 232.149 210.081 232.382C209.899 232.615 209.654 232.783 209.346 232.886L210.438 235H209.626L208.611 232.991H207.232V235H206.497ZM207.232 232.375H208.66C208.949 232.375 209.18 232.303 209.353 232.158C209.53 232.009 209.619 231.808 209.619 231.556C209.619 231.313 209.53 231.117 209.353 230.968C209.18 230.819 208.949 230.744 208.66 230.744H207.232V232.375ZM211.111 235V230.1H214.723V230.744H211.846V232.214H213.736V232.837H211.846V234.356H214.751V235H211.111ZM217.558 235.077C217.199 235.077 216.863 235.012 216.55 234.881C216.242 234.75 215.971 234.571 215.738 234.342C215.505 234.109 215.323 233.84 215.192 233.537C215.061 233.229 214.996 232.9 214.996 232.55C214.996 232.2 215.059 231.873 215.185 231.57C215.316 231.262 215.498 230.994 215.731 230.765C215.964 230.532 216.235 230.35 216.543 230.219C216.851 230.088 217.185 230.023 217.544 230.023C217.931 230.023 218.298 230.098 218.643 230.247C218.988 230.396 219.28 230.604 219.518 230.87L219.014 231.36C218.837 231.15 218.617 230.989 218.356 230.877C218.099 230.76 217.829 230.702 217.544 230.702C217.287 230.702 217.049 230.749 216.83 230.842C216.615 230.935 216.426 231.066 216.263 231.234C216.1 231.397 215.971 231.591 215.878 231.815C215.789 232.039 215.745 232.284 215.745 232.55C215.745 232.811 215.789 233.056 215.878 233.285C215.971 233.509 216.1 233.705 216.263 233.873C216.431 234.041 216.625 234.172 216.844 234.265C217.063 234.358 217.301 234.405 217.558 234.405C217.847 234.405 218.109 234.344 218.342 234.223C218.58 234.102 218.774 233.936 218.923 233.726C219.072 233.511 219.163 233.271 219.196 233.005H217.565V232.361H219.966V232.613C219.966 232.963 219.905 233.287 219.784 233.586C219.663 233.885 219.492 234.146 219.273 234.37C219.058 234.594 218.804 234.769 218.51 234.895C218.216 235.016 217.899 235.077 217.558 235.077ZM222.731 235.077C222.307 235.077 221.938 234.988 221.625 234.811C221.313 234.634 221.072 234.384 220.904 234.062C220.736 233.735 220.652 233.35 220.652 232.907V230.1H221.387V232.907C221.387 233.21 221.441 233.474 221.548 233.698C221.66 233.922 221.817 234.095 222.017 234.216C222.223 234.337 222.461 234.398 222.731 234.398C223.011 234.398 223.252 234.337 223.452 234.216C223.653 234.095 223.807 233.922 223.914 233.698C224.026 233.474 224.082 233.21 224.082 232.907V230.1H224.817V232.907C224.817 233.35 224.731 233.735 224.558 234.062C224.39 234.384 224.15 234.634 223.837 234.811C223.525 234.988 223.156 235.077 222.731 235.077ZM225.726 235V230.1H226.461V234.349H229.282V235H225.726ZM229.68 235L231.703 230.1H232.571L234.573 235H233.775L233.208 233.565H231.017L230.443 235H229.68ZM231.255 232.956H232.97L232.116 230.8L231.255 232.956ZM235.54 235V230.751H233.818V230.1H237.997V230.751H236.275V235H235.54ZM238.612 235V230.1H242.224V230.744H239.347V232.214H241.237V232.837H239.347V234.356H242.252V235H238.612ZM243.743 234.342H244.751C245.007 234.342 245.245 234.298 245.465 234.209C245.684 234.116 245.875 233.99 246.039 233.831C246.207 233.668 246.335 233.479 246.424 233.264C246.517 233.045 246.564 232.807 246.564 232.55C246.564 232.298 246.517 232.062 246.424 231.843C246.335 231.624 246.207 231.435 246.039 231.276C245.875 231.113 245.684 230.987 245.465 230.898C245.245 230.805 245.007 230.758 244.751 230.758H243.743V234.342ZM243.008 235V230.1H244.737C245.105 230.1 245.446 230.163 245.759 230.289C246.071 230.41 246.344 230.581 246.578 230.8C246.811 231.019 246.993 231.278 247.124 231.577C247.254 231.876 247.32 232.2 247.32 232.55C247.32 232.905 247.254 233.231 247.124 233.53C246.998 233.824 246.818 234.081 246.585 234.3C246.351 234.519 246.076 234.692 245.759 234.818C245.446 234.939 245.105 235 244.737 235H243.008ZM249.067 235L251.09 230.1H251.958L253.96 235H253.162L252.595 233.565H250.404L249.83 235H249.067ZM250.642 232.956H252.357L251.503 230.8L250.642 232.956ZM254.465 235V230.1H255.179L257.916 233.74V230.1H258.609V235H257.965L255.165 231.248V235H254.465ZM260.347 234.342H261.355C261.612 234.342 261.85 234.298 262.069 234.209C262.289 234.116 262.48 233.99 262.643 233.831C262.811 233.668 262.94 233.479 263.028 233.264C263.122 233.045 263.168 232.807 263.168 232.55C263.168 232.298 263.122 232.062 263.028 231.843C262.94 231.624 262.811 231.435 262.643 231.276C262.48 231.113 262.289 230.987 262.069 230.898C261.85 230.805 261.612 230.758 261.355 230.758H260.347V234.342ZM259.612 235V230.1H261.341C261.71 230.1 262.051 230.163 262.363 230.289C262.676 230.41 262.949 230.581 263.182 230.8C263.416 231.019 263.598 231.278 263.728 231.577C263.859 231.876 263.924 232.2 263.924 232.55C263.924 232.905 263.859 233.231 263.728 233.53C263.602 233.824 263.423 234.081 263.189 234.3C262.956 234.519 262.681 234.692 262.363 234.818C262.051 234.939 261.71 235 261.341 235H259.612ZM206.497 247V242.1H207.232V246.349H210.053V247H206.497ZM210.797 247V242.1H211.532V247H210.797ZM214.892 247.077C214.528 247.077 214.19 247.014 213.877 246.888C213.569 246.757 213.296 246.578 213.058 246.349C212.825 246.116 212.643 245.847 212.512 245.544C212.386 245.236 212.323 244.905 212.323 244.55C212.323 244.195 212.386 243.866 212.512 243.563C212.643 243.255 212.825 242.987 213.058 242.758C213.296 242.525 213.571 242.345 213.884 242.219C214.197 242.088 214.533 242.023 214.892 242.023C215.149 242.023 215.398 242.058 215.641 242.128C215.888 242.193 216.115 242.289 216.32 242.415C216.53 242.541 216.712 242.693 216.866 242.87L216.376 243.374C216.194 243.155 215.972 242.989 215.711 242.877C215.45 242.76 215.177 242.702 214.892 242.702C214.631 242.702 214.388 242.749 214.164 242.842C213.945 242.935 213.753 243.066 213.59 243.234C213.427 243.397 213.298 243.591 213.205 243.815C213.116 244.039 213.072 244.284 213.072 244.55C213.072 244.811 213.116 245.054 213.205 245.278C213.298 245.502 213.429 245.698 213.597 245.866C213.765 246.034 213.961 246.165 214.185 246.258C214.409 246.351 214.652 246.398 214.913 246.398C215.198 246.398 215.466 246.342 215.718 246.23C215.975 246.113 216.192 245.95 216.369 245.74L216.852 246.23C216.689 246.403 216.502 246.554 216.292 246.685C216.087 246.811 215.863 246.909 215.62 246.979C215.382 247.044 215.139 247.077 214.892 247.077ZM217.571 247V242.1H221.183V242.744H218.306V244.214H220.196V244.837H218.306V246.356H221.211V247H217.571ZM221.967 247V242.1H222.681L225.418 245.74V242.1H226.111V247H225.467L222.667 243.248V247H221.967ZM228.773 247.07C228.381 247.07 228.003 246.993 227.639 246.839C227.275 246.685 226.953 246.468 226.673 246.188L227.121 245.67C227.387 245.931 227.658 246.125 227.933 246.251C228.213 246.377 228.505 246.44 228.808 246.44C229.046 246.44 229.254 246.407 229.431 246.342C229.613 246.272 229.753 246.174 229.851 246.048C229.949 245.922 229.998 245.78 229.998 245.621C229.998 245.402 229.921 245.234 229.767 245.117C229.613 245 229.359 244.912 229.004 244.851L228.185 244.718C227.737 244.639 227.401 244.494 227.177 244.284C226.958 244.074 226.848 243.794 226.848 243.444C226.848 243.164 226.923 242.919 227.072 242.709C227.222 242.494 227.432 242.329 227.702 242.212C227.978 242.095 228.295 242.037 228.654 242.037C229.009 242.037 229.357 242.095 229.697 242.212C230.043 242.324 230.353 242.487 230.628 242.702L230.222 243.262C229.695 242.861 229.161 242.66 228.619 242.66C228.405 242.66 228.218 242.69 228.059 242.751C227.901 242.812 227.777 242.898 227.688 243.01C227.6 243.117 227.555 243.243 227.555 243.388C227.555 243.589 227.623 243.743 227.758 243.85C227.894 243.953 228.118 244.027 228.43 244.074L229.221 244.207C229.739 244.291 230.12 244.443 230.362 244.662C230.605 244.881 230.726 245.182 230.726 245.565C230.726 245.864 230.645 246.127 230.481 246.356C230.318 246.58 230.089 246.755 229.795 246.881C229.501 247.007 229.161 247.07 228.773 247.07ZM231.407 247V242.1H235.019V242.744H232.142V244.214H234.032V244.837H232.142V246.356H235.047V247H231.407ZM236.538 246.342H237.546C237.802 246.342 238.04 246.298 238.26 246.209C238.479 246.116 238.67 245.99 238.834 245.831C239.002 245.668 239.13 245.479 239.219 245.264C239.312 245.045 239.359 244.807 239.359 244.55C239.359 244.298 239.312 244.062 239.219 243.843C239.13 243.624 239.002 243.435 238.834 243.276C238.67 243.113 238.479 242.987 238.26 242.898C238.04 242.805 237.802 242.758 237.546 242.758H236.538V246.342ZM235.803 247V242.1H237.532C237.9 242.1 238.241 242.163 238.554 242.289C238.866 242.41 239.139 242.581 239.373 242.8C239.606 243.019 239.788 243.278 239.919 243.577C240.049 243.876 240.115 244.2 240.115 244.55C240.115 244.905 240.049 245.231 239.919 245.53C239.793 245.824 239.613 246.081 239.38 246.3C239.146 246.519 238.871 246.692 238.554 246.818C238.241 246.939 237.9 247 237.532 247H235.803ZM208.856 259.077C208.492 259.077 208.154 259.014 207.841 258.888C207.533 258.757 207.26 258.578 207.022 258.349C206.789 258.116 206.607 257.847 206.476 257.544C206.35 257.236 206.287 256.905 206.287 256.55C206.287 256.195 206.35 255.866 206.476 255.563C206.607 255.255 206.789 254.987 207.022 254.758C207.26 254.525 207.535 254.345 207.848 254.219C208.161 254.088 208.497 254.023 208.856 254.023C209.113 254.023 209.362 254.058 209.605 254.128C209.852 254.193 210.079 254.289 210.284 254.415C210.494 254.541 210.676 254.693 210.83 254.87L210.34 255.374C210.158 255.155 209.936 254.989 209.675 254.877C209.414 254.76 209.141 254.702 208.856 254.702C208.595 254.702 208.352 254.749 208.128 254.842C207.909 254.935 207.717 255.066 207.554 255.234C207.391 255.397 207.262 255.591 207.169 255.815C207.08 256.039 207.036 256.284 207.036 256.55C207.036 256.811 207.08 257.054 207.169 257.278C207.262 257.502 207.393 257.698 207.561 257.866C207.729 258.034 207.925 258.165 208.149 258.258C208.373 258.351 208.616 258.398 208.877 258.398C209.162 258.398 209.43 258.342 209.682 258.23C209.939 258.113 210.156 257.95 210.333 257.74L210.816 258.23C210.653 258.403 210.466 258.554 210.256 258.685C210.051 258.811 209.827 258.909 209.584 258.979C209.346 259.044 209.103 259.077 208.856 259.077ZM213.771 259.077C213.416 259.077 213.085 259.014 212.777 258.888C212.469 258.757 212.196 258.578 211.958 258.349C211.724 258.116 211.542 257.847 211.412 257.544C211.286 257.236 211.223 256.905 211.223 256.55C211.223 256.195 211.286 255.866 211.412 255.563C211.542 255.255 211.724 254.987 211.958 254.758C212.196 254.525 212.469 254.345 212.777 254.219C213.085 254.088 213.416 254.023 213.771 254.023C214.125 254.023 214.457 254.088 214.765 254.219C215.077 254.345 215.35 254.525 215.584 254.758C215.817 254.987 215.999 255.255 216.13 255.563C216.26 255.866 216.326 256.195 216.326 256.55C216.326 256.905 216.26 257.236 216.13 257.544C215.999 257.847 215.817 258.116 215.584 258.349C215.35 258.578 215.077 258.757 214.765 258.888C214.457 259.014 214.125 259.077 213.771 259.077ZM213.778 258.398C214.03 258.398 214.263 258.351 214.478 258.258C214.697 258.165 214.888 258.036 215.052 257.873C215.215 257.705 215.343 257.509 215.437 257.285C215.53 257.056 215.577 256.811 215.577 256.55C215.577 256.284 215.53 256.039 215.437 255.815C215.343 255.591 215.215 255.397 215.052 255.234C214.888 255.066 214.697 254.935 214.478 254.842C214.263 254.749 214.03 254.702 213.778 254.702C213.521 254.702 213.283 254.749 213.064 254.842C212.844 254.935 212.653 255.066 212.49 255.234C212.326 255.397 212.198 255.591 212.105 255.815C212.016 256.039 211.972 256.282 211.972 256.543C211.972 256.809 212.016 257.056 212.105 257.285C212.198 257.509 212.326 257.705 212.49 257.873C212.653 258.036 212.844 258.165 213.064 258.258C213.283 258.351 213.521 258.398 213.778 258.398ZM217.1 259V254.1H218.087L219.62 257.236L221.153 254.1H222.133V259H221.44V254.996L219.613 258.65L217.786 254.996V259H217.1ZM223.129 259V254.1H225.397C225.719 254.1 225.999 254.163 226.237 254.289C226.475 254.41 226.662 254.581 226.797 254.8C226.932 255.019 227 255.274 227 255.563C227 255.852 226.932 256.107 226.797 256.326C226.662 256.545 226.473 256.718 226.23 256.844C225.992 256.965 225.714 257.026 225.397 257.026H223.864V259H223.129ZM223.864 256.403H225.32C225.609 256.403 225.838 256.328 226.006 256.179C226.179 256.025 226.265 255.822 226.265 255.57C226.265 255.318 226.179 255.117 226.006 254.968C225.838 254.819 225.609 254.744 225.32 254.744H223.864V256.403ZM226.556 259L228.579 254.1H229.447L231.449 259H230.651L230.084 257.565H227.893L227.319 259H226.556ZM228.131 256.956H229.846L228.992 254.8L228.131 256.956ZM231.954 259V254.1H232.668L235.405 257.74V254.1H236.098V259H235.454L232.654 255.248V259H231.954ZM238.571 259V257.054L236.597 254.1H237.451L238.956 256.403L240.461 254.1H241.28L239.306 257.068V259H238.571ZM208.156 271.07C207.764 271.07 207.386 270.993 207.022 270.839C206.658 270.685 206.336 270.468 206.056 270.188L206.504 269.67C206.77 269.931 207.041 270.125 207.316 270.251C207.596 270.377 207.888 270.44 208.191 270.44C208.429 270.44 208.637 270.407 208.814 270.342C208.996 270.272 209.136 270.174 209.234 270.048C209.332 269.922 209.381 269.78 209.381 269.621C209.381 269.402 209.304 269.234 209.15 269.117C208.996 269 208.742 268.912 208.387 268.851L207.568 268.718C207.12 268.639 206.784 268.494 206.56 268.284C206.341 268.074 206.231 267.794 206.231 267.444C206.231 267.164 206.306 266.919 206.455 266.709C206.604 266.494 206.814 266.329 207.085 266.212C207.36 266.095 207.678 266.037 208.037 266.037C208.392 266.037 208.739 266.095 209.08 266.212C209.425 266.324 209.736 266.487 210.011 266.702L209.605 267.262C209.078 266.861 208.543 266.66 208.002 266.66C207.787 266.66 207.601 266.69 207.442 266.751C207.283 266.812 207.16 266.898 207.071 267.01C206.982 267.117 206.938 267.243 206.938 267.388C206.938 267.589 207.006 267.743 207.141 267.85C207.276 267.953 207.5 268.027 207.813 268.074L208.604 268.207C209.122 268.291 209.502 268.443 209.745 268.662C209.988 268.881 210.109 269.182 210.109 269.565C210.109 269.864 210.027 270.127 209.864 270.356C209.701 270.58 209.472 270.755 209.178 270.881C208.884 271.007 208.543 271.07 208.156 271.07ZM212.031 271V266.751H210.309V266.1H214.488V266.751H212.766V271H212.031ZM215.103 271V266.1H217.322C217.649 266.1 217.934 266.161 218.176 266.282C218.424 266.403 218.615 266.574 218.75 266.793C218.89 267.008 218.96 267.26 218.96 267.549C218.96 267.871 218.869 268.149 218.687 268.382C218.505 268.615 218.26 268.783 217.952 268.886L219.044 271H218.232L217.217 268.991H215.838V271H215.103ZM215.838 268.375H217.266C217.556 268.375 217.787 268.303 217.959 268.158C218.137 268.009 218.225 267.808 218.225 267.556C218.225 267.313 218.137 267.117 217.959 266.968C217.787 266.819 217.556 266.744 217.266 266.744H215.838V268.375ZM221.713 271.077C221.288 271.077 220.919 270.988 220.607 270.811C220.294 270.634 220.054 270.384 219.886 270.062C219.718 269.735 219.634 269.35 219.634 268.907V266.1H220.369V268.907C220.369 269.21 220.422 269.474 220.53 269.698C220.642 269.922 220.798 270.095 220.999 270.216C221.204 270.337 221.442 270.398 221.713 270.398C221.993 270.398 222.233 270.337 222.434 270.216C222.634 270.095 222.788 269.922 222.896 269.698C223.008 269.474 223.064 269.21 223.064 268.907V266.1H223.799V268.907C223.799 269.35 223.712 269.735 223.54 270.062C223.372 270.384 223.131 270.634 222.819 270.811C222.506 270.988 222.137 271.077 221.713 271.077ZM227.067 271.077C226.703 271.077 226.365 271.014 226.052 270.888C225.744 270.757 225.471 270.578 225.233 270.349C225 270.116 224.818 269.847 224.687 269.544C224.561 269.236 224.498 268.905 224.498 268.55C224.498 268.195 224.561 267.866 224.687 267.563C224.818 267.255 225 266.987 225.233 266.758C225.471 266.525 225.746 266.345 226.059 266.219C226.372 266.088 226.708 266.023 227.067 266.023C227.324 266.023 227.573 266.058 227.816 266.128C228.063 266.193 228.29 266.289 228.495 266.415C228.705 266.541 228.887 266.693 229.041 266.87L228.551 267.374C228.369 267.155 228.147 266.989 227.886 266.877C227.625 266.76 227.352 266.702 227.067 266.702C226.806 266.702 226.563 266.749 226.339 266.842C226.12 266.935 225.928 267.066 225.765 267.234C225.602 267.397 225.473 267.591 225.38 267.815C225.291 268.039 225.247 268.284 225.247 268.55C225.247 268.811 225.291 269.054 225.38 269.278C225.473 269.502 225.604 269.698 225.772 269.866C225.94 270.034 226.136 270.165 226.36 270.258C226.584 270.351 226.827 270.398 227.088 270.398C227.373 270.398 227.641 270.342 227.893 270.23C228.15 270.113 228.367 269.95 228.544 269.74L229.027 270.23C228.864 270.403 228.677 270.554 228.467 270.685C228.262 270.811 228.038 270.909 227.795 270.979C227.557 271.044 227.314 271.077 227.067 271.077ZM231.158 271V266.751H229.436V266.1H233.615V266.751H231.893V271H231.158ZM236.225 271.077C235.801 271.077 235.432 270.988 235.119 270.811C234.807 270.634 234.566 270.384 234.398 270.062C234.23 269.735 234.146 269.35 234.146 268.907V266.1H234.881V268.907C234.881 269.21 234.935 269.474 235.042 269.698C235.154 269.922 235.311 270.095 235.511 270.216C235.717 270.337 235.955 270.398 236.225 270.398C236.505 270.398 236.746 270.337 236.946 270.216C237.147 270.095 237.301 269.922 237.408 269.698C237.52 269.474 237.576 269.21 237.576 268.907V266.1H238.311V268.907C238.311 269.35 238.225 269.735 238.052 270.062C237.884 270.384 237.644 270.634 237.331 270.811C237.019 270.988 236.65 271.077 236.225 271.077ZM239.221 271V266.1H241.44C241.766 266.1 242.051 266.161 242.294 266.282C242.541 266.403 242.732 266.574 242.868 266.793C243.008 267.008 243.078 267.26 243.078 267.549C243.078 267.871 242.987 268.149 242.805 268.382C242.623 268.615 242.378 268.783 242.07 268.886L243.162 271H242.35L241.335 268.991H239.956V271H239.221ZM239.956 268.375H241.384C241.673 268.375 241.904 268.303 242.077 268.158C242.254 268.009 242.343 267.808 242.343 267.556C242.343 267.313 242.254 267.117 242.077 266.968C241.904 266.819 241.673 266.744 241.384 266.744H239.956V268.375ZM243.835 271V266.1H247.447V266.744H244.57V268.214H246.46V268.837H244.57V270.356H247.475V271H243.835Z" fill="#848D9C"/>
<line x1="273.624" y1="221.587" x2="273.624" y2="273.362" stroke="#848D9C"/>
<circle cx="273.794" cy="217.794" r="3.54379" fill="#848D9C" stroke="#0F172A" stroke-width="0.5"/>
<path d="M278.497 237V232.1H279.211L281.948 235.74V232.1H282.641V237H281.997L279.197 233.248V237H278.497ZM283.644 237V232.1H287.256V232.744H284.379V234.214H286.269V234.837H284.379V236.356H287.284V237H283.644ZM290.077 237.077C289.723 237.077 289.391 237.014 289.083 236.888C288.775 236.757 288.502 236.578 288.264 236.349C288.031 236.116 287.849 235.847 287.718 235.544C287.592 235.236 287.529 234.905 287.529 234.55C287.529 234.195 287.592 233.866 287.718 233.563C287.849 233.255 288.031 232.987 288.264 232.758C288.502 232.525 288.775 232.345 289.083 232.219C289.391 232.088 289.723 232.023 290.077 232.023C290.432 232.023 290.763 232.088 291.071 232.219C291.384 232.345 291.657 232.525 291.89 232.758C292.124 232.987 292.306 233.255 292.436 233.563C292.567 233.866 292.632 234.195 292.632 234.55C292.632 234.905 292.567 235.236 292.436 235.544C292.306 235.847 292.124 236.116 291.89 236.349C291.657 236.578 291.384 236.757 291.071 236.888C290.763 237.014 290.432 237.077 290.077 237.077ZM290.084 236.398C290.336 236.398 290.57 236.351 290.784 236.258C291.004 236.165 291.195 236.036 291.358 235.873C291.522 235.705 291.65 235.509 291.743 235.285C291.837 235.056 291.883 234.811 291.883 234.55C291.883 234.284 291.837 234.039 291.743 233.815C291.65 233.591 291.522 233.397 291.358 233.234C291.195 233.066 291.004 232.935 290.784 232.842C290.57 232.749 290.336 232.702 290.084 232.702C289.828 232.702 289.59 232.749 289.37 232.842C289.151 232.935 288.96 233.066 288.796 233.234C288.633 233.397 288.505 233.591 288.411 233.815C288.323 234.039 288.278 234.282 288.278 234.543C288.278 234.809 288.323 235.056 288.411 235.285C288.505 235.509 288.633 235.705 288.796 235.873C288.96 236.036 289.151 236.165 289.37 236.258C289.59 236.351 289.828 236.398 290.084 236.398ZM293.406 237V232.1H295.527C295.849 232.1 296.129 232.154 296.367 232.261C296.605 232.368 296.79 232.52 296.92 232.716C297.051 232.907 297.116 233.134 297.116 233.395C297.116 233.633 297.056 233.843 296.934 234.025C296.813 234.207 296.643 234.352 296.423 234.459C296.699 234.557 296.913 234.706 297.067 234.907C297.226 235.103 297.305 235.334 297.305 235.6C297.305 235.885 297.235 236.132 297.095 236.342C296.96 236.552 296.764 236.715 296.507 236.832C296.255 236.944 295.959 237 295.618 237H293.406ZM294.141 234.179H295.485C295.761 234.179 295.98 234.114 296.143 233.983C296.307 233.852 296.388 233.675 296.388 233.451C296.388 233.227 296.307 233.05 296.143 232.919C295.98 232.788 295.761 232.723 295.485 232.723H294.141V234.179ZM294.141 236.377H295.562C295.87 236.377 296.113 236.305 296.29 236.16C296.472 236.015 296.563 235.819 296.563 235.572C296.563 235.329 296.472 235.136 296.29 234.991C296.113 234.842 295.87 234.767 295.562 234.767H294.141V236.377ZM297.537 237L299.56 232.1H300.428L302.43 237H301.632L301.065 235.565H298.874L298.3 237H297.537ZM299.112 234.956H300.827L299.973 232.8L299.112 234.956ZM302.935 237V232.1H303.649L306.386 235.74V232.1H307.079V237H306.435L303.635 233.248V237H302.935ZM308.083 237V232.1H308.818V234.368L311.191 232.1H312.122L309.574 234.473L312.199 237H311.191L308.818 234.676V237H308.083ZM313.609 237L315.632 232.1H316.5L318.502 237H317.704L317.137 235.565H314.946L314.372 237H313.609ZM315.184 234.956H316.899L316.045 232.8L315.184 234.956ZM319.007 237V232.1H319.721L322.458 235.74V232.1H323.151V237H322.507L319.707 233.248V237H319.007ZM324.889 236.342H325.897C326.154 236.342 326.392 236.298 326.611 236.209C326.831 236.116 327.022 235.99 327.185 235.831C327.353 235.668 327.482 235.479 327.57 235.264C327.664 235.045 327.71 234.807 327.71 234.55C327.71 234.298 327.664 234.062 327.57 233.843C327.482 233.624 327.353 233.435 327.185 233.276C327.022 233.113 326.831 232.987 326.611 232.898C326.392 232.805 326.154 232.758 325.897 232.758H324.889V236.342ZM324.154 237V232.1H325.883C326.252 232.1 326.593 232.163 326.905 232.289C327.218 232.41 327.491 232.581 327.724 232.8C327.958 233.019 328.14 233.278 328.27 233.577C328.401 233.876 328.466 234.2 328.466 234.55C328.466 234.905 328.401 235.231 328.27 235.53C328.144 235.824 327.965 236.081 327.731 236.3C327.498 236.519 327.223 236.692 326.905 236.818C326.593 236.939 326.252 237 325.883 237H324.154ZM278.497 249V244.1H279.211L281.948 247.74V244.1H282.641V249H281.997L279.197 245.248V249H278.497ZM283.644 249V244.1H287.256V244.744H284.379V246.214H286.269V246.837H284.379V248.356H287.284V249H283.644ZM290.077 249.077C289.723 249.077 289.391 249.014 289.083 248.888C288.775 248.757 288.502 248.578 288.264 248.349C288.031 248.116 287.849 247.847 287.718 247.544C287.592 247.236 287.529 246.905 287.529 246.55C287.529 246.195 287.592 245.866 287.718 245.563C287.849 245.255 288.031 244.987 288.264 244.758C288.502 244.525 288.775 244.345 289.083 244.219C289.391 244.088 289.723 244.023 290.077 244.023C290.432 244.023 290.763 244.088 291.071 244.219C291.384 244.345 291.657 244.525 291.89 244.758C292.124 244.987 292.306 245.255 292.436 245.563C292.567 245.866 292.632 246.195 292.632 246.55C292.632 246.905 292.567 247.236 292.436 247.544C292.306 247.847 292.124 248.116 291.89 248.349C291.657 248.578 291.384 248.757 291.071 248.888C290.763 249.014 290.432 249.077 290.077 249.077ZM290.084 248.398C290.336 248.398 290.57 248.351 290.784 248.258C291.004 248.165 291.195 248.036 291.358 247.873C291.522 247.705 291.65 247.509 291.743 247.285C291.837 247.056 291.883 246.811 291.883 246.55C291.883 246.284 291.837 246.039 291.743 245.815C291.65 245.591 291.522 245.397 291.358 245.234C291.195 245.066 291.004 244.935 290.784 244.842C290.57 244.749 290.336 244.702 290.084 244.702C289.828 244.702 289.59 244.749 289.37 244.842C289.151 244.935 288.96 245.066 288.796 245.234C288.633 245.397 288.505 245.591 288.411 245.815C288.323 246.039 288.278 246.282 288.278 246.543C288.278 246.809 288.323 247.056 288.411 247.285C288.505 247.509 288.633 247.705 288.796 247.873C288.96 248.036 289.151 248.165 289.37 248.258C289.59 248.351 289.828 248.398 290.084 248.398ZM293.406 249V244.1H295.527C295.849 244.1 296.129 244.154 296.367 244.261C296.605 244.368 296.79 244.52 296.92 244.716C297.051 244.907 297.116 245.134 297.116 245.395C297.116 245.633 297.056 245.843 296.934 246.025C296.813 246.207 296.643 246.352 296.423 246.459C296.699 246.557 296.913 246.706 297.067 246.907C297.226 247.103 297.305 247.334 297.305 247.6C297.305 247.885 297.235 248.132 297.095 248.342C296.96 248.552 296.764 248.715 296.507 248.832C296.255 248.944 295.959 249 295.618 249H293.406ZM294.141 246.179H295.485C295.761 246.179 295.98 246.114 296.143 245.983C296.307 245.852 296.388 245.675 296.388 245.451C296.388 245.227 296.307 245.05 296.143 244.919C295.98 244.788 295.761 244.723 295.485 244.723H294.141V246.179ZM294.141 248.377H295.562C295.87 248.377 296.113 248.305 296.29 248.16C296.472 248.015 296.563 247.819 296.563 247.572C296.563 247.329 296.472 247.136 296.29 246.991C296.113 246.842 295.87 246.767 295.562 246.767H294.141V248.377ZM298.102 249V244.1H300.321C300.648 244.1 300.933 244.161 301.175 244.282C301.423 244.403 301.614 244.574 301.749 244.793C301.889 245.008 301.959 245.26 301.959 245.549C301.959 245.871 301.868 246.149 301.686 246.382C301.504 246.615 301.259 246.783 300.951 246.886L302.043 249H301.231L300.216 246.991H298.837V249H298.102ZM298.837 246.375H300.265C300.555 246.375 300.786 246.303 300.958 246.158C301.136 246.009 301.224 245.808 301.224 245.556C301.224 245.313 301.136 245.117 300.958 244.968C300.786 244.819 300.555 244.744 300.265 244.744H298.837V246.375ZM305.055 249.077C304.7 249.077 304.369 249.014 304.061 248.888C303.753 248.757 303.48 248.578 303.242 248.349C303.008 248.116 302.826 247.847 302.696 247.544C302.57 247.236 302.507 246.905 302.507 246.55C302.507 246.195 302.57 245.866 302.696 245.563C302.826 245.255 303.008 244.987 303.242 244.758C303.48 244.525 303.753 244.345 304.061 244.219C304.369 244.088 304.7 244.023 305.055 244.023C305.409 244.023 305.741 244.088 306.049 244.219C306.361 244.345 306.634 244.525 306.868 244.758C307.101 244.987 307.283 245.255 307.414 245.563C307.544 245.866 307.61 246.195 307.61 246.55C307.61 246.905 307.544 247.236 307.414 247.544C307.283 247.847 307.101 248.116 306.868 248.349C306.634 248.578 306.361 248.757 306.049 248.888C305.741 249.014 305.409 249.077 305.055 249.077ZM305.062 248.398C305.314 248.398 305.547 248.351 305.762 248.258C305.981 248.165 306.172 248.036 306.336 247.873C306.499 247.705 306.627 247.509 306.721 247.285C306.814 247.056 306.861 246.811 306.861 246.55C306.861 246.284 306.814 246.039 306.721 245.815C306.627 245.591 306.499 245.397 306.336 245.234C306.172 245.066 305.981 244.935 305.762 244.842C305.547 244.749 305.314 244.702 305.062 244.702C304.805 244.702 304.567 244.749 304.348 244.842C304.128 244.935 303.937 245.066 303.774 245.234C303.61 245.397 303.482 245.591 303.389 245.815C303.3 246.039 303.256 246.282 303.256 246.543C303.256 246.809 303.3 247.056 303.389 247.285C303.482 247.509 303.61 247.705 303.774 247.873C303.937 248.036 304.128 248.165 304.348 248.258C304.567 248.351 304.805 248.398 305.062 248.398ZM308.384 249V244.1H309.119V246.368L311.492 244.1H312.423L309.875 246.473L312.5 249H311.492L309.119 246.676V249H308.384ZM312.827 249V244.1H316.439V244.744H313.562V246.214H315.452V246.837H313.562V248.356H316.467V249H312.827ZM317.223 249V244.1H319.442C319.768 244.1 320.053 244.161 320.296 244.282C320.543 244.403 320.734 244.574 320.87 244.793C321.01 245.008 321.08 245.26 321.08 245.549C321.08 245.871 320.989 246.149 320.807 246.382C320.625 246.615 320.38 246.783 320.072 246.886L321.164 249H320.352L319.337 246.991H317.958V249H317.223ZM317.958 246.375H319.386C319.675 246.375 319.906 246.303 320.079 246.158C320.256 246.009 320.345 245.808 320.345 245.556C320.345 245.313 320.256 245.117 320.079 244.968C319.906 244.819 319.675 244.744 319.386 244.744H317.958V246.375ZM278.497 261V256.1H280.765C281.087 256.1 281.367 256.163 281.605 256.289C281.843 256.41 282.03 256.581 282.165 256.8C282.3 257.019 282.368 257.274 282.368 257.563C282.368 257.852 282.3 258.107 282.165 258.326C282.03 258.545 281.841 258.718 281.598 258.844C281.36 258.965 281.082 259.026 280.765 259.026H279.232V261H278.497ZM279.232 258.403H280.688C280.977 258.403 281.206 258.328 281.374 258.179C281.547 258.025 281.633 257.822 281.633 257.57C281.633 257.318 281.547 257.117 281.374 256.968C281.206 256.819 280.977 256.744 280.688 256.744H279.232V258.403ZM281.924 261L283.947 256.1H284.815L286.817 261H286.019L285.452 259.565H283.261L282.687 261H281.924ZM283.499 258.956H285.214L284.36 256.8L283.499 258.956ZM287.322 261V256.1H289.541C289.868 256.1 290.153 256.161 290.395 256.282C290.643 256.403 290.834 256.574 290.969 256.793C291.109 257.008 291.179 257.26 291.179 257.549C291.179 257.871 291.088 258.149 290.906 258.382C290.724 258.615 290.479 258.783 290.171 258.886L291.263 261H290.451L289.436 258.991H288.057V261H287.322ZM288.057 258.375H289.485C289.775 258.375 290.006 258.303 290.178 258.158C290.356 258.009 290.444 257.808 290.444 257.556C290.444 257.313 290.356 257.117 290.178 256.968C290.006 256.819 289.775 256.744 289.485 256.744H288.057V258.375ZM293.157 261V256.751H291.435V256.1H295.614V256.751H293.892V261H293.157ZM296.229 261V256.1H296.943L299.68 259.74V256.1H300.373V261H299.729L296.929 257.248V261H296.229ZM301.377 261V256.1H304.989V256.744H302.112V258.214H304.002V258.837H302.112V260.356H305.017V261H301.377ZM305.772 261V256.1H307.991C308.318 256.1 308.603 256.161 308.845 256.282C309.093 256.403 309.284 256.574 309.419 256.793C309.559 257.008 309.629 257.26 309.629 257.549C309.629 257.871 309.538 258.149 309.356 258.382C309.174 258.615 308.929 258.783 308.621 258.886L309.713 261H308.901L307.886 258.991H306.507V261H305.772ZM306.507 258.375H307.935C308.225 258.375 308.456 258.303 308.628 258.158C308.806 258.009 308.894 257.808 308.894 257.556C308.894 257.313 308.806 257.117 308.628 256.968C308.456 256.819 308.225 256.744 307.935 256.744H306.507V258.375ZM312.066 261.07C311.674 261.07 311.296 260.993 310.932 260.839C310.568 260.685 310.246 260.468 309.966 260.188L310.414 259.67C310.68 259.931 310.951 260.125 311.226 260.251C311.506 260.377 311.798 260.44 312.101 260.44C312.339 260.44 312.547 260.407 312.724 260.342C312.906 260.272 313.046 260.174 313.144 260.048C313.242 259.922 313.291 259.78 313.291 259.621C313.291 259.402 313.214 259.234 313.06 259.117C312.906 259 312.652 258.912 312.297 258.851L311.478 258.718C311.03 258.639 310.694 258.494 310.47 258.284C310.251 258.074 310.141 257.794 310.141 257.444C310.141 257.164 310.216 256.919 310.365 256.709C310.514 256.494 310.724 256.329 310.995 256.212C311.27 256.095 311.588 256.037 311.947 256.037C312.302 256.037 312.649 256.095 312.99 256.212C313.335 256.324 313.646 256.487 313.921 256.702L313.515 257.262C312.988 256.861 312.453 256.66 311.912 256.66C311.697 256.66 311.511 256.69 311.352 256.751C311.193 256.812 311.07 256.898 310.981 257.01C310.892 257.117 310.848 257.243 310.848 257.388C310.848 257.589 310.916 257.743 311.051 257.85C311.186 257.953 311.41 258.027 311.723 258.074L312.514 258.207C313.032 258.291 313.412 258.443 313.655 258.662C313.898 258.881 314.019 259.182 314.019 259.565C314.019 259.864 313.937 260.127 313.774 260.356C313.611 260.58 313.382 260.755 313.088 260.881C312.794 261.007 312.453 261.07 312.066 261.07ZM314.7 261V256.1H315.435V258.2H318.039V256.1H318.774V261H318.039V258.865H315.435V261H314.7ZM319.772 261V256.1H320.507V261H319.772ZM321.509 261V256.1H323.777C324.099 256.1 324.379 256.163 324.617 256.289C324.855 256.41 325.041 256.581 325.177 256.8C325.312 257.019 325.38 257.274 325.38 257.563C325.38 257.852 325.312 258.107 325.177 258.326C325.041 258.545 324.852 258.718 324.61 258.844C324.372 258.965 324.094 259.026 323.777 259.026H322.244V261H321.509ZM322.244 258.403H323.7C323.989 258.403 324.218 258.328 324.386 258.179C324.558 258.025 324.645 257.822 324.645 257.57C324.645 257.318 324.558 257.117 324.386 256.968C324.218 256.819 323.989 256.744 323.7 256.744H322.244V258.403ZM327.864 261.07C327.472 261.07 327.094 260.993 326.73 260.839C326.366 260.685 326.044 260.468 325.764 260.188L326.212 259.67C326.478 259.931 326.749 260.125 327.024 260.251C327.304 260.377 327.596 260.44 327.899 260.44C328.137 260.44 328.345 260.407 328.522 260.342C328.704 260.272 328.844 260.174 328.942 260.048C329.04 259.922 329.089 259.78 329.089 259.621C329.089 259.402 329.012 259.234 328.858 259.117C328.704 259 328.45 258.912 328.095 258.851L327.276 258.718C326.828 258.639 326.492 258.494 326.268 258.284C326.049 258.074 325.939 257.794 325.939 257.444C325.939 257.164 326.014 256.919 326.163 256.709C326.312 256.494 326.522 256.329 326.793 256.212C327.068 256.095 327.386 256.037 327.745 256.037C328.1 256.037 328.447 256.095 328.788 256.212C329.133 256.324 329.444 256.487 329.719 256.702L329.313 257.262C328.786 256.861 328.251 256.66 327.71 256.66C327.495 256.66 327.309 256.69 327.15 256.751C326.991 256.812 326.868 256.898 326.779 257.01C326.69 257.117 326.646 257.243 326.646 257.388C326.646 257.589 326.714 257.743 326.849 257.85C326.984 257.953 327.208 258.027 327.521 258.074L328.312 258.207C328.83 258.291 329.21 258.443 329.453 258.662C329.696 258.881 329.817 259.182 329.817 259.565C329.817 259.864 329.735 260.127 329.572 260.356C329.409 260.58 329.18 260.755 328.886 260.881C328.592 261.007 328.251 261.07 327.864 261.07Z" fill="#848D9C"/>
<circle cx="99.7938" cy="135.794" r="3.54379" fill="#91B845" stroke="#0F172A" stroke-width="0.5"/>
<line x1="99.6243" y1="139.141" x2="99.6243" y2="206.09" stroke="#0F172A"/>
<path d="M104.504 174V168.4H108.808V169.408H105.664V170.688H107.736V171.664H105.664V172.992H108.84V174H104.504ZM111.188 174V169.424H109.3V168.4H114.228V169.424H112.348V174H111.188ZM114.879 174V168.4H116.039V170.656H118.615V168.4H119.775V174H118.615V171.704H116.039V174H114.879ZM122.265 172.968V171.56H120.953V170.736H122.265V169.328H123.113V170.736H124.425V171.56H123.113V172.968H122.265Z" fill="#0F172A"/>
<circle cx="181.794" cy="135.794" r="3.54379" fill="#91B845" stroke="#0F172A" stroke-width="0.5"/>
<line x1="181.624" y1="139.141" x2="181.624" y2="206.09" stroke="#0F172A"/>
<path d="M186.504 174V168.4H187.664V174H186.504ZM188.684 174V168.4H189.788L192.572 172.016V168.4H193.66V174H192.636L189.78 170.256V174H188.684ZM196.676 174.08C196.223 174.08 195.78 173.997 195.348 173.832C194.916 173.661 194.532 173.421 194.196 173.112L194.86 172.28C195.185 172.568 195.497 172.776 195.796 172.904C196.1 173.032 196.42 173.096 196.756 173.096C196.991 173.096 197.193 173.069 197.364 173.016C197.535 172.957 197.665 172.875 197.756 172.768C197.852 172.661 197.9 172.536 197.9 172.392C197.9 172.2 197.831 172.053 197.692 171.952C197.553 171.845 197.316 171.763 196.98 171.704L195.868 171.512C195.393 171.432 195.031 171.264 194.78 171.008C194.535 170.752 194.412 170.421 194.412 170.016C194.412 169.669 194.5 169.368 194.676 169.112C194.857 168.856 195.111 168.661 195.436 168.528C195.767 168.389 196.159 168.32 196.612 168.32C197.023 168.32 197.431 168.389 197.836 168.528C198.247 168.667 198.609 168.859 198.924 169.104L198.3 169.968C197.713 169.52 197.124 169.296 196.532 169.296C196.324 169.296 196.143 169.323 195.988 169.376C195.833 169.429 195.713 169.504 195.628 169.6C195.548 169.691 195.508 169.8 195.508 169.928C195.508 170.099 195.569 170.232 195.692 170.328C195.815 170.419 196.02 170.488 196.308 170.536L197.364 170.712C197.924 170.803 198.343 170.981 198.62 171.248C198.897 171.509 199.036 171.856 199.036 172.288C199.036 172.651 198.94 172.968 198.748 173.24C198.556 173.507 198.281 173.715 197.924 173.864C197.572 174.008 197.156 174.08 196.676 174.08ZM202.115 174.08C201.608 174.08 201.168 173.979 200.795 173.776C200.427 173.573 200.141 173.285 199.939 172.912C199.736 172.533 199.635 172.091 199.635 171.584V168.4H200.795V171.584C200.795 171.872 200.848 172.125 200.955 172.344C201.067 172.557 201.221 172.723 201.419 172.84C201.621 172.952 201.856 173.008 202.123 173.008C202.389 173.008 202.621 172.952 202.819 172.84C203.016 172.723 203.168 172.557 203.275 172.344C203.387 172.125 203.443 171.872 203.443 171.584V168.4H204.595V171.584C204.595 172.085 204.493 172.525 204.291 172.904C204.088 173.277 203.8 173.568 203.427 173.776C203.059 173.979 202.621 174.08 202.115 174.08ZM205.52 174V168.4H208.256C208.634 168.4 208.968 168.475 209.256 168.624C209.549 168.768 209.776 168.971 209.936 169.232C210.101 169.493 210.184 169.795 210.184 170.136C210.184 170.493 210.085 170.808 209.888 171.08C209.69 171.352 209.426 171.555 209.096 171.688L210.336 174H209.04L207.944 171.856H206.68V174H205.52ZM206.68 170.904H208.152C208.413 170.904 208.621 170.835 208.776 170.696C208.936 170.557 209.016 170.376 209.016 170.152C209.016 169.928 208.936 169.747 208.776 169.608C208.621 169.469 208.413 169.4 208.152 169.4H206.68V170.904ZM210.491 174L212.795 168.4H214.131L216.411 174H215.155L214.587 172.528H212.275L211.699 174H210.491ZM212.635 171.6H214.235L213.435 169.536L212.635 171.6ZM216.887 174V168.4H217.991L220.775 172.016V168.4H221.863V174H220.839L217.983 170.256V174H216.887ZM225.639 174.08C225.223 174.08 224.834 174.008 224.471 173.864C224.108 173.715 223.791 173.509 223.519 173.248C223.252 172.987 223.042 172.683 222.887 172.336C222.738 171.984 222.663 171.605 222.663 171.2C222.663 170.789 222.738 170.411 222.887 170.064C223.042 169.712 223.255 169.405 223.527 169.144C223.799 168.883 224.114 168.68 224.471 168.536C224.834 168.387 225.223 168.312 225.639 168.312C225.948 168.312 226.247 168.355 226.535 168.44C226.823 168.525 227.09 168.645 227.335 168.8C227.586 168.955 227.799 169.141 227.975 169.36L227.191 170.136C226.988 169.885 226.754 169.696 226.487 169.568C226.226 169.44 225.943 169.376 225.639 169.376C225.388 169.376 225.154 169.424 224.935 169.52C224.716 169.611 224.527 169.739 224.367 169.904C224.207 170.064 224.082 170.256 223.991 170.48C223.9 170.699 223.855 170.939 223.855 171.2C223.855 171.456 223.9 171.696 223.991 171.92C224.082 172.139 224.21 172.331 224.375 172.496C224.54 172.656 224.732 172.781 224.951 172.872C225.175 172.963 225.418 173.008 225.679 173.008C225.972 173.008 226.247 172.947 226.503 172.824C226.759 172.701 226.986 172.525 227.183 172.296L227.943 173.048C227.767 173.261 227.556 173.445 227.311 173.6C227.066 173.755 226.799 173.875 226.511 173.96C226.228 174.04 225.938 174.08 225.639 174.08ZM228.621 174V168.4H232.925V169.408H229.781V170.688H231.853V171.664H229.781V172.992H232.957V174H228.621Z" fill="#0F172A"/>
<circle cx="263.794" cy="135.794" r="3.54379" fill="#91B845" stroke="#0F172A" stroke-width="0.5"/>
<line x1="263.624" y1="139.141" x2="263.624" y2="206.09" stroke="#0F172A"/>
<path d="M270.032 170V165.424H268.144V164.4H273.072V165.424H271.192V170H270.032ZM276.123 170.088C275.707 170.088 275.32 170.016 274.963 169.872C274.606 169.723 274.291 169.517 274.019 169.256C273.752 168.989 273.542 168.683 273.387 168.336C273.238 167.984 273.163 167.605 273.163 167.2C273.163 166.795 273.238 166.419 273.387 166.072C273.542 165.72 273.752 165.413 274.019 165.152C274.291 164.885 274.606 164.68 274.963 164.536C275.32 164.387 275.707 164.312 276.123 164.312C276.539 164.312 276.926 164.387 277.283 164.536C277.646 164.68 277.96 164.885 278.227 165.152C278.499 165.413 278.71 165.72 278.859 166.072C279.008 166.419 279.083 166.795 279.083 167.2C279.083 167.605 279.008 167.984 278.859 168.336C278.71 168.683 278.499 168.989 278.227 169.256C277.96 169.517 277.646 169.723 277.283 169.872C276.926 170.016 276.539 170.088 276.123 170.088ZM276.123 169.024C276.379 169.024 276.614 168.979 276.827 168.888C277.04 168.792 277.227 168.664 277.387 168.504C277.547 168.339 277.672 168.144 277.763 167.92C277.854 167.696 277.899 167.456 277.899 167.2C277.899 166.939 277.854 166.699 277.763 166.48C277.672 166.256 277.547 166.064 277.387 165.904C277.227 165.739 277.04 165.611 276.827 165.52C276.614 165.424 276.379 165.376 276.123 165.376C275.872 165.376 275.64 165.424 275.427 165.52C275.214 165.611 275.027 165.739 274.867 165.904C274.707 166.064 274.582 166.256 274.491 166.48C274.4 166.699 274.355 166.936 274.355 167.192C274.355 167.453 274.4 167.696 274.491 167.92C274.582 168.144 274.707 168.339 274.867 168.504C275.027 168.664 275.214 168.792 275.427 168.888C275.64 168.979 275.872 169.024 276.123 169.024ZM279.887 170V164.4H281.047V166.904L283.495 164.4H284.911L282.191 167.064L285.039 170H283.487L281.047 167.4V170H279.887ZM285.27 170V164.4H289.574V165.408H286.43V166.688H288.502V167.664H286.43V168.992H289.606V170H285.27ZM290.426 170V164.4H291.53L294.314 168.016V164.4H295.402V170H294.378L291.522 166.256V170H290.426ZM270.504 184.08C270.051 184.08 269.608 183.997 269.176 183.832C268.744 183.661 268.36 183.421 268.024 183.112L268.688 182.28C269.013 182.568 269.325 182.776 269.624 182.904C269.928 183.032 270.248 183.096 270.584 183.096C270.819 183.096 271.021 183.069 271.192 183.016C271.363 182.957 271.493 182.875 271.584 182.768C271.68 182.661 271.728 182.536 271.728 182.392C271.728 182.2 271.659 182.053 271.52 181.952C271.381 181.845 271.144 181.763 270.808 181.704L269.696 181.512C269.221 181.432 268.859 181.264 268.608 181.008C268.363 180.752 268.24 180.421 268.24 180.016C268.24 179.669 268.328 179.368 268.504 179.112C268.685 178.856 268.939 178.661 269.264 178.528C269.595 178.389 269.987 178.32 270.44 178.32C270.851 178.32 271.259 178.389 271.664 178.528C272.075 178.667 272.437 178.859 272.752 179.104L272.128 179.968C271.541 179.52 270.952 179.296 270.36 179.296C270.152 179.296 269.971 179.323 269.816 179.376C269.661 179.429 269.541 179.504 269.456 179.6C269.376 179.691 269.336 179.8 269.336 179.928C269.336 180.099 269.397 180.232 269.52 180.328C269.643 180.419 269.848 180.488 270.136 180.536L271.192 180.712C271.752 180.803 272.171 180.981 272.448 181.248C272.725 181.509 272.864 181.856 272.864 182.288C272.864 182.651 272.768 182.968 272.576 183.24C272.384 183.507 272.109 183.715 271.752 183.864C271.4 184.008 270.984 184.08 270.504 184.08ZM272.937 184L275.241 178.4H276.577L278.857 184H277.601L277.033 182.528H274.721L274.145 184H272.937ZM275.081 181.6H276.681L275.881 179.536L275.081 181.6ZM279.332 184V178.4H280.492V182.976H283.556V184H279.332ZM284.356 184V178.4H288.66V179.408H285.516V180.688H287.588V181.664H285.516V182.992H288.692V184H284.356Z" fill="#0F172A"/>
<path d="M66.504 89V83.4H69.312C69.68 83.4 70.0027 83.4747 70.28 83.624C70.5627 83.7733 70.784 83.9813 70.944 84.248C71.104 84.5093 71.184 84.8133 71.184 85.16C71.184 85.4907 71.104 85.7867 70.944 86.048C70.784 86.3093 70.5627 86.5147 70.28 86.664C69.9973 86.8133 69.6747 86.888 69.312 86.888H67.664V89H66.504ZM67.664 85.928H69.184C69.4347 85.928 69.6347 85.8587 69.784 85.72C69.9387 85.5813 70.016 85.3973 70.016 85.168C70.016 84.9333 69.9387 84.7467 69.784 84.608C69.6347 84.4693 69.4347 84.4 69.184 84.4H67.664V85.928ZM74.6933 89.088C74.2773 89.088 73.8906 89.016 73.5333 88.872C73.176 88.7227 72.8613 88.5173 72.5893 88.256C72.3226 87.9893 72.112 87.6827 71.9573 87.336C71.808 86.984 71.7333 86.6053 71.7333 86.2C71.7333 85.7947 71.808 85.4187 71.9573 85.072C72.112 84.72 72.3226 84.4133 72.5893 84.152C72.8613 83.8853 73.176 83.68 73.5333 83.536C73.8906 83.3867 74.2773 83.312 74.6933 83.312C75.1093 83.312 75.496 83.3867 75.8533 83.536C76.216 83.68 76.5306 83.8853 76.7973 84.152C77.0693 84.4133 77.28 84.72 77.4293 85.072C77.5786 85.4187 77.6533 85.7947 77.6533 86.2C77.6533 86.6053 77.5786 86.984 77.4293 87.336C77.28 87.6827 77.0693 87.9893 76.7973 88.256C76.5306 88.5173 76.216 88.7227 75.8533 88.872C75.496 89.016 75.1093 89.088 74.6933 89.088ZM74.6933 88.024C74.9493 88.024 75.184 87.9787 75.3973 87.888C75.6106 87.792 75.7973 87.664 75.9573 87.504C76.1173 87.3387 76.2426 87.144 76.3333 86.92C76.424 86.696 76.4693 86.456 76.4693 86.2C76.4693 85.9387 76.424 85.6987 76.3333 85.48C76.2426 85.256 76.1173 85.064 75.9573 84.904C75.7973 84.7387 75.6106 84.6107 75.3973 84.52C75.184 84.424 74.9493 84.376 74.6933 84.376C74.4426 84.376 74.2106 84.424 73.9973 84.52C73.784 84.6107 73.5973 84.7387 73.4373 84.904C73.2773 85.064 73.152 85.256 73.0613 85.48C72.9706 85.6987 72.9253 85.936 72.9253 86.192C72.9253 86.4533 72.9706 86.696 73.0613 86.92C73.152 87.144 73.2773 87.3387 73.4373 87.504C73.5973 87.664 73.784 87.792 73.9973 87.888C74.2106 87.9787 74.4426 88.024 74.6933 88.024ZM81.2011 89.088C80.7851 89.088 80.3985 89.016 80.0411 88.872C79.6838 88.7227 79.3691 88.5173 79.0971 88.256C78.8305 87.9893 78.6198 87.6827 78.4651 87.336C78.3158 86.984 78.2411 86.6053 78.2411 86.2C78.2411 85.7947 78.3158 85.4187 78.4651 85.072C78.6198 84.72 78.8305 84.4133 79.0971 84.152C79.3691 83.8853 79.6838 83.68 80.0411 83.536C80.3985 83.3867 80.7851 83.312 81.2011 83.312C81.6171 83.312 82.0038 83.3867 82.3611 83.536C82.7238 83.68 83.0385 83.8853 83.3051 84.152C83.5771 84.4133 83.7878 84.72 83.9371 85.072C84.0865 85.4187 84.1611 85.7947 84.1611 86.2C84.1611 86.6053 84.0865 86.984 83.9371 87.336C83.7878 87.6827 83.5771 87.9893 83.3051 88.256C83.0385 88.5173 82.7238 88.7227 82.3611 88.872C82.0038 89.016 81.6171 89.088 81.2011 89.088ZM81.2011 88.024C81.4571 88.024 81.6918 87.9787 81.9051 87.888C82.1185 87.792 82.3051 87.664 82.4651 87.504C82.6251 87.3387 82.7505 87.144 82.8411 86.92C82.9318 86.696 82.9771 86.456 82.9771 86.2C82.9771 85.9387 82.9318 85.6987 82.8411 85.48C82.7505 85.256 82.6251 85.064 82.4651 84.904C82.3051 84.7387 82.1185 84.6107 81.9051 84.52C81.6918 84.424 81.4571 84.376 81.2011 84.376C80.9505 84.376 80.7185 84.424 80.5051 84.52C80.2918 84.6107 80.1051 84.7387 79.9451 84.904C79.7851 85.064 79.6598 85.256 79.5691 85.48C79.4785 85.6987 79.4331 85.936 79.4331 86.192C79.4331 86.4533 79.4785 86.696 79.5691 86.92C79.6598 87.144 79.7851 87.3387 79.9451 87.504C80.1051 87.664 80.2918 87.792 80.5051 87.888C80.7185 87.9787 80.9505 88.024 81.2011 88.024ZM84.9649 89V83.4H86.1249V87.976H89.1889V89H84.9649ZM91.9884 89.08C91.535 89.08 91.0924 88.9973 90.6604 88.832C90.2284 88.6613 89.8444 88.4213 89.5084 88.112L90.1724 87.28C90.4977 87.568 90.8097 87.776 91.1084 87.904C91.4124 88.032 91.7324 88.096 92.0684 88.096C92.303 88.096 92.5057 88.0693 92.6764 88.016C92.847 87.9573 92.9777 87.8747 93.0684 87.768C93.1644 87.6613 93.2124 87.536 93.2124 87.392C93.2124 87.2 93.143 87.0533 93.0044 86.952C92.8657 86.8453 92.6284 86.7627 92.2924 86.704L91.1804 86.512C90.7057 86.432 90.343 86.264 90.0924 86.008C89.847 85.752 89.7244 85.4213 89.7244 85.016C89.7244 84.6693 89.8124 84.368 89.9884 84.112C90.1697 83.856 90.423 83.6613 90.7484 83.528C91.079 83.3893 91.471 83.32 91.9244 83.32C92.335 83.32 92.743 83.3893 93.1484 83.528C93.559 83.6667 93.9217 83.8587 94.2364 84.104L93.6124 84.968C93.0257 84.52 92.4364 84.296 91.8444 84.296C91.6364 84.296 91.455 84.3227 91.3004 84.376C91.1457 84.4293 91.0257 84.504 90.9404 84.6C90.8604 84.6907 90.8204 84.8 90.8204 84.928C90.8204 85.0987 90.8817 85.232 91.0044 85.328C91.127 85.4187 91.3324 85.488 91.6204 85.536L92.6764 85.712C93.2364 85.8027 93.655 85.9813 93.9324 86.248C94.2097 86.5093 94.3484 86.856 94.3484 87.288C94.3484 87.6507 94.2524 87.968 94.0604 88.24C93.8684 88.5067 93.5937 88.7147 93.2364 88.864C92.8844 89.008 92.4684 89.08 91.9884 89.08ZM65.968 103L68.272 97.4H69.608L71.888 103H70.632L70.064 101.528H67.752L67.176 103H65.968ZM68.112 100.6H69.712L68.912 98.536L68.112 100.6ZM72.8679 103V98.424H70.9799V97.4H75.9079V98.424H74.0279V103H72.8679ZM79.3281 101.968H80.3041C80.5547 101.968 80.7867 101.925 81.0001 101.84C81.2187 101.749 81.4081 101.624 81.5681 101.464C81.7334 101.304 81.8587 101.117 81.9441 100.904C82.0347 100.691 82.0801 100.459 82.0801 100.208C82.0801 99.9573 82.0347 99.7253 81.9441 99.512C81.8534 99.2933 81.7281 99.104 81.5681 98.944C81.4081 98.784 81.2187 98.6587 81.0001 98.568C80.7867 98.4773 80.5547 98.432 80.3041 98.432H79.3281V101.968ZM78.1681 103V97.4H80.3201C80.7414 97.4 81.1307 97.472 81.4881 97.616C81.8454 97.7547 82.1574 97.952 82.4241 98.208C82.6907 98.464 82.8987 98.7627 83.0481 99.104C83.2027 99.4453 83.2801 99.8133 83.2801 100.208C83.2801 100.608 83.2054 100.976 83.0561 101.312C82.9067 101.648 82.6961 101.944 82.4241 102.2C82.1574 102.451 81.8454 102.648 81.4881 102.792C81.1307 102.931 80.7414 103 80.3201 103H78.1681ZM84.0743 103V97.4H88.3783V98.408H85.2343V99.688H87.3063V100.664H85.2343V101.992H88.4103V103H84.0743ZM88.7026 103L90.8386 100.104L88.8146 97.4H90.1986L91.5266 99.24L92.8466 97.4H94.1826L92.1906 100.104L94.3506 103H92.9666L91.5026 100.968L90.0386 103H88.7026ZM94.6368 103V97.4H98.9408V98.408H95.7968V99.688H97.8688V100.664H95.7968V101.992H98.9728V103H94.6368ZM101.793 103.08C101.34 103.08 100.897 102.997 100.465 102.832C100.033 102.661 99.6491 102.421 99.3131 102.112L99.9771 101.28C100.302 101.568 100.614 101.776 100.913 101.904C101.217 102.032 101.537 102.096 101.873 102.096C102.108 102.096 102.31 102.069 102.481 102.016C102.652 101.957 102.782 101.875 102.873 101.768C102.969 101.661 103.017 101.536 103.017 101.392C103.017 101.2 102.948 101.053 102.809 100.952C102.67 100.845 102.433 100.763 102.097 100.704L100.985 100.512C100.51 100.432 100.148 100.264 99.8971 100.008C99.6517 99.752 99.5291 99.4213 99.5291 99.016C99.5291 98.6693 99.6171 98.368 99.7931 98.112C99.9744 97.856 100.228 97.6613 100.553 97.528C100.884 97.3893 101.276 97.32 101.729 97.32C102.14 97.32 102.548 97.3893 102.953 97.528C103.364 97.6667 103.726 97.8587 104.041 98.104L103.417 98.968C102.83 98.52 102.241 98.296 101.649 98.296C101.441 98.296 101.26 98.3227 101.105 98.376C100.95 98.4293 100.83 98.504 100.745 98.6C100.665 98.6907 100.625 98.8 100.625 98.928C100.625 99.0987 100.686 99.232 100.809 99.328C100.932 99.4187 101.137 99.488 101.425 99.536L102.481 99.712C103.041 99.8027 103.46 99.9813 103.737 100.248C104.014 100.509 104.153 100.856 104.153 101.288C104.153 101.651 104.057 101.968 103.865 102.24C103.673 102.507 103.398 102.715 103.041 102.864C102.689 103.008 102.273 103.08 101.793 103.08Z" fill="#0F172A"/>
<circle cx="57.7938" cy="51.7938" r="3.54379" fill="#91B845" stroke="#0F172A" stroke-width="0.5"/>
<line x1="57.6243" y1="55.1412" x2="57.6243" y2="122.09" stroke="#0F172A"/>
<path d="M150.766 87.968H151.742C151.992 87.968 152.224 87.9253 152.438 87.84C152.656 87.7493 152.846 87.624 153.006 87.464C153.171 87.304 153.296 87.1173 153.382 86.904C153.472 86.6906 153.518 86.4586 153.518 86.208C153.518 85.9573 153.472 85.7253 153.382 85.512C153.291 85.2933 153.166 85.104 153.006 84.944C152.846 84.784 152.656 84.6586 152.438 84.568C152.224 84.4773 151.992 84.432 151.742 84.432H150.766V87.968ZM149.606 89V83.4H151.758C152.179 83.4 152.568 83.472 152.926 83.616C153.283 83.7546 153.595 83.952 153.862 84.208C154.128 84.464 154.336 84.7626 154.486 85.104C154.64 85.4453 154.718 85.8133 154.718 86.208C154.718 86.608 154.643 86.976 154.494 87.312C154.344 87.648 154.134 87.944 153.862 88.2C153.595 88.4506 153.283 88.648 152.926 88.792C152.568 88.9306 152.179 89 151.758 89H149.606ZM155.512 89V83.4H159.816V84.408H156.672V85.688H158.744V86.664H156.672V87.992H159.848V89H155.512ZM160.668 89V83.4H161.828V87.976H164.892V89H160.668ZM166.071 89V84.424H164.183V83.4H169.111V84.424H167.231V89H166.071ZM168.202 89L170.506 83.4H171.842L174.122 89H172.866L172.298 87.528H169.986L169.41 89H168.202ZM170.346 86.6H171.946L171.146 84.536L170.346 86.6ZM174.305 87.184V86.256H177.313V87.184H174.305ZM178.145 89V83.4H179.249L182.033 87.016V83.4H183.121V89H182.097L179.241 85.256V89H178.145ZM184.137 89V83.4H188.441V84.408H185.297V85.688H187.369V86.664H185.297V87.992H188.473V89H184.137ZM191.685 89.08C191.179 89.08 190.739 88.9786 190.365 88.776C189.997 88.5733 189.712 88.2853 189.509 87.912C189.307 87.5333 189.205 87.0906 189.205 86.584V83.4H190.365V86.584C190.365 86.872 190.419 87.1253 190.525 87.344C190.637 87.5573 190.792 87.7226 190.989 87.84C191.192 87.952 191.427 88.008 191.693 88.008C191.96 88.008 192.192 87.952 192.389 87.84C192.587 87.7226 192.739 87.5573 192.845 87.344C192.957 87.1253 193.013 86.872 193.013 86.584V83.4H194.165V86.584C194.165 87.0853 194.064 87.5253 193.861 87.904C193.659 88.2773 193.371 88.568 192.997 88.776C192.629 88.9786 192.192 89.08 191.685 89.08ZM196.618 89V84.424H194.73V83.4H199.658V84.424H197.778V89H196.618ZM200.309 89V83.4H203.045C203.423 83.4 203.757 83.4746 204.045 83.624C204.338 83.768 204.565 83.9706 204.725 84.232C204.89 84.4933 204.973 84.7946 204.973 85.136C204.973 85.4933 204.874 85.808 204.677 86.08C204.479 86.352 204.215 86.5546 203.885 86.688L205.125 89H203.829L202.733 86.856H201.469V89H200.309ZM201.469 85.904H202.941C203.202 85.904 203.41 85.8346 203.565 85.696C203.725 85.5573 203.805 85.376 203.805 85.152C203.805 84.928 203.725 84.7466 203.565 84.608C203.41 84.4693 203.202 84.4 202.941 84.4H201.469V85.904ZM205.281 89L207.585 83.4H208.921L211.201 89H209.945L209.377 87.528H207.065L206.489 89H205.281ZM207.425 86.6H209.025L208.225 84.536L207.425 86.6ZM211.676 89V83.4H212.836V87.976H215.9V89H211.676ZM151.342 103V100.856L149.054 97.4H150.39L151.958 99.832L153.534 97.4H154.798L152.502 100.864V103H151.342ZM155.254 103V97.4H156.414V103H155.254ZM157.434 103V97.4H161.738V98.408H158.594V99.688H160.666V100.664H158.594V101.992H161.77V103H157.434ZM162.59 103V97.4H163.75V101.976H166.814V103H162.59ZM168.773 101.968H169.749C170 101.968 170.232 101.925 170.445 101.84C170.664 101.749 170.853 101.624 171.013 101.464C171.179 101.304 171.304 101.117 171.389 100.904C171.48 100.691 171.525 100.459 171.525 100.208C171.525 99.9573 171.48 99.7253 171.389 99.512C171.299 99.2933 171.173 99.104 171.013 98.944C170.853 98.784 170.664 98.6586 170.445 98.568C170.232 98.4773 170 98.432 169.749 98.432H168.773V101.968ZM167.613 103V97.4H169.765C170.187 97.4 170.576 97.472 170.933 97.616C171.291 97.7546 171.603 97.952 171.869 98.208C172.136 98.464 172.344 98.7626 172.493 99.104C172.648 99.4453 172.725 99.8133 172.725 100.208C172.725 100.608 172.651 100.976 172.501 101.312C172.352 101.648 172.141 101.944 171.869 102.2C171.603 102.451 171.291 102.648 170.933 102.792C170.576 102.931 170.187 103 169.765 103H167.613Z" fill="#0F172A"/>
<circle cx="139.794" cy="51.7938" r="3.54379" fill="#91B845" stroke="#0F172A" stroke-width="0.5"/>
<line x1="139.624" y1="55.1412" x2="139.624" y2="122.09" stroke="#0F172A"/>
<circle cx="221.794" cy="51.7938" r="3.54379" fill="#91B845" stroke="#0F172A" stroke-width="0.5"/>
<line x1="221.624" y1="55.1412" x2="221.624" y2="122.09" stroke="#0F172A"/>
<path d="M231.504 89V83.4H232.992L234.528 86.424L236.064 83.4H237.552V89H236.456V84.88L234.512 88.6L232.576 84.864V89H231.504ZM240.951 89.08C240.444 89.08 240.004 88.9787 239.631 88.776C239.263 88.5733 238.977 88.2853 238.775 87.912C238.572 87.5333 238.471 87.0907 238.471 86.584V83.4H239.631V86.584C239.631 86.872 239.684 87.1253 239.791 87.344C239.903 87.5573 240.057 87.7227 240.255 87.84C240.457 87.952 240.692 88.008 240.959 88.008C241.225 88.008 241.457 87.952 241.655 87.84C241.852 87.7227 242.004 87.5573 242.111 87.344C242.223 87.1253 242.279 86.872 242.279 86.584V83.4H243.431V86.584C243.431 87.0853 243.329 87.5253 243.127 87.904C242.924 88.2773 242.636 88.568 242.263 88.776C241.895 88.9787 241.457 89.08 240.951 89.08ZM244.356 89V83.4H245.516V87.976H248.58V89H244.356ZM249.759 89V84.424H247.871V83.4H252.799V84.424H250.919V89H249.759ZM253.449 89V83.4H254.609V89H253.449ZM255.629 89V83.4H258.437C258.805 83.4 259.128 83.4747 259.405 83.624C259.688 83.7733 259.909 83.9813 260.069 84.248C260.229 84.5093 260.309 84.8133 260.309 85.16C260.309 85.4907 260.229 85.7867 260.069 86.048C259.909 86.3093 259.688 86.5147 259.405 86.664C259.122 86.8133 258.8 86.888 258.437 86.888H256.789V89H255.629ZM256.789 85.928H258.309C258.56 85.928 258.76 85.8587 258.909 85.72C259.064 85.5813 259.141 85.3973 259.141 85.168C259.141 84.9333 259.064 84.7467 258.909 84.608C258.76 84.4693 258.56 84.4 258.309 84.4H256.789V85.928ZM263.818 89.088C263.402 89.088 263.016 89.016 262.658 88.872C262.301 88.7227 261.986 88.5173 261.714 88.256C261.448 87.9893 261.237 87.6827 261.082 87.336C260.933 86.984 260.858 86.6053 260.858 86.2C260.858 85.7947 260.933 85.4187 261.082 85.072C261.237 84.72 261.448 84.4133 261.714 84.152C261.986 83.8853 262.301 83.68 262.658 83.536C263.016 83.3867 263.402 83.312 263.818 83.312C264.234 83.312 264.621 83.3867 264.978 83.536C265.341 83.68 265.656 83.8853 265.922 84.152C266.194 84.4133 266.405 84.72 266.554 85.072C266.704 85.4187 266.778 85.7947 266.778 86.2C266.778 86.6053 266.704 86.984 266.554 87.336C266.405 87.6827 266.194 87.9893 265.922 88.256C265.656 88.5173 265.341 88.7227 264.978 88.872C264.621 89.016 264.234 89.088 263.818 89.088ZM263.818 88.024C264.074 88.024 264.309 87.9787 264.522 87.888C264.736 87.792 264.922 87.664 265.082 87.504C265.242 87.3387 265.368 87.144 265.458 86.92C265.549 86.696 265.594 86.456 265.594 86.2C265.594 85.9387 265.549 85.6987 265.458 85.48C265.368 85.256 265.242 85.064 265.082 84.904C264.922 84.7387 264.736 84.6107 264.522 84.52C264.309 84.424 264.074 84.376 263.818 84.376C263.568 84.376 263.336 84.424 263.122 84.52C262.909 84.6107 262.722 84.7387 262.562 84.904C262.402 85.064 262.277 85.256 262.186 85.48C262.096 85.6987 262.05 85.936 262.05 86.192C262.05 86.4533 262.096 86.696 262.186 86.92C262.277 87.144 262.402 87.3387 262.562 87.504C262.722 87.664 262.909 87.792 263.122 87.888C263.336 87.9787 263.568 88.024 263.818 88.024ZM270.326 89.088C269.91 89.088 269.523 89.016 269.166 88.872C268.809 88.7227 268.494 88.5173 268.222 88.256C267.955 87.9893 267.745 87.6827 267.59 87.336C267.441 86.984 267.366 86.6053 267.366 86.2C267.366 85.7947 267.441 85.4187 267.59 85.072C267.745 84.72 267.955 84.4133 268.222 84.152C268.494 83.8853 268.809 83.68 269.166 83.536C269.523 83.3867 269.91 83.312 270.326 83.312C270.742 83.312 271.129 83.3867 271.486 83.536C271.849 83.68 272.163 83.8853 272.43 84.152C272.702 84.4133 272.913 84.72 273.062 85.072C273.211 85.4187 273.286 85.7947 273.286 86.2C273.286 86.6053 273.211 86.984 273.062 87.336C272.913 87.6827 272.702 87.9893 272.43 88.256C272.163 88.5173 271.849 88.7227 271.486 88.872C271.129 89.016 270.742 89.088 270.326 89.088ZM270.326 88.024C270.582 88.024 270.817 87.9787 271.03 87.888C271.243 87.792 271.43 87.664 271.59 87.504C271.75 87.3387 271.875 87.144 271.966 86.92C272.057 86.696 272.102 86.456 272.102 86.2C272.102 85.9387 272.057 85.6987 271.966 85.48C271.875 85.256 271.75 85.064 271.59 84.904C271.43 84.7387 271.243 84.6107 271.03 84.52C270.817 84.424 270.582 84.376 270.326 84.376C270.075 84.376 269.843 84.424 269.63 84.52C269.417 84.6107 269.23 84.7387 269.07 84.904C268.91 85.064 268.785 85.256 268.694 85.48C268.603 85.6987 268.558 85.936 268.558 86.192C268.558 86.4533 268.603 86.696 268.694 86.92C268.785 87.144 268.91 87.3387 269.07 87.504C269.23 87.664 269.417 87.792 269.63 87.888C269.843 87.9787 270.075 88.024 270.326 88.024ZM274.09 89V83.4H275.25V87.976H278.314V89H274.09ZM234.264 103.08C233.848 103.08 233.459 103.008 233.096 102.864C232.733 102.715 232.416 102.509 232.144 102.248C231.877 101.987 231.667 101.683 231.512 101.336C231.363 100.984 231.288 100.605 231.288 100.2C231.288 99.7893 231.363 99.4107 231.512 99.064C231.667 98.712 231.88 98.4053 232.152 98.144C232.424 97.8827 232.739 97.68 233.096 97.536C233.459 97.3867 233.848 97.312 234.264 97.312C234.573 97.312 234.872 97.3547 235.16 97.44C235.448 97.5253 235.715 97.6453 235.96 97.8C236.211 97.9547 236.424 98.1413 236.6 98.36L235.816 99.136C235.613 98.8853 235.379 98.696 235.112 98.568C234.851 98.44 234.568 98.376 234.264 98.376C234.013 98.376 233.779 98.424 233.56 98.52C233.341 98.6107 233.152 98.7387 232.992 98.904C232.832 99.064 232.707 99.256 232.616 99.48C232.525 99.6987 232.48 99.9387 232.48 100.2C232.48 100.456 232.525 100.696 232.616 100.92C232.707 101.139 232.835 101.331 233 101.496C233.165 101.656 233.357 101.781 233.576 101.872C233.8 101.963 234.043 102.008 234.304 102.008C234.597 102.008 234.872 101.947 235.128 101.824C235.384 101.701 235.611 101.525 235.808 101.296L236.568 102.048C236.392 102.261 236.181 102.445 235.936 102.6C235.691 102.755 235.424 102.875 235.136 102.96C234.853 103.04 234.563 103.08 234.264 103.08ZM237.246 103V97.4H238.406V99.656H240.982V97.4H242.142V103H240.982V100.704H238.406V103H237.246ZM242.624 103L244.928 97.4H246.264L248.544 103H247.288L246.72 101.528H244.408L243.832 103H242.624ZM244.768 100.6H246.368L245.568 98.536L244.768 100.6ZM249.02 103V97.4H250.18V103H249.02ZM251.199 103V97.4H252.303L255.087 101.016V97.4H256.175V103H255.151L252.295 99.256V103H251.199ZM259.192 103.08C258.738 103.08 258.296 102.997 257.863 102.832C257.431 102.661 257.047 102.421 256.712 102.112L257.376 101.28C257.701 101.568 258.013 101.776 258.312 101.904C258.616 102.032 258.936 102.096 259.272 102.096C259.506 102.096 259.709 102.069 259.88 102.016C260.05 101.957 260.181 101.875 260.272 101.768C260.368 101.661 260.416 101.536 260.416 101.392C260.416 101.2 260.346 101.053 260.208 100.952C260.069 100.845 259.832 100.763 259.496 100.704L258.384 100.512C257.909 100.432 257.546 100.264 257.296 100.008C257.05 99.752 256.928 99.4213 256.928 99.016C256.928 98.6693 257.016 98.368 257.192 98.112C257.373 97.856 257.626 97.6613 257.952 97.528C258.282 97.3893 258.674 97.32 259.128 97.32C259.538 97.32 259.946 97.3893 260.352 97.528C260.762 97.6667 261.125 97.8587 261.44 98.104L260.816 98.968C260.229 98.52 259.64 98.296 259.048 98.296C258.84 98.296 258.658 98.3227 258.504 98.376C258.349 98.4293 258.229 98.504 258.144 98.6C258.064 98.6907 258.024 98.8 258.024 98.928C258.024 99.0987 258.085 99.232 258.208 99.328C258.33 99.4187 258.536 99.488 258.824 99.536L259.88 99.712C260.44 99.8027 260.858 99.9813 261.136 100.248C261.413 100.509 261.552 100.856 261.552 101.288C261.552 101.651 261.456 101.968 261.264 102.24C261.072 102.507 260.797 102.715 260.44 102.864C260.088 103.008 259.672 103.08 259.192 103.08Z" fill="#0F172A"/>
<path fill-rule="evenodd" clip-rule="evenodd" d="M348.286 211.786C347.905 212.166 347.905 212.784 348.286 213.164L353.121 218L348.286 222.836C347.905 223.216 347.905 223.834 348.286 224.214C348.666 224.595 349.284 224.595 349.664 224.214L355.18 218.699C355.373 218.506 355.468 218.253 355.465 218C355.468 217.747 355.373 217.494 355.18 217.301L349.664 211.786C349.284 211.405 348.666 211.405 348.286 211.786Z" fill="#0F172A"/>
</svg>
