<svg width="53" height="55" viewBox="0 0 53 55" fill="none" xmlns="http://www.w3.org/2000/svg">
<g filter="url(#filter0_d_218_227)">
<circle cx="26.5" cy="27" r="25.75" stroke="#687386" stroke-width="1.5" shape-rendering="crispEdges"/>
</g>
<path fill-rule="evenodd" clip-rule="evenodd" d="M12.9734 28.552C12.4076 29.1571 11.4902 29.1571 10.9244 28.552C10.3585 27.947 10.3585 26.9659 10.9244 26.3608L24.8644 11.4538C25.1539 11.1442 25.5354 10.993 25.9148 11.0002C26.2942 10.993 26.6757 11.1442 26.9652 11.4538L40.9052 26.3608C41.4711 26.9659 41.4711 27.947 40.9052 28.552C40.3394 29.1571 39.422 29.1571 38.8562 28.552L27.4999 16.408V40.5005C27.4999 41.3289 26.8284 42.0005 25.9999 42.0005C25.1715 42.0005 24.4999 41.3289 24.4999 40.5005V16.2259L12.9734 28.552Z" fill="#687386"/>
<defs>
<filter id="filter0_d_218_227" x="0" y="0.5" width="53" height="54" filterUnits="userSpaceOnUse" color-interpolation-filters="sRGB">
<feFlood flood-opacity="0" result="BackgroundImageFix"/>
<feColorMatrix in="SourceAlpha" type="matrix" values="0 0 0 0 0 0 0 0 0 0 0 0 0 0 0 0 0 0 127 0" result="hardAlpha"/>
<feOffset dy="1"/>
<feComposite in2="hardAlpha" operator="out"/>
<feColorMatrix type="matrix" values="0 0 0 0 0 0 0 0 0 0 0 0 0 0 0 0 0 0 1 0"/>
<feBlend mode="normal" in2="BackgroundImageFix" result="effect1_dropShadow_218_227"/>
<feBlend mode="normal" in="SourceGraphic" in2="effect1_dropShadow_218_227" result="shape"/>
</filter>
</defs>
</svg>
