<svg width="150" height="23" viewBox="0 0 150 23" fill="none" xmlns="http://www.w3.org/2000/svg">
<g clip-path="url(#clip0_8_640)">
<path d="M17.343 1.1145H0.015564V21.8858H6.52406V14.1038H16.8577V9.42301H6.52406V5.91237H17.343V1.1145Z" fill="#687386"/>
<path d="M38.8261 1.1145H32.3176V13.6358C32.3176 16.1225 31.033 16.9709 29.0349 16.9709C28.4639 16.9709 27.8359 16.9124 27.265 16.8246V21.9443C28.1785 22.149 29.5772 22.2661 30.8618 22.2661C35.629 22.2661 38.8261 20.1597 38.8261 15.0401V1.1145Z" fill="#687386"/>
<path d="M69.0469 21.8858V20.4523H56.401V1.1145H54.8024V21.8858H69.0469Z" fill="#687386"/>
<path d="M97.3032 21.8858L88.0543 1.1145H86.4557L77.2354 21.8858H78.9481L81.4888 16.0054H93.0499L95.5905 21.8858H97.3032ZM86.2845 4.97621C86.7412 3.89376 86.9981 3.25014 87.2265 2.60652H87.2835C87.5405 3.25014 87.7974 3.89376 88.2542 4.97621L92.4219 14.6012H82.1167L86.2845 4.97621Z" fill="#687386"/>
<path d="M119.086 11.1198C121.741 10.681 122.853 8.66237 122.853 6.40971C122.853 3.83524 121.398 1.1145 116.546 1.1145H106.725V21.8858H116.746C121.712 21.8858 123.339 19.2821 123.339 16.2102C123.339 13.4895 122.026 11.5001 119.086 11.1198ZM116.46 2.54801C120.313 2.54801 121.227 4.56663 121.227 6.49748C121.227 8.34057 120.513 10.5055 116.602 10.5055H108.353V2.54801H116.46ZM108.353 20.4523V11.9097H116.774C120.456 11.9097 121.712 13.6943 121.712 16.1517C121.712 18.58 120.513 20.4523 116.63 20.4523H108.353Z" fill="#687386"/>
<path d="M141.551 22.5002C146.832 22.5002 149.801 20.3939 149.801 16.5615C149.801 13.0215 147.832 11.5002 143.806 10.8274L139.21 10.1252C135.984 9.56939 134.672 8.34067 134.672 6.05875C134.672 3.42577 136.898 1.9045 140.809 1.9045C145.09 1.9045 147.374 3.5428 147.86 7.25823L149.544 6.96567C148.973 2.4896 145.918 0.500244 140.837 0.500244C135.87 0.500244 132.958 2.60662 132.958 6.17577C132.958 9.21833 134.842 10.9737 138.468 11.5588L143.149 12.2609C146.632 12.8167 148.116 13.8992 148.116 16.7076C148.116 19.6039 145.776 21.0667 141.608 21.0667C136.812 21.0667 134.272 18.9018 133.786 15.1865L132.074 15.3912C132.673 19.9551 135.756 22.5002 141.551 22.5002Z" fill="#687386"/>
</g>
<defs>
<clipPath id="clip0_8_640">
<rect width="149.927" height="22" fill="white" transform="translate(0.015564 0.500244)"/>
</clipPath>
</defs>
</svg>
