<svg width="153" height="39" viewBox="0 0 153 39" fill="none" xmlns="http://www.w3.org/2000/svg">
<g clip-path="url(#clip0_8_622)">
<path d="M59.0236 18.6181H47.4141V9.47437H45.1503V30.0775H47.4141V20.815H59.0236V30.0775H61.2875V9.47437H59.0236V18.6181Z" fill="#687386"/>
<path d="M71.2136 14.6401C70.1107 14.6401 69.1239 14.7589 68.3112 14.9964C67.4405 15.2339 66.6278 15.5308 65.8152 15.9464L66.4537 17.787C67.1503 17.4308 67.8468 17.1933 68.5434 17.0151C69.24 16.837 70.0526 16.7183 70.9233 16.7183C72.3165 16.7183 73.4194 17.0745 74.174 17.787C74.9286 18.4995 75.3349 19.5089 75.3349 20.8745V21.3495C74.6384 21.1714 73.9998 20.9933 73.3033 20.8745C72.6067 20.7558 71.794 20.6964 70.8072 20.6964C69.8785 20.6964 69.0078 20.8151 68.2532 20.9933C67.4985 21.2308 66.802 21.5276 66.2215 21.9433C65.641 22.3589 65.2347 22.8933 64.8864 23.487C64.5962 24.0808 64.422 24.8526 64.422 25.6245V25.6839C64.422 26.4558 64.5962 27.1683 64.8864 27.762C65.1766 28.3558 65.641 28.8308 66.1634 29.2464C66.6859 29.662 67.2663 29.9589 67.9629 30.137C68.6595 30.3151 69.298 30.4339 69.9946 30.4339C71.2716 30.4339 72.3745 30.1964 73.2452 29.662C74.1159 29.1276 74.8125 28.5339 75.3349 27.8214V30.0776H77.5407V20.7558C77.5407 18.8558 77.0183 17.312 75.9735 16.3026C74.9286 15.1745 73.3613 14.6401 71.2136 14.6401ZM75.451 24.4964C75.451 25.0901 75.3349 25.6839 75.0447 26.1589C74.8125 26.6339 74.4062 27.1089 73.9998 27.4651C73.5355 27.8214 73.013 28.1183 72.4326 28.2964C71.8521 28.4745 71.2136 28.5933 70.517 28.5933C69.9946 28.5933 69.5302 28.5339 69.1239 28.4151C68.6595 28.2964 68.2532 28.0589 67.9049 27.8214C67.5566 27.5839 67.2663 27.2276 67.0922 26.8714C66.9181 26.5151 66.802 26.0401 66.802 25.6245V25.5651C66.802 24.6745 67.2083 23.9026 67.9629 23.3683C68.7175 22.8339 69.7624 22.537 71.1555 22.537C72.0843 22.537 72.8969 22.5964 73.5935 22.7151C74.2901 22.8339 74.9286 23.012 75.5091 23.1308V24.4964H75.451Z" fill="#687386"/>
<path d="M90.6595 27.7617C89.9048 28.1773 89.0922 28.4148 88.1054 28.4148C87.2927 28.4148 86.5961 28.2367 85.9576 27.9398C85.3191 27.643 84.7386 27.2273 84.2162 26.693C83.7518 26.1586 83.3455 25.5055 83.0553 24.793C82.765 24.0805 82.6489 23.3086 82.6489 22.4773V22.418C82.6489 21.5867 82.765 20.8148 83.0553 20.1023C83.3455 19.3898 83.6938 18.7367 84.1582 18.2023C84.6225 17.668 85.203 17.2523 85.8415 16.9555C86.48 16.6586 87.1766 16.4805 87.9312 16.4805C88.9761 16.4805 89.7887 16.718 90.4853 17.1336C91.1819 17.6086 91.8204 18.143 92.4009 18.7367L93.8521 17.1336C93.5038 16.7773 93.1555 16.4211 92.7492 16.0648C92.3428 15.7086 91.8785 15.4117 91.4141 15.1742C90.9497 14.9367 90.4273 14.7586 89.8468 14.5805C89.2663 14.4617 88.6278 14.4023 87.9312 14.4023C86.8283 14.4023 85.8415 14.6398 84.9128 15.0555C83.984 15.4711 83.1714 16.0648 82.4748 16.7773C81.7782 17.4898 81.2558 18.3211 80.8495 19.3305C80.4431 20.2805 80.269 21.2898 80.269 22.418V22.4773C80.269 23.5461 80.4431 24.5555 80.8495 25.5055C81.2558 26.4555 81.7782 27.2867 82.4748 27.9992C83.1714 28.7117 83.984 29.3055 84.9128 29.7211C85.8415 30.1367 86.8283 30.3742 87.9312 30.3742C89.3244 30.3742 90.4853 30.0773 91.4721 29.543C92.4009 29.0086 93.2716 28.2961 94.0262 27.4055L92.6331 26.0398C92.0526 26.7523 91.356 27.3461 90.6595 27.7617Z" fill="#687386"/>
<path d="M109.699 14.8181H106.913L98.9022 23.4275V8.58374H96.6964V30.0775H98.9022V26.0994L101.921 22.9525L107.261 30.0775H109.931L103.43 21.4087L109.699 14.8181Z" fill="#687386"/>
<path d="M133.498 9.47437L125.546 28.415L117.651 9.47437H116.026L124.849 30.1962H126.184L135.066 9.47437H133.498Z" fill="#687386"/>
<path d="M152.074 25.8619C151.029 26.9307 149.984 27.7025 148.939 28.2369C147.836 28.7713 146.617 29.0682 145.108 29.0682C143.889 29.0682 142.786 28.8307 141.741 28.3557C140.696 27.8807 139.826 27.2275 139.071 26.3963C138.316 25.565 137.736 24.5557 137.271 23.4275C136.807 22.2994 136.633 21.1119 136.633 19.8057V19.7463C136.633 18.44 136.865 17.2525 137.271 16.1244C137.678 14.9963 138.316 14.0463 139.071 13.215C139.826 12.3838 140.754 11.7307 141.741 11.2557C142.786 10.7807 143.889 10.5432 145.108 10.5432C145.862 10.5432 146.559 10.6025 147.198 10.7807C147.836 10.9588 148.417 11.1369 148.997 11.4338C149.519 11.6713 150.042 12.0275 150.564 12.3838C151.029 12.74 151.493 13.1557 151.957 13.5713L153.002 12.4432C152.48 11.9682 151.957 11.4932 151.377 11.0775C150.855 10.6619 150.216 10.3057 149.636 10.0088C148.997 9.71191 148.359 9.47441 147.604 9.35566C146.849 9.17754 146.037 9.11816 145.166 9.11816C143.715 9.11816 142.38 9.41504 141.161 9.94941C139.942 10.4838 138.897 11.2557 137.968 12.265C137.097 13.215 136.401 14.3432 135.878 15.6494C135.356 16.9557 135.124 18.3213 135.124 19.7463V19.8057C135.124 21.29 135.356 22.6557 135.878 23.9619C136.401 25.2682 137.097 26.3963 137.968 27.3463C138.839 28.2963 139.942 29.0682 141.161 29.6025C142.38 30.1369 143.715 30.4338 145.166 30.4338C146.037 30.4338 146.849 30.3744 147.604 30.1963C148.359 30.0182 149.055 29.7807 149.694 29.4838C150.332 29.1869 150.913 28.7713 151.493 28.3557C152.074 27.94 152.596 27.4057 153.176 26.8713L152.074 25.8619Z" fill="#687386"/>
<path d="M26.4591 7.57432L20.1899 13.9868H13.9208L6.25858 21.8243H13.5145V28.2368H19.7836V35.6587L27.4459 27.8212V21.4087L33.6569 15.0556L37.2559 3.89307L26.4591 7.57432ZM9.56728 20.3993L14.4433 15.4118H18.7968L13.9208 20.3993H9.56728ZM35.1081 6.14932L32.4379 14.2837L20.1899 26.8118H14.9076V21.4087L27.1556 8.88057L35.1081 6.14932ZM21.1767 32.2743V27.8212L26.0527 22.8337V27.2868L21.1767 32.2743Z" fill="#687386"/>
<path d="M7.41952 31.6806L12.1214 26.8712C12.2375 26.7524 12.2375 26.5743 12.1214 26.3962C12.0053 26.2774 11.8311 26.2774 11.657 26.3962L6.95514 31.2056C6.83905 31.3243 6.83905 31.5024 6.95514 31.6806C7.12929 31.7993 7.30343 31.7993 7.41952 31.6806Z" fill="#687386"/>
<path d="M14.8496 29.6619L10.1477 34.4713C10.0316 34.59 10.0316 34.7682 10.1477 34.9463C10.2638 35.065 10.438 35.065 10.6121 34.9463L15.314 30.1369C15.43 30.0182 15.43 29.84 15.314 29.6619C15.1398 29.4838 14.9657 29.4838 14.8496 29.6619Z" fill="#687386"/>
<path d="M12.5277 29.2463C12.4116 29.1275 12.2375 29.1275 12.0633 29.2463L6.95514 34.4713C6.83905 34.59 6.83905 34.7682 6.95514 34.9463C7.07124 35.065 7.24538 35.065 7.41952 34.9463L12.5277 29.7213C12.6438 29.5432 12.6438 29.365 12.5277 29.2463Z" fill="#687386"/>
<path d="M30.349 13.4905C31.0291 12.7949 31.0291 11.6671 30.349 10.9714C29.669 10.2758 28.5664 10.2758 27.8863 10.9714C27.2063 11.667 27.2063 12.7949 27.8863 13.4905C28.5664 14.1861 29.669 14.1861 30.349 13.4905Z" fill="#687386"/>
</g>
<defs>
<clipPath id="clip0_8_622">
<rect width="152.084" height="38" fill="white" transform="translate(0.922302 0.500244)"/>
</clipPath>
</defs>
</svg>
