<svg width="17" height="13" viewBox="0 0 17 13" fill="none" xmlns="http://www.w3.org/2000/svg">
<path d="M14.4063 1.645C13.0092 0.521608 10.7991 0.331564 10.7052 0.323492C10.5577 0.311018 10.4175 0.394667 10.3574 0.52968C10.3529 0.538485 10.3045 0.649283 10.251 0.821718C11.1748 0.977276 12.3099 1.29133 13.3372 1.92897C13.5015 2.03096 13.5522 2.24742 13.4502 2.41252C13.3841 2.51965 13.2689 2.57835 13.1515 2.57835C13.0884 2.57835 13.0246 2.56147 12.9666 2.52552C11.2012 1.43074 8.99549 1.37571 8.57137 1.37571C8.14725 1.37571 5.94083 1.43074 4.17686 2.52552C4.01176 2.62824 3.79604 2.57688 3.69331 2.41252C3.59058 2.24742 3.64195 2.03169 3.80631 1.92897C4.83358 1.29206 5.96798 0.977276 6.89252 0.821718C6.83822 0.64855 6.78979 0.538485 6.78612 0.52968C6.72522 0.394667 6.58581 0.309551 6.43758 0.324226C6.3444 0.331564 4.1343 0.521608 2.71814 1.66114C1.9785 2.34428 0.499969 6.34182 0.499969 9.79785C0.499969 9.85875 0.516112 9.91892 0.546197 9.97175C1.56686 11.7643 4.35076 12.2339 4.98547 12.2545C4.98914 12.2545 4.9928 12.2545 4.99647 12.2545C5.10874 12.2545 5.2144 12.2009 5.28044 12.1099L5.92248 11.228C4.19153 10.7804 3.30735 10.0209 3.25599 9.97615C3.1107 9.84774 3.09676 9.62615 3.22517 9.48086C3.35358 9.33558 3.57444 9.32164 3.71972 9.44931C3.741 9.46839 5.36923 10.8501 8.57137 10.8501C11.7794 10.8501 13.4076 9.46252 13.4237 9.44858C13.569 9.32237 13.7906 9.33558 13.9183 9.4816C14.046 9.62688 14.032 9.84774 13.8875 9.97542C13.8361 10.0209 12.9519 10.7796 11.221 11.2272L11.863 12.1092C11.9291 12.2002 12.0347 12.2538 12.147 12.2538C12.1507 12.2538 12.1543 12.2538 12.158 12.2538C12.7927 12.2339 15.5766 11.7643 16.5973 9.97102C16.6266 9.91819 16.6428 9.85875 16.6428 9.79785C16.6428 6.34182 15.1642 2.34428 14.4063 1.645ZM6.2901 8.39416C5.6121 8.39416 5.06178 7.76532 5.06178 6.99047C5.06178 6.21561 5.61137 5.58678 6.2901 5.58678C6.96883 5.58678 7.51842 6.21561 7.51842 6.99047C7.51842 7.76532 6.96883 8.39416 6.2901 8.39416ZM10.8526 8.39416C10.1746 8.39416 9.62432 7.76532 9.62432 6.99047C9.62432 6.21561 10.1739 5.58678 10.8526 5.58678C11.5306 5.58678 12.081 6.21561 12.081 6.99047C12.081 7.76532 11.5306 8.39416 10.8526 8.39416Z" fill="white"/>
</svg>
