<svg width="14" height="14" viewBox="0 0 14 14" fill="none" xmlns="http://www.w3.org/2000/svg">
<path d="M6.80846 0.576172C3.04378 0.576172 -0.0085144 3.62847 -0.0085144 7.39314C-0.0085144 10.5875 2.19109 13.2603 5.15648 13.9999C5.12466 13.9079 5.10421 13.8011 5.10421 13.6687V12.5036C4.82756 12.5036 4.364 12.5036 4.24755 12.5036C3.78115 12.5036 3.36645 12.3031 3.16535 11.9304C2.9421 11.5163 2.90347 10.8829 2.35016 10.4954C2.18598 10.3665 2.31096 10.2193 2.50013 10.2392C2.8495 10.3381 3.13922 10.5778 3.4119 10.9334C3.68344 11.2896 3.81126 11.3703 4.31856 11.3703C4.56454 11.3703 4.93265 11.3561 5.27918 11.3015C5.46551 10.8283 5.78761 10.3926 6.18129 10.187C3.91124 9.95348 2.82791 8.82414 2.82791 7.29089C2.82791 6.63078 3.10911 5.99226 3.58687 5.45428C3.43008 4.92029 3.23296 3.83128 3.64709 3.41658C4.6685 3.41658 5.286 4.07896 5.43427 4.2579C5.94327 4.0835 6.50226 3.98466 7.08966 3.98466C7.67819 3.98466 8.23945 4.0835 8.74959 4.25904C8.89615 4.08123 9.51423 3.41658 10.5379 3.41658C10.9537 3.83184 10.7543 4.9254 10.5959 5.45826C11.0708 5.9951 11.3503 6.63191 11.3503 7.29089C11.3503 8.823 10.2686 9.95178 8.00199 10.1864C8.62575 10.5119 9.08078 11.4265 9.08078 12.1156V13.6687C9.08078 13.7278 9.06771 13.7704 9.0609 13.821C11.7172 12.8899 13.6254 10.3676 13.6254 7.39314C13.6254 3.62847 10.5731 0.576172 6.80846 0.576172Z" fill="white"/>
</svg>
