<svg width="14" height="13" viewBox="0 0 14 13" fill="none" xmlns="http://www.w3.org/2000/svg">
<path d="M12.8598 0.57126C12.636 0.381537 12.2846 0.354391 11.9213 0.500263H11.9207C11.5386 0.653592 1.10381 5.12938 0.679025 5.31224C0.601764 5.33909 -0.0730056 5.59086 -0.00350021 6.15168C0.0585475 6.65731 0.600869 6.86672 0.667093 6.89088L3.31993 7.79923C3.49593 8.3851 4.14475 10.5466 4.28823 11.0084C4.37773 11.2963 4.5236 11.6745 4.77925 11.7524C5.00357 11.8389 5.22671 11.7598 5.37109 11.6465L6.99298 10.1421L9.61122 12.184L9.67356 12.2213C9.85135 12.3001 10.0217 12.3395 10.1843 12.3395C10.3098 12.3395 10.4304 12.3159 10.5455 12.2688C10.9378 12.1077 11.0947 11.7339 11.1111 11.6915L13.0668 1.52614C13.1861 0.983221 13.0203 0.706989 12.8598 0.57126ZM5.65955 8.16256L4.76463 10.549L3.86971 7.56595L10.7308 2.49474L5.65955 8.16256Z" fill="white"/>
</svg>
