<svg width="15" height="12" viewBox="0 0 15 12" fill="none" xmlns="http://www.w3.org/2000/svg">
<path d="M14.929 1.41214C14.3877 1.65245 13.8075 1.81381 13.1976 1.88705C13.8201 1.51399 14.2984 0.923497 14.5227 0.220861C13.9414 0.565313 13.2948 0.815928 12.6094 0.950962C12.0601 0.36505 11.2773 0 10.4111 0C8.74716 0 7.39797 1.34805 7.39797 3.01195C7.39797 3.24769 7.42543 3.4777 7.47693 3.69857C4.97307 3.57269 2.75416 2.3734 1.26764 0.550436C1.00787 0.996736 0.860248 1.51399 0.860248 2.06557C0.860248 3.11037 1.39123 4.03272 2.20029 4.574C1.70593 4.55798 1.24132 4.4218 0.835072 4.19636C0.835072 4.20895 0.835072 4.22154 0.835072 4.23413C0.835072 5.69433 1.87415 6.91078 3.25081 7.18886C2.99905 7.25752 2.73242 7.29414 2.45777 7.29414C2.26323 7.29414 2.07441 7.27583 1.89017 7.23921C2.27467 8.43507 3.38699 9.30821 4.70415 9.33224C3.67422 10.1402 2.37538 10.6208 0.96324 10.6208C0.719492 10.6208 0.480321 10.6071 0.245728 10.5784C1.57776 11.4344 3.16155 11.9322 4.86321 11.9322C10.4042 11.9322 13.4345 7.3422 13.4345 3.36212C13.4345 3.23167 13.431 3.10007 13.4264 2.9719C14.0146 2.54734 14.525 2.01636 14.929 1.41214Z" fill="white"/>
</svg>
