<svg width="17" height="12" viewBox="0 0 17 12" fill="none" xmlns="http://www.w3.org/2000/svg">
<path d="M16.0469 1.87382C15.8675 1.13625 15.3389 0.555388 14.6677 0.358259C13.4512 0 8.57286 0 8.57286 0C8.57286 0 3.69463 0 2.47809 0.358259C1.80687 0.555388 1.27825 1.13625 1.09889 1.87382C0.772888 3.21076 0.772888 6.00004 0.772888 6.00004C0.772888 6.00004 0.772888 8.78932 1.09889 10.1263C1.27825 10.8638 1.80687 11.4446 2.47809 11.6418C3.69463 12 8.57286 12 8.57286 12C8.57286 12 13.4512 12 14.6677 11.6418C15.3389 11.4446 15.8675 10.8637 16.0469 10.1263C16.3729 8.78924 16.3729 6.00004 16.3729 6.00004C16.3729 6.00004 16.3729 3.21076 16.0469 1.87382Z" fill="white"/>
<path d="M6.84564 8.44793L11.1482 6.00044L6.84564 3.55273V8.44793Z" fill="#0497EC"/>
</svg>
