<svg width="13" height="13" viewBox="0 0 13 13" fill="none" xmlns="http://www.w3.org/2000/svg">
<path fill-rule="evenodd" clip-rule="evenodd" d="M0.373317 1.34238V4.90159L1.25971 5.81525L-0.0085144 6.59255V9.52447L2.54157 12.0882L5.07802 12.17C6.24624 12.1246 8.92361 11.9491 10.2873 11.6109C11.651 11.2727 12.4192 11.0154 12.6328 10.9291V7.39713L11.7328 6.44255L12.4419 5.73343V2.78788L9.9191 0.237793C9.6009 0.36507 8.67814 0.671444 7.53265 0.878724C6.10078 1.13782 4.98256 1.28783 3.5507 1.34238C2.4052 1.38601 0.955155 1.36056 0.373317 1.34238ZM3.87801 4.91519C4.52348 4.94701 6.16354 4.97246 7.55995 4.81973C8.95636 4.667 10.7328 4.27426 11.4464 4.09698V5.52884C11.1101 5.86067 10.1919 6.73161 9.21001 7.56073C8.22815 8.38985 7.15539 9.22443 6.74174 9.53807C7.27812 9.47898 8.52271 9.33352 9.21001 9.22443C9.8973 9.11533 11.1419 8.82441 11.6783 8.69259V10.2608C11.4464 10.3608 10.6528 10.6099 9.33274 10.8063C7.68268 11.0518 6.53719 11.1336 5.60988 11.1609C4.86804 11.1827 3.90983 11.1699 3.52345 11.1609V9.72899C4.00074 9.41534 5.12714 8.66531 5.81444 8.17439C6.50173 7.68346 7.72814 6.72434 8.25543 6.30614C7.99633 6.34705 7.33085 6.43706 6.74174 6.46979C6.15263 6.50251 4.58712 6.51979 3.87801 6.52433V4.91519Z" fill="white"/>
</svg>
